22700 0 2 4           
16 Autodesk Neutron 20 ASM 227.1.1.65535 NT 24 Thu Aug 26 00:05:25 2021 
10 9.999999999999999547e-07 1.000000000000000036e-10 
asmheader $-1 -1 @13 227.1.1.65535 #
body $2 0 $-1 $3 $-1 $-1 #
ATTRIB_CUSTOM-attrib $-1 -1 $4 $-1 $1 @20 Timestamp_attrib_def 1 1406915266000 #
lump $-1 -1 $-1 $-1 $5 $1 #
ATTRIB_CUSTOM-attrib $-1 -1 $6 $2 $1 @22 generic_tag_attrib_def 3 3 -1 @23 generic_tag_attrib_def  4 3 @3 332 1 0 0 3 @3 452 1 0 0 3 @3 628 1 0 0 3 @3 761 1 0 0 #
shell $-1 -1 $-1 $-1 $-1 $7 $-1 $3 #
DXID-attrib $-1 -1 $-1 $4 $1 @18 ASM_BODY_FROM_STEP @4 2675 #
face $8 2 $-1 $9 $10 $5 $-1 $11 forward single #
ATTRIB_CUSTOM-attrib $-1 -1 $12 $-1 $7 @22 generic_tag_attrib_def 3 3 -1 @23 generic_tag_attrib_def  1 1 @1 0 0 4 332 452 628 761 0 #
face $13 3 $-1 $14 $15 $5 $-1 $16 reversed single #
loop $-1 -1 $-1 $-1 $17 $7 #
plane-surface $-1 -1 $-1 -0.6350000000000000089 0 0 0 0 1 1 0 0 forward_v I I I I #
DXID-attrib $-1 -1 $-1 $8 $7 @18 ASM_FACE_FROM_STEP @5 14645 #
ATTRIB_CUSTOM-attrib $-1 -1 $18 $-1 $9 @22 generic_tag_attrib_def 3 3 -1 @23 generic_tag_attrib_def  1 1 @1 1 0 4 332 452 628 761 0 #
face $19 4 $-1 $20 $21 $5 $-1 $22 forward single #
loop $-1 -1 $-1 $-1 $23 $9 #
plane-surface $-1 -1 $-1 -0.6337469725519530028 -0.1749999999999999889 0.03987197990110549761 0.06279051952930002345 0 0.9980267284282724471 0.9980267284282724471 0 -0.06279051952930002345 forward_v I I I I #
coedge $-1 -1 $-1 $24 $25 $26 $27 forward $10 0 $-1 #
DXID-attrib $-1 -1 $-1 $13 $9 @18 ASM_FACE_FROM_STEP @5 14646 #
ATTRIB_CUSTOM-attrib $-1 -1 $28 $-1 $14 @22 generic_tag_attrib_def 3 3 -1 @23 generic_tag_attrib_def  1 1 @1 2 0 4 332 452 628 761 0 #
face $29 5 $-1 $30 $31 $5 $-1 $32 reversed single #
loop $-1 -1 $-1 $-1 $33 $14 #
cone-surface $-1 -1 $-1 0 0 0 0 -1 0 0 0 -0.6350000000000000089 1 I I 0 1 0.6350000000000000089 forward I I I I #
coedge $-1 -1 $-1 $34 $35 $36 $37 reversed $15 0 $-1 #
coedge $-1 -1 $-1 $38 $17 $39 $40 forward $10 0 $-1 #
coedge $-1 -1 $-1 $17 $38 $41 $42 forward $10 0 $-1 #
coedge $-1 -1 $-1 $43 $33 $17 $27 reversed $21 0 $-1 #
edge $44 14 $-1 $45 0 $46 1 $17 $47 forward @7 unknown #
DXID-attrib $-1 -1 $-1 $19 $14 @18 ASM_FACE_FROM_STEP @5 14647 #
ATTRIB_CUSTOM-attrib $-1 -1 $48 $-1 $20 @22 generic_tag_attrib_def 3 3 -1 @23 generic_tag_attrib_def  1 1 @1 3 0 4 332 452 628 761 0 #
face $49 1 $-1 $50 $51 $5 $-1 $52 reversed single #
loop $-1 -1 $-1 $-1 $53 $20 #
spline-surface $-1 -1 $-1 forward { exact_spl_sur 22020 full nurbs 1 2 both open open none none 2 7 
	0 1 1 1 
	0 2 0.1666666666666669905 2 0.3333333333333329818 2 0.5 2 0.6666666666666669627 2 
	0.8333333333333330373 2 1 2 
	-0.6350000000000000089 0 0 1 
	-0.4249999999999999889 0 0 1 
	-0.6350000000000000089 -0.0145833333333333006 -0.3621976053425430275 0.868631514438190977 
	-0.4249999999999999889 -0.0145833333333333006 -0.2424157201111510063 0.868631514438190977 
	-0.3232412990014840171 -0.02916666666666669835 -0.5465711871475049666 1 
	-0.2163426016939070107 -0.02916666666666669835 -0.3658153614766769812 1 
	-0.01148259800296889954 -0.04374999999999999722 -0.7309447689524669611 0.868631514438190977 
	-0.007685203387813859845 -0.04374999999999999722 -0.4892150028422019847 0.868631514438190977 
	0.3059135830545919865 -0.05833333333333329956 -0.5564547418278520396 1 
	0.204745311493230997 -0.05833333333333329956 -0.3724303390186409768 1 
	0.6233097641121529975 -0.07291666666666669905 -0.3819647147032370071 0.868631514438190977 
	0.4171758263742750272 -0.07291666666666669905 -0.2556456751950800244 0.868631514438190977 
	0.6346866658322399823 -0.08749999999999999445 -0.01994583201460689917 1 
	0.4247902881554360133 -0.08749999999999999445 -0.0133495726082015001 1 
	0.6460635675523269672 -0.1020833333333329984 0.3420730506740229937 0.868631514438190977 
	0.4324047499365969993 -0.1020833333333329984 0.2289465299786770103 0.868631514438190977 
	0.3402500148116580081 -0.1166666666666670016 0.5361482326937829779 1 
	0.2277263878660699958 -0.1166666666666670016 0.3588393683383589994 1 
	0.03443646207098879919 -0.1312500000000000056 0.7302234147135420184 0.868631514438190977 
	0.02304802579554370012 -0.1312500000000000056 0.488732206698040017 0.868631514438190977 
	-0.2882839673346189735 -0.1458333333333330095 0.565789142859610017 1 
	-0.1929459623893119979 -0.1458333333333330095 0.3786777727800539894 1 
	-0.611004396740226996 -0.1604166666666670127 0.4013548710056780155 0.868631514438190977 
	-0.4089399505741669882 -0.1604166666666670127 0.2686233388620680174 0.868631514438190977 
	-0.6337469725519530028 -0.1749999999999999889 0.03987197990110490087 1 
	-0.4241613595820160065 -0.1749999999999999889 0.02668597079995210092 1 
	0 
	
	0 
	0 
	0 
	0 
	5 0.1666666666666669905 0.3333333333333329818 0.5 0.6666666666666669627 0.8333333333333330373 
	0 
	F F 1 F 0 F 1 F 0 UNEXTENDED } I I I I #
coedge $-1 -1 $-1 $26 $36 $54 $55 reversed $21 0 $-1 #
coedge $-1 -1 $-1 $56 $23 $57 $58 reversed $15 0 $-1 #
coedge $-1 -1 $-1 $23 $56 $59 $60 reversed $15 0 $-1 #
coedge $-1 -1 $-1 $33 $43 $23 $37 forward $21 0 $-1 #
edge $61 18 $-1 $62 0 $63 0.999999999999999778 $23 $64 forward @7 unknown #
coedge $-1 -1 $-1 $25 $24 $65 $66 forward $10 0 $-1 #
coedge $-1 -1 $-1 $54 $53 $24 $40 reversed $31 0 $67 #
edge $68 15 $-1 $46 0 $69 1.000000000000000222 $24 $70 forward @7 unknown #
coedge $-1 -1 $-1 $71 $72 $25 $42 reversed $73 0 $74 #
edge $75 17 $-1 $76 0 $45 1.000000000000000222 $25 $77 forward @7 unknown #
coedge $-1 -1 $-1 $36 $26 $72 $78 forward $21 0 $-1 #
DXID-attrib $-1 -1 $-1 $-1 $27 @18 ASM_EDGE_FROM_STEP @4 8795 #
vertex $-1 6 $-1 $27 0 $79 #
vertex $-1 7 $-1 $27 1 $80 #
straight-curve $-1 -1 $-1 -0.6350000000000000089 0.1600000000000000033 0 0 -0.1600000000000000033 0 F 0 F 1 #
DXID-attrib $-1 -1 $-1 $29 $20 @18 ASM_FACE_FROM_STEP @5 14648 #
ATTRIB_CUSTOM-attrib $-1 -1 $81 $-1 $30 @22 generic_tag_attrib_def 3 3 -1 @23 generic_tag_attrib_def  1 1 @1 4 0 4 332 452 628 761 0 #
face $82 26 $-1 $-1 $73 $5 $-1 $83 reversed single #
loop $-1 -1 $-1 $-1 $84 $30 #
cone-surface $-1 -1 $-1 0 0 0 0 -1 0 0 0 -0.4249999999999999889 1 I I 0 1 0.4249999999999999889 forward I I I I #
coedge $-1 -1 $-1 $39 $59 $85 $86 reversed $31 0 $87 #
coedge $-1 -1 $-1 $59 $39 $33 $55 forward $31 0 $88 #
edge $89 22 $-1 $46 0 $63 1 $33 $90 forward @7 unknown #
coedge $-1 -1 $-1 $35 $34 $91 $92 reversed $15 0 $-1 #
coedge $-1 -1 $-1 $72 $71 $34 $58 forward $73 0 $93 #
edge $94 19 $-1 $95 -6.016764686840861519e-17 $62 0.9999999999999993339 $34 $96 forward @7 unknown #
coedge $-1 -1 $-1 $53 $54 $35 $60 forward $31 0 $97 #
edge $98 21 $-1 $63 8.921409708074381213e-17 $99 0.9999999999999994449 $35 $100 forward @7 unknown #
DXID-attrib $-1 -1 $-1 $-1 $37 @18 ASM_EDGE_FROM_STEP @4 8799 #
vertex $-1 11 $-1 $37 0 $101 #
vertex $-1 10 $-1 $37 1 $102 #
straight-curve $-1 -1 $-1 -0.6337469725519530028 -0.01499999999999999944 0.03987197990110549761 0 -0.1600000000000000033 0 F 0 F 0.999999999999999778 #
coedge $-1 -1 $-1 $85 $84 $38 $66 reversed $51 0 $-1 #
edge $103 16 $-1 $69 0 $76 1 $38 $104 forward @7 unknown #
pcurve $-1 -1 $-1 0 forward { exp_par_cur nubs 1 open 2 
	-1.000000000000000222 1 -0 1 
	1 0 
	1.11022302462515654e-16 0 
	1.132427485117659691e-16 
	spline reversed { ref 0 } I I I I 
	} 0 0 #
DXID-attrib $-1 -1 $-1 $-1 $40 @18 ASM_EDGE_FROM_STEP @4 8796 #
vertex $-1 8 $-1 $40 1 $105 #
straight-curve $-1 -1 $-1 -0.6350000000000000089 0 0 0.2099999999999999922 0 0 F 0 F 1.000000000000000222 #
coedge $-1 -1 $-1 $57 $41 $84 $106 forward $73 0 $107 #
coedge $-1 -1 $-1 $41 $57 $43 $78 reversed $73 0 $108 #
loop $-1 -1 $-1 $-1 $57 $50 #
pcurve $-1 -1 $-1 0 forward { exp_par_cur nubs 1 open 2 
	-1.000000000000000222 1 -0 1 
	1 0 
	0 0 
	5.83333787141744636e-19 
	spline reversed { exact_spl_sur 22020 full nurbs 1 2 both open open none none 2 7 
	0 1 1 1 
	0 2 0.1666666666666669905 2 0.3333333333333329818 2 0.5 2 0.6666666666666669627 2 
	0.8333333333333330373 2 1 2 
	-0.4249999999999999889 0.1600000000000000033 0 1 
	-0.6350000000000000089 0.1600000000000000033 0 1 
	-0.4249999999999999889 0.1454166666666669994 -0.2424157201111510063 0.868631514438190977 
	-0.6350000000000000089 0.1454166666666669994 -0.3621976053425430275 0.868631514438190977 
	-0.2163426016939070107 0.1308333333333329962 -0.3658153614766769812 1 
	-0.3232412990014840171 0.1308333333333329962 -0.5465711871475049666 1 
	-0.007685203387813859845 0.1162500000000000061 -0.4892150028422019847 0.868631514438190977 
	-0.01148259800296889954 0.1162500000000000061 -0.7309447689524669611 0.868631514438190977 
	0.204745311493230997 0.1016666666666670021 -0.3724303390186409768 1 
	0.3059135830545919865 0.1016666666666670021 -0.5564547418278520396 1 
	0.4171758263742750272 0.08708333333333330428 -0.2556456751950800244 0.868631514438190977 
	0.6233097641121529975 0.08708333333333340143 -0.3819647147032370071 0.868631514438190977 
	0.4247902881554360133 0.072499999999999995 -0.0133495726082015001 1 
	0.6346866658322399823 0.072499999999999995 -0.01994583201460689917 1 
	0.4324047499365969993 0.0579166666666666996 0.2289465299786770103 0.868631514438190977 
	0.6460635675523269672 0.0579166666666666996 0.3420730506740229937 0.868631514438190977 
	0.2277263878660699958 0.04333333333333330012 0.3588393683383589994 1 
	0.3402500148116580081 0.04333333333333339726 0.5361482326937829779 1 
	0.02304802579554370012 0.02875000000000000125 0.488732206698040017 0.868631514438190977 
	0.03443646207098879919 0.02875000000000000125 0.7302234147135420184 0.868631514438190977 
	-0.1929459623893119979 0.01416666666666670064 0.3786777727800539894 1 
	-0.2882839673346189735 0.01416666666666670064 0.565789142859610017 1 
	-0.4089399505741669882 -0.0004166666666666639829 0.2686233388620680174 0.868631514438190977 
	-0.611004396740226996 -0.0004166666666666419736 0.4013548710056780155 0.868631514438190977 
	-0.4241613595820160065 -0.01499999999999999944 0.02668597079995210092 1 
	-0.6337469725519530028 -0.01499999999999999944 0.03987197990110490087 1 
	0 
	
	0 
	0 
	0 
	0 
	5 0.1666666666666669905 0.3333333333333329818 0.5 0.6666666666666669627 0.8333333333333330373 
	0 
	F F 1 F 0 F 1 F 0 UNEXTENDED } I I I I 
	} 0 0 #
DXID-attrib $-1 -1 $-1 $-1 $42 @18 ASM_EDGE_FROM_STEP @4 8798 #
vertex $-1 9 $-1 $66 1 $109 #
straight-curve $-1 -1 $-1 -0.4249999999999999889 0.1600000000000000033 0 -0.2099999999999999922 2.775557561562890735e-17 0 F 0 F 1.000000000000000222 #
edge $110 23 $-1 $45 0 $62 1 $43 $111 forward @7 unknown #
point $-1 -1 $-1 -0.6350000000000000089 0.1600000000000000033 0 #
point $-1 -1 $-1 -0.6350000000000000089 0 0 #
DXID-attrib $-1 -1 $-1 $49 $30 @18 ASM_FACE_FROM_STEP @5 14649 #
ATTRIB_CUSTOM-attrib $-1 -1 $112 $-1 $50 @22 generic_tag_attrib_def 3 3 -1 @23 generic_tag_attrib_def  1 1 @1 5 0 4 332 452 628 761 0 #
spline-surface $-1 -1 $-1 forward { ref 3 } I I I I #
coedge $-1 -1 $-1 $65 $91 $71 $106 reversed $51 0 $-1 #
coedge $-1 -1 $-1 $91 $65 $53 $86 forward $51 0 $-1 #
edge $113 24 $-1 $69 0 $99 1 $53 $114 forward @7 unknown #
pcurve $-1 -1 $-1 0 reversed { exp_par_cur nubs 1 open 2 
	0 1 1 1 
	1 0 
	1 1 
	0 
	spline forward { ref 0 } I I I I 
	} 0 0 #
pcurve $-1 -1 $-1 0 forward { exp_par_cur nubs 1 open 2 
	0 1 1 1 
	0 0 
	4.149492887476310115e-18 1 
	0 
	spline forward { ref 0 } I I I I 
	} 0 0 #
DXID-attrib $-1 -1 $-1 $-1 $55 @18 ASM_EDGE_FROM_STEP @4 8803 #
intcurve-curve $-1 -1 $-1 forward { exact_int_cur 22020 full nurbs 2 open 7 
	0 2 0.1666666666666669905 2 0.3333333333333329818 2 0.5 2 0.6666666666666669627 2 
	0.8333333333333330373 2 1 2 
	-0.6350000000000000089 0 0 1 
	-0.6350000000000000089 -0.01458333333333329887 -0.362197605342542972 0.868631514438190977 
	-0.3232412990014840171 -0.02916666666666669835 -0.5465711871475049666 1 
	-0.01148259800296889954 -0.04374999999999999722 -0.7309447689524669611 0.868631514438190977 
	0.3059135830545919865 -0.05833333333333329956 -0.5564547418278520396 1 
	0.6233097641121529975 -0.07291666666666669905 -0.3819647147032370071 0.868631514438190977 
	0.6346866658322399823 -0.08749999999999999445 -0.01994583201460689917 1 
	0.6460635675523269672 -0.1020833333333329984 0.3420730506740229937 0.868631514438190977 
	0.3402500148116580081 -0.1166666666666670016 0.5361482326937829779 1 
	0.03443646207098879919 -0.1312500000000000056 0.7302234147135420184 0.868631514438190977 
	-0.2882839673346189735 -0.1458333333333330095 0.565789142859610017 1 
	-0.611004396740226996 -0.1604166666666670404 0.40135487100567796 0.868631514438190977 
	-0.6337469725519530028 -0.1749999999999999889 0.03987197990110490087 1 
	0 
	
	null_surface 
	null_surface 
	nullbs 
	nullbs 
	I I 
	0 
	5 0.1666666666666669905 0.3333333333333329818 0.5 0.6666666666666669627 0.8333333333333330373 
	0 
	
	0 F 1 F 0 UNEXTENDED UNEXTENDED } F 0 F 1 #
coedge $-1 -1 $-1 $84 $85 $56 $92 forward $51 0 $-1 #
edge $115 20 $-1 $99 0 $95 0.999999999999999778 $56 $116 forward @7 unknown #
pcurve $-1 -1 $-1 0 forward { exp_par_cur nubs 1 open 2 
	-6.016764686840861519e-17 1 0.9999999999999993339 1 
	1.172231740712146501e-16 0.999999999999999889 
	1 0.999999999999999889 
	2.107245113712271659e-16 
	spline reversed { ref 3 } I I I I 
	} 0 0 #
DXID-attrib $-1 -1 $-1 $-1 $58 @18 ASM_EDGE_FROM_STEP @4 8800 #
vertex $-1 12 $-1 $58 0 $117 #
straight-curve $-1 -1 $-1 -0.4241613595820160065 -0.01499999999999999944 0.0266859707999524999 -0.2095856129699371073 2.081668171172166973e-17 0.01318600910115299944 F -6.016764686840861519e-17 F 0.9999999999999993339 #
pcurve $-1 -1 $-1 0 forward { exp_par_cur nubs 1 open 2 
	8.921409708074381213e-17 1 0.9999999999999994449 1 
	0 0.999999999999999889 
	0.999999999999999778 0.999999999999999778 
	2.463820508874872023e-16 
	spline reversed { ref 0 } I I I I 
	} 0 0 #
DXID-attrib $-1 -1 $-1 $-1 $60 @18 ASM_EDGE_FROM_STEP @4 8802 #
vertex $-1 13 $-1 $92 0 $118 #
straight-curve $-1 -1 $-1 -0.6337469725519530028 -0.1749999999999999889 0.03987197990110549761 0.2095856129699371073 0 -0.01318600910115299944 F 8.921409708074381213e-17 F 0.9999999999999994449 #
point $-1 -1 $-1 -0.6337469725519530028 -0.01499999999999999944 0.03987197990110519924 #
point $-1 -1 $-1 -0.6337469725519530028 -0.1749999999999999889 0.03987197990110519924 #
DXID-attrib $-1 -1 $-1 $-1 $66 @18 ASM_EDGE_FROM_STEP @4 8797 #
straight-curve $-1 -1 $-1 -0.4249999999999999889 0 0 0 0.1600000000000000033 0 F 0 F 1 #
point $-1 -1 $-1 -0.4249999999999999889 0 0 #
edge $119 25 $-1 $76 0 $95 1 $84 $120 forward @7 unknown #
pcurve $-1 -1 $-1 0 forward { exp_par_cur nubs 1 open 2 
	0 1 1 1 
	0 0 
	0 1 
	0 
	spline forward { ref 3 } I I I I 
	} 0 0 #
pcurve $-1 -1 $-1 0 reversed { exp_par_cur nubs 1 open 2 
	0 1 1 1 
	1 0 
	1 1 
	0 
	spline forward { ref 3 } I I I I 
	} 0 0 #
point $-1 -1 $-1 -0.4249999999999999889 0.1600000000000000033 0 #
DXID-attrib $-1 -1 $-1 $-1 $78 @18 ASM_EDGE_FROM_STEP @4 8804 #
intcurve-curve $-1 -1 $-1 forward { exact_int_cur 22020 full nurbs 2 open 7 
	0 2 0.1666666666666669905 2 0.3333333333333329818 2 0.5 2 0.6666666666666669627 2 
	0.8333333333333330373 2 1 2 
	-0.6350000000000000089 0.1600000000000000033 0 1 
	-0.6350000000000000089 0.1454166666666669994 -0.362197605342542972 0.868631514438190977 
	-0.3232412990014840171 0.1308333333333329962 -0.5465711871475049666 1 
	-0.01148259800296889954 0.1162500000000000061 -0.7309447689524669611 0.868631514438190977 
	0.3059135830545919865 0.1016666666666670021 -0.5564547418278520396 1 
	0.6233097641121529975 0.08708333333333340143 -0.3819647147032370071 0.868631514438190977 
	0.6346866658322399823 0.072499999999999995 -0.01994583201460689917 1 
	0.6460635675523269672 0.0579166666666666996 0.3420730506740229937 0.868631514438190977 
	0.3402500148116580081 0.04333333333333339726 0.5361482326937829779 1 
	0.03443646207098879919 0.02875000000000000125 0.7302234147135420184 0.868631514438190977 
	-0.2882839673346189735 0.01416666666666670064 0.565789142859610017 1 
	-0.611004396740226996 -0.0004166666666666381247 0.4013548710056780155 0.868631514438190977 
	-0.6337469725519530028 -0.01499999999999999944 0.03987197990110490087 1 
	0 
	
	null_surface 
	null_surface 
	nullbs 
	nullbs 
	I I 
	0 
	5 0.1666666666666669905 0.3333333333333329818 0.5 0.6666666666666669627 0.8333333333333330373 
	0 
	
	0 F 1 F 0 UNEXTENDED UNEXTENDED } F 0 F 1 #
DXID-attrib $-1 -1 $-1 $82 $50 @18 ASM_FACE_FROM_STEP @5 14650 #
DXID-attrib $-1 -1 $-1 $-1 $86 @18 ASM_EDGE_FROM_STEP @4 8805 #
intcurve-curve $-1 -1 $-1 forward { exact_int_cur 22020 full nurbs 2 open 7 
	0 2 0.1666666666666669905 2 0.3333333333333329818 2 0.5 2 0.6666666666666669627 2 
	0.8333333333333330373 2 1 2 
	-0.4249999999999999889 0 0 1 
	-0.4249999999999999889 -0.01458333333333329714 -0.2424157201111509785 0.868631514438190977 
	-0.2163426016939070107 -0.02916666666666669835 -0.3658153614766769812 1 
	-0.007685203387813859845 -0.04374999999999999722 -0.4892150028422019847 0.868631514438190977 
	0.204745311493230997 -0.05833333333333329956 -0.3724303390186409768 1 
	0.4171758263742750272 -0.07291666666666669905 -0.2556456751950800244 0.868631514438190977 
	0.4247902881554360133 -0.08749999999999999445 -0.0133495726082015001 1 
	0.4324047499365969993 -0.1020833333333329984 0.2289465299786770103 0.868631514438190977 
	0.2277263878660699958 -0.1166666666666670016 0.3588393683383589994 1 
	0.02304802579554370012 -0.1312500000000000056 0.488732206698040017 0.868631514438190977 
	-0.1929459623893119979 -0.1458333333333330095 0.3786777727800539894 1 
	-0.4089399505741669882 -0.1604166666666670404 0.2686233388620680174 0.868631514438190977 
	-0.4241613595820160065 -0.1749999999999999889 0.02668597079995210092 1 
	0 
	
	null_surface 
	null_surface 
	nullbs 
	nullbs 
	I I 
	0 
	5 0.1666666666666669905 0.3333333333333329818 0.5 0.6666666666666669627 0.8333333333333330373 
	0 
	
	0 F 1 F 0 UNEXTENDED UNEXTENDED } F 0 F 1 #
DXID-attrib $-1 -1 $-1 $-1 $92 @18 ASM_EDGE_FROM_STEP @4 8801 #
straight-curve $-1 -1 $-1 -0.4241613595820160065 -0.1749999999999999889 0.0266859707999524999 0 0.1600000000000000033 0 F 0 F 0.999999999999999778 #
point $-1 -1 $-1 -0.4241613595820160065 -0.01499999999999999944 0.02668597079995229868 #
point $-1 -1 $-1 -0.4241613595820160065 -0.1749999999999999889 0.02668597079995229868 #
DXID-attrib $-1 -1 $-1 $-1 $106 @18 ASM_EDGE_FROM_STEP @4 8806 #
intcurve-curve $-1 -1 $-1 forward { exact_int_cur 22020 full nurbs 2 open 7 
	0 2 0.1666666666666669905 2 0.3333333333333329818 2 0.5 2 0.6666666666666669627 2 
	0.8333333333333330373 2 1 2 
	-0.4249999999999999889 0.1600000000000000033 0 1 
	-0.4249999999999999889 0.1454166666666669716 -0.2424157201111510063 0.868631514438190977 
	-0.2163426016939070107 0.1308333333333329962 -0.3658153614766769812 1 
	-0.007685203387813859845 0.1162500000000000061 -0.4892150028422019847 0.868631514438190977 
	0.204745311493230997 0.1016666666666670021 -0.3724303390186409768 1 
	0.4171758263742750272 0.08708333333333330428 -0.2556456751950800244 0.868631514438190977 
	0.4247902881554360133 0.072499999999999995 -0.0133495726082015001 1 
	0.4324047499365969993 0.0579166666666666996 0.2289465299786770103 0.868631514438190977 
	0.2277263878660699958 0.04333333333333330012 0.3588393683383589994 1 
	0.02304802579554370012 0.02875000000000000125 0.488732206698040017 0.868631514438190977 
	-0.1929459623893119979 0.01416666666666670064 0.3786777727800539894 1 
	-0.4089399505741669882 -0.0004166666666666554719 0.2686233388620680174 0.868631514438190977 
	-0.4241613595820160065 -0.01499999999999999944 0.02668597079995210092 1 
	0 
	
	null_surface 
	null_surface 
	nullbs 
	nullbs 
	I I 
	0 
	5 0.1666666666666669905 0.3333333333333329818 0.5 0.6666666666666669627 0.8333333333333330373 
	0 
	
	0 F 1 F 0 UNEXTENDED UNEXTENDED } F 0 F 1 #
End-of-ASM-data 