22700 0 2 4           
16 Autodesk Neutron 20 ASM 227.1.1.65535 NT 24 Thu Aug 26 00:05:29 2021 
10 9.999999999999999547e-07 1.000000000000000036e-10 
asmheader $-1 -1 @13 227.1.1.65535 #
body $2 2 $-1 $3 $-1 $-1 #
ATTRIB_CUSTOM-attrib $-1 -1 $4 $-1 $1 @20 Timestamp_attrib_def 1 1406915265000 #
lump $-1 -1 $-1 $-1 $5 $1 #
ATTRIB_CUSTOM-attrib $-1 -1 $-1 $2 $1 @22 generic_tag_attrib_def 3 3 -1 @23 generic_tag_attrib_def  2 3 @3 648 11 0 0 3 @3 740 3 0 0 #
shell $-1 -1 $-1 $-1 $-1 $6 $-1 $3 #
face $7 -1 $-1 $-1 $8 $5 $-1 $9 forward double out #
ATTRIB_CUSTOM-attrib $-1 -1 $-1 $-1 $6 @22 generic_tag_attrib_def 3 3 -1 @23 generic_tag_attrib_def  1 1 @1 7 0 2 648 740 0 #
loop $-1 -1 $-1 $-1 $10 $6 #
spline-surface $-1 -1 $-1 forward { loft_spl_sur 22020 2 
	0 
	1 1 intcurve forward { exact_int_cur 22020 full nubs 3 open 8 
	9.999816459327348639e-07 3 0.5398554778258014553 2 2.356631196870402345 2 5.054033750789352908 2 9.604962170226439611 2 
	21.06034038223540605 2 49.69924615077480468 2 78.3381519259636292 3 
	46.06906530978008618 -8.404100040706053321 6.264448049142885111 
	46.06956716101415594 -8.224142628132510069 6.264448049142885111 
	46.0690736315855176 -6.257303474573663316 6.264448049142885111 
	46.06928906001327562 -5.587917046120290721 6.264448049142885111 
	46.06624468789719629 -5.560750282230712216 6.264448049142885111 
	46.09721328243650618 -5.252221397461782182 6.264448049142885111 
	46.13896385622679475 -5.107642873493363211 6.264448049142885111 
	46.26515838380392154 -4.656457478140838546 6.264448049142885111 
	46.27199020937842988 -4.61840861517625445 6.264448049142885111 
	46.41352534446699707 -4.077723052257361758 6.264448049142885111 
	46.82257190866780405 -2.557906916315454637 6.264448049142885111 
	46.95025535465612165 -2.081234027055822278 6.264448049142885111 
	47.04145824697628342 -1.740751831783656112 6.264448049142885111 
	47.22386403332883731 -1.059787441613246894 6.264448049142885111 
	47.31547798750590061 -0.7194150890266233223 6.264448049142885111 
	47.40626955116334784 -0.3788240146851738488 6.264448049142885111 
	0 
	
	null_surface 
	null_surface 
	nullbs 
	nullbs 
	I I 
	0 
	6 0.5398554778258014553 2.356631196870402345 5.054033750789352908 9.604962170226439611 21.06034038223540605 49.69924615077480468 
	0 
	
	0 F 1 F 0 UNEXTENDED UNEXTENDED } F 9.999816459327348639e-07 F 78.3381519259636292 null_surface nullbs F -1 213 28 1 0 0.0357142857142857123 9.999816459327348639e-07 0.1077791964588698526 3.017789501362269977 1.723263467553597827 0.0357142857142857123 0.07142857142857142461 0.1077791964588698526 0.169324320300069775 1.723263467553597827 1.476099868630015965 0.07142857142857142461 0.1071428571428571369 0.169324320300069775 0.2220421727511417698 1.476099868630015965 1.393369218232338724 0.1071428571428571369 0.1428571428571428492 0.2220421727511417698 0.2718053591165824345 1.393369218232338724 1.393369218232338724 0.1428571428571428492 0.1785714285714285754 0.2718053591165824345 0.321798258341842669 1.393369218232338724 1.39980117830728612 0.1785714285714285754 0.2142857142857142738 0.321798258341842669 0.3753721053946794672 1.39980117830728612 1.500067717479431018 0.2142857142857142738 0.25 0.3753721053946794672 0.4394522901759350675 1.500067717479431018 1.794245173875156141 0.25 0.2857142857142856984 0.4394522901759350675 0.5907319088995145462 1.794245173875156141 4.235829324260227402 0.2857142857142856984 0.3214285714285714524 0.5907319088995145462 1.056271516649253561 4.235829324260227402 13.03510901699267777 0.3214285714285714524 0.3571428571428571508 1.056271516649253561 2.148559563090330915 13.03510901699267777 30.58406530035017923 0.3571428571428571508 0.3928571428571428492 2.148559563090330915 3.675446526738998632 30.58406530035017923 42.75283498216271738 0.3928571428571428492 0.4285714285714285476 3.675446526738998632 5.250315390128074355 42.75283498216271738 44.09632817489413981 0.4285714285714285476 0.4642857142857143016 5.250315390128074355 7.721243881961166622 44.09632817489413981 69.18599777132651241 0.4642857142857143016 0.5 7.721243881961166622 10.61029647448472346 69.18599777132651241 44.67376304064328707 0.5 0.5357142857142856984 10.61029647448472346 12.20578801165055438 44.67376304064328707 36.6632708627048558 0.5357142857142856984 0.5714285714285713969 12.20578801165055438 13.51519054246144158 36.6632708627048558 34.09910366334472798 0.5714285714285713969 0.6071428571428570953 13.51519054246144158 14.73301567329518136 34.09910366334472798 34.04320467538142481 0.6071428571428570953 0.6428571428571429047 14.73301567329518136 15.94884441170166411 34.04320467538142481 34.04320467538142481 0.6428571428571429047 0.6785714285714286031 15.94884441170166411 17.25061170398262078 34.04320467538142481 36.44948418386680089 0.6785714285714286031 0.7142857142857143016 17.25061170398262078 18.82126194197285685 36.44948418386680089 43.97820666372663112 0.7142857142857143016 0.75 18.82126194197285685 22.83027469412851573 43.97820666372663112 112.2523570603585057 0.75 0.7857142857142856984 22.83027469412851573 30.75996796999848115 112.2523570603585057 222.0314117243590317 0.7857142857142856984 0.8214285714285713969 30.75996796999848115 38.68966124586844302 222.0314117243590317 222.0314117243590317 0.8214285714285713969 0.8571428571428570953 38.68966124586844302 46.61935452173840844 222.0314117243590317 222.031411724359117 0.8571428571428570953 0.8928571428571429047 46.61935452173840844 54.54905191277586596 222.031411724359117 222.0315269490482137 0.8928571428571429047 0.9285714285714286031 54.54905191277586596 62.47875191717175625 222.0315269490482137 222.0316001230846155 0.9285714285714286031 0.9642857142857143016 62.47875191717175625 70.40845192156763233 222.0316001230846155 222.0316001230846155 0.9642857142857143016 1 70.40845192156763233 78.3381519259636292 222.0316001230846155 222.0316001230879976 F null_curve 0 -1 
	1 
	1 1 straight -2.800000000000000266 16.81014725958284828 4.725000000000003197 -0 1 -0 F -20.37479622160869752 F -0 null_surface nullbs F -1 213 28 1 0 0.0357142857142857123 -20.37479622160869752 -19.64712492797981724 20.37479622160864778 20.37479622160864778 0.0357142857142857123 0.07142857142857142461 -19.64712492797981724 -18.91945363435093341 20.37479622160864778 20.37479622160874726 0.07142857142857142461 0.1071428571428571369 -18.91945363435093341 -18.19178234072204958 20.37479622160874726 20.37479622160864778 0.1071428571428571369 0.1428571428571428492 -18.19178234072204958 -17.4641110470931693 20.37479622160864778 20.37479622160864068 0.1428571428571428492 0.1785714285714285754 -17.4641110470931693 -16.73643975346428903 20.37479622160864068 20.37479622160864068 0.1785714285714285754 0.2142857142857142738 -16.73643975346428903 -16.0087684598354052 20.37479622160864068 20.37479622160869042 0.2142857142857142738 0.25 -16.0087684598354052 -15.28109716620652314 20.37479622160869042 20.37479622160869042 0.25 0.2857142857142856984 -15.28109716620652314 -14.55342587257764109 20.37479622160869042 20.37479622160867621 0.2857142857142856984 0.3214285714285714524 -14.55342587257764109 -13.82575457894875903 20.37479622160867621 20.37479622160867621 0.3214285714285714524 0.3571428571428571508 -13.82575457894875903 -13.0980832853198752 20.37479622160867621 20.3747962216086087 0.3571428571428571508 0.3928571428571428492 -13.0980832853198752 -12.3704119916909967 20.3747962216086087 20.3747962216086087 0.3928571428571428492 0.4285714285714285476 -12.3704119916909967 -11.64274069806211287 20.3747962216086087 20.37479622160867621 0.4285714285714285476 0.4642857142857143016 -11.64274069806211287 -10.91506940443323082 20.37479622160867621 20.37479622160867621 0.4642857142857143016 0.5 -10.91506940443323082 -10.18739811080434876 20.37479622160867621 20.37479622160870818 0.5 0.5357142857142856984 -10.18739811080434876 -9.459726817175466707 20.37479622160870818 20.37479622160870818 0.5357142857142856984 0.5714285714285713969 -9.459726817175466707 -8.732055523546584652 20.37479622160870818 20.37479622160865844 0.5714285714285713969 0.6071428571428570953 -8.732055523546584652 -8.004384229917704374 20.37479622160865844 20.37479622160865844 0.6071428571428570953 0.6428571428571429047 -8.004384229917704374 -7.276712936288819655 20.37479622160865844 20.37479622160870818 0.6428571428571429047 0.6785714285714286031 -7.276712936288819655 -6.549041642659937601 20.37479622160870818 20.37479622160868331 0.6785714285714286031 0.7142857142857143016 -6.549041642659937601 -5.821370349031056435 20.37479622160868331 20.37479622160868331 0.7142857142857143016 0.75 -5.821370349031056435 -5.09369905540217438 20.37479622160868331 20.37479622160870818 0.75 0.7857142857142856984 -5.09369905540217438 -4.366027761773292326 20.37479622160870818 20.37479622160870818 0.7857142857142856984 0.8214285714285713969 -4.366027761773292326 -3.638356468144408495 20.37479622160870818 20.37479622160863357 0.8214285714285713969 0.8571428571428570953 -3.638356468144408495 -2.910685174515529106 20.37479622160863357 20.37479622160863002 0.8571428571428570953 0.8928571428571429047 -2.910685174515529106 -2.183013880886647495 20.37479622160863002 20.37479622160863002 0.8928571428571429047 0.9285714285714286031 -2.183013880886647495 -1.455342587257767883 20.37479622160863002 20.37479622160863713 0.9285714285714286031 0.9642857142857143016 -1.455342587257767883 -0.7276712936288862732 20.37479622160863713 20.37479622160869397 0.9642857142857143016 1 -0.7276712936288862732 -0 20.37479622160869397 20.37479622160882542 F null_curve 0 -1 
	0 
	F 1 F 0 F 1 F 0 F F F F 0 0 full nubs 3 3 open open none none 48 2 
	0 3 0.009131572261337671248 3 0.02657521306484835963 3 0.0348243369621058993 3 0.04279954298444495209 3 
	0.05803422822881257326 3 0.08616095266904300054 3 0.1106414250558630796 3 0.193824584294988389 3 0.2043479128726198302 3 
	0.2224451074967670472 3 0.2490436188854113497 3 0.2556922546665525431 3 0.2654641457367666879 3 0.2750002020968914662 3 
	0.2807868831615762395 3 0.2914704241156015896 3 0.3098431394113128623 3 0.3167599269973747078 3 0.3227800459723341731 3 
	0.333132974130630366 3 0.348349281588407611 3 0.3596426528066516415 3 0.3631983588517269657 3 0.3788069263698778388 3 
	0.4017477561235680561 3 0.4241349321478729562 3 0.4321239220416202009 3 0.4458627598903981415 3 0.4560824701187009 3 
	0.471102979349090234 3 0.4857609837772574601 3 0.4940776110210590155 3 0.5099644982060610454 3 0.5248090467228551104 3 
	0.5789605049992323504 3 0.6585500883346544487 3 0.67844451565196362 3 0.6932430950208158249 3 0.7042510998174996706 3 
	0.7204302119413293903 3 0.736218857553630146 3 0.7450627849333991692 3 0.7533264622377815467 3 0.7834715472332227648 3 
	0.7948202861823273624 3 0.8710142756266218145 3 1 3 
	0 3 1 3 
	46.06906530978008618 -8.404100040706053321 6.264448049142885111 
	46.06909092704691489 -8.39491401755149802 6.264448049142885111 
	46.0691166075063876 -8.379783040396207028 6.264448049142882446 
	46.0691395912959436 -8.358556605698067798 6.264448049142882446 
	46.06918349621810194 -8.318008681220572242 6.264448049142882446 
	46.06921650079756603 -8.253566625063339046 6.264448049142885111 
	46.06923651354794913 -8.193868755554500893 6.264448049142885111 
	46.06924597760762197 -8.165637543531286013 6.264448049142885111 
	46.06925282184050729 -8.138925271968718178 6.264448049142885111 
	46.06925762121741741 -8.117905890880152242 6.264448049142885111 
	46.06926226122769208 -8.097584472905197117 6.264448049142885111 
	46.0692659522800696 -8.078704286466749096 6.264448049142885111 
	46.0692695184976202 -8.057592387112396892 6.264448049142885111 
	46.06927633088613305 -8.017263254463857791 6.264448049142885111 
	46.06928155763772281 -7.973340697594989201 6.264448049142885111 
	46.06928513223417099 -7.929686227239495899 6.264448049142885111 
	46.06929173175937819 -7.849090058787173696 6.264448049142885111 
	46.0692931145055482 -7.777332992602359774 6.264448049142885999 
	46.06929228978631841 -7.69951216834317087 6.264448049142885999 
	46.06929157198086244 -7.631779768737060543 6.264448049142885999 
	46.06928878147026296 -7.56354294488947243 6.264448049142885111 
	46.06928479148018596 -7.497451444331964865 6.264448049142885111 
	46.06927123373608168 -7.272876537101508276 6.264448049142885111 
	46.06924323593531767 -7.046481924273023445 6.264448049142885111 
	46.06921003723097385 -6.814028175055576675 6.264448049142885111 
	46.06920583733189289 -6.784620934401425885 6.264448049142885111 
	46.06920156553634627 -6.755250908515844088 6.264448049142885111 
	46.06919733500066627 -6.726527379116781447 6.264448049142885111 
	46.06919005965741576 -6.677130907459308595 6.264448049142885111 
	46.06918327450514283 -6.632050068971914847 6.264448049142885111 
	46.06917552918643111 -6.580824479472472177 6.264448049142885111 
	46.0691641454359555 -6.505535217573673812 6.264448049142885111 
	46.06915184799851914 -6.424660580796145659 6.264448049142885111 
	46.06914284432217244 -6.361309986619433587 6.264448049142885111 
	46.06914059373890069 -6.345474700913194432 6.264448049142885111 
	46.06913786291434576 -6.326110091063785745 6.264448049142885111 
	46.06913456160008735 -6.301154528621276896 6.264448049142885111 
	46.06912970946434172 -6.264475870651194711 6.264448049142885111 
	46.06912425464216909 -6.220169755192626049 6.264448049142885111 
	46.06912142877273908 -6.182965997045474893 6.264448049142885111 
	46.06911867110281378 -6.146660113982463258 6.264448049142885111 
	46.06911858685980121 -6.117616940139211756 6.264448049142883335 
	46.06912298171331344 -6.103961104062689991 6.264448049142883335 
	46.06912564860354564 -6.095674453369551493 6.264448049142885111 
	46.06912744892232325 -6.08758190871346283 6.264448049142885111 
	46.06912850823799488 -6.079972841249722926 6.264448049142885111 
	46.06913046397777123 -6.065924756870765933 6.264448049142885111 
	46.06913204514972904 -6.056019939893352522 6.264448049142885111 
	46.06912625591429133 -6.03058856350565442 6.264448049142885111 
	46.06911630004152158 -5.986853678231198295 6.264448049142885111 
	46.06906086129374245 -5.916865220918261059 6.264448049142885111 
	46.06899967632476489 -5.859980912650722296 6.264448049142885111 
	46.06897664198133668 -5.838565641639666737 6.264448049142885111 
	46.06895509598572147 -5.81865937169376668 6.264448049142885111 
	46.06893953926758911 -5.801122321839724094 6.264448049142885111 
	46.06892599926901966 -5.78585871495899795 6.264448049142885111 
	46.06891751413354541 -5.774344956920202776 6.264448049142885111 
	46.0689123649228307 -5.759926190134047275 6.264448049142885111 
	46.06890350971435311 -5.735129926590218474 6.264448049142885111 
	46.06889483289052833 -5.698045963681232173 6.264448049142885111 
	46.0690451180977476 -5.662748753909936816 6.264448049142885111 
	46.0692660011063424 -5.610870368580729739 6.264448049142885111 
	46.06990802748445191 -5.56522393349635891 6.264448049142885111 
	46.07150187564101884 -5.530348048133070016 6.264448049142885111 
	46.07268481170797259 -5.504463560647163689 6.264448049142885111 
	46.07412528655405026 -5.485336269941949006 6.264448049142883335 
	46.0763067655602967 -5.461493172594273027 6.264448049142883335 
	46.07699360193004168 -5.45398619848228261 6.264448049142883335 
	46.07778654461741041 -5.445762946349748113 6.264448049142885111 
	46.07870830524011296 -5.436579779300149795 6.264448049142885111 
	46.08275457980067102 -5.3962682121719725 6.264448049142885111 
	46.08891568244152381 -5.349699939866994214 6.264448049142885111 
	46.09675990442576676 -5.304226109879371265 6.264448049142885111 
	46.10828901886124953 -5.237390547244863193 6.264448049142885111 
	46.12189971615903517 -5.178275739346563711 6.264448049142885111 
	46.13706701815644351 -5.118886086842166172 6.264448049142885111 
	46.15186827265662828 -5.060929743548856052 6.264448049142885111 
	46.1686330182979674 -5.001566224403441119 6.264448049142885111 
	46.18592603858688506 -4.939738201067601864 6.264448049142885111 
	46.19209715030596897 -4.917674522600782971 6.264448049142883335 
	46.19748066479186832 -4.898362779824296354 6.264448049142885111 
	46.20386272413469442 -4.875348374048301459 6.264448049142885111 
	46.2148380889328152 -4.83577000514964439 6.264448049142885111 
	46.22723353480429154 -4.790638419432036166 6.264448049142885111 
	46.23786509265959666 -4.751205359471312839 6.264448049142885111 
	46.24577343554511089 -4.721872860562045027 6.264448049142885111 
	46.25281723019245561 -4.695314175417307112 6.264448049142885111 
	46.25890615754272517 -4.672031725437850724 6.264448049142885111 
	46.26785541221088494 -4.637812139264654299 6.264448049142885111 
	46.27403877010083733 -4.613538483369331367 6.264448049142885111 
	46.28254876010165475 -4.580089978509115589 6.264448049142885111 
	46.29085337009871637 -4.547448719492099833 6.264448049142885111 
	46.30070691726092491 -4.508706459899350705 6.264448049142885111 
	46.31223161443548264 -4.46468037849279753 6.264448049142885111 
	46.31877047250229396 -4.439700954461518023 6.264448049142885111 
	46.32616817589840252 -4.411624290153203454 6.264448049142885111 
	46.33288319089135143 -4.386205988258800481 6.264448049142885111 
	46.34571058864662518 -4.337650524271682073 6.264448049142885111 
	46.35376367200716174 -4.307323350626965031 6.264448049142885111 
	46.36483959523712173 -4.265641590193292032 6.264448049142885111 
	46.3751888271439654 -4.226694570061672707 6.264448049142885111 
	46.38652516994295638 -4.184110478049309023 6.264448049142885111 
	46.39758311522312795 -4.142623105911953374 6.264448049142885111 
	46.43792141596594547 -3.991281237969597218 6.264448049142885111 
	46.47427426960815211 -3.85541427492047406 6.264448049142885111 
	46.51219983578919681 -3.713795759876800773 6.264448049142885111 
	46.56794127112975445 -3.505650698530887954 6.264448049142885111 
	46.62411594121067537 -3.296283934432509888 6.264448049142885111 
	46.68180198013710935 -3.081462024062270988 6.264448049142885111 
	46.69622133830623767 -3.027764558854859178 6.264448049142885111 
	46.71055862870618824 -2.974385254991594785 6.264448049142885111 
	46.72380508128077992 -2.925075290629460589 6.264448049142885111 
	46.73365852801006781 -2.888395801964138254 6.264448049142885111 
	46.74480741371701953 -2.846899116030397803 6.264448049142885111 
	46.75594984870294724 -2.8054316028094064 6.264448049142885111 
	46.76423821035676553 -2.774585764633614726 6.264448049142885111 
	46.77250299165605441 -2.743830375663847132 6.264448049142885111 
	46.78027233675742025 -2.714920246325849273 6.264448049142885111 
	46.79169140023399365 -2.672429328787841563 6.264448049142885111 
	46.79896387803653823 -2.645370940680559446 6.264448049142885111 
	46.81556814219011642 -2.583590287284473153 6.264448049142885111 
	46.83177167921782313 -2.523300647488325055 6.264448049142885111 
	46.85229255108453117 -2.446952638869588359 6.264448049142886887 
	46.8590524744741046 -2.421716225579356063 6.264448049142886887 
	46.86283901025547749 -2.407580180478010146 6.264448049142885111 
	46.86670059715022774 -2.393163951681295032 6.264448049142886887 
	46.87028349752522871 -2.379788126484502442 6.264448049142886887 
	46.87363132380662734 -2.367289889178871398 6.264448049142886887 
	46.87619378228817624 -2.357723618000443722 6.264448049142885111 
	46.88014899605975927 -2.342957857869488958 6.264448049142885111 
	46.89457722830163533 -2.28909381190367256 6.264448049142885111 
	46.92431058481201944 -2.178092074670816558 6.264448049142885111 
	46.94682439304509103 -2.094042642106812124 6.264448049142885111 
	46.95530018047199405 -2.062400499809535326 6.264448049142885111 
	46.96301168680940918 -2.033611601943253966 6.264448049142885111 
	46.97103611690086211 -2.003654485065899493 6.264448049142885111 
	47.02491111961497694 -1.802526213689567669 6.264448049142885111 
	47.07878610372640793 -1.601398022255403619 6.264448049142885111 
	47.13266114014196262 -1.400269636737977885 6.264448049142885111 
	47.22386401123961974 -1.059787524077635767 6.264448049142885111 
	47.31547798433420127 -0.7194151009247884421 6.264448049142885111 
	47.40626955116334784 -0.3788240146851743484 6.264448049142885111 
	29.77937687318672744 -6.790949681145985295 5.751298699428590844 
	29.77939395136461087 -6.764153007486543245 5.751298699428590844 
	29.77941107167092838 -6.733393031159944364 5.751298699428589067 
	29.77942639419729787 -6.69856941647144577 5.751298699428589067 
	29.77945566414540579 -6.632047397182618376 5.751298699428589067 
	29.7794776671983783 -6.549595956773966776 5.751298699428590844 
	29.77949100903196822 -6.470307307464245206 5.751298699428590844 
	29.77949731840508463 -6.432811586291721895 5.751298699428590844 
	29.77950188122700936 -6.396328492092961504 5.751298699428590844 
	29.77950508081161374 -6.36364065821020386 5.751298699428590844 
	29.77950817415179685 -6.332038246501289436 5.751298699428590844 
	29.77951063485338068 -6.301396655816712489 5.751298699428590844 
	29.77951301233174775 -6.269267256521533049 5.751298699428590844 
	29.77951755392409083 -6.207891878383136053 5.751298699428590844 
	29.77952103842515186 -6.144120884097851842 5.751298699428590844 
	29.77952342148945064 -6.080528614154818712 5.751298699428590844 
	29.7795278211729233 -5.963122693092044457 5.751298699428590844 
	29.77952874300370212 -5.851609506874274835 5.751298699428591732 
	29.77952819319088107 -5.736053815273589152 5.751298699428591732 
	29.7795277146539128 -5.635478367059495675 5.751298699428591732 
	29.77952585431351196 -5.534566636017750341 5.751298699428590844 
	29.77952319432012729 -5.435085120502725964 5.751298699428590844 
	29.77951415582405659 -5.097052969174999504 5.751298699428590844 
	29.77949549062354961 -4.757807680781922066 5.751298699428590844 
	29.77947335815398588 -4.414522968129532821 5.751298699428590844 
	29.77947055822126643 -4.371094732655402382 5.751298699428590844 
	29.77946771035756868 -4.327691307026983125 5.751298699428590844 
	29.7794648900004475 -4.284718879056244489 5.751298699428590844 
	29.77946003977161382 -4.210818269879061937 5.751298699428590844 
	29.77945551633676402 -4.139794749481935376 5.751298699428590844 
	29.7794503527909562 -4.064674728410108351 5.751298699428590844 
	29.77944276362397247 -3.954266414995157852 5.751298699428590844 
	29.77943456533234823 -3.840134518327721125 5.751298699428590844 
	29.77942856288144924 -3.73768531672749571 5.751298699428590844 
	29.77942706249260141 -3.712076837457508827 5.751298699428590844 
	29.77942524194289931 -3.684115475425406849 5.751298699428590844 
	29.77942304106672822 -3.652426811664573503 5.751298699428590844 
	29.77941980630956564 -3.605852118656144079 5.751298699428590844 
	29.77941616976145056 -3.554192453988723521 5.751298699428590844 
	29.77941428584849604 -3.507267694195581598 5.751298699428590844 
	29.77941244740187798 -3.461475416031871699 5.751298699428590844 
	29.77941239123986961 -3.420524944014669 5.751298699428589956 
	29.7794153211422099 -3.389832697175285681 5.751298699428589956 
	29.77941709906903256 -3.371207991436260709 5.751298699428590844 
	29.77941829928155215 -3.352712689721934591 5.751298699428590844 
	29.77941900549199872 -3.334539706135841719 5.751298699428590844 
	29.77942030931851392 -3.300988208787261513 5.751298699428590844 
	29.77942136343315482 -3.270198889706378953 5.751298699428590844 
	29.77941750394286302 -3.229058531018638156 5.751298699428590844 
	29.77941086669434867 -3.158308570814805982 5.751298699428590844 
	29.77937390752916613 -3.070056229251986402 5.751298699428590844 
	29.77933311754984658 -2.990539987052765802 5.751298699428590844 
	29.77931776132089325 -2.960604457759377528 5.751298699428590844 
	29.77930339732381526 -2.93167492917609307 5.751298699428590844 
	29.77929302617839369 -2.904324880654046481 5.751298699428590844 
	29.7792839995126819 -2.880520398584157871 5.751298699428590844 
	29.77927834275569907 -2.859215815742224276 5.751298699428590844 
	29.77927490994855475 -2.835974560402049871 5.751298699428590844 
	29.77926900647623754 -2.796006073425914895 5.751298699428590844 
	29.77926322192702102 -2.7478457868730084 5.751298699428590844 
	29.77936341206516602 -2.700876669078562387 5.751298699428590844 
	29.77951066740422803 -2.631843394003806846 5.751298699428590844 
	29.77993868498963792 -2.566964752425609841 5.751298699428590844 
	29.78100125042734803 -2.509266477328133238 5.751298699428590844 
	29.78178987447198622 -2.466443470423451245 5.751298699428590844 
	29.78275019103603682 -2.428125261372561905 5.751298699428589956 
	29.78420451037353445 -2.386663181226699848 5.751298699428589956 
	29.78466240128669895 -2.373608888919556126 5.751298699428589956 
	29.78519102974494004 -2.360077077932049683 5.751298699428590844 
	29.78580553682674292 -2.345905323666500841 5.751298699428590844 
	29.78850305320045067 -2.28369523641509975 5.751298699428590844 
	29.79261045496101801 -2.217314012379164367 5.751298699428590844 
	29.79783993628384664 -2.151662416554799506 5.751298699428590844 
	29.80552601257416967 -2.055170404644454329 5.751298699428590844 
	29.81459981077269106 -1.963825562558250359 5.751298699428590844 
	29.82471134543763114 -1.872297490734645908 5.751298699428590844 
	29.83457884843775432 -1.782978356375495066 5.751298699428590844 
	29.8457553455319804 -1.692721104781607533 5.751298699428590844 
	29.85728402572459217 -1.600820850394104156 5.751298699428590844 
	29.86139810020398144 -1.568025726849381796 5.751298699428589956 
	29.86498710986124649 -1.537065227098212805 5.751298699428590844 
	29.86924181608979723 -1.503636285347372592 5.751298699428590844 
	29.87655872595520989 -1.446147814804870535 5.751298699428590844 
	29.88482235653619767 -1.384957199716400966 5.751298699428590844 
	29.89191006177306775 -1.327565601799188144 5.751298699428590844 
	29.89718229036341057 -1.284874545487947328 5.751298699428590844 
	29.90187815346163802 -1.244032698353060074 5.751298699428590844 
	29.90593743836181773 -1.205375007995026948 5.751298699428590844 
	29.9119036081405909 -1.148557526689120811 5.751298699428590844 
	29.91602584673389487 -1.098370665568464855 5.751298699428590844 
	29.9216991734011053 -1.042067238471212853 5.751298699428590844 
	29.92723558006581186 -0.9871226376554974591 5.751298699428590844 
	29.93380461150728777 -0.9281107031226257797 5.751298699428590844 
	29.94148774295699056 -0.8655762207138852915 5.751298699428590844 
	29.94584698166819692 -0.8300955396548617138 5.751298699428590844 
	29.95077878393227166 -0.7925500317444816867 5.751298699428590844 
	29.9552554605942376 -0.7567767654433756874 5.751298699428590844 
	29.96380705909775344 -0.688440668453063398 5.751298699428590844 
	29.96917578133811233 -0.6322567650243510196 5.751298699428590844 
	29.97655973015808328 -0.568503137069668707 5.751298699428590844 
	29.98345921809598025 -0.5089323846450934941 5.751298699428590844 
	29.99101677996197424 -0.4469369176333548022 5.751298699428590844 
	29.99838874348208861 -0.3856725972049552809 5.751298699428590844 
	30.0252809439773003 -0.1621863599673702416 5.751298699428590844 
	30.04951617973877021 0.05098327400806078324 5.751298699428590844 
	30.07479989052613334 0.2679872759798573867 5.751298699428590844 
	30.11196084741983725 0.5869308215240176541 5.751298699428590844 
	30.14941062747378453 0.9066888355698214941 5.751298699428590844 
	30.18786798675807503 1.230083613796865816 5.751298699428590844 
	30.19748089220415821 1.310920246439115866 5.751298699428590844 
	30.20703908580412644 1.39154477151860112 5.751298699428590844 
	30.21587005418718874 1.469456403597332539 5.751298699428590844 
	30.22243901867338067 1.527411400375287887 5.751298699428590844 
	30.22987160914468419 1.588577861998856866 5.751298699428590844 
	30.23729989913530147 1.649724875147258629 5.751298699428590844 
	30.24282547357118034 1.695209417768777982 5.751298699428590844 
	30.24833532777070388 1.740633660919614467 5.751298699428590844 
	30.25351489117161563 1.78482773098260461 5.751298699428590844 
	30.2611276001559979 1.84978235518234202 5.751298699428590844 
	30.26597591869102999 1.904448626428261848 5.751298699428590844 
	30.27704542812674759 1.982263074533384906 5.751298699428590844 
	30.28784778614521755 2.058199549615908452 5.751298699428590844 
	30.30152836738968958 2.144841603913491213 5.75129869942859262 
	30.30603498298273735 2.197409261325404373 5.75129869942859262 
	30.30855934017031927 2.226854760077579432 5.751298699428590844 
	30.3111337314334861 2.256487047960000325 5.75129869942859262 
	30.31352233168348675 2.285425733442473017 5.75129869942859262 
	30.31575421587108465 2.312465751770441003 5.75129869942859262 
	30.31746252152545296 2.337551126013607039 5.751298699428590844 
	30.32009933070650831 2.366102826225124023 5.751298699428590844 
	30.32971815220109235 2.470256630631800565 5.751298699428590844 
	30.34954038987467939 2.612502229216502769 5.751298699428590844 
	30.36454959536339615 2.736779624688638002 5.751298699428590844 
	30.37020012031466365 2.783566413271293616 5.751298699428590844 
	30.37534112453960944 2.828451038899952863 5.751298699428590844 
	30.38069074460057806 2.874114477202660112 5.751298699428590844 
	30.41660741307665461 3.180692992368982619 5.751298699428590844 
	30.45252406915093957 3.487271454240524093 5.751298699428590844 
	30.48844076009464388 3.793850045500907875 5.751298699428590844 
	30.54924267415974981 4.312844548341598028 5.751298699428590844 
	30.61031865622280179 4.831765924843959503 5.751298699428590844 
	30.67084636744223403 5.350833076737499638 5.751298699428590844 
	13.48968843659335803 -5.177799321585917269 5.238149349714297465 
	13.48969697568230153 -5.133391997421587583 5.238149349714297465 
	13.48970553583546028 -5.087003021923679924 5.238149349714296577 
	13.48971319709864503 -5.038582227244822853 5.238149349714296577 
	13.48972783207269721 -4.946086113144665397 5.238149349714296577 
	13.48973883359918524 -4.845625288484594506 5.238149349714297465 
	13.4897455045159802 -4.74674585937398863 5.238149349714297465 
	13.48974865920253663 -4.699985629052156 5.238149349714297465 
	13.489750940613499 -4.65373171221720483 5.238149349714297465 
	13.48975254040580296 -4.609375425540254589 5.238149349714297465 
	13.48975408707589452 -4.56649202009737909 5.238149349714297465 
	13.48975531742668821 -4.524089025166675881 5.238149349714297465 
	13.48975650616587174 -4.480942125930668318 5.238149349714297465 
	13.48975877696204151 -4.398520502302413426 5.238149349714297465 
	13.48976051921257024 -4.314901070600713595 5.238149349714297465 
	13.48976171074471964 -4.231371001070140636 5.238149349714297465 
	13.48976391058645596 -4.077155327396914331 5.238149349714297465 
	13.48976437150184715 -3.925886021146190341 5.238149349714297465 
	13.48976409659543663 -3.772595462204007433 5.238149349714297465 
	13.48976385732695071 -3.639176965381929918 5.238149349714297465 
	13.48976292715675029 -3.505590327146027807 5.238149349714297465 
	13.48976159716005796 -3.372718796673486175 5.238149349714297465 
	13.48975707791202439 -2.921229401248488955 5.238149349714297465 
	13.48974774531176912 -2.469133437290819355 5.238149349714297465 
	13.48973667907698726 -2.015017761203488078 5.238149349714297465 
	13.48973527911062575 -1.95756853090937688 5.238149349714297465 
	13.48973385517877688 -1.900131705538121274 5.238149349714297465 
	13.48973244500021806 -1.8429103789957062 5.238149349714297465 
	13.489730019885803 -1.744505632298815945 5.238149349714297465 
	13.4897277581683781 -1.647539429991955906 5.238149349714297465 
	13.48972517639547419 -1.548524977347743636 5.238149349714297465 
	13.48972138181198233 -1.402997612416641227 5.238149349714297465 
	13.48971728266617198 -1.255608455859296146 5.238149349714297465 
	13.48971428144072249 -1.114060646835556945 5.238149349714297465 
	13.48971353124629857 -1.078678974001822555 5.238149349714297465 
	13.48971262097144574 -1.042120859787027953 5.238149349714297465 
	13.48971152053335842 -1.003699094707869666 5.238149349714297465 
	13.48970990315477536 -0.947228366661093224 5.238149349714297465 
	13.48970808488071782 -0.8882151527848212158 5.238149349714297465 
	13.48970714292424233 -0.8315693913456883024 5.238149349714297465 
	13.48970622370093331 -0.776290718081280251 5.238149349714297465 
	13.48970619561993267 -0.7234329478901252442 5.238149349714296577 
	13.48970766057110282 -0.6757042902878804824 5.238149349714296577 
	13.4897085495345106 -0.646741529502969148 5.238149349714297465 
	13.48970914964077217 -0.6178434707304064633 5.238149349714297465 
	13.48970950274599545 -0.5891065710219614004 5.238149349714297465 
	13.48971015465925483 -0.5360516607037583148 5.238149349714297465 
	13.4897106817165735 -0.4843778395194041075 5.238149349714297465 
	13.4897087519714276 -0.427528498531621004 5.238149349714297465 
	13.4897054333471722 -0.3297634633984135033 5.238149349714297465 
	13.48968695376457561 -0.2232472375857122715 5.238149349714297465 
	13.4896665587749176 -0.1210990614548101973 5.238149349714297465 
	13.48965888066044094 -0.08264327387908848577 5.238149349714297465 
	13.4896516986619055 -0.04469048665841957035 5.238149349714297465 
	13.48964651308919471 -0.007527439468368868347 5.238149349714297465 
	13.48964199975633882 0.02481791779068182047 5.238149349714297465 
	13.4896391713778474 0.0559133254357539744 5.238149349714297465 
	13.48963745497427524 0.08797706932994797668 5.238149349714297465 
	13.48963450323811486 0.1431177797383883787 5.238149349714297465 
	13.48963161096350838 0.2023543899352160391 5.238149349714297465 
	13.48968170603258088 0.2609954157528120433 5.238149349714297465 
	13.48975533370211366 0.3471835805731157132 5.238149349714297465 
	13.48996934249481505 0.4312944286451408926 5.238149349714297465 
	13.49050062521367011 0.5118150934768048721 5.238149349714297465 
	13.49089493723598743 0.571576619800262864 5.238149349714297465 
	13.49137509551801273 0.6290857471968250847 5.238149349714296577 
	13.49210225518676154 0.6881668101408733307 5.238149349714296577 
	13.49233120064334379 0.7067684206431705807 5.238149349714296577 
	13.49259551487246966 0.725608790485648858 5.238149349714297465 
	13.49290276841336933 0.7447691319671490007 5.238149349714297465 
	13.49425152660022142 0.8288777393417731121 5.238149349714297465 
	13.49630522748050332 0.915071915108665368 5.238149349714297465 
	13.49891996814191941 1.000901276769772252 5.238149349714297465 
	13.50276300628708093 1.127049737955954534 5.238149349714297465 
	13.5072999053863434 1.250624614230064102 5.238149349714297465 
	13.51235567271881166 1.374291105372875688 5.238149349714297465 
	13.51728942421887325 1.494973030797867031 5.238149349714297465 
	13.52287767276598629 1.616124014840226497 5.238149349714297465 
	13.52864201286229218 1.738096500279393553 5.238149349714297465 
	13.53069905010198681 1.78162306890202049 5.238149349714296577 
	13.53249355493062112 1.824232325627871187 5.238149349714297465 
	13.53462090804489648 1.868075803353556275 5.238149349714297465 
	13.53827936297760459 1.94347437553990332 5.238149349714297465 
	13.54241117826809315 2.020724019999233789 5.238149349714297465 
	13.54595503088652819 2.096074155872936551 5.238149349714297465 
	13.5485911451816996 2.152123769586149926 5.238149349714297465 
	13.55093907673081688 2.207248778711187409 5.238149349714297465 
	13.55296871918090673 2.261281709447796828 5.238149349714297465 
	13.55595180407029332 2.340697085886412232 5.238149349714297465 
	13.55801292336694353 2.416797152232402102 5.238149349714297465 
	13.56084958670054874 2.495955501566690771 5.238149349714297465 
	13.56361779003290202 2.57320344418110647 5.238149349714297465 
	13.5669023057536382 2.652485053654098923 5.238149349714297465 
	13.57074387147849137 2.733527937065026947 5.238149349714297465 
	13.57292349083409633 2.77950987515179504 5.238149349714297465 
	13.57538939196613015 2.826524226664240746 5.238149349714297465 
	13.57762773029711312 2.872652457372049994 5.238149349714297465 
	13.58190352954887281 2.960769187365556832 5.238149349714297465 
	13.58458789066905048 3.042809820578263658 5.238149349714297465 
	13.58827986507903773 3.128635316053955062 5.238149349714297465 
	13.59172960904798622 3.208829800771486163 5.238149349714297465 
	13.59550838998097966 3.290236642782599308 5.238149349714297465 
	13.59919437174103862 3.371277911502042812 5.238149349714297465 
	13.61264047198864446 3.666908518034857067 5.238149349714297465 
	13.62475808986937942 3.957380822936595877 5.238149349714297465 
	13.63739994526306276 4.249770311836515546 5.238149349714297465 
	13.65598042370991472 4.679512341578923262 5.238149349714297465 
	13.67470531373688836 5.109661605572155096 5.238149349714297465 
	13.69393399337903361 5.54162925165600484 5.238149349714297465 
	13.69874044610207697 5.649605051733092687 5.238149349714297465 
	13.70351954290206109 5.757474798028797913 5.238149349714297465 
	13.70793502709359046 5.863988097824127443 5.238149349714297465 
	13.71121950933668643 5.94321860271471536 5.238149349714297465 
	13.71493580457233641 6.024054840028111535 5.238149349714297465 
	13.71864994956764505 6.104881353103923658 5.238149349714297465 
	13.72141273678558626 6.165004600171171134 5.238149349714297465 
	13.72416766388534803 6.22509769750307651 5.238149349714297465 
	13.72675744558580391 6.284575708291059826 5.238149349714297465 
	13.73056380007799504 6.37199403915252649 5.238149349714297465 
	13.73298795934550931 6.454268193537084031 5.238149349714297465 
	13.73852271406336811 6.548116436351243408 5.238149349714297465 
	13.74392389307260309 6.63969974672014196 5.238149349714297465 
	13.75076418369484088 6.736635846696571228 5.238149349714297465 
	13.75301749149136654 6.816534748230164809 5.238149349714297465 
	13.75427967008515751 6.861289700633168565 5.238149349714297465 
	13.75556686571674092 6.906138047601297458 5.238149349714297465 
	13.75676116584174125 6.950639593369450253 5.238149349714297465 
	13.7578771079355402 6.99222139271975518 5.238149349714297465 
	13.75873126076272257 7.032825870027656912 5.238149349714297465 
	13.76004966535325025 7.075163510319736559 5.238149349714297465 
	13.76485907610054227 7.229607073167272802 5.238149349714297465 
	13.77477019493733756 7.403096533103823873 5.238149349714297465 
	13.78227479768169417 7.567601891484089016 5.238149349714297465 
	13.78510006015732792 7.629533326352122558 5.238149349714297465 
	13.78767056226979903 7.690513679743159692 5.238149349714297465 
	13.79034537230028334 7.751883439471219717 5.238149349714297465 
	13.80830370653832162 8.163912198427533795 5.238149349714297465 
	13.82626203457546588 8.575940930736450696 5.238149349714297465 
	13.84422038004731803 8.987969727739795189 5.238149349714297465 
	13.874621337079871 9.685476620760834265 5.238149349714297465 
	13.90515932811139699 10.38294695061270723 5.238149349714297465 
	13.93542318372111311 11.08049016816017485 5.238149349714297465 
	-2.800000000000000266 -3.564648962025849244 4.725000000000003197 
	-2.800000000000000266 -3.502630987356632808 4.725000000000003197 
	-2.800000000000000266 -3.44061301268741726 4.725000000000003197 
	-2.800000000000000266 -3.378595038018200825 4.725000000000003197 
	-2.800000000000000266 -3.26012482910671153 4.725000000000003197 
	-2.800000000000000266 -3.141654620195222236 4.725000000000003197 
	-2.800000000000000266 -3.023184411283732942 4.725000000000003197 
	-2.800000000000000266 -2.967159671812591437 4.725000000000003197 
	-2.800000000000000266 -2.911134932341447712 4.725000000000003197 
	-2.800000000000000266 -2.855110192870306207 4.725000000000003197 
	-2.800000000000000266 -2.800945793693471408 4.725000000000003197 
	-2.800000000000000266 -2.746781394516639274 4.725000000000003197 
	-2.800000000000000266 -2.692616995339804475 4.725000000000003197 
	-2.800000000000000266 -2.589149126221691688 4.725000000000003197 
	-2.800000000000000266 -2.485681257103575348 4.725000000000003197 
	-2.800000000000000266 -2.38221338798546256 4.725000000000003197 
	-2.800000000000000266 -2.191187961701784204 4.725000000000003197 
	-2.800000000000000266 -2.000162535418105847 4.725000000000003197 
	-2.800000000000000266 -1.809137109134425714 4.725000000000003197 
	-2.800000000000000266 -1.642875563704365049 4.725000000000003197 
	-2.800000000000000266 -1.476614018274306162 4.725000000000003197 
	-2.800000000000000266 -1.310352472844247274 4.725000000000003197 
	-2.800000000000000266 -0.7454058333219802934 4.725000000000003197 
	-2.800000000000000266 -0.1804591937997176432 4.725000000000003197 
	-2.800000000000000266 0.3844874457225557762 4.725000000000003197 
	-2.800000000000000266 0.4559576708366470665 4.725000000000003197 
	-2.800000000000000266 0.5274278959507396891 4.725000000000003197 
	-2.800000000000000266 0.5988981210648312015 4.725000000000003197 
	-2.800000000000000266 0.7218070052814299364 4.725000000000003197 
	-2.800000000000000266 0.8447158894980233423 4.725000000000003197 
	-2.800000000000000266 0.9676247737146201899 4.725000000000003197 
	-2.800000000000000266 1.148271190161874733 4.725000000000003197 
	-2.800000000000000266 1.328917606609128388 4.725000000000003197 
	-2.800000000000000266 1.509564023056380933 4.725000000000003197 
	-2.800000000000000266 1.554718889453862829 4.725000000000003197 
	-2.800000000000000266 1.599873755851350943 4.725000000000003197 
	-2.800000000000000266 1.645028622248833727 4.725000000000003197 
	-2.800000000000000266 1.711395385333957408 4.725000000000003197 
	-2.800000000000000266 1.77776214841908109 4.725000000000003197 
	-2.800000000000000266 1.844128911504204993 4.725000000000003197 
	-2.800000000000000266 1.908893979869311197 4.725000000000003197 
	-2.800000000000000266 1.973659048234417623 4.725000000000003197 
	-2.800000000000000266 2.038424116599523828 4.725000000000003197 
	-2.800000000000000266 2.077724932430321747 4.725000000000003197 
	-2.800000000000000266 2.117025748261121887 4.725000000000003197 
	-2.800000000000000266 2.156326564091919806 4.725000000000003197 
	-2.800000000000000266 2.228884887379745994 4.725000000000003197 
	-2.800000000000000266 2.301443210667569517 4.725000000000003197 
	-2.800000000000000266 2.37400153395539526 4.725000000000003197 
	-2.800000000000000266 2.498781644017978643 4.725000000000003197 
	-2.800000000000000266 2.623561754080562469 4.725000000000003197 
	-2.800000000000000266 2.748341864143146296 4.725000000000003197 
	-2.800000000000000266 2.79531791000120089 4.725000000000003197 
	-2.800000000000000266 2.842293955859254151 4.725000000000003197 
	-2.800000000000000266 2.889270001717308745 4.725000000000003197 
	-2.800000000000000266 2.930156234165521845 4.725000000000003197 
	-2.800000000000000266 2.97104246661373228 4.725000000000003197 
	-2.800000000000000266 3.01192869906194538 4.725000000000003197 
	-2.800000000000000266 3.082241632902691819 4.725000000000003197 
	-2.800000000000000266 3.152554566743440034 4.725000000000003197 
	-2.800000000000000266 3.222867500584186473 4.725000000000003197 
	-2.800000000000000266 3.326210555150038495 4.725000000000003197 
	-2.800000000000000266 3.429553609715890072 4.725000000000003197 
	-2.800000000000000266 3.53289666428174165 4.725000000000003197 
	-2.800000000000000266 3.609596710023975419 4.725000000000003197 
	-2.800000000000000266 3.686296755766212296 4.725000000000003197 
	-2.800000000000000266 3.762996801508446509 4.725000000000003197 
	-2.800000000000000266 3.787145730205897287 4.725000000000003197 
	-2.800000000000000266 3.811294658903347177 4.725000000000003197 
	-2.800000000000000266 3.835443587600797954 4.725000000000003197 
	-2.800000000000000266 3.941450715098645752 4.725000000000003197 
	-2.800000000000000266 4.047457842596495325 4.725000000000003197 
	-2.800000000000000266 4.153464970094344011 4.725000000000003197 
	-2.800000000000000266 4.309269880556363397 4.725000000000003197 
	-2.800000000000000266 4.465074791018377454 4.725000000000003197 
	-2.800000000000000266 4.620879701480395951 4.725000000000003197 
	-2.800000000000000266 4.772924417971228017 4.725000000000003197 
	-2.800000000000000266 4.924969134462060083 4.725000000000003197 
	-2.800000000000000266 5.077013850952891261 4.725000000000003197 
	-2.800000000000000266 5.131271864653421666 4.725000000000003197 
	-2.800000000000000266 5.185529878353954736 4.725000000000003197 
	-2.800000000000000266 5.239787892054485141 4.725000000000003197 
	-2.800000000000000266 5.333096565884677176 4.725000000000003197 
	-2.800000000000000266 5.426405239714869211 4.725000000000003197 
	-2.800000000000000266 5.519713913545061246 4.725000000000003197 
	-2.800000000000000266 5.589122084660247403 4.725000000000003197 
	-2.800000000000000266 5.658530255775434448 4.725000000000003197 
	-2.800000000000000266 5.727938426890620605 4.725000000000003197 
	-2.800000000000000266 5.829951698461945497 4.725000000000003197 
	-2.800000000000000266 5.931964970033268614 4.725000000000003197 
	-2.800000000000000266 6.033978241604593507 4.725000000000003197 
	-2.800000000000000266 6.133529526017708733 4.725000000000003197 
	-2.800000000000000266 6.233080810430823959 4.725000000000003197 
	-2.800000000000000266 6.332632094843939186 4.725000000000003197 
	-2.800000000000000266 6.389115289958451349 4.725000000000003197 
	-2.800000000000000266 6.445598485072962625 4.725000000000003197 
	-2.800000000000000266 6.502081680187474788 4.725000000000003197 
	-2.800000000000000266 6.609979043184175396 4.725000000000003197 
	-2.800000000000000266 6.71787640618087778 4.725000000000003197 
	-2.800000000000000266 6.825773769177578387 4.725000000000003197 
	-2.800000000000000266 6.926591986188065597 4.725000000000003197 
	-2.800000000000000266 7.027410203198553695 4.725000000000003197 
	-2.800000000000000266 7.128228420209040905 4.725000000000003197 
	-2.800000000000000266 7.496003396037083988 4.725000000000003197 
	-2.800000000000000266 7.863778371865130623 4.725000000000003197 
	-2.800000000000000266 8.231553347693173706 4.725000000000003197 
	-2.800000000000000266 8.772093861633829093 4.725000000000003197 
	-2.800000000000000266 9.312634375574486256 4.725000000000003197 
	-2.800000000000000266 9.853174889515141643 4.725000000000003197 
	-2.800000000000000266 9.988289857027067953 4.725000000000003197 
	-2.800000000000000266 10.12340482453899426 4.725000000000003197 
	-2.800000000000000266 10.25851979205092057 4.725000000000003197 
	-2.800000000000000266 10.3590258050541415 4.725000000000003197 
	-2.800000000000000266 10.45953181805736598 4.725000000000003197 
	-2.800000000000000266 10.56003783106058869 4.725000000000003197 
	-2.800000000000000266 10.63479978257356429 4.725000000000003197 
	-2.800000000000000266 10.70956173408653811 4.725000000000003197 
	-2.800000000000000266 10.78432368559951371 4.725000000000003197 
	-2.800000000000000266 10.89420572312270963 4.725000000000003197 
	-2.800000000000000266 11.00408776064590555 4.725000000000003197 
	-2.800000000000000266 11.11396979816910147 4.725000000000003197 
	-2.800000000000000266 11.22119994382437547 4.725000000000003197 
	-2.800000000000000266 11.32843008947965124 4.725000000000003197 
	-2.800000000000000266 11.43566023513492524 4.725000000000003197 
	-2.800000000000000266 11.49572464118875814 4.725000000000003197 
	-2.800000000000000266 11.55578904724259282 4.725000000000003197 
	-2.800000000000000266 11.61585345329642571 4.725000000000003197 
	-2.800000000000000266 11.67197703366906758 4.725000000000003197 
	-2.800000000000000266 11.72810061404170767 4.725000000000003197 
	-2.800000000000000266 11.78422419441434954 4.725000000000003197 
	-2.800000000000000266 11.98895751570274548 4.725000000000003197 
	-2.800000000000000266 12.1936908369911432 4.725000000000003197 
	-2.800000000000000266 12.39842415827953914 4.725000000000003197 
	-2.800000000000000266 12.47550023943295194 4.725000000000003197 
	-2.800000000000000266 12.55257632058636652 4.725000000000003197 
	-2.800000000000000266 12.62965240173977932 4.725000000000003197 
	-2.800000000000000266 13.14713140448608364 4.725000000000003197 
	-2.800000000000000266 13.66461040723237907 4.725000000000003197 
	-2.800000000000000266 14.18208940997867984 4.725000000000003197 
	-2.800000000000000266 15.05810869318006695 4.725000000000003197 
	-2.800000000000000266 15.93412797638145406 4.725000000000003197 
	-2.800000000000000266 16.81014725958284828 4.725000000000003197 
	0.0003284545432136787876 
	
	0 
	6 0.2750002020968914662 0.3631983588517269657 0.4241349321478729562 0.4857609837772574601 0.736218857553630146 0.8710142756266218145 
	0 
	0 
	0 
	0 
	F } I I I I #
coedge $-1 -1 $-1 $11 $12 $-1 $13 forward $8 0 $14 #
coedge $-1 -1 $-1 $15 $10 $-1 $16 forward $8 0 $17 #
coedge $-1 -1 $-1 $10 $15 $-1 $18 reversed $8 0 $19 #
edge $20 -1 $-1 $21 9.999816459327348639e-07 $22 78.3381519259636292 $10 $23 forward @7 unknown #
pcurve $-1 -1 $-1 0 forward { exp_par_cur nubs 3 open 9 
	9.999816459327348639e-07 3 0.5398554778258014553 3 0.7783217926544622189 3 2.356631196870402345 3 5.054033750789352908 3 
	9.604962170226439611 3 21.06034038223540605 3 49.69924615077480468 3 78.3381519259636292 3 
	0 0 
	0.05963023349822314106 1.100530396034692621e-20 
	0.2393065133474103212 0 
	0.2750002020968919103 0 
	0.2907669369635187961 0 
	0.2979314914853672946 0 
	0.3031830838659129168 0 
	0.3379411906755866446 0 
	0.3492757257586219799 0 
	0.3631983588517271322 0 
	0.386992772014509101 0 
	0.4038695182136934902 0 
	0.4241349321478731782 0 
	0.4583257680951153268 0 
	0.4687002695971621558 0 
	0.4857609837772578487 0 
	0.5287053932444044646 0 
	0.7078172178673930448 -2.465190328815661892e-32 
	0.736218857553629813 1.378877538761850745e-16 
	0.8072240978514526599 4.826126784322184064e-16 
	0.8280190237654122543 0 
	0.8710142756266221475 0 
	0.9140095274978146112 0 
	0.9570047600441974334 2.06893682545500703e-18 
	1 2.428732690898517701e-18 
	4.961878488930282796e-11 
	spline forward { ref 0 } I I I I 
	} 0 0 #
coedge $-1 -1 $-1 $12 $11 $-1 $24 reversed $8 0 $25 #
edge $26 -1 $-1 $22 0 $27 1 $11 $28 forward @7 unknown #
pcurve $-1 -1 $-1 0 forward { exp_par_cur nubs 1 open 2 
	0 1 1 1 
	1 0 
	1 1 
	5.435650527645722515e-15 
	spline forward { ref 0 } I I I I 
	} 0 0 #
edge $29 -1 $-1 $21 0 $30 1 $12 $31 forward @7 unknown #
pcurve $-1 -1 $-1 0 forward { exp_par_cur nubs 1 open 2 
	-1 1 -0 1 
	1.509406803169786472e-17 0.999999999999999889 
	8.141158536257280898e-17 0 
	7.494778873975586887e-15 
	spline forward { ref 0 } I I I I 
	} 0 0 #
ATTRIB_CUSTOM-attrib $-1 -1 $-1 $-1 $13 @22 generic_tag_attrib_def 3 3 -1 @23 generic_tag_attrib_def  1 1 @1 9 0 2 648 740 0 #
vertex $-1 -1 $-1 $13 0 $32 #
vertex $-1 -1 $-1 $13 1 $33 #
intcurve-curve $-1 -1 $-1 forward { ref 1 } F 9.999816459327348639e-07 F 78.3381519259636292 #
edge $34 -1 $-1 $30 -20.37479622160869752 $27 -0 $15 $35 forward @7 unknown #
pcurve $-1 -1 $-1 0 forward { exp_par_cur nubs 1 open 2 
	0 1 20.37479622160869752 1 
	1 1 
	0 1 
	2.174260771425906607e-14 
	spline forward { ref 0 } I I I I 
	} 0 0 #
ATTRIB_CUSTOM-attrib $-1 -1 $-1 $-1 $16 @22 generic_tag_attrib_def 3 3 -1 @23 generic_tag_attrib_def  1 2 @2 10 20534 2 648 740 0 #
vertex $-1 -1 $-1 $24 1 $36 #
straight-curve $-1 -1 $-1 47.40626955116334784 -0.3788240146851743484 6.264448049142885111 -50.206269551163345 17.18897127426802385 -1.539448049142881914 F 0 F 1 #
ATTRIB_CUSTOM-attrib $-1 -1 $-1 $-1 $18 @22 generic_tag_attrib_def 3 3 -1 @23 generic_tag_attrib_def  1 2 @2 10 8324 2 648 740 0 #
vertex $-1 -1 $-1 $24 0 $37 #
straight-curve $-1 -1 $-1 46.06906530978008618 -8.404100040706053321 6.264448049142885111 -48.86906530978008334 4.839451078680204077 -1.539448049142881914 F 0 F 1 #
point $-1 -1 $-1 46.06906530978008618 -8.404100040706053321 6.264448049142885111 #
point $-1 -1 $-1 47.40626955116334784 -0.3788240146851743484 6.264448049142885111 #
ATTRIB_CUSTOM-attrib $-1 -1 $-1 $-1 $24 @22 generic_tag_attrib_def 3 3 -1 @23 generic_tag_attrib_def  1 1 @1 8 0 2 648 740 0 #
straight-curve $-1 -1 $-1 -2.800000000000000266 16.81014725958284828 4.725000000000003197 -0 1 -0 F -20.37479622160869752 F -0 #
point $-1 -1 $-1 -2.800000000000000266 16.81014725958284828 4.725000000000003197 #
point $-1 -1 $-1 -2.800000000000000266 -3.564648962025849244 4.725000000000003197 #
End-of-ASM-data 