22700 0 2 4           
16 Autodesk Neutron 20 ASM 227.1.1.65535 NT 24 Thu Aug 26 00:05:30 2021 
10 9.999999999999999547e-07 1.000000000000000036e-10 
asmheader $-1 -1 @13 227.1.1.65535 #
body $2 3 $-1 $3 $-1 $-1 #
ATTRIB_CUSTOM-attrib $-1 -1 $4 $-1 $1 @20 Timestamp_attrib_def 1 1406915265000 #
lump $-1 -1 $-1 $-1 $5 $1 #
ATTRIB_CUSTOM-attrib $-1 -1 $-1 $2 $1 @22 generic_tag_attrib_def 3 3 -1 @23 generic_tag_attrib_def  2 3 @3 650 11 0 0 3 @3 740 4 0 0 #
shell $-1 -1 $-1 $-1 $-1 $6 $-1 $3 #
face $7 -1 $-1 $-1 $8 $5 $-1 $9 forward double out #
ATTRIB_CUSTOM-attrib $-1 -1 $-1 $-1 $6 @22 generic_tag_attrib_def 3 3 -1 @23 generic_tag_attrib_def  1 1 @1 7 0 2 650 740 0 #
loop $-1 -1 $-1 $-1 $10 $6 #
spline-surface $-1 -1 $-1 forward { loft_spl_sur 22020 2 
	0 
	1 1 intcurve forward { exact_int_cur 22020 full nubs 3 open 8 
	9.999816459327348639e-07 3 0.5398554778258014553 2 2.356631196870402345 2 5.054033750789352908 2 9.604962170226439611 2 
	21.06034038223540605 2 49.69924615077480468 2 78.3381519259636292 3 
	46.06906530978008618 -8.404100040706053321 6.264448049142885111 
	46.06956716101415594 -8.224142628132510069 6.264448049142885111 
	46.0690736315855176 -6.257303474573663316 6.264448049142885111 
	46.06928906001327562 -5.587917046120290721 6.264448049142885111 
	46.06624468789719629 -5.560750282230712216 6.264448049142885111 
	46.09721328243650618 -5.252221397461782182 6.264448049142885111 
	46.13896385622679475 -5.107642873493363211 6.264448049142885111 
	46.26515838380392154 -4.656457478140838546 6.264448049142885111 
	46.27199020937842988 -4.61840861517625445 6.264448049142885111 
	46.41352534446699707 -4.077723052257361758 6.264448049142885111 
	46.82257190866780405 -2.557906916315454637 6.264448049142885111 
	46.95025535465612165 -2.081234027055822278 6.264448049142885111 
	47.04145824697628342 -1.740751831783656112 6.264448049142885111 
	47.22386403332883731 -1.059787441613246894 6.264448049142885111 
	47.31547798750590061 -0.7194150890266233223 6.264448049142885111 
	47.40626955116334784 -0.3788240146851738488 6.264448049142885111 
	0 
	
	null_surface 
	null_surface 
	nullbs 
	nullbs 
	I I 
	0 
	6 0.5398554778258014553 2.356631196870402345 5.054033750789352908 9.604962170226439611 21.06034038223540605 49.69924615077480468 
	0 
	
	0 F 1 F 0 UNEXTENDED UNEXTENDED } F 9.999816459327348639e-07 F 78.3381519259636292 null_surface nullbs F -1 213 28 1 0 0.0357142857142857123 9.999816459327348639e-07 0.1077791964588698526 3.017789501362269977 1.723263467553597827 0.0357142857142857123 0.07142857142857142461 0.1077791964588698526 0.169324320300069775 1.723263467553597827 1.476099868630015965 0.07142857142857142461 0.1071428571428571369 0.169324320300069775 0.2220421727511417698 1.476099868630015965 1.393369218232338724 0.1071428571428571369 0.1428571428571428492 0.2220421727511417698 0.2718053591165824345 1.393369218232338724 1.393369218232338724 0.1428571428571428492 0.1785714285714285754 0.2718053591165824345 0.321798258341842669 1.393369218232338724 1.39980117830728612 0.1785714285714285754 0.2142857142857142738 0.321798258341842669 0.3753721053946794672 1.39980117830728612 1.500067717479431018 0.2142857142857142738 0.25 0.3753721053946794672 0.4394522901759350675 1.500067717479431018 1.794245173875156141 0.25 0.2857142857142856984 0.4394522901759350675 0.5907319088995145462 1.794245173875156141 4.235829324260227402 0.2857142857142856984 0.3214285714285714524 0.5907319088995145462 1.056271516649253561 4.235829324260227402 13.03510901699267777 0.3214285714285714524 0.3571428571428571508 1.056271516649253561 2.148559563090330915 13.03510901699267777 30.58406530035017923 0.3571428571428571508 0.3928571428571428492 2.148559563090330915 3.675446526738998632 30.58406530035017923 42.75283498216271738 0.3928571428571428492 0.4285714285714285476 3.675446526738998632 5.250315390128074355 42.75283498216271738 44.09632817489413981 0.4285714285714285476 0.4642857142857143016 5.250315390128074355 7.721243881961166622 44.09632817489413981 69.18599777132651241 0.4642857142857143016 0.5 7.721243881961166622 10.61029647448472346 69.18599777132651241 44.67376304064328707 0.5 0.5357142857142856984 10.61029647448472346 12.20578801165055438 44.67376304064328707 36.6632708627048558 0.5357142857142856984 0.5714285714285713969 12.20578801165055438 13.51519054246144158 36.6632708627048558 34.09910366334472798 0.5714285714285713969 0.6071428571428570953 13.51519054246144158 14.73301567329518136 34.09910366334472798 34.04320467538142481 0.6071428571428570953 0.6428571428571429047 14.73301567329518136 15.94884441170166411 34.04320467538142481 34.04320467538142481 0.6428571428571429047 0.6785714285714286031 15.94884441170166411 17.25061170398262078 34.04320467538142481 36.44948418386680089 0.6785714285714286031 0.7142857142857143016 17.25061170398262078 18.82126194197285685 36.44948418386680089 43.97820666372663112 0.7142857142857143016 0.75 18.82126194197285685 22.83027469412851573 43.97820666372663112 112.2523570603585057 0.75 0.7857142857142856984 22.83027469412851573 30.75996796999848115 112.2523570603585057 222.0314117243590317 0.7857142857142856984 0.8214285714285713969 30.75996796999848115 38.68966124586844302 222.0314117243590317 222.0314117243590317 0.8214285714285713969 0.8571428571428570953 38.68966124586844302 46.61935452173840844 222.0314117243590317 222.031411724359117 0.8571428571428570953 0.8928571428571429047 46.61935452173840844 54.54905191277586596 222.031411724359117 222.0315269490482137 0.8928571428571429047 0.9285714285714286031 54.54905191277586596 62.47875191717175625 222.0315269490482137 222.0316001230846155 0.9285714285714286031 0.9642857142857143016 62.47875191717175625 70.40845192156763233 222.0316001230846155 222.0316001230846155 0.9642857142857143016 1 70.40845192156763233 78.3381519259636292 222.0316001230846155 222.0316001230879976 F null_curve 0 -1 
	1 
	1 1 straight 3.105388781397749653 -0.3461035111871436643 4.725000000000003197 -0 1 -0 F -12.95409301659760004 F -0 null_surface nullbs F -1 213 28 1 0 0.0357142857142857123 -12.95409301659760004 -12.49144683743340067 12.95409301659758228 12.95409301659758228 0.0357142857142857123 0.07142857142857142461 -12.49144683743340067 -12.02880065826919953 12.95409301659758228 12.95409301659758228 0.07142857142857142461 0.1071428571428571369 -12.02880065826919953 -11.56615447910500016 12.95409301659758228 12.95409301659758228 0.1071428571428571369 0.1428571428571428492 -11.56615447910500016 -11.1035082999408008 12.95409301659758228 12.95409301659758228 0.1428571428571428492 0.1785714285714285754 -11.1035082999408008 -10.64086212077659965 12.95409301659758228 12.95409301659758761 0.1785714285714285754 0.2142857142857142738 -10.64086212077659965 -10.17821594161240029 12.95409301659758761 12.95409301659757872 0.2142857142857142738 0.25 -10.17821594161240029 -9.715569762448200919 12.95409301659757872 12.95409301659757872 0.25 0.2857142857142856984 -9.715569762448200919 -9.252923583284001552 12.95409301659757872 12.95409301659758761 0.2857142857142856984 0.3214285714285714524 -9.252923583284001552 -8.790277404119800408 12.95409301659758761 12.9540930165976178 0.3214285714285714524 0.3571428571428571508 -8.790277404119800408 -8.327631224955599265 12.9540930165976178 12.95409301659756274 0.3571428571428571508 0.3928571428571428492 -8.327631224955599265 -7.864985045791400786 12.95409301659756274 12.95409301659756274 0.3928571428571428492 0.4285714285714285476 -7.864985045791400786 -7.402338866627199643 12.95409301659756274 12.9540930165976178 0.4285714285714285476 0.4642857142857143016 -7.402338866627199643 -6.939692687462998499 12.9540930165976178 12.95409301659761248 0.4642857142857143016 0.5 -6.939692687462998499 -6.477046508298798244 12.95409301659761248 12.95409301659758761 0.5 0.5357142857142856984 -6.477046508298798244 -6.014400329134598877 12.95409301659758761 12.95409301659758761 0.5357142857142856984 0.5714285714285713969 -6.014400329134598877 -5.551754149970398622 12.95409301659758761 12.95409301659761248 0.5714285714285713969 0.6071428571428570953 -5.551754149970398622 -5.089107970806197478 12.95409301659761248 12.95409301659752366 0.6071428571428570953 0.6428571428571429047 -5.089107970806197478 -4.626461791641999 12.95409301659752366 12.95409301659752366 0.6428571428571429047 0.6785714285714286031 -4.626461791641999 -4.163815612477799633 12.95409301659752366 12.95409301659758761 0.6785714285714286031 0.7142857142857143016 -4.163815612477799633 -3.701169433313599821 12.95409301659758761 12.95409301659756274 0.7142857142857143016 0.75 -3.701169433313599821 -3.238523254149401343 12.95409301659756274 12.95409301659756274 0.75 0.7857142857142856984 -3.238523254149401343 -2.775877074985201531 12.95409301659756274 12.95409301659760004 0.7857142857142856984 0.8214285714285713969 -2.775877074985201531 -2.31323089582100172 12.95409301659760004 12.95409301659755741 0.8214285714285713969 0.8571428571428570953 -2.31323089582100172 -1.850584716656803463 12.95409301659755741 12.95409301659755741 0.8571428571428570953 0.8928571428571429047 -1.850584716656803463 -1.387938537492603652 12.95409301659755741 12.95409301659756096 0.8928571428571429047 0.9285714285714286031 -1.387938537492603652 -0.9252923583284039522 12.95409301659756096 12.95409301659759649 0.9285714285714286031 0.9642857142857143016 -0.9252923583284039522 -0.4626461791642040855 12.95409301659759649 12.95409301659760182 0.9642857142857143016 1 -0.4626461791642040855 -0 12.95409301659760182 12.95409301659772083 F null_curve 0 -1 
	0 
	F 1 F 0 F 1 F 0 F F F F 0 0 full nubs 3 3 open open none none 48 2 
	0 3 0.009131572261337671248 3 0.02657521306484835963 3 0.0348243369621058993 3 0.04279954298444495209 3 
	0.05803422822881257326 3 0.08616095266904300054 3 0.1106414250558630796 3 0.193824584294988389 3 0.2043479128726198302 3 
	0.2224451074967670472 3 0.2490436188854113497 3 0.2556922546665525431 3 0.2654641457367666879 3 0.2750002020968914662 3 
	0.2807868831615762395 3 0.2914704241156015896 3 0.3098431394113128623 3 0.3167599269973747078 3 0.3227800459723341731 3 
	0.333132974130630366 3 0.348349281588407611 3 0.3596426528066516415 3 0.3631983588517269657 3 0.3788069263698778388 3 
	0.4017477561235680561 3 0.4241349321478729562 3 0.4321239220416202009 3 0.4458627598903981415 3 0.4560824701187009 3 
	0.471102979349090234 3 0.4857609837772574601 3 0.4940776110210590155 3 0.5099644982060610454 3 0.5248090467228551104 3 
	0.5789605049992323504 3 0.6585500883346544487 3 0.67844451565196362 3 0.6932430950208158249 3 0.7042510998174996706 3 
	0.7204302119413293903 3 0.736218857553630146 3 0.7450627849333991692 3 0.7533264622377815467 3 0.7834715472332227648 3 
	0.7948202861823273624 3 0.8710142756266218145 3 1 3 
	0 3 1 3 
	46.06906530978008618 -8.404100040706053321 6.264448049142885111 
	46.06909092704691489 -8.39491401755149802 6.264448049142885111 
	46.0691166075063876 -8.379783040396207028 6.264448049142882446 
	46.0691395912959436 -8.358556605698067798 6.264448049142882446 
	46.06918349621810194 -8.318008681220572242 6.264448049142882446 
	46.06921650079756603 -8.253566625063339046 6.264448049142885111 
	46.06923651354794913 -8.193868755554500893 6.264448049142885111 
	46.06924597760762197 -8.165637543531286013 6.264448049142885111 
	46.06925282184050729 -8.138925271968718178 6.264448049142885111 
	46.06925762121741741 -8.117905890880152242 6.264448049142885111 
	46.06926226122769208 -8.097584472905197117 6.264448049142885111 
	46.0692659522800696 -8.078704286466749096 6.264448049142885111 
	46.0692695184976202 -8.057592387112396892 6.264448049142885111 
	46.06927633088613305 -8.017263254463857791 6.264448049142885111 
	46.06928155763772281 -7.973340697594989201 6.264448049142885111 
	46.06928513223417099 -7.929686227239495899 6.264448049142885111 
	46.06929173175937819 -7.849090058787173696 6.264448049142885111 
	46.0692931145055482 -7.777332992602359774 6.264448049142885999 
	46.06929228978631841 -7.69951216834317087 6.264448049142885999 
	46.06929157198086244 -7.631779768737060543 6.264448049142885999 
	46.06928878147026296 -7.56354294488947243 6.264448049142885111 
	46.06928479148018596 -7.497451444331964865 6.264448049142885111 
	46.06927123373608168 -7.272876537101508276 6.264448049142885111 
	46.06924323593531767 -7.046481924273023445 6.264448049142885111 
	46.06921003723097385 -6.814028175055576675 6.264448049142885111 
	46.06920583733189289 -6.784620934401425885 6.264448049142885111 
	46.06920156553634627 -6.755250908515844088 6.264448049142885111 
	46.06919733500066627 -6.726527379116781447 6.264448049142885111 
	46.06919005965741576 -6.677130907459308595 6.264448049142885111 
	46.06918327450514283 -6.632050068971914847 6.264448049142885111 
	46.06917552918643111 -6.580824479472472177 6.264448049142885111 
	46.0691641454359555 -6.505535217573673812 6.264448049142885111 
	46.06915184799851914 -6.424660580796145659 6.264448049142885111 
	46.06914284432217244 -6.361309986619433587 6.264448049142885111 
	46.06914059373890069 -6.345474700913194432 6.264448049142885111 
	46.06913786291434576 -6.326110091063785745 6.264448049142885111 
	46.06913456160008735 -6.301154528621276896 6.264448049142885111 
	46.06912970946434172 -6.264475870651194711 6.264448049142885111 
	46.06912425464216909 -6.220169755192626049 6.264448049142885111 
	46.06912142877273908 -6.182965997045474893 6.264448049142885111 
	46.06911867110281378 -6.146660113982463258 6.264448049142885111 
	46.06911858685980121 -6.117616940139211756 6.264448049142883335 
	46.06912298171331344 -6.103961104062689991 6.264448049142883335 
	46.06912564860354564 -6.095674453369551493 6.264448049142885111 
	46.06912744892232325 -6.08758190871346283 6.264448049142885111 
	46.06912850823799488 -6.079972841249722926 6.264448049142885111 
	46.06913046397777123 -6.065924756870765933 6.264448049142885111 
	46.06913204514972904 -6.056019939893352522 6.264448049142885111 
	46.06912625591429133 -6.03058856350565442 6.264448049142885111 
	46.06911630004152158 -5.986853678231198295 6.264448049142885111 
	46.06906086129374245 -5.916865220918261059 6.264448049142885111 
	46.06899967632476489 -5.859980912650722296 6.264448049142885111 
	46.06897664198133668 -5.838565641639666737 6.264448049142885111 
	46.06895509598572147 -5.81865937169376668 6.264448049142885111 
	46.06893953926758911 -5.801122321839724094 6.264448049142885111 
	46.06892599926901966 -5.78585871495899795 6.264448049142885111 
	46.06891751413354541 -5.774344956920202776 6.264448049142885111 
	46.0689123649228307 -5.759926190134047275 6.264448049142885111 
	46.06890350971435311 -5.735129926590218474 6.264448049142885111 
	46.06889483289052833 -5.698045963681232173 6.264448049142885111 
	46.0690451180977476 -5.662748753909936816 6.264448049142885111 
	46.0692660011063424 -5.610870368580729739 6.264448049142885111 
	46.06990802748445191 -5.56522393349635891 6.264448049142885111 
	46.07150187564101884 -5.530348048133070016 6.264448049142885111 
	46.07268481170797259 -5.504463560647163689 6.264448049142885111 
	46.07412528655405026 -5.485336269941949006 6.264448049142883335 
	46.0763067655602967 -5.461493172594273027 6.264448049142883335 
	46.07699360193004168 -5.45398619848228261 6.264448049142883335 
	46.07778654461741041 -5.445762946349748113 6.264448049142885111 
	46.07870830524011296 -5.436579779300149795 6.264448049142885111 
	46.08275457980067102 -5.3962682121719725 6.264448049142885111 
	46.08891568244152381 -5.349699939866994214 6.264448049142885111 
	46.09675990442576676 -5.304226109879371265 6.264448049142885111 
	46.10828901886124953 -5.237390547244863193 6.264448049142885111 
	46.12189971615903517 -5.178275739346563711 6.264448049142885111 
	46.13706701815644351 -5.118886086842166172 6.264448049142885111 
	46.15186827265662828 -5.060929743548856052 6.264448049142885111 
	46.1686330182979674 -5.001566224403441119 6.264448049142885111 
	46.18592603858688506 -4.939738201067601864 6.264448049142885111 
	46.19209715030596897 -4.917674522600782971 6.264448049142883335 
	46.19748066479186832 -4.898362779824296354 6.264448049142885111 
	46.20386272413469442 -4.875348374048301459 6.264448049142885111 
	46.2148380889328152 -4.83577000514964439 6.264448049142885111 
	46.22723353480429154 -4.790638419432036166 6.264448049142885111 
	46.23786509265959666 -4.751205359471312839 6.264448049142885111 
	46.24577343554511089 -4.721872860562045027 6.264448049142885111 
	46.25281723019245561 -4.695314175417307112 6.264448049142885111 
	46.25890615754272517 -4.672031725437850724 6.264448049142885111 
	46.26785541221088494 -4.637812139264654299 6.264448049142885111 
	46.27403877010083733 -4.613538483369331367 6.264448049142885111 
	46.28254876010165475 -4.580089978509115589 6.264448049142885111 
	46.29085337009871637 -4.547448719492099833 6.264448049142885111 
	46.30070691726092491 -4.508706459899350705 6.264448049142885111 
	46.31223161443548264 -4.46468037849279753 6.264448049142885111 
	46.31877047250229396 -4.439700954461518023 6.264448049142885111 
	46.32616817589840252 -4.411624290153203454 6.264448049142885111 
	46.33288319089135143 -4.386205988258800481 6.264448049142885111 
	46.34571058864662518 -4.337650524271682073 6.264448049142885111 
	46.35376367200716174 -4.307323350626965031 6.264448049142885111 
	46.36483959523712173 -4.265641590193292032 6.264448049142885111 
	46.3751888271439654 -4.226694570061672707 6.264448049142885111 
	46.38652516994295638 -4.184110478049309023 6.264448049142885111 
	46.39758311522312795 -4.142623105911953374 6.264448049142885111 
	46.43792141596594547 -3.991281237969597218 6.264448049142885111 
	46.47427426960815211 -3.85541427492047406 6.264448049142885111 
	46.51219983578919681 -3.713795759876800773 6.264448049142885111 
	46.56794127112975445 -3.505650698530887954 6.264448049142885111 
	46.62411594121067537 -3.296283934432509888 6.264448049142885111 
	46.68180198013710935 -3.081462024062270988 6.264448049142885111 
	46.69622133830623767 -3.027764558854859178 6.264448049142885111 
	46.71055862870618824 -2.974385254991594785 6.264448049142885111 
	46.72380508128077992 -2.925075290629460589 6.264448049142885111 
	46.73365852801006781 -2.888395801964138254 6.264448049142885111 
	46.74480741371701953 -2.846899116030397803 6.264448049142885111 
	46.75594984870294724 -2.8054316028094064 6.264448049142885111 
	46.76423821035676553 -2.774585764633614726 6.264448049142885111 
	46.77250299165605441 -2.743830375663847132 6.264448049142885111 
	46.78027233675742025 -2.714920246325849273 6.264448049142885111 
	46.79169140023399365 -2.672429328787841563 6.264448049142885111 
	46.79896387803653823 -2.645370940680559446 6.264448049142885111 
	46.81556814219011642 -2.583590287284473153 6.264448049142885111 
	46.83177167921782313 -2.523300647488325055 6.264448049142885111 
	46.85229255108453117 -2.446952638869588359 6.264448049142886887 
	46.8590524744741046 -2.421716225579356063 6.264448049142886887 
	46.86283901025547749 -2.407580180478010146 6.264448049142885111 
	46.86670059715022774 -2.393163951681295032 6.264448049142886887 
	46.87028349752522871 -2.379788126484502442 6.264448049142886887 
	46.87363132380662734 -2.367289889178871398 6.264448049142886887 
	46.87619378228817624 -2.357723618000443722 6.264448049142885111 
	46.88014899605975927 -2.342957857869488958 6.264448049142885111 
	46.89457722830163533 -2.28909381190367256 6.264448049142885111 
	46.92431058481201944 -2.178092074670816558 6.264448049142885111 
	46.94682439304509103 -2.094042642106812124 6.264448049142885111 
	46.95530018047199405 -2.062400499809535326 6.264448049142885111 
	46.96301168680940918 -2.033611601943253966 6.264448049142885111 
	46.97103611690086211 -2.003654485065899493 6.264448049142885111 
	47.02491111961497694 -1.802526213689567669 6.264448049142885111 
	47.07878610372640793 -1.601398022255403619 6.264448049142885111 
	47.13266114014196262 -1.400269636737977885 6.264448049142885111 
	47.22386401123961974 -1.059787524077635767 6.264448049142885111 
	47.31547798433420127 -0.7194151009247884421 6.264448049142885111 
	47.40626955116334784 -0.3788240146851743484 6.264448049142885111 
	31.74783980031930852 -10.03613220306561615 5.751298699428590844 
	31.74785687849719196 -10.01686471691134095 5.751298699428590844 
	31.74787399880350947 -9.993633928089908025 5.751298699428589067 
	31.74788932132987895 -9.966339500906576276 5.751298699428589067 
	31.74791859127798688 -9.914200157308600936 5.751298699428589067 
	31.74794059433095939 -9.846131392590802278 5.751298699428590844 
	31.7479539361645493 -9.781225418971933649 5.751298699428590844 
	31.74796024553766571 -9.750531286704177347 5.751298699428590844 
	31.74796480835959045 -9.720849781410185741 5.751298699428590844 
	31.74796800794419482 -9.694963536432195994 5.751298699428590844 
	31.74797110128437794 -9.669936862155569912 5.751298699428590844 
	31.74797356198596532 -9.645871008903283084 5.751298699428590844 
	31.74797593946433238 -9.620317347040391098 5.751298699428590844 
	31.74798048105667547 -9.571503310859794666 5.751298699428590844 
	31.74798396555773294 -9.520293658532313685 5.751298699428590844 
	31.74798634862203173 -9.469262730547081119 5.751298699428590844 
	31.74799074830550438 -9.375047928839871147 5.751298699428590844 
	31.7479916701362832 -9.286725861977668472 5.751298699428591732 
	31.74799112032346216 -9.194361289732546183 5.751298699428591732 
	31.74799064178649388 -9.113970543729683627 5.751298699428591732 
	31.74798878144609304 -9.033243514899167437 5.751298699428590844 
	31.74798612145270837 -8.953946701595370428 5.751298699428590844 
	31.74797708295663767 -8.68450094319750221 5.751298699428590844 
	31.7479584177561307 -8.413842047734279461 5.751298699428590844 
	31.74793628528656697 -8.139143728011751122 5.751298699428590844 
	31.74793348535384752 -8.104392214549111628 5.751298699428590844 
	31.74793063749014976 -8.069665510932184205 5.751298699428590844 
	31.74792781713302858 -8.035369804972935626 5.751298699428590844 
	31.74792296690419491 -7.9763907413678794 5.751298699428590844 
	31.74791844346934511 -7.920288766542875614 5.751298699428590844 
	31.74791327992353729 -7.860090291043171362 5.751298699428590844 
	31.74790569075655355 -7.771613050818247714 5.751298699428590844 
	31.74789749246493287 -7.679412227340836949 5.751298699428590844 
	31.74789149001403388 -7.598894098930636609 5.751298699428590844 
	31.74788998962518605 -7.578767569977324037 5.751298699428590844 
	31.74788816907548039 -7.556288158261897259 5.751298699428590844 
	31.7478859681993093 -7.530081444817738223 5.751298699428590844 
	31.74788273344214673 -7.491563896629726216 5.751298699428590844 
	31.74787909689403165 -7.447961376782724408 5.751298699428590844 
	31.74787721298107712 -7.409093761809998568 5.751298699428590844 
	31.74787537453445907 -7.3711641774234824 5.751298699428590844 
	31.74787531837245425 -7.338076399183473875 5.751298699428589956 
	31.74787824827479454 -7.315246846121284285 5.751298699428589956 
	31.74788002620161365 -7.301393389573713755 5.751298699428590844 
	31.74788122641413324 -7.287669337050842522 5.751298699428590844 
	31.7478819326245798 -7.274267602656203202 5.751298699428590844 
	31.747883236451095 -7.249524926040779249 5.751298699428590844 
	31.74788429056573591 -7.22754442769305161 5.751298699428590844 
	31.74788043107544411 -7.195212889738465734 5.751298699428590844 
	31.74787379382692976 -7.139611648121261034 5.751298699428590844 
	31.74783683466174722 -7.066508025145068039 5.751298699428590844 
	31.74779604468242766 -7.002140501532474914 5.751298699428590844 
	31.74778068845347434 -6.977908019773338744 5.751298699428590844 
	31.7477663244563999 -6.954681538724306833 5.751298699428590844 
	31.74775595331097833 -6.933034537736512348 5.751298699428590844 
	31.74774692664526654 -6.914193779685738228 5.751298699428590844 
	31.74774126988828371 -6.897852920862917792 5.751298699428590844 
	31.74773783708113939 -6.879575389541857433 5.751298699428590844 
	31.74773193360882217 -6.8481431255841132 5.751298699428590844 
	31.74772614905960566 -6.808519062049597892 5.751298699428590844 
	31.74782633919775066 -6.770086167273542621 5.751298699428590844 
	31.74797359453681267 -6.713599081256605317 5.751298699428590844 
	31.74840161212221901 -6.661266628736225215 5.751298699428590844 
	31.74946417755992911 -6.616114542696566403 5.751298699428590844 
	31.75025280160456731 -6.582603175346839919 5.751298699428590844 
	31.75121311816861791 -6.553596605850907864 5.751298699428589956 
	31.75266743750611553 -6.521446165260002203 5.751298699428589956 
	31.75312532841928004 -6.511323632868943889 5.751298699428589956 
	31.75365395687752468 -6.500723581797522854 5.751298699428590844 
	31.75426846395932756 -6.489483587448058977 5.751298699428590844 
	31.7569659803330353 -6.440143116530832934 5.751298699428590844 
	31.76107338209359909 -6.386631508829072601 5.751298699428590844 
	31.76630286341642773 -6.333849529338882789 5.751298699428590844 
	31.77398893970675076 -6.256272749526186061 5.751298699428590844 
	31.78306273790527214 -6.183843139537627209 5.751298699428590844 
	31.79317427257021222 -6.111230299811669653 5.751298699428590844 
	31.8030417755703354 -6.040369897549708433 5.751298699428590844 
	31.81421827266456148 -5.968571378053010079 5.751298699428590844 
	31.82574695285717326 -5.895129855762696103 5.751298699428590844 
	31.82986102733656253 -5.868921834763454193 5.751298699428589956 
	31.83345003699383113 -5.844548437557768317 5.751298699428590844 
	31.83770474322238186 -5.817706598352409664 5.751298699428590844 
	31.84502165308779453 -5.771546109816302561 5.751298699428590844 
	31.85328528366877876 -5.721683476734227725 5.751298699428590844 
	31.86037298890564884 -5.675619860823410079 5.751298699428590844 
	31.86564521749599166 -5.641355186339441552 5.751298699428590844 
	31.87034108059422266 -5.608939721031826586 5.751298699428590844 
	31.87440036549440237 -5.578708412501065972 5.751298699428590844 
	31.88036653527317554 -5.534275680193698754 5.751298699428590844 
	31.88448877386647595 -5.496473568071580829 5.751298699428590844 
	31.89016210053368638 -5.45255488997286708 5.751298699428590844 
	31.89569850719839295 -5.409696144761503511 5.751298699428590844 
	31.90226753863986886 -5.362770065832984656 5.751298699428590844 
	31.90995067008957164 -5.312321439028595549 5.751298699428590844 
	31.914309908800778 -5.283698004907678936 5.751298699428590844 
	31.91924171106485275 -5.25300974393540443 5.751298699428590844 
	31.92371838772681869 -5.224093724572405506 5.751298699428590844 
	31.93226998623033452 -5.168856724765581667 5.751298699428590844 
	31.93763870847069342 -5.12577191852035785 5.751298699428590844 
	31.94502265729066437 -5.075117387749163989 5.751298699428590844 
	31.95192214522856133 -5.027786300741868608 5.751298699428590844 
	31.95947970709455532 -4.978030499147409138 5.751298699428590844 
	31.9668516706146697 -4.92900584413628895 5.751298699428590844 
	31.99374387110988494 -4.750168706897319737 5.751298699428590844 
	32.01797910687135129 -4.581648172920504969 5.751298699428590844 
	32.04326281765871443 -4.409293270947322263 5.751298699428590844 
	32.08042377455242189 -4.155973133863457569 5.751298699428590844 
	32.11787355460636917 -3.901838528277950413 5.751298699428590844 
	32.15633091389065612 -3.644067158511201665 5.751298699428590844 
	32.1659438193367393 -3.579633930375108797 5.751298699428590844 
	32.17550201293671108 -3.515412809801781169 5.751298699428590844 
	32.18433298131976983 -3.453904582229207154 5.751298699428590844 
	32.19090194580596176 -3.408151348268146474 5.751298699428590844 
	32.19833453627726527 -3.359186649461473273 5.751298699428590844 
	32.20576282626788611 -3.3102413991299664 5.751298699428590844 
	32.21128840070375787 -3.273833205005728164 5.751298699428590844 
	32.21679825490328852 -3.237485310352172352 5.751298699428590844 
	32.22197781830419672 -3.202367588786463326 5.751298699428590844 
	32.22959052728857898 -3.150753007830230157 5.751298699428590844 
	32.23443884582360397 -3.109426779827814347 5.751298699428590844 
	32.24550835525933223 -3.044952374966195308 5.751298699428590844 
	32.25631071327780575 -2.982033994672336874 5.751298699428590844 
	32.26999129452227066 -2.908410035163419227 5.75129869942859262 
	32.27449791011532199 -2.86886047254017118 5.75129869942859262 
	32.27702226730290391 -2.846706991593767277 5.751298699428590844 
	32.27959665856607074 -2.824366721517116652 5.75129869942859262 
	32.28198525881607139 -2.802720053840414671 5.75129869942859262 
	32.28421714300367285 -2.782493624029981127 5.75129869942859262 
	32.28592544865803404 -2.764221838304349532 5.751298699428590844 
	32.2885622578390894 -2.74248372661036699 5.751298699428590844 
	32.29818107933367344 -2.663185225408246648 5.751298699428590844 
	32.31800331700726048 -2.545794930028099756 5.751298699428590844 
	32.33301252249597724 -2.44637283776052028 5.751298699428590844 
	32.33866304744724829 -2.408943340677026423 5.751298699428590844 
	32.34380405167219408 -2.373416006547529378 5.751298699428590844 
	32.3491536717331627 -2.337109859743983442 5.751298699428590844 
	32.38507034020923214 -2.0933550092078681 5.751298699428590844 
	32.42098699628352421 -1.849600211966532015 5.751298699428590844 
	32.45690368722722496 -1.605845285336354733 5.751298699428590844 
	32.51770560129233445 -1.193202424524353766 5.751298699428590844 
	32.57878158335538643 -0.7806326900506820321 5.751298699428590844 
	32.63930929457481511 -0.36791718018583075 5.751298699428590844 
	17.42661429085852731 -11.66816436542518076 5.238149349714297465 
	17.42662282994747258 -11.63881541627118388 5.238149349714297465 
	17.42663139010062778 -11.60748481578360902 5.238149349714296577 
	17.4266390513638143 -11.57412239611508475 5.238149349714296577 
	17.42665368633786471 -11.51039163339663318 5.238149349714296577 
	17.4266646878643563 -11.43869616011826729 5.238149349714297465 
	17.42667135878114948 -11.36858208238936463 5.238149349714297465 
	17.42667451346770591 -11.33542502987706868 5.238149349714297465 
	17.4266767948786665 -11.3027742908516533 5.238149349714297465 
	17.42667839467097224 -11.27202118198423975 5.238149349714297465 
	17.4266799413410638 -11.24228925140594093 5.238149349714297465 
	17.42668117169185393 -11.21303773133981352 5.238149349714297465 
	17.42668236043103747 -11.18304230696838353 5.238149349714297465 
	17.42668463122720723 -11.12574336725573332 5.238149349714297465 
	17.42668637347773952 -11.0672466194696355 5.238149349714297465 
	17.42668756500988891 -11.00883923385466545 5.238149349714297465 
	17.42668976485162347 -10.90100579889257126 5.238149349714297465 
	17.42669022576701465 -10.79611873135297451 5.238149349714297465 
	17.4266899508606059 -10.6892104111219215 5.238149349714297465 
	17.42668971159211821 -10.59616131872230227 5.238149349714297465 
	17.42668878142191957 -10.50294408490885978 5.238149349714297465 
	17.42668745142522724 -10.41044195885877599 5.238149349714297465 
	17.42668293217719366 -10.09612534929349614 5.238149349714297465 
	17.42667359957693662 -9.781202171195538142 5.238149349714297465 
	17.42666253334215654 -9.464259280967926458 5.238149349714297465 
	17.42666113337579503 -9.424163494696797372 5.238149349714297465 
	17.42665970944394616 -9.384080113348522545 5.238149349714297465 
	17.42665829926538734 -9.344212230829089805 5.238149349714297465 
	17.4266558741509705 -9.275650575276449317 5.238149349714297465 
	17.42665361243354738 -9.208527464113837269 5.238149349714297465 
	17.42665103066064347 -9.139356102613872324 5.238149349714297465 
	17.4266472360771516 -9.037690884062822505 5.238149349714297465 
	17.42664313693133593 -8.934163873885527352 5.238149349714297465 
	17.42664013570588821 -8.836478211241839631 5.238149349714297465 
	17.4266393855114643 -8.812060439041452753 5.238149349714297465 
	17.42663847523661502 -8.786466225460010548 5.238149349714297465 
	17.4266373747985277 -8.759008361014199551 5.238149349714297465 
	17.42663575741994464 -8.718651922608257721 5.238149349714297465 
	17.4266339391458871 -8.675752998372821878 5.238149349714297465 
	17.42663299718941161 -8.63522152657452402 5.238149349714297465 
	17.42663207796610436 -8.595668240864503318 5.238149349714297465 
	17.42663204988509662 -8.558535858227736881 5.238149349714296577 
	17.42663351483626855 -8.526532588179879468 5.238149349714296577 
	17.42663440379968165 -8.507112325777875128 5.238149349714297465 
	17.42663500390593967 -8.487756765388221325 5.238149349714297465 
	17.42663535701116473 -8.468562364062684367 5.238149349714297465 
	17.42663600892442588 -8.433125095210792566 5.238149349714297465 
	17.42663653598174278 -8.399068915492751586 5.238149349714297465 
	17.42663460623659688 -8.359837215971278823 5.238149349714297465 
	17.42663128761234148 -8.292369618011324661 5.238149349714297465 
	17.42661280802974488 -8.216150829371876796 5.238149349714297465 
	17.42659241304008688 -8.144300090414226645 5.238149349714297465 
	17.426584734925612 -8.11725039790701075 5.238149349714297465 
	17.42657755292707122 -8.090703705754847874 5.238149349714297465 
	17.42657236735436044 -8.064946753633300602 5.238149349714297465 
	17.42656785402150277 -8.042528844412478506 5.238149349714297465 
	17.42656502564301135 -8.021360884805632807 5.238149349714297465 
	17.42656330923944097 -7.999224588949667591 5.238149349714297465 
	17.42656035750328058 -7.961156324578008814 5.238149349714297465 
	17.42655746522867233 -7.918992160417963611 5.238149349714297465 
	17.4266075602977466 -7.877423580637149314 5.238149349714297465 
	17.42668118796727939 -7.816327793932480894 5.238149349714297465 
	17.42689519675998255 -7.75730932397609152 5.238149349714297465 
	17.42742647947883938 -7.70188103726006279 5.238149349714297465 
	17.42782079150115493 -7.660742790046516149 5.238149349714297465 
	17.42830094978318201 -7.621856941759869386 5.238149349714296577 
	17.42902810945193082 -7.581399157925732268 5.238149349714296577 
	17.42925705490851129 -7.568661067255606056 5.238149349714296577 
	17.42952136913763539 -7.555684217245297596 5.238149349714297465 
	17.42982862267853506 -7.542387395595969046 5.238149349714297465 
	17.43117738086538537 -7.484018020889694256 5.238149349714297465 
	17.43323108174567437 -7.423563077791152764 5.238149349714297465 
	17.43584582240708869 -7.363472948798396089 5.238149349714297465 
	17.43968886055224843 -7.275154951807508041 5.238149349714297465 
	17.44422575965151267 -7.189410539728690708 5.238149349714297465 
	17.44928152698398094 -7.103574512781173134 5.238149349714297465 
	17.45421527848404253 -7.019810051550560814 5.238149349714297465 
	17.45980352703115557 -6.93557653170257904 5.238149349714297465 
	17.46556786712746145 -6.850521510457789454 5.238149349714297465 
	17.46762490436715609 -6.820169146926125414 5.238149349714296577 
	17.46941940919578684 -6.79073409529124028 5.238149349714297465 
	17.47154676231006221 -6.760064822656516981 5.238149349714297465 
	17.47520521724277032 -6.707322214482959843 5.238149349714297465 
	17.47933703253326243 -6.652728534036419283 5.238149349714297465 
	17.48288088515169747 -6.600034362175506431 5.238149349714297465 
	17.48551699944686888 -6.560837512116838077 5.238149349714297465 
	17.4878649309959826 -6.52256526664634606 5.238149349714297465 
	17.48989457344607246 -6.485385099564281219 5.238149349714297465 
	17.49287765833545905 -6.43073922112274321 5.238149349714297465 
	17.49493877763211103 -6.379408652773828514 5.238149349714297465 
	17.49777544096571802 -6.325019801436617684 5.238149349714297465 
	17.50054364429807308 -6.271943570030906301 5.238149349714297465 
	17.5038281600188057 -6.216833671766615943 5.238149349714297465 
	17.50766972574366065 -6.159962499564392679 5.238149349714297465 
	17.50984934509926561 -6.127695055353838072 5.238149349714297465 
	17.51231524623129943 -6.094395197717606294 5.238149349714297465 
	17.5145535845622824 -6.061981460886010531 5.238149349714297465 
	17.51882938381404031 -6.000062925259479485 5.238149349714297465 
	17.52151374493421798 -5.94422048641375067 5.238149349714297465 
	17.52520571934420701 -5.884593185305035057 5.238149349714297465 
	17.52865546331315372 -5.828878031422062733 5.238149349714297465 
	17.53243424424615071 -5.771950520245509253 5.238149349714297465 
	17.5361202260062079 -5.715388582360625414 5.238149349714297465 
	17.54956632625381374 -5.509056175825040924 5.238149349714297465 
	17.56168394413455047 -5.307882070920534545 5.238149349714297465 
	17.57432579952823204 -5.104790782017844641 5.238149349714297465 
	17.59290627797508577 -4.806295569196027628 5.238149349714297465 
	17.61163116800205941 -4.507393122123391827 5.238149349714297465 
	17.63085984764420289 -4.206672292960132786 5.238149349714297465 
	17.63566630036724803 -4.131503301895358859 5.238149349714297465 
	17.64044539716723037 -4.056440364611968441 5.238149349714297465 
	17.64486088135875974 -3.982733873828954163 5.238149349714297465 
	17.64814536360185571 -3.927906894572154251 5.238149349714297465 
	17.65186165883750391 -3.871474182892549631 5.238149349714297465 
	17.65557580383281433 -3.815051195450526844 5.238149349714297465 
	17.65833859105075376 -3.773080645377842046 5.238149349714297465 
	17.66109351815051909 -3.731140245040498016 5.238149349714297465 
	17.66368329985097319 -3.689814931247077823 5.238149349714297465 
	17.66748965434316432 -3.629076686872619195 5.238149349714297465 
	17.66991381361067681 -3.573482618975068803 5.238149349714297465 
	17.67544856832853739 -3.506314462647917907 5.238149349714297465 
	17.68084974733777415 -3.440767341856348693 5.238149349714297465 
	17.68769003796000661 -3.369867431457250095 5.238149349714297465 
	17.68994334575653227 -3.316004719500986297 5.238149349714297465 
	17.69120552435032678 -3.285833802709523521 5.238149349714297465 
	17.69249271998190665 -3.255569491352938272 5.238149349714297465 
	17.69368702010690697 -3.225651981196327345 5.238149349714297465 
	17.6948029622007077 -3.197697358881091301 5.238149349714297465 
	17.69565711502789185 -3.170720058608256231 5.238149349714297465 
	17.69697551961841953 -3.142009595351245466 5.238149349714297465 
	17.70178493036571155 -3.037276638912820736 5.238149349714297465 
	17.71169604920250862 -2.91349778538538251 5.238149349714297465 
	17.71920065194686345 -2.798703033414228436 5.238149349714297465 
	17.72202591442249897 -2.755486181544517077 5.238149349714297465 
	17.72459641653496831 -2.71322041115180479 5.238149349714297465 
	17.72727122656545262 -2.670565234422067835 5.238149349714297465 
	17.7452295608034909 -2.384183804726168976 5.238149349714297465 
	17.76318788884063693 -2.097802401677660189 5.238149349714297465 
	17.78114623431248731 -1.811420933934731359 5.238149349714297465 
	17.81154719134503495 -1.326617324971071987 5.238149349714297465 
	17.84208518237656804 -0.8418502791765757332 5.238149349714297465 
	17.87234903798628238 -0.3570103456864872071 5.238149349714297465 
	3.105388781397749653 -13.30019652778474359 4.725000000000003197 
	3.105388781397749653 -13.26076611563102681 4.725000000000003197 
	3.105388781397749653 -13.22133570347731002 4.725000000000003197 
	3.105388781397749653 -13.18190529132359323 4.725000000000003197 
	3.105388781397749653 -13.10658310948466188 4.725000000000003197 
	3.105388781397749653 -13.03126092764573052 4.725000000000003197 
	3.105388781397749653 -12.95593874580679739 4.725000000000003197 
	3.105388781397749653 -12.92031877304996001 4.725000000000003197 
	3.105388781397749653 -12.88469880029312087 4.725000000000003197 
	3.105388781397749653 -12.8490788275362835 4.725000000000003197 
	3.105388781397749653 -12.81464164065631373 4.725000000000003197 
	3.105388781397749653 -12.78020445377634751 4.725000000000003197 
	3.105388781397749653 -12.74576726689637773 4.725000000000003197 
	3.105388781397749653 -12.67998342365167019 4.725000000000003197 
	3.105388781397749653 -12.6141995804069591 4.725000000000003197 
	3.105388781397749653 -12.54841573716225156 4.725000000000003197 
	3.105388781397749653 -12.42696366894526783 4.725000000000003197 
	3.105388781397749653 -12.30551160072828232 4.725000000000003197 
	3.105388781397749653 -12.18405953251129681 4.725000000000003197 
	3.105388781397749653 -12.07835209371492446 4.725000000000003197 
	3.105388781397749653 -11.9726446549185539 4.725000000000003197 
	3.105388781397749653 -11.86693721612218155 4.725000000000003197 
	3.105388781397749653 -11.50774975538949008 4.725000000000003197 
	3.105388781397749653 -11.14856229465679505 4.725000000000003197 
	3.105388781397749653 -10.78937483392410179 4.725000000000003197 
	3.105388781397749653 -10.74393477484448312 4.725000000000003197 
	3.105388781397749653 -10.69849471576486266 4.725000000000003197 
	3.105388781397749653 -10.65305465668524398 4.725000000000003197 
	3.105388781397749653 -10.57491040918501923 4.725000000000003197 
	3.105388781397749653 -10.49676616168479626 4.725000000000003197 
	3.105388781397749653 -10.41862191418457151 4.725000000000003197 
	3.105388781397749653 -10.30376871730739552 4.725000000000003197 
	3.105388781397749653 -10.18891552043021953 4.725000000000003197 
	3.105388781397749653 -10.07406232355304354 4.725000000000003197 
	3.105388781397749653 -10.04535330810558236 4.725000000000003197 
	3.105388781397749653 -10.01664429265812295 4.725000000000003197 
	3.105388781397749653 -9.987935277210661766 4.725000000000003197 
	3.105388781397749653 -9.945739948586791002 4.725000000000003197 
	3.105388781397749653 -9.90354461996291846 4.725000000000003197 
	3.105388781397749653 -9.861349291339047696 4.725000000000003197 
	3.105388781397749653 -9.820172304305522459 4.725000000000003197 
	3.105388781397749653 -9.778995317271998999 4.725000000000003197 
	3.105388781397749653 -9.737818330238473763 4.725000000000003197 
	3.105388781397749653 -9.71283126198203739 4.725000000000003197 
	3.105388781397749653 -9.687844193725601016 4.725000000000003197 
	3.105388781397749653 -9.662857125469164643 4.725000000000003197 
	3.105388781397749653 -9.616725264380805882 4.725000000000003197 
	3.105388781397749653 -9.570593403292448897 4.725000000000003197 
	3.105388781397749653 -9.524461542204090136 4.725000000000003197 
	3.105388781397749653 -9.4451275879013874 4.725000000000003197 
	3.105388781397749653 -9.365793633598682888 4.725000000000003197 
	3.105388781397749653 -9.286459679295980152 4.725000000000003197 
	3.105388781397749653 -9.256592776040681869 4.725000000000003197 
	3.105388781397749653 -9.226725872785387139 4.725000000000003197 
	3.105388781397749653 -9.196858969530088856 4.725000000000003197 
	3.105388781397749653 -9.170863909139219672 4.725000000000003197 
	3.105388781397749653 -9.144868848748346934 4.725000000000003197 
	3.105388781397749653 -9.11887378835747775 4.725000000000003197 
	3.105388781397749653 -9.07416952357190354 4.725000000000003197 
	3.105388781397749653 -9.029465258786329329 4.725000000000003197 
	3.105388781397749653 -8.984760994000755119 4.725000000000003197 
	3.105388781397749653 -8.919056506608356472 4.725000000000003197 
	3.105388781397749653 -8.853352019215957824 4.725000000000003197 
	3.105388781397749653 -8.787647531823559177 4.725000000000003197 
	3.105388781397749653 -8.738882404746192378 4.725000000000003197 
	3.105388781397749653 -8.690117277668829132 4.725000000000003197 
	3.105388781397749653 -8.641352150591462333 4.725000000000003197 
	3.105388781397749653 -8.625998501642268224 4.725000000000003197 
	3.105388781397749653 -8.610644852693072338 4.725000000000003197 
	3.105388781397749653 -8.595291203743878228 4.725000000000003197 
	3.105388781397749653 -8.52789292524855469 4.725000000000003197 
	3.105388781397749653 -8.460494646753231152 4.725000000000003197 
	3.105388781397749653 -8.393096368257907613 4.725000000000003197 
	3.105388781397749653 -8.294037154088830022 4.725000000000003197 
	3.105388781397749653 -8.194977939919754206 4.725000000000003197 
	3.105388781397749653 -8.095918725750676614 4.725000000000003197 
	3.105388781397749653 -7.999250205551413195 4.725000000000003197 
	3.105388781397749653 -7.902581685352148 4.725000000000003197 
	3.105388781397749653 -7.805913165152883693 4.725000000000003197 
	3.105388781397749653 -7.771416459088796636 4.725000000000003197 
	3.105388781397749653 -7.736919753024712243 4.725000000000003197 
	3.105388781397749653 -7.702423046960625186 4.725000000000003197 
	3.105388781397749653 -7.643098319149618014 4.725000000000003197 
	3.105388781397749653 -7.583773591338610842 4.725000000000003197 
	3.105388781397749653 -7.52444886352760367 4.725000000000003197 
	3.105388781397749653 -7.480319837894234603 4.725000000000003197 
	3.105388781397749653 -7.436190812260865535 4.725000000000003197 
	3.105388781397749653 -7.392061786627496467 4.725000000000003197 
	3.105388781397749653 -7.327202762051787666 4.725000000000003197 
	3.105388781397749653 -7.262343737476077976 4.725000000000003197 
	3.105388781397749653 -7.197484712900369175 4.725000000000003197 
	3.105388781397749653 -7.134190995300309979 4.725000000000003197 
	3.105388781397749653 -7.070897277700249894 4.725000000000003197 
	3.105388781397749653 -7.007603560100190698 4.725000000000003197 
	3.105388781397749653 -6.971692105799998984 4.725000000000003197 
	3.105388781397749653 -6.93578065149980727 4.725000000000003197 
	3.105388781397749653 -6.899869197199615556 4.725000000000003197 
	3.105388781397749653 -6.831269125753379079 4.725000000000003197 
	3.105388781397749653 -6.76266905430714349 4.725000000000003197 
	3.105388781397749653 -6.694068982860907013 4.725000000000003197 
	3.105388781397749653 -6.629969762102258635 4.725000000000003197 
	3.105388781397749653 -6.565870541343609368 4.725000000000003197 
	3.105388781397749653 -6.501771320584960989 4.725000000000003197 
	3.105388781397749653 -6.267943644752762999 4.725000000000003197 
	3.105388781397749653 -6.03411596892056501 4.725000000000003197 
	3.105388781397749653 -5.800288293088366132 4.725000000000003197 
	3.105388781397749653 -5.456618004528596799 4.725000000000003197 
	3.105388781397749653 -5.112947715968831908 4.725000000000003197 
	3.105388781397749653 -4.769277427409063463 4.725000000000003197 
	3.105388781397749653 -4.683372673415608922 4.725000000000003197 
	3.105388781397749653 -4.597467919422155269 4.725000000000003197 
	3.105388781397749653 -4.511563165428700728 4.725000000000003197 
	3.105388781397749653 -4.447662440876162471 4.725000000000003197 
	3.105388781397749653 -4.383761716323625102 4.725000000000003197 
	3.105388781397749653 -4.319860991771086844 4.725000000000003197 
	3.105388781397749653 -4.272328085749955484 4.725000000000003197 
	3.105388781397749653 -4.224795179728823236 4.725000000000003197 
	3.105388781397749653 -4.177262273707691875 4.725000000000003197 
	3.105388781397749653 -4.107400365915007789 4.725000000000003197 
	3.105388781397749653 -4.037538458122323703 4.725000000000003197 
	3.105388781397749653 -3.967676550329640062 4.725000000000003197 
	3.105388781397749653 -3.899500689040360513 4.725000000000003197 
	3.105388781397749653 -3.831324827751080964 4.725000000000003197 
	3.105388781397749653 -3.763148966461801415 4.725000000000003197 
	3.105388781397749653 -3.724960613825280653 4.725000000000003197 
	3.105388781397749653 -3.686772261188759892 4.725000000000003197 
	3.105388781397749653 -3.648583908552239574 4.725000000000003197 
	3.105388781397749653 -3.61290109373220103 4.725000000000003197 
	3.105388781397749653 -3.577218278912162042 4.725000000000003197 
	3.105388781397749653 -3.541535464092123497 4.725000000000003197 
	3.105388781397749653 -3.411368052417394825 4.725000000000003197 
	3.105388781397749653 -3.281200640742665708 4.725000000000003197 
	3.105388781397749653 -3.151033229067936592 4.725000000000003197 
	3.105388781397749653 -3.102029022412008175 4.725000000000003197 
	3.105388781397749653 -3.053024815756080201 4.725000000000003197 
	3.105388781397749653 -3.004020609100151784 4.725000000000003197 
	3.105388781397749653 -2.675012600244469407 4.725000000000003197 
	3.105388781397749653 -2.346004591388788807 4.725000000000003197 
	3.105388781397749653 -2.016996582533108207 4.725000000000003197 
	3.105388781397749653 -1.460032225417789986 4.725000000000003197 
	3.105388781397749653 -0.9030678683024693232 4.725000000000003197 
	3.105388781397749653 -0.3461035111871436087 4.725000000000003197 
	0.0003284545432136787876 
	
	0 
	6 0.2750002020968914662 0.3631983588517269657 0.4241349321478729562 0.4857609837772574601 0.736218857553630146 0.8710142756266218145 
	0 
	0 
	0 
	0 
	F } I I I I #
coedge $-1 -1 $-1 $11 $12 $-1 $13 forward $8 0 $14 #
coedge $-1 -1 $-1 $15 $10 $-1 $16 forward $8 0 $17 #
coedge $-1 -1 $-1 $10 $15 $-1 $18 reversed $8 0 $19 #
edge $20 -1 $-1 $21 9.999816459327348639e-07 $22 78.3381519259636292 $10 $23 forward @7 unknown #
pcurve $-1 -1 $-1 0 forward { exp_par_cur nubs 3 open 9 
	9.999816459327348639e-07 3 0.5398554778258014553 3 0.778321854556624726 3 2.356631196870402345 3 5.054033750789352908 3 
	9.604962170226439611 3 21.06034038223540605 3 49.69924615077480468 3 78.3381519259636292 3 
	0 0 
	0.05963023349822313413 6.413108698481814016e-20 
	0.2393065133474145401 3.518184548354679196e-16 
	0.2750002020968914107 2.018741692709222067e-16 
	0.290766941056316397 1.356402637324165103e-16 
	0.2979314945842405082 1.65819141083620343e-16 
	0.3031830879556087766 1.658303453453484507e-16 
	0.3379411909372282419 1.659045016738070627e-16 
	0.3492757263046750715 0 
	0.3631983588517269101 0 
	0.3869927720145089345 0 
	0.4038695182136931017 1.44268441453805109e-16 
	0.4241349321478729562 1.525477464829041519e-16 
	0.4583257680951153268 1.665161934599315676e-16 
	0.4687002695971619337 3.188746056619826884e-16 
	0.4857609837772575156 2.940676925607986294e-16 
	0.5287053932444037985 2.316249236012171412e-16 
	0.7078172178673904913 7.870211439255897468e-17 
	0.736218857553629924 5.621605411302018069e-17 
	0.8072240978514597654 0 
	0.8280190237654120322 3.081487911019577365e-33 
	0.8710142756266217035 1.591407491037227923e-17 
	0.914009527497814056 3.182814982443950282e-17 
	0.9570047600441974334 0 
	1 0 
	4.962053456604426558e-11 
	spline forward { ref 0 } I I I I 
	} 0 0 #
coedge $-1 -1 $-1 $12 $11 $-1 $24 reversed $8 0 $25 #
edge $26 -1 $-1 $22 0 $27 1 $11 $28 forward @7 unknown #
pcurve $-1 -1 $-1 0 forward { exp_par_cur nubs 1 open 2 
	0 1 1 1 
	1 0 
	1 1 
	7.243164889054749639e-15 
	spline forward { ref 0 } I I I I 
	} 0 0 #
edge $29 -1 $-1 $21 0 $30 1 $12 $31 forward @7 unknown #
pcurve $-1 -1 $-1 0 forward { exp_par_cur nubs 1 open 2 
	-1 1 -0 1 
	0 1 
	0 0 
	7.24288710272738104e-15 
	spline forward { ref 0 } I I I I 
	} 0 0 #
ATTRIB_CUSTOM-attrib $-1 -1 $-1 $-1 $13 @22 generic_tag_attrib_def 3 3 -1 @23 generic_tag_attrib_def  1 1 @1 9 0 2 650 740 0 #
vertex $-1 -1 $-1 $13 0 $32 #
vertex $-1 -1 $-1 $13 1 $33 #
intcurve-curve $-1 -1 $-1 forward { ref 1 } F 9.999816459327348639e-07 F 78.3381519259636292 #
edge $34 -1 $-1 $30 -12.95409301659760004 $27 -0 $15 $35 forward @7 unknown #
pcurve $-1 -1 $-1 0 forward { exp_par_cur nubs 1 open 2 
	0 1 12.95409301659760004 1 
	1 1 
	0 1 
	2.174260771425906607e-14 
	spline forward { ref 0 } I I I I 
	} 0 0 #
ATTRIB_CUSTOM-attrib $-1 -1 $-1 $-1 $16 @22 generic_tag_attrib_def 3 3 -1 @23 generic_tag_attrib_def  1 2 @2 10 0 2 650 740 0 #
vertex $-1 -1 $-1 $24 1 $36 #
straight-curve $-1 -1 $-1 47.40626955116334784 -0.3788240146851743484 6.264448049142885111 -44.30088076976559819 0.03272050349803073965 -1.539448049142882136 F 0 F 1 #
ATTRIB_CUSTOM-attrib $-1 -1 $-1 $-1 $18 @22 generic_tag_attrib_def 3 3 -1 @23 generic_tag_attrib_def  1 2 @2 10 0 2 650 740 0 #
vertex $-1 -1 $-1 $24 0 $37 #
straight-curve $-1 -1 $-1 46.06906530978008618 -8.404100040706053321 6.264448049142885111 -42.96367652838233653 -4.896096487078690274 -1.539448049142881914 F 0 F 1 #
point $-1 -1 $-1 46.06906530978008618 -8.404100040706053321 6.264448049142885111 #
point $-1 -1 $-1 47.40626955116334784 -0.3788240146851743484 6.264448049142885111 #
ATTRIB_CUSTOM-attrib $-1 -1 $-1 $-1 $24 @22 generic_tag_attrib_def 3 3 -1 @23 generic_tag_attrib_def  1 1 @1 8 0 2 650 740 0 #
straight-curve $-1 -1 $-1 3.105388781397749653 -0.3461035111871436643 4.725000000000003197 -0 1 -0 F -12.95409301659760004 F -0 #
point $-1 -1 $-1 3.105388781397749653 -0.3461035111871436087 4.725000000000003197 #
point $-1 -1 $-1 3.105388781397749653 -13.30019652778474359 4.725000000000003197 #
End-of-ASM-data 