22700 0 2 4           
16 Autodesk Neutron 20 ASM 227.1.1.65535 NT 24 Thu Aug 26 00:05:31 2021 
10 9.999999999999999547e-07 1.000000000000000036e-10 
asmheader $-1 -1 @13 227.1.1.65535 #
body $2 4 $-1 $3 $-1 $-1 #
ATTRIB_CUSTOM-attrib $-1 -1 $4 $-1 $1 @20 Timestamp_attrib_def 1 1406915265000 #
lump $-1 -1 $-1 $-1 $5 $1 #
ATTRIB_CUSTOM-attrib $-1 -1 $-1 $2 $1 @22 generic_tag_attrib_def 3 3 -1 @23 generic_tag_attrib_def  2 3 @3 656 11 0 0 3 @3 740 5 0 0 #
shell $-1 -1 $-1 $-1 $-1 $6 $-1 $3 #
face $7 -1 $-1 $-1 $8 $5 $-1 $9 forward double out #
ATTRIB_CUSTOM-attrib $-1 -1 $-1 $-1 $6 @22 generic_tag_attrib_def 3 3 -1 @23 generic_tag_attrib_def  1 1 @1 7 0 2 656 740 0 #
loop $-1 -1 $-1 $-1 $10 $6 #
spline-surface $-1 -1 $-1 forward { loft_spl_sur 22020 2 
	0 
	1 1 intcurve forward { exact_int_cur 22020 full nubs 3 open 7 
	0 3 0.4083634549129150915 2 2.450180732525830685 2 2.722413360689534656 2 2.875240260013076199 2 
	3.013832373777742379 2 3.089432129980090647 3 
	47.38800805225639579 -0.3737021342792559153 -9.694049254302022689 
	47.35292761981313703 -0.5052242196547218622 -9.694049426015164173 
	47.00414626884199976 -1.806750014794654913 -9.694049254317457454 
	46.83963394738844954 -2.420913802220221456 -9.694049254302580465 
	46.70254033945034422 -2.932716956742815295 -9.694049254281951633 
	46.547168264981444 -3.512758115048745466 -9.694049254297388174 
	46.35975755889566585 -4.207710468727728248 -9.69404781015049366 
	46.25349048272389041 -4.614441994672170644 -9.694050888428662915 
	46.25326617182989253 -4.629872030836943431 -9.694055375456974488 
	46.08542544945918706 -5.228222585924878985 -9.694046692362798368 
	46.05121212146839582 -5.372691548287070518 -9.694051840423606237 
	46.05041291470557496 -5.792474875130730005 -9.694180000463720859 
	46.05128591771172353 -8.215794160658015599 -9.694926139170798152 
	46.05074518133626071 -8.410510223131067775 -9.694985390897992161 
	0 
	
	null_surface 
	null_surface 
	nullbs 
	nullbs 
	I I 
	0 
	5 0.4083634549129150915 2.450180732525830685 2.722413360689534656 2.875240260013076199 3.013832373777742379 
	0 
	
	0 F 1 F 0 UNEXTENDED UNEXTENDED } F 0 F 3.089432129980090647 null_surface nullbs F -1 213 26 1 0 0.03846153846153846367 0 0.1077654139885146634 2.801900763701381081 1.660864744133049742 0.03846153846153846367 0.07692307692307692735 0.1077654139885146634 0.1716448272244011919 1.660864744133049742 1.530681223523062906 0.07692307692307692735 0.115384615384615391 0.1716448272244011919 0.2305171819752882267 1.530681223523062906 1.530681223523062906 0.115384615384615391 0.1538461538461538547 0.2305171819752882267 0.2941725309153006562 1.530681223523062906 1.655039072440323 0.1538461538461538547 0.1923076923076923184 0.2941725309153006562 0.3977544199537398351 1.655039072440323 2.693129114999418317 0.1923076923076923184 0.230769230769230782 0.3977544199537398351 0.8001862753662067895 2.693129114999418317 10.46322824072414015 0.230769230769230782 0.269230769230769218 0.8001862753662067895 1.205792748235781531 10.46322824072414015 10.54576829460892284 0.269230769230769218 0.3076923076923077094 1.205792748235781531 1.611399221105355828 10.54576829460892284 10.54576829460892284 0.3076923076923077094 0.3461538461538461453 1.611399221105355828 2.017005693974930125 10.54576829460892284 10.54576829460892284 0.3461538461538461453 0.3846153846153846367 2.017005693974930125 2.422612166844504422 10.54576829460892284 3.364972631405295456 0.3846153846153846367 0.4230769230769230727 2.422612166844504422 2.552034191129323393 3.364972631405295456 1.699402500337978683 0.4230769230769230727 0.4615384615384615641 2.552034191129323393 2.617395825757707239 1.699402500337978683 1.699402500337978683 0.4615384615384615641 0.5 2.617395825757707239 2.684962245450388529 1.699402500337978683 1.756726912009714647 0.5 0.5384615384615384359 2.684962245450388529 2.799406592467744925 1.756726912009714647 1.994843001466168442 0.5384615384615384359 0.5769230769230768718 2.799406592467744925 2.876131323293366737 1.994843001466168442 1.531534320002879257 0.5769230769230768718 0.6153846153846154188 2.876131323293366737 2.93503648944732376 1.531534320002879257 1.531534320002879257 0.6153846153846154188 0.6538461538461538547 2.93503648944732376 3.000398603355974192 1.531534320002879257 0.6745908260708426418 0.6538461538461538547 0.6923076923076922906 3.000398603355974192 3.026344404358698892 0.6745908260708426418 0.2220839647410476625 0.6923076923076922906 0.7307692307692307265 3.026344404358698892 3.034886095310277643 0.2220839647410476625 0.18035332355944661 0.7307692307692307265 0.7692307692307692735 3.034886095310277643 3.041822761601025604 0.18035332355944661 0.1647321371459798955 0.7692307692307692735 0.8076923076923077094 3.041822761601025604 3.048158613029717134 0.1647321371459798955 0.1598162925935567857 0.8076923076923077094 0.8461538461538461453 3.048158613029717134 3.054305393514084699 0.1598162925935567857 0.1598162925935567857 0.8461538461538461453 0.8846153846153845812 3.054305393514084699 3.060561709556622656 0.1598162925935567857 0.1626642171059869968 0.8846153846153845812 0.9230769230769231282 3.060561709556622656 3.067288553586849265 0.1626642171059869968 0.1748979447858914349 0.9230769230769231282 0.9615384615384615641 3.067288553586849265 3.07523195724190046 0.1748979447858914349 0.2065284950313312218 0.9615384615384615641 1 3.07523195724190046 3.089432129980091535 0.2065284950313312218 0.369204491192968165 F null_curve 0 -1 
	1 
	1 1 straight -2.800000000000000266 16.81014725958284828 -4.724999999999999645 0 -1 0 F 0 F 20.37479622160869752 null_surface nullbs F -1 213 26 1 0 0.03846153846153846367 0 0.7836460085234114858 20.37479622160869752 20.37479622160869752 0.03846153846153846367 0.07692307692307692735 0.7836460085234114858 1.567292017046822972 20.37479622160869752 20.37479622160869752 0.07692307692307692735 0.115384615384615391 1.567292017046822972 2.350938025570234569 20.37479622160869752 20.37479622160869397 0.115384615384615391 0.1538461538461538547 2.350938025570234569 3.134584034093645943 20.37479622160869397 20.37479622160869397 0.1538461538461538547 0.1923076923076923184 3.134584034093645943 3.918230042617057318 20.37479622160869397 20.37479622160869397 0.1923076923076923184 0.230769230769230782 3.918230042617057318 4.701876051140469137 20.37479622160869397 20.37479622160870463 0.230769230769230782 0.269230769230769218 4.701876051140469137 5.4855220596638814 20.37479622160870463 20.37479622160865844 0.269230769230769218 0.3076923076923077094 5.4855220596638814 6.269168068187291887 20.37479622160865844 20.37479622160865844 0.3076923076923077094 0.3461538461538461453 6.269168068187291887 7.052814076710702373 20.37479622160865844 20.37479622160868686 0.3461538461538461453 0.3846153846153846367 7.052814076710702373 7.836460085234114636 20.37479622160868686 20.37479622160870463 0.3846153846153846367 0.4230769230769230727 7.836460085234114636 8.620106093757526011 20.37479622160870463 20.37479622160870463 0.4230769230769230727 0.4615384615384615641 8.620106093757526011 9.403752102280938274 20.37479622160870463 20.37479622160870463 0.4615384615384615641 0.5 9.403752102280938274 10.18739811080435054 20.37479622160870463 20.37479622160873305 0.5 0.5384615384615384359 10.18739811080435054 10.9710441193277628 20.37479622160873305 20.37479622160873305 0.5384615384615384359 0.5769230769230768718 10.9710441193277628 11.75469012785117506 20.37479622160873305 20.37479622160871884 0.5769230769230768718 0.6153846153846154188 11.75469012785117506 12.5383361363745891 20.37479622160871884 20.37479622160868686 0.6153846153846154188 0.6538461538461538547 12.5383361363745891 13.32198214489799959 20.37479622160868686 20.37479622160868686 0.6538461538461538547 0.6923076923076922906 13.32198214489799959 14.10562815342141185 20.37479622160868686 20.37479622160873305 0.6923076923076922906 0.7307692307692307265 14.10562815342141185 14.88927416194482412 20.37479622160873305 20.37479622160867265 0.7307692307692307265 0.7692307692307692735 14.88927416194482412 15.67292017046823638 20.37479622160867265 20.37479622160867265 0.7692307692307692735 0.8076923076923077094 15.67292017046823638 16.45656617899164686 20.37479622160867265 20.37479622160868686 0.8076923076923077094 0.8461538461538461453 16.45656617899164686 17.24021218751505913 20.37479622160868686 20.37479622160873305 0.8461538461538461453 0.8846153846153845812 17.24021218751505913 18.02385819603847139 20.37479622160873305 20.37479622160867265 0.8846153846153845812 0.9230769230769231282 18.02385819603847139 18.80750420456188365 20.37479622160867265 20.37479622160867265 0.9230769230769231282 0.9615384615384615641 18.80750420456188365 19.59115021308529592 20.37479622160867265 20.37479622160845594 0.9615384615384615641 1 19.59115021308529592 20.37479622160869752 20.37479622160845594 20.37479622160845594 F null_curve 0 -1 
	0 
	F 1 F 0 F 1 F 0 F F F F 0 0 full nubs 3 3 open open none none 52 2 
	0 3 0.01280123103686020732 3 0.03643524067303617608 3 0.04684595556933848076 3 0.06606652392485172498 3 
	0.09912054896554269023 3 0.1237079676040829662 3 0.1419974544233922886 3 0.1488829089330352407 3 0.1607239732329363568 3 
	0.1781274819079407545 3 0.1867229496648078191 3 0.1951109744987075678 3 0.220662498820024755 3 0.2646040050815907652 3 
	0.3291874214069553384 3 0.3453308666688009176 3 0.3573392573695620134 3 0.374988695497795399 3 0.3922121822831101112 3 
	0.4079817408796895251 3 0.4217069880052926045 3 0.4277529208328407773 3 0.4713305873714273009 3 0.49285328343500312 3 
	0.5034831882151246107 3 0.5138565509918524565 3 0.5298629961678383848 3 0.5435664745642720952 3 0.5601566595331917142 3 
	0.5763464571631242706 3 0.5886080413295932123 3 0.6096945514983078684 3 0.6253798682639899464 3 0.6484335009010511186 3 
	0.6598195242432934871 3 0.6709307574251979212 3 0.6818577296406463928 3 0.6872043141114434484 3 0.6975909116009960664 3 
	0.717431971890854725 3 0.7898102154750126225 3 0.8436491707349293989 3 0.8836975742321617755 3 0.8987746216741322458 3 
	0.9118971324151984303 3 0.9344641965419738794 3 0.9512508315265104653 3 0.9575705064686187429 3 0.9684385874702688968 3 
	0.9844120453624323197 3 1 3 
	0 3 1 3 
	47.38800805225639579 -0.3737021342792559153 -9.694049254302022689 
	47.38492683334806799 -0.385254110925415505 -9.694049269384098722 
	47.37876640031402786 -0.4082987241422088021 -9.69404928360334317 
	47.36985372997446575 -0.4416077537547148935 -9.694049294642072212 
	47.35339889558527204 -0.5031038649151869935 -9.694049315022098767 
	47.32731139142337184 -0.6005237289459197658 -9.694049323930791218 
	47.31047250666073012 -0.6633980079932999541 -9.694049327219522283 
	47.30305502519507144 -0.6910939514049038168 -9.694049328668198129 
	47.29683392533011954 -0.7143212734875287184 -9.694049329427269157 
	47.28965384533550065 -0.741128005758504349 -9.694049329973573492 
	47.2763977702523519 -0.7906193841253477128 -9.694049330982176471 
	47.26214984793044493 -0.8438095351173724445 -9.694049330751518312 
	47.2480845419454738 -0.8963150839796671931 -9.694049329644011337 
	47.22389613254816254 -0.9866100063133086406 -9.694049327739406863 
	47.2010222953197669 -1.071990167368675806 -9.69404932363658034 
	47.17748419806564186 -1.159845977090343094 -9.69404931824450955 
	47.15997525473939334 -1.225198005195704987 -9.694049314233588177 
	47.14296331260183592 -1.288692752960332477 -9.694049309651957103 
	47.12507089317198705 -1.355472070148186825 -9.694049304313031357 
	47.11176151840033555 -1.405146233160780689 -9.694049300341641029 
	47.09814811936588796 -1.455954105402189835 -9.6940492959748088 
	47.08523274333953168 -1.504156155311657805 -9.694049291627804266 
	47.0803704836718353 -1.522302811103704467 -9.694049289991284013 
	47.07560584229805301 -1.540085046722795115 -9.694049288358536742 
	47.07098440753332369 -1.557332745509226068 -9.694049286752749239 
	47.0630368267119934 -1.58699398429447025 -9.694049283991240884 
	47.05568141744998911 -1.61444499859272228 -9.69404928138148847 
	47.04587843952555204 -1.651030306896764444 -9.694049277829265066 
	47.03147042627372088 -1.704801886403551237 -9.694049272608353363 
	47.01452232165863876 -1.768052548402611057 -9.694049266254060271 
	47.00168651645066831 -1.815956747106721281 -9.694049261662815553 
	46.99534700458217884 -1.839616286287525604 -9.694049259395232099 
	46.98997364839925694 -1.859670338792016597 -9.694049257559216315 
	46.98588791529657271 -1.87491934188334719 -9.694049256324474229 
	46.98190078723101237 -1.889800325704164452 -9.694049255119532305 
	46.97945038092603909 -1.898945662648211963 -9.694049254315226349 
	46.97672754863385336 -1.909110645904899428 -9.694049254314979436 
	46.96843328187685529 -1.940075124676986951 -9.694049254314228037 
	46.94436356934035359 -2.029933109951369552 -9.694049254311948971 
	46.92216843344276356 -2.112792852494550733 -9.694049254309708985 
	46.88399898058524684 -2.255288534944122958 -9.694049254305857843 
	46.85710058188660554 -2.35570668023260632 -9.694049254303008567 
	46.82593873427346409 -2.47204129969705555 -9.694049254300116658 
	46.78013833394382459 -2.643025132549798872 -9.694049254295865836 
	46.73447094203484653 -2.813512415859832583 -9.694049254292442797 
	46.68874111844279895 -2.984232779338243269 -9.694049254291410733 
	46.67731036816670809 -3.026906502713476055 -9.694049254291153161 
	46.66587961801219819 -3.069580226121274347 -9.694049254291043027 
	46.65444886799927104 -3.112253949567000078 -9.694049254291108753 
	46.6459460416241356 -3.143997033864107227 -9.694049254291156714 
	46.63600495192726925 -3.18110949943127963 -9.694049254291318363 
	46.62560361041825274 -3.21994019566915135 -9.694049254291659423 
	46.61031614701132497 -3.277011953892599472 -9.694049254292162132 
	46.59453066336379123 -3.335942942220405882 -9.694049254293114259 
	46.5836228395469405 -3.376664459678245578 -9.694049254293963358 
	46.57297826502841787 -3.416403204487980183 -9.694049254294792917 
	46.56987358493778117 -3.427993718794121847 -9.694049254295130424 
	46.56544675935199251 -3.444520118722668833 -9.694049254295570961 
	46.56139362618899469 -3.459651435355136861 -9.694049254295974194 
	46.54774491976500883 -3.510353292005381043 -9.694049176800836776 
	46.53150801646964396 -3.570701484125982983 -9.694049094379046494 
	46.51737600960854735 -3.623226343675209904 -9.694049022642134972 
	46.50191579375408679 -3.680716573512510248 -9.694048953011042968 
	46.49186106168821198 -3.718124541700011498 -9.694048913421921654 
	46.48743198044013525 -3.734602646670143411 -9.694048895983025105 
	46.48378458717351691 -3.748175404317344306 -9.694048882504803899 
	46.47971674057856717 -3.76331569794697085 -9.694048868375686467 
	46.45039665590326905 -3.872443385254690007 -9.694048766536319306 
	46.41771181775379773 -3.994249462525603978 -9.694048700660697904 
	46.38553049427656561 -4.11463495893365927 -9.694048775970259157 
	46.36963637008084049 -4.174092489716291432 -9.694048813165109024 
	46.35388501657482152 -4.233136295288780104 -9.694048887034394824 
	46.3395662539057227 -4.286992393537268242 -9.694049010254200738 
	46.33249432001360901 -4.31359153309298371 -9.694049071111576765 
	46.32673372097924158 -4.335282688353820468 -9.694049128138388483 
	46.3184779874136936 -4.366478059873909245 -9.694049243366871238 
	46.31042149762993176 -4.396920562645696862 -9.694049355814431834 
	46.30042044085146813 -4.434820100767003836 -9.694049528991000031 
	46.29169799649852735 -4.468204788004483952 -9.694049781657311016 
	46.27823897358176453 -4.519718475271161218 -9.694050171529864812 
	46.26828853189238089 -4.559796802617703371 -9.694051072755451415 
	46.25951744523606379 -4.594576722990326267 -9.694051698598912026 
	46.25200832030628817 -4.624352596534750504 -9.694052234397600998 
	46.24659706969546846 -4.645431838218622822 -9.694052504293111383 
	46.23985445191485866 -4.671158111567443427 -9.694052674784465751 
	46.23169146782286276 -4.70230375364974762 -9.694052881190680537 
	46.22111992824542881 -4.741789321412730018 -9.694052887181294764 
	46.20797947816919304 -4.789764615206729914 -9.694052554743313621 
	46.19515615956852628 -4.836582073795438141 -9.694052230328386699 
	46.17978339179829561 -4.891837432321556101 -9.694051573889094442 
	46.16524659854152901 -4.943660959958497969 -9.694050821840704657 
	46.15423694183657233 -4.982910279835657263 -9.69405025226566508 
	46.14444031387916567 -5.018249175259881234 -9.694049872748266239 
	46.13527041842672105 -5.052325925757410907 -9.694049824576900676 
	46.11950075187476017 -5.110928446942881287 -9.694049741735565107 
	46.10611983540297132 -5.163891211039628004 -9.694050666838680996 
	46.09497695643372595 -5.214595529775717608 -9.694053466586256107 
	46.08668826452046829 -5.252312216624338781 -9.69405554919391399 
	46.07911943386328346 -5.290070495661769456 -9.694058470932628069 
	46.07180744012283213 -5.337872646209684824 -9.694064775848303839 
	46.0610605728421092 -5.408130278519936773 -9.694074042553717518 
	46.05476414200958857 -5.491455692716519899 -9.694092436156388715 
	46.05276257406843854 -5.540932736493827448 -9.694105352014096511 
	46.05177401405892823 -5.565369092543326346 -9.694111731063317805 
	46.05154997896332247 -5.576190323469806032 -9.694114801265486747 
	46.05123061884222579 -5.592655429133912115 -9.694119497454336098 
	46.05091896615473246 -5.608723166121579062 -9.694124080305416058 
	46.05072852702735275 -5.62669951311007388 -9.694129389170493383 
	46.05069499747757789 -5.644310908066629828 -9.694134765937363341 
	46.05066202395855868 -5.661630247892835754 -9.694140053539669566 
	46.05064723298905704 -5.710517488771181149 -9.694155068699295441 
	46.05064128432333348 -5.761770873858418796 -9.694170821565208485 
	46.050638373631962 -5.7868492347602416 -9.694178529466958238 
	46.05063746875187292 -5.812252231837175209 -9.694186339492272708 
	46.05063733397176406 -5.834156957679553557 -9.694193074732432081 
	46.05063707213979285 -5.876710399355537184 -9.694206159016223623 
	46.05063851245584061 -5.896367007898578372 -9.694212204800036758 
	46.05064017714097702 -5.922580625701032275 -9.694220267029463045 
	46.05064335711576007 -5.972655346682272715 -9.694235667951687674 
	46.0506494695626003 -6.031316879960158417 -9.694253712564073311 
	46.05065690954930346 -6.089108867970072225 -9.694271491327430823 
	46.05068404989171427 -6.299928376821234188 -9.694336346513905411 
	46.05072011647015273 -6.483816497144242241 -9.694392930924072616 
	46.05075730093614794 -6.683981035822713856 -9.694454521387029899 
	46.05078496080604822 -6.83287453073049722 -9.69450033579223458 
	46.05081236156274826 -6.979552204060258447 -9.694545468566051483 
	46.05083748024688362 -7.126908690010672842 -9.694590807445560898 
	46.05085616491847134 -7.236520623949332709 -9.694624533020880008 
	46.05087391581059109 -7.348757564444175827 -9.694659064676867999 
	46.0508882408676925 -7.455870390179496709 -9.694692016807108459 
	46.05089363383087431 -7.496195222488144516 -9.694704422316132053 
	46.05089882232506682 -7.537832917811424949 -9.694717231277337532 
	46.05090352641900608 -7.5799905492254398 -9.694730199555522177 
	46.05090762069034582 -7.616683009946118688 -9.694741486670617192 
	46.05091131605900756 -7.653540350869286968 -9.694752824026148019 
	46.0509144213073327 -7.689516840693310762 -9.69476388985495241 
	46.05091976146970723 -7.751386384482235492 -9.694782919998891302 
	46.05092346244884283 -7.808257657690035991 -9.694800411363328152 
	46.05092510165232511 -7.872688481379200631 -9.694820224816385945 
	46.05092632098286742 -7.92061570456370756 -9.694834963162605845 
	46.05092603717868371 -7.969895838811478228 -9.694850115784461764 
	46.05092370336014795 -8.015565599130384911 -9.694864155913899495 
	46.05092282474602428 -8.032758922280935465 -9.69486944161018549 
	46.05092166685704314 -8.049456474178033005 -9.694874574543206336 
	46.05092024688474339 -8.065460720578437659 -9.694879493993694197 
	46.0509178049278205 -8.092983567535489087 -9.69488795407856685 
	46.05091499024186419 -8.118840454375952476 -9.694895901476295208 
	46.05090854136008716 -8.154431251166949224 -9.69490683774255757 
	46.05089906305922653 -8.206741138607355879 -9.694922911416339772 
	46.05088178064688265 -8.268738741538509629 -9.694941954967786657 
	46.05085324681527226 -8.316595481973267923 -9.694956637487347706 
	46.05082540161883742 -8.363297248368185777 -9.694970965659145179 
	46.05078634568978657 -8.395687175900523158 -9.694980880272932922 
	46.05074518133626071 -8.410510223131073104 -9.694985390897992161 
	30.65867203483760051 5.354247663674778224 -8.0376995028680156 
	30.65661788889871531 5.317566071048254628 -8.037699512922733547 
	30.65251093354268619 5.273222720707973821 -8.037699522402228069 
	30.64656915331631382 5.222036426103885631 -8.037699529761381356 
	30.63559926372351683 5.127534781970613409 -8.037699543348065134 
	30.61820759428225358 5.009083969257167368 -8.037699549287193435 
	30.60698167110715673 4.913663546532622384 -8.037699551479681404 
	30.60203668346338546 4.871631118198950894 -8.037699552445465301 
	30.59788928355341753 4.832577770751264268 -8.037699552951512061 
	30.59310256355700375 4.79113814984467723 -8.037699553315714951 
	30.58426518016823792 4.714631101654883416 -8.037699553988117529 
	30.57476656528696779 4.635658205048302172 -8.037699553834345423 
	30.56538969463031918 4.557141709861541656 -8.037699553096008032 
	30.54926408836544738 4.422115203360443836 -8.037699551826271716 
	30.53401486354650984 4.290365204378195685 -8.037699549091053441 
	30.51832279871042886 4.156964772951747378 -8.037699545496339582 
	30.50665016982626199 4.057734127061991103 -8.037699542822391408 
	30.49530887506789156 3.959741668066056874 -8.037699539767972468 
	30.4833805954479935 3.859559496121304889 -8.037699536208688045 
	30.47450767893355916 3.785038435563883752 -8.037699533561093901 
	30.46543207957726196 3.709761568853918945 -8.037699530649872415 
	30.45682182889302325 3.636221917031915218 -8.0376995277518688 
	30.45358032244789115 3.608536398445314042 -8.037699526660855298 
	30.4504038948653708 3.581093826640683542 -8.037699525572357118 
	30.44732293835555126 3.554007612724492393 -8.037699524501832116 
	30.44202455114132988 3.507426867739056764 -8.037699522660826545 
	30.43712094496666509 3.462319605744950568 -8.037699520920991603 
	30.43058562635037134 3.411122814413650062 -8.037699518552843259 
	30.4209802841824839 3.335875878876434886 -8.037699515072235457 
	30.40968154777242916 3.254309555011038135 -8.037699510836040062 
	30.40112434430044885 3.182974206675607931 -8.03769950777521025 
	30.39689800305478684 3.147742191224452313 -8.037699506263487947 
	30.39331576559950321 3.114913833557505285 -8.037699505039478609 
	30.39059194353104942 3.085288842165998968 -8.037699504216316626 
	30.38793385815401038 3.056378819986287798 -8.037699503413021418 
	30.38630025395069367 3.031292562391088019 -8.037699502876817448 
	30.38448503242257104 3.00552654058746338 -8.037699502876652247 
	30.37895552125123899 2.927038321272925181 -8.03769950287615309 
	30.36290904622690334 2.809287764290190559 -8.037699502874632529 
	30.34811228896184332 2.696202702461590217 -8.037699502873138613 
	30.32266598705683336 2.501727887967436725 -8.037699502870571777 
	30.30473372125774034 2.335304764914008846 -8.037699502868671075 
	30.28395915618231271 2.15827065907660387 -8.037699502866743728 
	30.25342555596255423 1.898073220849817222 -8.037699502863910439 
	30.22298062802323315 1.638206815651503723 -8.03769950286162782 
	30.1924940789618681 1.378185023674272536 -8.03769950286094037 
	30.18487357877780752 1.313189273921362199 -8.037699502860768064 
	30.17725307867480211 1.248193524146741007 -8.037699502860695233 
	30.16963257866618164 1.183197774346835374 -8.037699502860739642 
	30.16396402774942231 1.134850327762378708 -8.037699502860771616 
	30.15733663461818281 1.082923293664545206 -8.037699502860878198 
	30.15040240694550278 1.029850772452912011 -8.037699502861105572 
	30.14021076467421878 0.9518469663829859373 -8.037699502861441303 
	30.12968710890919866 0.8726036735768203378 -8.037699502862075462 
	30.12241522636463031 0.8055000280172999183 -8.03769950286264212 
	30.11531884335228071 0.740015861091214866 -8.037699502863194567 
	30.11324905662518958 0.693297181167525145 -8.037699502863420165 
	30.11029783956799832 0.6432879108288984682 -8.037699502863713263 
	30.10759575079266526 0.5975001949728060424 -8.037699502863981493 
	30.09849661317667824 0.5279987857715301436 -8.037699451200557732 
	30.08767201097976596 0.4520664862566818876 -8.037699396252698136 
	30.07825067307236822 0.3859777895265991132 -8.037699348428089863 
	30.06794386250272666 0.3165788459378010566 -8.037699302007361268 
	30.06124070779214463 0.2605680767822020627 -8.037699275614613725 
	30.05828798696009585 0.2358954902097999129 -8.037699263988683285 
	30.05585639144901222 0.2131598018526844329 -8.037699255003202481 
	30.05314449371904573 0.1893790895072857694 -8.037699245583791452 
	30.0335977706021815 0.01797328957581553061 -8.037699177690880603 
	30.01180787850253395 -0.1618847703311183106 -8.037699133773799076 
	29.99035366285104587 -0.3407957763294793274 -8.037699183980173245 
	29.97975758005389579 -0.4291586353440094981 -8.037699208776739823 
	29.969256677716551 -0.5172456775517770833 -8.037699258022930948 
	29.95971083593715178 -0.6018742482102110714 -8.037699340169467632 
	29.95499621334240814 -0.6436716905529191735 -8.037699380741051058 
	29.95115581398616555 -0.6821971433657076922 -8.037699418758926129 
	29.94565199160913238 -0.727058740351331334 -8.037699495577914632 
	29.94028099841995783 -0.7708376480557066479 -8.03769957054295503 
	29.9336136272343154 -0.8195879126597617192 -8.03769968599399931 
	29.9277986643323537 -0.8653282766745986621 -8.037699854438207225 
	29.91882598238784396 -0.9359071858182793635 -8.037700114353242498 
	29.91219235459492154 -0.9988625216818700636 -8.037700715170300825 
	29.90634496349071014 -1.058285586229514852 -8.037701132399273973 
	29.90133888020419306 -1.109159010798525857 -8.037701489598399363 
	29.89773137979697992 -1.154234680793835288 -8.037701669528740211 
	29.89323630127657339 -1.202408371899110762 -8.037701783189643123 
	29.88779431188190827 -1.260730093067372604 -8.037701920793786314 
	29.88074661883028682 -1.324611764689420657 -8.037701924787530317 
	29.87198631877946298 -1.39415325366547993 -8.037701703162209554 
	29.86343743971235298 -1.462016429122280803 -8.037701486885591606 
	29.85318892786553491 -1.535504871204021793 -8.037701049259394992 
	29.84349773236102266 -1.606705426026311834 -8.037700547893802394 
	29.83615796122438368 -1.660630225805074689 -8.03770016817710875 
	29.82962687591944473 -1.711948075948547476 -8.0376999151655113 
	29.82351361228448283 -1.762424496140890362 -8.037699883051267591 
	29.81300050124984224 -1.849229882232586553 -8.037699827823709953 
	29.80407989026864968 -1.932275430265133265 -8.037700444559121138 
	29.79665130428915276 -2.013815348057242272 -8.037702311057504545 
	29.79112550968031314 -2.074469265153229269 -8.037703699462609208 
	29.78607962257552444 -2.135150910375087641 -8.037705647288419186 
	29.78120496008189022 -2.202528469937270916 -8.037709850565535774 
	29.77404038189474278 -2.301557232271655096 -8.037716028369144894 
	29.76984276133972784 -2.409297849196927466 -8.037728290770925099 
	29.76850838271229449 -2.494472885842682341 -8.037736901342730889 
	29.76784934270595429 -2.536540223805978211 -8.037741154042212344 
	29.76769998597555045 -2.569530811687262162 -8.037743200843658897 
	29.76748707922815385 -2.606283982726962378 -8.037746331636224539 
	29.76727931076982614 -2.642150153146749503 -8.037749386870277846 
	29.767152351351573 -2.679288730233754912 -8.037752926113663321 
	29.76712999831838857 -2.716184005966134407 -8.037756510624909367 
	29.76710801597237221 -2.752467436095709985 -8.037760035693112926 
	29.76709815532604253 -2.80979613359337721 -8.037770045799529584 
	29.7670941895488923 -2.868702260563640749 -8.037780547710138279 
	29.76709224908798035 -2.897525119950868255 -8.03778568631130419 
	29.76709164583458289 -2.926564403454835706 -8.037790892994847169 
	29.76709155598117817 -2.953271506135766611 -8.03779538315495401 
	29.76709138142653188 -3.005154334729256416 -8.03780410601081563 
	29.76709234163723039 -3.041772607900785186 -8.037808136533358905 
	29.76709345142732133 -3.082762220578588508 -8.037813511352975837 
	29.76709557141050766 -3.161062874591251237 -8.037823778634459515 
	29.767099646375069 -3.245088070135011105 -8.037835808376048163 
	29.76710460636620326 -3.32853356883345608 -8.037847660884953171 
	29.76712269992781046 -3.632934570723695078 -8.03789089767593623 
	29.7671467443134361 -3.919381313595163618 -8.037928620616048292 
	29.76717153395743409 -4.216679002036941348 -8.037969680924685889 
	29.76718997387070331 -4.437825525553809491 -8.038000223861489602 
	29.76720824104183549 -4.657494834685329543 -8.038030312377367537 
	29.76722498683125906 -4.87761668556395378 -8.03806053829704048 
	29.76723744327898302 -5.041355537107159002 -8.038083022013919887 
	29.76724927720706049 -5.206844393021147432 -8.038106043117911881 
	29.76725882724512928 -5.368917172428790074 -8.038128011204738854 
	29.76726242255391597 -5.429932812773851758 -8.038136281544087325 
	29.76726588155004549 -5.49182369512867119 -8.038144820851558237 
	29.76726901761267285 -5.554061201543978754 -8.038153466370347999 
	29.76727174712689816 -5.608230451164997632 -8.038160991113745268 
	29.76727421070600599 -5.662509620921009734 -8.038168549350764636 
	29.76727628087155608 -5.716201556610926104 -8.038175926569968155 
	29.76727984097980695 -5.808536733903879146 -8.038188613332593491 
	29.7672823082992295 -5.897539730809413072 -8.038200274242219834 
	29.76728340110155102 -5.991582428035859387 -8.038213483210924437 
	29.7672842139885816 -6.061536606498471258 -8.038223308775071629 
	29.76728402478579127 -6.132392725669924438 -8.038233410522973799 
	29.76728246890676743 -6.200841928888801924 -8.038242770609265619 
	29.76728188316401713 -6.226611043114975708 -8.038246294406789616 
	29.76728111123803089 -6.252049643172181703 -8.038249716362138031 
	29.76728016458983106 -6.277026039564924886 -8.038252995995796013 
	29.76727853661854795 -6.319978485950576541 -8.038258636052377781 
	29.76727666016124374 -6.361820292258503429 -8.038263934317528836 
	29.7672723609067269 -6.410151371866785297 -8.038271225161704336 
	29.76726604203948767 -6.481186402327864471 -8.038281940944225212 
	29.76725452043125841 -6.55867990978277593 -8.03829463664519217 
	29.7672354978768503 -6.626746175573423159 -8.038304424991565611 
	29.76721693441256278 -6.693169730864715561 -8.038313977106097852 
	29.76719089712652533 -6.750052060247620389 -8.038320586848621829 
	29.76716345422417476 -6.79522313609600026 -8.038323593931995248 
	13.92933601741879457 11.08219746162881414 -6.381349751434006734 
	13.92830894444935197 11.0203862530219272 -6.381349756461365708 
	13.92625546677133919 10.95474416555815722 -6.381349761201113857 
	13.92328457665815122 10.88568060596248799 -6.3813497648806905 
	13.91779963186175273 10.75817342885641636 -6.38134977167403239 
	13.90910379714111933 10.6186916674602525 -6.381349774643597428 
	13.90349083555357268 10.49072510105854406 -6.381349775739840524 
	13.90101834173168704 10.43435618780280372 -6.381349776222732473 
	13.89894464177670308 10.37947681499005803 -6.381349776475755853 
	13.89655128177849619 10.32340430544785903 -6.381349776657857298 
	13.89213259008411327 10.21988158743511477 -6.381349776994057699 
	13.88738328264347821 10.11512594521397723 -6.381349776917172534 
	13.88269484731515391 10.01059850370275051 -6.38134977654800295 
	13.87463204418271623 9.830840413034197312 -6.381349775913134792 
	13.86700743177325457 9.652720576125066287 -6.381349774545526543 
	13.8591613993552123 9.473775522993838294 -6.381349772748169613 
	13.85332508491312886 9.340666259319686304 -6.381349771411195526 
	13.84765443753394187 9.208176089092447114 -6.381349769883985168 
	13.84169029772399284 9.074591062390796381 -6.381349768104342957 
	13.83725383946677745 8.975223104288549081 -6.381349766780546773 
	13.83271603978862707 8.875477243110026393 -6.38134976532493603 
	13.82841091444650772 8.776599989375487354 -6.381349763875934222 
	13.82679016122394167 8.739375607994331219 -6.381349763330427471 
	13.82520194743268149 8.702272700004161976 -6.381349762786178381 
	13.82366146917777172 8.665347970958210411 -6.38134976225091588 
	13.82101227557066103 8.601847719772584 -6.381349761330413095 
	13.81856047248332509 8.539084210082624082 -6.381349760460495624 
	13.81529281317517999 8.473275935724064567 -6.381349759276421452 
	13.81049014209123627 8.376553644156421896 -6.381349757536117551 
	13.80484077388620712 8.27667165842468755 -6.381349755418019853 
	13.80056217215021874 8.181905160457937143 -6.381349753887604948 
	13.79844900152738951 8.135100668736429341 -6.381349753131743796 
	13.79665788279975125 8.089498005907028499 -6.381349752519737351 
	13.79529597176552258 8.045497026215345571 -6.381349752108157247 
	13.79396692907700306 8.002557965676739826 -6.381349751706509643 
	13.7931501269753447 7.961530787430389111 -6.381349751438407658 
	13.79224251621128161 7.920163727079827076 -6.381349751438325946 
	13.78947776062561559 7.794151767222838423 -6.381349751438075479 
	13.78145452311344954 7.648508638531753334 -6.381349751437316087 
	13.77405614448091953 7.505198257417733387 -6.381349751436569129 
	13.76133299352841455 7.258744310878998185 -6.381349751435284823 
	13.75236686062886449 7.026316210060625345 -6.38134975143433536 
	13.74197957809115067 6.788582617850264178 -6.381349751433371686 
	13.72671277798127143 6.439171574249434649 -6.381349751431955042 
	13.71149031401161444 6.089926047162841805 -6.381349751430813733 
	13.69624703948093014 5.740602826686789228 -6.381349751430470008 
	13.69243678938889985 5.653285050556201341 -6.381349751430383854 
	13.68862653933739715 5.565967274414758137 -6.381349751430346551 
	13.68481628933308869 5.478649498260672601 -6.381349751430368755 
	13.6819820138747108 5.413697689388866863 -6.381349751430384742 
	13.6786683173090875 5.346956086760369153 -6.381349751430438921 
	13.67520120347274926 5.279641740574975373 -6.381349751430552608 
	13.67010538233710726 5.180705886658571124 -6.381349751430720474 
	13.66484355445459187 5.081150289374047446 -6.381349751431037554 
	13.66120761318230947 4.987664515712846303 -6.381349751431320882 
	13.65765942167613645 4.896434926670410803 -6.381349751431597106 
	13.65662452831259088 4.814588081129173247 -6.381349751431709905 
	13.65514891978399348 4.731095940380466658 -6.381349751431856454 
	13.65379787539632872 4.654651825300750723 -6.381349751431990569 
	13.64924830658833166 4.566350863548440664 -6.3813497256002778 
	13.64383600548987729 4.474834456639346314 -6.381349698126348002 
	13.63912533653617665 4.395181922728408352 -6.381349674214043866 
	13.63397193125135765 4.313874265388110807 -6.381349651003680457 
	13.63062035389606663 4.239260695264414736 -6.381349637807306685 
	13.62914399348004046 4.206393627089742182 -6.381349631994341465 
	13.62792819572450398 4.174495008022713449 -6.381349627501600175 
	13.62657224685952073 4.142073876961542389 -6.38134962279189466 
	13.61679888530108862 3.908389964406321582 -6.381349588845439236 
	13.60590393925126307 3.670479921863369022 -6.381349566886898472 
	13.59517683142551903 3.433043406274701947 -6.381349591990085557 
	13.58987879002694399 3.315775219028274101 -6.381349604388368846 
	13.58462833885826981 3.198644940185226826 -6.381349629011464408 
	13.57985541796857021 3.083243897116846988 -6.38134967008473275 
	13.57749810667119839 3.026248151987146251 -6.381349690370524463 
	13.57557790699307532 2.970888401622405528 -6.381349709379461999 
	13.57282599580456051 2.912360579171247021 -6.38134974778895625 
	13.57014049920997323 2.85524526653428401 -6.381349785271476449 
	13.56680681361715202 2.795644275447481508 -6.381349842997000366 
	13.56389933216617294 2.737548234655287516 -6.381349927219103435 
	13.55941299119391807 2.647904103634602713 -6.381350057176621959 
	13.55609617729745864 2.562071759253962355 -6.381350357585150235 
	13.55317248174535294 2.478005550531296119 -6.381350566199636809 
	13.5506694401020944 2.406034574937697901 -6.381350744799199504 
	13.54886568989848961 2.336962476630952246 -6.381350834764369928 
	13.54661815063828456 2.266341367769221904 -6.381350891594821384 
	13.543897155940952 2.180843567515001968 -6.38135096039689298 
	13.54037330941514128 2.092565792033889149 -6.381350962393764092 
	13.53599315938972936 2.001458107875770942 -6.381350851581103711 
	13.53171871985617258 1.912549215550876758 -6.381350743442794737 
	13.52659446393275999 1.820827689913513847 -6.381350524629697318 
	13.52174886618050564 1.73025010790587519 -6.381350273946901019 
	13.51807898061218793 1.66164982822550944 -6.381350084088554198 
	13.51481343795971846 1.59435302336278717 -6.381349957582754584 
	13.51175680614223751 1.527476933475631071 -6.38134994152563273 
	13.50650025062491721 1.412468682477709292 -6.381349913911853911 
	13.50203994513432093 1.299340350509361697 -6.381350222279559503 
	13.49832565214457247 1.186964833661233509 -6.381351155528751207 
	13.49556275484015266 1.103373686317880686 -6.381351849731304426 
	13.49303981128776009 1.019768674911592621 -6.381352823644209415 
	13.4906024800409412 0.9328157063351425471 -6.381354925282767709 
	13.48702019094736571 0.8050158139766254717 -6.381358014184572269 
	13.48492138066986001 0.6728599943226650781 -6.38136414538546326 
	13.48425419135614334 0.5519869648084632097 -6.381368450671365267 
	13.48392467135297323 0.4922886449313711443 -6.381370577021105994 
	13.48384999298776954 0.4371287000952842061 -6.381371600421827495 
	13.48374353961407124 0.3800874636799891348 -6.381373165818111204 
	13.48363965538490561 0.3244228598280825548 -6.381374693435137857 
	13.48357617567578082 0.2681220526425659445 -6.381376463056830595 
	13.4835649991591886 0.2119428961343627904 -6.381378255312453618 
	13.48355400798618575 0.1566953757014179494 -6.381380017846555397 
	13.4835490776630138 0.09092522158442599423 -6.381385022899764614 
	13.48354709477444047 0.02436635273113729738 -6.381390273855068962 
	13.48354612454398271 -0.008201005141494244199 -6.381392843155651917 
	13.48354582291728931 -0.04087657507249584099 -6.381395446497423407 
	13.48354577799058518 -0.07238605459197922087 -6.381397691577476827 
	13.48354569071326026 -0.1335982701029755082 -6.381402053005407637 
	13.48354617081860951 -0.1871782079029911672 -6.381404068266678387 
	13.48354672571365498 -0.2429438154561442964 -6.381406755676486853 
	13.48354778570524992 -0.3494704025002297043 -6.381411889317228692 
	13.48354982318753059 -0.4588592603098625711 -6.381417904188023904 
	13.4835523031830995 -0.5679582696968390465 -6.381423830442476408 
	13.4835613499639031 -0.9659407646261545244 -6.381445448837967938 
	13.48357337215671592 -1.354946130046084107 -6.381464310308023968 
	13.48358576697871314 -1.749376968251167952 -6.381484840462342767 
	13.48359498693534597 -2.042776520377119986 -6.381500111930744623 
	13.48360412052091029 -2.335437465310400196 -6.381515156188683591 
	13.48361249341562385 -2.628324681117234718 -6.381530269148520063 
	13.48361872163948583 -2.84619045026498485 -6.381541511006959766 
	13.48362463860352811 -3.064931221598118594 -6.381553021558955763 
	13.48362941362256251 -3.281963954678082551 -6.381564005602369249 
	13.48363121127695585 -3.363670403059558112 -6.381568140772043485 
	13.48363294077501884 -3.445814472445918319 -6.381572410425778941 
	13.48363450880633252 -3.528131853862517708 -6.381576733185173822 
	13.48363587356344695 -3.599777892383876576 -6.381580495556872457 
	13.48363710535300086 -3.671478890972732945 -6.38158427467538214 
	13.48363814043577591 -3.742886272528540115 -6.3815879632849839 
	13.48363992048990134 -3.865687083325521467 -6.381594306666297456 
	13.48364115414961262 -3.986821803928789709 -6.381600137121108851 
	13.48364170055077338 -4.110476374692517254 -6.381606741605461153 
	13.48364210699428689 -4.202457508433232292 -6.381611654387534749 
	13.48364201239289173 -4.294889612528370648 -6.381616705261486722 
	13.48364123445337981 -4.386118258647218049 -6.381621385304632632 
	13.48364094158200643 -4.420463163949015062 -6.38162314720339463 
	13.48364055561901154 -4.454642812166329513 -6.381624858181068838 
	13.48364008229491162 -4.488591358551410337 -6.381626497997897829 
	13.48363926830927007 -4.546973404365662219 -6.381629318026188713 
	13.48363833008061796 -4.604800130141054382 -6.38163196715876424 
	13.48363618045335954 -4.66587149256662137 -6.381635612580851991 
	13.48363302101973993 -4.755631666048373063 -6.381640970472112429 
	13.4836272602156253 -4.84862107802704223 -6.381647318322594131 
	13.48361774893842124 -4.936896869173578395 -6.38165221249578174 
	13.48360846720627571 -5.023042213361243569 -6.38165698855304786 
	13.48359544856326053 -5.104416944594715844 -6.381660293424310737 
	13.48358172711208525 -5.17993604906092564 -6.381661796965996558 
	-2.800000000000000266 16.81014725958284828 -4.724999999999999645 
	-2.800000000000000266 16.72320643499559623 -4.724999999999999645 
	-2.800000000000000266 16.63626561040834062 -4.724999999999999645 
	-2.800000000000000266 16.54932478582108857 -4.724999999999999645 
	-2.800000000000000266 16.38881207574221577 -4.724999999999999645 
	-2.800000000000000266 16.22829936566333942 -4.724999999999999645 
	-2.800000000000000266 16.06778665558446662 -4.724999999999999645 
	-2.800000000000000266 15.99708125740665743 -4.724999999999999645 
	-2.800000000000000266 15.92637585922885002 -4.724999999999999645 
	-2.800000000000000266 15.85567046105104083 -4.724999999999999645 
	-2.800000000000000266 15.72513207321534701 -4.724999999999999645 
	-2.800000000000000266 15.59459368537965318 -4.724999999999999645 
	-2.800000000000000266 15.46405529754395936 -4.724999999999999645 
	-2.800000000000000266 15.2395656227079499 -4.724999999999999645 
	-2.800000000000000266 15.01507594787193867 -4.724999999999999645 
	-2.800000000000000266 14.79058627303592921 -4.724999999999999645 
	-2.800000000000000266 14.62359839157738151 -4.724999999999999645 
	-2.800000000000000266 14.45661051011883558 -4.724999999999999645 
	-2.800000000000000266 14.28962262866028787 -4.724999999999999645 
	-2.800000000000000266 14.16540777301321263 -4.724999999999999645 
	-2.800000000000000266 14.04119291736613562 -4.724999999999999645 
	-2.800000000000000266 13.91697806171906038 -4.724999999999999645 
	-2.800000000000000266 13.87021481754334928 -4.724999999999999645 
	-2.800000000000000266 13.82345157336763997 -4.724999999999999645 
	-2.800000000000000266 13.77668832919192887 -4.724999999999999645 
	-2.800000000000000266 13.69626857180611168 -4.724999999999999645 
	-2.800000000000000266 13.61584881442029626 -4.724999999999999645 
	-2.800000000000000266 13.53542905703447907 -4.724999999999999645 
	-2.800000000000000266 13.41723140943640757 -4.724999999999999645 
	-2.800000000000000266 13.29903376183833785 -4.724999999999999645 
	-2.800000000000000266 13.18083611424026635 -4.724999999999999645 
	-2.800000000000000266 13.12245914624840815 -4.724999999999999645 
	-2.800000000000000266 13.06408217825654994 -4.724999999999999645 
	-2.800000000000000266 13.00570521026469173 -4.724999999999999645 
	-2.800000000000000266 12.9487371113671923 -4.724999999999999645 
	-2.800000000000000266 12.89176901246968932 -4.724999999999999645 
	-2.800000000000000266 12.83480091357218988 -4.724999999999999645 
	-2.800000000000000266 12.66126521317275078 -4.724999999999999645 
	-2.800000000000000266 12.48772951277331344 -4.724999999999999645 
	-2.800000000000000266 12.31419381237387434 -4.724999999999999645 
	-2.800000000000000266 12.01576073379055742 -4.724999999999999645 
	-2.800000000000000266 11.71732765520724051 -4.724999999999999645 
	-2.800000000000000266 11.4188945766239236 -4.724999999999999645 
	-2.800000000000000266 10.98026992764905074 -4.724999999999999645 
	-2.800000000000000266 10.54164527867417789 -4.724999999999999645 
	-2.800000000000000266 10.10302062969930503 -4.724999999999999645 
	-2.800000000000000266 9.993380827191039373 -4.724999999999999645 
	-2.800000000000000266 9.883741024682773713 -4.724999999999999645 
	-2.800000000000000266 9.774101222174508052 -4.724999999999999645 
	-2.800000000000000266 9.692545051015352797 -4.724999999999999645 
	-2.800000000000000266 9.610988879856193989 -4.724999999999999645 
	-2.800000000000000266 9.529432708697038734 -4.724999999999999645 
	-2.800000000000000266 9.409564806934156422 -4.724999999999999645 
	-2.800000000000000266 9.289696905171274111 -4.724999999999999645 
	-2.800000000000000266 9.169829003408391799 -4.724999999999999645 
	-2.800000000000000266 9.052853992249605852 -4.724999999999999645 
	-2.800000000000000266 8.935878981090819906 -4.724999999999999645 
	-2.800000000000000266 8.818903969932033959 -4.724999999999999645 
	-2.800000000000000266 8.711803455628693627 -4.724999999999999645 
	-2.800000000000000266 8.604702941325351517 -4.724999999999999645 
	-2.800000000000000266 8.497602427022011184 -4.724999999999999645 
	-2.800000000000000266 8.404386055930217481 -4.724999999999999645 
	-2.800000000000000266 8.311169684838422 -4.724999999999999645 
	-2.800000000000000266 8.217953313746628297 -4.724999999999999645 
	-2.800000000000000266 8.176891763969685201 -4.724999999999999645 
	-2.800000000000000266 8.135830214192742105 -4.724999999999999645 
	-2.800000000000000266 8.094768664415799009 -4.724999999999999645 
	-2.800000000000000266 7.798806639236826932 -4.724999999999999645 
	-2.800000000000000266 7.502844614057854855 -4.724999999999999645 
	-2.800000000000000266 7.20688258887888189 -4.724999999999999645 
	-2.800000000000000266 7.06070907340055598 -4.724999999999999645 
	-2.800000000000000266 6.914535557922230069 -4.724999999999999645 
	-2.800000000000000266 6.768362042443904159 -4.724999999999999645 
	-2.800000000000000266 6.696167994527210787 -4.724999999999999645 
	-2.800000000000000266 6.623973946610518304 -4.724999999999999645 
	-2.800000000000000266 6.551779898693824933 -4.724999999999999645 
	-2.800000000000000266 6.481328181124274224 -4.724999999999999645 
	-2.800000000000000266 6.410876463554723514 -4.724999999999999645 
	-2.800000000000000266 6.340424745985172805 -4.724999999999999645 
	-2.800000000000000266 6.231715393087484678 -4.724999999999999645 
	-2.800000000000000266 6.123006040189795662 -4.724999999999999645 
	-2.800000000000000266 6.014296687292107535 -4.724999999999999645 
	-2.800000000000000266 5.921228160673922325 -4.724999999999999645 
	-2.800000000000000266 5.82815963405573978 -4.724999999999999645 
	-2.800000000000000266 5.73509110743755457 -4.724999999999999645 
	-2.800000000000000266 5.622417228097376984 -4.724999999999999645 
	-2.800000000000000266 5.509743348757198511 -4.724999999999999645 
	-2.800000000000000266 5.397069469417020926 -4.724999999999999645 
	-2.800000000000000266 5.287114860224034096 -4.724999999999999645 
	-2.800000000000000266 5.177160251031048155 -4.724999999999999645 
	-2.800000000000000266 5.067205641838061325 -4.724999999999999645 
	-2.800000000000000266 4.983929882256092014 -4.724999999999999645 
	-2.800000000000000266 4.900654122674120927 -4.724999999999999645 
	-2.800000000000000266 4.817378363092151616 -4.724999999999999645 
	-2.800000000000000266 4.674167247188004026 -4.724999999999999645 
	-2.800000000000000266 4.530956131283856436 -4.724999999999999645 
	-2.800000000000000266 4.387745015379708846 -4.724999999999999645 
	-2.800000000000000266 4.281216637788990198 -4.724999999999999645 
	-2.800000000000000266 4.174688260198274214 -4.724999999999999645 
	-2.800000000000000266 4.068159882607556455 -4.724999999999999645 
	-2.800000000000000266 3.911588860224906927 -4.724999999999999645 
	-2.800000000000000266 3.7550178378422574 -4.724999999999999645 
	-2.800000000000000266 3.598446815459608317 -4.724999999999999645 
	-2.800000000000000266 3.52111751366871939 -4.724999999999999645 
	-2.800000000000000266 3.443788211877828243 -4.724999999999999645 
	-2.800000000000000266 3.366458910086938872 -4.724999999999999645 
	-2.800000000000000266 3.290995872802912281 -4.724999999999999645 
	-2.800000000000000266 3.215532835518884802 -4.724999999999999645 
	-2.800000000000000266 3.140069798234858212 -4.724999999999999645 
	-2.800000000000000266 3.065858187498543774 -4.724999999999999645 
	-2.800000000000000266 2.991646576762229781 -4.724999999999999645 
	-2.800000000000000266 2.917434966025915344 -4.724999999999999645 
	-2.800000000000000266 2.881123109667879323 -4.724999999999999645 
	-2.800000000000000266 2.844811253309843746 -4.724999999999999645 
	-2.800000000000000266 2.808499396951807725 -4.724999999999999645 
	-2.800000000000000266 2.737957794523305122 -4.724999999999999645 
	-2.800000000000000266 2.667416192094802074 -4.724999999999999645 
	-2.800000000000000266 2.596874589666299471 -4.724999999999999645 
	-2.800000000000000266 2.462122069590791718 -4.724999999999999645 
	-2.800000000000000266 2.327369549515284852 -4.724999999999999645 
	-2.800000000000000266 2.192617029439777099 -4.724999999999999645 
	-2.800000000000000266 1.701053041471384697 -4.724999999999999645 
	-2.800000000000000266 1.209489053502994516 -4.724999999999999645 
	-2.800000000000000266 0.7179250655346045562 -4.724999999999999645 
	-2.800000000000000266 0.3522724847995682973 -4.724999999999999645 
	-2.800000000000000266 -0.0133800959354714033 -4.724999999999999645 
	-2.800000000000000266 -0.3790326766705156558 -4.724999999999999645 
	-2.800000000000000266 -0.651025363422811032 -4.724999999999999645 
	-2.800000000000000266 -0.923018050175090754 -4.724999999999999645 
	-2.800000000000000266 -1.195010736927375916 -4.724999999999999645 
	-2.800000000000000266 -1.297407993345265798 -4.724999999999999645 
	-2.800000000000000266 -1.399805249763164339 -4.724999999999999645 
	-2.800000000000000266 -1.502202506181056663 -4.724999999999999645 
	-2.800000000000000266 -1.591325333602755521 -4.724999999999999645 
	-2.800000000000000266 -1.680448161024455711 -4.724999999999999645 
	-2.800000000000000266 -1.769570988446155013 -4.724999999999999645 
	-2.800000000000000266 -1.922837432747165343 -4.724999999999999645 
	-2.800000000000000266 -2.076103877048167234 -4.724999999999999645 
	-2.800000000000000266 -2.22937032134917601 -4.724999999999999645 
	-2.800000000000000266 -2.34337841036799599 -4.724999999999999645 
	-2.800000000000000266 -2.457386499386816414 -4.724999999999999645 
	-2.800000000000000266 -2.571394588405635062 -4.724999999999999645 
	-2.800000000000000266 -2.614315284783055304 -4.724999999999999645 
	-2.800000000000000266 -2.657235981160477767 -4.724999999999999645 
	-2.800000000000000266 -2.700156677537897565 -4.724999999999999645 
	-2.800000000000000266 -2.773968322780748785 -4.724999999999999645 
	-2.800000000000000266 -2.847779968023605335 -4.724999999999999645 
	-2.800000000000000266 -2.921591613266457443 -4.724999999999999645 
	-2.800000000000000266 -3.030076929768882099 -4.724999999999999645 
	-2.800000000000000266 -3.138562246271308531 -4.724999999999999645 
	-2.800000000000000266 -3.247047562773733631 -4.724999999999999645 
	-2.800000000000000266 -3.352914695857773353 -4.724999999999999645 
	-2.800000000000000266 -3.458781828941812631 -4.724999999999999645 
	-2.800000000000000266 -3.564648962025852796 -4.724999999999999645 
	0.000440041350736727053 
	
	0 
	5 0.1951109744987075678 0.3922121822831101112 0.5138565509918524565 0.5763464571631242706 0.6709307574251979212 
	0 
	0 
	0 
	0 
	F } I I I I #
coedge $-1 -1 $-1 $11 $12 $-1 $13 forward $8 0 $14 #
coedge $-1 -1 $-1 $15 $10 $-1 $16 forward $8 0 $17 #
coedge $-1 -1 $-1 $10 $15 $-1 $18 reversed $8 0 $19 #
edge $20 -1 $-1 $21 0 $22 3.089432129980090647 $10 $23 forward @7 unknown #
pcurve $-1 -1 $-1 0 forward { exp_par_cur nubs 3 open 9 
	0 3 0.4083634549129150915 3 0.5953612556508706133 3 2.346600843230335798 3 2.450180732525830685 3 
	2.722413360689534656 3 2.875240260013076199 3 3.013832373777742379 3 3.089432129980090647 3 
	0 0 
	0.04858171759724241867 0 
	0.1669553775149322239 0 
	0.1951109744987070682 0 
	0.2080039859841567029 0 
	0.2093514796243891585 9.809214212355694788e-17 
	0.2142087477137570306 9.790137608374896642e-17 
	0.259697198016482611 9.611484683282129637e-17 
	0.3142012409187504018 1.178886529253524933e-16 
	0.3735872870458090689 2.404428589861112421e-16 
	0.3770997705044773496 2.476915251232309293e-16 
	0.3831926691347009029 3.62144204425121102e-17 
	0.3922121822831100557 2.623315189484283712e-17 
	0.4159176118394563582 3.081487911019577365e-33 
	0.4868760967902741044 1.13505598806313672e-16 
	0.5138565509918526786 4.081006917778429676e-17 
	0.5290029321798144224 0 
	0.5436703124811103072 8.909829487980054361e-18 
	0.5763464571631247146 1.174550484947588463e-16 
	0.605979041356127679 2.158900190908074503e-16 
	0.6138081567704303243 1.92461345799261055e-17 
	0.6709307574251974771 6.792989305822246121e-18 
	0.7020902120712054773 7.703719777548943412e-34 
	0.9317453624340046314 0 
	0.9999999999999961142 0 
	5.053086380727190632e-11 
	spline forward { ref 0 } I I I I 
	} 0 0 #
coedge $-1 -1 $-1 $12 $11 $-1 $24 reversed $8 0 $25 #
edge $26 -1 $-1 $22 0 $27 1 $11 $28 forward @7 unknown #
pcurve $-1 -1 $-1 0 forward { exp_par_cur nubs 1 open 2 
	0 1 1 1 
	1 0 
	1 0.999999999999999889 
	1.114710792152844659e-14 
	spline forward { ref 0 } I I I I 
	} 0 0 #
edge $29 -1 $-1 $21 0 $30 1 $12 $31 forward @7 unknown #
pcurve $-1 -1 $-1 0 forward { exp_par_cur nubs 1 open 2 
	-1 1 -0 1 
	0 1 
	0 0 
	1.443627916514227867e-14 
	spline forward { ref 0 } I I I I 
	} 0 0 #
ATTRIB_CUSTOM-attrib $-1 -1 $-1 $-1 $13 @22 generic_tag_attrib_def 3 3 -1 @23 generic_tag_attrib_def  1 1 @1 9 0 2 656 740 0 #
vertex $-1 -1 $-1 $13 0 $32 #
vertex $-1 -1 $-1 $13 1 $33 #
intcurve-curve $-1 -1 $-1 forward { ref 1 } F 0 F 3.089432129980090647 #
edge $34 -1 $-1 $30 0 $27 20.37479622160869752 $15 $35 forward @7 unknown #
pcurve $-1 -1 $-1 0 forward { exp_par_cur nubs 1 open 2 
	-20.37479622160869752 1 -0 1 
	0.999999999999999778 1 
	6.401466794005735543e-17 1 
	9.059419880941276739e-15 
	spline forward { ref 0 } I I I I 
	} 0 0 #
ATTRIB_CUSTOM-attrib $-1 -1 $-1 $-1 $16 @22 generic_tag_attrib_def 3 3 -1 @23 generic_tag_attrib_def  1 2 @2 10 10805 2 656 740 0 #
vertex $-1 -1 $-1 $24 1 $36 #
straight-curve $-1 -1 $-1 46.05074518133626071 -8.410510223131073104 -9.694985390897992161 -48.85074518133625787 4.845861261105220308 4.969985390897992517 F 0 F 1 #
ATTRIB_CUSTOM-attrib $-1 -1 $-1 $-1 $18 @22 generic_tag_attrib_def 3 3 -1 @23 generic_tag_attrib_def  1 2 @2 10 13937 2 656 740 0 #
vertex $-1 -1 $-1 $24 0 $37 #
straight-curve $-1 -1 $-1 47.38800805225639579 -0.3737021342792559153 -9.694049254302022689 -50.18800805225639294 17.18384939386210419 4.969049254302023044 F 0 F 1 #
point $-1 -1 $-1 47.38800805225639579 -0.3737021342792559153 -9.694049254302022689 #
point $-1 -1 $-1 46.05074518133626071 -8.410510223131073104 -9.694985390897992161 #
ATTRIB_CUSTOM-attrib $-1 -1 $-1 $-1 $24 @22 generic_tag_attrib_def 3 3 -1 @23 generic_tag_attrib_def  1 1 @1 8 0 2 656 740 0 #
straight-curve $-1 -1 $-1 -2.800000000000000266 16.81014725958284828 -4.724999999999999645 0 -1 0 F 0 F 20.37479622160869752 #
point $-1 -1 $-1 -2.800000000000000266 -3.564648962025852796 -4.724999999999999645 #
point $-1 -1 $-1 -2.800000000000000266 16.81014725958284828 -4.724999999999999645 #
End-of-ASM-data 