# WaveFront *.obj file
# Vertices: 94
# Triangles : 124

v 4.7388008052256396e+01 -3.7370213427925592e-01 -9.6940492543020227e+00
v 4.7312801673657646e+01 -6.5470113023865928e-01 -9.6940493267458763e+00
v 4.7179494658356958e+01 -1.1523419354415356e+00 -9.6940493187018575e+00
v 4.7047624214100360e+01 -1.6445149679696833e+00 -9.6940492784611614e+00
v 4.6976727548633853e+01 -1.9091106459048994e+00 -9.6940492543149777e+00
v 4.6565446759351993e+01 -3.4445201187226688e+00 -9.6940492542955710e+00
v 4.6524533151305661e+01 -3.5966267393497215e+00 -9.6940490594534623e+00
v 4.6447240278435231e+01 -3.8842663322570719e+00 -9.6940487786620650e+00
v 4.6291697996498527e+01 -4.4682047880044840e+00 -9.6940497816573110e+00
v 4.6247151819837676e+01 -4.6431009780612902e+00 -9.6940524243943678e+00
v 4.6165246598541529e+01 -4.9436609599584980e+00 -9.6940508218407047e+00
v 4.6050694997477592e+01 -5.6443109080666272e+00 -9.6941347659373633e+00
v 4.6050638343847297e+01 -5.7977238978672236e+00 -9.6941818732386089e+00
v 4.6050659876088879e+01 -6.1116542783653509e+00 -9.6942784271291345e+00
v 4.6050817084508225e+01 -7.0099535298204918e+00 -9.6945548219673636e+00
v 4.6050925795376941e+01 -7.9169812991648110e+00 -9.6948338450307538e+00
v 4.6050886705680178e+01 -8.2418223270244102e+00 -9.6949336842027218e+00
v 4.6050745181336261e+01 -8.4105102231310731e+00 -9.6949853908979922e+00
v 4.0682575631343944e+01 -9.0217210112127830e+00 -9.0737372170357435e+00
v 3.5314406081351635e+01 -9.6329317992944929e+00 -8.4524890431734931e+00
v 2.4578066981367005e+01 -1.0855353375457911e+01 -7.2099926954489959e+00
v 3.1053887813977497e+00 -1.3300196527784749e+01 -4.7249999999999996e+00
v 3.1053887813977497e+00 -1.2782032807120840e+01 -4.7249999999999996e+00
v 3.1053887813977497e+00 -1.2263869086456937e+01 -4.7249999999999996e+00
v 3.1053887813977497e+00 -1.1745705365793032e+01 -4.7249999999999996e+00
v 3.1053887813977497e+00 -1.1227541645129127e+01 -4.7249999999999996e+00
v 3.1053887813977497e+00 -1.0709377924465224e+01 -4.7249999999999996e+00
v 3.1053887813977497e+00 -1.0191214203801321e+01 -4.7249999999999996e+00
v 3.1053887813977497e+00 -9.6730504831374162e+00 -4.7249999999999996e+00
v 3.1053887813977497e+00 -9.1548867624735113e+00 -4.7249999999999996e+00
v 3.1053887813977497e+00 -8.6367230418096081e+00 -4.7249999999999996e+00
v 3.1053887813977497e+00 -8.1185593211457050e+00 -4.7249999999999996e+00
v 3.1053887813977497e+00 -7.6003956004818001e+00 -4.7249999999999996e+00
v 3.1053887813977497e+00 -7.0822318798178960e+00 -4.7249999999999996e+00
v 3.1053887813977497e+00 -6.5640681591539920e+00 -4.7249999999999996e+00
v 3.1053887813977497e+00 -6.0459044384900880e+00 -4.7249999999999996e+00
v 3.1053887813977497e+00 -5.5277407178261839e+00 -4.7249999999999996e+00
v 3.1053887813977497e+00 -5.0095769971622799e+00 -4.7249999999999996e+00
v 3.1053887813977497e+00 -4.4914132764983759e+00 -4.7249999999999996e+00
v 3.1053887813977497e+00 -3.9732495558344718e+00 -4.7249999999999996e+00
v 3.1053887813977497e+00 -3.4550858351705678e+00 -4.7249999999999996e+00
v 3.1053887813977497e+00 -2.9369221145066637e+00 -4.7249999999999996e+00
v 3.1053887813977497e+00 -2.4187583938427597e+00 -4.7249999999999996e+00
v 3.1053887813977497e+00 -1.9005946731788557e+00 -4.7249999999999996e+00
v 3.1053887813977497e+00 -1.3824309525149516e+00 -4.7249999999999996e+00
v 3.1053887813977497e+00 -8.6426723185104770e-01 -4.7249999999999996e+00
v 3.1053887813977497e+00 -3.4610351118714366e-01 -4.7249999999999996e+00
v 8.6407161902550769e+00 -3.4955333907365771e-01 -5.3461311567877523e+00
v 1.1408379894683740e+01 -3.5127825301691473e-01 -5.6566967351816286e+00
v 1.4176043599112411e+01 -3.5300316696017170e-01 -5.9672623135755050e+00
v 1.6943707303541075e+01 -3.5472808090342872e-01 -6.2778278919693822e+00
v 1.9711371007969746e+01 -3.5645299484668574e-01 -6.5883934703632585e+00
v 2.2479034712398409e+01 -3.5817790878994277e-01 -6.8989590487571348e+00
v 2.5246698416827073e+01 -3.5990282273319979e-01 -7.2095246271510112e+00
v 2.8014362121255736e+01 -3.6162773667645681e-01 -7.5200902055448875e+00
v 3.0782025825684403e+01 -3.6335265061971384e-01 -7.8306557839387638e+00
v 3.3549689530113071e+01 -3.6507756456297086e-01 -8.1412213623326402e+00
v 3.6317353234541734e+01 -3.6680247850622782e-01 -8.4517869407265174e+00
v 3.9085016938970398e+01 -3.6852739244948485e-01 -8.7623525191203928e+00
v 4.1852680643399069e+01 -3.7025230639274187e-01 -9.0729180975142700e+00
v 4.4620344347827732e+01 -3.7197722033599889e-01 -9.3834836759081455e+00
v 4.6004176200042060e+01 -3.7283967730762740e-01 -9.5387664651050841e+00
v 2.4578105391614120e+01 -1.0761992031616346e+01 -7.2099847288952610e+00
v 2.4578153170643745e+01 -1.0445170048787192e+01 -7.2099439564350494e+00
v 2.4578019376457785e+01 -7.7927434808154583e+00 -7.2096268658542204e+00
v 2.4578013711687920e+01 -7.6176866060989159e+00 -7.2096062707901094e+00
v 2.4578015032860542e+01 -7.4703614194482775e+00 -7.2095854107826041e+00
v 2.4578041889437664e+01 -7.3408569293180337e+00 -7.2095673829686815e+00
v 2.4580795153177359e+01 -7.0641678171338675e+00 -7.2095455755770379e+00
v 2.4588598110760291e+01 -6.8926025707980543e+00 -7.2095323879241517e+00
v 2.4612840100675957e+01 -6.5856063976380099e+00 -7.2095250549085241e+00
v 2.4635317689969639e+01 -6.3779050435116202e+00 -7.2095254109203522e+00
v 2.4687078349635655e+01 -5.8493425477231620e+00 -7.2095255050498741e+00
v 2.4698543388948142e+01 -5.7354269289640563e+00 -7.2095248908286553e+00
v 2.4722477517651736e+01 -5.5087815909384918e+00 -7.2095245051271002e+00
v 2.4761562584092509e+01 -5.1289460929889037e+00 -7.2095243719126678e+00
v 2.4798624921542981e+01 -4.7635298006284605e+00 -7.2095244567109606e+00
v 2.4826005718206712e+01 -4.5387861907693070e+00 -7.2095245862354407e+00
v 2.4835417770374871e+01 -4.4356883607239768e+00 -7.2095246271477853e+00
v 2.4844505810472345e+01 -4.2902032062582123e+00 -7.2095246271469806e+00
v 2.4857869010462053e+01 -4.1641043613708728e+00 -7.2095246271461448e+00
v 2.4870602046702899e+01 -4.0525371785250401e+00 -7.2095246271456874e+00
v 2.4879918824698510e+01 -3.9659028145420274e+00 -7.2095246271455542e+00
v 2.4996284714035138e+01 -2.8188687241067116e+00 -7.2095246271530762e+00
v 2.5024861752541863e+01 -2.5621472847248170e+00 -7.2095246271559512e+00
v 2.5041058165015802e+01 -2.3913499346536518e+00 -7.2095246271574895e+00
v 2.5050534872037460e+01 -2.2645345030310149e+00 -7.2095246297726865e+00
v 2.5060517742341037e+01 -2.1711455579338019e+00 -7.2095246333672334e+00
v 2.5084255207829173e+01 -1.9562770275115897e+00 -7.2095246420006491e+00
v 2.5092896746478502e+01 -1.8687291935316805e+00 -7.2095246449966996e+00
v 2.5164824907293799e+01 -1.1649545919085080e+00 -7.2095246635201660e+00
v 2.5190749717277399e+01 -9.1381767415370652e-01 -7.2095246652912550e+00
v 2.5200991437448440e+01 -8.1160646117367807e-01 -7.2095246646693427e+00
v 2.5241612829512000e+01 -4.3421071107483022e-01 -7.2095246413145055e+00

vn -1.1144474140084862e-01 2.9726568566890359e-02 -9.9332592875417081e-01
vn -1.1174964204999872e-01 2.9928124272022079e-02 -9.9328562099692941e-01
vn -1.1145947612691989e-01 2.5755083913351393e-02 -9.9343518199937375e-01
vn -1.1147010760009604e-01 2.2542340486738668e-02 -9.9351208246150824e-01
vn -1.1148405078536450e-01 1.7663090616860083e-02 -9.9360923991796035e-01
vn -1.1149248231499231e-01 1.4133112318311237e-02 -9.9366477321249502e-01
vn -1.1149794083706654e-01 1.1460805553934422e-02 -9.9369857558776298e-01
vn -1.1154209078270798e-01 9.6247910971019399e-03 -9.9371310013512415e-01
vn -1.1150166035900126e-01 9.3674917047865489e-03 -9.9372009632307756e-01
vn -1.1150429799054340e-01 7.6834132330701535e-03 -9.9373424852458714e-01
vn -1.1150622906032308e-01 6.2992608760684566e-03 -9.9374376988897994e-01
vn -1.1150768022516505e-01 5.1414691757241055e-03 -9.9375027172097785e-01
vn -1.1150879470835841e-01 4.1587114164522649e-03 -9.9375474530793761e-01
vn -1.1150966648388413e-01 3.3140871470639607e-03 -9.9375782316771455e-01
vn -1.1151035920204710e-01 2.5803867602054746e-03 -9.9375992140697544e-01
vn -1.1151091716231940e-01 1.9371063577861716e-03 -9.9376132092800684e-01
vn -1.1151137193020633e-01 1.3685019741681449e-03 -9.9376221558911659e-01
vn -1.1151174646484079e-01 8.6228413347974944e-04 -9.9376274173790302e-01
vn -1.1151231864726048e-01 -0.0000000000000000e+00 -9.9376305163248624e-01
vn -1.1172365683551512e-01 -0.0000000000000000e+00 -9.9373931415804406e-01
vn -1.1178008208675537e-01 1.0785733379668839e-02 -9.9367443421079371e-01
vn -1.1184655822912692e-01 1.1467707577166215e-02 -9.9365931741982028e-01
vn -1.1200566947500387e-01 1.1431352899426407e-02 -9.9364181382243821e-01
vn -1.1229637939627232e-01 3.0086016617077566e-02 -9.9321918768145312e-01
vn -1.1245147498130280e-01 1.1317081479652871e-02 -9.9359276841234734e-01
vn -1.1283995755472585e-01 3.0235180799792306e-02 -9.9315304853836683e-01
vn -1.1250223392741079e-01 1.1016627843927757e-02 -9.9359039914458247e-01
vn -1.1267142027335551e-01 1.2808467549028292e-02 -9.9354974420641373e-01
vn -1.1236518273914926e-01 -0.0000000000000000e+00 -9.9366697927826786e-01
vn -1.1269979470984338e-01 1.0952348572652766e-02 -9.9356872048847344e-01
vn -1.1256066902242241e-01 -0.0000000000000000e+00 -9.9364485395397917e-01
vn -1.1268564763076722e-01 6.6147650271078020e-03 -9.9360867030318867e-01
vn -1.1292266973531874e-01 1.2732494918239712e-02 -9.9352219614511139e-01
vn -1.1315068269149363e-01 3.0308985729745826e-02 -9.9311544565094900e-01
vn -1.1306986576922085e-01 1.1786967700614246e-02 -9.9351712257381597e-01
vn -1.1380711283262017e-01 1.1575742095040278e-02 -9.9343542480810110e-01
vn -1.1301128371872948e-01 -0.0000000000000000e+00 -9.9359370456552543e-01
vn -1.1322863914319387e-01 -0.0000000000000000e+00 -9.9356895849144777e-01
vn -1.1345874301295175e-01 -0.0000000000000000e+00 -9.9354270851026871e-01
vn -1.1390935766786690e-01 1.2761733849907728e-02 -9.9340917872991186e-01
vn -1.1399180266325479e-01 1.2944112682614962e-02 -9.9339736202208695e-01
vn -1.1492803113588887e-01 3.0785068217746264e-02 -9.9289668507557072e-01
vn -1.1398365967038472e-01 1.0632761597034069e-02 -9.9342572430401987e-01
vn -1.1384378751699070e-01 5.5443119718849290e-03 -9.9348319193056533e-01
vn -1.1362734580369764e-01 -0.0000000000000000e+00 -9.9352344022957351e-01
vn -1.1424761348141925e-01 1.3169395540918397e-02 -9.9336501339381145e-01
vn -1.1434367262742308e-01 1.1892086147298829e-02 -9.9337007344550998e-01
vn -1.1509931115454790e-01 3.0961476731465452e-02 -9.9287135900395251e-01
vn -1.1540136968361485e-01 3.0965579593934204e-02 -9.9283616813427844e-01
vn -1.1600985282527569e-01 3.0317502208409671e-02 -9.9278525528298467e-01
vn -1.1479919820280034e-01 1.1198890119700832e-02 -9.9332559060565895e-01
vn -1.1458758787358458e-01 1.1940111977431994e-02 -9.9334139067657901e-01
vn -1.1388342477073742e-01 -0.0000000000000000e+00 -9.9349411954097022e-01
vn -1.1620887970679997e-01 3.0005590394227705e-02 -9.9277145447599591e-01
vn -1.1497726831891660e-01 1.0446252635716592e-02 -9.9331319510806393e-01
vn -1.1504075525650853e-01 1.2838624186536583e-02 -9.9327780321469428e-01
vn -1.1434340361950912e-01 -0.0000000000000000e+00 -9.9344128465083736e-01
vn -1.1411156877075664e-01 -0.0000000000000000e+00 -9.9346794103920477e-01
vn -1.1553354832559053e-01 1.3790508790881386e-02 -9.9320784384668803e-01
vn -1.1672780802290532e-01 3.2728407119302895e-02 -9.9262453636891368e-01
vn -1.1550850327119991e-01 1.1213452889378923e-02 -9.9324319486535873e-01
vn -1.1498225952490720e-01 5.2218511854366630e-04 -9.9336740802044077e-01
vn -1.1540659290655562e-01 7.3582740536829857e-03 -9.9329108226977025e-01
vn -1.1517754028925631e-01 3.4689686144031106e-03 -9.9333886487425282e-01
vn -1.1492469985156591e-01 -0.0000000000000000e+00 -9.9337420610967520e-01
vn -1.1495249204051423e-01 1.4019550638005022e-04 -9.9337098050974670e-01
vn -1.1494233649219239e-01 -0.0000000000000000e+00 -9.9337216554608354e-01
vn -1.1495555367945273e-01 1.6591695805870900e-04 -9.9337062225023232e-01
vn -1.1495198035539184e-01 1.0744788041322549e-04 -9.9337104380353602e-01
vn -1.1496720894880658e-01 3.1133791934664039e-04 -9.9336923846836600e-01
vn -1.1496868951330513e-01 2.9031886672928743e-04 -9.9336907348001768e-01
vn -1.1495389646370491e-01 1.1736613351824960e-04 -9.9337082094905660e-01
vn -1.1497756169202486e-01 2.8519626202092848e-04 -9.9336804809217050e-01
vn -1.1497091832075246e-01 1.1797634097716024e-04 -9.9336885094211902e-01
vn -1.1498913392260203e-01 3.0486425689135982e-04 -9.9336670275257088e-01
vn -1.1499684295262710e-01 3.4348011935577804e-04 -9.9336579774639744e-01
vn -1.1503067646319340e-01 6.2172410773156579e-04 -9.9336174525273213e-01
vn -1.1500320129492886e-01 3.7705548040695131e-04 -9.9336504947631554e-01
vn -1.1497634743414495e-01 1.4547894022414436e-04 -9.9336821892316485e-01
vn -1.1495809968861427e-01 -0.0000000000000000e+00 -9.9337034147189152e-01
vn -1.1495578808813664e-01 -0.0000000000000000e+00 -9.9337060897986884e-01
vn -1.1498862712863649e-01 2.4729652139596973e-04 -9.9336677741683199e-01
vn -1.1497344901920695e-01 1.1217899317681243e-04 -9.9336855871146901e-01
vn -1.1496084604111749e-01 -0.0000000000000000e+00 -9.9337002364552485e-01
vn -1.1495357329801721e-01 -0.0000000000000000e+00 -9.9337086527943697e-01
vn -1.1495139894160836e-01 -0.0000000000000000e+00 -9.9337111689507418e-01
vn -1.1494924758913150e-01 -0.0000000000000000e+00 -9.9337136584395902e-01
vn -1.1494711507797584e-01 -0.0000000000000000e+00 -9.9337161260791562e-01
vn -1.1494493330118520e-01 -0.0000000000000000e+00 -9.9337186506785369e-01
vn -1.1477854047192688e-01 -0.0000000000000000e+00 -9.9339110457419244e-01
vn -1.1452480002257701e-01 -0.0000000000000000e+00 -9.9342038945241551e-01
vn -1.1279768861818977e-01 -0.0000000000000000e+00 -9.9361797560349818e-01
vn -1.1214982106502970e-01 -0.0000000000000000e+00 -9.9369130902664227e-01
vn -1.1193658835222189e-01 -0.0000000000000000e+00 -9.9371535169185410e-01

g face 0
f 1//1 2//2 62//3
f 62//3 2//2 61//4
f 61//4 2//2 60//5
f 60//5 2//2 59//6
f 59//6 2//2 58//7
f 58//7 2//2 94//8
f 58//7 94//8 57//9
f 57//9 94//8 56//10
f 56//10 94//8 55//11
f 55//11 94//8 54//12
f 54//12 94//8 53//13
f 53//13 94//8 52//14
f 52//14 94//8 51//15
f 51//15 94//8 50//16
f 50//16 94//8 49//17
f 49//17 94//8 48//18
f 48//18 94//8 47//19
f 47//19 94//8 46//20
f 46//20 94//8 93//21
f 46//20 93//21 92//22
f 92//22 93//21 2//2
f 92//22 2//2 91//23
f 91//23 2//2 3//24
f 91//23 3//24 90//25
f 90//25 3//24 4//26
f 90//25 4//26 89//27
f 89//27 4//26 88//28
f 89//27 88//28 43//29
f 43//29 88//28 87//30
f 43//29 87//30 42//31
f 42//31 87//30 86//32
f 42//31 86//32 85//33
f 85//33 86//32 5//34
f 85//33 5//34 84//35
f 84//35 5//34 83//36
f 84//35 83//36 40//37
f 40//37 83//36 39//38
f 39//38 83//36 38//39
f 38//39 83//36 82//40
f 38//39 82//40 81//41
f 81//41 82//40 6//42
f 81//41 6//42 80//43
f 80//43 6//42 79//44
f 80//43 79//44 38//39
f 38//39 79//44 37//45
f 37//45 79//44 78//46
f 37//45 78//46 77//47
f 77//47 78//46 7//48
f 77//47 7//48 8//49
f 88//28 4//26 87//30
f 87//30 4//26 5//34
f 87//30 5//34 86//32
f 5//34 6//42 83//36
f 83//36 6//42 82//40
f 79//44 6//42 78//46
f 78//46 6//42 7//48
f 9//50 75//51 8//49
f 8//49 75//51 76//52
f 8//49 76//52 77//47
f 77//47 76//52 36//53
f 77//47 36//53 37//45
f 10//54 73//55 9//50
f 9//50 73//55 74//56
f 9//50 74//56 75//51
f 75//51 74//56 34//57
f 75//51 34//57 35//58
f 73//55 10//54 72//59
f 72//59 10//54 11//60
f 72//59 11//60 71//61
f 71//61 11//60 12//62
f 71//61 12//62 70//63
f 70//63 12//62 69//64
f 70//63 69//64 31//65
f 31//65 69//64 68//66
f 31//65 68//66 30//67
f 30//67 68//66 67//68
f 30//67 67//68 66//69
f 66//69 67//68 13//70
f 66//69 13//70 14//71
f 69//64 12//62 68//66
f 68//66 12//62 13//70
f 68//66 13//70 67//68
f 66//69 14//71 65//72
f 65//72 14//71 15//73
f 65//72 15//73 64//74
f 64//74 15//73 16//75
f 64//74 16//75 17//76
f 18//77 19//78 17//76
f 17//76 19//78 63//79
f 17//76 63//79 64//74
f 64//74 63//79 23//80
f 64//74 23//80 24//81
f 19//78 20//82 63//79
f 63//79 20//82 21//83
f 63//79 21//83 22//84
f 22//84 23//80 63//79
f 24//81 25//85 64//74
f 64//74 25//85 26//86
f 64//74 26//86 65//72
f 65//72 26//86 27//87
f 65//72 27//87 28//88
f 28//88 29//89 65//72
f 65//72 29//89 66//69
f 29//89 30//67 66//69
f 31//65 32//90 70//63
f 70//63 32//90 71//61
f 71//61 32//90 72//59
f 72//59 32//90 33//91
f 72//59 33//91 73//55
f 73//55 33//91 34//57
f 73//55 34//57 74//56
f 75//51 35//58 76//52
f 76//52 35//58 36//53
f 40//37 41//92 84//35
f 84//35 41//92 85//33
f 41//92 42//31 85//33
f 89//27 43//29 90//25
f 90//25 43//29 44//93
f 90//25 44//93 91//23
f 91//23 44//93 45//94
f 91//23 45//94 92//22
f 92//22 45//94 46//20
f 38//39 81//41 80//43
f 94//8 2//2 93//21

g halfedge 0 edge 0
l 1 2 3 4 5 6 7 8 9 10 11 12 13 14 15 16 17 18

g halfedge 1 edge 1
l 18 19 20 21 22

g halfedge 2 edge 2
l 22 23 24 25 26 27 28 29 30 31 32 33 34 35 36 37 38 39 40 41 42 43 44 45 46 47

g halfedge 3 edge 3
l 47 48 49 50 51 52 53 54 55 56 57 58 59 60 61 62 1

g vertex 0
p 1

g vertex 1
p 18

g vertex 2
p 22

g vertex 3
p 47

# End of file
