22700 0 2 4           
16 Autodesk Neutron 20 ASM 227.1.1.65535 NT 24 Thu Aug 26 00:05:32 2021 
10 9.999999999999999547e-07 1.000000000000000036e-10 
asmheader $-1 -1 @13 227.1.1.65535 #
body $2 5 $-1 $3 $-1 $-1 #
ATTRIB_CUSTOM-attrib $-1 -1 $4 $-1 $1 @20 Timestamp_attrib_def 1 1406915265000 #
lump $-1 -1 $-1 $-1 $5 $1 #
ATTRIB_CUSTOM-attrib $-1 -1 $-1 $2 $1 @22 generic_tag_attrib_def 3 3 -1 @23 generic_tag_attrib_def  2 3 @3 658 11 0 0 3 @3 740 6 0 0 #
shell $-1 -1 $-1 $-1 $-1 $6 $-1 $3 #
face $7 -1 $-1 $-1 $8 $5 $-1 $9 forward double out #
ATTRIB_CUSTOM-attrib $-1 -1 $-1 $-1 $6 @22 generic_tag_attrib_def 3 3 -1 @23 generic_tag_attrib_def  1 1 @1 7 0 2 658 740 0 #
loop $-1 -1 $-1 $-1 $10 $6 #
spline-surface $-1 -1 $-1 forward { loft_spl_sur 22020 2 
	0 
	1 1 intcurve forward { exact_int_cur 22020 full nubs 3 open 7 
	0 3 0.4083634549129150915 2 2.450180732525830685 2 2.722413360689534656 2 2.875240260013076199 2 
	3.013832373777742379 2 3.089432129980090647 3 
	47.38800805225639579 -0.3737021342792559153 -9.694049254302022689 
	47.35292761981313703 -0.5052242196547218622 -9.694049426015164173 
	47.00414626884199976 -1.806750014794654913 -9.694049254317457454 
	46.83963394738844954 -2.420913802220221456 -9.694049254302580465 
	46.70254033945034422 -2.932716956742815295 -9.694049254281951633 
	46.547168264981444 -3.512758115048745466 -9.694049254297388174 
	46.35975755889566585 -4.207710468727728248 -9.69404781015049366 
	46.25349048272389041 -4.614441994672170644 -9.694050888428662915 
	46.25326617182989253 -4.629872030836943431 -9.694055375456974488 
	46.08542544945918706 -5.228222585924878985 -9.694046692362798368 
	46.05121212146839582 -5.372691548287070518 -9.694051840423606237 
	46.05041291470557496 -5.792474875130730005 -9.694180000463720859 
	46.05128591771172353 -8.215794160658015599 -9.694926139170798152 
	46.05074518133626071 -8.410510223131067775 -9.694985390897992161 
	0 
	
	null_surface 
	null_surface 
	nullbs 
	nullbs 
	I I 
	0 
	5 0.4083634549129150915 2.450180732525830685 2.722413360689534656 2.875240260013076199 3.013832373777742379 
	0 
	
	0 F 1 F 0 UNEXTENDED UNEXTENDED } F 0 F 3.089432129980090647 null_surface nullbs F -1 213 26 1 0 0.03846153846153846367 0 0.1077654139885146634 2.801900763701381081 1.660864744133049742 0.03846153846153846367 0.07692307692307692735 0.1077654139885146634 0.1716448272244011919 1.660864744133049742 1.530681223523062906 0.07692307692307692735 0.115384615384615391 0.1716448272244011919 0.2305171819752882267 1.530681223523062906 1.530681223523062906 0.115384615384615391 0.1538461538461538547 0.2305171819752882267 0.2941725309153006562 1.530681223523062906 1.655039072440323 0.1538461538461538547 0.1923076923076923184 0.2941725309153006562 0.3977544199537398351 1.655039072440323 2.693129114999418317 0.1923076923076923184 0.230769230769230782 0.3977544199537398351 0.8001862753662067895 2.693129114999418317 10.46322824072414015 0.230769230769230782 0.269230769230769218 0.8001862753662067895 1.205792748235781531 10.46322824072414015 10.54576829460892284 0.269230769230769218 0.3076923076923077094 1.205792748235781531 1.611399221105355828 10.54576829460892284 10.54576829460892284 0.3076923076923077094 0.3461538461538461453 1.611399221105355828 2.017005693974930125 10.54576829460892284 10.54576829460892284 0.3461538461538461453 0.3846153846153846367 2.017005693974930125 2.422612166844504422 10.54576829460892284 3.364972631405295456 0.3846153846153846367 0.4230769230769230727 2.422612166844504422 2.552034191129323393 3.364972631405295456 1.699402500337978683 0.4230769230769230727 0.4615384615384615641 2.552034191129323393 2.617395825757707239 1.699402500337978683 1.699402500337978683 0.4615384615384615641 0.5 2.617395825757707239 2.684962245450388529 1.699402500337978683 1.756726912009714647 0.5 0.5384615384615384359 2.684962245450388529 2.799406592467744925 1.756726912009714647 1.994843001466168442 0.5384615384615384359 0.5769230769230768718 2.799406592467744925 2.876131323293366737 1.994843001466168442 1.531534320002879257 0.5769230769230768718 0.6153846153846154188 2.876131323293366737 2.93503648944732376 1.531534320002879257 1.531534320002879257 0.6153846153846154188 0.6538461538461538547 2.93503648944732376 3.000398603355974192 1.531534320002879257 0.6745908260708426418 0.6538461538461538547 0.6923076923076922906 3.000398603355974192 3.026344404358698892 0.6745908260708426418 0.2220839647410476625 0.6923076923076922906 0.7307692307692307265 3.026344404358698892 3.034886095310277643 0.2220839647410476625 0.18035332355944661 0.7307692307692307265 0.7692307692307692735 3.034886095310277643 3.041822761601025604 0.18035332355944661 0.1647321371459798955 0.7692307692307692735 0.8076923076923077094 3.041822761601025604 3.048158613029717134 0.1647321371459798955 0.1598162925935567857 0.8076923076923077094 0.8461538461538461453 3.048158613029717134 3.054305393514084699 0.1598162925935567857 0.1598162925935567857 0.8461538461538461453 0.8846153846153845812 3.054305393514084699 3.060561709556622656 0.1598162925935567857 0.1626642171059869968 0.8846153846153845812 0.9230769230769231282 3.060561709556622656 3.067288553586849265 0.1626642171059869968 0.1748979447858914349 0.9230769230769231282 0.9615384615384615641 3.067288553586849265 3.07523195724190046 0.1748979447858914349 0.2065284950313312218 0.9615384615384615641 1 3.07523195724190046 3.089432129980091535 0.2065284950313312218 0.369204491192968165 F null_curve 0 -1 
	1 
	1 1 straight 3.105388781397749653 -0.3461035111871436643 -4.724999999999999645 0 -1 0 F 0 F 12.95409301659760004 null_surface nullbs F -1 213 26 1 0 0.03846153846153846367 0 0.498234346792215399 12.95409301659760004 12.95409301659760004 0.03846153846153846367 0.07692307692307692735 0.498234346792215399 0.996468693584430798 12.95409301659760004 12.95409301659759826 0.07692307692307692735 0.115384615384615391 0.996468693584430798 1.494703040376646141 12.95409301659759826 12.95409301659759826 0.115384615384615391 0.1538461538461538547 1.494703040376646141 1.992937387168861596 12.95409301659759826 12.95409301659759471 0.1538461538461538547 0.1923076923076923184 1.992937387168861596 2.491171733961076828 12.95409301659759471 12.95409301659759471 0.1923076923076923184 0.230769230769230782 2.491171733961076828 2.989406080753292283 12.95409301659759471 12.95409301659760182 0.230769230769230782 0.269230769230769218 2.989406080753292283 3.487640427545507738 12.95409301659760182 12.95409301659759116 0.269230769230769218 0.3076923076923077094 3.487640427545507738 3.985874774337723192 12.95409301659759116 12.95409301659759116 0.3076923076923077094 0.3461538461538461453 3.985874774337723192 4.484109121129938202 12.95409301659759116 12.95409301659759116 0.3461538461538461453 0.3846153846153846367 4.484109121129938202 4.982343467922153657 12.95409301659759116 12.95409301659759116 0.3846153846153846367 0.4230769230769230727 4.982343467922153657 5.480577814714369111 12.95409301659759116 12.95409301659759116 0.4230769230769230727 0.4615384615384615641 5.480577814714369111 5.978812161506584566 12.95409301659759116 12.95409301659759116 0.4615384615384615641 0.5 5.978812161506584566 6.47704650829880002 12.95409301659759116 12.9540930165976107 0.5 0.5384615384615384359 6.47704650829880002 6.975280855091015475 12.9540930165976107 12.9540930165976107 0.5384615384615384359 0.5769230769230768718 6.975280855091015475 7.473515201883231818 12.9540930165976107 12.9540930165975503 0.5769230769230768718 0.6153846153846154188 7.473515201883231818 7.971749548675446384 12.9540930165975503 12.9540930165975503 0.6153846153846154188 0.6538461538461538547 7.971749548675446384 8.469983895467661839 12.9540930165975503 12.95409301659758761 0.6538461538461538547 0.6923076923076922906 8.469983895467661839 8.968218242259876405 12.95409301659758761 12.95409301659758761 0.6923076923076922906 0.7307692307692307265 8.968218242259876405 9.466452589052090971 12.95409301659758761 12.9540930165975503 0.7307692307692307265 0.7692307692307692735 9.466452589052090971 9.964686935844305538 12.9540930165975503 12.9540930165975503 0.7692307692307692735 0.8076923076923077094 9.964686935844305538 10.4629212826365201 12.9540930165975503 12.95409301659758761 0.8076923076923077094 0.8461538461538461453 10.4629212826365201 10.96115562942873467 12.95409301659758761 12.95409301659758761 0.8461538461538461453 0.8846153846153845812 10.96115562942873467 11.45938997622094924 12.95409301659758761 12.9540930165975503 0.8846153846153845812 0.9230769230769231282 11.45938997622094924 11.9576243230131638 12.9540930165975503 12.9540930165975503 0.9230769230769231282 0.9615384615384615641 11.9576243230131638 12.45585866980537837 12.9540930165975503 12.95409301659758761 0.9615384615384615641 1 12.45585866980537837 12.95409301659760004 12.95409301659758761 12.95409301659777235 F null_curve 0 -1 
	0 
	F 1 F 0 F 1 F 0 F F F F 0 0 full nubs 3 3 open open none none 52 2 
	0 3 0.01280123103686020732 3 0.03643524067303617608 3 0.04684595556933848076 3 0.06606652392485172498 3 
	0.09912054896554269023 3 0.1237079676040829662 3 0.1419974544233922886 3 0.1488829089330352407 3 0.1607239732329363568 3 
	0.1781274819079407545 3 0.1867229496648078191 3 0.1951109744987075678 3 0.220662498820024755 3 0.2646040050815907652 3 
	0.3291874214069553384 3 0.3453308666688009176 3 0.3573392573695620134 3 0.374988695497795399 3 0.3922121822831101112 3 
	0.4079817408796895251 3 0.4217069880052926045 3 0.4277529208328407773 3 0.4713305873714273009 3 0.49285328343500312 3 
	0.5034831882151246107 3 0.5138565509918524565 3 0.5298629961678383848 3 0.5435664745642720952 3 0.5601566595331917142 3 
	0.5763464571631242706 3 0.5886080413295932123 3 0.6096945514983078684 3 0.6253798682639899464 3 0.6484335009010511186 3 
	0.6598195242432934871 3 0.6709307574251979212 3 0.6818577296406463928 3 0.6872043141114434484 3 0.6975909116009960664 3 
	0.717431971890854725 3 0.7898102154750126225 3 0.8436491707349293989 3 0.8836975742321617755 3 0.8987746216741322458 3 
	0.9118971324151984303 3 0.9344641965419738794 3 0.9512508315265104653 3 0.9575705064686187429 3 0.9684385874702688968 3 
	0.9844120453624323197 3 1 3 
	0 3 1 3 
	47.38800805225639579 -0.3737021342792559153 -9.694049254302022689 
	47.38492683334806799 -0.385254110925415505 -9.694049269384098722 
	47.37876640031402786 -0.4082987241422088021 -9.69404928360334317 
	47.36985372997446575 -0.4416077537547148935 -9.694049294642072212 
	47.35339889558527204 -0.5031038649151869935 -9.694049315022098767 
	47.32731139142337184 -0.6005237289459197658 -9.694049323930791218 
	47.31047250666073012 -0.6633980079932999541 -9.694049327219522283 
	47.30305502519507144 -0.6910939514049038168 -9.694049328668198129 
	47.29683392533011954 -0.7143212734875287184 -9.694049329427269157 
	47.28965384533550065 -0.741128005758504349 -9.694049329973573492 
	47.2763977702523519 -0.7906193841253477128 -9.694049330982176471 
	47.26214984793044493 -0.8438095351173724445 -9.694049330751518312 
	47.2480845419454738 -0.8963150839796671931 -9.694049329644011337 
	47.22389613254816254 -0.9866100063133086406 -9.694049327739406863 
	47.2010222953197669 -1.071990167368675806 -9.69404932363658034 
	47.17748419806564186 -1.159845977090343094 -9.69404931824450955 
	47.15997525473939334 -1.225198005195704987 -9.694049314233588177 
	47.14296331260183592 -1.288692752960332477 -9.694049309651957103 
	47.12507089317198705 -1.355472070148186825 -9.694049304313031357 
	47.11176151840033555 -1.405146233160780689 -9.694049300341641029 
	47.09814811936588796 -1.455954105402189835 -9.6940492959748088 
	47.08523274333953168 -1.504156155311657805 -9.694049291627804266 
	47.0803704836718353 -1.522302811103704467 -9.694049289991284013 
	47.07560584229805301 -1.540085046722795115 -9.694049288358536742 
	47.07098440753332369 -1.557332745509226068 -9.694049286752749239 
	47.0630368267119934 -1.58699398429447025 -9.694049283991240884 
	47.05568141744998911 -1.61444499859272228 -9.69404928138148847 
	47.04587843952555204 -1.651030306896764444 -9.694049277829265066 
	47.03147042627372088 -1.704801886403551237 -9.694049272608353363 
	47.01452232165863876 -1.768052548402611057 -9.694049266254060271 
	47.00168651645066831 -1.815956747106721281 -9.694049261662815553 
	46.99534700458217884 -1.839616286287525604 -9.694049259395232099 
	46.98997364839925694 -1.859670338792016597 -9.694049257559216315 
	46.98588791529657271 -1.87491934188334719 -9.694049256324474229 
	46.98190078723101237 -1.889800325704164452 -9.694049255119532305 
	46.97945038092603909 -1.898945662648211963 -9.694049254315226349 
	46.97672754863385336 -1.909110645904899428 -9.694049254314979436 
	46.96843328187685529 -1.940075124676986951 -9.694049254314228037 
	46.94436356934035359 -2.029933109951369552 -9.694049254311948971 
	46.92216843344276356 -2.112792852494550733 -9.694049254309708985 
	46.88399898058524684 -2.255288534944122958 -9.694049254305857843 
	46.85710058188660554 -2.35570668023260632 -9.694049254303008567 
	46.82593873427346409 -2.47204129969705555 -9.694049254300116658 
	46.78013833394382459 -2.643025132549798872 -9.694049254295865836 
	46.73447094203484653 -2.813512415859832583 -9.694049254292442797 
	46.68874111844279895 -2.984232779338243269 -9.694049254291410733 
	46.67731036816670809 -3.026906502713476055 -9.694049254291153161 
	46.66587961801219819 -3.069580226121274347 -9.694049254291043027 
	46.65444886799927104 -3.112253949567000078 -9.694049254291108753 
	46.6459460416241356 -3.143997033864107227 -9.694049254291156714 
	46.63600495192726925 -3.18110949943127963 -9.694049254291318363 
	46.62560361041825274 -3.21994019566915135 -9.694049254291659423 
	46.61031614701132497 -3.277011953892599472 -9.694049254292162132 
	46.59453066336379123 -3.335942942220405882 -9.694049254293114259 
	46.5836228395469405 -3.376664459678245578 -9.694049254293963358 
	46.57297826502841787 -3.416403204487980183 -9.694049254294792917 
	46.56987358493778117 -3.427993718794121847 -9.694049254295130424 
	46.56544675935199251 -3.444520118722668833 -9.694049254295570961 
	46.56139362618899469 -3.459651435355136861 -9.694049254295974194 
	46.54774491976500883 -3.510353292005381043 -9.694049176800836776 
	46.53150801646964396 -3.570701484125982983 -9.694049094379046494 
	46.51737600960854735 -3.623226343675209904 -9.694049022642134972 
	46.50191579375408679 -3.680716573512510248 -9.694048953011042968 
	46.49186106168821198 -3.718124541700011498 -9.694048913421921654 
	46.48743198044013525 -3.734602646670143411 -9.694048895983025105 
	46.48378458717351691 -3.748175404317344306 -9.694048882504803899 
	46.47971674057856717 -3.76331569794697085 -9.694048868375686467 
	46.45039665590326905 -3.872443385254690007 -9.694048766536319306 
	46.41771181775379773 -3.994249462525603978 -9.694048700660697904 
	46.38553049427656561 -4.11463495893365927 -9.694048775970259157 
	46.36963637008084049 -4.174092489716291432 -9.694048813165109024 
	46.35388501657482152 -4.233136295288780104 -9.694048887034394824 
	46.3395662539057227 -4.286992393537268242 -9.694049010254200738 
	46.33249432001360901 -4.31359153309298371 -9.694049071111576765 
	46.32673372097924158 -4.335282688353820468 -9.694049128138388483 
	46.3184779874136936 -4.366478059873909245 -9.694049243366871238 
	46.31042149762993176 -4.396920562645696862 -9.694049355814431834 
	46.30042044085146813 -4.434820100767003836 -9.694049528991000031 
	46.29169799649852735 -4.468204788004483952 -9.694049781657311016 
	46.27823897358176453 -4.519718475271161218 -9.694050171529864812 
	46.26828853189238089 -4.559796802617703371 -9.694051072755451415 
	46.25951744523606379 -4.594576722990326267 -9.694051698598912026 
	46.25200832030628817 -4.624352596534750504 -9.694052234397600998 
	46.24659706969546846 -4.645431838218622822 -9.694052504293111383 
	46.23985445191485866 -4.671158111567443427 -9.694052674784465751 
	46.23169146782286276 -4.70230375364974762 -9.694052881190680537 
	46.22111992824542881 -4.741789321412730018 -9.694052887181294764 
	46.20797947816919304 -4.789764615206729914 -9.694052554743313621 
	46.19515615956852628 -4.836582073795438141 -9.694052230328386699 
	46.17978339179829561 -4.891837432321556101 -9.694051573889094442 
	46.16524659854152901 -4.943660959958497969 -9.694050821840704657 
	46.15423694183657233 -4.982910279835657263 -9.69405025226566508 
	46.14444031387916567 -5.018249175259881234 -9.694049872748266239 
	46.13527041842672105 -5.052325925757410907 -9.694049824576900676 
	46.11950075187476017 -5.110928446942881287 -9.694049741735565107 
	46.10611983540297132 -5.163891211039628004 -9.694050666838680996 
	46.09497695643372595 -5.214595529775717608 -9.694053466586256107 
	46.08668826452046829 -5.252312216624338781 -9.69405554919391399 
	46.07911943386328346 -5.290070495661769456 -9.694058470932628069 
	46.07180744012283213 -5.337872646209684824 -9.694064775848303839 
	46.0610605728421092 -5.408130278519936773 -9.694074042553717518 
	46.05476414200958857 -5.491455692716519899 -9.694092436156388715 
	46.05276257406843854 -5.540932736493827448 -9.694105352014096511 
	46.05177401405892823 -5.565369092543326346 -9.694111731063317805 
	46.05154997896332247 -5.576190323469806032 -9.694114801265486747 
	46.05123061884222579 -5.592655429133912115 -9.694119497454336098 
	46.05091896615473246 -5.608723166121579062 -9.694124080305416058 
	46.05072852702735275 -5.62669951311007388 -9.694129389170493383 
	46.05069499747757789 -5.644310908066629828 -9.694134765937363341 
	46.05066202395855868 -5.661630247892835754 -9.694140053539669566 
	46.05064723298905704 -5.710517488771181149 -9.694155068699295441 
	46.05064128432333348 -5.761770873858418796 -9.694170821565208485 
	46.050638373631962 -5.7868492347602416 -9.694178529466958238 
	46.05063746875187292 -5.812252231837175209 -9.694186339492272708 
	46.05063733397176406 -5.834156957679553557 -9.694193074732432081 
	46.05063707213979285 -5.876710399355537184 -9.694206159016223623 
	46.05063851245584061 -5.896367007898578372 -9.694212204800036758 
	46.05064017714097702 -5.922580625701032275 -9.694220267029463045 
	46.05064335711576007 -5.972655346682272715 -9.694235667951687674 
	46.0506494695626003 -6.031316879960158417 -9.694253712564073311 
	46.05065690954930346 -6.089108867970072225 -9.694271491327430823 
	46.05068404989171427 -6.299928376821234188 -9.694336346513905411 
	46.05072011647015273 -6.483816497144242241 -9.694392930924072616 
	46.05075730093614794 -6.683981035822713856 -9.694454521387029899 
	46.05078496080604822 -6.83287453073049722 -9.69450033579223458 
	46.05081236156274826 -6.979552204060258447 -9.694545468566051483 
	46.05083748024688362 -7.126908690010672842 -9.694590807445560898 
	46.05085616491847134 -7.236520623949332709 -9.694624533020880008 
	46.05087391581059109 -7.348757564444175827 -9.694659064676867999 
	46.0508882408676925 -7.455870390179496709 -9.694692016807108459 
	46.05089363383087431 -7.496195222488144516 -9.694704422316132053 
	46.05089882232506682 -7.537832917811424949 -9.694717231277337532 
	46.05090352641900608 -7.5799905492254398 -9.694730199555522177 
	46.05090762069034582 -7.616683009946118688 -9.694741486670617192 
	46.05091131605900756 -7.653540350869286968 -9.694752824026148019 
	46.0509144213073327 -7.689516840693310762 -9.69476388985495241 
	46.05091976146970723 -7.751386384482235492 -9.694782919998891302 
	46.05092346244884283 -7.808257657690035991 -9.694800411363328152 
	46.05092510165232511 -7.872688481379200631 -9.694820224816385945 
	46.05092632098286742 -7.92061570456370756 -9.694834963162605845 
	46.05092603717868371 -7.969895838811478228 -9.694850115784461764 
	46.05092370336014795 -8.015565599130384911 -9.694864155913899495 
	46.05092282474602428 -8.032758922280935465 -9.69486944161018549 
	46.05092166685704314 -8.049456474178033005 -9.694874574543206336 
	46.05092024688474339 -8.065460720578437659 -9.694879493993694197 
	46.0509178049278205 -8.092983567535489087 -9.69488795407856685 
	46.05091499024186419 -8.118840454375952476 -9.694895901476295208 
	46.05090854136008716 -8.154431251166949224 -9.69490683774255757 
	46.05089906305922653 -8.206741138607355879 -9.694922911416339772 
	46.05088178064688265 -8.268738741538509629 -9.694941954967786657 
	46.05085324681527226 -8.316595481973267923 -9.694956637487347706 
	46.05082540161883742 -8.363297248368185777 -9.694970965659145179 
	46.05078634568978657 -8.395687175900523158 -9.694980880272932922 
	46.05074518133626071 -8.410510223131073104 -9.694985390897992161 
	32.62713496197018515 -0.3645025932485518316 -8.0376995028680156 
	32.62508081603129284 -0.3906292818547074663 -8.037699512922733547 
	32.62097386067526372 -0.42441772817461898 -8.037699522402228069 
	32.61503208044889845 -0.4650491187583389308 -8.037699529761381356 
	32.60406219085610502 -0.5400639883300077937 -8.037699543348065134 
	32.58667052141483111 -0.6390280264818505307 -8.037699549287193435 
	32.57544459823974137 -0.7149616746447914339 -8.037699551479681404 
	32.57049961059595944 -0.7484102334898582454 -8.037699552445465301 
	32.56635221068599151 -0.7788797114489390827 -8.037699552951512061 
	32.56156549068958839 -0.811735462866920443 -8.037699553315714951 
	32.55272810730082256 -0.8723947184791706055 -8.037699553988117529 
	32.54322949241954888 -0.9355198225082083097 -8.037699553834345423 
	32.53385262176290382 -0.998188525117425951 -8.037699553096008032 
	32.51772701549803202 -1.105961241667637651 -8.037699551826271716 
	32.50247779067909448 -1.210457450699000015 -8.037699549091053441 
	32.48678572584301349 -1.316604092174562313 -8.037699545496339582 
	32.47511309695885018 -1.395561856253878741 -8.037699542822391408 
	32.4637718022004762 -1.473281433439372012 -8.037699539767972468 
	32.45184352258057459 -1.553190723573683485 -8.037699536208688045 
	32.44297060606614025 -1.612631689302431504 -8.037699533561093901 
	32.43389500670983949 -1.67282846118372297 -8.037699530649872415 
	32.42528475602560434 -1.7312880181770538 -8.0376995277518688 
	32.42204324958047579 -1.753296324058359001 -8.037699526660855298 
	32.41886682199795189 -1.775061683157693304 -8.037699525572357118 
	32.41578586548813234 -1.796470684368588033 -8.037699524501832116 
	32.41048747827391452 -1.833288204487243389 -8.037699522660826545 
	32.40558387209924973 -1.8686322416145702 -8.037699520920991603 
	32.39904855348295598 -1.910065808079090877 -8.037699518552843259 
	32.38944321131506143 -1.9709631577715232 -8.037699515072235457 
	32.37814447490501379 -2.038179895792137764 -8.037699510836040062 
	32.36958727143303349 -2.095165658282785781 -8.03769950777521025 
	32.36536093018737148 -2.123310516497057598 -8.037699506263487947 
	32.36177869273208785 -2.149051716927120381 -8.037699505039478609 
	32.35905487066363406 -2.171589551081743341 -8.037699504216316626 
	32.35639678528659147 -2.193583457398273762 -8.037699503413021418 
	32.35476318108327831 -2.211753599130290571 -8.037699502876817448 
	32.35294795955515212 -2.230603505070734016 -8.037699502876652247 
	32.34741844838382008 -2.288023915671481223 -8.03769950287615309 
	32.33137197335948798 -2.384706663940424853 -8.037699502874632529 
	32.31657521609442796 -2.476723917055234203 -8.037699502873138613 
	32.29112891418941444 -2.634967967510696951 -8.037699502870571777 
	32.27319664839031788 -2.765160326525434531 -8.037699502868671075 
	32.25242208331489735 -2.905963668324148763 -8.037699502866743728 
	32.22188848309513531 -3.112910621604691119 -8.037699502863910439 
	32.19144355515581424 -3.319526541856760105 -8.03769950286162782 
	32.16095700609444918 -3.526297848887747222 -8.03769950286094037 
	32.15333650591038861 -3.577982963530157878 -8.037699502860768064 
	32.14571600580738675 -3.629668078194279168 -8.037699502860695233 
	32.13809550579876628 -3.681353192883684677 -8.037699502860739642 
	32.13242695488200695 -3.719799450205901525 -8.037699502860771616 
	32.12579956175076745 -3.761825295041494321 -8.037699502860878198 
	32.11886533407808741 -3.804996626990887254 -8.037699502861105572 
	32.10867369180679987 -3.86844807282916614 -8.037699502861441303 
	32.09815003604177974 -3.933139005403683441 -8.037699502862075462 
	32.09087815349721495 -3.985690290731556562 -8.03769950286264212 
	32.0837817704848689 -4.036973303925503131 -8.037699502863194567 
	32.08171198375777067 -4.06949083011705337 -8.037699502863420165 
	32.07876076670058296 -4.105298946723540787 -8.037699502863713263 
	32.07605867792525345 -4.138084305466383839 -8.037699502863981493 
	32.06695954030926288 -4.194583357554409808 -8.037699451200557732 
	32.0561349381123506 -4.257513299956008801 -8.037699396252698136 
	32.04671360020494575 -4.312285220537810382 -8.037699348428089863 
	32.03640678963530775 -4.370367387978327578 -8.037699302007361268 
	32.02970363492472927 -4.41506138098564449 -8.037699275614613725 
	32.02675091409268049 -4.434748959434639204 -8.037699263988683285 
	32.02431931858159686 -4.452499639668347164 -8.037699255003202481 
	32.02160742085163037 -4.471295343890338003 -8.037699245583791452 
	32.00206069773476258 -4.606770373849609079 -8.037699177690880603 
	31.98027080563511504 -4.750697663784342772 -8.037699133773799076 
	31.95881658998362695 -4.893677899810504606 -8.037699183980173245 
	31.94822050718647688 -4.964294809973983647 -8.037699208776739823 
	31.93771960484913208 -5.034635903330700657 -8.037699258022930948 
	31.92817376306973287 -5.10151852513808457 -8.037699340169467632 
	31.92345914047498923 -5.134551370984036467 -8.037699380741051058 
	31.91961874111874664 -5.164312227300067448 -8.037699418758926129 
	31.91411491874171347 -5.200409227788933997 -8.037699495577914632 
	31.90874392555253891 -5.235635063670641465 -8.03769957054295503 
	31.90207655436689649 -5.275832256452028801 -8.03769968599399931 
	31.89626159146493478 -5.313019548644198231 -8.037699854438207225 
	31.88728890952042505 -5.370400782341405055 -8.037700114353242498 
	31.88065528172750618 -5.420158442758521211 -8.037700715170300825 
	31.87480789062329478 -5.466383831859690901 -8.037701132399273973 
	31.8698018073367777 -5.505958429089122141 -8.037701489598399363 
	31.86619430692956456 -5.539735271744852696 -8.037701669528740211 
	31.86169922840915802 -5.576610135510548183 -8.037701783189643123 
	31.85625723901449291 -5.621252874593189119 -8.037701920793786314 
	31.84920954596287146 -5.671455564129615823 -8.037701924787530317 
	31.84044924591204762 -5.727318071020054191 -8.037701703162209554 
	31.83190036684493762 -5.781832392792308539 -8.037701486885591606 
	31.82165185499811599 -5.841971981189503005 -8.037701049259394992 
	31.81196065949360374 -5.899823682327245855 -8.037700547893802394 
	31.80462088835696477 -5.94363852911460544 -8.03770016817710875 
	31.79808980305202581 -5.984846426266673625 -8.0376999151655113 
	31.79197653941706392 -6.025212893467613462 -8.037699883051267591 
	31.78146342838242333 -6.094631975826922954 -8.037699827823709953 
	31.77254281740123076 -6.160291220127082745 -8.037700444559121138 
	31.76511423142173385 -6.224444834186804165 -8.037702311057504545 
	31.75958843681289423 -6.272165853461156182 -8.037703699462609208 
	31.75454254970810553 -6.319914600861381793 -8.037705647288419186 
	31.74966788721447131 -6.374359262601930531 -8.037709850565535774 
	31.74250330902732387 -6.454379784314427049 -8.037716028369144894 
	31.73830568847230893 -6.543112160617812201 -8.037728290770925099 
	31.73697130984487558 -6.609278956641679414 -8.037736901342730889 
	31.73631226983853537 -6.641958261281851961 -8.037741154042212344 
	31.73616291310813153 -6.665560815840011699 -8.037743200843658897 
	31.73595000636073493 -6.692925953556589036 -8.037746331636224539 
	31.73574223790240723 -6.719630661344755396 -8.037749386870277846 
	31.73561527848415409 -6.747607775800140928 -8.037752926113663321 
	31.73559292545096966 -6.77534158890089877 -8.037756510624909367 
	31.73557094310495685 -6.802615483726003553 -8.037760035693112926 
	31.73556108245862362 -6.850934645919199539 -8.037770045799529584 
	31.73555711668147339 -6.900831237584990951 -8.037780547710138279 
	31.73555517622056144 -6.925245717359072906 -8.03778568631130419 
	31.73555457296716398 -6.949876621249895692 -8.037790892994847169 
	31.73555448311375926 -6.972175344317681933 -8.03779538315495401 
	31.73555430855911297 -7.01549418876896258 -8.03780410601081563 
	31.73555526876981148 -7.043548477798280416 -8.037808136533358905 
	31.73555637855990241 -7.07597410633387458 -8.037813511352975837 
	31.73555849854308875 -7.137915358159450996 -8.037823778634459515 
	31.73556257350765364 -7.205581151516125438 -8.037835808376048163 
	31.7355675334987879 -7.272667248027484987 -8.037847660884953171 
	31.7355856270603951 -7.517390753902386535 -8.03789089767593623 
	31.73560967144601719 -7.744160000758517626 -8.037928620616048292 
	31.73563446109001518 -7.98178019318495835 -8.037969680924685889 
	31.7356529010032844 -8.158535282496080399 -8.038000223861489602 
	31.73567116817441658 -8.333813157421854356 -8.038030312377367537 
	31.73568791396384015 -8.509543574094731611 -8.03806053829704048 
	31.73570037041156411 -8.640261612728213692 -8.038083022013919887 
	31.73571220433964513 -8.772729655732483423 -8.038106043117911881 
	31.73572175437771392 -8.901781622230405588 -8.038128011204738854 
	31.73572534968650061 -8.950365896544942856 -8.038136281544087325 
	31.73572880868262658 -8.999825412869233432 -8.038144820851558237 
	31.73573194474525394 -9.049631553254014804 -8.038153466370347999 
	31.73573467425947925 -9.092980996484586242 -8.038160991113745268 
	31.73573713783859063 -9.136440359850150017 -8.038168549350764636 
	31.73573920800414072 -9.179312489149619836 -8.038175926569968155 
	31.73574276811239159 -9.25304061254332133 -8.038188613332593491 
	31.73574523543181414 -9.323436555549609039 -8.038200274242219834 
	31.73574632823413566 -9.398872198876803807 -8.038213483210924437 
	31.73574714112116624 -9.454985417780404688 -8.038223308775071629 
	31.73574695191837236 -9.512000577392846878 -8.038233410522973799 
	31.73574539603934852 -9.566608821052712486 -8.038242770609265619 
	31.73574481029659822 -9.587167220601383377 -8.038246294406789616 
	31.73574403837061197 -9.607395105981083816 -8.038249716362138031 
	31.73574309172241215 -9.627160787696324107 -8.038252995995796013 
	31.73574146375112903 -9.661152255912945463 -8.038258636052377781 
	31.73573958729382483 -9.694033084051843829 -8.038263934317528836 
	31.73573528803930799 -9.733403185491097176 -8.038271225161704336 
	31.73572896917206876 -9.791267739266011461 -8.038281940944225212 
	31.7357174475638395 -9.855590770034757142 -8.03829463664519217 
	31.73569842500943139 -9.91048655913924037 -8.038304424991565611 
	31.73567986154514386 -9.964057493881803396 -8.038313977106097852 
	31.73565382425910997 -10.00808720271597885 -8.038320586848621829 
	31.7356263813567594 -10.04040565801563112 -8.038323593931995248 
	17.86626187168396385 -0.3553030522178477479 -6.381349751434006734 
	17.86523479871452125 -0.3960044527839994277 -6.381349756461365708 
	17.86318132103651024 -0.440536732207029047 -6.381349761201113857 
	17.8602104309233205 -0.4884904837619629125 -6.3813497648806905 
	17.85472548612692378 -0.5770241117448285939 -6.38134977167403239 
	17.84602965140628683 -0.6775323240177811845 -6.381349774643597428 
	17.84041668981874196 -0.7665253412962829138 -6.381349775739840524 
	17.83794419599685455 -0.8057265155748126739 -6.381349776222732473 
	17.83587049604187058 -0.843438149410349558 -6.381349776475755853 
	17.83347713604366547 -0.8823429199753366481 -6.381349776657857298 
	17.82905844434928255 -0.9541700528329933872 -6.381349776994057699 
	17.82430913690864571 -1.027230109899043953 -6.381349776917172534 
	17.81962070158032319 -1.100061966255184709 -6.38134977654800295 
	17.81155789844788373 -1.225312477021966773 -6.381349775913134792 
	17.80393328603842207 -1.348924734029324002 -6.381349774545526543 
	17.79608725362037802 -1.473362207258781309 -6.381349772748169613 
	17.79025093917829636 -1.565925707312052051 -6.381349771411195526 
	17.78458029179911293 -1.65787011391841177 -6.381349769883985168 
	17.77861615198916212 -1.750909376999180145 -6.381349768104342957 
	17.77417969373194495 -1.820117145444082318 -6.381349766780546773 
	17.76964189405379457 -1.889702816965256327 -6.38134976532493603 
	17.765336768711677 -1.958419881042449795 -6.381349763875934222 
	17.76371601548911272 -1.984289837013013535 -6.381349763330427471 
	17.76212780169785077 -2.010038319592591272 -6.381349762786178381 
	17.760587323442941 -2.035608623227949998 -6.38134976225091588 
	17.75793812983583209 -2.079582424680016306 -6.381349761330413095 
	17.75548632674849259 -2.122819484636418341 -6.381349760460495624 
	17.75221866744034926 -2.16910130926141731 -6.381349759276421452 
	17.74741599635640554 -2.237124429139495163 -6.381349757536117551 
	17.74176662815137817 -2.308307243181663804 -6.381349755418019853 
	17.73748802641538802 -2.374374569458849837 -6.381349753887604948 
	17.73537485579256057 -2.407004746706589593 -6.381349753131743796 
	17.73358373706491875 -2.438433095062225053 -6.381349752519737351 
	17.73222182603068831 -2.468259760280139936 -6.381349752108157247 
	17.73089278334216701 -2.497366589092382849 -6.381349751706509643 
	17.73007598124051398 -2.524561535612369401 -6.381349751438407658 
	17.72916837047645089 -2.552096364236569048 -6.381349751438325946 
	17.72640361489078487 -2.635972706665975718 -6.381349751438075479 
	17.71838037737861526 -2.739480217929480155 -6.381349751437316087 
	17.71098199874608525 -2.840654981615918118 -6.381349751436569129 
	17.6982588477935785 -3.014647400077270945 -6.381349751435284823 
	17.68929271489403376 -3.174613972818262297 -6.38134975143433536 
	17.67890543235631995 -3.339886036951241977 -6.381349751433371686 
	17.66363863224643893 -3.58279611065958381 -6.381349751431955042 
	17.64841616827678195 -3.825540667853686738 -6.381349751430813733 
	17.63317289374609942 -4.068362918437251174 -6.381349751430470008 
	17.62936264365406913 -4.129059424346840146 -6.381349751430383854 
	17.6255523936025611 -4.189755930267283546 -6.381349751430346551 
	17.62174214359825442 -4.250452436200370165 -6.381349751430368755 
	17.6189078681398783 -4.295601866547696268 -6.381349751430384742 
	17.61559417157425145 -4.342541090651709013 -6.381349751430438921 
	17.61212705773791498 -4.390053058312623158 -6.381349751430552608 
	17.60703123660227121 -4.45988419176573192 -6.381349751430720474 
	17.60176940871976115 -4.530335068586960112 -6.381349751431037554 
	17.59813346744747875 -4.594716121784867546 -6.381349751431320882 
	17.59458527594130572 -4.657543403363025192 -6.381349751431597106 
	17.59355038257776016 -4.710987941439984006 -6.381349751431709905 
	17.59207477404916276 -4.766077774724412741 -6.381349751431856454 
	17.590723729661498 -4.816517175577629928 -6.381349751431990569 
	17.58617416085349916 -4.878813423103438573 -6.3813497256002778 
	17.58076185975504657 -4.944325115786034175 -6.381349698126348002 
	17.5760511908013477 -5.001344097400409971 -6.381349674214043866 
	17.5708977855165287 -5.060018202444144464 -6.381349651003680457 
	17.56754620816123591 -5.11199822027127837 -6.381349637807306685 
	17.56606984774520797 -5.134895272199136329 -6.381349631994341465 
	17.5648540499896697 -5.156823875019349579 -6.381349627501600175 
	17.56349810112468646 -5.179274989833705156 -6.38134962279189466 
	17.55372473956625257 -5.341097362444527263 -6.381349588845439236 
	17.54282979351643235 -5.507145865043080235 -6.381349566886898472 
	17.5321026856906883 -5.672720840687349053 -6.381349591990085557 
	17.52680464429211327 -5.754497130231675861 -6.381349604388368846 
	17.52155419312343909 -5.836135511372622098 -6.381349629011464408 
	17.51678127223373949 -5.916044656738900898 -6.38134967008473275 
	17.51442396093636944 -5.955511208875088336 -6.381349690370524463 
	17.51250376125824459 -5.993341766246314428 -6.381349709379461999 
	17.50975185006972978 -6.034340395703959636 -6.38134974778895625 
	17.50706635347514251 -6.074349564695587844 -6.381349785271476449 
	17.50373266788232129 -6.116844412137054654 -6.381349842997000366 
	17.50082518643134222 -6.157834309283913399 -6.381349927219103435 
	17.49633884545908913 -6.221083089411648004 -6.381350057176621959 
	17.49302203156262436 -6.280520082899337275 -6.381350357585150235 
	17.49009833601051866 -6.338190940729054645 -6.381350566199636809 
	17.48759529436726012 -6.387564261643493779 -6.381350744799199504 
	17.48579154416365355 -6.43403870527108257 -6.381350834764369928 
	17.48354400490345029 -6.482062159453653827 -6.381350891594821384 
	17.48082301020611951 -6.540201995536632396 -6.38135096039689298 
	17.477299163680307 -6.601121806846502515 -6.381350962393764092 
	17.47291901365489508 -6.664871526833379356 -6.381350851581103711 
	17.46864457412133831 -6.727082711789179825 -6.381350743442794737 
	17.46352031819792927 -6.792106530057449021 -6.381350524629697318 
	17.45867472044567492 -6.855986404695993741 -6.381350273946901019 
	17.45500483487735721 -6.904366778393552728 -6.381350084088554198 
	17.45173929222488951 -6.951443677273467792 -6.381349957582754584 
	17.44868266040740679 -6.998099861177816905 -6.38134994152563273 
	17.44342610489008649 -7.078335504710964621 -6.381349913911853911 
	17.43896579939949021 -7.156691229214536598 -6.381350222279559503 
	17.43525150640974175 -7.23429413859789161 -6.381351155528751207 
	17.43248860910532372 -7.292019490297974471 -6.381351849731304426 
	17.42996566555292759 -7.349758706060996793 -6.381352823644209415 
	17.42752833430611048 -7.410845878994177127 -6.381354925282767709 
	17.42394604521253498 -7.500629290108919989 -6.381358014184572269 
	17.42184723493502929 -7.594768628519103615 -6.38136414538546326 
	17.42118004562131262 -7.67762517678953138 -6.381368450671365267 
	17.42085052561814251 -7.718547430020377575 -6.381370577021105994 
	17.42077584725294059 -7.754931308210217367 -6.381371600421827495 
	17.42066939387924052 -7.793196477979265957 -6.381373165818111204 
	17.42056550965007489 -7.830538156567931729 -6.381374693435137857 
	17.42050202994094832 -7.868516038490206199 -6.381376463056830595 
	17.42049085342435788 -7.906372269735168601 -6.381378255312453618 
	17.42047986225135148 -7.943600719559170464 -6.381380017846555397 
	17.42047493192818308 -7.991351803067217929 -6.381385022899764614 
	17.42047294903960974 -8.039891601311563107 -6.381390273855068962 
	17.42047197880915022 -8.063642199957904211 -6.381392843155651917 
	17.42047167718245859 -8.087501010662617063 -6.381395446497423407 
	17.42047163225575446 -8.11019373095581031 -6.381397691577476827 
	17.42047154497842953 -8.154277978182388864 -6.381402053005407637 
	17.42047202508377879 -8.190729947697983349 -6.381404068266678387 
	17.42047257997882426 -8.229367586966716885 -6.381406755676486853 
	17.42047363997042098 -8.303175369636630165 -6.381411889317228692 
	17.42047567745269632 -8.379845423072092458 -6.381417904188023904 
	17.42047815744826522 -8.45622562808489775 -6.381423830442476408 
	17.42048720422906882 -8.734853130983537994 -6.381445448837967938 
	17.4204992264218852 -9.004503504372792122 -6.381464310308023968 
	17.42051162124388242 -9.279579350547201955 -6.381484840462342767 
	17.42052084120051347 -9.484196034261662689 -6.381500111930744623 
	17.42052997478608134 -9.688074110783448489 -6.381515156188683591 
	17.42053834768079312 -9.892178458178790379 -6.381530269148520063 
	17.42054457590465688 -10.04400260150709734 -6.381541511006959766 
	17.42055049286869561 -10.19670174702079102 -6.381553021558955763 
	17.42055526788772823 -10.34769285428131447 -6.381564005602369249 
	17.42055706554212335 -10.40453657060173853 -6.381568140772043485 
	17.42055879504018989 -10.46181790792704369 -6.381572410425778941 
	17.4205603630715018 -10.5192725572825907 -6.381576733185173822 
	17.42056172782861623 -10.56927898302305202 -6.381580495556872457 
	17.42056295961816659 -10.61934036883101662 -6.38158427467538214 
	17.42056399470094163 -10.66910813760592802 -6.3815879632849839 
	17.42056577475506529 -10.75469484060440806 -6.381594306666297456 
	17.42056700841477834 -10.83861545340917942 -6.381600137121108851 
	17.4205675548159391 -10.9250559163744061 -6.381606741605461153 
	17.42056796125945084 -10.98935513099709738 -6.381611654387534749 
	17.42056786665806101 -11.05410531597421198 -6.381616705261486722 
	17.42056708871854909 -11.11765204297503828 -6.381621385304632632 
	17.42056679584717571 -11.14157551892182774 -6.38162314720339463 
	17.42056640988418081 -11.1653337377841364 -6.381624858181068838 
	17.4205659365600809 -11.18886085481421055 -6.381626497997897829 
	17.42056512257444112 -11.22932094429040539 -6.381629318026188713 
	17.42056418434578902 -11.26922571372773518 -6.38163196715876424 
	17.42056203471852882 -11.31237511981524335 -6.381635612580851991 
	17.42055887528490743 -11.37579433992466704 -6.381640970472112429 
	17.4205531144807928 -11.44244279853100821 -6.381647318322594131 
	17.42054360320359052 -11.50437763630521459 -6.38165221249578174 
	17.42053432147144321 -11.56481773939542279 -6.38165698855304786 
	17.42052130282842626 -11.62048722953143987 -6.381660293424310737 
	17.42050758137725097 -11.67030109290019091 -6.381661796965996558 
	3.105388781397749653 -0.3461035111871436643 -4.724999999999999645 
	3.105388781397749653 -0.4013796237132913891 -4.724999999999999645 
	3.105388781397749653 -0.456655736239439225 -4.724999999999999645 
	3.105388781397749653 -0.5119318487655869498 -4.724999999999999645 
	3.105388781397749653 -0.6139842351596493941 -4.724999999999999645 
	3.105388781397749653 -0.7160366215537119494 -4.724999999999999645 
	3.105388781397749653 -0.8180890079477743937 -4.724999999999999645 
	3.105388781397749653 -0.8630427976597671025 -4.724999999999999645 
	3.105388781397749653 -0.9079965873717599223 -4.724999999999999645 
	3.105388781397749653 -0.9529503770837527421 -4.724999999999999645 
	3.105388781397749653 -1.03594538718681628 -4.724999999999999645 
	3.105388781397749653 -1.118940397289879929 -4.724999999999999645 
	3.105388781397749653 -1.201935407392943578 -4.724999999999999645 
	3.105388781397749653 -1.344663712376295894 -4.724999999999999645 
	3.105388781397749653 -1.487392017359648211 -4.724999999999999645 
	3.105388781397749653 -1.630120322343000527 -4.724999999999999645 
	3.105388781397749653 -1.736289558370225805 -4.724999999999999645 
	3.105388781397749653 -1.842458794397451305 -4.724999999999999645 
	3.105388781397749653 -1.948628030424676805 -4.724999999999999645 
	3.105388781397749653 -2.027602601585733133 -4.724999999999999645 
	3.105388781397749653 -2.106577172746789461 -4.724999999999999645 
	3.105388781397749653 -2.18555174390784579 -4.724999999999999645 
	3.105388781397749653 -2.21528334996766807 -4.724999999999999645 
	3.105388781397749653 -2.245014956027489461 -4.724999999999999645 
	3.105388781397749653 -2.274746562087311741 -4.724999999999999645 
	3.105388781397749653 -2.325876644872789001 -4.724999999999999645 
	3.105388781397749653 -2.377006727658266705 -4.724999999999999645 
	3.105388781397749653 -2.428136810443743965 -4.724999999999999645 
	3.105388781397749653 -2.50328570050746757 -4.724999999999999645 
	3.105388781397749653 -2.578434590571190732 -4.724999999999999645 
	3.105388781397749653 -2.653583480634914338 -4.724999999999999645 
	3.105388781397749653 -2.690698976916121588 -4.724999999999999645 
	3.105388781397749653 -2.727814473197328837 -4.724999999999999645 
	3.105388781397749653 -2.764929969478536087 -4.724999999999999645 
	3.105388781397749653 -2.801149720786491937 -4.724999999999999645 
	3.105388781397749653 -2.837369472094447787 -4.724999999999999645 
	3.105388781397749653 -2.873589223402403636 -4.724999999999999645 
	3.105388781397749653 -2.983921497660469768 -4.724999999999999645 
	3.105388781397749653 -3.094253771918535456 -4.724999999999999645 
	3.105388781397749653 -3.204586046176601588 -4.724999999999999645 
	3.105388781397749653 -3.394326832643844938 -4.724999999999999645 
	3.105388781397749653 -3.584067619111090508 -4.724999999999999645 
	3.105388781397749653 -3.77380840557833519 -4.724999999999999645 
	3.105388781397749653 -4.052681599714476057 -4.724999999999999645 
	3.105388781397749653 -4.33155479385061426 -4.724999999999999645 
	3.105388781397749653 -4.610427987986755127 -4.724999999999999645 
	3.105388781397749653 -4.680135885163521969 -4.724999999999999645 
	3.105388781397749653 -4.749843782340287923 -4.724999999999999645 
	3.105388781397749653 -4.819551679517054765 -4.724999999999999645 
	3.105388781397749653 -4.871404282889489679 -4.724999999999999645 
	3.105388781397749653 -4.923256886261924592 -4.724999999999999645 
	3.105388781397749653 -4.975109489634359505 -4.724999999999999645 
	3.105388781397749653 -5.051320310702299032 -4.724999999999999645 
	3.105388781397749653 -5.127531131770238559 -4.724999999999999645 
	3.105388781397749653 -5.203741952838178975 -4.724999999999999645 
	3.105388781397749653 -5.27811350280054814 -4.724999999999999645 
	3.105388781397749653 -5.352485052762915529 -4.724999999999999645 
	3.105388781397749653 -5.426856602725284695 -4.724999999999999645 
	3.105388781397749653 -5.494950045688876905 -4.724999999999999645 
	3.105388781397749653 -5.563043488652468227 -4.724999999999999645 
	3.105388781397749653 -5.631136931616060437 -4.724999999999999645 
	3.105388781397749653 -5.690402974263010449 -4.724999999999999645 
	3.105388781397749653 -5.74966901690996135 -4.724999999999999645 
	3.105388781397749653 -5.808935059556911362 -4.724999999999999645 
	3.105388781397749653 -5.835041584963631678 -4.724999999999999645 
	3.105388781397749653 -5.861148110370351993 -4.724999999999999645 
	3.105388781397749653 -5.887254635777072309 -4.724999999999999645 
	3.105388781397749653 -6.075424351039446336 -4.724999999999999645 
	3.105388781397749653 -6.263594066301819474 -4.724999999999999645 
	3.105388781397749653 -6.451763781564194389 -4.724999999999999645 
	3.105388781397749653 -6.544699450489368076 -4.724999999999999645 
	3.105388781397749653 -6.63763511941454265 -4.724999999999999645 
	3.105388781397749653 -6.730570788339717225 -4.724999999999999645 
	3.105388781397749653 -6.776471046766141093 -4.724999999999999645 
	3.105388781397749653 -6.822371305192561408 -4.724999999999999645 
	3.105388781397749653 -6.868271563618984388 -4.724999999999999645 
	3.105388781397749653 -6.913064065720532447 -4.724999999999999645 
	3.105388781397749653 -6.957856567822079619 -4.724999999999999645 
	3.105388781397749653 -7.002649069923627678 -4.724999999999999645 
	3.105388781397749653 -7.071765396481891841 -4.724999999999999645 
	3.105388781397749653 -7.140881723040155116 -4.724999999999999645 
	3.105388781397749653 -7.209998049598419279 -4.724999999999999645 
	3.105388781397749653 -7.269170094197865417 -4.724999999999999645 
	3.105388781397749653 -7.328342138797312444 -4.724999999999999645 
	3.105388781397749653 -7.387514183396758582 -4.724999999999999645 
	3.105388781397749653 -7.459151116480073895 -4.724999999999999645 
	3.105388781397749653 -7.53078804956338832 -4.724999999999999645 
	3.105388781397749653 -7.602424982646703633 -4.724999999999999645 
	3.105388781397749653 -7.672333030786050223 -4.724999999999999645 
	3.105388781397749653 -7.742241078925395925 -4.724999999999999645 
	3.105388781397749653 -7.812149127064741627 -4.724999999999999645 
	3.105388781397749653 -7.865095027672500905 -4.724999999999999645 
	3.105388781397749653 -7.918040928280260182 -4.724999999999999645 
	3.105388781397749653 -7.97098682888801946 -4.724999999999999645 
	3.105388781397749653 -8.062039033595006288 -4.724999999999999645 
	3.105388781397749653 -8.153091238301991339 -4.724999999999999645 
	3.105388781397749653 -8.244143443008978167 -4.724999999999999645 
	3.105388781397749653 -8.311873127134791872 -4.724999999999999645 
	3.105388781397749653 -8.37960281126060913 -4.724999999999999645 
	3.105388781397749653 -8.447332495386422835 -4.724999999999999645 
	3.105388781397749653 -8.546878795903410264 -4.724999999999999645 
	3.105388781397749653 -8.646425096420395917 -4.724999999999999645 
	3.105388781397749653 -8.745971396937383346 -4.724999999999999645 
	3.105388781397749653 -8.79513659875890319 -4.724999999999999645 
	3.105388781397749653 -8.844301800580423034 -4.724999999999999645 
	3.105388781397749653 -8.893467002401942878 -4.724999999999999645 
	3.105388781397749653 -8.941445651791108062 -4.724999999999999645 
	3.105388781397749653 -8.989424301180273247 -4.724999999999999645 
	3.105388781397749653 -9.037402950569438431 -4.724999999999999645 
	3.105388781397749653 -9.084585955392338263 -4.724999999999999645 
	3.105388781397749653 -9.131768960215236319 -4.724999999999999645 
	3.105388781397749653 -9.178951965038136152 -4.724999999999999645 
	3.105388781397749653 -9.202038682556736404 -4.724999999999999645 
	3.105388781397749653 -9.225125400075338433 -4.724999999999999645 
	3.105388781397749653 -9.248212117593938686 -4.724999999999999645 
	3.105388781397749653 -9.29306176759581426 -4.724999999999999645 
	3.105388781397749653 -9.337911417597686281 -4.724999999999999645 
	3.105388781397749653 -9.382761067599560079 -4.724999999999999645 
	3.105388781397749653 -9.468435381113810223 -4.724999999999999645 
	3.105388781397749653 -9.554109694628060367 -4.724999999999999645 
	3.105388781397749653 -9.639784008142310512 -4.724999999999999645 
	3.105388781397749653 -9.95231550806469123 -4.724999999999999645 
	3.105388781397749653 -10.26484700798706839 -4.724999999999999645 
	3.105388781397749653 -10.57737850790944734 -4.724999999999999645 
	3.105388781397749653 -10.80985678602724676 -4.724999999999999645 
	3.105388781397749653 -11.0423350641450444 -4.724999999999999645 
	3.105388781397749653 -11.27481334226284915 -4.724999999999999645 
	3.105388781397749653 -11.44774359028597921 -4.724999999999999645 
	3.105388781397749653 -11.62067383830909861 -4.724999999999999645 
	3.105388781397749653 -11.79360408633222335 -4.724999999999999645 
	3.105388781397749653 -11.85870724465853598 -4.724999999999999645 
	3.105388781397749653 -11.92381040298485217 -4.724999999999999645 
	3.105388781397749653 -11.98891356131116481 -4.724999999999999645 
	3.105388781397749653 -12.04557696956152135 -4.724999999999999645 
	3.105388781397749653 -12.10224037781187967 -4.724999999999999645 
	3.105388781397749653 -12.15890378606223621 -4.724999999999999645 
	3.105388781397749653 -12.25634906866549301 -4.724999999999999645 
	3.105388781397749653 -12.35379435126875158 -4.724999999999999645 
	3.105388781397749653 -12.45123963387200838 -4.724999999999999645 
	3.105388781397749653 -12.52372484421379362 -4.724999999999999645 
	3.105388781397749653 -12.59621005455558063 -4.724999999999999645 
	3.105388781397749653 -12.66869526489736586 -4.724999999999999645 
	3.105388781397749653 -12.69598381724227565 -4.724999999999999645 
	3.105388781397749653 -12.72327236958718721 -4.724999999999999645 
	3.105388781397749653 -12.750560921932097 -4.724999999999999645 
	3.105388781397749653 -12.79748963266786177 -4.724999999999999645 
	3.105388781397749653 -12.84441834340362654 -4.724999999999999645 
	3.105388781397749653 -12.8913470541393913 -4.724999999999999645 
	3.105388781397749653 -12.96032094058332262 -4.724999999999999645 
	3.105388781397749653 -13.02929482702725572 -4.724999999999999645 
	3.105388781397749653 -13.09826871347118704 -4.724999999999999645 
	3.105388781397749653 -13.16557798490904041 -4.724999999999999645 
	3.105388781397749653 -13.23288725634689555 -4.724999999999999645 
	3.105388781397749653 -13.30019652778474892 -4.724999999999999645 
	0.000440041350736727053 
	
	0 
	5 0.1951109744987075678 0.3922121822831101112 0.5138565509918524565 0.5763464571631242706 0.6709307574251979212 
	0 
	0 
	0 
	0 
	F } I I I I #
coedge $-1 -1 $-1 $11 $12 $-1 $13 forward $8 0 $14 #
coedge $-1 -1 $-1 $15 $10 $-1 $16 forward $8 0 $17 #
coedge $-1 -1 $-1 $10 $15 $-1 $18 reversed $8 0 $19 #
edge $20 -1 $-1 $21 0 $22 3.089432129980090647 $10 $23 forward @7 unknown #
pcurve $-1 -1 $-1 0 forward { exp_par_cur nubs 3 open 9 
	0 3 0.4083634549129150915 3 0.5953612556505076814 3 2.34660084323031537 3 2.450180732525830685 3 
	2.722413360689534656 3 2.875240260013076199 3 3.013832373777742379 3 3.089432129980090647 3 
	0 0 
	0.04858171759724241867 1.034090682834220934e-20 
	0.1669553775149316133 3.330012111032837699e-16 
	0.1951109744987074013 1.983899293667345798e-16 
	0.2080039859841324446 1.36748728773573812e-16 
	0.2093514796243688414 0 
	0.2142087477137285534 0 
	0.2596971980164749505 0 
	0.3142012409187425748 7.204884023433943376e-17 
	0.3735872870458067929 4.023470202024832875e-18 
	0.3770997705044753512 0 
	0.383192669134699293 0 
	0.3922121822831102778 0 
	0.4159176118394568022 0 
	0.4868760967902738823 0 
	0.5138565509918525676 0 
	0.5290029321798142004 0 
	0.5436703124811100851 8.919500752869560326e-17 
	0.5763464571631242706 4.241907382657818663e-17 
	0.6059790413561270128 0 
	0.6138081567704303243 0 
	0.6709307574251975881 0 
	0.7020902120712056993 0 
	0.9317453624340047424 0 
	0.9999999999999961142 0 
	5.053368625313240291e-11 
	spline forward { ref 0 } I I I I 
	} 0 0 #
coedge $-1 -1 $-1 $12 $11 $-1 $24 reversed $8 0 $25 #
edge $26 -1 $-1 $22 0 $27 1 $11 $28 forward @7 unknown #
pcurve $-1 -1 $-1 0 forward { exp_par_cur nubs 1 open 2 
	0 1 1 1 
	1 0 
	1 1 
	7.199457478475723617e-15 
	spline forward { ref 0 } I I I I 
	} 0 0 #
edge $29 -1 $-1 $21 0 $30 1 $12 $31 forward @7 unknown #
pcurve $-1 -1 $-1 0 forward { exp_par_cur nubs 1 open 2 
	-1 1 -0 1 
	0 1 
	0 0 
	2.181489979809190204e-14 
	spline forward { ref 0 } I I I I 
	} 0 0 #
ATTRIB_CUSTOM-attrib $-1 -1 $-1 $-1 $13 @22 generic_tag_attrib_def 3 3 -1 @23 generic_tag_attrib_def  1 1 @1 9 0 2 658 740 0 #
vertex $-1 -1 $-1 $13 0 $32 #
vertex $-1 -1 $-1 $13 1 $33 #
intcurve-curve $-1 -1 $-1 forward { ref 1 } F 0 F 3.089432129980090647 #
edge $34 -1 $-1 $30 0 $27 12.95409301659760004 $15 $35 forward @7 unknown #
pcurve $-1 -1 $-1 0 forward { exp_par_cur nubs 1 open 2 
	-12.95409301659760004 1 -0 1 
	0.9999999999999995559 1 
	0 1 
	6.160405519040068561e-14 
	spline forward { ref 0 } I I I I 
	} 0 0 #
ATTRIB_CUSTOM-attrib $-1 -1 $-1 $-1 $16 @22 generic_tag_attrib_def 3 3 -1 @23 generic_tag_attrib_def  1 2 @2 10 0 2 658 740 0 #
vertex $-1 -1 $-1 $24 1 $36 #
straight-curve $-1 -1 $-1 46.05074518133626071 -8.410510223131073104 -9.694985390897992161 -42.94535639993851106 -4.889686304653675819 4.969985390897992517 F 0 F 1 #
ATTRIB_CUSTOM-attrib $-1 -1 $-1 $-1 $18 @22 generic_tag_attrib_def 3 3 -1 @23 generic_tag_attrib_def  1 2 @2 10 0 2 658 740 0 #
vertex $-1 -1 $-1 $24 0 $37 #
straight-curve $-1 -1 $-1 47.38800805225639579 -0.3737021342792559153 -9.694049254302022689 -44.28261927085864613 0.02759862309211225107 4.969049254302023044 F 0 F 1 #
point $-1 -1 $-1 47.38800805225639579 -0.3737021342792559153 -9.694049254302022689 #
point $-1 -1 $-1 46.05074518133626071 -8.410510223131073104 -9.694985390897992161 #
ATTRIB_CUSTOM-attrib $-1 -1 $-1 $-1 $24 @22 generic_tag_attrib_def 3 3 -1 @23 generic_tag_attrib_def  1 1 @1 8 0 2 658 740 0 #
straight-curve $-1 -1 $-1 3.105388781397749653 -0.3461035111871436643 -4.724999999999999645 0 -1 0 F 0 F 12.95409301659760004 #
point $-1 -1 $-1 3.105388781397749653 -13.30019652778474892 -4.724999999999999645 #
point $-1 -1 $-1 3.105388781397749653 -0.3461035111871436643 -4.724999999999999645 #
End-of-ASM-data 