22700 0 2 4           
16 Autodesk Neutron 20 ASM 227.1.1.65535 NT 24 Thu Aug 26 00:05:33 2021 
10 9.999999999999999547e-07 1.000000000000000036e-10 
asmheader $-1 -1 @13 227.1.1.65535 #
body $2 6 $-1 $3 $-1 $4 #
ATTRIB_CUSTOM-attrib $-1 -1 $5 $-1 $1 @20 Timestamp_attrib_def 1 1406915265000 #
lump $-1 -1 $-1 $-1 $6 $1 #
transform $-1 -1 1 0 0 0 1 0 0 0 1 0 0 0 1 no_rotate no_reflect no_shear #
ATTRIB_CUSTOM-attrib $-1 -1 $-1 $2 $1 @22 generic_tag_attrib_def 3 3 -1 @23 generic_tag_attrib_def  1 3 @3 740 7 0 0 #
shell $-1 -1 $-1 $-1 $-1 $7 $-1 $3 #
face $8 26 $-1 $9 $10 $6 $-1 $11 forward single #
ATTRIB_CUSTOM-attrib $-1 -1 $-1 $-1 $7 @22 generic_tag_attrib_def 3 3 -1 @23 generic_tag_attrib_def  1 5 @5 37065 0 1 740 0 #
face $12 27 $-1 $13 $14 $6 $-1 $15 reversed single #
loop $-1 -1 $-1 $16 $17 $7 #
plane-surface $-1 -1 $-1 22.53901001139917071 -1.299427399542963713 -3.100000000000000089 1.174817266076213597e-32 -1.109335647967047632e-31 1 1 1.11022302462515654e-16 -1.020742870525235002e-32 forward_v I I I I #
ATTRIB_CUSTOM-attrib $-1 -1 $18 $-1 $9 @22 FPM_tracked_attrib_def 1 29929 #
face $19 606 $-1 $20 $21 $6 $-1 $22 forward single #
loop $-1 -1 $-1 $23 $24 $9 #
plane-surface $-1 -1 $-1 22.53901001139917071 -1.299427399542963713 -5.700000000000000178 1.174817266076213597e-32 -1.109335647967047632e-31 1 1 1.11022302462515654e-16 -1.020742870525235002e-32 forward_v I I I I #
loop $-1 -1 $-1 $-1 $25 $7 #
coedge $-1 -1 $-1 $17 $17 $26 $27 reversed $10 0 $-1 #
ATTRIB_CUSTOM-attrib $-1 -1 $-1 $12 $9 @22 generic_tag_attrib_def 3 3 -1 @23 generic_tag_attrib_def  1 5 @5 26576 0 1 740 0 #
ATTRIB_CUSTOM-attrib $-1 -1 $-1 $-1 $13 @22 generic_tag_attrib_def 3 3 -1 @23 generic_tag_attrib_def  1 5 @5 26575 18243 1 740 0 #
face $28 607 $-1 $-1 $29 $6 $-1 $30 forward single #
loop $-1 -1 $-1 $31 $26 $13 #
cone-surface $-1 -1 $-1 8.51637497056777093 -9.659002058668821888 -4.141519752410311978e-30 6.550588120710182339e-19 8.495799136090452072e-17 1 1.300000000000002487 1.387778780781445676e-16 -8.515764556923377249e-19 1 I I 0 -1 1.300000000000002709 forward I I I I #
loop $-1 -1 $-1 $-1 $32 $9 #
coedge $-1 -1 $-1 $24 $24 $33 $34 forward $14 0 $-1 #
coedge $-1 -1 $-1 $25 $25 $35 $36 reversed $16 0 $-1 #
coedge $-1 -1 $-1 $26 $26 $17 $27 forward $21 0 $-1 #
edge $-1 602 $-1 $37 -3.141592653589793116 $37 3.141592653589793116 $26 $38 forward @7 unknown #
ATTRIB_CUSTOM-attrib $-1 -1 $-1 $-1 $20 @22 generic_tag_attrib_def 3 3 -1 @23 generic_tag_attrib_def  1 5 @5 26574 5611 1 740 0 #
loop $-1 -1 $-1 $39 $35 $20 #
cone-surface $-1 -1 $-1 8.51637497056777093 -9.659002058668821888 -4.141519752410311978e-30 6.550588120710182339e-19 8.495799136090452072e-17 1 1.750000000000000222 2.081668171172168513e-16 -1.146352921124298858e-18 1 I I 0 1 1.750000000000000222 forward I I I I #
loop $-1 -1 $-1 $-1 $40 $13 #
coedge $-1 -1 $-1 $32 $32 $40 $41 forward $23 0 $-1 #
coedge $-1 -1 $-1 $33 $33 $24 $34 reversed $39 0 $-1 #
edge $-1 604 $-1 $42 -3.141592653589793116 $42 3.141592653589793116 $33 $43 reversed @7 unknown #
coedge $-1 -1 $-1 $35 $35 $25 $36 forward $29 0 $-1 #
edge $-1 603 $-1 $44 -2.777925688122396153 $44 3.505259619057190079 $35 $45 forward @7 unknown #
vertex $-1 598 $-1 $27 0 $46 #
ellipse-curve $-1 -1 $-1 8.51637497056777093 -9.659002058668821888 -3.099999999999999201 1.174817266076213597e-32 -1.109335647967047632e-31 1 1.300000000000002487 1.387778780781445676e-16 -8.515764556923377249e-19 1 I I #
loop $-1 -1 $-1 $-1 $33 $20 #
coedge $-1 -1 $-1 $40 $40 $32 $41 reversed $31 0 $-1 #
edge $-1 605 $-1 $47 -3.141592653589793116 $47 3.141592653589793116 $40 $48 reversed @7 unknown #
vertex $-1 600 $-1 $34 0 $49 #
ellipse-curve $-1 -1 $-1 8.51637497056777093 -9.659002058668821888 -5.699999999999999289 1.174817266076213597e-32 -1.109335647967047632e-31 1 1.750000000000000222 2.081668171172168513e-16 -1.146352921124298858e-18 1 I I #
vertex $-1 599 $-1 $36 0 $50 #
ellipse-curve $-1 -1 $-1 8.51637497056777093 -9.659002058668821888 -3.099999999999999201 -1.174817266076213597e-32 1.109335647967047632e-31 -1 1.750000000000000222 2.081668171172168513e-16 -1.146352921124298858e-18 1 I I #
point $-1 -1 $-1 7.216374970567768443 -9.659002058668821888 -3.100000000000000089 #
vertex $-1 601 $-1 $41 0 $51 #
ellipse-curve $-1 -1 $-1 8.51637497056777093 -9.659002058668821888 -5.699999999999999289 -1.174817266076213597e-32 1.109335647967047632e-31 -1 1.300000000000002487 1.387778780781445676e-16 -8.515764556923377249e-19 1 I I #
point $-1 -1 $-1 6.76637497056777093 -9.659002058668821888 -5.699999999999999289 #
point $-1 -1 $-1 6.88082714616832547 -9.036520481349260336 -3.100000000000000089 #
point $-1 -1 $-1 7.216374970567768443 -9.659002058668821888 -5.699999999999999289 #
End-of-ASM-data 