# WaveFront *.obj file
# Vertices: 72
# Triangles : 70

v 8.3325616833663674e-01 2.9339707152480154e+00 -1.4432003530939493e-17
v 8.3325531788481022e-01 2.9339709567786714e+00 3.0460950404231584e+00
v 7.5084246907352226e-01 2.9561352449845169e+00 6.0378680323459450e+00
v 9.0971501660067544e-01 2.9111713430465200e+00 6.0425358901983905e+00
v 1.0659215208002732e+00 2.8576758583679194e+00 6.0472313096243990e+00
v 1.2190041973105727e+00 2.7958055667272594e+00 6.0519405300600555e+00
v 1.7632351465714555e+00 2.4886747111462157e+00 6.0689073102641835e+00
v 2.1868855608631299e+00 2.1260281509543049e+00 6.0820595097884116e+00
v 2.5374602029982638e+00 1.6922753080402086e+00 6.0929030818576928e+00
v 2.8257209677626673e+00 1.1479551438746591e+00 6.1017839984460691e+00
v 2.9702803066406709e+00 6.9277333954467990e-01 6.1062128333724344e+00
v 3.0475413745385884e+00 1.2227064126357710e-01 6.1085434750033896e+00
v 3.0162328639161360e+00 -4.5259177039805759e-01 6.1075137976315901e+00
v 2.9351838763861000e+00 -8.2896836416738440e-01 6.1049668914106121e+00
v 2.8077131272860285e+00 -1.1913215329475579e+00 6.1009848169165686e+00
v 2.8077131272860285e+00 -1.1913215329475588e+00 -6.0000000000000000e+00
v 2.9954807960101788e+00 -5.7410347563296182e-01 -6.0000000000000435e+00
v 3.0492238989326705e+00 6.8801265819124477e-02 -6.0000000000000426e+00
v 2.9665378484348390e+00 7.0862768348752736e-01 -6.0000000000000435e+00
v 2.7511222048779409e+00 1.3167485005989625e+00 -6.0000000000000471e+00
v 2.4126151499298594e+00 1.8659550204470867e+00 -6.0000000000000515e+00
v 1.9661622525826050e+00 2.3316745048403789e+00 -6.0000000000000577e+00
v 1.4317388222414531e+00 2.6930696138218200e+00 -6.0000000000000648e+00
v 8.3325616833663685e-01 2.9339707152480150e+00 -6.0000000000000426e+00
v 8.8435476106126316e+00 -7.1805029032103063e+00 6.2923684500789854e+00
v 9.2276491759867589e+00 -7.2623191416545270e+00 6.3043201886456890e+00
v 9.5342110821761885e+00 -7.3755812797436473e+00 6.3138518058898008e+00
v 9.8233913577933585e+00 -7.5278736806666506e+00 6.3228322982753529e+00
v 1.0216953525395793e+01 -7.8265082411813953e+00 6.3350253208900043e+00
v 1.0544129922906917e+01 -8.1967401624047191e+00 6.3451129831851629e+00
v 1.0734408575012905e+01 -8.5056036021516697e+00 6.3509361656697747e+00
v 1.0877989348665857e+01 -8.8387718902638692e+00 6.3552791934789061e+00
v 1.0988608831857174e+01 -9.2874381542103315e+00 6.3585214801676599e+00
v 1.1007689648425755e+01 -9.4507926066979788e+00 6.3592641335969713e+00
v 1.1015988551454972e+01 -9.6150481482086718e+00 6.3600035729702107e+00
v 1.1013469624945731e+01 -9.7794939134861654e+00 6.3607365981411030e+00
v 1.1012779427719256e+01 -9.7930348394147728e+00 3.3596668713914566e+00
v 1.1012779429465981e+01 -9.7930348068814475e+00 4.1800768124544920e-17
v 1.1012779429465981e+01 -9.7930348068814475e+00 -6.0000000000000355e+00
v 1.0968884545503762e+01 -9.1740311473265201e+00 -6.0000000000000364e+00
v 1.0773878856446416e+01 -8.5849088572918291e+00 -6.0000000000000391e+00
v 1.0439777592314952e+01 -8.0619665691890177e+00 -6.0000000000000435e+00
v 9.9871663245265658e+00 -7.6374252500557223e+00 -6.0000000000000497e+00
v 9.4439325907160185e+00 -7.3374429141912572e+00 -6.0000000000000577e+00
v 8.8435476106126316e+00 -7.1805029032103080e+00 -6.0000000000000000e+00
v 2.7788678738105759e+00 -1.2678702373285657e+00 6.1001278815622877e+00
v 2.7307763215025687e+00 -1.6526065826228380e+00 6.0988595674314015e+00
v 2.8347078253048812e+00 -2.0308486475915091e+00 6.1023831181795440e+00
v 3.0737785280080323e+00 -2.3379839782586354e+00 6.1101618856765194e+00
v 3.2661441885370639e+00 -2.4687306254250418e+00 6.1163691558737234e+00
v 3.2661441885370639e+00 -2.4687306254250427e+00 -6.0000000000000000e+00
v 2.9748098083448027e+00 -2.2394067748143724e+00 -6.0000000000000453e+00
v 2.7870506070539376e+00 -1.9197012354949372e+00 -6.0000000000000426e+00
v 2.7286769313476045e+00 -1.5535623772383373e+00 -6.0000000000000453e+00
v 6.0798195567450186e+00 -3.9349779637826710e+00 6.2050040190813656e+00
v 6.0798195567450186e+00 -3.9349779637826718e+00 -6.0000000000000000e+00
v 6.5131432569594105e+00 -4.1995448391283912e+00 6.2184826748081683e+00
v 6.9068490098364812e+00 -4.5203032644807548e+00 6.2307137171223204e+00
v 6.9109126860842585e+00 -4.5241053596574590e+00 6.2308398565203520e+00
v 7.4013768022742674e+00 -5.0851537410673613e+00 6.2460393730379593e+00
v 7.7712443026403655e+00 -5.7321622871891265e+00 6.2574404497552010e+00
v 8.0001878383706977e+00 -6.4146651841545994e+00 6.2644111438148311e+00
v 8.0001878383706977e+00 -6.4146651841546012e+00 -6.0000000000000000e+00
v 7.8006684607247632e+00 -5.7998726022632212e+00 -6.0000000000000462e+00
v 7.4985401946422332e+00 -5.2284739571485765e+00 -6.0000000000000506e+00
v 7.1027788632539703e+00 -4.7174447315824892e+00 -6.0000000000000560e+00
v 6.6251420017242122e+00 -4.2819669143370085e+00 -6.0000000000000622e+00
v 8.0650141962093524e+00 -6.6050204765341567e+00 6.2666843754642247e+00
v 8.2928210403077145e+00 -6.9208322907289492e+00 6.2743102451937487e+00
v 8.5748919876911405e+00 -7.1058256804373814e+00 6.2835846747331026e+00
v 8.4643555386528622e+00 -7.0492413960499496e+00 -6.0000000000000364e+00
v 8.1672915767449883e+00 -6.7794837024900678e+00 -6.0000000000000364e+00

vn 2.7319874371691194e-01 9.6195761155650772e-01 -8.1904947696690936e-17
vn 2.9826721855757926e-01 9.5448240755601421e-01 -8.1286290705145557e-17
vn 2.7319846488024674e-01 9.6195769074688342e-01 -8.1904954241891757e-17
vn 2.4617785871261136e-01 9.6922467048650462e-01 -8.2504642157652744e-17
vn 3.4948246583613579e-01 9.3694290438270267e-01 -7.9829718745115062e-17
vn 4.6942256466931009e-01 8.8297364387578825e-01 -7.5323166595875651e-17
vn 3.9967350731492207e-01 9.1665756286117495e-01 -7.8139194959383840e-17
vn 5.7810988412176822e-01 8.1595892168706363e-01 -6.9700926993480397e-17
vn 6.4464336150247414e-01 7.6448344420974235e-01 -6.5371257163319772e-17
vn 7.1701304072300542e-01 6.9705975312963642e-01 -5.9690482195116108e-17
vn 7.9102136063272088e-01 6.1178853129390942e-01 -5.2494490269186220e-17
vn 8.3195416491744267e-01 5.5484436329165354e-01 -4.7683441530146265e-17
vn 9.0200728028782928e-01 4.3172081986829558e-01 -3.7269001502197279e-17
vn 9.2646589106970634e-01 3.7637873569639246e-01 -3.2583271021750062e-17
vn 9.7263536014254970e-01 2.3233694540553057e-01 -2.0376013564174866e-17
vn 9.7386239561987153e-01 2.2713879985049823e-01 -1.9935193339419854e-17
vn 9.9919611997649438e-01 4.0088824177307983e-02 -4.0603982015022730e-18
vn 9.9974554063364196e-01 2.2557792071628693e-02 -2.5713568301632609e-18
vn 9.8892880784133552e-01 -1.4839074439302091e-01 1.1959173050092826e-17
vn 9.8212485115085790e-01 -1.8823064774872678e-01 1.5348348206993134e-17
vn 9.6235573464585966e-01 -2.7179300946534218e-01 2.2460588545783431e-17
vn 9.2056168107736513e-01 -3.9059722391744611e-01 3.2581333533926324e-17
vn 1.3086905601791263e-01 9.9139966218320874e-01 -8.4313050863335243e-17
vn 2.8450968216756184e-01 9.5867316680551395e-01 -8.1633317197815849e-17
vn 3.7102304805926634e-01 9.2862365779082512e-01 -7.9137042613235811e-17
vn 4.0713441846560400e-01 9.1336825284256207e-01 -7.7864629122834833e-17
vn 5.2280655489020045e-01 8.5245135120066529e-01 -7.2765023571685603e-17
vn 5.8831654158348479e-01 8.0863072344503939e-01 -6.9085023951455884e-17
vn 6.8023136684503560e-01 7.3299746763555362e-01 -6.2719584074044166e-17
vn 7.6936104869883859e-01 6.3881419579172127e-01 -5.4776347661909687e-17
vn 8.1110198093562369e-01 5.8490475850543999e-01 -5.0223652920156428e-17
vn 9.0300155435142371e-01 4.2963728055059741e-01 -3.7092639494831283e-17
vn 8.8721336583664057e-01 4.6135934311642512e-01 -3.9777340020235663e-17
vn 9.4464575123920003e-01 3.2809206736178120e-01 -2.8492841548137735e-17
vn 9.8100382997436242e-01 1.9398836453672155e-01 -1.7123477001926645e-17
vn 9.8889354451560385e-01 1.4862556178317810e-01 -1.3274712624519717e-17
vn 9.9652587114315982e-01 8.3283780788137918e-02 -7.7284057820510576e-18
vn 9.9856178355924985e-01 -5.3613099285248857e-02 3.9007445301895561e-18
vn 9.9984543235484602e-01 1.7581564183860813e-02 -2.1486519392166247e-18
vn 9.9883786175114986e-01 -4.8196741927136452e-02 3.4404008410990550e-18
vn 9.9856178286055974e-01 -5.3613112298579318e-02 3.9007456362336565e-18
vn 9.9856178355924985e-01 -5.3613099285249037e-02 3.9007445301895730e-18
vn 9.2056168107736491e-01 -3.9059722391744678e-01 3.2581333533926386e-17
vn 9.4940693455281433e-01 -3.1404851953643770e-01 2.6059014030960805e-17
vn 9.2056168107736480e-01 -3.9059722391744695e-01 3.2581333533926398e-17
vn 9.9959787701578695e-01 -2.8356379626667542e-02 1.7543056574822084e-18
vn 9.9749848686082232e-01 7.0687825757834125e-02 -6.6589158639007770e-18
vn 9.4122420130945383e-01 3.3778247862993238e-01 -2.9313878108508401e-17
vn 8.9356698305851034e-01 4.4892989072650530e-01 -3.8725520704421661e-17
vn 7.5346500001858885e-01 6.5748801794936762e-01 -5.6352425236688742e-17
vn 6.5449628035535834e-01 7.5606522139363108e-01 -6.4662516103353608e-17
vn 4.6213061982632475e-01 8.8681186856003280e-01 -7.5644477802714380e-17
vn 4.6213061982632209e-01 8.8681186856003424e-01 -7.5644477802714516e-17
vn 4.6213061982632275e-01 8.8681186856003380e-01 -7.5644477802714750e-17
vn 5.7768364046546272e-01 8.1626074972313223e-01 -6.9726290482498320e-17
vn 4.6213061982632264e-01 8.8681186856003391e-01 -7.5644477802714762e-17
vn 6.0754993848744332e-01 7.9428148174554836e-01 -6.7878540205243017e-17
vn 6.8267180731737975e-01 7.3072512170721382e-01 -6.2528128760332038e-17
vn 7.3491976822871197e-01 6.7815406381342014e-01 -5.8096022765165287e-17
vn 6.8375545431678697e-01 7.2971122966009261e-01 -6.2442700381067967e-17
vn 8.1454626432890753e-01 5.8009859788472307e-01 -4.9817587375850486e-17
vn 8.4045612326558217e-01 5.4187960366246357e-01 -4.6587550876309341e-17
vn 9.1317721873174906e-01 4.0756271565164937e-01 -3.5223894459471778e-17
vn 9.2102366088758969e-01 3.8950663163189159e-01 -3.3695025710387038e-17
vn 9.7422882825983748e-01 2.2556194312752362e-01 -1.9801466794501906e-17
vn 9.7422882825983748e-01 2.2556194312752326e-01 -1.9801466794501882e-17
vn 9.7422882825983836e-01 2.2556194312751982e-01 -1.9801466794501583e-17
vn 9.0940247042118305e-01 4.1591723550707699e-01 -3.5931205003029501e-17
vn 9.7422882825983814e-01 2.2556194312752048e-01 -1.9801466794501641e-17
vn 8.0712508988554632e-01 5.9038046146298639e-01 -5.0686252547191521e-17
vn 6.8159562632282111e-01 7.3172904970186958e-01 -6.2612715504385103e-17
vn 5.1006112797767300e-01 8.6013815502286839e-01 -7.3409729980192633e-17
vn 3.9952467893939481e-01 9.1672243941030129e-01 -7.8144609249345484e-17
vn 1.3086905601790147e-01 9.9139966218321018e-01 -8.4313050863335354e-17
vn 1.3086905601790166e-01 9.9139966218321018e-01 -8.4313050863335354e-17

g face 0
f 24//1 1//1 4//2
f 4//2 1//1 2//3
f 4//2 2//3 3//4
f 4//2 5//5 24//1
f 24//1 5//5 23//6
f 23//6 5//5 6//7
f 23//6 6//7 7//8
f 23//6 7//8 22//9
f 22//9 7//8 8//10
f 22//9 8//10 21//11
f 21//11 8//10 9//12
f 21//11 9//12 20//13
f 20//13 9//12 10//14
f 20//13 10//14 19//15
f 19//15 10//14 11//16
f 19//15 11//16 12//17
f 19//15 12//17 18//18
f 18//18 12//17 13//19
f 18//18 13//19 17//20
f 17//20 13//19 14//21
f 17//20 14//21 16//22
f 16//22 14//21 15//22

g face 1
f 25//23 26//24 45//23
f 45//23 26//24 44//25
f 44//25 26//24 27//26
f 44//25 27//26 28//27
f 44//25 28//27 43//28
f 43//28 28//27 29//29
f 43//28 29//29 42//30
f 42//30 29//29 30//31
f 42//30 30//31 41//32
f 41//32 30//31 31//33
f 41//32 31//33 32//34
f 41//32 32//34 40//35
f 40//35 32//34 33//36
f 40//35 33//36 34//37
f 40//35 34//37 39//38
f 39//38 34//37 35//39
f 39//38 35//39 36//40
f 37//41 38//42 36//40
f 36//40 38//42 39//38

g face 2
f 15//43 46//44 16//45
f 16//45 46//44 54//46
f 54//46 46//44 47//47
f 54//46 47//47 53//48
f 53//48 47//47 48//49
f 53//48 48//49 52//50
f 52//50 48//49 49//51
f 52//50 49//51 51//52
f 51//52 49//51 50//52

g face 3
f 55//53 56//53 50//53
f 50//53 56//53 51//53

g face 4
f 55//54 57//55 56//56
f 56//56 57//55 67//57
f 67//57 57//55 58//58
f 67//57 58//58 66//59
f 66//59 58//58 59//60
f 66//59 59//60 60//61
f 66//59 60//61 65//62
f 65//62 60//61 61//63
f 65//62 61//63 64//64
f 64//64 61//63 62//65
f 64//64 62//65 63//66

g face 5
f 62//67 68//68 63//69
f 63//69 68//68 72//70
f 72//70 68//68 69//71
f 72//70 69//71 71//72
f 71//72 69//71 70//73
f 71//72 70//73 45//74
f 45//74 70//73 25//75

g halfedge 0 edge 0
l 1 2

g halfedge 1 edge 1
l 2 3

g halfedge 2 edge 2
l 3 4 5 6

g halfedge 3 edge 3
l 6 7 8 9 10 11 12 13 14 15

g halfedge 4 edge 4
l 15 16

g halfedge 5 edge 4
l 16 15

g halfedge 6 edge 5
l 16 17 18 19 20 21 22 23 24

g halfedge 7 edge 6
l 24 1

g halfedge 8 edge 7
l 25 26 27 28 29 30 31 32 33

g halfedge 9 edge 8
l 33 34 35 36

g halfedge 10 edge 9
l 36 37

g halfedge 11 edge 10
l 37 38

g halfedge 12 edge 11
l 38 39

g halfedge 13 edge 12
l 39 40 41 42 43 44 45

g halfedge 14 edge 13
l 45 25

g halfedge 15 edge 13
l 25 45

g halfedge 16 edge 14
l 15 46 47 48 49 50

g halfedge 17 edge 15
l 50 51

g halfedge 18 edge 15
l 51 50

g halfedge 19 edge 16
l 51 52 53 54 16

g halfedge 20 edge 17
l 50 55

g halfedge 21 edge 18
l 55 56

g halfedge 22 edge 18
l 56 55

g halfedge 23 edge 19
l 56 51

g halfedge 24 edge 20
l 55 57 58 59 60 61 62

g halfedge 25 edge 21
l 62 63

g halfedge 26 edge 21
l 63 62

g halfedge 27 edge 22
l 63 64 65 66 67 56

g halfedge 28 edge 23
l 62 68 69 70 25

g halfedge 29 edge 24
l 45 71 72 63

g vertex 0
p 1

g vertex 1
p 2

g vertex 2
p 3

g vertex 3
p 6

g vertex 4
p 15

g vertex 5
p 16

g vertex 6
p 24

g vertex 7
p 25

g vertex 8
p 33

g vertex 9
p 36

g vertex 10
p 37

g vertex 11
p 38

g vertex 12
p 39

g vertex 13
p 45

g vertex 14
p 50

g vertex 15
p 51

g vertex 16
p 55

g vertex 17
p 56

g vertex 18
p 62

g vertex 19
p 63

# End of file
