22700 0 2 4           
16 Autodesk Neutron 20 ASM 227.1.1.65535 NT 24 Thu Aug 26 00:05:36 2021 
10 9.999999999999999547e-07 1.000000000000000036e-10 
asmheader $-1 -1 @13 227.1.1.65535 #
body $2 8 $-1 $3 $-1 $4 #
ATTRIB_CUSTOM-attrib $-1 -1 $5 $-1 $1 @20 Timestamp_attrib_def 1 1406915265000 #
lump $-1 -1 $-1 $-1 $6 $1 #
transform $-1 -1 1 0 0 0 1 0 0 0 1 0 0 0 1 no_rotate no_reflect no_shear #
ATTRIB_CUSTOM-attrib $-1 -1 $-1 $2 $1 @22 generic_tag_attrib_def 3 3 -1 @23 generic_tag_attrib_def  1 3 @3 740 9 0 0 #
shell $-1 -1 $-1 $-1 $-1 $7 $-1 $3 #
face $8 -1 $-1 $9 $10 $6 $-1 $11 reversed double out #
ATTRIB_CUSTOM-attrib $-1 -1 $-1 $-1 $7 @22 generic_tag_attrib_def 3 3 -1 @23 generic_tag_attrib_def  1 5 @5 33796 0 1 740 0 #
face $12 -1 $-1 $13 $14 $6 $-1 $15 reversed double out #
loop $-1 -1 $-1 $-1 $16 $7 #
cone-surface $-1 -1 $-1 5.240252676230738871e-14 6.572520305780926719e-13 -5.403697200763930867e-29 6.550588120710365303e-19 8.495799136090274578e-17 1 3.050000000000010036 5.717648576819556183e-15 -1.997929376817146184e-18 1 I I 0 -1 2.300000000000001155 forward I I I I #
ATTRIB_CUSTOM-attrib $-1 -1 $-1 $-1 $9 @22 generic_tag_attrib_def 3 3 -1 @23 generic_tag_attrib_def  1 5 @5 33441 0 1 740 0 #
face $17 -1 $-1 $18 $19 $6 $-1 $20 reversed double out #
loop $-1 -1 $-1 $-1 $21 $9 #
cone-surface $-1 -1 $-1 8.516374970567850866 -9.659002058668324509 -5.75868460811338618e-29 6.550588120710337377e-19 8.495799136090307858e-17 1 2.500000000000005773 4.024558464266192459e-15 -1.637647030177908045e-18 1 I I 0 -1 1.750000000000000222 forward I I I I #
coedge $-1 -1 $-1 $22 $23 $-1 $24 reversed $10 0 $-1 #
ATTRIB_CUSTOM-attrib $-1 -1 $-1 $-1 $13 @22 generic_tag_attrib_def 3 3 -1 @23 generic_tag_attrib_def  1 5 @5 33767 0 1 740 0 #
face $25 -1 $-1 $26 $27 $6 $-1 $28 reversed double out #
loop $-1 -1 $-1 $-1 $29 $13 #
cone-surface $-1 -1 $-1 3.728274808363391202 -1.581918756865004383 1.319544008123475633e-16 6.550588120710365303e-19 8.495799136090274578e-17 1 -0.9412242013094517246 -0.3377824786299378768 2.931387810850885677e-17 1 I I 0 1 0.9999999999999995559 forward I I I I #
coedge $-1 -1 $-1 $30 $31 $-1 $32 reversed $14 0 $-1 #
coedge $-1 -1 $-1 $33 $16 $-1 $34 reversed $10 0 $-1 #
coedge $-1 -1 $-1 $16 $35 $-1 $36 forward $10 0 $-1 #
edge $37 -1 $-1 $38 -3.053160870449024067 $39 -0 $16 $40 reversed @7 unknown #
ATTRIB_CUSTOM-attrib $-1 -1 $-1 $-1 $18 @22 generic_tag_attrib_def 3 3 -1 @23 generic_tag_attrib_def  1 5 @5 33978 0 1 740 0 #
face $41 -1 $-1 $42 $43 $6 $-1 $44 reversed double out #
loop $-1 -1 $-1 $-1 $45 $18 #
plane-surface $-1 -1 $-1 1.28336820253053574 -1.435477093446724695 -5.673335835209404672e-17 -0.4621306198263220866 -0.8868118685600342443 7.564447780271451562e-17 0.8868118685600359097 -0.4621306198263256393 -1.02921696228053884e-30 forward_v I I I I #
coedge $-1 -1 $-1 $46 $47 $-1 $48 forward $19 0 $-1 #
coedge $-1 -1 $-1 $49 $21 $-1 $50 reversed $14 0 $-1 #
coedge $-1 -1 $-1 $21 $51 $52 $53 forward $14 0 $-1 #
edge $54 -1 $-1 $55 -7.387644448567749933 $56 -4.140761203921213607 $21 $57 reversed @7 unknown #
coedge $-1 -1 $-1 $58 $22 $-1 $59 forward $10 0 $-1 #
edge $60 -1 $-1 $61 -1.598841507845772503 $38 -1.570796326794896336 $22 $62 reversed @7 unknown #
coedge $-1 -1 $-1 $23 $63 $-1 $64 reversed $10 0 $-1 #
edge $65 -1 $-1 $66 -2.608695652173921076 $39 1.023382986713137877e-16 $23 $67 forward @7 unknown #
ATTRIB_CUSTOM-attrib $-1 -1 $-1 $-1 $24 @22 generic_tag_attrib_def 3 3 -1 @23 generic_tag_attrib_def  1 5 @5 32668 0 1 740 0 #
vertex $68 -1 $-1 $24 0 $69 #
vertex $70 -1 $-1 $24 1 $71 #
intcurve-curve $-1 -1 $-1 forward { par_int_cur 22020 full nubs 3 open 2 
	0 3 3.053160870449024067 3 
	0.8332561683366340732 2.933970715248026995 -2.970009958840197788e-16 
	0.833255884852702744 2.933970795758283234 1.01536501347439323 
	0.8332556013687596463 2.933970876268499062 2.03073002694878646 
	0.8332553178848050024 2.933970956778673145 3.046095040423180134 
	0 
	
	cone 5.240252676230738871e-14 6.572520305780926719e-13 -5.403697200763930867e-29 6.550588120710365303e-19 8.495799136090274578e-17 1 3.050000000000010036 5.717648576819556183e-15 -1.997929376817146184e-18 1 I I 0 -1 2.300000000000001155 forward I I I I 
	null_surface 
	nubs 1 open 2 
	0 1 3.053160870449024067 1 
	-2.05177849604593239e-17 1.294079613937926698 
	1.324389148010073125 1.294079903801690357 
	
	nullbs 
	I I 
	0 
	0 
	0 
	
	0 surf1 F } I I #
ATTRIB_CUSTOM-attrib $-1 -1 $-1 $-1 $26 @22 generic_tag_attrib_def 3 3 -1 @23 generic_tag_attrib_def  1 5 @5 34152 0 1 740 0 #
face $72 -1 $-1 $-1 $73 $6 $-1 $74 reversed double out #
loop $-1 -1 $-1 $-1 $75 $26 #
cone-surface $-1 -1 $-1 4.346829732396299661 -7.260522470882815327 -5.581190904438658523e-29 6.550588120710337377e-19 8.495799136090307858e-17 1 3.504745337998814048 -1.33388909425618829 1.110287238284991145e-16 1 I I 0 -1 3.000000000000001776 forward I I I I #
coedge $-1 -1 $-1 $76 $77 $-1 $78 forward $27 0 $-1 #
coedge $-1 -1 $-1 $79 $29 $77 $80 reversed $19 0 $-1 #
coedge $-1 -1 $-1 $29 $79 $63 $81 reversed $19 0 $-1 #
edge $82 -1 $-1 $83 2.796395444024989185 $84 4.292624662380149836 $29 $85 forward @7 unknown #
coedge $-1 -1 $-1 $86 $30 $-1 $87 forward $14 0 $-1 #
edge $88 -1 $-1 $89 1.373402653462493017 $55 1.57079632683186432 $30 $90 reversed @7 unknown #
coedge $-1 -1 $-1 $31 $91 $-1 $92 reversed $14 0 $-1 #
coedge $-1 -1 $-1 $93 $94 $31 $53 reversed $73 0 $-1 #
edge $95 -1 $-1 $96 -5.999999999999996447 $56 6.292368450078980935 $31 $97 forward @7 tangent #
ATTRIB_CUSTOM-attrib $-1 -1 $-1 $-1 $32 @22 generic_tag_attrib_def 3 3 -1 @23 generic_tag_attrib_def  1 5 @5 32751 0 1 740 0 #
vertex $98 -1 $-1 $32 0 $99 #
vertex $100 -1 $-1 $32 1 $101 #
intcurve-curve $-1 -1 $-1 forward { par_int_cur 22020 full nubs 3 open 6 
	4.140761203921212719 3 4.536066319590051243 3 5.194123119884881845 3 6.191527089177092158 3 6.922146324811416562 3 
	7.387644448567749933 3 
	8.843547610612631615 -7.180502903210288501 6.292368450079020903 
	8.973478075214183391 -7.197654288165301395 6.296412376860089921 
	9.101908934432312748 -7.225002653200453651 6.300408984411541624 
	9.227649175986758934 -7.262319141654526966 6.304320188645688994 
	9.436966530470318304 -7.324439180118432091 6.310831094883946335 
	9.637249510739474445 -7.413713291757568769 6.317056225181843843 
	9.82339135779335848 -7.527873680666650635 6.322832298275352869 
	10.10552295649387666 -7.7009043749514694 6.331586980588196134 
	10.35051268432814631 -7.928246320508463008 6.339165447964977496 
	10.54412992290691697 -8.196740162404719143 6.345112983185162925 
	10.68595859334667431 -8.393417508373145708 6.349469676932395501 
	10.79842451616347354 -8.609688079808442751 6.352896039298977726 
	10.87798934866585654 -8.838771890263869224 6.35527919347890613 
	10.928682347755446 -8.984727647721271637 6.356797568229079154 
	10.96568759288082795 -9.134929628868219353 6.357882531236352719 
	10.98860883185686532 -9.287438154210375885 6.358521480167697248 
	3.009112688750445344e-06 
	
	cone 8.516374970567850866 -9.659002058668324509 -5.75868460811338618e-29 6.550588120710337377e-19 8.495799136090307858e-17 1 2.500000000000005773 4.024558464266192459e-15 -1.637647030177908045e-18 1 I I 0 -1 1.750000000000000222 forward I I I I 
	null_surface 
	nubs 3 open 6 
	4.140761203921212719 3 4.536066319590051243 3 5.194123119884881845 3 6.191527089177092158 3 6.922146324811416562 3 
	7.387644448567749933 3 
	3.595639114330858366 1.439550802659646189 
	3.597949929634326249 1.387127760950946698 
	3.600233705378013127 1.334765671232544637 
	3.602468679226097148 1.282301392098317283 
	3.606189197076529851 1.194965118702434381 
	3.609746414389614078 1.10800062048098491 
	3.613047027585905013 1.020656353014363749 
	3.618049703193244149 0.8882703355351779795 
	3.622380255979976038 0.7571720429285355713 
	3.625778847534367522 0.624762630446745959 
	3.628268386818500169 0.5277699707856005062 
	3.630226308170833249 0.4312861868476924321 
	3.631588110559363702 0.3342831314039304003 
	3.632455753273748478 0.2724797485946878206 
	3.633075732135047975 0.2108668036187209271 
	3.633440845810101738 0.1491782523331083021 
	
	nullbs 
	I I 
	0 
	4 4.536066319590051243 5.194123119884881845 6.191527089177092158 6.922146324811416562 
	0 
	
	0 surf1 F } I I #
coedge $-1 -1 $-1 $63 $33 $-1 $102 forward $10 0 $-1 #
edge $103 -1 $-1 $61 -1.733222203787697868 $104 -1.570796326798074682 $33 $105 forward @7 unknown #
ATTRIB_CUSTOM-attrib $-1 -1 $-1 $-1 $34 @22 generic_tag_attrib_def 3 3 -1 @23 generic_tag_attrib_def  1 5 @5 34007 0 1 740 0 #
vertex $106 -1 $-1 $34 0 $107 #
intcurve-curve $-1 -1 $-1 forward { par_int_cur 22020 full nubs 3 open 2 
	1.570796326794896336 3 1.598841507845772947 3 
	0.8332553178848056685 2.933970956778672701 3.046095040423181022 
	0.8058895260578710085 2.941742912228757501 4.04348344560619033 
	0.778414991310033777 2.949131972482090802 5.040871840506005341 
	0.7508424690735170381 2.956135244984517296 6.037868032345986791 
	4.870592566196667283e-09 
	
	cone 5.240252676230738871e-14 6.572520305780926719e-13 -5.403697200763930867e-29 6.550588120710365303e-19 8.495799136090274578e-17 1 3.050000000000010036 5.717648576819556183e-15 -1.997929376817146184e-18 1 I I 0 -1 2.300000000000001155 forward I I I I 
	null_surface 
	nubs 3 open 2 
	1.570796326794896336 3 1.598841507845772947 3 
	1.324389148010073569 1.294079903801690135 
	1.758036280698336729 1.303407123542470014 
	2.191683408915645614 1.31273434328324301 
	2.625160014063462111 1.322061562761209563 
	
	nullbs 
	I I 
	0 
	0 
	0 
	
	0 surf1 F } I I #
coedge $-1 -1 $-1 $35 $58 $47 $81 forward $10 0 $-1 #
edge $108 -1 $-1 $66 -1.294079613937927142 $109 0.4012802638279027723 $35 $110 reversed @7 unknown #
ATTRIB_CUSTOM-attrib $-1 -1 $-1 $-1 $36 @22 generic_tag_attrib_def 3 3 -1 @23 generic_tag_attrib_def  1 5 @5 32713 0 1 740 0 #
vertex $-1 -1 $-1 $36 0 $111 #
straight-curve $-1 -1 $-1 0.8332561683366340732 2.933970715248026995 -2.498100904749631366e-16 1.506635267763390048e-18 1.954033801300770869e-16 2.300000000000009148 I I #
ATTRIB_CUSTOM-attrib $-1 -1 $-1 $-1 $38 @22 generic_tag_attrib_def 3 3 -1 @23 generic_tag_attrib_def  1 5 @5 34176 0 0 0 #
point $-1 -1 $-1 0.8332553178848102204 2.933970956778671368 3.046095040423158373 #
ATTRIB_CUSTOM-attrib $-1 -1 $-1 $-1 $39 @22 generic_tag_attrib_def 3 3 -1 @23 generic_tag_attrib_def  1 5 @5 34175 0 0 0 #
point $-1 -1 $-1 0.8332561683366367378 2.933970715248015448 -1.443200353093949348e-17 #
ATTRIB_CUSTOM-attrib $-1 -1 $-1 $-1 $42 @22 generic_tag_attrib_def 3 3 -1 @23 generic_tag_attrib_def  1 5 @5 33850 0 1 740 0 #
loop $-1 -1 $-1 $-1 $94 $42 #
cone-surface $-1 -1 $-1 8.974416666630535389 -6.189103241027080315 -9.405696727393982589e-17 6.550588120710337377e-19 8.495799136090307858e-17 1 -0.6722627361685999947 -0.7403126458187159198 6.333584699718796532e-17 1 I I 0 1 0.9999999999999996669 forward I I I I #
coedge $-1 -1 $-1 $112 $113 $-1 $114 forward $43 0 $-1 #
coedge $-1 -1 $-1 $115 $45 $113 $116 reversed $27 0 $-1 #
coedge $-1 -1 $-1 $45 $115 $46 $80 forward $27 0 $-1 #
edge $117 -1 $-1 $84 2.368249990879081501 $118 5.542286296292593839 $45 $119 forward @7 unknown #
coedge $-1 -1 $-1 $47 $46 $-1 $120 reversed $19 0 $-1 #
edge $121 -1 $-1 $122 -5.999999999999978684 $84 6.116369155873702113 $46 $123 forward @7 tangent #
edge $124 -1 $-1 $83 -6.100984816916565912 $109 5.999999999999997335 $63 $125 forward @7 tangent #
ATTRIB_CUSTOM-attrib $-1 -1 $-1 $-1 $48 @22 generic_tag_attrib_def 3 3 -1 @23 generic_tag_attrib_def  1 5 @5 33909 0 1 740 0 #
vertex $126 -1 $-1 $102 1 $127 #
vertex $128 -1 $-1 $48 1 $129 #
intcurve-curve $-1 -1 $-1 forward { par_int_cur 22020 full nubs 3 open 6 
	2.796395444024985188 3 2.87835868401046735 3 3.269800367768858962 3 3.66591864273413659 3 4.058954837456988152 3 
	4.292624662380155165 3 
	2.807713127286026289 -1.191321532947553274 6.100984816916611209 
	2.797073865216438193 -1.216396204185545615 6.100666886342627215 
	2.787447707872857006 -1.241932353691776125 6.100380887380418393 
	2.778867873810575873 -1.267870237328565741 6.100127881562287691 
	2.737892130388068335 -1.391744901699566883 6.098919571306766763 
	2.721552927362197671 -1.522452321968964961 6.098486549621505937 
	2.73077632150256866 -1.652606582622837994 6.098859567431401452 
	2.740109908414236628 -1.784315808667898962 6.099237041720724228 
	2.77543730655778198 -1.912874372063876782 6.100432547084527535 
	2.83470782530488119 -2.030848647591509071 6.102383118179544041 
	2.893517177510737781 -2.147904999845467344 6.104318512452350909 
	2.974752768444805184 -2.252261226491227397 6.106959587919030596 
	3.073778528008032307 -2.337983978258635354 6.110161885676519411 
	3.132651812989687201 -2.388948293164919079 6.112065731598067764 
	3.197220482494862015 -2.43281347532449832 6.114148785577458334 
	3.266144188537069226 -2.468730625425040071 6.11636915587376695 
	1.175621087696913682e-06 
	
	cone 3.728274808363391202 -1.581918756865004383 1.319544008123475633e-16 6.550588120710365303e-19 8.495799136090274578e-17 1 -0.9412242013094517246 -0.3377824786299378768 2.931387810850885677e-17 1 I I 0 1 0.9999999999999995559 forward I I I I 
	null_surface 
	nubs 3 open 6 
	2.796395444024985188 3 2.87835868401046735 3 3.269800367768858962 3 3.66591864273413659 3 4.058954837456988152 3 
	4.292624662380155165 3 
	6.100984816916592557 -0.7458401653448512025 
	6.100666886342608564 -0.7186017176086314517 
	6.100380887380399741 -0.69133429598035534 
	6.100127881562269039 -0.6640142052028356057 
	6.098919571306748111 -0.533538368274861563 
	6.098486549621487285 -0.40429373428161125 
	6.0988595674313828 -0.2738130745429938617 
	6.099237041720705577 -0.1417735498921282866 
	6.100432547084508883 -0.01101871849828318928 
	6.10238311817952539 0.121007506467894696 
	6.104318512452332257 0.2520064740587696361 
	6.106959587919011945 0.3817450804312016444 
	6.110161885676500759 0.5127202354326391154 
	6.112065731598049112 0.5905882332134859691 
	6.114148785577439682 0.6681193899631090449 
	6.116369155873748298 0.7458401653448397672 
	
	nullbs 
	I I 
	0 
	4 2.87835868401046735 3.269800367768858962 3.66591864273413659 4.058954837456988152 
	0 
	
	0 surf1 F } I I #
coedge $-1 -1 $-1 $91 $49 $-1 $130 reversed $14 0 $-1 #
edge $131 -1 $-1 $89 3.000102559774466382 $132 5.999985587258898967 $49 $133 forward @7 unknown #
ATTRIB_CUSTOM-attrib $-1 -1 $-1 $-1 $50 @22 generic_tag_attrib_def 3 3 -1 @23 generic_tag_attrib_def  1 5 @5 33102 0 1 740 0 #
vertex $134 -1 $-1 $87 0 $135 #
ellipse-curve $-1 -1 $-1 8.516374970567850866 -9.659002058668324509 6.358521480167621753 0.0006714855935397523803 -0.00446778979809411142 -0.9999897939286269688 0.3715639043665531216 -2.472233861302758573 0.01129503631083954816 0.9999897939286241932 I I #
coedge $-1 -1 $-1 $51 $86 $-1 $136 reversed $14 0 $-1 #
edge $137 -1 $-1 $96 -1.439550802659646189 $138 0.05363881649423413167 $51 $139 reversed @7 unknown #
coedge $-1 -1 $-1 $140 $52 $-1 $141 reversed $73 0 $-1 #
coedge $-1 -1 $-1 $52 $140 $-1 $142 forward $73 0 $-1 #
ATTRIB_CUSTOM-attrib $-1 -1 $-1 $-1 $53 @22 generic_tag_attrib_def 3 3 -1 @23 generic_tag_attrib_def  1 5 @5 32591 0 1 740 0 #
vertex $143 -1 $-1 $92 0 $144 #
straight-curve $-1 -1 $-1 8.843547610612631615 -7.180502903210307153 -9.743916410602339311e-18 6.550588120710349895e-19 8.495799136090314021e-17 1.000000000000000666 I I #
ATTRIB_CUSTOM-attrib $-1 -1 $-1 $-1 $55 @22 generic_tag_attrib_def 3 3 -1 @23 generic_tag_attrib_def  1 5 @5 34190 0 0 0 #
point $-1 -1 $-1 10.98860883185717441 -9.287438154210331476 6.358521480167659945 #
ATTRIB_CUSTOM-attrib $-1 -1 $-1 $-1 $56 @22 generic_tag_attrib_def 3 3 -1 @23 generic_tag_attrib_def  1 5 @5 34179 0 0 0 #
point $-1 -1 $-1 8.843547610612631615 -7.180502903210306265 6.292368450078985376 #
edge $145 -1 $-1 $104 0.1422522373265296958 $83 4.830713675630894599 $58 $146 forward @7 unknown #
ATTRIB_CUSTOM-attrib $-1 -1 $-1 $-1 $59 @22 generic_tag_attrib_def 3 3 -1 @23 generic_tag_attrib_def  1 5 @5 33446 0 1 740 0 #
vertex $147 -1 $-1 $102 0 $148 #
ellipse-curve $-1 -1 $-1 5.240649113928173733e-14 6.577661912893622011e-13 6.051940530060056389 0.0261431456007120526 -0.01139871978131908221 -0.9995932198276692437 2.795805566722717295 -1.219004197319409677 0.08702163793648531875 0.9995932198276714642 I I #
ATTRIB_CUSTOM-attrib $-1 -1 $-1 $-1 $61 @22 generic_tag_attrib_def 3 3 -1 @23 generic_tag_attrib_def  1 5 @5 34193 0 0 0 #
point $-1 -1 $-1 0.7508424690735222562 2.956135244984516852 6.037868032345945046 #
ATTRIB_CUSTOM-attrib $-1 -1 $-1 $-1 $64 @22 generic_tag_attrib_def 3 3 -1 @23 generic_tag_attrib_def  1 5 @5 32747 0 1 740 0 #
vertex $149 -1 $-1 $81 1 $150 #
ellipse-curve $-1 -1 $-1 5.239859640943496236e-14 6.567422826299272859e-13 -6.000000000000085265 6.550588120710365303e-19 8.495799136090274578e-17 1 3.050000000000010036 5.717648576819594049e-15 4.263256414560601115e-14 1 I I #
point $-1 -1 $-1 0.8332561683366368488 2.933970715248015004 -6.000000000000042633 #
coedge $-1 -1 $-1 $151 $75 $140 $152 forward $43 0 $-1 #
coedge $-1 -1 $-1 $75 $151 $76 $116 forward $43 0 $-1 #
edge $153 -1 $-1 $118 5.611988655800487891 $154 8.857169515587431263 $75 $155 forward @7 unknown #
coedge $-1 -1 $-1 $77 $76 $-1 $156 reversed $27 0 $-1 #
edge $157 -1 $-1 $158 -5.999999999999983125 $118 6.205004019081347799 $76 $159 forward @7 tangent #
ATTRIB_CUSTOM-attrib $-1 -1 $-1 $-1 $78 @22 generic_tag_attrib_def 3 3 -1 @23 generic_tag_attrib_def  1 5 @5 33429 0 1 740 0 #
vertex $160 -1 $-1 $78 1 $161 #
intcurve-curve $-1 -1 $-1 forward { par_int_cur 22020 full nubs 3 open 2 
	2.368249990879081501 3 5.542286296292593839 3 
	3.266144188537062565 -2.468730625425043623 6.116369155873762509 
	4.20403598065463413 -2.957479739625666237 6.145914000661111487 
	5.141927775096069908 -3.446228855037288596 6.17545875170287939 
	6.079819556745064801 -3.934977963782583466 6.205004019081404643 
	0 
	
	plane 1.28336820253053574 -1.435477093446724695 -5.673335835209404672e-17 -0.4621306198263220866 -0.8868118685600342443 7.564447780271451562e-17 0.8868118685600359097 -0.4621306198263256393 -1.02921696228053884e-30 forward_v I I I I 
	null_surface 
	nubs 3 open 2 
	2.368249990879081501 3 5.542286296292593839 3 
	2.235847372257282473 6.116369155873723429 
	3.293446876017281255 6.145914000661072407 
	4.351046382397750989 6.175458751702839422 
	5.408645874353018357 6.205004019081364675 
	
	nullbs 
	I I 
	0 
	0 
	0 
	
	0 surf1 F } I I #
edge $162 -1 $-1 $109 -0.7458401653448513136 $122 0.7458401653448394342 $79 $163 forward @7 unknown #
ATTRIB_CUSTOM-attrib $-1 -1 $-1 $-1 $80 @22 generic_tag_attrib_def 3 3 -1 @23 generic_tag_attrib_def  1 5 @5 33515 0 1 740 0 #
vertex $164 -1 $-1 $80 0 $165 #
straight-curve $-1 -1 $-1 3.266144188537063897 -2.468730625425042291 2.075988786150630404e-16 6.550588120710553081e-19 8.495799136090307858e-17 1.000000000000003553 I I #
ATTRIB_CUSTOM-attrib $-1 -1 $-1 $-1 $81 @22 generic_tag_attrib_def 3 3 -1 @23 generic_tag_attrib_def  1 5 @5 32712 0 1 740 0 #
straight-curve $-1 -1 $-1 2.807713127286028509 -1.191321532947558381 9.937306727842111567e-17 -6.550588120710383599e-19 -8.495799136090278276e-17 -1.000000000000000444 I I #
ATTRIB_CUSTOM-attrib $-1 -1 $-1 $-1 $83 @22 generic_tag_attrib_def 3 3 -1 @23 generic_tag_attrib_def  1 5 @5 34177 0 0 0 #
point $-1 -1 $-1 2.807713127286028509 -1.191321532947557937 6.100984816916568576 #
ATTRIB_CUSTOM-attrib $-1 -1 $-1 $-1 $84 @22 generic_tag_attrib_def 3 3 -1 @23 generic_tag_attrib_def  1 5 @5 34183 0 0 0 #
point $-1 -1 $-1 3.266144188537063897 -2.468730625425041847 6.116369155873723429 #
edge $166 -1 $-1 $167 -3.359512019888155621 $132 -0.0009599215063693655736 $86 $168 reversed @7 unknown #
ATTRIB_CUSTOM-attrib $-1 -1 $-1 $-1 $87 @22 generic_tag_attrib_def 3 3 -1 @23 generic_tag_attrib_def  1 5 @5 32655 0 1 740 0 #
vertex $169 -1 $-1 $130 1 $170 #
intcurve-curve $-1 -1 $-1 forward { par_int_cur 22020 full nubs 3 open 2 
	3.000102559774429078 3 5.999985587258898967 3 
	11.01346962494573134 -9.779493913486167145 6.360736598141140341 
	11.01325180139281201 -9.784008127583163628 5.360398839727228193 
	11.01302173414998897 -9.788521802750818068 4.360034913558536118 
	11.01277942771925566 -9.793034839414774595 3.359666871391476128 
	1.688911883028029811e-11 
	
	cone 8.516374970567850866 -9.659002058668324509 -5.75868460811338618e-29 6.550588120710337377e-19 8.495799136090307858e-17 1 2.500000000000005773 4.024558464266192459e-15 -1.637647030177908045e-18 1 I I 0 -1 1.750000000000000222 forward I I I I 
	null_surface 
	nubs 3 open 2 
	3.000102559774429078 3 5.999985587258898967 3 
	3.63470662750921214 -0.0482154210362639446 
	3.063085051272692372 -0.05002320757294284603 
	2.491448522033441471 -0.05183101483064522785 
	1.919809640795123284 -0.05363882952630788514 
	
	nullbs 
	I I 
	0 
	0 
	0 
	
	0 surf1 F } I I #
ATTRIB_CUSTOM-attrib $-1 -1 $-1 $-1 $89 @22 generic_tag_attrib_def 3 3 -1 @23 generic_tag_attrib_def  1 5 @5 34194 0 0 0 #
point $-1 -1 $-1 11.01346962494573134 -9.779493913486165368 6.360736598141103038 #
edge $171 -1 $-1 $138 -3.428571428571438595 $167 1.831366102807337833e-17 $91 $172 forward @7 unknown #
ATTRIB_CUSTOM-attrib $-1 -1 $-1 $-1 $92 @22 generic_tag_attrib_def 3 3 -1 @23 generic_tag_attrib_def  1 5 @5 32738 0 1 740 0 #
vertex $-1 -1 $-1 $136 0 $173 #
ellipse-curve $-1 -1 $-1 8.516374970567850866 -9.659002058668324509 -6.000000000000071054 6.550588120710337377e-19 8.495799136090307858e-17 1 2.500000000000005329 4.062461626965925638e-15 3.552713678800500929e-14 1 I I #
coedge $-1 -1 $-1 $94 $93 $112 $152 reversed $73 0 $-1 #
edge $174 -1 $-1 $175 -0.6060154984051522309 $96 0.6060154984051568938 $93 $176 forward @7 unknown #
edge $177 -1 $-1 $154 2.970053735596855482 $56 4.18539176950937275 $94 $178 forward @7 unknown #
ATTRIB_CUSTOM-attrib $-1 -1 $-1 $-1 $96 @22 generic_tag_attrib_def 3 3 -1 @23 generic_tag_attrib_def  1 5 @5 34182 0 0 0 #
point $-1 -1 $-1 8.843547610612631615 -7.180502903210308041 -6 #
ATTRIB_CUSTOM-attrib $-1 -1 $-1 $-1 $102 @22 generic_tag_attrib_def 3 3 -1 @23 generic_tag_attrib_def  1 5 @5 32749 0 1 740 0 #
intcurve-curve $-1 -1 $-1 forward { par_int_cur 22020 full nubs 3 open 7 
	0.1422522373265232287 3 0.7581216080585433392 3 1.858205078940033506 3 2.465832756131282721 3 2.936473177312572069 3 
	4.072170600775582017 3 4.830713675630901704 3 
	1.219004197310565196 2.79580556672726166 6.051940530060098133 
	1.410324875703684588 2.712387494752189099 6.057918504711941488 
	1.592717622088543283 2.609487001691099817 6.06360366279594043 
	1.763235146571455525 2.488674711146215746 6.068907310264183508 
	2.067818422009100487 2.272876345090457217 6.078380836944462295 
	2.330311290436006821 2.002882051058881618 6.086507725117344059 
	2.537460202998263803 1.692275308040208648 6.092903081857692804 
	2.651878259359059076 1.520712641409880161 6.096435537224770052 
	2.748394573861593582 1.338296041577643702 6.099408226375826025 
	2.825720967762667346 1.147955143874659134 6.101783998446069113 
	2.885614432066757828 1.000525848558406539 6.103624162101776385 
	2.933996039022391589 0.8483429023375993472 6.105106108541438203 
	2.970280306640670887 0.6927733395446799003 6.106212833372434368 
	3.057837489134456632 0.3173700726732840427 6.108883459358805723 
	3.073435119449509312 -0.07137555235261922038 6.109323596982225268 
	3.016232863916135987 -0.4525917703980575912 6.10751379763159008 
	2.978026935202630288 -0.7072096961296528983 6.106305015489498444 
	2.907814738092913132 -0.955401507201507183 6.104107156756064967 
	2.807713127286023624 -1.191321532947564377 6.100984816916611209 
	6.797012562210671425e-06 
	
	cone 5.240252676230738871e-14 6.572520305780926719e-13 -5.403697200763930867e-29 6.550588120710365303e-19 8.495799136090274578e-17 1 3.050000000000010036 5.717648576819556183e-15 -1.997929376817146184e-18 1 I I 0 -1 2.300000000000001155 forward I I I I 
	null_surface 
	nubs 3 open 7 
	0.1422522373265232287 3 0.7581216080585433392 3 1.858205078940033506 3 2.465832756131282721 3 2.936473177312572069 3 
	4.072170600775582017 3 4.830713675630901704 3 
	2.631278491330466984 1.159635685771587266 
	2.633877610744312037 1.091204361122240174 
	2.636349418606919848 1.022903378826682363 
	2.638655352288764799 0.954385977287924292 
	2.64277427693236433 0.8319982365062277285 
	2.646307706572747609 0.7105843988406097544 
	2.649088296459855663 0.5881758808068430211 
	2.650624146619454446 0.5205639173058537184 
	2.651916620163392135 0.4532446101314395182 
	2.652949564541758676 0.3858844921741118039 
	2.653749635696414089 0.3337104463294559009 
	2.654393960235397643 0.2815140601111092988 
	2.654875144944526255 0.2291386790923165828 
	2.656036286677731173 0.102752201010732791 
	2.65622765086182655 -0.02255260998948713583 
	2.655440781578941589 -0.1489408018980158399 
	2.654915224125858231 -0.2333566733572952911 
	2.65395963337219154 -0.3172545763552996334 
	2.652602094311559355 -0.4012802638279028278 
	
	nullbs 
	I I 
	0 
	5 0.7581216080585433392 1.858205078940033506 2.465832756131282721 2.936473177312572069 4.072170600775582017 
	0 
	
	0 surf1 F } I I #
ATTRIB_CUSTOM-attrib $-1 -1 $-1 $-1 $104 @22 generic_tag_attrib_def 3 3 -1 @23 generic_tag_attrib_def  1 5 @5 34189 0 0 0 #
point $-1 -1 $-1 1.219004197310572746 2.795805566727259439 6.051940530060055501 #
ATTRIB_CUSTOM-attrib $-1 -1 $-1 $-1 $109 @22 generic_tag_attrib_def 3 3 -1 @23 generic_tag_attrib_def  1 5 @5 34178 0 0 0 #
point $-1 -1 $-1 2.807713127286028509 -1.191321532947558826 -6 #
coedge $-1 -1 $-1 $113 $112 $-1 $179 reversed $43 0 $-1 #
edge $180 -1 $-1 $154 -6.264411143814826666 $175 5.999999999999996447 $112 $181 forward @7 tangent #
ATTRIB_CUSTOM-attrib $-1 -1 $-1 $-1 $114 @22 generic_tag_attrib_def 3 3 -1 @23 generic_tag_attrib_def  1 5 @5 33118 0 1 740 0 #
vertex $182 -1 $-1 $114 1 $183 #
intcurve-curve $-1 -1 $-1 forward { par_int_cur 22020 full nubs 3 open 5 
	5.611988655800486114 3 6.630412222965918367 3 6.63597878886046022 3 8.134079095669308757 3 8.857169515587431263 3 
	6.079819556745013287 -3.934977963782674948 6.20500401908140109 
	6.380630349897820075 -4.091734862532664607 6.214365270226603677 
	6.658862146466772991 -4.288624299055230793 6.223015950527270412 
	6.906849009836481201 -4.520303264480754812 6.230713717122320361 
	6.908204472593269863 -4.521569590466326893 6.230755792076568156 
	6.909559031760345249 -4.522836955815480842 6.23079783855579894 
	6.910912686084258461 -4.524105359657458969 6.230839856520351994 
	7.275214482988445752 -4.86546414725166354 6.242147928099950782 
	7.567737993501396865 -5.276189946645771123 6.251196964576092086 
	7.771244302640365476 -5.732162287189126459 6.257440449755200973 
	7.869471011401102167 -5.952247170488339734 6.260454002518920369 
	7.946048216008760434 -6.180829723594314373 6.262785979163042249 
	8.000187838370692361 -6.414665184154590527 6.26441114381486841 
	4.742949167368966803e-06 
	
	cone 4.346829732396299661 -7.260522470882815327 -5.581190904438658523e-29 6.550588120710337377e-19 8.495799136090307858e-17 1 3.504745337998814048 -1.33388909425618829 1.110287238284991145e-16 1 I I 0 -1 3.000000000000001776 forward I I I I 
	null_surface 
	nubs 3 open 5 
	5.611988655800486114 3 6.630412222965918367 3 6.63597878886046022 3 8.134079095669308757 3 8.857169515587431263 3 
	2.068334673027126591 1.454067032329181997 
	2.071455090075527306 1.363612433838448323 
	2.074338650175749699 1.273549409552492406 
	2.076904572374099534 1.183050495162603521 
	2.07691859735884865 1.182555840299364114 
	2.076932612851925875 1.182061172297869556 
	2.076946618840110226 1.181566491016145193 
	2.080715976033309822 1.048435545660721724 
	2.083732321525356923 0.9166037872467093228 
	2.085813483251726552 0.7834504171771337067 
	2.08681800083963287 0.7191810716336334286 
	2.087595326387673644 0.655192394028052072 
	2.088137047938282365 0.5911867713167495708 
	
	nullbs 
	I I 
	0 
	3 6.630412222965918367 6.63597878886046022 8.134079095669308757 
	0 
	
	0 surf1 F } I I #
edge $184 -1 $-1 $122 2.235847372257282917 $158 5.408645874353018357 $115 $185 forward @7 unknown #
ATTRIB_CUSTOM-attrib $-1 -1 $-1 $-1 $116 @22 generic_tag_attrib_def 3 3 -1 @23 generic_tag_attrib_def  1 5 @5 33141 0 1 740 0 #
vertex $186 -1 $-1 $116 0 $187 #
straight-curve $-1 -1 $-1 6.079819556745018616 -3.934977963782671395 -5.673335835208813026e-17 6.550588120710356636e-19 8.49579913609033251e-17 1.000000000000002887 I I #
ATTRIB_CUSTOM-attrib $-1 -1 $-1 $-1 $118 @22 generic_tag_attrib_def 3 3 -1 @23 generic_tag_attrib_def  1 5 @5 34185 0 0 0 #
point $-1 -1 $-1 6.079819556745018616 -3.934977963782670951 6.205004019081365563 #
ATTRIB_CUSTOM-attrib $-1 -1 $-1 $-1 $120 @22 generic_tag_attrib_def 3 3 -1 @23 generic_tag_attrib_def  1 5 @5 33143 0 1 740 0 #
ellipse-curve $-1 -1 $-1 3.728274808363391202 -1.581918756865004827 -6.000000000000085265 6.550588120710365303e-19 8.495799136090274578e-17 1 -0.9412242013094518356 -0.3377824786299378768 4.263256414560601115e-14 1 I I #
ATTRIB_CUSTOM-attrib $-1 -1 $-1 $-1 $122 @22 generic_tag_attrib_def 3 3 -1 @23 generic_tag_attrib_def  1 5 @5 34184 0 0 0 #
point $-1 -1 $-1 3.266144188537063897 -2.468730625425042735 -6 #
ATTRIB_CUSTOM-attrib $-1 -1 $-1 $-1 $130 @22 generic_tag_attrib_def 3 3 -1 @23 generic_tag_attrib_def  1 5 @5 34008 0 1 740 0 #
vertex $188 -1 $-1 $130 0 $189 #
intcurve-curve $-1 -1 $-1 forward { par_int_cur 22020 full nubs 3 open 2 
	0.0009599215063693655736 3 3.359512019888155621 3 
	11.01277942771925566 -9.793034839414774595 3.359666871391476128 
	11.01277942830149748 -9.793034828570332806 2.239777914260984382 
	11.01277942888373929 -9.793034817725889241 1.119888957130491747 
	11.0127794294659811 -9.793034806881447452 4.18007682425098789e-17 
	0 
	
	cone 8.516374970567850866 -9.659002058668324509 -5.75868460811338618e-29 6.550588120710337377e-19 8.495799136090307858e-17 1 2.500000000000005773 4.024558464266192459e-15 -1.637647030177908045e-18 1 I I 0 -1 1.750000000000000222 forward I I I I 
	null_surface 
	nubs 1 open 2 
	0.0009599215063693655736 1 3.359512019888155621 1 
	1.919809640795123284 -0.05363882952630782963 
	1.831366109548189705e-17 -0.05363881649423465903 
	
	nullbs 
	I I 
	0 
	0 
	0 
	
	0 surf1 F } I I #
ATTRIB_CUSTOM-attrib $-1 -1 $-1 $-1 $132 @22 generic_tag_attrib_def 3 3 -1 @23 generic_tag_attrib_def  1 5 @5 34180 0 0 0 #
point $-1 -1 $-1 11.01277942771925566 -9.793034839414772819 3.359666871391456588 #
ATTRIB_CUSTOM-attrib $-1 -1 $-1 $-1 $136 @22 generic_tag_attrib_def 3 3 -1 @23 generic_tag_attrib_def  1 5 @5 32723 0 1 740 0 #
straight-curve $-1 -1 $-1 11.0127794294659811 -9.793034806881447452 9.751861325416412686e-18 1.146352921124312532e-18 1.486764848815808343e-16 1.750000000000005329 I I #
point $-1 -1 $-1 11.0127794294659811 -9.793034806881447452 -6.000000000000035527 #
ATTRIB_CUSTOM-attrib $-1 -1 $-1 $-1 $141 @22 generic_tag_attrib_def 3 3 -1 @23 generic_tag_attrib_def  1 5 @5 33870 0 1 740 0 #
vertex $190 -1 $-1 $152 1 $191 #
ellipse-curve $-1 -1 $-1 8.974416666630535389 -6.189103241027081204 -6.000000000000071054 6.550588120710337377e-19 8.495799136090307858e-17 1 -0.6722627361685997727 -0.7403126458187164749 3.552713678800500929e-14 1 I I #
ATTRIB_CUSTOM-attrib $-1 -1 $-1 $-1 $142 @22 generic_tag_attrib_def 3 3 -1 @23 generic_tag_attrib_def  1 5 @5 33867 0 1 740 0 #
intcurve-curve $-1 -1 $-1 forward { par_int_cur 22020 full nubs 3 open 6 
	2.970053735596852817 3 3.172155443250284979 3 3.565375789487351454 3 3.905242224361612724 3 4.132722973215648743 3 
	4.185391769509377191 3 
	8.000187838370695914 -6.414665184154596744 6.264411143814866634 
	8.015309464844087017 -6.479977285284290289 6.264964414506774659 
	8.036997133097171897 -6.543761206099981464 6.265724511892281967 
	8.065014196209352448 -6.605020476534156693 6.266684375464224743 
	8.119525755688153268 -6.724209927281716404 6.268551939526311401 
	8.19693567290691405 -6.831516379224041202 6.271139386573343799 
	8.292821040307714497 -6.920832290728949232 6.274310245193748692 
	8.375696248284546286 -6.998029416236837719 6.277050867404984302 
	8.471080409050181004 -7.060582664837805389 6.280184591314794673 
	8.574891987691140471 -7.105825680437381386 6.28358467473310256 
	8.644375564843153725 -7.13610791490638352 6.285860432038905543 
	8.717074986962050076 -7.158391385625981762 6.288237194574202604 
	8.791588334758067447 -7.172248093561401028 6.290671349113296174 
	8.808840468646330635 -7.175456348023498521 6.291234930823893734 
	8.826166271457644541 -7.178208491043021056 6.29180081925114365 
	8.843547610612636944 -7.180502903210291166 6.292368450079020903 
	1.179350719337912938e-06 
	
	cone 8.974416666630535389 -6.189103241027080315 -9.405696727393982589e-17 6.550588120710337377e-19 8.495799136090307858e-17 1 -0.6722627361685999947 -0.7403126458187159198 6.333584699718796532e-17 1 I I 0 1 0.9999999999999996669 forward I I I I 
	null_surface 
	nubs 3 open 6 
	2.970053735596852817 3 3.172155443250284979 3 3.565375789487351454 3 3.905242224361612724 3 4.132722973215648743 3 
	4.185391769509377191 3 
	6.264411143814850647 -0.6060154984051520088 
	6.264964414506758672 -0.5389757031997963743 
	6.26572451189226598 -0.4719462315526586349 
	6.266684375464208756 -0.4045841202469756537 
	6.268551939526295413 -0.2735206421673990751 
	6.271139386573327812 -0.1437194716125086702 
	6.274310245193732705 -0.01268002820122517485 
	6.277050867404968315 0.1005793920863772006 
	6.280184591314778686 0.2130206307192802628 
	6.283584674733086572 0.3262627356117252519 
	6.285860432038889556 0.4020583899612673595 
	6.288237194574186617 0.4776077021977834236 
	6.290671349113280186 0.5533985153256143485 
	6.291234930823877747 0.5709464217646214035 
	6.291800819251127663 0.5884833770841603195 
	6.292368450079004916 0.6060154984051573379 
	
	nullbs 
	I I 
	0 
	4 3.172155443250284979 3.565375789487351454 3.905242224361612724 4.132722973215648743 
	0 
	
	0 surf1 F } I I #
edge $192 -1 $-1 $158 -1.454067032329181774 $175 -0.5911867713167493488 $151 $193 reversed @7 unknown #
ATTRIB_CUSTOM-attrib $-1 -1 $-1 $-1 $152 @22 generic_tag_attrib_def 3 3 -1 @23 generic_tag_attrib_def  1 5 @5 33624 0 1 740 0 #
straight-curve $-1 -1 $-1 8.00018783837069769 -6.414665184154600297 -7.42555004794376791e-17 -6.550588120710349895e-19 -8.495799136090314021e-17 -1.000000000000000666 I I #
ATTRIB_CUSTOM-attrib $-1 -1 $-1 $-1 $154 @22 generic_tag_attrib_def 3 3 -1 @23 generic_tag_attrib_def  1 5 @5 34187 0 0 0 #
point $-1 -1 $-1 8.00018783837069769 -6.414665184154599409 6.264411143814831107 #
ATTRIB_CUSTOM-attrib $-1 -1 $-1 $-1 $156 @22 generic_tag_attrib_def 3 3 -1 @23 generic_tag_attrib_def  1 5 @5 33633 0 1 740 0 #
straight-curve $-1 -1 $-1 1.283368202530535518 -1.435477093446725139 -6.00000000000003908 0.8868118685600359097 -0.4621306198263256393 -1.02921696228053884e-30 I I #
ATTRIB_CUSTOM-attrib $-1 -1 $-1 $-1 $158 @22 generic_tag_attrib_def 3 3 -1 @23 generic_tag_attrib_def  1 5 @5 34186 0 0 0 #
point $-1 -1 $-1 6.079819556745018616 -3.934977963782671839 -6 #
ATTRIB_CUSTOM-attrib $-1 -1 $-1 $-1 $167 @22 generic_tag_attrib_def 3 3 -1 @23 generic_tag_attrib_def  1 5 @5 34181 0 0 0 #
point $-1 -1 $-1 11.0127794294659811 -9.793034806881447452 4.180076812454491952e-17 #
ATTRIB_CUSTOM-attrib $-1 -1 $-1 $-1 $175 @22 generic_tag_attrib_def 3 3 -1 @23 generic_tag_attrib_def  1 5 @5 34188 0 0 0 #
point $-1 -1 $-1 8.00018783837069769 -6.414665184154601185 -6 #
ATTRIB_CUSTOM-attrib $-1 -1 $-1 $-1 $179 @22 generic_tag_attrib_def 3 3 -1 @23 generic_tag_attrib_def  1 5 @5 33511 0 1 740 0 #
ellipse-curve $-1 -1 $-1 4.346829732396299661 -7.260522470882816215 -6.000000000000071942 6.550588120710337377e-19 8.495799136090307858e-17 1 3.504745337998814492 -1.333889094256187402 3.552713678800500929e-14 1 I I #
End-of-ASM-data 