# WaveFront *.obj file
# Vertices: 6
# Triangles : 4

v 4.5171057571022658e+01 -7.2506048710263791e+00 4.4352600785945739e+00
v 4.5167957019919847e+01 -7.2500141149709982e+00 5.5412360412039181e+00
v 4.5614533011405321e+01 -7.3344075734803047e+00 5.5572507152777133e+00
v 4.6069279437242017e+01 -7.4187016471510177e+00 5.5735540595467867e+00
v 4.6069279437242017e+01 -7.4187016471523037e+00 4.4635551521676380e+00
v 4.5616909264221427e+01 -7.3348570070178676e+00 4.4493049431683191e+00

vn 1.8764515653387362e-01 9.8223688346008375e-01 -3.7047195378994040e-16
vn 1.8766359096567137e-01 9.8223336159278818e-01 -3.7047062544127022e-16
vn 1.8454041984028910e-01 9.8282492512408837e-01 -3.7069374646321725e-16
vn 1.8455940189268527e-01 9.8282136076349824e-01 -3.7069240208727899e-16
vn 1.8043946910294292e-01 9.8358609078709935e-01 -3.7098083660927261e-16
vn 1.8043946910294065e-01 9.8358609078709980e-01 -3.7098083660927281e-16

g face 0
f 1//1 2//2 6//3
f 6//3 2//2 3//4
f 6//3 3//4 4//5
f 4//5 5//6 6//3

g halfedge 0 edge 0
l 1 2

g halfedge 1 edge 1
l 2 3 4

g halfedge 2 edge 2
l 4 5

g halfedge 3 edge 3
l 5 6 1

g vertex 0
p 1

g vertex 1
p 2

g vertex 2
p 4

g vertex 3
p 5

# End of file
