22700 0 2 4           
16 Autodesk Neutron 20 ASM 227.1.1.65535 NT 24 Thu Aug 26 00:05:57 2021 
10 9.999999999999999547e-07 1.000000000000000036e-10 
asmheader $-1 -1 @13 227.1.1.65535 #
body $2 16 $-1 $3 $-1 $4 #
ATTRIB_CUSTOM-attrib $-1 -1 $5 $-1 $1 @20 Timestamp_attrib_def 1 1406915265000 #
lump $-1 -1 $-1 $-1 $6 $1 #
transform $-1 -1 1 0 0 0 1 0 0 0 1 0 0 0 1 no_rotate no_reflect no_shear #
ATTRIB_CUSTOM-attrib $-1 -1 $-1 $2 $1 @22 generic_tag_attrib_def 3 3 -1 @23 generic_tag_attrib_def  1 3 @3 740 17 0 0 #
shell $-1 -1 $-1 $-1 $-1 $7 $-1 $3 #
face $8 1690 $-1 $9 $10 $6 $-1 $11 forward single #
ATTRIB_CUSTOM-attrib $-1 -1 $-1 $-1 $7 @22 generic_tag_attrib_def 3 3 -1 @23 generic_tag_attrib_def  1 5 @5 37041 0 1 740 0 #
face $12 1691 $-1 $13 $14 $6 $-1 $15 forward single #
loop $-1 -1 $-1 $16 $17 $7 #
plane-surface $-1 -1 $-1 -19.95166575886594273 33.76115875292095581 -2.200000000000007727 -3.137137829545532509e-18 1.698338338766520528e-16 1 0.95105651629515775 0.3090169943749386805 -4.949794551243036559e-17 forward_v I I I I #
ATTRIB_CUSTOM-attrib $-1 -1 $-1 $-1 $9 @22 generic_tag_attrib_def 3 3 -1 @23 generic_tag_attrib_def  1 5 @5 26483 0 1 740 0 #
face $18 1692 $-1 $19 $20 $6 $-1 $21 forward single #
loop $-1 -1 $-1 $22 $23 $9 #
cone-surface $-1 -1 $-1 3.552713678800500929e-15 3.907985046680551022e-14 -3.352658847189300173e-30 6.550588120710182339e-19 8.495799136090452072e-17 1 1.749999999999999778 1.942890293094023946e-16 -1.146352921124297317e-18 1 I I 0 -1 1.749999999999999778 forward I I I I #
loop $-1 -1 $-1 $-1 $24 $7 #
coedge $-1 -1 $-1 $17 $17 $25 $26 reversed $10 0 $-1 #
ATTRIB_CUSTOM-attrib $-1 -1 $-1 $-1 $13 @22 generic_tag_attrib_def 3 3 -1 @23 generic_tag_attrib_def  1 5 @5 26482 0 1 740 0 #
face $27 1693 $-1 $-1 $28 $6 $-1 $29 reversed single #
loop $-1 -1 $-1 $30 $31 $13 #
cone-surface $-1 -1 $-1 3.552713678800500929e-15 3.907985046680551022e-14 -3.352658847189300173e-30 6.550588120710182339e-19 8.495799136090452072e-17 1 2.300000000000001599 2.498001805406602216e-16 -1.506635267763362892e-18 1 I I 0 1 2.300000000000001155 forward I I I I #
loop $-1 -1 $-1 $-1 $32 $9 #
coedge $-1 -1 $-1 $23 $23 $33 $34 reversed $14 0 $-1 #
coedge $-1 -1 $-1 $24 $24 $32 $35 reversed $16 0 $-1 #
coedge $-1 -1 $-1 $25 $25 $17 $26 forward $30 0 $-1 #
edge $-1 1686 $-1 $36 -3.141592653589793116 $36 3.141592653589793116 $25 $37 forward @7 unknown #
ATTRIB_CUSTOM-attrib $-1 -1 $-1 $-1 $19 @22 generic_tag_attrib_def 3 3 -1 @23 generic_tag_attrib_def  1 5 @5 26484 0 1 740 0 #
loop $-1 -1 $-1 $38 $33 $19 #
plane-surface $-1 -1 $-1 22.53901001139917071 -1.299427399542963713 -5.400000000000000355 1.174817266076213597e-32 -1.109335647967047632e-31 1 1 1.11022302462515654e-16 -1.020742870525235002e-32 forward_v I I I I #
loop $-1 -1 $-1 $-1 $25 $13 #
coedge $-1 -1 $-1 $31 $31 $39 $40 reversed $20 0 $-1 #
coedge $-1 -1 $-1 $32 $32 $24 $35 forward $22 0 $-1 #
coedge $-1 -1 $-1 $33 $33 $23 $34 forward $28 0 $-1 #
edge $-1 1688 $-1 $41 -3.141592653589793116 $41 3.141592653589793116 $23 $42 reversed @7 unknown #
edge $-1 1687 $-1 $43 -3.141592653589793116 $43 3.141592653589793116 $32 $44 forward @7 unknown #
vertex $-1 1682 $-1 $26 0 $45 #
ellipse-curve $-1 -1 $-1 3.551272549413944735e-15 3.889294288581151851e-14 -2.200000000000005063 3.137137829545532509e-18 -1.698338338766520528e-16 -1 2.300000000000001599 2.498001805406602216e-16 -1.506635267763362892e-18 1 I I #
loop $-1 -1 $-1 $-1 $39 $19 #
coedge $-1 -1 $-1 $39 $39 $31 $40 forward $38 0 $-1 #
edge $-1 1689 $-1 $46 -3.141592653589793116 $46 3.141592653589793116 $31 $47 reversed @7 unknown #
vertex $-1 1684 $-1 $34 0 $48 #
ellipse-curve $-1 -1 $-1 3.549176361215317615e-15 3.862107731345662491e-14 -5.400000000000000355 -1.174817266076213597e-32 1.109335647967047632e-31 -1 1.749999999999999778 1.942890293094023946e-16 -1.146352921124297317e-18 1 I I #
vertex $-1 1683 $-1 $35 0 $49 #
ellipse-curve $-1 -1 $-1 3.551272549413944735e-15 3.889294288581151851e-14 -2.200000000000005063 -3.137137829545532509e-18 1.698338338766520528e-16 1 1.749999999999999778 1.942890293094023946e-16 -1.146352921124297317e-18 1 I I #
point $-1 -1 $-1 -2.299999999999998046 3.892481146907474786e-14 -2.200000000000005063 #
vertex $-1 1685 $-1 $40 0 $50 #
ellipse-curve $-1 -1 $-1 3.549176361215317615e-15 3.862107731345662491e-14 -5.400000000000000355 1.174817266076213597e-32 -1.109335647967047632e-31 1 2.300000000000001599 2.498001805406602216e-16 -1.506635267763362892e-18 1 I I #
point $-1 -1 $-1 -1.749999999999996225 3.864110147399800902e-14 -5.400000000000000355 #
point $-1 -1 $-1 -1.749999999999996225 3.84843406666513296e-14 -2.200000000000005063 #
point $-1 -1 $-1 -2.299999999999998046 3.808960836911207511e-14 -5.400000000000000355 #
End-of-ASM-data 