22700 0 2 4           
16 Autodesk Neutron 20 ASM 227.1.1.65535 NT 24 Thu Aug 26 00:05:56 2021 
10 9.999999999999999547e-07 1.000000000000000036e-10 
asmheader $-1 -1 @13 227.1.1.65535 #
body $2 15 $-1 $3 $-1 $4 #
ATTRIB_CUSTOM-attrib $-1 -1 $5 $-1 $1 @20 Timestamp_attrib_def 1 1406915265000 #
lump $-1 -1 $-1 $-1 $6 $1 #
transform $-1 -1 1 0 0 0 1 0 0 0 1 0 0 0 1 no_rotate no_reflect no_shear #
ATTRIB_CUSTOM-attrib $-1 -1 $-1 $2 $1 @22 generic_tag_attrib_def 3 3 -1 @23 generic_tag_attrib_def  1 3 @3 740 16 0 0 #
shell $-1 -1 $-1 $-1 $-1 $7 $-1 $3 #
face $8 19 $-1 $9 $10 $6 $-1 $11 forward single #
ATTRIB_CUSTOM-attrib $-1 -1 $-1 $-1 $7 @22 generic_tag_attrib_def 3 3 -1 @23 generic_tag_attrib_def  1 5 @5 26481 0 1 740 0 #
face $12 20 $-1 $13 $14 $6 $-1 $15 forward single #
loop $-1 -1 $-1 $16 $17 $7 #
plane-surface $-1 -1 $-1 22.53901001139917071 -1.299427399542963713 5.100000000000000533 1.174817266076213597e-32 -1.109335647967047632e-31 1 1 1.11022302462515654e-16 -1.020742870525235002e-32 forward_v I I I I #
ATTRIB_CUSTOM-attrib $-1 -1 $-1 $-1 $9 @22 generic_tag_attrib_def 3 3 -1 @23 generic_tag_attrib_def  1 5 @5 26482 20904 1 740 0 #
face $18 21 $-1 $19 $20 $6 $-1 $21 forward single #
loop $-1 -1 $-1 $22 $23 $9 #
cone-surface $-1 -1 $-1 3.552713678800500929e-15 3.907985046680551022e-14 -3.352658847189300173e-30 6.550588120710182339e-19 8.495799136090452072e-17 1 2.300000000000001599 2.498001805406602216e-16 -1.506635267763362892e-18 1 I I 0 1 2.300000000000001155 forward I I I I #
loop $-1 -1 $-1 $-1 $24 $7 #
coedge $-1 -1 $-1 $17 $17 $25 $26 forward $10 0 $-1 #
ATTRIB_CUSTOM-attrib $-1 -1 $-1 $-1 $13 @22 generic_tag_attrib_def 3 3 -1 @23 generic_tag_attrib_def  1 5 @5 26483 21116 1 740 0 #
face $27 18 $-1 $-1 $28 $6 $-1 $29 forward single #
loop $-1 -1 $-1 $30 $31 $13 #
cone-surface $-1 -1 $-1 3.552713678800500929e-15 3.907985046680551022e-14 -3.352658847189300173e-30 6.550588120710182339e-19 8.495799136090452072e-17 1 1.749999999999999778 1.942890293094023946e-16 -1.146352921124297317e-18 1 I I 0 -1 1.749999999999999778 forward I I I I #
loop $-1 -1 $-1 $-1 $32 $9 #
coedge $-1 -1 $-1 $23 $23 $33 $34 forward $14 0 $-1 #
coedge $-1 -1 $-1 $24 $24 $32 $35 forward $16 0 $-1 #
coedge $-1 -1 $-1 $25 $25 $17 $26 reversed $30 0 $-1 #
edge $-1 1678 $-1 $36 -3.141592653589793116 $36 3.141592653589793116 $25 $37 forward @7 unknown #
ATTRIB_CUSTOM-attrib $-1 -1 $38 $-1 $19 @22 FPM_tracked_attrib_def 1 29047 #
loop $-1 -1 $-1 $39 $33 $19 #
plane-surface $-1 -1 $-1 -19.95166575886594273 33.76115875292095581 2.199999999999999734 3.137137829545532509e-18 -1.698338338766520528e-16 -1 0.95105651629515775 0.3090169943749386805 -4.949794551243036559e-17 reverse_v I I I I #
loop $-1 -1 $-1 $-1 $25 $13 #
coedge $-1 -1 $-1 $31 $31 $40 $41 forward $20 0 $-1 #
coedge $-1 -1 $-1 $32 $32 $24 $35 reversed $22 0 $-1 #
coedge $-1 -1 $-1 $33 $33 $23 $34 reversed $28 0 $-1 #
edge $-1 1680 $-1 $42 -3.141592653589793116 $42 3.141592653589793116 $23 $43 forward @7 unknown #
edge $-1 1679 $-1 $44 -3.141592653589793116 $44 3.141592653589793116 $32 $45 forward @7 unknown #
vertex $-1 1674 $-1 $26 0 $46 #
ellipse-curve $-1 -1 $-1 3.556054478742063321e-15 3.951313622274612623e-14 5.100000000000000533 -1.174817266076213597e-32 1.109335647967047632e-31 -1 1.749999999999999778 1.942890293094023946e-16 -1.146352921124297317e-18 1 I I #
ATTRIB_CUSTOM-attrib $-1 -1 $-1 $27 $19 @22 generic_tag_attrib_def 3 3 -1 @23 generic_tag_attrib_def  1 5 @5 37040 0 1 740 0 #
loop $-1 -1 $-1 $-1 $40 $19 #
coedge $-1 -1 $-1 $40 $40 $31 $41 reversed $39 0 $-1 #
edge $-1 1681 $-1 $47 -3.141592653589793116 $47 3.141592653589793116 $31 $48 forward @7 unknown #
vertex $-1 1676 $-1 $34 0 $49 #
ellipse-curve $-1 -1 $-1 3.554154808187057518e-15 3.926675804779950194e-14 2.200000000000002398 -3.137137829545532509e-18 1.698338338766520528e-16 1 2.300000000000001599 2.498001805406602216e-16 -1.506635267763362892e-18 1 I I #
vertex $-1 1675 $-1 $35 0 $50 #
ellipse-curve $-1 -1 $-1 3.556054478742063321e-15 3.951313622274612623e-14 5.100000000000000533 1.174817266076213597e-32 -1.109335647967047632e-31 1 2.300000000000001599 2.498001805406602216e-16 -1.506635267763362892e-18 1 I I #
point $-1 -1 $-1 -1.749999999999996225 3.953316038328751035e-14 5.100000000000000533 #
vertex $-1 1677 $-1 $41 0 $51 #
ellipse-curve $-1 -1 $-1 3.554154808187057518e-15 3.926675804779950194e-14 2.200000000000002398 3.137137829545532509e-18 -1.698338338766520528e-16 -1 1.749999999999999778 1.942890293094023946e-16 -1.146352921124297317e-18 1 I I #
point $-1 -1 $-1 -2.299999999999998046 3.873528910345495214e-14 2.200000000000002398 #
point $-1 -1 $-1 -2.299999999999998046 3.898166727840157643e-14 5.100000000000000533 #
point $-1 -1 $-1 -1.749999999999996225 3.928678220834088605e-14 2.200000000000002398 #
End-of-ASM-data 