22700 0 2 4           
16 Autodesk Neutron 20 ASM 227.1.1.65535 NT 24 Thu Aug 26 00:05:58 2021 
10 9.999999999999999547e-07 1.000000000000000036e-10 
asmheader $-1 -1 @13 227.1.1.65535 #
body $2 0 $-1 $3 $-1 $-1 #
ATTRIB_CUSTOM-attrib $-1 -1 $4 $-1 $1 @20 Timestamp_attrib_def 1 1406915265000 #
lump $-1 -1 $-1 $-1 $5 $1 #
ATTRIB_CUSTOM-attrib $-1 -1 $6 $2 $1 @22 generic_tag_attrib_def 3 3 -1 @23 generic_tag_attrib_def  4 3 @3 324 1 0 0 3 @3 444 1 0 0 3 @3 622 1 0 0 3 @3 755 1 0 0 #
shell $-1 -1 $-1 $-1 $-1 $7 $-1 $3 #
DXID-attrib $-1 -1 $-1 $4 $1 @18 ASM_BODY_FROM_STEP @4 2659 #
face $8 63 $-1 $9 $10 $5 $-1 $11 forward single #
ATTRIB_CUSTOM-attrib $-1 -1 $12 $-1 $7 @22 generic_tag_attrib_def 3 3 -1 @23 generic_tag_attrib_def  1 1 @1 0 0 4 324 444 622 755 0 #
face $13 64 $-1 $14 $15 $5 $-1 $16 forward single #
loop $-1 -1 $-1 $17 $18 $7 #
cone-surface $-1 -1 $-1 0 0 0.3599999999999999867 0 0 -1 -1.300000000000000044 0 0 1 I I 0.7071067811865459074 0.7071067811865492381 1.300000000000000044 forward I I I I #
DXID-attrib $-1 -1 $-1 $8 $7 @18 ASM_FACE_FROM_STEP @5 14599 #
ATTRIB_CUSTOM-attrib $-1 -1 $19 $-1 $9 @22 generic_tag_attrib_def 3 3 -1 @23 generic_tag_attrib_def  1 1 @1 1 0 4 324 444 622 755 0 #
face $20 65 $-1 $21 $22 $5 $-1 $23 forward single #
loop $-1 -1 $-1 $24 $25 $9 #
cone-surface $-1 -1 $-1 0 0 0.4000000000000000222 0 0 1 1.300000000000000044 0 0 1 I I 0 1 1.300000000000000044 forward I I I I #
loop $-1 -1 $-1 $-1 $26 $7 #
coedge $-1 -1 $-1 $18 $18 $27 $28 reversed $10 0 $-1 #
DXID-attrib $-1 -1 $-1 $13 $9 @18 ASM_FACE_FROM_STEP @5 14600 #
ATTRIB_CUSTOM-attrib $-1 -1 $29 $-1 $14 @22 generic_tag_attrib_def 3 3 -1 @23 generic_tag_attrib_def  1 1 @1 2 0 4 324 444 622 755 0 #
face $30 66 $-1 $31 $32 $5 $-1 $33 reversed single #
loop $-1 -1 $-1 $34 $35 $14 #
cone-surface $-1 -1 $-1 0 0 -0.4000000000000010214 0 0 1 1.260000000000000009 0 0 1 I I 0.7071067811865459074 0.7071067811865492381 1.260000000000000009 forward I I I I #
loop $-1 -1 $-1 $-1 $36 $9 #
coedge $-1 -1 $-1 $25 $25 $26 $37 reversed $15 0 $-1 #
coedge $-1 -1 $-1 $26 $26 $25 $37 forward $17 0 $-1 #
coedge $-1 -1 $-1 $27 $27 $18 $28 forward $38 0 $-1 #
edge $39 55 $-1 $40 0 $40 6.283185307179586232 $18 $41 forward @7 unknown #
DXID-attrib $-1 -1 $-1 $20 $14 @18 ASM_FACE_FROM_STEP @5 14601 #
ATTRIB_CUSTOM-attrib $-1 -1 $42 $-1 $21 @22 generic_tag_attrib_def 3 3 -1 @23 generic_tag_attrib_def  1 1 @1 3 0 4 324 444 622 755 0 #
face $43 67 $-1 $44 $45 $5 $-1 $46 reversed single #
loop $-1 -1 $-1 $47 $48 $21 #
cone-surface $-1 -1 $-1 0 0 0.4000000000000000222 0 0 1 1.260000000000000009 0 0 1 I I 0 1 1.260000000000000009 forward I I I I #
loop $-1 -1 $-1 $-1 $49 $14 #
coedge $-1 -1 $-1 $35 $35 $36 $50 reversed $22 0 $-1 #
coedge $-1 -1 $-1 $36 $36 $35 $50 forward $24 0 $-1 #
edge $51 56 $-1 $52 0 $52 6.283185307179586232 $26 $53 forward @7 unknown #
loop $-1 -1 $-1 $-1 $27 $54 #
DXID-attrib $-1 -1 $-1 $-1 $28 @18 ASM_EDGE_FROM_STEP @4 8749 #
vertex $-1 47 $-1 $28 0 $55 #
ellipse-curve $-1 -1 $-1 0 0 0.4000000000000000222 0 0 1 1.260000000000000009 0 0 1 I I #
DXID-attrib $-1 -1 $-1 $30 $21 @18 ASM_FACE_FROM_STEP @5 14602 #
ATTRIB_CUSTOM-attrib $-1 -1 $56 $-1 $31 @22 generic_tag_attrib_def 3 3 -1 @23 generic_tag_attrib_def  1 1 @1 4 0 4 324 444 622 755 0 #
face $57 68 $-1 $58 $59 $5 $-1 $60 reversed single #
loop $-1 -1 $-1 $61 $62 $31 #
plane-surface $-1 -1 $-1 0 0.979120879120878973 -0.1777777777777780066 0 0 1 1 0 0 forward_v I I I I #
loop $-1 -1 $-1 $-1 $63 $21 #
coedge $-1 -1 $-1 $48 $48 $49 $64 reversed $32 0 $-1 #
coedge $-1 -1 $-1 $49 $49 $48 $64 forward $34 0 $-1 #
edge $65 57 $-1 $66 0 $66 6.283185307179586232 $36 $67 forward @7 unknown #
DXID-attrib $-1 -1 $-1 $-1 $37 @18 ASM_EDGE_FROM_STEP @4 8750 #
vertex $-1 48 $-1 $37 0 $68 #
ellipse-curve $-1 -1 $-1 0 0 0.3599999999999999867 0 0 1 1.300000000000000044 0 0 1 I I #
face $69 70 $-1 $-1 $70 $5 $-1 $71 reversed single #
point $-1 -1 $-1 1.260000000000000009 0 0.4000000000000000222 #
DXID-attrib $-1 -1 $-1 $43 $31 @18 ASM_FACE_FROM_STEP @5 14603 #
ATTRIB_CUSTOM-attrib $-1 -1 $72 $-1 $44 @22 generic_tag_attrib_def 3 3 -1 @23 generic_tag_attrib_def  1 1 @1 5 0 4 324 444 622 755 0 #
face $73 69 $-1 $54 $74 $5 $-1 $75 reversed single #
loop $-1 -1 $-1 $76 $77 $44 #
torus-surface $-1 -1 $-1 0 0 -5.02088605067174952e-16 0 0 1 0.9000000000000000222 0.1945894441753349968 1 0 0 forward_v I I I I #
loop $-1 -1 $-1 $-1 $78 $31 #
coedge $-1 -1 $-1 $62 $62 $63 $79 reversed $45 0 $-1 #
coedge $-1 -1 $-1 $63 $63 $62 $79 forward $47 0 $-1 #
edge $80 58 $-1 $81 0 $81 6.283185307179586232 $49 $82 forward @7 unknown #
DXID-attrib $-1 -1 $-1 $-1 $50 @18 ASM_EDGE_FROM_STEP @4 8751 #
vertex $-1 49 $-1 $50 0 $83 #
ellipse-curve $-1 -1 $-1 0 0 -0.3600000000000009859 0 0 1 1.300000000000000044 0 0 1 I I #
point $-1 -1 $-1 1.300000000000000044 0 0.3599999999999999867 #
ATTRIB_CUSTOM-attrib $-1 -1 $84 $-1 $54 @22 generic_tag_attrib_def 3 3 -1 @23 generic_tag_attrib_def  1 1 @1 7 0 4 324 444 622 755 0 #
loop $-1 -1 $-1 $38 $85 $54 #
cone-surface $-1 -1 $-1 0 0 0.4000000000000000222 0 0 1 1.260000000000000009 0 0 1 I I 0 1 1.260000000000000009 forward I I I I #
DXID-attrib $-1 -1 $-1 $57 $44 @18 ASM_FACE_FROM_STEP @5 14604 #
ATTRIB_CUSTOM-attrib $-1 -1 $86 $-1 $58 @22 generic_tag_attrib_def 3 3 -1 @23 generic_tag_attrib_def  1 1 @1 6 0 4 324 444 622 755 0 #
loop $-1 -1 $-1 $87 $88 $58 #
plane-surface $-1 -1 $-1 0 0.979120879120878973 0.1777777777777770074 0 0 -1 -1 0 0 forward_v I I I I #
loop $-1 -1 $-1 $-1 $89 $44 #
coedge $-1 -1 $-1 $77 $77 $78 $90 reversed $59 0 $-1 #
coedge $-1 -1 $-1 $78 $78 $77 $90 forward $61 0 $-1 #
edge $91 59 $-1 $92 0 $92 6.283185307179586232 $63 $93 forward @7 unknown #
DXID-attrib $-1 -1 $-1 $-1 $64 @18 ASM_EDGE_FROM_STEP @4 8752 #
vertex $-1 50 $-1 $64 0 $94 #
ellipse-curve $-1 -1 $-1 0 0 -0.4000000000000010214 0 0 1 1.260000000000000009 0 0 1 I I #
point $-1 -1 $-1 1.300000000000000044 0 -0.3600000000000009859 #
DXID-attrib $-1 -1 $-1 $69 $54 @18 ASM_FACE_FROM_STEP @5 14606 #
coedge $-1 -1 $-1 $85 $85 $88 $95 reversed $70 0 $-1 #
DXID-attrib $-1 -1 $-1 $73 $58 @18 ASM_FACE_FROM_STEP @5 14605 #
loop $-1 -1 $-1 $-1 $96 $58 #
coedge $-1 -1 $-1 $88 $88 $85 $95 forward $74 0 $-1 #
coedge $-1 -1 $-1 $89 $89 $96 $97 forward $76 0 $-1 #
edge $98 60 $-1 $99 0 $99 6.283185307179586232 $78 $100 forward @7 unknown #
DXID-attrib $-1 -1 $-1 $-1 $79 @18 ASM_EDGE_FROM_STEP @4 8753 #
vertex $-1 51 $-1 $79 0 $101 #
ellipse-curve $-1 -1 $-1 0 0 -0.1777777777777780066 0 0 1 1.260000000000000009 0 0 1 I I #
point $-1 -1 $-1 1.260000000000000009 0 -0.4000000000000010214 #
edge $102 62 $-1 $103 0 $103 6.283185307179586232 $88 $104 forward @7 unknown #
coedge $-1 -1 $-1 $96 $96 $89 $97 reversed $87 0 $-1 #
edge $105 61 $-1 $106 0 $106 6.283185307179586232 $89 $107 forward @7 unknown #
DXID-attrib $-1 -1 $-1 $-1 $90 @18 ASM_EDGE_FROM_STEP @4 8754 #
vertex $-1 52 $-1 $90 0 $108 #
ellipse-curve $-1 -1 $-1 0 0 -0.1777777777777780066 0 0 1 0.979120879120878973 0 0 1 I I #
point $-1 -1 $-1 1.260000000000000009 0 -0.1777777777777780066 #
DXID-attrib $-1 -1 $-1 $-1 $95 @18 ASM_EDGE_FROM_STEP @4 8756 #
vertex $-1 54 $-1 $95 0 $109 #
ellipse-curve $-1 -1 $-1 0 0 0.1777777777777770074 0 0 1 1.260000000000000009 0 0 1 I I #
DXID-attrib $-1 -1 $-1 $-1 $97 @18 ASM_EDGE_FROM_STEP @4 8755 #
vertex $-1 53 $-1 $97 0 $110 #
ellipse-curve $-1 -1 $-1 0 0 0.1777777777777770074 0 0 1 0.979120879120878973 0 0 1 I I #
point $-1 -1 $-1 0.979120879120878973 0 -0.1777777777777780066 #
point $-1 -1 $-1 1.260000000000000009 0 0.1777777777777770074 #
point $-1 -1 $-1 0.979120879120878973 0 0.1777777777777770074 #
End-of-ASM-data 