22700 0 2 4           
16 Autodesk Neutron 20 ASM 227.1.1.65535 NT 24 Thu Aug 26 00:05:57 2021 
10 9.999999999999999547e-07 1.000000000000000036e-10 
asmheader $-1 -1 @13 227.1.1.65535 #
body $2 17 $-1 $3 $-1 $4 #
ATTRIB_CUSTOM-attrib $-1 -1 $5 $-1 $1 @20 Timestamp_attrib_def 1 1406915265000 #
lump $-1 -1 $-1 $-1 $6 $1 #
transform $-1 -1 1 0 0 0 1 0 0 0 1 0 0 0 1 no_rotate no_reflect no_shear #
ATTRIB_CUSTOM-attrib $-1 -1 $-1 $2 $1 @22 generic_tag_attrib_def 3 3 -1 @23 generic_tag_attrib_def  1 3 @3 740 18 0 0 #
shell $-1 -1 $-1 $-1 $-1 $7 $-1 $3 #
face $8 23 $-1 $9 $10 $6 $-1 $11 forward single #
ATTRIB_CUSTOM-attrib $-1 -1 $12 $-1 $7 @22 FPM_tracked_attrib_def 1 29698 #
face $13 24 $-1 $14 $15 $6 $-1 $16 forward single #
loop $-1 -1 $-1 $17 $18 $7 #
plane-surface $-1 -1 $-1 22.53901001139917071 -1.299427399542963713 5.099999999999999645 1.174817266076213597e-32 -1.109335647967047632e-31 1 1 1.11022302462515654e-16 -1.020742870525235002e-32 forward_v I I I I #
ATTRIB_CUSTOM-attrib $-1 -1 $-1 $8 $7 @22 generic_tag_attrib_def 3 3 -1 @23 generic_tag_attrib_def  1 5 @5 26521 0 1 740 0 #
ATTRIB_CUSTOM-attrib $-1 -1 $-1 $-1 $9 @22 generic_tag_attrib_def 3 3 -1 @23 generic_tag_attrib_def  1 5 @5 26574 3906 1 740 0 #
face $19 25 $-1 $20 $21 $6 $-1 $22 forward single #
loop $-1 -1 $-1 $23 $24 $9 #
cone-surface $-1 -1 $-1 8.51637497056777093 -9.659002058668821888 -4.141519752410311978e-30 6.550588120710182339e-19 8.495799136090452072e-17 1 1.750000000000000222 2.081668171172168513e-16 -1.146352921124298858e-18 1 I I 0 1 1.750000000000000222 forward I I I I #
loop $-1 -1 $-1 $-1 $25 $7 #
coedge $-1 -1 $-1 $18 $18 $24 $26 forward $10 0 $-1 #
ATTRIB_CUSTOM-attrib $-1 -1 $-1 $-1 $14 @22 generic_tag_attrib_def 3 3 -1 @23 generic_tag_attrib_def  1 5 @5 26575 19661 1 740 0 #
face $27 22 $-1 $-1 $28 $6 $-1 $29 reversed single #
loop $-1 -1 $-1 $30 $31 $14 #
cone-surface $-1 -1 $-1 8.51637497056777093 -9.659002058668821888 -4.141519752410311978e-30 6.550588120710182339e-19 8.495799136090452072e-17 1 1.300000000000002487 1.387778780781445676e-16 -8.515764556923377249e-19 1 I I 0 -1 1.300000000000002709 forward I I I I #
loop $-1 -1 $-1 $-1 $32 $9 #
coedge $-1 -1 $-1 $24 $24 $18 $26 reversed $15 0 $-1 #
coedge $-1 -1 $-1 $25 $25 $31 $33 forward $17 0 $-1 #
edge $-1 1698 $-1 $34 -3.141592653589793116 $34 3.141592653589793116 $24 $35 forward @7 unknown #
ATTRIB_CUSTOM-attrib $-1 -1 $36 $-1 $20 @22 FPM_tracked_attrib_def 1 29461 #
loop $-1 -1 $-1 $37 $38 $20 #
plane-surface $-1 -1 $-1 22.53901001139917071 -1.299427399542963713 3.100000000000000089 1.174817266076213597e-32 -1.109335647967047632e-31 1 1 1.11022302462515654e-16 -1.020742870525235002e-32 forward_v I I I I #
loop $-1 -1 $-1 $-1 $39 $14 #
coedge $-1 -1 $-1 $31 $31 $25 $33 reversed $21 0 $-1 #
coedge $-1 -1 $-1 $32 $32 $40 $41 forward $23 0 $-1 #
edge $-1 1699 $-1 $42 -3.141592653589793116 $42 3.141592653589793116 $31 $43 forward @7 unknown #
vertex $-1 1694 $-1 $26 0 $44 #
ellipse-curve $-1 -1 $-1 8.51637497056777093 -9.659002058668821888 5.100000000000000533 1.174817266076213597e-32 -1.109335647967047632e-31 1 1.750000000000000222 2.081668171172168513e-16 -1.146352921124298858e-18 1 I I #
ATTRIB_CUSTOM-attrib $-1 -1 $-1 $27 $20 @22 generic_tag_attrib_def 3 3 -1 @23 generic_tag_attrib_def  1 5 @5 37087 0 1 740 0 #
loop $-1 -1 $-1 $-1 $40 $20 #
coedge $-1 -1 $-1 $38 $38 $39 $45 reversed $28 0 $-1 #
coedge $-1 -1 $-1 $39 $39 $38 $45 forward $30 0 $-1 #
coedge $-1 -1 $-1 $40 $40 $32 $41 reversed $37 0 $-1 #
edge $-1 1700 $-1 $46 2.777925688122396153 $46 9.061110995301982385 $32 $47 forward @7 unknown #
vertex $-1 1695 $-1 $33 0 $48 #
ellipse-curve $-1 -1 $-1 8.51637497056777093 -9.659002058668821888 5.100000000000000533 -1.174817266076213597e-32 1.109335647967047632e-31 -1 1.300000000000002487 1.387778780781445676e-16 -8.515764556923377249e-19 1 I I #
point $-1 -1 $-1 6.76637497056777093 -9.659002058668821888 5.100000000000000533 #
edge $-1 1701 $-1 $49 -3.141592653589793116 $49 3.141592653589793116 $39 $50 forward @7 unknown #
vertex $-1 1696 $-1 $41 0 $51 #
ellipse-curve $-1 -1 $-1 8.51637497056777093 -9.659002058668821888 3.100000000000000977 1.174817266076213597e-32 -1.109335647967047632e-31 1 1.750000000000000222 2.081668171172168513e-16 -1.146352921124298858e-18 1 I I #
point $-1 -1 $-1 7.216374970567768443 -9.659002058668821888 5.100000000000000533 #
vertex $-1 1697 $-1 $45 0 $52 #
ellipse-curve $-1 -1 $-1 8.51637497056777093 -9.659002058668821888 3.100000000000000977 -1.174817266076213597e-32 1.109335647967047632e-31 -1 1.300000000000002487 1.387778780781445676e-16 -8.515764556923377249e-19 1 I I #
point $-1 -1 $-1 6.88082714616832547 -9.036520481349260336 3.100000000000000089 #
point $-1 -1 $-1 7.216374970567768443 -9.659002058668821888 3.100000000000000089 #
End-of-ASM-data 