22700 0 2 4           
16 Autodesk Neutron 20 ASM 227.1.1.65535 NT 24 Thu Aug 26 00:05:59 2021 
10 9.999999999999999547e-07 1.000000000000000036e-10 
asmheader $-1 -1 @13 227.1.1.65535 #
body $2 1 $-1 $3 $-1 $-1 #
ATTRIB_CUSTOM-attrib $-1 -1 $4 $-1 $1 @20 Timestamp_attrib_def 1 1406915265000 #
lump $-1 -1 $-1 $-1 $5 $1 #
ATTRIB_CUSTOM-attrib $-1 -1 $6 $2 $1 @22 generic_tag_attrib_def 3 3 -1 @23 generic_tag_attrib_def  4 3 @3 324 2 0 0 3 @3 444 2 0 0 3 @3 622 2 0 0 3 @3 755 2 0 0 #
shell $-1 -1 $-1 $-1 $-1 $7 $-1 $3 #
DXID-attrib $-1 -1 $-1 $4 $1 @18 ASM_BODY_FROM_STEP @4 2660 #
face $8 79 $-1 $9 $10 $5 $-1 $11 forward single #
ATTRIB_CUSTOM-attrib $-1 -1 $12 $-1 $7 @22 generic_tag_attrib_def 3 3 -1 @23 generic_tag_attrib_def  1 2 @2 16 0 4 324 444 622 755 0 #
face $13 80 $-1 $14 $15 $5 $-1 $16 reversed single #
loop $-1 -1 $-1 $17 $18 $7 #
cone-surface $-1 -1 $-1 0 0 0.4000000000000000222 0 0 1 0.8208791208791209604 0 0 1 I I 0 1 0.8208791208791209604 forward I I I I #
DXID-attrib $-1 -1 $-1 $8 $7 @18 ASM_FACE_FROM_STEP @5 14607 #
ATTRIB_CUSTOM-attrib $-1 -1 $19 $-1 $9 @22 generic_tag_attrib_def 3 3 -1 @23 generic_tag_attrib_def  1 2 @2 17 0 4 324 444 622 755 0 #
face $20 81 $-1 $21 $22 $5 $-1 $23 forward single #
loop $-1 -1 $-1 $24 $25 $9 #
torus-surface $-1 -1 $-1 0 0 -5.02088605067174952e-16 0 0 1 0.9000000000000000222 0.1945894441753349968 1 0 0 forward_v I I I I #
loop $-1 -1 $-1 $-1 $26 $7 #
coedge $-1 -1 $-1 $18 $18 $27 $28 reversed $10 0 $-1 #
DXID-attrib $-1 -1 $-1 $13 $9 @18 ASM_FACE_FROM_STEP @5 14608 #
ATTRIB_CUSTOM-attrib $-1 -1 $29 $-1 $14 @22 generic_tag_attrib_def 3 3 -1 @23 generic_tag_attrib_def  1 2 @2 18 0 4 324 444 622 755 0 #
face $30 82 $-1 $31 $32 $5 $-1 $33 reversed single #
loop $-1 -1 $-1 $34 $35 $14 #
cone-surface $-1 -1 $-1 0 0 0.4000000000000000222 0 0 1 0.8208791208791209604 0 0 1 I I 0 1 0.8208791208791209604 forward I I I I #
loop $-1 -1 $-1 $-1 $27 $9 #
coedge $-1 -1 $-1 $25 $25 $36 $37 reversed $15 0 $-1 #
coedge $-1 -1 $-1 $26 $26 $38 $39 forward $17 0 $-1 #
coedge $-1 -1 $-1 $27 $27 $18 $28 forward $24 0 $-1 #
edge $40 17 $-1 $41 0 $41 6.283185307179586232 $18 $42 forward @7 unknown #
DXID-attrib $-1 -1 $-1 $20 $14 @18 ASM_FACE_FROM_STEP @5 14609 #
ATTRIB_CUSTOM-attrib $-1 -1 $43 $-1 $21 @22 generic_tag_attrib_def 3 3 -1 @23 generic_tag_attrib_def  1 2 @2 19 0 4 324 444 622 755 0 #
face $44 83 $-1 $45 $46 $5 $-1 $47 reversed single #
loop $-1 -1 $-1 $48 $49 $21 #
plane-surface $-1 -1 $-1 0 0.5400000000000000355 0.4000000000000010214 0 0 -1 -1 0 0 forward_v I I I I #
loop $-1 -1 $-1 $-1 $36 $14 #
coedge $-1 -1 $-1 $35 $35 $49 $50 reversed $22 0 $-1 #
coedge $-1 -1 $-1 $36 $36 $25 $37 forward $34 0 $-1 #
edge $51 19 $-1 $52 0 $52 6.283185307179586232 $25 $53 forward @7 unknown #
coedge $-1 -1 $-1 $38 $38 $26 $39 reversed $54 0 $-1 #
edge $55 18 $-1 $56 0 $56 6.283185307179586232 $26 $57 forward @7 unknown #
DXID-attrib $-1 -1 $-1 $-1 $28 @18 ASM_EDGE_FROM_STEP @4 8757 #
vertex $-1 71 $-1 $28 0 $58 #
ellipse-curve $-1 -1 $-1 0 0 -0.1777777777777780066 0 0 1 0.8208791208791209604 0 0 1 I I #
DXID-attrib $-1 -1 $-1 $30 $21 @18 ASM_FACE_FROM_STEP @5 14610 #
ATTRIB_CUSTOM-attrib $-1 -1 $59 $-1 $31 @22 generic_tag_attrib_def 3 3 -1 @23 generic_tag_attrib_def  1 2 @2 20 0 4 324 444 622 755 0 #
face $60 84 $-1 $61 $62 $5 $-1 $63 reversed single #
loop $-1 -1 $-1 $64 $65 $31 #
cone-surface $-1 -1 $-1 0 0 0.4000000000000010214 0 0 1 0.5400000000000000355 0 0 1 I I 0.7071067811865509034 0.707106781186544131 0.5400000000000000355 forward I I I I #
loop $-1 -1 $-1 $-1 $66 $21 #
coedge $-1 -1 $-1 $49 $49 $35 $50 forward $32 0 $-1 #
edge $67 20 $-1 $68 0 $68 6.283185307179586232 $35 $69 forward @7 unknown #
DXID-attrib $-1 -1 $-1 $-1 $37 @18 ASM_EDGE_FROM_STEP @4 8759 #
vertex $-1 73 $-1 $37 0 $70 #
ellipse-curve $-1 -1 $-1 0 0 0.1777777777777770074 0 0 1 0.8208791208791209604 0 0 1 I I #
loop $-1 -1 $-1 $71 $38 $72 #
DXID-attrib $-1 -1 $-1 $-1 $39 @18 ASM_EDGE_FROM_STEP @4 8758 #
vertex $-1 72 $-1 $39 0 $73 #
ellipse-curve $-1 -1 $-1 0 0 -0.4000000000000010214 0 0 1 0.8208791208791209604 0 0 1 I I #
point $-1 -1 $-1 0.8208791208791209604 0 -0.1777777777777780066 #
DXID-attrib $-1 -1 $-1 $44 $31 @18 ASM_FACE_FROM_STEP @5 14611 #
ATTRIB_CUSTOM-attrib $-1 -1 $74 $-1 $45 @22 generic_tag_attrib_def 3 3 -1 @23 generic_tag_attrib_def  1 2 @2 21 0 4 324 444 622 755 0 #
face $75 85 $-1 $72 $76 $5 $-1 $77 reversed single #
loop $-1 -1 $-1 $78 $79 $45 #
cone-surface $-1 -1 $-1 0 0 0.4000000000000000222 0 0 1 0.5 0 0 1 I I 0 1 0.5 forward I I I I #
loop $-1 -1 $-1 $-1 $80 $31 #
coedge $-1 -1 $-1 $65 $65 $81 $82 reversed $46 0 $-1 #
coedge $-1 -1 $-1 $66 $66 $80 $83 reversed $48 0 $-1 #
DXID-attrib $-1 -1 $-1 $-1 $50 @18 ASM_EDGE_FROM_STEP @4 8760 #
vertex $-1 74 $-1 $50 0 $84 #
ellipse-curve $-1 -1 $-1 0 0 0.4000000000000000222 0 0 1 0.8208791208791209604 0 0 1 I I #
point $-1 -1 $-1 0.8208791208791209604 0 0.1777777777777770074 #
loop $-1 -1 $-1 $-1 $85 $72 #
face $86 86 $-1 $-1 $54 $5 $-1 $87 reversed single #
point $-1 -1 $-1 0.8208791208791209604 0 -0.4000000000000010214 #
DXID-attrib $-1 -1 $-1 $60 $45 @18 ASM_FACE_FROM_STEP @5 14612 #
ATTRIB_CUSTOM-attrib $-1 -1 $88 $-1 $61 @22 generic_tag_attrib_def 3 3 -1 @23 generic_tag_attrib_def  1 2 @2 22 0 4 324 444 622 755 0 #
loop $-1 -1 $-1 $89 $90 $61 #
cone-surface $-1 -1 $-1 0 0 -0.3600000000000009859 0 0 -1 -0.5 0 0 1 I I 0.7071067811865459074 0.7071067811865492381 0.5 forward I I I I #
loop $-1 -1 $-1 $-1 $81 $45 #
coedge $-1 -1 $-1 $79 $79 $91 $92 reversed $62 0 $-1 #
coedge $-1 -1 $-1 $80 $80 $66 $83 forward $64 0 $-1 #
coedge $-1 -1 $-1 $81 $81 $65 $82 forward $78 0 $-1 #
edge $93 22 $-1 $94 0 $94 6.283185307179586232 $65 $95 forward @7 unknown #
edge $96 16 $-1 $97 0 $97 6.283185307179586232 $66 $98 forward @7 unknown #
point $-1 -1 $-1 0.8208791208791209604 0 0.4000000000000000222 #
coedge $-1 -1 $-1 $85 $85 $90 $99 forward $71 0 $-1 #
ATTRIB_CUSTOM-attrib $-1 -1 $100 $-1 $72 @22 generic_tag_attrib_def 3 3 -1 @23 generic_tag_attrib_def  1 2 @2 23 0 4 324 444 622 755 0 #
plane-surface $-1 -1 $-1 0 0.5400000000000000355 -0.4000000000000010214 0 0 1 1 0 0 forward_v I I I I #
DXID-attrib $-1 -1 $-1 $75 $61 @18 ASM_FACE_FROM_STEP @5 14613 #
loop $-1 -1 $-1 $-1 $91 $61 #
coedge $-1 -1 $-1 $90 $90 $85 $99 reversed $76 0 $-1 #
coedge $-1 -1 $-1 $91 $91 $79 $92 forward $89 0 $-1 #
edge $101 23 $-1 $102 0 $102 6.283185307179586232 $79 $103 forward @7 unknown #
DXID-attrib $-1 -1 $-1 $-1 $82 @18 ASM_EDGE_FROM_STEP @4 8762 #
vertex $-1 76 $-1 $82 0 $104 #
ellipse-curve $-1 -1 $-1 0 0 0.3600000000000009859 0 0 1 0.5 0 0 1 I I #
DXID-attrib $-1 -1 $-1 $-1 $83 @18 ASM_EDGE_FROM_STEP @4 8761 #
vertex $-1 75 $-1 $83 0 $105 #
ellipse-curve $-1 -1 $-1 0 0 0.4000000000000010214 0 0 1 0.5400000000000000355 0 0 1 I I #
edge $106 21 $-1 $107 0 $107 6.283185307179586232 $90 $108 forward @7 unknown #
DXID-attrib $-1 -1 $-1 $86 $72 @18 ASM_FACE_FROM_STEP @5 14614 #
DXID-attrib $-1 -1 $-1 $-1 $92 @18 ASM_EDGE_FROM_STEP @4 8763 #
vertex $-1 77 $-1 $92 0 $109 #
ellipse-curve $-1 -1 $-1 0 0 -0.3600000000000009859 0 0 1 0.5 0 0 1 I I #
point $-1 -1 $-1 0.5 0 0.3600000000000009859 #
point $-1 -1 $-1 0.5400000000000000355 0 0.4000000000000010214 #
DXID-attrib $-1 -1 $-1 $-1 $99 @18 ASM_EDGE_FROM_STEP @4 8764 #
vertex $-1 78 $-1 $99 0 $110 #
ellipse-curve $-1 -1 $-1 0 0 -0.4000000000000010214 0 0 1 0.5400000000000000355 0 0 1 I I #
point $-1 -1 $-1 0.5 0 -0.3600000000000009859 #
point $-1 -1 $-1 0.5400000000000000355 0 -0.4000000000000010214 #
End-of-ASM-data 