22700 0 2 4           
16 Autodesk Neutron 20 ASM 227.1.1.65535 NT 24 Thu Aug 26 00:06:11 2021 
10 9.999999999999999547e-07 1.000000000000000036e-10 
asmheader $-1 -1 @13 227.1.1.65535 #
body $2 14 $-1 $3 $-1 $-1 #
ATTRIB_CUSTOM-attrib $-1 -1 $4 $-1 $1 @20 Timestamp_attrib_def 1 1406915265000 #
lump $-1 -1 $-1 $-1 $5 $1 #
ATTRIB_CUSTOM-attrib $-1 -1 $6 $2 $1 @22 generic_tag_attrib_def 3 3 -1 @23 generic_tag_attrib_def  4 3 @3 324 15 0 0 3 @3 444 15 0 0 3 @3 622 15 0 0 3 @3 755 15 0 0 #
shell $-1 -1 $-1 $-1 $-1 $7 $-1 $3 #
DXID-attrib $-1 -1 $-1 $4 $1 @18 ASM_BODY_FROM_STEP @4 2673 #
face $8 36 $-1 $9 $10 $5 $-1 $11 reversed single #
ATTRIB_CUSTOM-attrib $-1 -1 $12 $-1 $7 @22 FPM_tracked_attrib_def 1 29664 #
face $13 38 $-1 $14 $15 $5 $-1 $16 reversed single #
loop $-1 -1 $-1 $17 $18 $7 #
plane-surface $-1 -1 $-1 0 0.9789999999999999813 0.4500000000000000111 0 0 -1 -1 0 0 forward_v I I I I #
ATTRIB_CUSTOM-attrib $-1 -1 $19 $8 $7 @22 FPM_tracked_attrib_def 1 29775 #
ATTRIB_CUSTOM-attrib $-1 -1 $20 $-1 $9 @22 generic_tag_attrib_def 3 3 -1 @23 generic_tag_attrib_def  1 2 @2 45 0 4 324 444 622 755 0 #
face $21 39 $-1 $22 $23 $5 $-1 $24 reversed single #
loop $-1 -1 $-1 $25 $26 $9 #
cone-surface $-1 -1 $-1 0 0 0.4000000000000000222 0 0 1 0.9789999999999999813 0 0 1 I I 0 1 0.9789999999999999813 forward I I I I #
loop $-1 -1 $-1 $-1 $27 $7 #
coedge $-1 -1 $-1 $18 $18 $28 $29 forward $10 0 $-1 #
ATTRIB_CUSTOM-attrib $-1 -1 $30 $12 $7 @22 generic_tag_attrib_def 3 3 -1 @23 generic_tag_attrib_def  1 2 @2 44 0 4 324 444 622 755 0 #
DXID-attrib $-1 -1 $-1 $13 $9 @18 ASM_FACE_FROM_STEP @5 14628 #
ATTRIB_CUSTOM-attrib $-1 -1 $31 $-1 $14 @22 generic_tag_attrib_def 3 3 -1 @23 generic_tag_attrib_def  1 2 @2 46 0 4 324 444 622 755 0 #
face $32 40 $-1 $33 $34 $5 $-1 $35 reversed single #
loop $-1 -1 $-1 $36 $37 $14 #
plane-surface $-1 -1 $-1 0 0.820999999999999952 0.3800000000000000044 0 0 -1 -1 0 0 forward_v I I I I #
loop $-1 -1 $-1 $-1 $38 $9 #
coedge $-1 -1 $-1 $26 $26 $37 $39 reversed $15 0 $-1 #
coedge $-1 -1 $-1 $27 $27 $38 $40 reversed $17 0 $-1 #
coedge $-1 -1 $-1 $28 $28 $18 $29 reversed $41 0 $-1 #
edge $42 25 $-1 $43 -3.141592653589793116 $43 3.141592653589793116 $18 $44 reversed @7 unknown #
DXID-attrib $-1 -1 $-1 $19 $7 @18 ASM_FACE_FROM_STEP @5 14627 #
DXID-attrib $-1 -1 $-1 $21 $14 @18 ASM_FACE_FROM_STEP @5 14629 #
ATTRIB_CUSTOM-attrib $-1 -1 $45 $-1 $22 @22 generic_tag_attrib_def 3 3 -1 @23 generic_tag_attrib_def  1 2 @2 47 0 4 324 444 622 755 0 #
face $46 41 $-1 $47 $48 $5 $-1 $49 reversed single #
loop $-1 -1 $-1 $50 $51 $22 #
cone-surface $-1 -1 $-1 0 0 0.4000000000000000222 0 0 1 0.820999999999999952 0 0 1 I I 0 1 0.820999999999999952 forward I I I I #
loop $-1 -1 $-1 $-1 $52 $14 #
coedge $-1 -1 $-1 $37 $37 $26 $39 forward $23 0 $-1 #
coedge $-1 -1 $-1 $38 $38 $27 $40 forward $25 0 $-1 #
edge $53 27 $-1 $54 0 $54 6.283185307179586232 $26 $55 forward @7 unknown #
edge $56 26 $-1 $57 -3.141592653589793116 $57 3.141592653589793116 $27 $58 reversed @7 unknown #
loop $-1 -1 $-1 $59 $28 $60 #
DXID-attrib $-1 -1 $-1 $-1 $29 @18 ASM_EDGE_FROM_STEP @4 8777 #
vertex $-1 99 $-1 $29 0 $61 #
ellipse-curve $-1 -1 $-1 0 0 0.4500000000000000111 0 0 -1 1.260000000000000009 0 0 1 I I #
DXID-attrib $-1 -1 $-1 $32 $22 @18 ASM_FACE_FROM_STEP @5 14630 #
ATTRIB_CUSTOM-attrib $-1 -1 $62 $-1 $33 @22 generic_tag_attrib_def 3 3 -1 @23 generic_tag_attrib_def  1 2 @2 48 0 4 324 444 622 755 0 #
face $63 42 $-1 $64 $65 $5 $-1 $66 reversed single #
loop $-1 -1 $-1 $67 $68 $33 #
plane-surface $-1 -1 $-1 0 0.9126470635142850396 0.1945894441753339976 0 0 1 1 0 0 forward_v I I I I #
loop $-1 -1 $-1 $-1 $69 $22 #
coedge $-1 -1 $-1 $51 $51 $70 $71 reversed $34 0 $-1 #
coedge $-1 -1 $-1 $52 $52 $69 $72 reversed $36 0 $-1 #
DXID-attrib $-1 -1 $-1 $-1 $39 @18 ASM_EDGE_FROM_STEP @4 8779 #
vertex $-1 101 $-1 $39 0 $73 #
ellipse-curve $-1 -1 $-1 0 0 0.3800000000000000044 0 0 1 0.9789999999999999813 0 0 1 I I #
DXID-attrib $-1 -1 $-1 $-1 $40 @18 ASM_EDGE_FROM_STEP @4 8778 #
vertex $-1 100 $-1 $40 0 $74 #
ellipse-curve $-1 -1 $-1 0 0 0.4500000000000000111 0 0 -1 0.9789999999999999813 0 0 1 I I #
loop $-1 -1 $-1 $-1 $75 $60 #
face $76 111 $-1 $-1 $41 $5 $-1 $77 forward single #
point $-1 -1 $-1 -1.260000000000000009 1.543054966925670006e-16 0.4500000000000000111 #
DXID-attrib $-1 -1 $-1 $46 $33 @18 ASM_FACE_FROM_STEP @5 14631 #
ATTRIB_CUSTOM-attrib $-1 -1 $78 $-1 $47 @22 generic_tag_attrib_def 3 3 -1 @23 generic_tag_attrib_def  1 2 @2 49 0 4 324 444 622 755 0 #
face $79 43 $-1 $80 $81 $5 $-1 $82 reversed single #
loop $-1 -1 $-1 $83 $84 $47 #
torus-surface $-1 -1 $-1 0 0 -5.02088605067174952e-16 0 0 1 0.9000000000000000222 0.1950000000000000067 1 0 0 forward_v I I I I #
loop $-1 -1 $-1 $-1 $70 $33 #
coedge $-1 -1 $-1 $68 $68 $85 $86 reversed $48 0 $-1 #
coedge $-1 -1 $-1 $69 $69 $52 $72 forward $50 0 $-1 #
coedge $-1 -1 $-1 $70 $70 $51 $71 forward $67 0 $-1 #
edge $87 29 $-1 $88 0 $88 6.283185307179586232 $51 $89 forward @7 unknown #
edge $90 28 $-1 $91 0 $91 6.283185307179586232 $52 $92 forward @7 unknown #
point $-1 -1 $-1 0.9789999999999999813 0 0.3800000000000000044 #
point $-1 -1 $-1 -0.9789999999999999813 1.198929216365259956e-16 0.4500000000000000111 #
coedge $-1 -1 $-1 $75 $75 $93 $94 forward $59 0 $-1 #
ATTRIB_CUSTOM-attrib $-1 -1 $95 $-1 $60 @22 generic_tag_attrib_def 3 3 -1 @23 generic_tag_attrib_def  1 2 @2 55 0 4 324 444 622 755 0 #
cone-surface $-1 -1 $-1 0 0 0.4000000000000000222 0 0 1 1.260000000000000009 0 0 1 I I 0 1 1.260000000000000009 forward I I I I #
DXID-attrib $-1 -1 $-1 $63 $47 @18 ASM_FACE_FROM_STEP @5 14632 #
ATTRIB_CUSTOM-attrib $-1 -1 $96 $-1 $64 @22 generic_tag_attrib_def 3 3 -1 @23 generic_tag_attrib_def  1 2 @2 50 0 4 324 444 622 755 0 #
face $97 44 $-1 $98 $99 $5 $-1 $100 reversed single #
loop $-1 -1 $-1 $101 $102 $64 #
plane-surface $-1 -1 $-1 0 0.9126470635142850396 -0.1945894441753349968 0 0 -1 -1 0 0 forward_v I I I I #
loop $-1 -1 $-1 $-1 $85 $47 #
coedge $-1 -1 $-1 $84 $84 $102 $103 reversed $65 0 $-1 #
coedge $-1 -1 $-1 $85 $85 $68 $86 forward $83 0 $-1 #
edge $104 30 $-1 $105 0 $105 6.283185307179586232 $68 $106 forward @7 unknown #
DXID-attrib $-1 -1 $-1 $-1 $71 @18 ASM_EDGE_FROM_STEP @4 8781 #
vertex $-1 103 $-1 $71 0 $107 #
ellipse-curve $-1 -1 $-1 0 0 0.1945894441753339976 0 0 1 0.820999999999999952 0 0 1 I I #
DXID-attrib $-1 -1 $-1 $-1 $72 @18 ASM_EDGE_FROM_STEP @4 8780 #
vertex $-1 102 $-1 $72 0 $108 #
ellipse-curve $-1 -1 $-1 0 0 0.3800000000000000044 0 0 1 0.820999999999999952 0 0 1 I I #
coedge $-1 -1 $-1 $93 $93 $75 $94 reversed $109 0 $-1 #
edge $110 24 $-1 $111 -3.141592653589793116 $111 3.141592653589793116 $93 $112 forward @7 unknown #
DXID-attrib $-1 -1 $-1 $76 $60 @18 ASM_FACE_FROM_STEP @5 14638 #
DXID-attrib $-1 -1 $-1 $79 $64 @18 ASM_FACE_FROM_STEP @5 14633 #
ATTRIB_CUSTOM-attrib $-1 -1 $113 $-1 $80 @22 generic_tag_attrib_def 3 3 -1 @23 generic_tag_attrib_def  1 2 @2 51 0 4 324 444 622 755 0 #
face $114 45 $-1 $115 $116 $5 $-1 $117 reversed single #
loop $-1 -1 $-1 $118 $119 $80 #
cone-surface $-1 -1 $-1 0 0 0.4000000000000000222 0 0 1 0.820999999999999952 0 0 1 I I 0 1 0.820999999999999952 forward I I I I #
loop $-1 -1 $-1 $-1 $120 $64 #
coedge $-1 -1 $-1 $102 $102 $84 $103 forward $81 0 $-1 #
edge $121 31 $-1 $122 0 $122 6.283185307179586232 $84 $123 forward @7 unknown #
DXID-attrib $-1 -1 $-1 $-1 $86 @18 ASM_EDGE_FROM_STEP @4 8782 #
vertex $-1 104 $-1 $86 0 $124 #
ellipse-curve $-1 -1 $-1 0 0 0.1945894441753339976 0 0 1 0.9126470635142850396 0 0 1 I I #
point $-1 -1 $-1 0.820999999999999952 0 0.1945894441753339976 #
point $-1 -1 $-1 0.820999999999999952 0 0.3800000000000000044 #
loop $-1 -1 $-1 $125 $93 $126 #
DXID-attrib $-1 -1 $-1 $-1 $94 @18 ASM_EDGE_FROM_STEP @4 8788 #
vertex $-1 110 $-1 $94 0 $127 #
ellipse-curve $-1 -1 $-1 0 0 -0.4500000000000010103 0 0 1 1.260000000000000009 0 0 1 I I #
DXID-attrib $-1 -1 $-1 $97 $80 @18 ASM_FACE_FROM_STEP @5 14634 #
ATTRIB_CUSTOM-attrib $-1 -1 $128 $-1 $98 @22 generic_tag_attrib_def 3 3 -1 @23 generic_tag_attrib_def  1 2 @2 52 0 4 324 444 622 755 0 #
face $129 46 $-1 $126 $130 $5 $-1 $131 reversed single #
loop $-1 -1 $-1 $132 $133 $98 #
plane-surface $-1 -1 $-1 0 0.820999999999999952 -0.3800000000000010036 0 0 1 1 0 0 forward_v I I I I #
loop $-1 -1 $-1 $-1 $134 $80 #
coedge $-1 -1 $-1 $119 $119 $135 $136 reversed $99 0 $-1 #
coedge $-1 -1 $-1 $120 $120 $134 $137 reversed $101 0 $-1 #
DXID-attrib $-1 -1 $-1 $-1 $103 @18 ASM_EDGE_FROM_STEP @4 8783 #
vertex $-1 105 $-1 $103 0 $138 #
ellipse-curve $-1 -1 $-1 0 0 -0.1945894441753349968 0 0 1 0.9126470635142850396 0 0 1 I I #
point $-1 -1 $-1 0.9126470635142850396 0 0.1945894441753339976 #
loop $-1 -1 $-1 $-1 $139 $126 #
face $140 37 $-1 $60 $109 $5 $-1 $141 reversed single #
point $-1 -1 $-1 -1.260000000000000009 -1.543054966925670006e-16 -0.4500000000000010103 #
DXID-attrib $-1 -1 $-1 $114 $98 @18 ASM_FACE_FROM_STEP @5 14635 #
ATTRIB_CUSTOM-attrib $-1 -1 $142 $-1 $115 @22 generic_tag_attrib_def 3 3 -1 @23 generic_tag_attrib_def  1 2 @2 53 0 4 324 444 622 755 0 #
loop $-1 -1 $-1 $143 $144 $115 #
cone-surface $-1 -1 $-1 0 0 0.4000000000000000222 0 0 1 0.9789999999999999813 0 0 1 I I 0 1 0.9789999999999999813 forward I I I I #
loop $-1 -1 $-1 $-1 $135 $98 #
coedge $-1 -1 $-1 $133 $133 $145 $146 reversed $116 0 $-1 #
coedge $-1 -1 $-1 $134 $134 $120 $137 forward $118 0 $-1 #
coedge $-1 -1 $-1 $135 $135 $119 $136 forward $132 0 $-1 #
edge $147 33 $-1 $148 0 $148 6.283185307179586232 $119 $149 forward @7 unknown #
edge $150 32 $-1 $151 0 $151 6.283185307179586232 $120 $152 forward @7 unknown #
point $-1 -1 $-1 0.9126470635142850396 0 -0.1945894441753349968 #
coedge $-1 -1 $-1 $139 $139 $144 $153 forward $125 0 $-1 #
ATTRIB_CUSTOM-attrib $-1 -1 $154 $-1 $126 @22 FPM_tracked_attrib_def 1 30006 #
plane-surface $-1 -1 $-1 0 0.9789999999999999813 -0.4500000000000010103 0 0 1 1 0 0 forward_v I I I I #
DXID-attrib $-1 -1 $-1 $129 $115 @18 ASM_FACE_FROM_STEP @5 14636 #
loop $-1 -1 $-1 $-1 $145 $115 #
coedge $-1 -1 $-1 $144 $144 $139 $153 reversed $130 0 $-1 #
coedge $-1 -1 $-1 $145 $145 $133 $146 forward $143 0 $-1 #
edge $155 34 $-1 $156 0 $156 6.283185307179586232 $133 $157 forward @7 unknown #
DXID-attrib $-1 -1 $-1 $-1 $136 @18 ASM_EDGE_FROM_STEP @4 8785 #
vertex $-1 107 $-1 $136 0 $158 #
ellipse-curve $-1 -1 $-1 0 0 -0.3800000000000010036 0 0 1 0.820999999999999952 0 0 1 I I #
DXID-attrib $-1 -1 $-1 $-1 $137 @18 ASM_EDGE_FROM_STEP @4 8784 #
vertex $-1 106 $-1 $137 0 $159 #
ellipse-curve $-1 -1 $-1 0 0 -0.1945894441753349968 0 0 1 0.820999999999999952 0 0 1 I I #
edge $160 35 $-1 $161 -3.141592653589793116 $161 3.141592653589793116 $144 $162 forward @7 unknown #
ATTRIB_CUSTOM-attrib $-1 -1 $163 $140 $126 @22 FPM_tracked_attrib_def 1 29895 #
DXID-attrib $-1 -1 $-1 $-1 $146 @18 ASM_EDGE_FROM_STEP @4 8786 #
vertex $-1 108 $-1 $146 0 $164 #
ellipse-curve $-1 -1 $-1 0 0 -0.3800000000000010036 0 0 1 0.9789999999999999813 0 0 1 I I #
point $-1 -1 $-1 0.820999999999999952 0 -0.3800000000000010036 #
point $-1 -1 $-1 0.820999999999999952 0 -0.1945894441753349968 #
DXID-attrib $-1 -1 $-1 $-1 $153 @18 ASM_EDGE_FROM_STEP @4 8787 #
vertex $-1 109 $-1 $153 0 $165 #
ellipse-curve $-1 -1 $-1 0 0 -0.4500000000000010103 0 0 1 0.9789999999999999813 0 0 1 I I #
ATTRIB_CUSTOM-attrib $-1 -1 $166 $154 $126 @22 generic_tag_attrib_def 3 3 -1 @23 generic_tag_attrib_def  1 2 @2 54 0 4 324 444 622 755 0 #
point $-1 -1 $-1 0.9789999999999999813 0 -0.3800000000000010036 #
point $-1 -1 $-1 -0.9789999999999999813 -1.198929216365259956e-16 -0.4500000000000010103 #
DXID-attrib $-1 -1 $-1 $163 $126 @18 ASM_FACE_FROM_STEP @5 14637 #
End-of-ASM-data 