22700 0 2 4           
16 Autodesk Neutron 20 ASM 227.1.1.65535 NT 24 Thu Aug 26 00:06:13 2021 
10 9.999999999999999547e-07 1.000000000000000036e-10 
asmheader $-1 -1 @13 227.1.1.65535 #
body $2 0 $-1 $3 $-1 $-1 #
ATTRIB_CUSTOM-attrib $-1 -1 $4 $-1 $1 @20 Timestamp_attrib_def 1 1406915266000 #
lump $-1 -1 $-1 $-1 $5 $1 #
ATTRIB_CUSTOM-attrib $-1 -1 $6 $2 $1 @22 generic_tag_attrib_def 3 3 -1 @23 generic_tag_attrib_def  4 3 @3 342 1 0 0 3 @3 462 1 0 0 3 @3 637 1 0 0 3 @3 770 1 0 0 #
shell $-1 -1 $-1 $-1 $-1 $7 $-1 $3 #
DXID-attrib $-1 -1 $-1 $4 $1 @18 ASM_BODY_FROM_STEP @4 2678 #
face $8 74 $-1 $9 $10 $5 $-1 $11 forward single #
ATTRIB_CUSTOM-attrib $-1 -1 $12 $-1 $7 @22 generic_tag_attrib_def 3 3 -1 @23 generic_tag_attrib_def  1 1 @1 0 0 4 342 462 637 770 0 #
face $13 75 $-1 $14 $15 $5 $-1 $16 forward single #
loop $-1 -1 $-1 $17 $18 $7 #
cone-surface $-1 -1 $-1 -0.4106287279138670088 0 1.199999999999999956 0 0 -1 1.725000000000000089 0 0 1 I I 0.06104853953485704643 0.9981347984218670311 1.725000000000000089 forward I I I I #
DXID-attrib $-1 -1 $-1 $8 $7 @18 ASM_FACE_FROM_STEP @5 14682 #
ATTRIB_CUSTOM-attrib $-1 -1 $19 $-1 $9 @22 generic_tag_attrib_def 3 3 -1 @23 generic_tag_attrib_def  1 1 @1 1 0 4 342 462 637 770 0 #
face $20 76 $-1 $21 $22 $5 $-1 $23 reversed single #
loop $-1 -1 $-1 $24 $25 $9 #
plane-surface $-1 -1 $-1 -0.4106287279138670088 0 2 0 0 1 1 0 0 forward_v I I I I #
loop $-1 -1 $-1 $-1 $26 $7 #
coedge $-1 -1 $-1 $18 $18 $27 $28 forward $10 0 $-1 #
DXID-attrib $-1 -1 $-1 $13 $9 @18 ASM_FACE_FROM_STEP @5 14683 #
ATTRIB_CUSTOM-attrib $-1 -1 $29 $-1 $14 @22 generic_tag_attrib_def 3 3 -1 @23 generic_tag_attrib_def  1 1 @1 2 0 4 342 462 637 770 0 #
face $30 77 $-1 $31 $32 $5 $-1 $33 reversed single #
loop $-1 -1 $-1 $34 $35 $14 #
plane-surface $-1 -1 $-1 -0.4106287279138670088 0 1.199999999999999956 0 0 1 1 0 0 forward_v I I I I #
loop $-1 -1 $-1 $-1 $36 $9 #
coedge $-1 -1 $-1 $25 $25 $37 $38 forward $15 0 $-1 #
coedge $-1 -1 $-1 $26 $26 $35 $39 forward $17 0 $-1 #
coedge $-1 -1 $-1 $27 $27 $18 $28 reversed $40 0 $-1 #
edge $41 3 $-1 $42 0 $42 6.283185307179586232 $18 $43 forward @14 tangent_not_g2 #
DXID-attrib $-1 -1 $-1 $20 $14 @18 ASM_FACE_FROM_STEP @5 14684 #
ATTRIB_CUSTOM-attrib $-1 -1 $44 $-1 $21 @22 generic_tag_attrib_def 3 3 -1 @23 generic_tag_attrib_def  1 1 @1 3 0 4 342 462 637 770 0 #
face $45 78 $-1 $46 $47 $5 $-1 $48 forward single #
loop $-1 -1 $-1 $49 $50 $21 #
cone-surface $-1 -1 $-1 -0.4106287279138670088 0 1 0 0 1 1.350000000000000089 0 0 1 I I 0 1 1.350000000000000089 forward I I I I #
loop $-1 -1 $-1 $-1 $51 $14 #
coedge $-1 -1 $-1 $35 $35 $26 $39 reversed $22 0 $-1 #
coedge $-1 -1 $-1 $36 $36 $52 $53 forward $24 0 $-1 #
coedge $-1 -1 $-1 $37 $37 $25 $38 reversed $54 0 $-1 #
edge $55 5 $-1 $56 0 $56 6.283185307179586232 $25 $57 forward @14 tangent_not_g2 #
edge $58 4 $-1 $59 0 $59 6.283185307179586232 $26 $60 forward @7 unknown #
loop $-1 -1 $-1 $54 $27 $46 #
DXID-attrib $-1 -1 $-1 $-1 $28 @18 ASM_EDGE_FROM_STEP @4 8857 #
vertex $-1 66 $-1 $28 0 $61 #
ellipse-curve $-1 -1 $-1 -0.4106287279138670088 0 1.906104853953489942 0 0 -1 -1.681812777031230111 0 0 1 I I #
DXID-attrib $-1 -1 $-1 $30 $21 @18 ASM_FACE_FROM_STEP @5 14685 #
ATTRIB_CUSTOM-attrib $-1 -1 $62 $-1 $31 @22 generic_tag_attrib_def 3 3 -1 @23 generic_tag_attrib_def  1 1 @1 4 0 4 342 462 637 770 0 #
face $63 79 $-1 $-1 $40 $5 $-1 $64 forward single #
loop $-1 -1 $-1 $65 $52 $31 #
torus-surface $-1 -1 $-1 -0.4106287279138670088 0 1.899999999999999911 0 0 1 1.449999999999999956 0.1000000000000000056 1 0 0 forward_v I I I I #
loop $-1 -1 $-1 $-1 $66 $21 #
coedge $-1 -1 $-1 $50 $50 $67 $68 forward $32 0 $-1 #
coedge $-1 -1 $-1 $51 $51 $66 $69 forward $34 0 $-1 #
coedge $-1 -1 $-1 $52 $52 $36 $53 reversed $47 0 $-1 #
edge $70 2 $-1 $71 -6.283185307179586232 $71 -0 $36 $72 reversed @14 tangent_not_g2 #
loop $-1 -1 $-1 $-1 $37 $46 #
DXID-attrib $-1 -1 $-1 $-1 $38 @18 ASM_EDGE_FROM_STEP @4 8859 #
vertex $-1 68 $-1 $38 0 $73 #
ellipse-curve $-1 -1 $-1 -0.4106287279138670088 0 2 0 0 1 1.581999297189039977 0 0 1 I I #
DXID-attrib $-1 -1 $-1 $-1 $39 @18 ASM_EDGE_FROM_STEP @4 8858 #
vertex $-1 67 $-1 $39 0 $74 #
ellipse-curve $-1 -1 $-1 -0.4106287279138670088 0 1.199999999999999956 0 0 1 1.725000000000000089 0 0 1 I I #
point $-1 -1 $-1 -2.09244150494509995 0 1.906104853953489942 #
DXID-attrib $-1 -1 $-1 $45 $31 @18 ASM_FACE_FROM_STEP @5 14686 #
ATTRIB_CUSTOM-attrib $-1 -1 $75 $-1 $46 @22 generic_tag_attrib_def 3 3 -1 @23 generic_tag_attrib_def  1 1 @1 5 0 4 342 462 637 770 0 #
torus-surface $-1 -1 $-1 -0.4106287279138670088 0 1.899999999999999911 0 0 1 1.581999297189039977 0.1000000000000000056 1 0 0 forward_v I I I I #
loop $-1 -1 $-1 $-1 $67 $31 #
coedge $-1 -1 $-1 $66 $66 $51 $69 reversed $49 0 $-1 #
coedge $-1 -1 $-1 $67 $67 $50 $68 reversed $65 0 $-1 #
edge $76 73 $-1 $77 0 $77 6.283185307179586232 $50 $78 forward @14 tangent_not_g2 #
edge $79 72 $-1 $80 0 $80 6.283185307179586232 $51 $81 forward @7 unknown #
DXID-attrib $-1 -1 $-1 $-1 $53 @18 ASM_EDGE_FROM_STEP @4 8860 #
vertex $-1 69 $-1 $53 0 $82 #
ellipse-curve $-1 -1 $-1 -0.4106287279138670088 0 2 0 0 1 1.449999999999999956 0 0 1 I I #
point $-1 -1 $-1 1.171370569275179907 0 2 #
point $-1 -1 $-1 1.314371272086130027 0 1.199999999999999956 #
DXID-attrib $-1 -1 $-1 $63 $46 @18 ASM_FACE_FROM_STEP @5 14687 #
DXID-attrib $-1 -1 $-1 $-1 $68 @18 ASM_EDGE_FROM_STEP @4 8862 #
vertex $-1 71 $-1 $68 0 $83 #
ellipse-curve $-1 -1 $-1 -0.4106287279138670088 0 1.899999999999999911 0 0 1 1.350000000000000089 0 0 1 I I #
DXID-attrib $-1 -1 $-1 $-1 $69 @18 ASM_EDGE_FROM_STEP @4 8861 #
vertex $-1 70 $-1 $69 0 $84 #
ellipse-curve $-1 -1 $-1 -0.4106287279138670088 0 1.199999999999999956 0 0 1 1.350000000000000089 0 0 1 I I #
point $-1 -1 $-1 1.039371272086129894 0 2 #
point $-1 -1 $-1 0.9393712720861330245 0 1.899999999999999911 #
point $-1 -1 $-1 0.9393712720861330245 0 1.199999999999999956 #
End-of-ASM-data 