22700 0 2 4           
16 Autodesk Neutron 20 ASM 227.1.1.65535 NT 24 Thu Aug 26 00:06:15 2021 
10 9.999999999999999547e-07 1.000000000000000036e-10 
asmheader $-1 -1 @13 227.1.1.65535 #
body $2 0 $-1 $3 $-1 $-1 #
ATTRIB_CUSTOM-attrib $-1 -1 $4 $-1 $1 @20 Timestamp_attrib_def 1 1406915266000 #
lump $-1 -1 $-1 $-1 $5 $1 #
ATTRIB_CUSTOM-attrib $-1 -1 $6 $2 $1 @22 generic_tag_attrib_def 3 3 -1 @23 generic_tag_attrib_def  4 3 @3 362 1 0 0 3 @3 482 1 0 0 3 @3 646 1 0 0 3 @3 779 1 0 0 #
shell $-1 -1 $-1 $-1 $-1 $7 $-1 $3 #
DXID-attrib $-1 -1 $-1 $4 $1 @18 ASM_BODY_FROM_STEP @4 2682 #
face $8 -1 $-1 $9 $10 $5 $-1 $11 forward single #
ATTRIB_CUSTOM-attrib $-1 -1 $12 $-1 $7 @22 generic_tag_attrib_def 3 3 -1 @23 generic_tag_attrib_def  1 1 @1 0 0 4 362 482 646 779 0 #
face $13 -1 $-1 $14 $15 $5 $-1 $16 reversed single #
loop $-1 -1 $-1 $17 $18 $7 #
plane-surface $-1 -1 $-1 0.3250000000000000111 0.1000000000000000056 1.617675801883680098 0 1 0 0 0 1 forward_v I I I I #
DXID-attrib $-1 -1 $-1 $8 $7 @18 ASM_FACE_FROM_STEP @5 14764 #
ATTRIB_CUSTOM-attrib $-1 -1 $19 $-1 $9 @22 generic_tag_attrib_def 3 3 -1 @23 generic_tag_attrib_def  1 1 @1 1 0 4 362 482 646 779 0 #
face $20 -1 $-1 $21 $22 $5 $-1 $23 reversed single #
loop $-1 -1 $-1 $24 $25 $9 #
plane-surface $-1 -1 $-1 0.3250000000000000111 0 1.617675801883680098 0 1 0 0 0 1 forward_v I I I I #
loop $-1 -1 $-1 $26 $27 $7 #
coedge $-1 -1 $-1 $28 $29 $30 $31 forward $10 0 $-1 #
DXID-attrib $-1 -1 $-1 $13 $9 @18 ASM_FACE_FROM_STEP @5 14765 #
ATTRIB_CUSTOM-attrib $-1 -1 $32 $-1 $14 @22 generic_tag_attrib_def 3 3 -1 @23 generic_tag_attrib_def  1 1 @1 2 0 4 362 482 646 779 0 #
face $33 -1 $-1 $34 $35 $5 $-1 $36 reversed single #
loop $-1 -1 $-1 $-1 $37 $14 #
plane-surface $-1 -1 $-1 0.1749999999999999889 0.1000000000000000056 1.699999999999999956 1 0 -2.633981738767860047e-16 -2.633981738767860047e-16 0 -1 forward_v I I I I #
loop $-1 -1 $-1 $38 $39 $9 #
coedge $-1 -1 $-1 $40 $41 $37 $42 reversed $15 0 $-1 #
loop $-1 -1 $-1 $-1 $43 $7 #
coedge $-1 -1 $-1 $27 $27 $44 $45 reversed $17 0 $-1 #
coedge $-1 -1 $-1 $46 $18 $47 $48 forward $10 0 $-1 #
coedge $-1 -1 $-1 $18 $49 $50 $51 forward $10 0 $-1 #
coedge $-1 -1 $-1 $52 $53 $18 $31 reversed $22 0 $-1 #
edge $54 -1 $-1 $55 0 $56 0.9999999999999654721 $18 $57 forward @7 unknown #
DXID-attrib $-1 -1 $-1 $20 $14 @18 ASM_FACE_FROM_STEP @5 14766 #
ATTRIB_CUSTOM-attrib $-1 -1 $58 $-1 $21 @22 generic_tag_attrib_def 3 3 -1 @23 generic_tag_attrib_def  1 1 @1 3 0 4 362 482 646 779 0 #
face $59 -1 $-1 $60 $61 $5 $-1 $62 forward single #
loop $-1 -1 $-1 $-1 $63 $21 #
plane-surface $-1 -1 $-1 0.1749999999999999889 0.1000000000000000056 1.699999999999999956 0.994743298890183314 0 -0.1024000454739910221 -0.1024000454739910221 0 -0.994743298890183314 forward_v I I I I #
coedge $-1 -1 $-1 $53 $52 $25 $42 forward $22 0 $-1 #
loop $-1 -1 $-1 $-1 $64 $9 #
coedge $-1 -1 $-1 $39 $39 $65 $66 forward $24 0 $-1 #
coedge $-1 -1 $-1 $67 $25 $68 $69 reversed $15 0 $-1 #
coedge $-1 -1 $-1 $25 $70 $63 $71 reversed $15 0 $-1 #
edge $72 -1 $-1 $73 0 $74 0.9999999999999654721 $25 $75 forward @7 unknown #
coedge $-1 -1 $-1 $43 $43 $76 $77 reversed $26 0 $-1 #
coedge $-1 -1 $-1 $44 $44 $27 $45 forward $78 0 $-1 #
edge $79 -1 $-1 $80 0 $80 6.283185307179586232 $27 $81 forward @7 unknown #
coedge $-1 -1 $-1 $82 $28 $83 $84 forward $10 0 $-1 #
coedge $-1 -1 $-1 $85 $86 $28 $48 reversed $35 0 $-1 #
edge $87 -1 $-1 $56 0 $88 0.9999999999998951949 $28 $89 forward @7 unknown #
coedge $-1 -1 $-1 $29 $90 $91 $92 forward $10 0 $-1 #
coedge $-1 -1 $-1 $93 $94 $29 $51 reversed $95 0 $-1 #
edge $96 -1 $-1 $97 -2.943326552158712861 $55 -1.570796326794896558 $29 $98 forward @7 unknown #
coedge $-1 -1 $-1 $37 $30 $94 $99 forward $22 0 $-1 #
coedge $-1 -1 $-1 $30 $37 $85 $100 reversed $22 0 $-1 #
DXID-attrib $-1 -1 $-1 $-1 $31 @18 ASM_EDGE_FROM_STEP @4 9001 #
vertex $-1 -1 $-1 $31 0 $101 #
vertex $-1 -1 $-1 $31 1 $102 #
straight-curve $-1 -1 $-1 0.1749999999999999889 0.1000000000000000056 1.617675801883680098 0 0 0.08232419811632270268 F 0 F 0.9999999999999654721 #
DXID-attrib $-1 -1 $-1 $33 $21 @18 ASM_FACE_FROM_STEP @5 14767 #
ATTRIB_CUSTOM-attrib $-1 -1 $103 $-1 $34 @22 generic_tag_attrib_def 3 3 -1 @23 generic_tag_attrib_def  1 1 @1 4 0 4 362 482 646 779 0 #
face $104 -1 $-1 $105 $106 $5 $-1 $107 forward single #
loop $-1 -1 $-1 $-1 $108 $34 #
cone-surface $-1 -1 $-1 0.2758173468165059927 0.1000000000000000056 1.702806445605340002 0 -1 0 0 0 -0.1000000000000000056 1 I I 0 1 0.1000000000000000056 forward I I I I #
coedge $-1 -1 $-1 $86 $85 $41 $71 forward $35 0 $-1 #
coedge $-1 -1 $-1 $64 $64 $109 $110 forward $38 0 $-1 #
coedge $-1 -1 $-1 $65 $65 $39 $66 reversed $111 0 $-1 #
edge $112 -1 $-1 $113 0 $113 6.283185307179586232 $39 $114 forward @7 unknown #
coedge $-1 -1 $-1 $115 $40 $116 $117 reversed $15 0 $-1 #
coedge $-1 -1 $-1 $94 $93 $40 $69 forward $95 0 $-1 #
edge $118 -1 $-1 $119 -2.943326552158712861 $73 -1.570796326794896558 $40 $120 forward @7 unknown #
coedge $-1 -1 $-1 $41 $121 $108 $122 reversed $15 0 $-1 #
edge $123 -1 $-1 $74 0 $124 0.9999999999998951949 $41 $125 forward @7 unknown #
DXID-attrib $-1 -1 $-1 $-1 $42 @18 ASM_EDGE_FROM_STEP @4 9023 #
vertex $-1 -1 $-1 $42 0 $126 #
vertex $-1 -1 $-1 $42 1 $127 #
straight-curve $-1 -1 $-1 0.1749999999999999889 0 1.617675801883680098 0 0 0.08232419811632270268 F 0 F 0.9999999999999654721 #
coedge $-1 -1 $-1 $76 $76 $43 $77 forward $128 0 $-1 #
edge $129 -1 $-1 $130 0 $130 6.283185307179586232 $43 $131 forward @7 unknown #
loop $-1 -1 $-1 $111 $44 $132 #
DXID-attrib $-1 -1 $-1 $-1 $45 @18 ASM_EDGE_FROM_STEP @4 9021 #
vertex $-1 -1 $-1 $45 0 $133 #
ellipse-curve $-1 -1 $-1 -0.6316259833110710042 0.1000000000000000056 1.513488889026390005 0 1 0 0 0 0.05999999999999729855 1 I I #
coedge $-1 -1 $-1 $134 $46 $135 $136 forward $10 0 $-1 #
coedge $-1 -1 $-1 $137 $138 $46 $84 reversed $61 0 $-1 #
edge $139 -1 $-1 $88 1.673376179213202253 $140 3.302176039640578598 $46 $141 forward @7 unknown #
coedge $-1 -1 $-1 $63 $47 $53 $100 forward $35 0 $-1 #
coedge $-1 -1 $-1 $47 $63 $137 $142 reversed $35 0 $-1 #
DXID-attrib $-1 -1 $-1 $-1 $48 @18 ASM_EDGE_FROM_STEP @4 9002 #
vertex $-1 -1 $-1 $48 1 $143 #
straight-curve $-1 -1 $-1 0.1749999999999999889 0.1000000000000000056 1.699999999999999956 0.001343016927488124975 0 0.01304645015274145774 F 0 F 0.9999999999998951949 #
coedge $-1 -1 $-1 $49 $144 $145 $146 forward $10 0 $-1 #
coedge $-1 -1 $-1 $147 $148 $49 $92 reversed $149 0 $-1 #
edge $150 -1 $-1 $151 0.1982661014310839465 $97 6.08491920574850198 $49 $152 forward @7 unknown #
coedge $-1 -1 $-1 $68 $50 $148 $153 forward $95 0 $-1 #
coedge $-1 -1 $-1 $50 $68 $52 $99 reversed $95 0 $-1 #
loop $-1 -1 $-1 $-1 $68 $154 #
DXID-attrib $-1 -1 $-1 $-1 $51 @18 ASM_EDGE_FROM_STEP @4 9020 #
vertex $-1 -1 $-1 $92 1 $155 #
ellipse-curve $-1 -1 $-1 0.3250000000000000111 0.1000000000000000056 1.617675801883680098 0 1 0 0 0 0.1499999999999999944 1 F -2.943326552158712861 F -1.570796326794896558 #
edge $156 -1 $-1 $55 0 $73 1 $52 $157 forward @14 tangent_not_g2 #
edge $158 -1 $-1 $56 0 $74 1 $53 $159 forward @7 unknown #
point $-1 -1 $-1 0.1749999999999999889 0.1000000000000000056 1.617675801883680098 #
point $-1 -1 $-1 0.1749999999999999889 0.1000000000000000056 1.699999999999999956 #
DXID-attrib $-1 -1 $-1 $59 $34 @18 ASM_FACE_FROM_STEP @5 14768 #
ATTRIB_CUSTOM-attrib $-1 -1 $160 $-1 $60 @22 generic_tag_attrib_def 3 3 -1 @23 generic_tag_attrib_def  1 1 @1 5 0 4 362 482 646 779 0 #
face $161 -1 $-1 $162 $163 $5 $-1 $164 forward single #
loop $-1 -1 $-1 $-1 $165 $60 #
cone-surface $-1 -1 $-1 0 0.1000000000000000056 0 0 -1 0 0 0 -1.824999999999999956 1 I I 0 1 1.824999999999999956 forward I I I I #
coedge $-1 -1 $-1 $138 $137 $70 $122 forward $61 0 $-1 #
coedge $-1 -1 $-1 $109 $109 $64 $110 reversed $166 0 $-1 #
edge $167 -1 $-1 $168 0 $168 6.283185307179586232 $64 $169 forward @7 unknown #
loop $-1 -1 $-1 $-1 $65 $132 #
DXID-attrib $-1 -1 $-1 $-1 $66 @18 ASM_EDGE_FROM_STEP @4 9043 #
vertex $-1 -1 $-1 $66 0 $170 #
ellipse-curve $-1 -1 $-1 -0.6316259833110710042 0 1.513488889026390005 0 1 0 0 0 0.05999999999999729855 1 I I #
coedge $-1 -1 $-1 $171 $67 $172 $173 reversed $15 0 $-1 #
coedge $-1 -1 $-1 $148 $147 $67 $117 forward $149 0 $-1 #
edge $174 -1 $-1 $175 0.1982661014310839465 $119 6.08491920574850198 $67 $176 forward @7 unknown #
DXID-attrib $-1 -1 $-1 $-1 $69 @18 ASM_EDGE_FROM_STEP @4 9024 #
vertex $-1 -1 $-1 $69 0 $177 #
ellipse-curve $-1 -1 $-1 0.3250000000000000111 0 1.617675801883680098 0 1 0 0 0 0.1499999999999999944 1 F -2.943326552158712861 F -1.570796326794896558 #
coedge $-1 -1 $-1 $70 $178 $165 $179 reversed $15 0 $-1 #
edge $180 -1 $-1 $124 1.673376179213202253 $181 3.302176039640578598 $70 $182 forward @7 unknown #
DXID-attrib $-1 -1 $-1 $-1 $71 @18 ASM_EDGE_FROM_STEP @4 9042 #
vertex $-1 -1 $-1 $122 0 $183 #
straight-curve $-1 -1 $-1 0.1749999999999999889 0 1.699999999999999956 0.001343016927488124975 0 0.01304645015274145774 F 0 F 0.9999999999998951949 #
point $-1 -1 $-1 0.1749999999999999889 0 1.617675801883680098 #
point $-1 -1 $-1 0.1749999999999999889 0 1.699999999999999956 #
loop $-1 -1 $-1 $166 $76 $184 #
DXID-attrib $-1 -1 $-1 $-1 $77 @18 ASM_EDGE_FROM_STEP @4 9022 #
vertex $-1 -1 $-1 $77 0 $185 #
ellipse-curve $-1 -1 $-1 0.6316259833110560162 0.1000000000000000056 1.513488889026380013 0 1 0 0 0 0.06000000000000980244 1 I I #
face $186 -1 $-1 $-1 $78 $5 $-1 $187 reversed single #
point $-1 -1 $-1 -0.6316259833110710042 0.1000000000000000056 1.573488889026390058 #
coedge $-1 -1 $-1 $188 $82 $189 $190 forward $10 0 $-1 #
coedge $-1 -1 $-1 $191 $192 $82 $136 reversed $106 0 $-1 #
edge $193 -1 $-1 $140 0.1605833860507794308 $194 0.5040345188289532263 $82 $195 forward @7 unknown #
coedge $-1 -1 $-1 $108 $83 $86 $142 forward $61 0 $-1 #
coedge $-1 -1 $-1 $83 $108 $191 $196 reversed $61 0 $-1 #
DXID-attrib $-1 -1 $-1 $-1 $84 @18 ASM_EDGE_FROM_STEP @4 9003 #
vertex $-1 -1 $-1 $84 1 $197 #
ellipse-curve $-1 -1 $-1 0.2758173468165059927 0.1000000000000000056 1.702806445605340002 0 1 0 0 0 -0.1000000000000000056 1 F 1.673376179213202253 F 3.302176039640578598 #
edge $198 -1 $-1 $88 0 $124 1 $86 $199 forward @14 tangent_not_g2 #
point $-1 -1 $-1 0.1763430169274879944 0.1000000000000000056 1.713046450152740041 #
coedge $-1 -1 $-1 $90 $200 $201 $202 forward $10 0 $-1 #
coedge $-1 -1 $-1 $203 $204 $90 $146 reversed $205 0 $-1 #
edge $206 -1 $-1 $207 1.570796326794896558 $151 2.9433265521587062 $90 $208 forward @7 unknown #
coedge $-1 -1 $-1 $116 $91 $204 $209 forward $149 0 $-1 #
coedge $-1 -1 $-1 $91 $116 $93 $153 reversed $149 0 $-1 #
loop $-1 -1 $-1 $-1 $116 $210 #
DXID-attrib $-1 -1 $-1 $-1 $92 @18 ASM_EDGE_FROM_STEP @4 9019 #
vertex $-1 -1 $-1 $146 1 $211 #
ellipse-curve $-1 -1 $-1 0 0.1000000000000000056 0 0 -1 0 0 0 1.5 1 F 0.1982661014310839465 F 6.08491920574850198 #
edge $212 -1 $-1 $97 0 $119 1 $148 $213 forward @14 tangent_not_g2 #
face $214 -1 $-1 $184 $95 $5 $-1 $215 forward single #
point $-1 -1 $-1 0.2954545454545460248 0.1000000000000000056 1.470614365348799968 #
DXID-attrib $-1 -1 $-1 $-1 $99 @18 ASM_EDGE_FROM_STEP @4 9046 #
straight-curve $-1 -1 $-1 0.1749999999999999889 0.1000000000000000056 1.617675801883680098 0 -0.1000000000000000056 0 F 0 F 1 #
DXID-attrib $-1 -1 $-1 $-1 $100 @18 ASM_EDGE_FROM_STEP @4 9045 #
straight-curve $-1 -1 $-1 0.1749999999999999889 0.1000000000000000056 1.699999999999999956 0 -0.1000000000000000056 0 F 0 F 1 #
DXID-attrib $-1 -1 $-1 $104 $60 @18 ASM_FACE_FROM_STEP @5 14769 #
ATTRIB_CUSTOM-attrib $-1 -1 $216 $-1 $105 @22 generic_tag_attrib_def 3 3 -1 @23 generic_tag_attrib_def  1 1 @1 6 0 4 362 482 646 779 0 #
face $217 -1 $-1 $218 $219 $5 $-1 $220 reversed single #
loop $-1 -1 $-1 $-1 $221 $105 #
cone-surface $-1 -1 $-1 0.8331098820906229774 0.1000000000000000056 1.510481024165130082 0 -1 0 0 0 -0.09999999999999979738 1 I I 0 1 0.09999999999999979738 forward I I I I #
coedge $-1 -1 $-1 $192 $191 $121 $179 forward $106 0 $-1 #
loop $-1 -1 $-1 $-1 $109 $184 #
DXID-attrib $-1 -1 $-1 $-1 $110 @18 ASM_EDGE_FROM_STEP @4 9044 #
vertex $-1 -1 $-1 $110 0 $222 #
ellipse-curve $-1 -1 $-1 0.6316259833110560162 0 1.513488889026380013 0 1 0 0 0 0.06000000000000980244 1 I I #
point $-1 -1 $-1 -0.6316259833110710042 0 1.573488889026390058 #
coedge $-1 -1 $-1 $223 $115 $224 $225 reversed $15 0 $-1 #
coedge $-1 -1 $-1 $204 $203 $115 $173 forward $205 0 $-1 #
edge $226 -1 $-1 $227 1.570796326794896558 $175 2.9433265521587062 $115 $228 forward @7 unknown #
DXID-attrib $-1 -1 $-1 $-1 $117 @18 ASM_EDGE_FROM_STEP @4 9025 #
vertex $-1 -1 $-1 $117 0 $229 #
ellipse-curve $-1 -1 $-1 0 0 0 0 -1 0 0 0 1.5 1 F 0.1982661014310839465 F 6.08491920574850198 #
point $-1 -1 $-1 0.2954545454545460248 0 1.470614365348799968 #
coedge $-1 -1 $-1 $121 $230 $221 $231 reversed $15 0 $-1 #
edge $232 -1 $-1 $181 0.1605833860507794308 $233 0.5040345188289532263 $121 $234 forward @7 unknown #
DXID-attrib $-1 -1 $-1 $-1 $122 @18 ASM_EDGE_FROM_STEP @4 9041 #
vertex $-1 -1 $-1 $179 0 $235 #
ellipse-curve $-1 -1 $-1 0.2758173468165059927 0 1.702806445605340002 0 1 0 0 0 -0.1000000000000000056 1 F 1.673376179213202253 F 3.302176039640578598 #
point $-1 -1 $-1 0.1763430169274879944 0 1.713046450152740041 #
face $236 -1 $-1 $132 $128 $5 $-1 $237 reversed single #
point $-1 -1 $-1 0.6316259833110560162 0.1000000000000000056 1.573488889026390058 #
ATTRIB_CUSTOM-attrib $-1 -1 $238 $-1 $132 @22 generic_tag_attrib_def 3 3 -1 @23 generic_tag_attrib_def  1 2 @2 23 0 4 362 482 646 779 0 #
cone-surface $-1 -1 $-1 -0.6316259833110710042 0.1000000000000000056 1.513488889026390005 0 -1 0 0 0 -0.05999999999999729855 1 I I 0 1 0.05999999999999729855 forward I I I I #
coedge $-1 -1 $-1 $239 $134 $240 $241 forward $10 0 $-1 #
coedge $-1 -1 $-1 $242 $243 $134 $190 reversed $163 0 $-1 #
edge $244 -1 $-1 $194 -2.637558134760863204 $245 -1.570796326794896558 $134 $246 forward @7 unknown #
coedge $-1 -1 $-1 $165 $135 $138 $196 forward $106 0 $-1 #
coedge $-1 -1 $-1 $135 $165 $242 $247 reversed $106 0 $-1 #
DXID-attrib $-1 -1 $-1 $-1 $136 @18 ASM_EDGE_FROM_STEP @4 9004 #
vertex $-1 -1 $-1 $136 1 $248 #
ellipse-curve $-1 -1 $-1 0 0.1000000000000000056 0 0 1 0 0 0 1.824999999999999956 1 F 0.1605833860507794308 F 0.5040345188289532263 #
edge $249 -1 $-1 $140 0 $181 1 $138 $250 forward @14 tangent_not_g2 #
point $-1 -1 $-1 0.2918067582261589799 0.1000000000000000056 1.801519862741880029 #
DXID-attrib $-1 -1 $-1 $-1 $142 @18 ASM_EDGE_FROM_STEP @4 9047 #
straight-curve $-1 -1 $-1 0.1763430169274879944 0.1000000000000000056 1.713046450152740041 0 -0.1000000000000000056 0 F 0 F 1 #
coedge $-1 -1 $-1 $144 $251 $252 $253 forward $10 0 $-1 #
coedge $-1 -1 $-1 $254 $255 $144 $202 reversed $256 0 $-1 #
edge $257 -1 $-1 $258 0 $207 0.9999999999999654721 $144 $259 forward @7 unknown #
coedge $-1 -1 $-1 $172 $145 $255 $260 forward $205 0 $-1 #
coedge $-1 -1 $-1 $145 $172 $147 $209 reversed $205 0 $-1 #
loop $-1 -1 $-1 $-1 $172 $261 #
DXID-attrib $-1 -1 $-1 $-1 $146 @18 ASM_EDGE_FROM_STEP @4 9018 #
vertex $-1 -1 $-1 $202 1 $262 #
ellipse-curve $-1 -1 $-1 -0.3250000000000000111 0.1000000000000000056 1.617675801883680098 0 1 0 0 0 0.1499999999999999944 1 F 1.570796326794896558 F 2.9433265521587062 #
edge $263 -1 $-1 $151 0 $175 1 $204 $264 forward @14 tangent_not_g2 #
face $265 -1 $-1 $154 $149 $5 $-1 $266 reversed single #
point $-1 -1 $-1 -0.2954545454545450256 0.1000000000000000056 1.470614365348799968 #
DXID-attrib $-1 -1 $-1 $-1 $153 @18 ASM_EDGE_FROM_STEP @4 9064 #
straight-curve $-1 -1 $-1 0.2954545454545460248 0.1000000000000000056 1.470614365348799968 0 -0.1000000000000000056 0 F 0 F 1 #
ATTRIB_CUSTOM-attrib $-1 -1 $267 $-1 $154 @22 generic_tag_attrib_def 3 3 -1 @23 generic_tag_attrib_def  1 2 @2 21 0 4 362 482 646 779 0 #
cone-surface $-1 -1 $-1 0.3250000000000000111 0.1000000000000000056 1.617675801883680098 0 -1 0 0 0 -0.1499999999999999944 1 I I 0 1 0.1499999999999999944 forward I I I I #
DXID-attrib $-1 -1 $-1 $161 $105 @18 ASM_FACE_FROM_STEP @5 14770 #
ATTRIB_CUSTOM-attrib $-1 -1 $268 $-1 $162 @22 generic_tag_attrib_def 3 3 -1 @23 generic_tag_attrib_def  1 1 @1 7 0 4 362 482 646 779 0 #
face $269 -1 $-1 $270 $271 $5 $-1 $272 reversed single #
loop $-1 -1 $-1 $-1 $273 $162 #
plane-surface $-1 -1 $-1 0.9331098820906229552 0.1000000000000000056 1.510481024165130082 -1 0 0 0 0 1 forward_v I I I I #
coedge $-1 -1 $-1 $243 $242 $178 $231 forward $163 0 $-1 #
point $-1 -1 $-1 0.6316259833110560162 0 1.573488889026390058 #
coedge $-1 -1 $-1 $274 $171 $275 $276 reversed $15 0 $-1 #
coedge $-1 -1 $-1 $255 $254 $171 $225 forward $256 0 $-1 #
edge $277 -1 $-1 $278 0 $227 0.9999999999999654721 $171 $279 forward @7 unknown #
DXID-attrib $-1 -1 $-1 $-1 $173 @18 ASM_EDGE_FROM_STEP @4 9026 #
vertex $-1 -1 $-1 $173 0 $280 #
ellipse-curve $-1 -1 $-1 -0.3250000000000000111 0 1.617675801883680098 0 1 0 0 0 0.1499999999999999944 1 F 1.570796326794896558 F 2.9433265521587062 #
point $-1 -1 $-1 -0.2954545454545450256 0 1.470614365348799968 #
coedge $-1 -1 $-1 $178 $281 $273 $282 reversed $15 0 $-1 #
edge $283 -1 $-1 $233 -2.637558134760863204 $284 -1.570796326794896558 $178 $285 forward @7 unknown #
DXID-attrib $-1 -1 $-1 $-1 $179 @18 ASM_EDGE_FROM_STEP @4 9040 #
vertex $-1 -1 $-1 $231 0 $286 #
ellipse-curve $-1 -1 $-1 0 0 0 0 1 0 0 0 1.824999999999999956 1 F 0.1605833860507794308 F 0.5040345188289532263 #
point $-1 -1 $-1 0.2918067582261589799 0 1.801519862741880029 #
ATTRIB_CUSTOM-attrib $-1 -1 $287 $-1 $184 @22 generic_tag_attrib_def 3 3 -1 @23 generic_tag_attrib_def  1 2 @2 22 0 4 362 482 646 779 0 #
cone-surface $-1 -1 $-1 0.6316259833110560162 0.1000000000000000056 1.513488889026380013 0 -1 0 0 0 -0.06000000000000980244 1 I I 0 1 0.06000000000000980244 forward I I I I #
DXID-attrib $-1 -1 $-1 $186 $132 @18 ASM_FACE_FROM_STEP @5 14787 #
coedge $-1 -1 $-1 $288 $188 $289 $290 forward $10 0 $-1 #
coedge $-1 -1 $-1 $291 $292 $188 $241 reversed $219 0 $-1 #
edge $293 -1 $-1 $245 0 $294 0.9999999999997853939 $188 $295 forward @7 unknown #
coedge $-1 -1 $-1 $221 $189 $192 $247 forward $163 0 $-1 #
coedge $-1 -1 $-1 $189 $221 $291 $296 reversed $163 0 $-1 #
DXID-attrib $-1 -1 $-1 $-1 $190 @18 ASM_EDGE_FROM_STEP @4 9005 #
vertex $-1 -1 $-1 $190 1 $297 #
ellipse-curve $-1 -1 $-1 0.8331098820906229774 0.1000000000000000056 1.510481024165130082 0 1 0 0 0 -0.09999999999999979738 1 F -2.637558134760863204 F -1.570796326794896558 #
edge $298 -1 $-1 $194 0 $233 1 $192 $299 forward @14 tangent_not_g2 #
point $-1 -1 $-1 0.881406107139353967 0.1000000000000000056 1.59804514150803989 #
DXID-attrib $-1 -1 $-1 $-1 $196 @18 ASM_EDGE_FROM_STEP @4 9048 #
straight-curve $-1 -1 $-1 0.2918067582261589799 0.1000000000000000056 1.801519862741880029 0 -0.1000000000000000056 0 F 0 F 1 #
coedge $-1 -1 $-1 $200 $300 $301 $302 forward $10 0 $-1 #
coedge $-1 -1 $-1 $303 $304 $200 $253 reversed $305 0 $-1 #
edge $306 -1 $-1 $307 0 $258 0.9999999999999027445 $200 $308 forward @7 unknown #
coedge $-1 -1 $-1 $224 $201 $304 $309 forward $256 0 $-1 #
coedge $-1 -1 $-1 $201 $224 $203 $260 reversed $256 0 $-1 #
loop $-1 -1 $-1 $-1 $224 $310 #
DXID-attrib $-1 -1 $-1 $-1 $202 @18 ASM_EDGE_FROM_STEP @4 9017 #
vertex $-1 -1 $-1 $253 1 $311 #
straight-curve $-1 -1 $-1 -0.1749999999999999889 0.1000000000000000056 1.699999999999999956 0 0 -0.08232419811632270268 F 0 F 0.9999999999999654721 #
edge $312 -1 $-1 $207 0 $227 1 $255 $313 forward @14 tangent_not_g2 #
face $314 -1 $-1 $210 $205 $5 $-1 $315 forward single #
point $-1 -1 $-1 -0.1749999999999999889 0.1000000000000000056 1.617675801883680098 #
DXID-attrib $-1 -1 $-1 $-1 $209 @18 ASM_EDGE_FROM_STEP @4 9063 #
straight-curve $-1 -1 $-1 -0.2954545454545450256 0.1000000000000000056 1.470614365348799968 0 -0.1000000000000000056 0 F 0 F 1 #
ATTRIB_CUSTOM-attrib $-1 -1 $316 $-1 $210 @22 generic_tag_attrib_def 3 3 -1 @23 generic_tag_attrib_def  1 2 @2 20 0 4 362 482 646 779 0 #
cone-surface $-1 -1 $-1 0 0.1000000000000000056 0 0 -1 0 0 0 -1.5 1 I I 0 1 1.5 forward I I I I #
DXID-attrib $-1 -1 $-1 $214 $154 @18 ASM_FACE_FROM_STEP @5 14785 #
DXID-attrib $-1 -1 $-1 $217 $162 @18 ASM_FACE_FROM_STEP @5 14771 #
ATTRIB_CUSTOM-attrib $-1 -1 $317 $-1 $218 @22 generic_tag_attrib_def 3 3 -1 @23 generic_tag_attrib_def  1 1 @1 8 0 4 362 482 646 779 0 #
face $318 -1 $-1 $319 $320 $5 $-1 $321 forward single #
loop $-1 -1 $-1 $-1 $322 $218 #
cone-surface $-1 -1 $-1 1.033109882090619935 0.1000000000000000056 1.49590814863134991 0 -1 0 0 0 -0.1000000000000000056 1 I I 0 1 0.1000000000000000056 forward I I I I #
coedge $-1 -1 $-1 $292 $291 $230 $282 forward $219 0 $-1 #
coedge $-1 -1 $-1 $323 $223 $324 $325 reversed $15 0 $-1 #
coedge $-1 -1 $-1 $304 $303 $223 $276 forward $305 0 $-1 #
edge $326 -1 $-1 $327 0 $278 0.9999999999999027445 $223 $328 forward @7 unknown #
DXID-attrib $-1 -1 $-1 $-1 $225 @18 ASM_EDGE_FROM_STEP @4 9027 #
vertex $-1 -1 $-1 $225 0 $329 #
straight-curve $-1 -1 $-1 -0.1749999999999999889 0 1.699999999999999956 0 0 -0.08232419811632270268 F 0 F 0.9999999999999654721 #
point $-1 -1 $-1 -0.1749999999999999889 0 1.617675801883680098 #
coedge $-1 -1 $-1 $230 $330 $322 $331 reversed $15 0 $-1 #
edge $332 -1 $-1 $284 0 $333 0.9999999999997853939 $230 $334 forward @7 unknown #
DXID-attrib $-1 -1 $-1 $-1 $231 @18 ASM_EDGE_FROM_STEP @4 9039 #
vertex $-1 -1 $-1 $282 0 $335 #
ellipse-curve $-1 -1 $-1 0.8331098820906229774 0 1.510481024165130082 0 1 0 0 0 -0.09999999999999979738 1 F -2.637558134760863204 F -1.570796326794896558 #
point $-1 -1 $-1 0.881406107139353967 0 1.59804514150803989 #
DXID-attrib $-1 -1 $-1 $236 $184 @18 ASM_FACE_FROM_STEP @5 14786 #
coedge $-1 -1 $-1 $336 $239 $337 $338 forward $10 0 $-1 #
coedge $-1 -1 $-1 $339 $340 $239 $290 reversed $271 0 $-1 #
edge $341 -1 $-1 $294 1.570796326794896558 $342 2.826946858131255791 $239 $343 forward @7 unknown #
coedge $-1 -1 $-1 $273 $240 $243 $296 forward $219 0 $-1 #
coedge $-1 -1 $-1 $240 $273 $339 $344 reversed $219 0 $-1 #
DXID-attrib $-1 -1 $-1 $-1 $241 @18 ASM_EDGE_FROM_STEP @4 9006 #
vertex $-1 -1 $-1 $241 1 $345 #
straight-curve $-1 -1 $-1 0.9331098820906229552 0.1000000000000000056 1.510481024165130082 0 0 -0.01457287553378329957 F 0 F 0.9999999999997853939 #
edge $346 -1 $-1 $245 0 $284 1 $243 $347 forward @14 tangent_not_g2 #
point $-1 -1 $-1 0.933109882090621956 0.1000000000000000056 1.510481024165130082 #
DXID-attrib $-1 -1 $-1 $-1 $247 @18 ASM_EDGE_FROM_STEP @4 9049 #
straight-curve $-1 -1 $-1 0.881406107139353967 0.1000000000000000056 1.59804514150803989 0 -0.1000000000000000056 0 F 0 F 1 #
coedge $-1 -1 $-1 $251 $348 $349 $350 forward $10 0 $-1 #
coedge $-1 -1 $-1 $351 $352 $251 $302 reversed $353 0 $-1 #
edge $354 -1 $-1 $355 2.981009267539007634 $307 4.609809127966384423 $251 $356 forward @7 unknown #
coedge $-1 -1 $-1 $275 $252 $352 $357 forward $305 0 $-1 #
coedge $-1 -1 $-1 $252 $275 $254 $309 reversed $305 0 $-1 #
loop $-1 -1 $-1 $-1 $275 $358 #
DXID-attrib $-1 -1 $-1 $-1 $253 @18 ASM_EDGE_FROM_STEP @4 9016 #
vertex $-1 -1 $-1 $302 1 $359 #
straight-curve $-1 -1 $-1 -0.1763430169274879944 0.1000000000000000056 1.713046450152740041 0.001343016927488114567 0 -0.01304645015274135712 F 0 F 0.9999999999999027445 #
edge $360 -1 $-1 $258 0 $278 1 $304 $361 forward @7 unknown #
face $362 -1 $-1 $261 $256 $5 $-1 $363 reversed single #
point $-1 -1 $-1 -0.1749999999999999889 0.1000000000000000056 1.699999999999999956 #
DXID-attrib $-1 -1 $-1 $-1 $260 @18 ASM_EDGE_FROM_STEP @4 9062 #
straight-curve $-1 -1 $-1 -0.1749999999999999889 0.1000000000000000056 1.617675801883680098 0 -0.1000000000000000056 0 F 0 F 1 #
ATTRIB_CUSTOM-attrib $-1 -1 $364 $-1 $261 @22 generic_tag_attrib_def 3 3 -1 @23 generic_tag_attrib_def  1 2 @2 19 0 4 362 482 646 779 0 #
cone-surface $-1 -1 $-1 -0.3250000000000000111 0.1000000000000000056 1.617675801883680098 0 -1 0 0 0 -0.1499999999999999944 1 I I 0 1 0.1499999999999999944 forward I I I I #
DXID-attrib $-1 -1 $-1 $265 $210 @18 ASM_FACE_FROM_STEP @5 14784 #
DXID-attrib $-1 -1 $-1 $269 $218 @18 ASM_FACE_FROM_STEP @5 14772 #
ATTRIB_CUSTOM-attrib $-1 -1 $365 $-1 $270 @22 generic_tag_attrib_def 3 3 -1 @23 generic_tag_attrib_def  1 1 @1 9 0 4 362 482 646 779 0 #
face $366 -1 $-1 $367 $368 $5 $-1 $369 forward single #
loop $-1 -1 $-1 $-1 $370 $270 #
cone-surface $-1 -1 $-1 0.6307863040650000253 0.1000000000000000056 0.2597302736616269869 0 -1 0 0 0 -1.199999999999999956 1 I I 0 1 1.199999999999999956 forward I I I I #
coedge $-1 -1 $-1 $340 $339 $281 $331 forward $271 0 $-1 #
coedge $-1 -1 $-1 $371 $274 $372 $373 reversed $15 0 $-1 #
coedge $-1 -1 $-1 $352 $351 $274 $325 forward $353 0 $-1 #
edge $374 -1 $-1 $375 2.981009267539007634 $327 4.609809127966384423 $274 $376 forward @7 unknown #
DXID-attrib $-1 -1 $-1 $-1 $276 @18 ASM_EDGE_FROM_STEP @4 9028 #
vertex $-1 -1 $-1 $276 0 $377 #
straight-curve $-1 -1 $-1 -0.1763430169274879944 0 1.713046450152740041 0.001343016927488114567 0 -0.01304645015274135712 F 0 F 0.9999999999999027445 #
point $-1 -1 $-1 -0.1749999999999999889 0 1.699999999999999956 #
coedge $-1 -1 $-1 $281 $378 $370 $379 reversed $15 0 $-1 #
edge $380 -1 $-1 $333 1.570796326794896558 $381 2.826946858131255791 $281 $382 forward @7 unknown #
DXID-attrib $-1 -1 $-1 $-1 $282 @18 ASM_EDGE_FROM_STEP @4 9038 #
vertex $-1 -1 $-1 $331 0 $383 #
straight-curve $-1 -1 $-1 0.9331098820906229552 0 1.510481024165130082 0 0 -0.01457287553378329957 F 0 F 0.9999999999997853939 #
point $-1 -1 $-1 0.933109882090621956 0 1.510481024165130082 #
coedge $-1 -1 $-1 $384 $288 $385 $386 forward $10 0 $-1 #
coedge $-1 -1 $-1 $387 $388 $288 $338 reversed $320 0 $-1 #
edge $389 -1 $-1 $342 -2.826946858131237583 $390 -2.475861666720842624 $288 $391 forward @7 unknown #
coedge $-1 -1 $-1 $322 $289 $292 $344 forward $271 0 $-1 #
coedge $-1 -1 $-1 $289 $322 $387 $392 reversed $271 0 $-1 #
DXID-attrib $-1 -1 $-1 $-1 $290 @18 ASM_EDGE_FROM_STEP @4 9007 #
vertex $-1 -1 $-1 $290 1 $393 #
ellipse-curve $-1 -1 $-1 1.033109882090619935 0.1000000000000000056 1.49590814863134991 0 -1 0 0 0 0.1000000000000000056 1 F 1.570796326794896558 F 2.826946858131255791 #
edge $394 -1 $-1 $294 0 $333 1 $292 $395 forward @14 tangent_not_g2 #
point $-1 -1 $-1 0.9331098820906229552 0.1000000000000000056 1.49590814863134991 #
DXID-attrib $-1 -1 $-1 $-1 $296 @18 ASM_EDGE_FROM_STEP @4 9050 #
straight-curve $-1 -1 $-1 0.933109882090621956 0.1000000000000000056 1.510481024165130082 0 -0.1000000000000000056 0 F 0 F 1 #
coedge $-1 -1 $-1 $300 $396 $397 $398 forward $10 0 $-1 #
coedge $-1 -1 $-1 $399 $400 $300 $350 reversed $401 0 $-1 #
edge $402 -1 $-1 $403 -0.5040345188289528933 $355 -0.1605833860507794308 $300 $404 forward @7 unknown #
coedge $-1 -1 $-1 $324 $301 $400 $405 forward $353 0 $-1 #
coedge $-1 -1 $-1 $301 $324 $303 $357 reversed $353 0 $-1 #
loop $-1 -1 $-1 $-1 $324 $406 #
DXID-attrib $-1 -1 $-1 $-1 $302 @18 ASM_EDGE_FROM_STEP @4 9015 #
vertex $-1 -1 $-1 $350 1 $407 #
ellipse-curve $-1 -1 $-1 -0.2758173468165059927 0.1000000000000000056 1.702806445605340002 0 1 0 0 0 -0.1000000000000000056 1 F 2.981009267539007634 F 4.609809127966384423 #
edge $408 -1 $-1 $307 0 $327 1 $352 $409 forward @14 tangent_not_g2 #
face $410 -1 $-1 $310 $305 $5 $-1 $411 reversed single #
point $-1 -1 $-1 -0.1763430169274879944 0.1000000000000000056 1.713046450152740041 #
DXID-attrib $-1 -1 $-1 $-1 $309 @18 ASM_EDGE_FROM_STEP @4 9061 #
straight-curve $-1 -1 $-1 -0.1749999999999999889 0.1000000000000000056 1.699999999999999956 0 -0.1000000000000000056 0 F 0 F 1 #
ATTRIB_CUSTOM-attrib $-1 -1 $412 $-1 $310 @22 generic_tag_attrib_def 3 3 -1 @23 generic_tag_attrib_def  1 2 @2 18 0 4 362 482 646 779 0 #
plane-surface $-1 -1 $-1 -0.1749999999999999889 0.1000000000000000056 1.699999999999999956 -1 0 0 0 0 1 forward_v I I I I #
DXID-attrib $-1 -1 $-1 $314 $261 @18 ASM_FACE_FROM_STEP @5 14783 #
DXID-attrib $-1 -1 $-1 $318 $270 @18 ASM_FACE_FROM_STEP @5 14773 #
ATTRIB_CUSTOM-attrib $-1 -1 $413 $-1 $319 @22 generic_tag_attrib_def 3 3 -1 @23 generic_tag_attrib_def  1 2 @2 10 0 4 362 482 646 779 0 #
face $414 -1 $-1 $415 $416 $5 $-1 $417 forward single #
loop $-1 -1 $-1 $-1 $418 $319 #
cone-surface $-1 -1 $-1 0 0.1000000000000000056 0 0 -1 0 0 0 -1.824999999999999956 1 I I 0 1 1.824999999999999956 forward I I I I #
coedge $-1 -1 $-1 $388 $387 $330 $379 forward $320 0 $-1 #
coedge $-1 -1 $-1 $419 $323 $420 $421 reversed $15 0 $-1 #
coedge $-1 -1 $-1 $400 $399 $323 $373 forward $401 0 $-1 #
edge $422 -1 $-1 $423 -0.5040345188289528933 $375 -0.1605833860507794308 $323 $424 forward @7 unknown #
DXID-attrib $-1 -1 $-1 $-1 $325 @18 ASM_EDGE_FROM_STEP @4 9029 #
vertex $-1 -1 $-1 $325 0 $425 #
ellipse-curve $-1 -1 $-1 -0.2758173468165059927 0 1.702806445605340002 0 1 0 0 0 -0.1000000000000000056 1 F 2.981009267539007634 F 4.609809127966384423 #
point $-1 -1 $-1 -0.1763430169274879944 0 1.713046450152740041 #
coedge $-1 -1 $-1 $330 $426 $418 $427 reversed $15 0 $-1 #
edge $428 -1 $-1 $381 -2.826946858131237583 $429 -2.475861666720842624 $330 $430 forward @7 unknown #
DXID-attrib $-1 -1 $-1 $-1 $331 @18 ASM_EDGE_FROM_STEP @4 9037 #
vertex $-1 -1 $-1 $379 0 $431 #
ellipse-curve $-1 -1 $-1 1.033109882090619935 0 1.49590814863134991 0 -1 0 0 0 0.1000000000000000056 1 F 1.570796326794896558 F 2.826946858131255791 #
point $-1 -1 $-1 0.9331098820906229552 0 1.49590814863134991 #
coedge $-1 -1 $-1 $432 $336 $433 $434 forward $10 0 $-1 #
coedge $-1 -1 $-1 $435 $436 $336 $386 reversed $368 0 $-1 #
edge $437 -1 $-1 $390 0.8507147940163202193 $438 5.432470513163266013 $336 $439 forward @7 unknown #
coedge $-1 -1 $-1 $370 $337 $340 $392 forward $320 0 $-1 #
coedge $-1 -1 $-1 $337 $370 $435 $440 reversed $320 0 $-1 #
DXID-attrib $-1 -1 $-1 $-1 $338 @18 ASM_EDGE_FROM_STEP @4 9008 #
vertex $-1 -1 $-1 $338 1 $441 #
ellipse-curve $-1 -1 $-1 0.6307863040650000253 0.1000000000000000056 0.2597302736616269869 0 1 0 0 0 -1.199999999999999956 1 F -2.826946858131237583 F -2.475861666720842624 #
edge $442 -1 $-1 $342 0 $381 1 $340 $443 forward @14 tangent_not_g2 #
point $-1 -1 $-1 1.002161914550190103 0.1000000000000000056 1.400817542864450038 #
DXID-attrib $-1 -1 $-1 $-1 $344 @18 ASM_EDGE_FROM_STEP @4 9051 #
straight-curve $-1 -1 $-1 0.9331098820906229552 0.1000000000000000056 1.49590814863134991 0 -0.1000000000000000056 0 F 0 F 1 #
coedge $-1 -1 $-1 $348 $432 $444 $445 forward $10 0 $-1 #
coedge $-1 -1 $-1 $446 $447 $348 $398 reversed $448 0 $-1 #
edge $449 -1 $-1 $450 1.570796326794896558 $403 2.637558134760854323 $348 $451 forward @7 unknown #
coedge $-1 -1 $-1 $372 $349 $447 $452 forward $401 0 $-1 #
coedge $-1 -1 $-1 $349 $372 $351 $405 reversed $401 0 $-1 #
loop $-1 -1 $-1 $-1 $372 $453 #
DXID-attrib $-1 -1 $-1 $-1 $350 @18 ASM_EDGE_FROM_STEP @4 9014 #
vertex $-1 -1 $-1 $398 1 $454 #
ellipse-curve $-1 -1 $-1 0 0.1000000000000000056 0 0 1 0 0 0 1.824999999999999956 1 F -0.5040345188289528933 F -0.1605833860507794308 #
edge $455 -1 $-1 $355 0 $375 1 $400 $456 forward @14 tangent_not_g2 #
face $457 -1 $-1 $358 $353 $5 $-1 $458 forward single #
point $-1 -1 $-1 -0.2918067582261589799 0.1000000000000000056 1.801519862741880029 #
DXID-attrib $-1 -1 $-1 $-1 $357 @18 ASM_EDGE_FROM_STEP @4 9060 #
straight-curve $-1 -1 $-1 -0.1763430169274879944 0.1000000000000000056 1.713046450152740041 0 -0.1000000000000000056 0 F 0 F 1 #
ATTRIB_CUSTOM-attrib $-1 -1 $459 $-1 $358 @22 generic_tag_attrib_def 3 3 -1 @23 generic_tag_attrib_def  1 2 @2 17 0 4 362 482 646 779 0 #
plane-surface $-1 -1 $-1 -0.1749999999999999889 0.1000000000000000056 1.699999999999999956 -0.994743298890183314 0 -0.1024000454739910221 -0.1024000454739910221 0 0.994743298890183314 forward_v I I I I #
DXID-attrib $-1 -1 $-1 $362 $310 @18 ASM_FACE_FROM_STEP @5 14782 #
DXID-attrib $-1 -1 $-1 $366 $319 @18 ASM_FACE_FROM_STEP @5 14774 #
ATTRIB_CUSTOM-attrib $-1 -1 $460 $-1 $367 @22 generic_tag_attrib_def 3 3 -1 @23 generic_tag_attrib_def  1 2 @2 11 0 4 362 482 646 779 0 #
face $461 -1 $-1 $462 $463 $5 $-1 $464 reversed single #
loop $-1 -1 $-1 $-1 $465 $367 #
cone-surface $-1 -1 $-1 -0.6307863040650000253 0.1000000000000000056 0.2597302736616279861 0 -1 0 0 0 -1.199999999999999956 1 I I 0 1 1.199999999999999956 forward I I I I #
coedge $-1 -1 $-1 $436 $435 $378 $427 forward $368 0 $-1 #
coedge $-1 -1 $-1 $466 $371 $467 $468 reversed $15 0 $-1 #
coedge $-1 -1 $-1 $447 $446 $371 $421 forward $448 0 $-1 #
edge $469 -1 $-1 $470 1.570796326794896558 $423 2.637558134760854323 $371 $471 forward @7 unknown #
DXID-attrib $-1 -1 $-1 $-1 $373 @18 ASM_EDGE_FROM_STEP @4 9030 #
vertex $-1 -1 $-1 $373 0 $472 #
ellipse-curve $-1 -1 $-1 0 0 0 0 1 0 0 0 1.824999999999999956 1 F -0.5040345188289528933 F -0.1605833860507794308 #
point $-1 -1 $-1 -0.2918067582261589799 0 1.801519862741880029 #
coedge $-1 -1 $-1 $378 $466 $465 $473 reversed $15 0 $-1 #
edge $474 -1 $-1 $429 0.8507147940163202193 $475 5.432470513163266013 $378 $476 forward @7 unknown #
DXID-attrib $-1 -1 $-1 $-1 $379 @18 ASM_EDGE_FROM_STEP @4 9036 #
vertex $-1 -1 $-1 $427 0 $477 #
ellipse-curve $-1 -1 $-1 0.6307863040650000253 0 0.2597302736616269869 0 1 0 0 0 -1.199999999999999956 1 F -2.826946858131237583 F -2.475861666720842624 #
point $-1 -1 $-1 1.002161914550190103 0 1.400817542864450038 #
coedge $-1 -1 $-1 $396 $384 $478 $479 forward $10 0 $-1 #
coedge $-1 -1 $-1 $480 $481 $384 $434 reversed $416 0 $-1 #
edge $482 -1 $-1 $438 -0.6657309868689514909 $483 -0.3146457954585556438 $384 $484 forward @7 unknown #
coedge $-1 -1 $-1 $418 $385 $388 $440 forward $368 0 $-1 #
coedge $-1 -1 $-1 $385 $418 $480 $485 reversed $368 0 $-1 #
DXID-attrib $-1 -1 $-1 $-1 $386 @18 ASM_EDGE_FROM_STEP @4 9009 #
vertex $-1 -1 $-1 $386 1 $486 #
ellipse-curve $-1 -1 $-1 0 0.1000000000000000056 0 0 1 0 0 0 1.824999999999999956 1 F 0.8507147940163202193 F 5.432470513163266013 #
edge $487 -1 $-1 $390 0 $429 1 $388 $488 forward @7 unknown #
point $-1 -1 $-1 1.371947336449210075 0.1000000000000000056 1.203488889026369968 #
DXID-attrib $-1 -1 $-1 $-1 $392 @18 ASM_EDGE_FROM_STEP @4 9052 #
straight-curve $-1 -1 $-1 1.002161914550190103 0.1000000000000000056 1.400817542864450038 0 -0.1000000000000000056 0 F 0 F 1 #
coedge $-1 -1 $-1 $489 $490 $396 $445 reversed $491 0 $-1 #
edge $492 -1 $-1 $493 0 $450 0.9999999999999362732 $396 $494 forward @7 unknown #
coedge $-1 -1 $-1 $420 $397 $490 $495 forward $448 0 $-1 #
coedge $-1 -1 $-1 $397 $420 $399 $452 reversed $448 0 $-1 #
loop $-1 -1 $-1 $-1 $420 $496 #
DXID-attrib $-1 -1 $-1 $-1 $398 @18 ASM_EDGE_FROM_STEP @4 9013 #
vertex $-1 -1 $-1 $445 1 $497 #
ellipse-curve $-1 -1 $-1 -0.833109882090620979 0.1000000000000000056 1.510481024165130082 0 1 0 0 0 -0.1000000000000000056 1 F 1.570796326794896558 F 2.637558134760854323 #
edge $498 -1 $-1 $403 0 $423 1 $447 $499 forward @14 tangent_not_g2 #
face $500 -1 $-1 $406 $401 $5 $-1 $501 forward single #
point $-1 -1 $-1 -0.8814061071393529678 0.1000000000000000056 1.59804514150803989 #
DXID-attrib $-1 -1 $-1 $-1 $405 @18 ASM_EDGE_FROM_STEP @4 9059 #
straight-curve $-1 -1 $-1 -0.2918067582261589799 0.1000000000000000056 1.801519862741880029 0 -0.1000000000000000056 0 F 0 F 1 #
ATTRIB_CUSTOM-attrib $-1 -1 $502 $-1 $406 @22 generic_tag_attrib_def 3 3 -1 @23 generic_tag_attrib_def  1 2 @2 16 0 4 362 482 646 779 0 #
cone-surface $-1 -1 $-1 -0.2758173468165059927 0.1000000000000000056 1.702806445605340002 0 -1 0 0 0 -0.1000000000000000056 1 I I 0 1 0.1000000000000000056 forward I I I I #
DXID-attrib $-1 -1 $-1 $410 $358 @18 ASM_FACE_FROM_STEP @5 14781 #
DXID-attrib $-1 -1 $-1 $414 $367 @18 ASM_FACE_FROM_STEP @5 14775 #
ATTRIB_CUSTOM-attrib $-1 -1 $503 $-1 $415 @22 generic_tag_attrib_def 3 3 -1 @23 generic_tag_attrib_def  1 2 @2 12 0 4 362 482 646 779 0 #
face $504 -1 $-1 $496 $491 $5 $-1 $505 reversed single #
loop $-1 -1 $-1 $-1 $506 $415 #
cone-surface $-1 -1 $-1 -1.033109882090619935 0.1000000000000000056 1.49590814863134991 0 -1 0 0 0 -0.1000000000000000056 1 I I 0 1 0.1000000000000000056 forward I I I I #
coedge $-1 -1 $-1 $481 $480 $426 $473 forward $416 0 $-1 #
coedge $-1 -1 $-1 $426 $419 $506 $507 reversed $15 0 $-1 #
coedge $-1 -1 $-1 $490 $489 $419 $468 forward $491 0 $-1 #
edge $508 -1 $-1 $509 0 $470 0.9999999999999362732 $419 $510 forward @7 unknown #
DXID-attrib $-1 -1 $-1 $-1 $421 @18 ASM_EDGE_FROM_STEP @4 9031 #
vertex $-1 -1 $-1 $421 0 $511 #
ellipse-curve $-1 -1 $-1 -0.833109882090620979 0 1.510481024165130082 0 1 0 0 0 -0.1000000000000000056 1 F 1.570796326794896558 F 2.637558134760854323 #
point $-1 -1 $-1 -0.8814061071393529678 0 1.59804514150803989 #
edge $512 -1 $-1 $475 -0.6657309868689514909 $513 -0.3146457954585556438 $426 $514 forward @7 unknown #
DXID-attrib $-1 -1 $-1 $-1 $427 @18 ASM_EDGE_FROM_STEP @4 9035 #
vertex $-1 -1 $-1 $473 0 $515 #
ellipse-curve $-1 -1 $-1 0 0 0 0 1 0 0 0 1.824999999999999956 1 F 0.8507147940163202193 F 5.432470513163266013 #
point $-1 -1 $-1 1.371947336449210075 0 1.203488889026369968 #
coedge $-1 -1 $-1 $516 $517 $432 $479 reversed $463 0 $-1 #
edge $518 -1 $-1 $483 -2.826946858131255791 $493 -1.570796326794896558 $432 $519 forward @7 unknown #
coedge $-1 -1 $-1 $465 $433 $436 $485 forward $416 0 $-1 #
coedge $-1 -1 $-1 $433 $465 $516 $520 reversed $416 0 $-1 #
DXID-attrib $-1 -1 $-1 $-1 $434 @18 ASM_EDGE_FROM_STEP @4 9010 #
vertex $-1 -1 $-1 $434 1 $521 #
ellipse-curve $-1 -1 $-1 -0.6307863040650000253 0.1000000000000000056 0.2597302736616279861 0 1 0 0 0 1.199999999999999956 1 F -0.6657309868689514909 F -0.3146457954585556438 #
edge $522 -1 $-1 $438 0 $475 1 $436 $523 forward @7 unknown #
point $-1 -1 $-1 -1.371947336449210075 0.1000000000000000056 1.203488889026369968 #
DXID-attrib $-1 -1 $-1 $-1 $440 @18 ASM_EDGE_FROM_STEP @4 9053 #
straight-curve $-1 -1 $-1 1.371947336449210075 0.1000000000000000056 1.203488889026369968 0 -0.1000000000000000056 0 F 0 F 1 #
coedge $-1 -1 $-1 $467 $444 $517 $524 forward $491 0 $-1 #
coedge $-1 -1 $-1 $444 $467 $446 $495 reversed $491 0 $-1 #
loop $-1 -1 $-1 $-1 $467 $462 #
DXID-attrib $-1 -1 $-1 $-1 $445 @18 ASM_EDGE_FROM_STEP @4 9012 #
vertex $-1 -1 $-1 $479 1 $525 #
straight-curve $-1 -1 $-1 -0.9331098820906209568 0.1000000000000000056 1.49590814863134991 0 0 0.01457287553378109994 F 0 F 0.9999999999999362732 #
edge $526 -1 $-1 $450 0 $470 1 $490 $527 forward @14 tangent_not_g2 #
face $528 -1 $-1 $453 $448 $5 $-1 $529 forward single #
point $-1 -1 $-1 -0.9331098820906209568 0.1000000000000000056 1.510481024165130082 #
DXID-attrib $-1 -1 $-1 $-1 $452 @18 ASM_EDGE_FROM_STEP @4 9058 #
straight-curve $-1 -1 $-1 -0.8814061071393529678 0.1000000000000000056 1.59804514150803989 0 -0.1000000000000000056 0 F 0 F 1 #
ATTRIB_CUSTOM-attrib $-1 -1 $530 $-1 $453 @22 generic_tag_attrib_def 3 3 -1 @23 generic_tag_attrib_def  1 2 @2 15 0 4 362 482 646 779 0 #
cone-surface $-1 -1 $-1 0 0.1000000000000000056 0 0 -1 0 0 0 -1.824999999999999956 1 I I 0 1 1.824999999999999956 forward I I I I #
DXID-attrib $-1 -1 $-1 $457 $406 @18 ASM_FACE_FROM_STEP @5 14780 #
DXID-attrib $-1 -1 $-1 $461 $415 @18 ASM_FACE_FROM_STEP @5 14776 #
ATTRIB_CUSTOM-attrib $-1 -1 $531 $-1 $462 @22 generic_tag_attrib_def 3 3 -1 @23 generic_tag_attrib_def  1 2 @2 13 0 4 362 482 646 779 0 #
plane-surface $-1 -1 $-1 -0.9331098820906209568 0.1000000000000000056 1.510481024165130082 1 0 0 0 0 -1 forward_v I I I I #
coedge $-1 -1 $-1 $517 $516 $466 $507 forward $463 0 $-1 #
edge $532 -1 $-1 $513 -2.826946858131255791 $509 -1.570796326794896558 $466 $533 forward @7 unknown #
DXID-attrib $-1 -1 $-1 $-1 $468 @18 ASM_EDGE_FROM_STEP @4 9032 #
vertex $-1 -1 $-1 $468 0 $534 #
straight-curve $-1 -1 $-1 -0.9331098820906209568 0 1.49590814863134991 0 0 0.01457287553378109994 F 0 F 0.9999999999999362732 #
point $-1 -1 $-1 -0.9331098820906209568 0 1.510481024165130082 #
DXID-attrib $-1 -1 $-1 $-1 $473 @18 ASM_EDGE_FROM_STEP @4 9034 #
vertex $-1 -1 $-1 $507 0 $535 #
ellipse-curve $-1 -1 $-1 -0.6307863040650000253 0 0.2597302736616279861 0 1 0 0 0 1.199999999999999956 1 F -0.6657309868689514909 F -0.3146457954585556438 #
point $-1 -1 $-1 -1.371947336449210075 0 1.203488889026369968 #
coedge $-1 -1 $-1 $506 $478 $481 $520 forward $463 0 $-1 #
coedge $-1 -1 $-1 $478 $506 $489 $524 reversed $463 0 $-1 #
DXID-attrib $-1 -1 $-1 $-1 $479 @18 ASM_EDGE_FROM_STEP @4 9011 #
ellipse-curve $-1 -1 $-1 -1.033109882090619935 0.1000000000000000056 1.49590814863134991 0 -1 0 0 0 0.1000000000000000056 1 F -2.826946858131255791 F -1.570796326794896558 #
edge $536 -1 $-1 $483 0 $513 1 $481 $537 forward @14 tangent_not_g2 #
point $-1 -1 $-1 -1.002161914550190103 0.1000000000000000056 1.400817542864450038 #
DXID-attrib $-1 -1 $-1 $-1 $485 @18 ASM_EDGE_FROM_STEP @4 9054 #
straight-curve $-1 -1 $-1 -1.371947336449210075 0.1000000000000000056 1.203488889026369968 0 -0.1000000000000000056 0 F 0 F 1 #
edge $538 -1 $-1 $493 0 $509 1 $517 $539 forward @14 tangent_not_g2 #
point $-1 -1 $-1 -0.9331098820906209568 0.1000000000000000056 1.49590814863134991 #
DXID-attrib $-1 -1 $-1 $-1 $495 @18 ASM_EDGE_FROM_STEP @4 9057 #
straight-curve $-1 -1 $-1 -0.9331098820906209568 0.1000000000000000056 1.510481024165130082 0 -0.1000000000000000056 0 F 0 F 1 #
ATTRIB_CUSTOM-attrib $-1 -1 $540 $-1 $496 @22 generic_tag_attrib_def 3 3 -1 @23 generic_tag_attrib_def  1 2 @2 14 0 4 362 482 646 779 0 #
cone-surface $-1 -1 $-1 -0.833109882090620979 0.1000000000000000056 1.510481024165130082 0 -1 0 0 0 -0.1000000000000000056 1 I I 0 1 0.1000000000000000056 forward I I I I #
DXID-attrib $-1 -1 $-1 $500 $453 @18 ASM_FACE_FROM_STEP @5 14779 #
DXID-attrib $-1 -1 $-1 $504 $462 @18 ASM_FACE_FROM_STEP @5 14777 #
DXID-attrib $-1 -1 $-1 $-1 $507 @18 ASM_EDGE_FROM_STEP @4 9033 #
ellipse-curve $-1 -1 $-1 -1.033109882090619935 0 1.49590814863134991 0 -1 0 0 0 0.1000000000000000056 1 F -2.826946858131255791 F -1.570796326794896558 #
point $-1 -1 $-1 -0.9331098820906209568 0 1.49590814863134991 #
point $-1 -1 $-1 -1.002161914550190103 0 1.400817542864450038 #
DXID-attrib $-1 -1 $-1 $-1 $520 @18 ASM_EDGE_FROM_STEP @4 9055 #
straight-curve $-1 -1 $-1 -1.002161914550190103 0.1000000000000000056 1.400817542864450038 0 -0.1000000000000000056 0 F 0 F 1 #
DXID-attrib $-1 -1 $-1 $-1 $524 @18 ASM_EDGE_FROM_STEP @4 9056 #
straight-curve $-1 -1 $-1 -0.9331098820906209568 0.1000000000000000056 1.49590814863134991 0 -0.1000000000000000056 0 F 0 F 1 #
DXID-attrib $-1 -1 $-1 $528 $496 @18 ASM_FACE_FROM_STEP @5 14778 #
End-of-ASM-data 