22700 0 2 4           
16 Autodesk Neutron 20 ASM 227.1.1.65535 NT 24 Thu Aug 26 00:06:18 2021 
10 9.999999999999999547e-07 1.000000000000000036e-10 
asmheader $-1 -1 @13 227.1.1.65535 #
body $2 0 $-1 $3 $-1 $-1 #
ATTRIB_CUSTOM-attrib $-1 -1 $4 $-1 $1 @20 Timestamp_attrib_def 1 1406915265000 #
lump $-1 -1 $-1 $-1 $5 $1 #
ATTRIB_CUSTOM-attrib $-1 -1 $6 $2 $1 @22 generic_tag_attrib_def 3 3 -1 @23 generic_tag_attrib_def  4 3 @3 314 1 0 0 3 @3 434 1 0 0 3 @3 613 1 0 0 3 @3 746 1 0 0 #
shell $-1 -1 $-1 $-1 $-1 $7 $-1 $3 #
DXID-attrib $-1 -1 $-1 $4 $1 @18 ASM_BODY_FROM_STEP @4 2656 #
face $8 9 $-1 $9 $10 $5 $-1 $11 forward single #
ATTRIB_CUSTOM-attrib $-1 -1 $12 $-1 $7 @22 generic_tag_attrib_def 3 3 -1 @23 generic_tag_attrib_def  1 1 @1 0 0 4 314 434 613 746 0 #
face $13 10 $-1 $14 $15 $5 $-1 $16 reversed single #
loop $-1 -1 $-1 $17 $18 $7 #
plane-surface $-1 -1 $-1 0 0 0.3499999999999999778 0 0 1 1 0 0 forward_v I I I I #
DXID-attrib $-1 -1 $-1 $8 $7 @18 ASM_FACE_FROM_STEP @5 14559 #
ATTRIB_CUSTOM-attrib $-1 -1 $19 $-1 $9 @22 generic_tag_attrib_def 3 3 -1 @23 generic_tag_attrib_def  1 1 @1 1 0 4 314 434 613 746 0 #
face $20 11 $-1 $21 $22 $5 $-1 $23 forward single #
loop $-1 -1 $-1 $24 $25 $9 #
plane-surface $-1 -1 $-1 0 0 0 0 0 1 1 0 0 forward_v I I I I #
loop $-1 -1 $-1 $-1 $26 $7 #
coedge $-1 -1 $-1 $18 $18 $27 $28 forward $10 0 $-1 #
DXID-attrib $-1 -1 $-1 $13 $9 @18 ASM_FACE_FROM_STEP @5 14560 #
ATTRIB_CUSTOM-attrib $-1 -1 $29 $-1 $14 @22 generic_tag_attrib_def 3 3 -1 @23 generic_tag_attrib_def  1 1 @1 2 0 4 314 434 613 746 0 #
face $30 12 $-1 $-1 $31 $5 $-1 $32 reversed single #
loop $-1 -1 $-1 $33 $27 $14 #
cone-surface $-1 -1 $-1 0 0 0.3499999999999999778 0 0 -1 -1.5 0 0 1 I I 0 1 1.5 forward I I I I #
loop $-1 -1 $-1 $-1 $34 $9 #
coedge $-1 -1 $-1 $25 $25 $35 $36 reversed $15 0 $-1 #
coedge $-1 -1 $-1 $26 $26 $37 $38 reversed $17 0 $-1 #
coedge $-1 -1 $-1 $27 $27 $18 $28 reversed $22 0 $-1 #
edge $39 2 $-1 $40 0 $40 6.283185307179586232 $18 $41 forward @7 unknown #
DXID-attrib $-1 -1 $-1 $20 $14 @18 ASM_FACE_FROM_STEP @5 14561 #
ATTRIB_CUSTOM-attrib $-1 -1 $42 $-1 $21 @22 generic_tag_attrib_def 3 3 -1 @23 generic_tag_attrib_def  1 1 @1 3 0 4 314 434 613 746 0 #
loop $-1 -1 $-1 $43 $37 $21 #
cone-surface $-1 -1 $-1 0 0 0.3499999999999999778 0 0 -1 -0.8499999999999999778 0 0 1 I I 0 1 0.8499999999999999778 forward I I I I #
loop $-1 -1 $-1 $-1 $35 $14 #
coedge $-1 -1 $-1 $34 $34 $44 $45 forward $24 0 $-1 #
coedge $-1 -1 $-1 $35 $35 $25 $36 forward $33 0 $-1 #
edge $46 1 $-1 $47 0 $47 6.283185307179586232 $25 $48 forward @7 unknown #
coedge $-1 -1 $-1 $37 $37 $26 $38 forward $31 0 $-1 #
edge $49 3 $-1 $50 0 $50 6.283185307179586232 $26 $51 forward @7 unknown #
DXID-attrib $-1 -1 $-1 $-1 $28 @18 ASM_EDGE_FROM_STEP @4 8671 #
vertex $-1 4 $-1 $28 0 $52 #
ellipse-curve $-1 -1 $-1 0 0 0.3499999999999999778 0 0 1 1.5 0 0 1 I I #
DXID-attrib $-1 -1 $-1 $30 $21 @18 ASM_FACE_FROM_STEP @5 14562 #
loop $-1 -1 $-1 $-1 $44 $21 #
coedge $-1 -1 $-1 $44 $44 $34 $45 reversed $43 0 $-1 #
edge $53 8 $-1 $54 0 $54 6.283185307179586232 $34 $55 forward @7 unknown #
DXID-attrib $-1 -1 $-1 $-1 $36 @18 ASM_EDGE_FROM_STEP @4 8673 #
vertex $-1 6 $-1 $36 0 $56 #
ellipse-curve $-1 -1 $-1 0 0 0 0 0 1 1.5 0 0 1 I I #
DXID-attrib $-1 -1 $-1 $-1 $38 @18 ASM_EDGE_FROM_STEP @4 8672 #
vertex $-1 5 $-1 $38 0 $57 #
ellipse-curve $-1 -1 $-1 0 0 0.3499999999999999778 0 0 1 0.8499999999999999778 0 0 1 I I #
point $-1 -1 $-1 1.5 0 0.3499999999999999778 #
DXID-attrib $-1 -1 $-1 $-1 $45 @18 ASM_EDGE_FROM_STEP @4 8674 #
vertex $-1 7 $-1 $45 0 $58 #
ellipse-curve $-1 -1 $-1 0 0 0 0 0 1 0.8499999999999999778 0 0 1 I I #
point $-1 -1 $-1 1.5 0 0 #
point $-1 -1 $-1 0.8499999999999999778 0 0.3499999999999999778 #
point $-1 -1 $-1 0.8499999999999999778 0 0 #
End-of-ASM-data 