# WaveFront *.obj file
# Vertices: 148
# Triangles : 296

v 1.5000000000000000e+00 0.0000000000000000e+00 3.4999999999999998e-01
v 1.4832462393376928e+00 2.2356339926426166e-01 3.4999999999999998e-01
v 1.4333592086792111e+00 4.4213276161635628e-01 3.4999999999999998e-01
v 1.3514533018536288e+00 6.5082560867633721e-01 3.4999999999999998e-01
v 1.2393581614739924e+00 8.4498008709543315e-01 3.4999999999999998e-01
v 1.0995778077447396e+00 1.0202591066563791e+00 3.4999999999999998e-01
v 9.3523470278810039e-01 1.1727472237020446e+00 3.4999999999999998e-01
v 7.4999999999999978e-01 1.2990381056766580e+00 3.4999999999999998e-01
v 5.4801153654959245e-01 1.3963106229663063e+00 3.4999999999999998e-01
v 3.3378140093447167e-01 1.4623918682727355e+00 3.4999999999999998e-01
v 1.1209514037963625e-01 1.4958056957717702e+00 3.4999999999999998e-01
v -1.1209514037963640e-01 1.4958056957717702e+00 3.4999999999999998e-01
v -3.3378140093447151e-01 1.4623918682727355e+00 3.4999999999999998e-01
v -5.4801153654959267e-01 1.3963106229663063e+00 3.4999999999999998e-01
v -7.5000000000000033e-01 1.2990381056766580e+00 3.4999999999999998e-01
v -9.3523470278810028e-01 1.1727472237020449e+00 3.4999999999999998e-01
v -1.0995778077447396e+00 1.0202591066563791e+00 3.4999999999999998e-01
v -1.2393581614739926e+00 8.4498008709543271e-01 3.4999999999999998e-01
v -1.3514533018536286e+00 6.5082560867633732e-01 3.4999999999999998e-01
v -1.4333592086792111e+00 4.4213276161635628e-01 3.4999999999999998e-01
v -1.4832462393376928e+00 2.2356339926426141e-01 3.4999999999999998e-01
v -1.5000000000000000e+00 1.8369701987210297e-16 3.4999999999999998e-01
v -1.4832462393376928e+00 -2.2356339926426172e-01 3.4999999999999998e-01
v -1.4333592086792111e+00 -4.4213276161635656e-01 3.4999999999999998e-01
v -1.3514533018536288e+00 -6.5082560867633699e-01 3.4999999999999998e-01
v -1.2393581614739924e+00 -8.4498008709543315e-01 3.4999999999999998e-01
v -1.0995778077447393e+00 -1.0202591066563791e+00 3.4999999999999998e-01
v -9.3523470278810050e-01 -1.1727472237020446e+00 3.4999999999999998e-01
v -7.4999999999999944e-01 -1.2990381056766582e+00 3.4999999999999998e-01
v -5.4801153654959234e-01 -1.3963106229663063e+00 3.4999999999999998e-01
v -3.3378140093447189e-01 -1.4623918682727355e+00 3.4999999999999998e-01
v -1.1209514037963575e-01 -1.4958056957717702e+00 3.4999999999999998e-01
v 1.1209514037963655e-01 -1.4958056957717702e+00 3.4999999999999998e-01
v 3.3378140093447134e-01 -1.4623918682727355e+00 3.4999999999999998e-01
v 5.4801153654959300e-01 -1.3963106229663063e+00 3.4999999999999998e-01
v 7.5000000000000022e-01 -1.2990381056766580e+00 3.4999999999999998e-01
v 9.3523470278810006e-01 -1.1727472237020449e+00 3.4999999999999998e-01
v 1.0995778077447398e+00 -1.0202591066563786e+00 3.4999999999999998e-01
v 1.2393581614739924e+00 -8.4498008709543293e-01 3.4999999999999998e-01
v 1.3514533018536286e+00 -6.5082560867633754e-01 3.4999999999999998e-01
v 1.4333592086792111e+00 -4.4213276161635584e-01 3.4999999999999998e-01
v 1.4832462393376928e+00 -2.2356339926426158e-01 3.4999999999999998e-01
v 8.4999999999999998e-01 0.0000000000000000e+00 3.4999999999999998e-01
v 8.3366748834274573e-01 -1.6582677371370941e-01 3.4999999999999998e-01
v 7.8529760263459347e-01 -3.2528091751032684e-01 3.4999999999999998e-01
v 7.0674917045716346e-01 -4.7223469806666185e-01 3.4999999999999998e-01
v 6.0104076400856521e-01 -6.0104076400856554e-01 3.4999999999999998e-01
v 4.7223469806666157e-01 -7.0674917045716357e-01 3.4999999999999998e-01
v 3.2528091751032651e-01 -7.8529760263459358e-01 3.4999999999999998e-01
v 1.6582677371370905e-01 -8.3366748834274584e-01 3.4999999999999998e-01
v -1.5614246689128752e-16 -8.4999999999999998e-01 3.4999999999999998e-01
v -1.6582677371370935e-01 -8.3366748834274573e-01 3.4999999999999998e-01
v -3.2528091751032678e-01 -7.8529760263459347e-01 3.4999999999999998e-01
v -4.7223469806666185e-01 -7.0674917045716346e-01 3.4999999999999998e-01
v -6.0104076400856554e-01 -6.0104076400856532e-01 3.4999999999999998e-01
v -7.0674917045716357e-01 -4.7223469806666163e-01 3.4999999999999998e-01
v -7.8529760263459381e-01 -3.2528091751032623e-01 3.4999999999999998e-01
v -8.3366748834274584e-01 -1.6582677371370910e-01 3.4999999999999998e-01
v -8.4999999999999998e-01 1.0409497792752501e-16 3.4999999999999998e-01
v -8.3366748834274584e-01 1.6582677371370932e-01 3.4999999999999998e-01
v -7.8529760263459369e-01 3.2528091751032640e-01 3.4999999999999998e-01
v -7.0674917045716357e-01 4.7223469806666185e-01 3.4999999999999998e-01
v -6.0104076400856532e-01 6.0104076400856543e-01 3.4999999999999998e-01
v -4.7223469806666163e-01 7.0674917045716357e-01 3.4999999999999998e-01
v -3.2528091751032628e-01 7.8529760263459369e-01 3.4999999999999998e-01
v -1.6582677371370896e-01 8.3366748834274584e-01 3.4999999999999998e-01
v 5.2047488963762507e-17 8.4999999999999998e-01 3.4999999999999998e-01
v 1.6582677371370907e-01 8.3366748834274584e-01 3.4999999999999998e-01
v 3.2528091751032634e-01 7.8529760263459369e-01 3.4999999999999998e-01
v 4.7223469806666191e-01 7.0674917045716346e-01 3.4999999999999998e-01
v 6.0104076400856543e-01 6.0104076400856543e-01 3.4999999999999998e-01
v 7.0674917045716346e-01 4.7223469806666185e-01 3.4999999999999998e-01
v 7.8529760263459369e-01 3.2528091751032628e-01 3.4999999999999998e-01
v 8.3366748834274584e-01 1.6582677371370902e-01 3.4999999999999998e-01
v 1.5000000000000000e+00 0.0000000000000000e+00 0.0000000000000000e+00
v 1.4832462393376928e+00 -2.2356339926426158e-01 0.0000000000000000e+00
v 1.4333592086792111e+00 -4.4213276161635584e-01 0.0000000000000000e+00
v 1.3514533018536286e+00 -6.5082560867633754e-01 0.0000000000000000e+00
v 1.2393581614739924e+00 -8.4498008709543293e-01 0.0000000000000000e+00
v 1.0995778077447398e+00 -1.0202591066563786e+00 0.0000000000000000e+00
v 9.3523470278810006e-01 -1.1727472237020449e+00 0.0000000000000000e+00
v 7.5000000000000022e-01 -1.2990381056766580e+00 0.0000000000000000e+00
v 5.4801153654959300e-01 -1.3963106229663063e+00 0.0000000000000000e+00
v 3.3378140093447134e-01 -1.4623918682727355e+00 0.0000000000000000e+00
v 1.1209514037963655e-01 -1.4958056957717702e+00 0.0000000000000000e+00
v -1.1209514037963575e-01 -1.4958056957717702e+00 0.0000000000000000e+00
v -3.3378140093447189e-01 -1.4623918682727355e+00 0.0000000000000000e+00
v -5.4801153654959234e-01 -1.3963106229663063e+00 0.0000000000000000e+00
v -7.4999999999999944e-01 -1.2990381056766582e+00 0.0000000000000000e+00
v -9.3523470278810050e-01 -1.1727472237020446e+00 0.0000000000000000e+00
v -1.0995778077447393e+00 -1.0202591066563791e+00 0.0000000000000000e+00
v -1.2393581614739924e+00 -8.4498008709543315e-01 0.0000000000000000e+00
v -1.3514533018536288e+00 -6.5082560867633699e-01 0.0000000000000000e+00
v -1.4333592086792111e+00 -4.4213276161635656e-01 0.0000000000000000e+00
v -1.4832462393376928e+00 -2.2356339926426172e-01 0.0000000000000000e+00
v -1.5000000000000000e+00 1.8369701987210297e-16 0.0000000000000000e+00
v -1.4832462393376928e+00 2.2356339926426141e-01 0.0000000000000000e+00
v -1.4333592086792111e+00 4.4213276161635628e-01 0.0000000000000000e+00
v -1.3514533018536286e+00 6.5082560867633732e-01 0.0000000000000000e+00
v -1.2393581614739926e+00 8.4498008709543271e-01 0.0000000000000000e+00
v -1.0995778077447396e+00 1.0202591066563791e+00 0.0000000000000000e+00
v -9.3523470278810028e-01 1.1727472237020449e+00 0.0000000000000000e+00
v -7.5000000000000033e-01 1.2990381056766580e+00 0.0000000000000000e+00
v -5.4801153654959267e-01 1.3963106229663063e+00 0.0000000000000000e+00
v -3.3378140093447151e-01 1.4623918682727355e+00 0.0000000000000000e+00
v -1.1209514037963640e-01 1.4958056957717702e+00 0.0000000000000000e+00
v 1.1209514037963625e-01 1.4958056957717702e+00 0.0000000000000000e+00
v 3.3378140093447167e-01 1.4623918682727355e+00 0.0000000000000000e+00
v 5.4801153654959245e-01 1.3963106229663063e+00 0.0000000000000000e+00
v 7.4999999999999978e-01 1.2990381056766580e+00 0.0000000000000000e+00
v 9.3523470278810039e-01 1.1727472237020446e+00 0.0000000000000000e+00
v 1.0995778077447396e+00 1.0202591066563791e+00 0.0000000000000000e+00
v 1.2393581614739924e+00 8.4498008709543315e-01 0.0000000000000000e+00
v 1.3514533018536288e+00 6.5082560867633721e-01 0.0000000000000000e+00
v 1.4333592086792111e+00 4.4213276161635628e-01 0.0000000000000000e+00
v 1.4832462393376928e+00 2.2356339926426166e-01 0.0000000000000000e+00
v 8.4999999999999998e-01 0.0000000000000000e+00 0.0000000000000000e+00
v 8.3366748834274584e-01 1.6582677371370902e-01 0.0000000000000000e+00
v 7.8529760263459369e-01 3.2528091751032628e-01 0.0000000000000000e+00
v 7.0674917045716346e-01 4.7223469806666185e-01 0.0000000000000000e+00
v 6.0104076400856543e-01 6.0104076400856543e-01 0.0000000000000000e+00
v 4.7223469806666191e-01 7.0674917045716346e-01 0.0000000000000000e+00
v 3.2528091751032634e-01 7.8529760263459369e-01 0.0000000000000000e+00
v 1.6582677371370907e-01 8.3366748834274584e-01 0.0000000000000000e+00
v 5.2047488963762507e-17 8.4999999999999998e-01 0.0000000000000000e+00
v -1.6582677371370896e-01 8.3366748834274584e-01 0.0000000000000000e+00
v -3.2528091751032628e-01 7.8529760263459369e-01 0.0000000000000000e+00
v -4.7223469806666163e-01 7.0674917045716357e-01 0.0000000000000000e+00
v -6.0104076400856532e-01 6.0104076400856543e-01 0.0000000000000000e+00
v -7.0674917045716357e-01 4.7223469806666185e-01 0.0000000000000000e+00
v -7.8529760263459369e-01 3.2528091751032640e-01 0.0000000000000000e+00
v -8.3366748834274584e-01 1.6582677371370932e-01 0.0000000000000000e+00
v -8.4999999999999998e-01 1.0409497792752501e-16 0.0000000000000000e+00
v -8.3366748834274584e-01 -1.6582677371370910e-01 0.0000000000000000e+00
v -7.8529760263459381e-01 -3.2528091751032623e-01 0.0000000000000000e+00
v -7.0674917045716357e-01 -4.7223469806666163e-01 0.0000000000000000e+00
v -6.0104076400856554e-01 -6.0104076400856532e-01 0.0000000000000000e+00
v -4.7223469806666185e-01 -7.0674917045716346e-01 0.0000000000000000e+00
v -3.2528091751032678e-01 -7.8529760263459347e-01 0.0000000000000000e+00
v -1.6582677371370935e-01 -8.3366748834274573e-01 0.0000000000000000e+00
v -1.5614246689128752e-16 -8.4999999999999998e-01 0.0000000000000000e+00
v 1.6582677371370905e-01 -8.3366748834274584e-01 0.0000000000000000e+00
v 3.2528091751032651e-01 -7.8529760263459358e-01 0.0000000000000000e+00
v 4.7223469806666157e-01 -7.0674917045716357e-01 0.0000000000000000e+00
v 6.0104076400856521e-01 -6.0104076400856554e-01 0.0000000000000000e+00
v 7.0674917045716346e-01 -4.7223469806666185e-01 0.0000000000000000e+00
v 7.8529760263459347e-01 -3.2528091751032684e-01 0.0000000000000000e+00
v 8.3366748834274573e-01 -1.6582677371370941e-01 0.0000000000000000e+00

vn 0.0000000000000000e+00 0.0000000000000000e+00 1.0000000000000000e+00
vn -0.0000000000000000e+00 -0.0000000000000000e+00 -1.0000000000000000e+00
vn 9.8883082622512852e-01 -1.4904226617617428e-01 -0.0000000000000000e+00
vn 1.0000000000000000e+00 -1.2246467991473532e-16 -0.0000000000000000e+00
vn 1.0000000000000000e+00 1.2246467991473532e-16 0.0000000000000000e+00
vn 9.8883082622512852e-01 1.4904226617617428e-01 0.0000000000000000e+00
vn 9.5557280578614068e-01 2.9475517441090421e-01 0.0000000000000000e+00
vn 9.0096886790241903e-01 4.3388373911755823e-01 0.0000000000000000e+00
vn 8.2623877431599480e-01 5.6332005806362218e-01 0.0000000000000000e+00
vn 7.3305187182982634e-01 6.8017273777091936e-01 0.0000000000000000e+00
vn 6.2348980185873348e-01 7.8183148246802980e-01 0.0000000000000000e+00
vn 4.9999999999999978e-01 8.6602540378443871e-01 0.0000000000000000e+00
vn 3.6534102436639515e-01 9.3087374864420425e-01 0.0000000000000000e+00
vn 2.2252093395631434e-01 9.7492791218182362e-01 0.0000000000000000e+00
vn 7.4730093586424268e-02 9.9720379718118024e-01 0.0000000000000000e+00
vn -7.4730093586424171e-02 9.9720379718118024e-01 -0.0000000000000000e+00
vn -2.2252093395631423e-01 9.7492791218182362e-01 -0.0000000000000000e+00
vn -3.6534102436639521e-01 9.3087374864420425e-01 -0.0000000000000000e+00
vn -5.0000000000000022e-01 8.6602540378443871e-01 -0.0000000000000000e+00
vn -6.2348980185873359e-01 7.8183148246802980e-01 -0.0000000000000000e+00
vn -7.3305187182982634e-01 6.8017273777091936e-01 -0.0000000000000000e+00
vn -8.2623877431599502e-01 5.6332005806362173e-01 -0.0000000000000000e+00
vn -9.0096886790241903e-01 4.3388373911755823e-01 -0.0000000000000000e+00
vn -9.5557280578614068e-01 2.9475517441090421e-01 -0.0000000000000000e+00
vn -9.8883082622512852e-01 1.4904226617617428e-01 -0.0000000000000000e+00
vn -1.0000000000000000e+00 1.2246467991473532e-16 -0.0000000000000000e+00
vn -9.8883082622512852e-01 -1.4904226617617447e-01 -0.0000000000000000e+00
vn -9.5557280578614068e-01 -2.9475517441090437e-01 -0.0000000000000000e+00
vn -9.0096886790241926e-01 -4.3388373911755795e-01 -0.0000000000000000e+00
vn -8.2623877431599491e-01 -5.6332005806362206e-01 -0.0000000000000000e+00
vn -7.3305187182982634e-01 -6.8017273777091936e-01 -0.0000000000000000e+00
vn -6.2348980185873359e-01 -7.8183148246802980e-01 -0.0000000000000000e+00
vn -4.9999999999999972e-01 -8.6602540378443882e-01 -0.0000000000000000e+00
vn -3.6534102436639493e-01 -9.3087374864420425e-01 -0.0000000000000000e+00
vn -2.2252093395631467e-01 -9.7492791218182340e-01 -0.0000000000000000e+00
vn -7.4730093586423949e-02 -9.9720379718118024e-01 -0.0000000000000000e+00
vn 7.4730093586424268e-02 -9.9720379718118024e-01 -0.0000000000000000e+00
vn 2.2252093395631414e-01 -9.7492791218182362e-01 -0.0000000000000000e+00
vn 3.6534102436639526e-01 -9.3087374864420425e-01 -0.0000000000000000e+00
vn 5.0000000000000022e-01 -8.6602540378443871e-01 -0.0000000000000000e+00
vn 6.2348980185873348e-01 -7.8183148246802980e-01 -0.0000000000000000e+00
vn 7.3305187182982667e-01 -6.8017273777091913e-01 -0.0000000000000000e+00
vn 8.2623877431599502e-01 -5.6332005806362184e-01 -0.0000000000000000e+00
vn 9.0096886790241903e-01 -4.3388373911755823e-01 -0.0000000000000000e+00
vn 9.5557280578614090e-01 -2.9475517441090371e-01 -0.0000000000000000e+00
vn -9.8078528040323054e-01 -1.9509032201612819e-01 -0.0000000000000000e+00
vn -1.0000000000000000e+00 -1.2246467991473532e-16 -0.0000000000000000e+00
vn -9.8078528040323043e-01 1.9509032201612858e-01 0.0000000000000000e+00
vn -9.2387953251128652e-01 3.8268343236509034e-01 0.0000000000000000e+00
vn -8.3146961230254524e-01 5.5557023301960218e-01 0.0000000000000000e+00
vn -7.0710678118654735e-01 7.0710678118654757e-01 0.0000000000000000e+00
vn -5.5557023301960196e-01 8.3146961230254546e-01 0.0000000000000000e+00
vn -3.8268343236509011e-01 9.2387953251128663e-01 0.0000000000000000e+00
vn -1.9509032201612819e-01 9.8078528040323054e-01 0.0000000000000000e+00
vn 2.8327694488239903e-16 1.0000000000000000e+00 0.0000000000000000e+00
vn 1.9509032201612878e-01 9.8078528040323043e-01 0.0000000000000000e+00
vn 3.8268343236509050e-01 9.2387953251128652e-01 0.0000000000000000e+00
vn 5.5557023301960218e-01 8.3146961230254512e-01 0.0000000000000000e+00
vn 7.0710678118654768e-01 7.0710678118654735e-01 0.0000000000000000e+00
vn 8.3146961230254546e-01 5.5557023301960196e-01 0.0000000000000000e+00
vn 9.2387953251128685e-01 3.8268343236508967e-01 0.0000000000000000e+00
vn 9.8078528040323043e-01 1.9509032201612836e-01 0.0000000000000000e+00
vn 9.8078528040323043e-01 -1.9509032201612858e-01 0.0000000000000000e+00
vn 9.2387953251128663e-01 -3.8268343236508984e-01 0.0000000000000000e+00
vn 8.3146961230254524e-01 -5.5557023301960207e-01 0.0000000000000000e+00
vn 7.0710678118654735e-01 -7.0710678118654757e-01 0.0000000000000000e+00
vn 5.5557023301960196e-01 -8.3146961230254546e-01 0.0000000000000000e+00
vn 3.8268343236508984e-01 -9.2387953251128663e-01 0.0000000000000000e+00
vn 1.9509032201612811e-01 -9.8078528040323054e-01 0.0000000000000000e+00
vn -1.6081226496766366e-16 -1.0000000000000000e+00 -0.0000000000000000e+00
vn -1.9509032201612839e-01 -9.8078528040323043e-01 -0.0000000000000000e+00
vn -3.8268343236508984e-01 -9.2387953251128663e-01 -0.0000000000000000e+00
vn -5.5557023301960229e-01 -8.3146961230254524e-01 -0.0000000000000000e+00
vn -7.0710678118654735e-01 -7.0710678118654757e-01 -0.0000000000000000e+00
vn -8.3146961230254524e-01 -5.5557023301960218e-01 -0.0000000000000000e+00
vn -9.2387953251128663e-01 -3.8268343236508984e-01 -0.0000000000000000e+00

g face 0
f 42//1 1//1 43//1
f 43//1 1//1 2//1
f 43//1 2//1 74//1
f 74//1 2//1 3//1
f 74//1 3//1 73//1
f 73//1 3//1 4//1
f 73//1 4//1 72//1
f 72//1 4//1 5//1
f 72//1 5//1 6//1
f 72//1 6//1 71//1
f 71//1 6//1 7//1
f 71//1 7//1 70//1
f 70//1 7//1 8//1
f 70//1 8//1 69//1
f 69//1 8//1 9//1
f 69//1 9//1 10//1
f 69//1 10//1 68//1
f 68//1 10//1 11//1
f 68//1 11//1 67//1
f 67//1 11//1 12//1
f 67//1 12//1 66//1
f 66//1 12//1 13//1
f 66//1 13//1 65//1
f 65//1 13//1 14//1
f 65//1 14//1 15//1
f 65//1 15//1 64//1
f 64//1 15//1 16//1
f 64//1 16//1 63//1
f 63//1 16//1 17//1
f 63//1 17//1 62//1
f 62//1 17//1 18//1
f 62//1 18//1 19//1
f 62//1 19//1 61//1
f 61//1 19//1 20//1
f 61//1 20//1 60//1
f 60//1 20//1 21//1
f 60//1 21//1 59//1
f 59//1 21//1 22//1
f 59//1 22//1 23//1
f 59//1 23//1 58//1
f 58//1 23//1 24//1
f 58//1 24//1 57//1
f 57//1 24//1 25//1
f 57//1 25//1 56//1
f 56//1 25//1 26//1
f 56//1 26//1 27//1
f 56//1 27//1 55//1
f 55//1 27//1 28//1
f 55//1 28//1 54//1
f 54//1 28//1 29//1
f 54//1 29//1 53//1
f 53//1 29//1 30//1
f 53//1 30//1 31//1
f 53//1 31//1 52//1
f 52//1 31//1 32//1
f 52//1 32//1 51//1
f 51//1 32//1 33//1
f 51//1 33//1 50//1
f 50//1 33//1 34//1
f 50//1 34//1 49//1
f 49//1 34//1 35//1
f 49//1 35//1 36//1
f 49//1 36//1 48//1
f 48//1 36//1 37//1
f 48//1 37//1 47//1
f 47//1 37//1 38//1
f 47//1 38//1 46//1
f 46//1 38//1 39//1
f 46//1 39//1 40//1
f 46//1 40//1 45//1
f 45//1 40//1 41//1
f 45//1 41//1 44//1
f 44//1 41//1 42//1
f 44//1 42//1 43//1

g face 1
f 116//2 75//2 117//2
f 117//2 75//2 76//2
f 117//2 76//2 148//2
f 148//2 76//2 77//2
f 148//2 77//2 147//2
f 147//2 77//2 78//2
f 147//2 78//2 146//2
f 146//2 78//2 79//2
f 146//2 79//2 80//2
f 146//2 80//2 145//2
f 145//2 80//2 81//2
f 145//2 81//2 144//2
f 144//2 81//2 82//2
f 144//2 82//2 143//2
f 143//2 82//2 83//2
f 143//2 83//2 84//2
f 143//2 84//2 142//2
f 142//2 84//2 85//2
f 142//2 85//2 141//2
f 141//2 85//2 86//2
f 141//2 86//2 140//2
f 140//2 86//2 87//2
f 140//2 87//2 139//2
f 139//2 87//2 88//2
f 139//2 88//2 89//2
f 139//2 89//2 138//2
f 138//2 89//2 90//2
f 138//2 90//2 137//2
f 137//2 90//2 91//2
f 137//2 91//2 136//2
f 136//2 91//2 92//2
f 136//2 92//2 93//2
f 136//2 93//2 135//2
f 135//2 93//2 94//2
f 135//2 94//2 134//2
f 134//2 94//2 95//2
f 134//2 95//2 133//2
f 133//2 95//2 96//2
f 133//2 96//2 97//2
f 133//2 97//2 132//2
f 132//2 97//2 98//2
f 132//2 98//2 131//2
f 131//2 98//2 99//2
f 131//2 99//2 130//2
f 130//2 99//2 100//2
f 130//2 100//2 101//2
f 130//2 101//2 129//2
f 129//2 101//2 102//2
f 129//2 102//2 128//2
f 128//2 102//2 103//2
f 128//2 103//2 127//2
f 127//2 103//2 104//2
f 127//2 104//2 105//2
f 127//2 105//2 126//2
f 126//2 105//2 106//2
f 126//2 106//2 125//2
f 125//2 106//2 107//2
f 125//2 107//2 124//2
f 124//2 107//2 108//2
f 124//2 108//2 123//2
f 123//2 108//2 109//2
f 123//2 109//2 110//2
f 123//2 110//2 122//2
f 122//2 110//2 111//2
f 122//2 111//2 121//2
f 121//2 111//2 112//2
f 121//2 112//2 120//2
f 120//2 112//2 113//2
f 120//2 113//2 114//2
f 120//2 114//2 119//2
f 119//2 114//2 115//2
f 119//2 115//2 118//2
f 118//2 115//2 116//2
f 118//2 116//2 117//2

g face 2
f 42//3 76//3 1//4
f 1//4 76//3 75//4
f 1//5 75//5 2//6
f 2//6 75//5 116//6
f 2//6 116//6 3//7
f 3//7 116//6 115//7
f 3//7 115//7 4//8
f 4//8 115//7 114//8
f 4//8 114//8 5//9
f 5//9 114//8 113//9
f 5//9 113//9 6//10
f 6//10 113//9 112//10
f 6//10 112//10 7//11
f 7//11 112//10 111//11
f 7//11 111//11 8//12
f 8//12 111//11 110//12
f 8//12 110//12 9//13
f 9//13 110//12 109//13
f 9//13 109//13 10//14
f 10//14 109//13 108//14
f 10//14 108//14 11//15
f 11//15 108//14 107//15
f 11//15 107//15 12//16
f 12//16 107//15 106//16
f 12//16 106//16 13//17
f 13//17 106//16 105//17
f 13//17 105//17 14//18
f 14//18 105//17 104//18
f 14//18 104//18 15//19
f 15//19 104//18 103//19
f 15//19 103//19 16//20
f 16//20 103//19 102//20
f 16//20 102//20 17//21
f 17//21 102//20 101//21
f 17//21 101//21 18//22
f 18//22 101//21 100//22
f 18//22 100//22 19//23
f 19//23 100//22 99//23
f 19//23 99//23 20//24
f 20//24 99//23 98//24
f 20//24 98//24 21//25
f 21//25 98//24 97//25
f 21//25 97//25 22//26
f 22//26 97//25 96//26
f 22//26 96//26 23//27
f 23//27 96//26 95//27
f 23//27 95//27 24//28
f 24//28 95//27 94//28
f 24//28 94//28 25//29
f 25//29 94//28 93//29
f 25//29 93//29 26//30
f 26//30 93//29 92//30
f 26//30 92//30 27//31
f 27//31 92//30 91//31
f 27//31 91//31 28//32
f 28//32 91//31 90//32
f 28//32 90//32 29//33
f 29//33 90//32 89//33
f 29//33 89//33 30//34
f 30//34 89//33 88//34
f 30//34 88//34 31//35
f 31//35 88//34 87//35
f 31//35 87//35 32//36
f 32//36 87//35 86//36
f 32//36 86//36 33//37
f 33//37 86//36 85//37
f 33//37 85//37 34//38
f 34//38 85//37 84//38
f 34//38 84//38 35//39
f 35//39 84//38 83//39
f 35//39 83//39 36//40
f 36//40 83//39 82//40
f 36//40 82//40 37//41
f 37//41 82//40 81//41
f 37//41 81//41 38//42
f 38//42 81//41 80//42
f 38//42 80//42 39//43
f 39//43 80//42 79//43
f 39//43 79//43 40//44
f 40//44 79//43 78//44
f 40//44 78//44 41//45
f 41//45 78//44 77//45
f 41//45 77//45 42//3
f 42//3 77//45 76//3

g face 3
f 74//46 118//46 43//47
f 43//47 118//46 117//47
f 43//26 117//26 44//48
f 44//48 117//26 148//48
f 44//48 148//48 45//49
f 45//49 148//48 147//49
f 45//49 147//49 46//50
f 46//50 147//49 146//50
f 46//50 146//50 47//51
f 47//51 146//50 145//51
f 47//51 145//51 48//52
f 48//52 145//51 144//52
f 48//52 144//52 49//53
f 49//53 144//52 143//53
f 49//53 143//53 50//54
f 50//54 143//53 142//54
f 50//54 142//54 51//55
f 51//55 142//54 141//55
f 51//55 141//55 52//56
f 52//56 141//55 140//56
f 52//56 140//56 53//57
f 53//57 140//56 139//57
f 53//57 139//57 54//58
f 54//58 139//57 138//58
f 54//58 138//58 55//59
f 55//59 138//58 137//59
f 55//59 137//59 56//60
f 56//60 137//59 136//60
f 56//60 136//60 57//61
f 57//61 136//60 135//61
f 57//61 135//61 58//62
f 58//62 135//61 134//62
f 58//62 134//62 59//4
f 59//4 134//62 133//4
f 59//4 133//4 60//63
f 60//63 133//4 132//63
f 60//63 132//63 61//64
f 61//64 132//63 131//64
f 61//64 131//64 62//65
f 62//65 131//64 130//65
f 62//65 130//65 63//66
f 63//66 130//65 129//66
f 63//66 129//66 64//67
f 64//67 129//66 128//67
f 64//67 128//67 65//68
f 65//68 128//67 127//68
f 65//68 127//68 66//69
f 66//69 127//68 126//69
f 66//69 126//69 67//70
f 67//70 126//69 125//70
f 67//70 125//70 68//71
f 68//71 125//70 124//71
f 68//71 124//71 69//72
f 69//72 124//71 123//72
f 69//72 123//72 70//73
f 70//73 123//72 122//73
f 70//73 122//73 71//74
f 71//74 122//73 121//74
f 71//74 121//74 72//75
f 72//75 121//74 120//75
f 72//75 120//75 73//76
f 73//76 120//75 119//76
f 73//76 119//76 74//46
f 74//46 119//76 118//46

g halfedge 0 edge 0
l 1 2 3 4 5 6 7 8 9 10 11 12 13 14 15 16 17 18 19 20 21 22 23 24 25 26 27 28 29 30 31 32 33 34 35 36 37 38 39 40 41 42 1

g halfedge 1 edge 0
l 1 42 41 40 39 38 37 36 35 34 33 32 31 30 29 28 27 26 25 24 23 22 21 20 19 18 17 16 15 14 13 12 11 10 9 8 7 6 5 4 3 2 1

g halfedge 2 edge 1
l 43 44 45 46 47 48 49 50 51 52 53 54 55 56 57 58 59 60 61 62 63 64 65 66 67 68 69 70 71 72 73 74 43

g halfedge 3 edge 1
l 43 74 73 72 71 70 69 68 67 66 65 64 63 62 61 60 59 58 57 56 55 54 53 52 51 50 49 48 47 46 45 44 43

g halfedge 4 edge 2
l 75 76 77 78 79 80 81 82 83 84 85 86 87 88 89 90 91 92 93 94 95 96 97 98 99 100 101 102 103 104 105 106 107 108 109 110 111 112 113 114 115 116 75

g halfedge 5 edge 2
l 75 116 115 114 113 112 111 110 109 108 107 106 105 104 103 102 101 100 99 98 97 96 95 94 93 92 91 90 89 88 87 86 85 84 83 82 81 80 79 78 77 76 75

g halfedge 6 edge 3
l 117 118 119 120 121 122 123 124 125 126 127 128 129 130 131 132 133 134 135 136 137 138 139 140 141 142 143 144 145 146 147 148 117

g halfedge 7 edge 3
l 117 148 147 146 145 144 143 142 141 140 139 138 137 136 135 134 133 132 131 130 129 128 127 126 125 124 123 122 121 120 119 118 117

g vertex 0
p 1

g vertex 1
p 43

g vertex 2
p 75

g vertex 3
p 117

# End of file
