22700 0 2 4           
16 Autodesk Neutron 20 ASM 227.1.1.65535 NT 24 Thu Aug 26 00:06:20 2021 
10 9.999999999999999547e-07 1.000000000000000036e-10 
asmheader $-1 -1 @13 227.1.1.65535 #
body $2 0 $-1 $3 $-1 $4 #
ATTRIB_CUSTOM-attrib $-1 -1 $5 $-1 $1 @20 Timestamp_attrib_def 1 1406915265000 #
lump $-1 -1 $-1 $-1 $6 $1 #
transform $-1 -1 1 0 0 0 1 0 0 0 1 0 0 0 1 no_rotate no_reflect no_shear #
ATTRIB_CUSTOM-attrib $-1 -1 $7 $2 $1 @22 generic_tag_attrib_def 3 3 -1 @23 generic_tag_attrib_def  4 3 @3 302 1 0 0 3 @3 426 1 0 0 3 @3 606 1 0 0 3 @3 736 1 0 0 #
shell $-1 -1 $-1 $-1 $-1 $8 $-1 $3 #
DXID-attrib $-1 -1 $-1 $5 $1 @7 PS-Body @4 1153 #
face $9 62 $-1 $10 $11 $6 $-1 $12 forward single #
ATTRIB_CUSTOM-attrib $-1 -1 $13 $-1 $8 @22 generic_tag_attrib_def 3 3 -1 @23 generic_tag_attrib_def  1 3 @3 245 0 4 302 426 606 736 0 #
face $14 63 $-1 $15 $16 $6 $-1 $17 forward single #
loop $18 -1 $-1 $19 $20 $8 #
cone-surface $-1 -1 $-1 -270.7261114304120611 41.80892471701489654 -2.29999995231628418 0 0 -1 0.9649999999999749889 0 0 1 I I 0 1 0.9649999999999749889 forward I I I I #
DXID-attrib $-1 -1 $-1 $9 $8 @7 PS-Face @4 7957 #
ATTRIB_CUSTOM-attrib $-1 -1 $21 $-1 $10 @22 generic_tag_attrib_def 3 3 -1 @23 generic_tag_attrib_def  1 3 @3 244 21078 4 302 426 606 736 0 #
face $22 64 $-1 $23 $24 $6 $-1 $25 reversed single #
loop $26 -1 $-1 $27 $28 $10 #
plane-surface $-1 -1 $-1 -266.0179958980482979 53.03833502915536258 -0.7749999999999999112 0 0 1 1 0 0 forward_v I I I I #
DXID-attrib $-1 -1 $-1 $-1 $11 @7 PS-Loop @4 8204 #
loop $29 -1 $-1 $-1 $30 $8 #
coedge $-1 -1 $-1 $20 $20 $31 $32 reversed $11 0 $-1 #
DXID-attrib $-1 -1 $-1 $14 $10 @7 PS-Face @4 7946 #
ATTRIB_CUSTOM-attrib $-1 -1 $33 $-1 $15 @22 generic_tag_attrib_def 3 3 -1 @23 generic_tag_attrib_def  1 3 @3 250 0 4 302 426 606 736 0 #
face $34 65 $-1 $35 $36 $6 $-1 $37 forward single #
loop $38 -1 $-1 $39 $40 $15 #
cone-surface $-1 -1 $-1 -270.7261114304120611 41.80892471701489654 -1.759999999999999787 -0 -0 -1 -0.6874999999999921174 0 0 1 I I 0 1 0.6874999999999921174 forward I I I I #
DXID-attrib $-1 -1 $-1 $-1 $16 @7 PS-Loop @4 8289 #
loop $41 -1 $-1 $-1 $42 $10 #
coedge $-1 -1 $-1 $28 $28 $43 $44 reversed $16 0 $-1 #
DXID-attrib $-1 -1 $-1 $-1 $19 @7 PS-Loop @4 7960 #
coedge $-1 -1 $-1 $30 $30 $42 $45 forward $19 0 $-1 #
coedge $-1 -1 $-1 $31 $31 $20 $32 forward $46 0 $-1 #
edge $47 56 $-1 $48 0 $48 6.283185307179586232 $31 $49 forward @7 unknown #
DXID-attrib $-1 -1 $-1 $22 $15 @7 PS-Face @4 8250 #
ATTRIB_CUSTOM-attrib $-1 -1 $50 $-1 $23 @22 generic_tag_attrib_def 3 3 -1 @23 generic_tag_attrib_def  1 3 @3 251 0 4 302 426 606 736 0 #
face $51 66 $-1 $52 $46 $6 $-1 $53 forward single #
loop $54 -1 $-1 $55 $56 $23 #
plane-surface $-1 -1 $-1 -270.7261114304120611 41.80892471701489654 -1.759999999999999787 0 0 -1 -1 0 0 forward_v I I I I #
DXID-attrib $-1 -1 $-1 $-1 $24 @7 PS-Loop @4 8253 #
loop $57 -1 $-1 $-1 $58 $15 #
coedge $-1 -1 $-1 $40 $40 $56 $59 reversed $24 0 $-1 #
DXID-attrib $-1 -1 $-1 $-1 $27 @7 PS-Loop @4 7948 #
coedge $-1 -1 $-1 $42 $42 $30 $45 reversed $27 0 $-1 #
coedge $-1 -1 $-1 $43 $43 $28 $44 forward $60 0 $-1 #
edge $61 58 $-1 $62 -3.141592653589793116 $62 3.141592653589793116 $28 $63 forward @7 unknown #
edge $64 57 $-1 $65 -3.141592653589793116 $65 3.141592653589793116 $42 $66 reversed @7 unknown #
loop $67 -1 $-1 $68 $31 $35 #
DXID-attrib $-1 -1 $-1 $-1 $32 @7 PS-Edge @4 8196 #
vertex $-1 50 $-1 $32 0 $69 #
ellipse-curve $-1 -1 $-1 -270.7261114304120611 41.80892471701489654 -2.299999999999999822 0 0 -1 -0.964999999999980429 0 0 1 I I #
DXID-attrib $-1 -1 $-1 $34 $23 @7 PS-Face @4 8255 #
ATTRIB_CUSTOM-attrib $-1 -1 $70 $-1 $35 @22 generic_tag_attrib_def 3 3 -1 @23 generic_tag_attrib_def  1 3 @3 249 0 4 302 426 606 736 0 #
face $71 67 $-1 $-1 $60 $6 $-1 $72 reversed single #
plane-surface $-1 -1 $-1 -270.7261114304120611 41.80892471701489654 -2.299999999999999822 0 0 -1 -1 0 0 forward_v I I I I #
DXID-attrib $-1 -1 $-1 $-1 $36 @7 PS-Loop @4 8257 #
loop $73 -1 $-1 $-1 $74 $23 #
coedge $-1 -1 $-1 $56 $56 $40 $59 forward $36 0 $-1 #
DXID-attrib $-1 -1 $-1 $-1 $39 @7 PS-Loop @4 8254 #
coedge $-1 -1 $-1 $58 $58 $75 $76 forward $39 0 $-1 #
edge $77 59 $-1 $78 0 $78 6.283185307179586232 $40 $79 forward @7 unknown #
loop $80 -1 $-1 $81 $43 $52 #
DXID-attrib $-1 -1 $-1 $-1 $44 @7 PS-Edge @4 8299 #
vertex $-1 52 $-1 $44 0 $82 #
ellipse-curve $-1 -1 $-1 -270.7261114304120611 41.80892471701489654 -0.7749999999999999112 0 0 1 -0.4000000000000205613 0 0 1 I I #
DXID-attrib $-1 -1 $-1 $-1 $45 @7 PS-Edge @4 7881 #
vertex $-1 51 $-1 $45 0 $83 #
ellipse-curve $-1 -1 $-1 -270.7261114304120611 41.80892471701489654 -0.7749999999999999112 0 0 1 0.9649999999999749889 0 0 1 I I #
DXID-attrib $-1 -1 $-1 $-1 $46 @7 PS-Loop @4 8208 #
loop $84 -1 $-1 $-1 $75 $35 #
point $-1 -1 $-1 -271.691111430412036 41.80892471701489654 -2.299999999999999822 #
DXID-attrib $-1 -1 $-1 $51 $35 @7 PS-Face @4 8206 #
ATTRIB_CUSTOM-attrib $-1 -1 $85 $-1 $52 @22 generic_tag_attrib_def 3 3 -1 @23 generic_tag_attrib_def  1 3 @3 252 0 4 302 426 606 736 0 #
cone-surface $-1 -1 $-1 -270.7261114304120611 41.80892471701489654 2.54000000000000048 -0 -0 -1 -0.4000000000000205613 0 0 1 I I 0 1 0.4000000000000205613 forward I I I I #
DXID-attrib $-1 -1 $-1 $-1 $55 @7 PS-Loop @4 8278 #
coedge $-1 -1 $-1 $74 $74 $86 $87 reversed $55 0 $-1 #
coedge $-1 -1 $-1 $75 $75 $58 $76 reversed $68 0 $-1 #
edge $88 60 $-1 $89 0 $89 6.283185307179586232 $75 $90 forward @7 unknown #
DXID-attrib $-1 -1 $-1 $-1 $59 @7 PS-Edge @4 8244 #
vertex $-1 53 $-1 $59 0 $91 #
ellipse-curve $-1 -1 $-1 -270.7261114304120611 41.80892471701489654 -1.759999999999999787 0 0 -1 -0.6874999999999921174 0 0 1 I I #
DXID-attrib $-1 -1 $-1 $-1 $60 @7 PS-Loop @4 8325 #
loop $92 -1 $-1 $-1 $86 $52 #
point $-1 -1 $-1 -270.3261114304120269 41.80892471701489654 -0.7749999999999999112 #
point $-1 -1 $-1 -271.691111430412036 41.80892471701489654 -0.7749999999999999112 #
DXID-attrib $-1 -1 $-1 $-1 $68 @7 PS-Loop @4 8239 #
DXID-attrib $-1 -1 $-1 $71 $52 @7 PS-Face @4 8322 #
coedge $-1 -1 $-1 $86 $86 $74 $87 forward $81 0 $-1 #
edge $93 61 $-1 $94 0 $94 6.283185307179586232 $74 $95 forward @7 unknown #
DXID-attrib $-1 -1 $-1 $-1 $76 @7 PS-Edge @4 8247 #
vertex $-1 54 $-1 $76 0 $96 #
ellipse-curve $-1 -1 $-1 -270.7261114304120611 41.80892471701489654 -2.299999999999999822 0 0 -1 -0.6874999999999921174 0 0 1 I I #
point $-1 -1 $-1 -271.4136114304120611 41.80892471701489654 -1.759999999999999787 #
DXID-attrib $-1 -1 $-1 $-1 $81 @7 PS-Loop @4 8326 #
DXID-attrib $-1 -1 $-1 $-1 $87 @7 PS-Edge @4 8304 #
vertex $-1 55 $-1 $87 0 $97 #
ellipse-curve $-1 -1 $-1 -270.7261114304120611 41.80892471701489654 -1.759999999999999787 0 0 -1 -0.4000000000000205613 0 0 1 I I #
point $-1 -1 $-1 -271.4136114304120611 41.80892471701489654 -2.299999999999999822 #
point $-1 -1 $-1 -271.1261114304120383 41.80892471701489654 -1.759999999999999787 #
End-of-ASM-data 