22700 0 2 4           
16 Autodesk Neutron 20 ASM 227.1.1.65535 NT 24 Thu Aug 26 00:06:22 2021 
10 9.999999999999999547e-07 1.000000000000000036e-10 
asmheader $-1 -1 @13 227.1.1.65535 #
body $2 2 $-1 $3 $-1 $4 #
ATTRIB_CUSTOM-attrib $-1 -1 $5 $-1 $1 @20 Timestamp_attrib_def 1 1406915265000 #
lump $-1 -1 $-1 $-1 $6 $1 #
transform $-1 -1 1 0 0 0 1 0 0 0 1 0 0 0 1 no_rotate no_reflect no_shear #
ATTRIB_CUSTOM-attrib $-1 -1 $-1 $2 $1 @22 generic_tag_attrib_def 3 3 -1 @23 generic_tag_attrib_def  4 3 @3 302 3 0 0 3 @3 426 3 0 0 3 @3 606 3 0 0 3 @3 736 3 0 0 #
shell $-1 -1 $-1 $-1 $-1 $7 $-1 $3 #
face $8 125 $-1 $9 $10 $6 $-1 $11 forward single #
ATTRIB_CUSTOM-attrib $-1 -1 $12 $-1 $7 @22 generic_tag_attrib_def 3 3 -1 @23 generic_tag_attrib_def  1 3 @3 124 0 6 302 426 -600 -602 606 736 0 #
face $13 126 $-1 $14 $15 $6 $-1 $16 reversed single #
loop $17 -1 $-1 $18 $19 $7 #
cone-surface $-1 -1 $-1 -274.4636794270986115 24.14039400408599079 -3.350000000000000977 0 0 1 1.091800766805468559 0.1340562777456638932 0 1 I I 0 1 1.100000000000014522 forward I I I I #
DXID-attrib $-1 -1 $-1 $8 $7 @7 PS-Face @4 6071 #
ATTRIB_CUSTOM-attrib $-1 -1 $20 $-1 $9 @22 generic_tag_attrib_def 3 3 -1 @23 generic_tag_attrib_def  1 3 @3 204 0 6 302 426 -600 -602 606 736 0 #
face $21 127 $-1 $22 $23 $6 $-1 $24 forward single #
loop $25 -1 $-1 $26 $27 $9 #
plane-surface $-1 -1 $-1 -273.5779756242150142 28.30730278321200899 2.437500000000000444 0 0 1 0.9925461516413220942 0.12186934340514749 0 forward_v I I I I #
DXID-attrib $-1 -1 $-1 $-1 $10 @7 PS-Loop @4 6416 #
loop $28 -1 $-1 $-1 $29 $7 #
coedge $-1 -1 $-1 $19 $19 $30 $31 reversed $10 0 $-1 #
DXID-attrib $-1 -1 $-1 $13 $9 @7 PS-Face @4 6147 #
ATTRIB_CUSTOM-attrib $-1 -1 $32 $-1 $14 @22 generic_tag_attrib_def 3 3 -1 @23 generic_tag_attrib_def  1 3 @3 122 0 6 302 426 -600 -602 606 736 0 #
face $33 128 $-1 $34 $35 $6 $-1 $36 forward single #
loop $37 -1 $-1 $-1 $38 $14 #
plane-surface $-1 -1 $-1 -273.5779756242151279 28.30730278321203741 3.350000000000000977 0 0 1 0.9925461516413220942 0.12186934340514749 0 forward_v I I I I #
DXID-attrib $-1 -1 $-1 $-1 $15 @7 PS-Loop @4 6307 #
loop $-1 -1 $-1 $-1 $39 $9 #
coedge $-1 -1 $-1 $27 $27 $40 $41 forward $15 0 $-1 #
DXID-attrib $-1 -1 $-1 $-1 $18 @7 PS-Loop @4 6416 #
coedge $-1 -1 $-1 $42 $43 $44 $45 reversed $18 0 $-1 #
coedge $-1 -1 $-1 $30 $30 $19 $31 forward $46 0 $-1 #
edge $47 9 $-1 $48 7.271502041449646646e-15 $48 6.283185307179593337 $19 $49 forward @7 unknown #
DXID-attrib $-1 -1 $-1 $21 $14 @7 PS-Face @4 6205 #
ATTRIB_CUSTOM-attrib $-1 -1 $50 $-1 $22 @22 generic_tag_attrib_def 3 3 -1 @23 generic_tag_attrib_def  1 3 @3 205 0 6 302 426 -600 -602 606 736 0 #
face $51 129 $-1 $52 $53 $6 $-1 $54 forward single #
loop $55 -1 $-1 $56 $57 $22 #
plane-surface $-1 -1 $-1 -273.5779756242150142 28.30730278321200899 -2.437500000000000444 0 0 1 0.9925461516413220942 0.12186934340514749 0 forward_v I I I I #
DXID-attrib $-1 -1 $-1 $-1 $23 @7 PS-Loop @4 5994 #
coedge $-1 -1 $-1 $58 $59 $60 $61 forward $23 0 $-1 #
coedge $-1 -1 $-1 $62 $63 $64 $65 reversed $26 0 $-1 #
coedge $-1 -1 $-1 $40 $40 $27 $41 reversed $66 0 $-1 #
edge $67 8 $-1 $68 0 $68 6.283185307179586232 $27 $69 forward @7 unknown #
coedge $-1 -1 $-1 $70 $29 $71 $72 forward $18 0 $-1 #
coedge $-1 -1 $-1 $29 $70 $73 $74 forward $18 0 $-1 #
coedge $-1 -1 $-1 $75 $76 $29 $45 forward $56 0 $-1 #
edge $77 10 $-1 $78 2.158348246128024783 $79 6.603204598883706922 $29 $80 forward @7 unknown #
loop $81 -1 $-1 $82 $30 $83 #
DXID-attrib $-1 -1 $-1 $-1 $31 @7 PS-Edge @4 6388 #
vertex $-1 76 $-1 $31 0 $84 #
ellipse-curve $-1 -1 $-1 -274.4636794270986115 24.14039400408599079 -3.500000000000001332 0 0 -1 -1.091800766805468781 -0.134056277745663921 0 1 I I #
DXID-attrib $-1 -1 $-1 $33 $22 @7 PS-Face @4 6150 #
ATTRIB_CUSTOM-attrib $-1 -1 $85 $-1 $34 @22 generic_tag_attrib_def 3 3 -1 @23 generic_tag_attrib_def  1 3 @3 126 0 6 302 426 -600 -602 606 736 0 #
face $86 130 $-1 $87 $88 $6 $-1 $89 forward single #
loop $90 -1 $-1 $91 $92 $34 #
cone-surface $-1 -1 $-1 -273.5779756242150142 28.30730278321203031 -5 0 0 1 2.06000000000000405 -1.143529715363913731e-16 0 1 I I 0 1 2.06000000000000405 forward I I I I #
DXID-attrib $-1 -1 $-1 $-1 $35 @7 PS-Loop @4 6303 #
loop $93 -1 $-1 $-1 $44 $22 #
coedge $-1 -1 $-1 $57 $57 $94 $95 reversed $35 0 $-1 #
coedge $-1 -1 $-1 $96 $38 $97 $98 forward $23 0 $-1 #
coedge $-1 -1 $-1 $38 $96 $99 $100 reversed $23 0 $-1 #
coedge $-1 -1 $-1 $101 $102 $38 $61 reversed $103 0 $-1 #
edge $104 19 $-1 $105 -0.04462256561719775416 $106 1.151462618984747888 $60 $107 forward @7 unknown #
coedge $-1 -1 $-1 $108 $39 $109 $110 reversed $26 0 $-1 #
coedge $-1 -1 $-1 $39 $108 $111 $112 reversed $26 0 $-1 #
coedge $-1 -1 $-1 $113 $114 $39 $65 forward $115 0 $-1 #
edge $116 15 $-1 $117 2.158348246128024783 $118 6.603204598883706922 $39 $119 forward @7 unknown #
loop $120 -1 $-1 $-1 $40 $121 #
DXID-attrib $-1 -1 $-1 $-1 $41 @7 PS-Edge @4 6318 #
vertex $-1 81 $-1 $41 0 $122 #
ellipse-curve $-1 -1 $-1 -274.4636794270986115 24.14039400408599079 2.4375 0 0 1 0.3970184606565492214 0.04874773736206146346 0 1 I I #
coedge $-1 -1 $-1 $43 $42 $123 $124 forward $18 0 $-1 #
coedge $-1 -1 $-1 $125 $126 $42 $72 reversed $127 0 $-1 #
edge $-1 11 $-1 $78 -0.9124999999999996447 $128 8.881784197001252323e-16 $42 $129 forward @7 unknown #
coedge $-1 -1 $-1 $130 $131 $43 $74 reversed $132 0 $-1 #
edge $-1 13 $-1 $133 -8.881784197001252323e-16 $79 0.9124999999999996447 $43 $134 forward @7 unknown #
coedge $-1 -1 $-1 $135 $44 $131 $136 forward $56 0 $-1 #
coedge $-1 -1 $-1 $44 $135 $125 $137 forward $56 0 $-1 #
DXID-attrib $-1 -1 $-1 $-1 $45 @7 PS-Edge @4 6573 #
vertex $-1 78 $-1 $45 2 $138 #
vertex $-1 77 $-1 $74 2 $139 #
ellipse-curve $-1 -1 $-1 -274.4636794270986115 24.14039400408599079 -2.437500000000000444 0 0 1 1.091800766805469669 0.134056277745664032 0 1 I I #
DXID-attrib $-1 -1 $-1 $-1 $46 @7 PS-Loop @4 6407 #
loop $140 -1 $-1 $-1 $141 $83 #
face $142 135 $-1 $143 $46 $6 $-1 $144 forward single #
point $-1 -1 $-1 -275.5554801939040885 24.00633772634033392 -3.500000000000001332 #
DXID-attrib $-1 -1 $-1 $51 $34 @7 PS-Face @4 5934 #
ATTRIB_CUSTOM-attrib $-1 -1 $145 $-1 $52 @22 generic_tag_attrib_def 3 3 -1 @23 generic_tag_attrib_def  1 3 @3 202 0 6 302 426 -600 -602 606 736 0 #
face $146 131 $-1 $147 $127 $6 $-1 $148 forward single #
loop $149 -1 $-1 $115 $150 $52 #
cone-surface $-1 -1 $-1 -274.4636794270986115 24.14039400408599079 -3.350000000000000977 0 0 1 1.091800766805468559 0.1340562777456638932 0 1 I I 0 1 1.100000000000014522 forward I I I I #
DXID-attrib $-1 -1 $-1 $-1 $53 @7 PS-Loop @4 7181 #
loop $151 -1 $-1 $152 $153 $34 #
coedge $-1 -1 $-1 $154 $155 $156 $157 reversed $53 0 $-1 #
DXID-attrib $-1 -1 $-1 $-1 $56 @7 PS-Loop @4 6152 #
coedge $-1 -1 $-1 $94 $94 $57 $95 forward $158 0 $-1 #
edge $159 14 $-1 $160 3.456436525883253603e-14 $160 6.283185307179620871 $57 $161 forward @7 unknown #
coedge $-1 -1 $-1 $59 $58 $162 $163 forward $23 0 $-1 #
coedge $-1 -1 $-1 $164 $165 $58 $98 reversed $91 0 $-1 #
edge $-1 20 $-1 $106 1.463927085687698249 $166 2.34089068365996944 $58 $167 forward @7 unknown #
coedge $-1 -1 $-1 $114 $113 $59 $100 forward $115 0 $-1 #
edge $168 22 $-1 $105 0.3200192917040214358 $169 2.158348246128015901 $99 $170 forward @7 unknown #
coedge $-1 -1 $-1 $111 $60 $113 $171 reversed $103 0 $-1 #
coedge $-1 -1 $-1 $60 $111 $164 $172 forward $103 0 $-1 #
loop $173 -1 $-1 $-1 $60 $174 #
DXID-attrib $-1 -1 $-1 $-1 $61 @7 PS-Edge @4 6593 #
vertex $-1 86 $-1 $100 2 $175 #
vertex $-1 87 $-1 $98 2 $176 #
straight-curve $-1 -1 $-1 -273.4560807209502968 24.67415703614852163 3.350000000000000977 0.3003290271266141342 1.412936983770066268 0 I I #
coedge $-1 -1 $-1 $63 $62 $153 $177 forward $26 0 $-1 #
coedge $-1 -1 $-1 $178 $179 $62 $110 forward $180 0 $-1 #
edge $181 16 $-1 $182 -0.1514626189847128879 $117 1.044622565617114418 $62 $183 forward @7 unknown #
coedge $-1 -1 $-1 $102 $101 $63 $112 forward $103 0 $-1 #
edge $184 18 $-1 $118 -0.04462256561714735004 $185 1.151462618984725905 $63 $186 forward @7 unknown #
coedge $-1 -1 $-1 $99 $64 $101 $171 forward $115 0 $-1 #
coedge $-1 -1 $-1 $64 $99 $178 $187 forward $115 0 $-1 #
loop $188 -1 $-1 $-1 $114 $52 #
DXID-attrib $-1 -1 $-1 $-1 $65 @7 PS-Edge @4 6635 #
vertex $-1 83 $-1 $65 2 $189 #
vertex $-1 82 $-1 $65 2 $190 #
ellipse-curve $-1 -1 $-1 -274.4636794270986115 24.14039400408599079 2.437500000000000444 0 0 1 1.091800766805469669 0.134056277745664032 0 1 I I #
DXID-attrib $-1 -1 $-1 $-1 $66 @7 PS-Loop @4 6335 #
face $191 139 $-1 $192 $193 $6 $-1 $194 reversed single #
point $-1 -1 $-1 -274.0666609664420434 24.1891417414480685 2.4375 #
coedge $-1 -1 $-1 $195 $196 $70 $124 reversed $197 0 $-1 #
edge $198 12 $-1 $128 0.9832444074617775476 $133 2.821573361885768794 $70 $199 forward @7 unknown #
coedge $-1 -1 $-1 $200 $71 $76 $137 reversed $127 0 $-1 #
coedge $-1 -1 $-1 $71 $200 $195 $201 forward $127 0 $-1 #
loop $202 -1 $-1 $-1 $125 $87 #
vertex $-1 79 $-1 $201 2 $203 #
straight-curve $-1 -1 $-1 -275.1804671160876978 24.97478923951926788 -3.350000000000000977 0 0 -1.000000000000000222 I I #
coedge $-1 -1 $-1 $156 $73 $196 $204 forward $132 0 $-1 #
coedge $-1 -1 $-1 $73 $156 $75 $136 reversed $132 0 $-1 #
loop $205 -1 $-1 $-1 $131 $147 #
vertex $-1 80 $-1 $204 2 $206 #
straight-curve $-1 -1 $-1 -273.4694821726699843 24.61110816287727232 -3.350000000000000977 0 0 1.000000000000000222 I I #
coedge $-1 -1 $-1 $76 $75 $155 $207 forward $56 0 $-1 #
edge $208 24 $-1 $79 -0.04462256561714735004 $209 1.151462618984725905 $131 $210 forward @7 unknown #
edge $211 26 $-1 $212 -0.1514626189847128879 $78 1.044622565617114418 $125 $213 forward @7 unknown #
point $-1 -1 $-1 -275.1804671160876978 24.97478923951925367 -2.437500000000000444 #
point $-1 -1 $-1 -273.4694821726700411 24.61110816287735759 -2.437500000000000444 #
DXID-attrib $-1 -1 $-1 $-1 $82 @7 PS-Loop @4 6408 #
coedge $-1 -1 $-1 $141 $141 $214 $215 reversed $82 0 $-1 #
ATTRIB_CUSTOM-attrib $-1 -1 $216 $-1 $83 @22 generic_tag_attrib_def 3 3 -1 @23 generic_tag_attrib_def  1 3 @3 211 0 6 302 426 -600 -602 606 736 0 #
face $217 136 $-1 $218 $219 $6 $-1 $220 forward single #
plane-surface $-1 -1 $-1 -274.4636794270986115 24.14039400408599079 -3.500000000000001332 0 0 -1 -0.9925461516413220942 -0.12186934340514749 0 forward_v I I I I #
DXID-attrib $-1 -1 $-1 $86 $52 @7 PS-Face @4 5981 #
ATTRIB_CUSTOM-attrib $-1 -1 $221 $-1 $87 @22 generic_tag_attrib_def 3 3 -1 @23 generic_tag_attrib_def  1 3 @3 125 0 6 302 426 -600 -602 606 736 0 #
face $222 132 $-1 $223 $132 $6 $-1 $224 forward single #
plane-surface $-1 -1 $-1 -274.8212480162358133 26.66478223258276614 -3.350000000000000977 -0.9781476007338161249 0.2079116908177103817 0 0 0 1.000000000000000222 forward_v I I I I #
DXID-attrib $-1 -1 $-1 $-1 $88 @7 PS-Loop @4 6074 #
coedge $-1 -1 $-1 $150 $150 $225 $226 reversed $88 0 $-1 #
DXID-attrib $-1 -1 $-1 $-1 $91 @7 PS-Loop @4 7181 #
loop $227 -1 $-1 $228 $229 $34 #
coedge $-1 -1 $-1 $165 $164 $108 $177 reversed $91 0 $-1 #
coedge $-1 -1 $-1 $230 $92 $231 $232 forward $53 0 $-1 #
coedge $-1 -1 $-1 $92 $230 $135 $207 reversed $53 0 $-1 #
coedge $-1 -1 $-1 $131 $130 $92 $157 forward $132 0 $-1 #
edge $-1 27 $-1 $233 1.649999999999999023 $209 2.562499999999999556 $156 $234 forward @7 unknown #
loop $235 -1 $-1 $236 $94 $237 #
DXID-attrib $-1 -1 $-1 $-1 $95 @7 PS-Edge @4 6319 #
vertex $-1 90 $-1 $95 0 $238 #
ellipse-curve $-1 -1 $-1 -274.4636794270986115 24.14039400408599079 -2.437500000000000444 0 0 1 0.3970184606565492214 0.04874773736206146346 0 1 I I #
coedge $-1 -1 $-1 $179 $178 $96 $163 reversed $180 0 $-1 #
edge $239 21 $-1 $166 -0.1514626189847128879 $169 1.04462256561710487 $162 $240 forward @7 unknown #
coedge $-1 -1 $-1 $153 $97 $102 $172 reversed $91 0 $-1 #
coedge $-1 -1 $-1 $97 $153 $179 $241 forward $91 0 $-1 #
vertex $-1 88 $-1 $163 2 $242 #
ellipse-curve $-1 -1 $-1 -273.5779756242150142 28.30730278321200899 3.350000000000000533 0 0 -1 2.044645072381127804 0.2510508474146042612 0 1 I I #
DXID-attrib $-1 -1 $-1 $-1 $100 @7 PS-Edge @4 6208 #
vertex $-1 89 $-1 $187 2 $243 #
ellipse-curve $-1 -1 $-1 -274.4636794270986115 24.14039400408599079 3.350000000000000977 0 0 1 1.091800766805468115 0.1340562777456638377 0 1 I I #
edge $-1 39 $-1 $118 5.787499999999999645 $105 6.700000000000001066 $113 $244 forward @7 unknown #
edge $-1 31 $-1 $185 7.4375 $106 8.350000000000001421 $102 $245 forward @7 unknown #
DXID-attrib $-1 -1 $-1 $-1 $103 @7 PS-Loop @4 6090 #
face $246 146 $-1 $247 $103 $6 $-1 $248 forward single #
point $-1 -1 $-1 -273.4694821726699843 24.61110816287727232 3.350000000000000977 #
point $-1 -1 $-1 -273.1102630728178156 26.30110115594078479 3.350000000000000533 #
edge $-1 17 $-1 $182 -2.34089068365996944 $185 -1.463927085687698249 $108 $249 forward @7 unknown #
coedge $-1 -1 $-1 $162 $109 $114 $187 reversed $180 0 $-1 #
coedge $-1 -1 $-1 $109 $162 $165 $241 reversed $180 0 $-1 #
loop $250 -1 $-1 $-1 $162 $247 #
DXID-attrib $-1 -1 $-1 $-1 $110 @7 PS-Edge @4 6610 #
vertex $-1 84 $-1 $177 2 $251 #
straight-curve $-1 -1 $-1 -274.8667366372415586 26.45077509656070447 2.437500000000000444 -0.3003290271265283695 -1.412936983770298971 0 I I #
DXID-attrib $-1 -1 $-1 $-1 $112 @7 PS-Edge @4 6626 #
vertex $-1 85 $-1 $177 2 $252 #
straight-curve $-1 -1 $-1 -273.4560807209502968 24.67415703614852163 2.437500000000000444 0.3003290271266106926 1.41293698377009469 0 I I #
edge $-1 38 $-1 $169 -6.700000000000001066 $117 -5.787500000000000533 $114 $253 forward @7 unknown #
DXID-attrib $-1 -1 $-1 $-1 $115 @7 PS-Loop @4 6074 #
point $-1 -1 $-1 -275.1804671160876978 24.97478923951925367 2.437500000000000444 #
point $-1 -1 $-1 -273.4694821726700411 24.61110816287735759 2.437499999999999556 #
ATTRIB_CUSTOM-attrib $-1 -1 $254 $-1 $121 @22 generic_tag_attrib_def 3 3 -1 @23 generic_tag_attrib_def  1 3 @3 209 0 6 302 426 -600 -602 606 736 0 #
face $255 140 $-1 $256 $257 $6 $-1 $258 reversed single #
loop $259 -1 $-1 $66 $260 $121 #
cone-surface $-1 -1 $-1 -274.4636794270986115 24.14039400408599079 -5.000000000000000888 0 0 1 0.3970184606565492214 0.04874773736206146346 0 1 I I 0 1 0.4000000000000205613 forward I I I I #
coedge $-1 -1 $-1 $231 $123 $126 $201 reversed $197 0 $-1 #
coedge $-1 -1 $-1 $123 $231 $130 $204 reversed $197 0 $-1 #
loop $261 -1 $-1 $-1 $196 $223 #
DXID-attrib $-1 -1 $-1 $-1 $124 @7 PS-Edge @4 6394 #
ellipse-curve $-1 -1 $-1 -274.4636794270986115 24.14039400408599079 -3.350000000000000977 0 0 -1 -1.091800766805468781 -0.134056277745663921 0 1 I I #
coedge $-1 -1 $-1 $126 $125 $230 $262 reversed $127 0 $-1 #
edge $263 40 $-1 $264 -0.1514626189847047 $128 1.04462256561710487 $195 $265 forward @7 unknown #
DXID-attrib $-1 -1 $-1 $-1 $127 @7 PS-Loop @4 5988 #
point $-1 -1 $-1 -275.1804671160876978 24.97478923951926788 -3.350000000000000977 #
edge $266 41 $-1 $133 -0.04462256561719712966 $233 1.1514626189847319 $196 $267 forward @7 unknown #
DXID-attrib $-1 -1 $-1 $-1 $132 @7 PS-Loop @4 5980 #
point $-1 -1 $-1 -273.4694821726699843 24.61110816287727232 -3.350000000000000977 #
edge $-1 25 $-1 $209 1.463927085687698249 $212 2.34089068365996944 $135 $268 forward @7 unknown #
DXID-attrib $-1 -1 $-1 $-1 $136 @7 PS-Edge @4 6554 #
vertex $-1 91 $-1 $157 2 $269 #
straight-curve $-1 -1 $-1 -273.4560807209502968 24.67415703614852163 -2.437500000000000444 0.3003290271266106926 1.41293698377009469 0 I I #
DXID-attrib $-1 -1 $-1 $-1 $137 @7 PS-Edge @4 6515 #
vertex $-1 92 $-1 $137 2 $270 #
straight-curve $-1 -1 $-1 -274.8667366372415586 26.45077509656070447 -2.437500000000000444 -0.3003290271265283695 -1.412936983770298971 0 I I #
coedge $-1 -1 $-1 $214 $214 $141 $215 forward $236 0 $-1 #
edge $271 44 $-1 $272 0 $272 6.283185307179586232 $214 $273 forward @7 unknown #
DXID-attrib $-1 -1 $-1 $142 $83 @7 PS-Face @4 6405 #
ATTRIB_CUSTOM-attrib $-1 -1 $274 $-1 $143 @22 generic_tag_attrib_def 3 3 -1 @23 generic_tag_attrib_def  1 3 @3 208 0 6 302 426 -600 -602 606 736 0 #
face $275 137 $-1 $237 $276 $6 $-1 $277 forward single #
loop $278 -1 $-1 $279 $280 $143 #
plane-surface $-1 -1 $-1 -274.4636794270986115 24.14039400408599079 2.98000000000000087 0 0 1 0.9925461516413220942 0.12186934340514749 0 forward_v I I I I #
DXID-attrib $-1 -1 $-1 $146 $87 @7 PS-Face @4 6055 #
ATTRIB_CUSTOM-attrib $-1 -1 $281 $-1 $147 @22 generic_tag_attrib_def 3 3 -1 @23 generic_tag_attrib_def  1 3 @3 123 0 6 302 426 -600 -602 606 736 0 #
face $282 133 $-1 $283 $197 $6 $-1 $284 reversed single #
plane-surface $-1 -1 $-1 -273.1102630728179292 26.30110115594072795 -3.350000000000000977 0.9781476007338010259 -0.2079116908177814915 0 0 0 -1.000000000000000222 forward_v I I I I #
coedge $-1 -1 $-1 $225 $225 $150 $226 forward $276 0 $-1 #
edge $285 37 $-1 $286 -7.156809580227676012e-15 $286 6.283185307179579127 $150 $287 forward @7 unknown #
DXID-attrib $-1 -1 $-1 $-1 $152 @7 PS-Loop @4 7181 #
loop $288 -1 $-1 $-1 $289 $34 #
coedge $-1 -1 $-1 $290 $291 $292 $293 forward $152 0 $-1 #
coedge $-1 -1 $-1 $155 $154 $200 $262 forward $53 0 $-1 #
coedge $-1 -1 $-1 $196 $195 $154 $232 reversed $197 0 $-1 #
edge $-1 28 $-1 $233 1.463927085687698249 $264 2.340890683659992977 $154 $294 forward @7 unknown #
vertex $-1 93 $-1 $232 2 $295 #
straight-curve $-1 -1 $-1 -273.1102630728178156 26.30110115594078479 -5.000000000000000888 0 0 1.000000000000000222 I I #
DXID-attrib $-1 -1 $-1 $-1 $158 @7 PS-Loop @4 6329 #
loop $296 -1 $-1 $-1 $214 $237 #
face $297 138 $-1 $121 $158 $6 $-1 $298 reversed single #
point $-1 -1 $-1 -274.0666609664420434 24.1891417414480685 -2.437500000000000444 #
DXID-attrib $-1 -1 $-1 $-1 $163 @7 PS-Edge @4 6587 #
straight-curve $-1 -1 $-1 -274.8667366372415586 26.45077509656070447 3.350000000000000977 -0.3003290271265283695 -1.412936983770298971 0 I I #
edge $-1 30 $-1 $182 7.4375 $166 8.350000000000001421 $165 $299 forward @7 unknown #
point $-1 -1 $-1 -274.8212480162358133 26.66478223258290825 3.350000000000000533 #
point $-1 -1 $-1 -275.1804671160876978 24.97478923951926788 3.350000000000000977 #
straight-curve $-1 -1 $-1 -273.4694821726699843 24.61110816287727232 -3.350000000000000977 0 0 1.000000000000000222 I I #
straight-curve $-1 -1 $-1 -273.1102630728178156 26.30110115594078479 -5.000000000000000888 0 0 1.000000000000000222 I I #
ATTRIB_CUSTOM-attrib $-1 -1 $300 $-1 $174 @22 generic_tag_attrib_def 3 3 -1 @23 generic_tag_attrib_def  1 3 @3 201 0 6 302 426 -600 -602 606 736 0 #
face $301 147 $-1 $302 $180 $6 $-1 $303 forward single #
plane-surface $-1 -1 $-1 -273.1102630728179292 26.30110115594072795 -3.350000000000000977 0.9781476007338010259 -0.2079116908177814915 0 0 0 -1.000000000000000222 forward_v I I I I #
ellipse-curve $-1 -1 $-1 -273.5779756242150142 28.30730278321200899 2.437500000000000444 0 0 1 2.044645072381127804 0.2510508474146042612 0 1 I I #
DXID-attrib $-1 -1 $-1 $-1 $180 @7 PS-Loop @4 6058 #
point $-1 -1 $-1 -274.8212480162358133 26.66478223258290825 2.437500000000000444 #
point $-1 -1 $-1 -273.1102630728178156 26.30110115594078479 2.437500000000000444 #
straight-curve $-1 -1 $-1 -275.1804671160876978 24.97478923951926788 -3.350000000000000977 0 0 -1.000000000000000222 I I #
DXID-attrib $-1 -1 $-1 $191 $121 @7 PS-Face @4 6331 #
ATTRIB_CUSTOM-attrib $-1 -1 $304 $-1 $192 @22 generic_tag_attrib_def 3 3 -1 @23 generic_tag_attrib_def  1 3 @3 228 0 6 302 426 -600 -602 606 736 0 #
face $305 141 $-1 $306 $307 $6 $-1 $308 forward single #
loop $309 -1 $-1 $310 $311 $192 #
cone-surface $-1 -1 $-1 -276.5742980569115161 28.1588040312999901 -4.300000000000000711 0 0 -1 -0.2500000000000128786 1.387778780781517474e-17 0 1 I I 0 1 0.2500000000000128786 forward I I I I #
DXID-attrib $-1 -1 $-1 $-1 $193 @7 PS-Loop @4 6334 #
coedge $-1 -1 $-1 $260 $260 $312 $313 forward $193 0 $-1 #
DXID-attrib $-1 -1 $-1 $-1 $197 @7 PS-Loop @4 6383 #
edge $-1 29 $-1 $264 1.649999999999999023 $212 2.562499999999999556 $230 $314 forward @7 unknown #
DXID-attrib $-1 -1 $-1 $-1 $201 @7 PS-Edge @4 6524 #
vertex $-1 94 $-1 $232 2 $315 #
straight-curve $-1 -1 $-1 -274.8667366372415586 26.45077509656070447 -3.350000000000000977 -0.3003290271265283695 -1.412936983770298971 0 I I #
DXID-attrib $-1 -1 $-1 $-1 $204 @7 PS-Edge @4 6540 #
straight-curve $-1 -1 $-1 -273.4560807209502968 24.67415703614852163 -3.350000000000000977 0.3003290271266115252 1.412936983770087362 0 I I #
ellipse-curve $-1 -1 $-1 -273.5779756242150142 28.30730278321200899 -2.437500000000000444 0 0 -1 2.044645072381127804 0.2510508474146042612 0 1 I I #
point $-1 -1 $-1 -273.1102630728178156 26.30110115594078479 -2.437500000000000444 #
point $-1 -1 $-1 -274.8212480162358133 26.66478223258290825 -2.437500000000000444 #
DXID-attrib $-1 -1 $-1 $-1 $215 @7 PS-Edge @4 6400 #
vertex $-1 103 $-1 $215 0 $316 #
ellipse-curve $-1 -1 $-1 -274.4636794270986115 24.14039400408599079 -3.500000000000001332 0 0 -1 -0.3970184606565499985 -0.04874773736206156755 0 1 I I #
DXID-attrib $-1 -1 $-1 $217 $143 @7 PS-Face @4 6272 #
ATTRIB_CUSTOM-attrib $-1 -1 $317 $-1 $218 @22 generic_tag_attrib_def 3 3 -1 @23 generic_tag_attrib_def  1 3 @3 206 0 6 302 426 -600 -602 606 736 0 #
loop $318 -1 $-1 $319 $225 $218 #
plane-surface $-1 -1 $-1 -274.4636794270986115 24.14039400408599079 3.500000000000001332 0 0 1 0.9925461516413220942 0.12186934340514749 0 forward_v I I I I #
DXID-attrib $-1 -1 $-1 $-1 $219 @7 PS-Loop @4 6274 #
loop $320 -1 $-1 $-1 $312 $143 #
coedge $-1 -1 $-1 $280 $280 $321 $322 forward $219 0 $-1 #
DXID-attrib $-1 -1 $-1 $222 $147 @7 PS-Face @4 6087 #
ATTRIB_CUSTOM-attrib $-1 -1 $323 $-1 $223 @22 generic_tag_attrib_def 3 3 -1 @23 generic_tag_attrib_def  1 3 @3 121 0 6 302 426 -600 -602 606 736 0 #
face $324 134 $-1 $83 $325 $6 $-1 $326 reversed single #
plane-surface $-1 -1 $-1 -273.5779756242151279 28.30730278321203741 -3.350000000000000977 0 0 1 0.9925461516413220942 0.12186934340514749 0 forward_v I I I I #
DXID-attrib $-1 -1 $-1 $-1 $226 @7 PS-Edge @4 6214 #
vertex $-1 100 $-1 $226 0 $327 #
ellipse-curve $-1 -1 $-1 -274.4636794270986115 24.14039400408599079 3.500000000000001332 0 0 1 1.091800766805468115 0.1340562777456638377 0 1 I I #
DXID-attrib $-1 -1 $-1 $-1 $228 @7 PS-Loop @4 7181 #
coedge $-1 -1 $-1 $289 $289 $328 $329 reversed $228 0 $-1 #
coedge $-1 -1 $-1 $330 $229 $331 $332 reversed $152 0 $-1 #
coedge $-1 -1 $-1 $229 $330 $333 $334 forward $152 0 $-1 #
coedge $-1 -1 $-1 $335 $336 $229 $293 reversed $337 0 $-1 #
edge $338 32 $-1 $339 3.48665838528213623 $340 9.17875186976493751 $229 $341 forward @7 unknown #
ellipse-curve $-1 -1 $-1 -273.5779756242150142 28.30730278321200899 -3.350000000000000977 0 0 -1 2.044645072381127804 0.2510508474146042612 0 1 I I #
point $-1 -1 $-1 -273.1102630728178156 26.30110115594078479 -3.350000000000000977 #
DXID-attrib $-1 -1 $-1 $-1 $236 @7 PS-Loop @4 6421 #
ATTRIB_CUSTOM-attrib $-1 -1 $342 $-1 $237 @22 generic_tag_attrib_def 3 3 -1 @23 generic_tag_attrib_def  1 3 @3 210 0 6 302 426 -600 -602 606 736 0 #
cone-surface $-1 -1 $-1 -274.4636794270986115 24.14039400408599079 -5.000000000000000888 0 0 1 0.3970184606565492214 0.04874773736206146346 0 1 I I 0 1 0.4000000000000205613 forward I I I I #
straight-curve $-1 -1 $-1 -274.8212480162358133 26.66478223258290825 -5.000000000000000888 0 0 1.000000000000000222 I I #
DXID-attrib $-1 -1 $-1 $246 $174 @7 PS-Face @4 5977 #
ATTRIB_CUSTOM-attrib $-1 -1 $343 $-1 $247 @22 generic_tag_attrib_def 3 3 -1 @23 generic_tag_attrib_def  1 3 @3 203 0 6 302 426 -600 -602 606 736 0 #
face $344 148 $-1 $345 $346 $6 $-1 $347 reversed single #
plane-surface $-1 -1 $-1 -274.8212480162358133 26.66478223258276614 -3.350000000000000977 -0.9781476007338161249 0.2079116908177103817 0 0 0 1.000000000000000222 forward_v I I I I #
DXID-attrib $-1 -1 $-1 $255 $192 @7 PS-Face @4 7253 #
ATTRIB_CUSTOM-attrib $-1 -1 $348 $-1 $256 @22 generic_tag_attrib_def 3 3 -1 @23 generic_tag_attrib_def  1 3 @3 225 0 6 302 426 -600 -602 606 736 0 #
face $349 142 $-1 $350 $351 $6 $-1 $352 forward single #
loop $353 -1 $-1 $-1 $354 $256 #
cone-surface $-1 -1 $-1 -276.5742980569115161 28.1588040312999901 -4.300000000000000711 0 0 -1 -0.5999999999999872102 3.33066907387539924e-17 0 1 I I 0 1 0.5999999999999872102 forward I I I I #
DXID-attrib $-1 -1 $-1 $-1 $257 @7 PS-Loop @4 7256 #
loop $355 -1 $-1 $-1 $356 $192 #
coedge $-1 -1 $-1 $311 $311 $357 $358 reversed $257 0 $-1 #
coedge $-1 -1 $-1 $312 $312 $260 $313 reversed $279 0 $-1 #
edge $359 23 $-1 $360 3.456436525883253603e-14 $360 6.283185307179620871 $312 $361 forward @7 unknown #
straight-curve $-1 -1 $-1 -274.8212480162358133 26.66478223258290825 -5.000000000000000888 0 0 1.000000000000000222 I I #
point $-1 -1 $-1 -274.8212480162358702 26.66478223258290825 -3.350000000000000977 #
point $-1 -1 $-1 -274.8606978877551228 24.09164626672394149 -3.500000000000001332 #
DXID-attrib $-1 -1 $-1 $275 $218 @7 PS-Face @4 6224 #
DXID-attrib $-1 -1 $-1 $-1 $276 @7 PS-Loop @4 6226 #
loop $362 -1 $-1 $-1 $363 $218 #
DXID-attrib $-1 -1 $-1 $-1 $279 @7 PS-Loop @4 6297 #
coedge $-1 -1 $-1 $321 $321 $280 $322 reversed $325 0 $-1 #
edge $364 42 $-1 $365 -1.356374096445899013e-14 $365 6.283185307179572909 $321 $366 forward @7 unknown #
DXID-attrib $-1 -1 $-1 $282 $223 @7 PS-Face @4 6385 #
ATTRIB_CUSTOM-attrib $-1 -1 $367 $-1 $283 @22 generic_tag_attrib_def 3 3 -1 @23 generic_tag_attrib_def  1 3 @3 207 0 6 302 426 -600 -602 606 736 0 #
loop $368 -1 $-1 $369 $321 $283 #
cone-surface $-1 -1 $-1 -274.4636794270986115 24.14039400408599079 2.98000000000000087 0 0 1 0.7295214214563936483 0.08957396740278603109 0 1 I I 0 1 0.7350000000000220801 forward I I I I #
point $-1 -1 $-1 -273.3718786602930777 24.27445028183165476 3.500000000000001332 #
coedge $-1 -1 $-1 $328 $328 $289 $329 forward $370 0 $-1 #
edge $371 36 $-1 $372 0 $372 6.283185307179586232 $289 $373 forward @7 unknown #
coedge $-1 -1 $-1 $291 $290 $374 $375 forward $152 0 $-1 #
coedge $-1 -1 $-1 $376 $377 $290 $332 forward $378 0 $-1 #
edge $379 33 $-1 $380 0 $340 1 $290 $381 forward @7 unknown #
coedge $-1 -1 $-1 $382 $383 $291 $334 reversed $351 0 $-1 #
edge $384 35 $-1 $385 0 $339 1 $291 $386 forward @7 unknown #
coedge $-1 -1 $-1 $387 $292 $383 $388 forward $337 0 $-1 #
coedge $-1 -1 $-1 $292 $387 $376 $389 forward $337 0 $-1 #
loop $390 -1 $-1 $391 $292 $392 #
DXID-attrib $-1 -1 $-1 $-1 $293 @7 PS-Edge @4 7169 #
vertex $-1 95 $-1 $334 2 $393 #
vertex $-1 96 $-1 $332 2 $394 #
ellipse-curve $-1 -1 $-1 -273.5779756242150142 28.30730278321203031 -5 0 0 1 2.06000000000000405 -1.143529715363913731e-16 0 1 F 3.48665838528213623 F 9.17875186976493751 #
DXID-attrib $-1 -1 $-1 $297 $237 @7 PS-Face @4 6326 #
DXID-attrib $-1 -1 $-1 $301 $247 @7 PS-Face @4 5985 #
ATTRIB_CUSTOM-attrib $-1 -1 $395 $-1 $302 @22 generic_tag_attrib_def 3 3 -1 @23 generic_tag_attrib_def  1 3 @3 199 0 6 302 426 -600 -602 606 736 0 #
face $396 149 $-1 $-1 $370 $6 $-1 $397 forward single #
loop $398 -1 $-1 $399 $400 $302 #
cone-surface $-1 -1 $-1 -273.5779756242150142 28.30730278321203031 -5.599999999999997868 0 0 1 1.700000000000000844 -9.436895709313837743e-17 0 1 I I 0 1 1.700000000000000844 forward I I I I #
DXID-attrib $-1 -1 $-1 $305 $256 @7 PS-Face @4 7237 #
ATTRIB_CUSTOM-attrib $-1 -1 $401 $-1 $306 @22 generic_tag_attrib_def 3 3 -1 @23 generic_tag_attrib_def  1 3 @3 226 0 6 302 426 -600 -602 606 736 0 #
face $402 143 $-1 $403 $404 $6 $-1 $405 reversed single #
loop $406 -1 $-1 $-1 $383 $306 #
plane-surface $-1 -1 $-1 -275.5165452581020986 27.61049020111358132 -4.300000000000000711 0.04949958397067757976 -0.9987741442321831364 0 0 0 -1 forward_v I I I I #
DXID-attrib $-1 -1 $-1 $-1 $307 @7 PS-Loop @4 7240 #
coedge $-1 -1 $-1 $407 $408 $387 $409 reversed $307 0 $-1 #
DXID-attrib $-1 -1 $-1 $-1 $310 @7 PS-Loop @4 7257 #
coedge $-1 -1 $-1 $356 $356 $410 $411 forward $310 0 $-1 #
coedge $-1 -1 $-1 $357 $357 $311 $358 forward $412 0 $-1 #
edge $413 113 $-1 $414 0 $414 6.283185307179586232 $357 $415 forward @7 unknown #
DXID-attrib $-1 -1 $-1 $-1 $313 @7 PS-Edge @4 6323 #
vertex $-1 104 $-1 $313 0 $416 #
ellipse-curve $-1 -1 $-1 -274.4636794270986115 24.14039400408599079 2.98000000000000087 0 0 1 0.3970184606565492214 0.04874773736206146346 0 1 I I #
DXID-attrib $-1 -1 $-1 $-1 $319 @7 PS-Loop @4 6256 #
coedge $-1 -1 $-1 $363 $363 $417 $418 reversed $319 0 $-1 #
DXID-attrib $-1 -1 $-1 $-1 $322 @7 PS-Edge @4 6261 #
vertex $-1 101 $-1 $322 0 $419 #
ellipse-curve $-1 -1 $-1 -274.4636794270986115 24.14039400408599079 2.98000000000000087 0 0 1 0.7295214214563936483 0.08957396740278603109 0 1 I I #
DXID-attrib $-1 -1 $-1 $324 $283 @7 PS-Face @4 6267 #
DXID-attrib $-1 -1 $-1 $-1 $325 @7 PS-Loop @4 6270 #
loop $420 -1 $-1 $-1 $417 $283 #
loop $421 -1 $-1 $422 $328 $345 #
DXID-attrib $-1 -1 $-1 $-1 $329 @7 PS-Edge @4 4929 #
vertex $-1 99 $-1 $329 0 $423 #
ellipse-curve $-1 -1 $-1 -273.5779756242150142 28.30730278321203031 5 0 0 1 2.06000000000000405 -1.143529715363913731e-16 0 1 I I #
coedge $-1 -1 $-1 $424 $425 $330 $375 reversed $404 0 $-1 #
edge $426 34 $-1 $380 6.037159216175142618 $385 6.628251038871940004 $330 $427 forward @7 unknown #
coedge $-1 -1 $-1 $428 $331 $336 $389 reversed $378 0 $-1 #
coedge $-1 -1 $-1 $331 $428 $424 $429 forward $378 0 $-1 #
loop $430 -1 $-1 $-1 $376 $403 #
DXID-attrib $-1 -1 $-1 $-1 $332 @7 PS-Edge @4 7194 #
vertex $-1 97 $-1 $332 2 $431 #
straight-curve $-1 -1 $-1 -275.5759447588669104 28.80901917419217639 -4.300000000000000711 0 0 -0.6999999999999992895 F 0 F 1 #
coedge $-1 -1 $-1 $432 $333 $425 $433 forward $351 0 $-1 #
coedge $-1 -1 $-1 $333 $432 $335 $388 reversed $351 0 $-1 #
DXID-attrib $-1 -1 $-1 $-1 $334 @7 PS-Edge @4 7190 #
vertex $-1 98 $-1 $375 2 $434 #
straight-curve $-1 -1 $-1 -275.5165452581020986 27.61049020111358132 -4.300000000000000711 0 0 -0.6999999999999992895 F 0 F 1 #
coedge $-1 -1 $-1 $336 $335 $354 $409 forward $337 0 $-1 #
edge $435 119 $-1 $339 0 $436 1.000000000000000444 $335 $437 forward @7 unknown #
edge $438 122 $-1 $439 0 $340 1.000000000000000222 $336 $440 forward @7 unknown #
DXID-attrib $-1 -1 $-1 $-1 $337 @7 PS-Loop @4 4946 #
loop $441 -1 $-1 $442 $410 $392 #
face $443 145 $-1 $174 $337 $6 $-1 $444 reversed single #
point $-1 -1 $-1 -275.5165452581020986 27.61049020111358132 -5 #
point $-1 -1 $-1 -275.5759447588669104 28.80901917419217639 -5 #
DXID-attrib $-1 -1 $-1 $344 $302 @7 PS-Face @4 5834 #
ATTRIB_CUSTOM-attrib $-1 -1 $445 $-1 $345 @22 generic_tag_attrib_def 3 3 -1 @23 generic_tag_attrib_def  1 3 @3 179 0 6 302 426 -600 -602 606 736 0 #
plane-surface $-1 -1 $-1 -273.5779756242150142 28.30730278321203031 5 0 0 1 1 -5.551115123125783935e-17 0 forward_v I I I I #
DXID-attrib $-1 -1 $-1 $-1 $346 @7 PS-Loop @4 5837 #
loop $446 -1 $-1 $-1 $447 $302 #
coedge $-1 -1 $-1 $400 $400 $448 $449 forward $346 0 $-1 #
DXID-attrib $-1 -1 $-1 $349 $306 @7 PS-Face @4 7241 #
ATTRIB_CUSTOM-attrib $-1 -1 $450 $-1 $350 @22 generic_tag_attrib_def 3 3 -1 @23 generic_tag_attrib_def  1 3 @3 227 0 6 302 426 -600 -602 606 736 0 #
face $451 144 $-1 $392 $378 $6 $-1 $452 forward single #
loop $453 -1 $-1 $412 $374 $350 #
plane-surface $-1 -1 $-1 -273.5779756242150142 28.30730278321203031 -4.300000000000000711 0 0 -1 -1 5.551115123125783935e-17 0 forward_v I I I I #
DXID-attrib $-1 -1 $-1 $-1 $351 @7 PS-Loop @4 7244 #
coedge $-1 -1 $-1 $454 $354 $432 $455 reversed $307 0 $-1 #
coedge $-1 -1 $-1 $354 $454 $428 $456 forward $307 0 $-1 #
edge $457 115 $-1 $436 4.662869160040743033 $439 7.804461813630536149 $387 $458 forward @7 unknown #
coedge $-1 -1 $-1 $410 $410 $356 $411 reversed $391 0 $-1 #
edge $459 114 $-1 $460 0 $460 6.283185307179586232 $410 $461 forward @7 unknown #
loop $462 -1 $-1 $-1 $357 $350 #
DXID-attrib $-1 -1 $-1 $-1 $358 @7 PS-Edge @4 7203 #
vertex $-1 105 $-1 $358 0 $463 #
ellipse-curve $-1 -1 $-1 -276.5742980569115161 28.1588040312999901 -4.300000000000000711 0 0 -1 -0.2500000000000128786 1.387778780781517474e-17 0 1 I I #
point $-1 -1 $-1 -274.0666609664420434 24.1891417414480685 2.98000000000000087 #
coedge $-1 -1 $-1 $417 $417 $363 $418 forward $369 0 $-1 #
edge $464 43 $-1 $465 -1.356374096445899013e-14 $465 6.283185307179572909 $363 $466 forward @7 unknown #
point $-1 -1 $-1 -273.7341580056421435 24.2299679714887759 2.98000000000000087 #
DXID-attrib $-1 -1 $-1 $-1 $369 @7 PS-Loop @4 6271 #
DXID-attrib $-1 -1 $-1 $-1 $370 @7 PS-Loop @4 4949 #
loop $467 -1 $-1 $-1 $448 $345 #
point $-1 -1 $-1 -271.517975624215012 28.30730278321203031 5 #
coedge $-1 -1 $-1 $468 $374 $377 $429 reversed $404 0 $-1 #
coedge $-1 -1 $-1 $374 $468 $382 $433 reversed $404 0 $-1 #
DXID-attrib $-1 -1 $-1 $-1 $375 @7 PS-Edge @4 7187 #
ellipse-curve $-1 -1 $-1 -273.5779756242150142 28.30730278321203031 -4.300000000000000711 0 0 1 -2.059999999999987175 1.143529715363904364e-16 0 1 F 6.037159216175142618 F 6.628251038871940004 #
coedge $-1 -1 $-1 $377 $376 $408 $456 reversed $378 0 $-1 #
edge $469 121 $-1 $470 0 $380 1.000000000000000888 $377 $471 forward @7 unknown #
DXID-attrib $-1 -1 $-1 $-1 $378 @7 PS-Loop @4 7236 #
point $-1 -1 $-1 -275.5759447588669104 28.80901917419218705 -4.300000000000000711 #
coedge $-1 -1 $-1 $383 $382 $407 $455 forward $351 0 $-1 #
edge $472 120 $-1 $385 5.125482765048913428e-16 $473 1.000000000000000444 $382 $474 forward @7 unknown #
point $-1 -1 $-1 -275.5165452581020986 27.61049020111357066 -4.300000000000000711 #
DXID-attrib $-1 -1 $-1 $-1 $388 @7 PS-Edge @4 7209 #
vertex $-1 108 $-1 $388 1 $475 #
straight-curve $-1 -1 $-1 -275.5165452581020986 27.61049020111358132 -5 -1.028053048427011618 -0.0509506563528851486 0 F 0 F 1.000000000000000444 #
DXID-attrib $-1 -1 $-1 $-1 $389 @7 PS-Edge @4 7215 #
vertex $-1 107 $-1 $409 1 $476 #
straight-curve $-1 -1 $-1 -276.6039978072939221 28.75806851783928764 -5 1.028053048427011618 0.05095065635288870132 0 F 0 F 1.000000000000000222 #
DXID-attrib $-1 -1 $-1 $-1 $391 @7 PS-Loop @4 7251 #
loop $477 -1 $-1 $-1 $478 $392 #
ATTRIB_CUSTOM-attrib $-1 -1 $479 $-1 $392 @22 generic_tag_attrib_def 3 3 -1 @23 generic_tag_attrib_def  1 3 @3 178 0 6 302 426 -600 -602 606 736 0 #
plane-surface $-1 -1 $-1 -273.5779756242150142 28.30730278321203031 -5 0 0 1 1 -5.551115123125783935e-17 0 forward_v I I I I #
DXID-attrib $-1 -1 $-1 $396 $345 @7 PS-Face @4 4947 #
DXID-attrib $-1 -1 $-1 $-1 $399 @7 PS-Loop @4 5838 #
coedge $-1 -1 $-1 $447 $447 $478 $480 reversed $399 0 $-1 #
coedge $-1 -1 $-1 $448 $448 $400 $449 reversed $422 0 $-1 #
edge $481 124 $-1 $482 0 $482 6.283185307179586232 $448 $483 forward @7 unknown #
DXID-attrib $-1 -1 $-1 $402 $350 @7 PS-Face @4 7245 #
ATTRIB_CUSTOM-attrib $-1 -1 $484 $-1 $403 @22 generic_tag_attrib_def 3 3 -1 @23 generic_tag_attrib_def  1 3 @3 224 0 6 302 426 -600 -602 606 736 0 #
plane-surface $-1 -1 $-1 -275.5759447588669104 28.80901917419217639 -4.300000000000000711 -0.04949958397067757976 0.9987741442321831364 0 0 0 1 forward_v I I I I #
DXID-attrib $-1 -1 $-1 $-1 $404 @7 PS-Loop @4 7248 #
coedge $-1 -1 $-1 $408 $407 $468 $485 forward $307 0 $-1 #
edge $486 116 $-1 $473 0 $436 1 $407 $487 forward @14 tangent_not_g2 #
edge $488 118 $-1 $470 0 $439 1 $428 $489 forward @14 tangent_not_g2 #
DXID-attrib $-1 -1 $-1 $-1 $409 @7 PS-Edge @4 7212 #
ellipse-curve $-1 -1 $-1 -276.5742980569115161 28.1588040312999901 -5 0 0 -1 -0.5999999999999872102 3.33066907387539924e-17 0 1 F 4.662869160040743033 F 7.804461813630536149 #
DXID-attrib $-1 -1 $-1 $-1 $411 @7 PS-Edge @4 7218 #
vertex $-1 106 $-1 $411 0 $490 #
ellipse-curve $-1 -1 $-1 -276.5742980569115161 28.1588040312999901 -5 0 0 -1 -0.2500000000000128786 1.387778780781517474e-17 0 1 I I #
DXID-attrib $-1 -1 $-1 $-1 $412 @7 PS-Loop @4 7247 #
point $-1 -1 $-1 -276.8242980569115161 28.1588040312999901 -4.300000000000000711 #
DXID-attrib $-1 -1 $-1 $-1 $418 @7 PS-Edge @4 6264 #
vertex $-1 102 $-1 $418 0 $491 #
ellipse-curve $-1 -1 $-1 -274.4636794270986115 24.14039400408599079 3.500000000000001332 0 0 1 0.7295214214563936483 0.08957396740278603109 0 1 I I #
DXID-attrib $-1 -1 $-1 $-1 $422 @7 PS-Loop @4 5817 #
coedge $-1 -1 $-1 $425 $424 $454 $485 reversed $404 0 $-1 #
DXID-attrib $-1 -1 $-1 $-1 $429 @7 PS-Edge @4 7191 #
vertex $-1 110 $-1 $456 0 $492 #
straight-curve $-1 -1 $-1 -276.6039978072939221 28.75806851783928764 -4.300000000000000711 1.028053048427011618 0.05095065635288870132 0 F 0 F 1.000000000000000888 #
DXID-attrib $-1 -1 $-1 $-1 $433 @7 PS-Edge @4 7199 #
vertex $-1 109 $-1 $455 0 $493 #
straight-curve $-1 -1 $-1 -275.5165452581020986 27.61049020111358132 -4.300000000000000711 -1.028053048427011618 -0.0509506563528851486 0 F 5.125482765048913428e-16 F 1.000000000000000444 #
point $-1 -1 $-1 -276.5445983065291102 27.55953954476069612 -5 #
point $-1 -1 $-1 -276.6039978072939221 28.75806851783928764 -5 #
DXID-attrib $-1 -1 $-1 $-1 $442 @7 PS-Loop @4 5822 #
coedge $-1 -1 $-1 $478 $478 $447 $480 forward $442 0 $-1 #
DXID-attrib $-1 -1 $-1 $443 $392 @7 PS-Face @4 4944 #
edge $494 123 $-1 $495 0 $495 6.283185307179586232 $478 $496 forward @7 unknown #
DXID-attrib $-1 -1 $-1 $-1 $449 @7 PS-Edge @4 5831 #
vertex $-1 112 $-1 $449 0 $497 #
ellipse-curve $-1 -1 $-1 -273.5779756242150142 28.30730278321203031 5 0 0 1 1.700000000000000844 -9.436895709313837743e-17 0 1 I I #
DXID-attrib $-1 -1 $-1 $451 $403 @7 PS-Face @4 7233 #
edge $498 117 $-1 $473 4.662869160040743033 $470 7.804461813630536149 $454 $499 forward @7 unknown #
DXID-attrib $-1 -1 $-1 $-1 $455 @7 PS-Edge @4 7202 #
straight-curve $-1 -1 $-1 -276.5445983065291102 27.55953954476069612 -4.300000000000000711 0 0 -0.6999999999999992895 F 0 F 1 #
DXID-attrib $-1 -1 $-1 $-1 $456 @7 PS-Edge @4 7198 #
straight-curve $-1 -1 $-1 -276.6039978072939221 28.75806851783928764 -4.300000000000000711 0 0 -0.6999999999999992895 F 0 F 1 #
point $-1 -1 $-1 -276.8242980569115161 28.1588040312999901 -5 #
point $-1 -1 $-1 -273.7341580056421435 24.2299679714887759 3.500000000000001332 #
point $-1 -1 $-1 -276.6039978072939221 28.75806851783928764 -4.300000000000000711 #
point $-1 -1 $-1 -276.5445983065291102 27.55953954476069612 -4.300000000000000711 #
DXID-attrib $-1 -1 $-1 $-1 $480 @7 PS-Edge @4 5827 #
vertex $-1 111 $-1 $480 0 $500 #
ellipse-curve $-1 -1 $-1 -273.5779756242150142 28.30730278321203031 -5 0 0 1 1.700000000000000844 -9.436895709313837743e-17 0 1 I I #
point $-1 -1 $-1 -271.8779756242150256 28.30730278321203031 5 #
DXID-attrib $-1 -1 $-1 $-1 $485 @7 PS-Edge @4 7195 #
ellipse-curve $-1 -1 $-1 -276.5742980569115161 28.1588040312999901 -4.300000000000000711 0 0 -1 -0.5999999999999872102 3.33066907387539924e-17 0 1 F 4.662869160040743033 F 7.804461813630536149 #
point $-1 -1 $-1 -271.8779756242150256 28.30730278321203031 -5 #
End-of-ASM-data 