22700 0 2 4           
16 Autodesk Neutron 20 ASM 227.1.1.65535 NT 24 Thu Aug 26 00:06:21 2021 
10 9.999999999999999547e-07 1.000000000000000036e-10 
asmheader $-1 -1 @13 227.1.1.65535 #
body $2 1 $-1 $3 $-1 $-1 #
ATTRIB_CUSTOM-attrib $-1 -1 $4 $-1 $1 @20 Timestamp_attrib_def 1 1406915265000 #
lump $-1 -1 $-1 $-1 $5 $1 #
ATTRIB_CUSTOM-attrib $-1 -1 $-1 $2 $1 @22 generic_tag_attrib_def 3 3 -1 @23 generic_tag_attrib_def  4 3 @3 302 2 0 0 3 @3 426 2 0 0 3 @3 606 2 0 0 3 @3 736 2 0 0 #
shell $-1 -1 $-1 $-1 $-1 $6 $-1 $3 #
face $7 72 $-1 $8 $9 $5 $-1 $10 reversed single #
ATTRIB_CUSTOM-attrib $-1 -1 $11 $-1 $6 @22 generic_tag_attrib_def 3 3 -1 @23 generic_tag_attrib_def  1 3 @3 200 0 4 302 426 606 736 0 #
face $12 73 $-1 $13 $14 $5 $-1 $15 forward single #
loop $16 -1 $-1 $17 $18 $6 #
cone-surface $-1 -1 $-1 -275.1077617837190701 36.59435741336539394 -3.500000000000000444 -0 -0 1 0.8500000000000013101 0 0 1 I I 0 1 0.8500000000000013101 forward I I I I #
DXID-attrib $-1 -1 $-1 $7 $6 @7 PS-Face @4 5885 #
ATTRIB_CUSTOM-attrib $-1 -1 $19 $-1 $8 @22 generic_tag_attrib_def 3 3 -1 @23 generic_tag_attrib_def  1 3 @3 166 0 4 302 426 606 736 0 #
face $20 74 $-1 $21 $22 $5 $-1 $23 reversed single #
loop $24 -1 $-1 $25 $26 $8 #
plane-surface $-1 -1 $-1 -275.1077617837190701 36.59435741336539394 3 0 0 1 1 0 0 forward_v I I I I #
DXID-attrib $-1 -1 $-1 $-1 $9 @7 PS-Loop @4 5889 #
loop $27 -1 $-1 $-1 $28 $6 #
coedge $-1 -1 $-1 $18 $18 $29 $30 reversed $9 0 $-1 #
DXID-attrib $-1 -1 $-1 $12 $8 @7 PS-Face @4 2338 #
ATTRIB_CUSTOM-attrib $-1 -1 $31 $-1 $13 @22 generic_tag_attrib_def 3 3 -1 @23 generic_tag_attrib_def  1 3 @3 167 0 4 302 426 606 736 0 #
face $32 75 $-1 $-1 $33 $5 $-1 $34 forward single #
loop $35 -1 $-1 $36 $29 $13 #
plane-surface $-1 -1 $-1 -275.1077617837190701 36.59435741336539394 -3 0 0 1 1 0 0 forward_v I I I I #
DXID-attrib $-1 -1 $-1 $-1 $14 @7 PS-Loop @4 5873 #
loop $37 -1 $-1 $-1 $38 $8 #
coedge $-1 -1 $-1 $26 $26 $28 $39 reversed $14 0 $-1 #
DXID-attrib $-1 -1 $-1 $-1 $17 @7 PS-Loop @4 5888 #
coedge $-1 -1 $-1 $28 $28 $26 $39 forward $17 0 $-1 #
coedge $-1 -1 $-1 $29 $29 $18 $30 forward $22 0 $-1 #
edge $40 46 $-1 $41 0 $41 6.283185307179586232 $29 $42 forward @7 unknown #
DXID-attrib $-1 -1 $-1 $20 $13 @7 PS-Face @4 2335 #
ATTRIB_CUSTOM-attrib $-1 -1 $43 $-1 $21 @22 generic_tag_attrib_def 3 3 -1 @23 generic_tag_attrib_def  2 3 @3 168 0 4 302 426 606 736 0 3 @3 169 0 4 302 426 606 736 0 #
loop $44 -1 $-1 $45 $46 $21 #
cone-surface $-1 -1 $-1 -275.1077617837190701 36.59435741336539394 -3 0 0 1 1.524999999999993472 0 -0 1 I I 0 1 1.524999999999993472 forward I I I I #
DXID-attrib $-1 -1 $-1 $-1 $22 @7 PS-Loop @4 5866 #
loop $47 -1 $-1 $-1 $48 $13 #
DXID-attrib $-1 -1 $-1 $-1 $25 @7 PS-Loop @4 2340 #
coedge $-1 -1 $-1 $38 $38 $46 $49 forward $25 0 $-1 #
edge $50 47 $-1 $51 0 $51 6.283185307179586232 $26 $52 forward @7 unknown #
DXID-attrib $-1 -1 $-1 $-1 $30 @7 PS-Edge @4 5878 #
vertex $-1 68 $-1 $30 0 $53 #
ellipse-curve $-1 -1 $-1 -275.1077617837190701 36.59435741336539394 -3 0 0 1 0.8500000000000013101 0 -0 1 I I #
DXID-attrib $-1 -1 $54 $32 $21 @7 PS-Face @4 2332 #
DXID-attrib $-1 -1 $55 $-1 $33 @7 PS-Loop @4 2334 #
loop $56 -1 $-1 $-1 $57 $21 #
coedge $-1 -1 $-1 $46 $46 $38 $49 reversed $33 0 $-1 #
DXID-attrib $-1 -1 $-1 $-1 $36 @7 PS-Loop @4 2337 #
coedge $-1 -1 $-1 $48 $48 $57 $58 reversed $36 0 $-1 #
edge $59 45 $-1 $60 -0.3478822284925611186 $60 5.935303078687025113 $38 $61 forward @7 unknown #
DXID-attrib $-1 -1 $-1 $-1 $39 @7 PS-Edge @4 5882 #
vertex $-1 69 $-1 $39 0 $62 #
ellipse-curve $-1 -1 $-1 -275.1077617837190701 36.59435741336539394 3 0 0 1 0.8500000000000013101 0 -0 1 I I #
point $-1 -1 $-1 -274.2577617837190473 36.59435741336539394 -3 #
DXID-attrib $-1 -1 $-1 $43 $21 @7 PS-Face @4 2327 #
DXID-attrib $-1 -1 $63 $44 $33 @7 PS-Loop @4 2330 #
DXID-attrib $-1 -1 $64 $-1 $45 @7 PS-Loop @4 2334 #
coedge $-1 -1 $-1 $57 $57 $48 $58 forward $45 0 $-1 #
edge $65 48 $-1 $66 0 $66 6.283185307179586232 $48 $67 forward @7 unknown #
DXID-attrib $-1 -1 $-1 $-1 $49 @7 PS-Edge @4 2312 #
vertex $-1 70 $-1 $49 0 $68 #
ellipse-curve $-1 -1 $-1 -275.1077617837190701 36.59435741336539394 3 0 0 1 1.524999999999993472 0 -0 1 I I #
point $-1 -1 $-1 -274.2577617837190473 36.59435741336539394 3 #
DXID-attrib $-1 -1 $-1 $55 $33 @7 PS-Loop @4 5023 #
DXID-attrib $-1 -1 $69 $56 $45 @7 PS-Loop @4 5023 #
DXID-attrib $-1 -1 $-1 $-1 $58 @7 PS-Edge @4 2310 #
vertex $-1 71 $-1 $58 0 $70 #
ellipse-curve $-1 -1 $-1 -275.1077617837190701 36.59435741336539394 -3 0 0 1 1.524999999999993472 0 -0 1 I I #
point $-1 -1 $-1 -273.6741141866104954 36.07447322693074909 3 #
DXID-attrib $-1 -1 $-1 $64 $45 @7 PS-Loop @4 2330 #
point $-1 -1 $-1 -273.5827617837190928 36.59435741336539394 -3 #
End-of-ASM-data 