22700 0 2 4           
16 Autodesk Neutron 20 ASM 227.1.1.65535 NT 24 Thu Aug 26 00:06:23 2021 
10 9.999999999999999547e-07 1.000000000000000036e-10 
asmheader $-1 -1 @13 227.1.1.65535 #
body $2 3 $-1 $3 $-1 $-1 #
ATTRIB_CUSTOM-attrib $-1 -1 $4 $-1 $1 @20 Timestamp_attrib_def 1 1406915265000 #
lump $-1 -1 $-1 $-1 $5 $1 #
ATTRIB_CUSTOM-attrib $-1 -1 $-1 $2 $1 @22 generic_tag_attrib_def 3 3 -1 @23 generic_tag_attrib_def  4 3 @3 302 4 0 0 3 @3 426 4 0 0 3 @3 606 4 0 0 3 @3 736 4 0 0 #
shell $-1 -1 $-1 $-1 $-1 $6 $-1 $3 #
face $7 166 $-1 $8 $9 $5 $-1 $10 reversed single #
ATTRIB_CUSTOM-attrib $-1 -1 $11 $-1 $6 @22 generic_tag_attrib_def 3 3 -1 @23 generic_tag_attrib_def  1 3 @3 135 0 4 302 426 606 736 0 #
face $12 167 $-1 $13 $14 $5 $-1 $15 forward single #
loop $-1 -1 $-1 $16 $17 $6 #
plane-surface $-1 -1 $-1 -306.3543639849351621 87.15619942045226765 0 0.4067366430757974882 0.9135454576426020878 0 0 0 1 forward_v I I I I #
DXID-attrib $-1 -1 $-1 $7 $6 @7 PS-Face @3 631 #
ATTRIB_CUSTOM-attrib $-1 -1 $18 $-1 $8 @22 generic_tag_attrib_def 3 3 -1 @23 generic_tag_attrib_def  1 3 @3 134 0 4 302 426 606 736 0 #
face $19 168 $-1 $20 $21 $5 $-1 $22 forward single #
loop $23 -1 $-1 $24 $25 $8 #
cone-surface $-1 -1 $-1 -306.3543639849351621 87.15619942045226765 0 0.4067366430757975437 0.9135454576426021989 0 -2.283863644106510549 1.016841607689495941 0 1 I I 0 1 2.500000000000005773 forward I I I I #
loop $-1 -1 $-1 $-1 $26 $6 #
coedge $-1 -1 $-1 $17 $17 $27 $28 reversed $9 0 $-1 #
DXID-attrib $-1 -1 $-1 $12 $8 @7 PS-Face @3 635 #
ATTRIB_CUSTOM-attrib $-1 -1 $29 $-1 $13 @22 generic_tag_attrib_def 3 3 -1 @23 generic_tag_attrib_def  1 3 @3 133 0 4 302 426 606 736 0 #
face $30 169 $-1 $31 $32 $5 $-1 $33 forward single #
loop $-1 -1 $-1 $34 $35 $13 #
cone-surface $-1 -1 $-1 -311.3145173472445322 76.01551256450072458 0 0.4067366430757974327 0.9135454576426021989 0 -2.155967280036534373 0.9598984776588788126 0 1 I I 0 1 2.35999999999999277 forward I I I I #
DXID-attrib $-1 -1 $-1 $-1 $14 @7 PS-Loop @2 76 #
loop $-1 -1 $-1 $-1 $27 $8 #
coedge $-1 -1 $-1 $25 $25 $36 $37 reversed $14 0 $-1 #
coedge $-1 -1 $-1 $26 $26 $35 $38 reversed $16 0 $-1 #
coedge $-1 -1 $-1 $27 $27 $17 $28 forward $24 0 $-1 #
edge $39 158 $-1 $40 0 $40 6.283185307179586232 $27 $41 forward @7 unknown #
DXID-attrib $-1 -1 $-1 $19 $13 @7 PS-Face @3 643 #
ATTRIB_CUSTOM-attrib $-1 -1 $42 $-1 $20 @22 generic_tag_attrib_def 3 3 -1 @23 generic_tag_attrib_def  1 3 @3 137 0 4 302 426 606 736 0 #
face $43 170 $-1 $44 $45 $5 $-1 $46 forward single #
loop $47 -1 $-1 $48 $36 $20 #
plane-surface $-1 -1 $-1 -305.9984694222438861 87.95555169588953959 0 0.4067366430757974327 0.9135454576426021989 0 0 0 1 forward_v I I I I #
loop $49 -1 $-1 $-1 $50 $13 #
coedge $-1 -1 $-1 $35 $35 $26 $38 forward $21 0 $-1 #
coedge $-1 -1 $-1 $36 $36 $25 $37 forward $32 0 $-1 #
edge $51 160 $-1 $52 0 $52 6.283185307179586232 $25 $53 forward @7 unknown #
edge $54 159 $-1 $55 -6.283185307179586232 $55 -0 $35 $56 reversed @7 unknown #
DXID-attrib $-1 -1 $-1 $-1 $28 @7 PS-Edge @3 627 #
vertex $-1 150 $-1 $28 0 $57 #
ellipse-curve $-1 -1 $-1 -306.3543639849351621 87.15619942045226765 0 0.4067366430757974882 0.9135454576426020878 0 -2.283863644106510105 1.016841607689495941 0 1 I I #
DXID-attrib $-1 -1 $-1 $30 $20 @7 PS-Face @2 16 #
ATTRIB_CUSTOM-attrib $-1 -1 $58 $-1 $31 @22 generic_tag_attrib_def 3 3 -1 @23 generic_tag_attrib_def  1 3 @3 138 0 4 302 426 606 736 0 #
face $59 171 $-1 $60 $61 $5 $-1 $62 reversed single #
loop $63 -1 $-1 $64 $65 $31 #
cone-surface $-1 -1 $-1 -310.9586227845531425 76.81486483993802494 0 -0.4067366430757975437 -0.9135454576426021989 0 2.283863644106518542 -1.016841607689499494 0 1 I I 0 1 2.500000000000014211 forward I I I I #
DXID-attrib $-1 -1 $-1 $-1 $32 @7 PS-Loop @2 84 #
loop $66 -1 $-1 $-1 $67 $20 #
DXID-attrib $-1 -1 $-1 $-1 $34 @7 PS-Loop @3 110 #
coedge $-1 -1 $-1 $50 $50 $68 $69 forward $34 0 $-1 #
DXID-attrib $-1 -1 $-1 $-1 $37 @7 PS-Edge @2 63 #
vertex $-1 152 $-1 $37 0 $70 #
ellipse-curve $-1 -1 $-1 -305.9984694222438293 87.9555516958895538 0 0.4067366430757974882 0.9135454576426020878 0 -2.283863644106510105 1.016841607689495941 0 1 I I #
DXID-attrib $-1 -1 $-1 $-1 $38 @7 PS-Edge @2 58 #
vertex $-1 151 $-1 $38 0 $71 #
ellipse-curve $-1 -1 $-1 -306.3543639849351621 87.15619942045229607 0 0.4067366430757974882 0.9135454576426020878 0 -2.155967280036533928 0.9598984776588789236 0 1 I I #
point $-1 -1 $-1 -308.6382276290416939 88.17304102814176758 -6.123233995736779101e-16 #
DXID-attrib $-1 -1 $-1 $43 $31 @7 PS-Face @3 130 #
ATTRIB_CUSTOM-attrib $-1 -1 $72 $-1 $44 @22 generic_tag_attrib_def 3 3 -1 @23 generic_tag_attrib_def  1 3 @3 139 0 4 302 426 606 736 0 #
face $73 172 $-1 $74 $75 $5 $-1 $76 reversed single #
loop $77 -1 $-1 $78 $79 $44 #
plane-surface $-1 -1 $-1 -310.9586227845531425 76.81486483993802494 0 -0.4067366430757974882 -0.9135454576426020878 0 0 -0 -1 forward_v I I I I #
DXID-attrib $-1 -1 $-1 $-1 $45 @7 PS-Loop @3 133 #
loop $80 -1 $-1 $-1 $81 $31 #
coedge $-1 -1 $-1 $65 $65 $79 $82 forward $45 0 $-1 #
DXID-attrib $-1 -1 $-1 $-1 $48 @7 PS-Loop @3 176 #
coedge $-1 -1 $-1 $67 $67 $83 $84 reversed $48 0 $-1 #
coedge $-1 -1 $-1 $68 $68 $50 $69 reversed $78 0 $-1 #
edge $85 161 $-1 $86 -6.283185307179586232 $86 -0 $50 $87 reversed @7 unknown #
point $-1 -1 $-1 -308.2823330663503612 88.97239330357905374 0 #
point $-1 -1 $-1 -308.5103312649717395 88.11609789811117821 0 #
DXID-attrib $-1 -1 $-1 $59 $44 @7 PS-Face @3 135 #
ATTRIB_CUSTOM-attrib $-1 -1 $88 $-1 $60 @22 generic_tag_attrib_def 3 3 -1 @23 generic_tag_attrib_def  1 3 @3 140 0 4 302 426 606 736 0 #
face $89 173 $-1 $-1 $90 $5 $-1 $91 reversed single #
loop $92 -1 $-1 $93 $94 $60 #
plane-surface $-1 -1 $-1 -311.3145173472445322 76.01551256450072458 0 0.4067366430757974327 0.9135454576426021989 0 0 0 1 forward_v I I I I #
DXID-attrib $-1 -1 $-1 $-1 $61 @7 PS-Loop @3 138 #
loop $95 -1 $-1 $-1 $68 $44 #
coedge $-1 -1 $-1 $79 $79 $65 $82 reversed $61 0 $-1 #
DXID-attrib $-1 -1 $-1 $-1 $64 @7 PS-Loop @3 134 #
coedge $-1 -1 $-1 $81 $81 $94 $96 reversed $64 0 $-1 #
edge $97 163 $-1 $98 0 $98 6.283185307179586232 $65 $99 forward @7 unknown #
coedge $-1 -1 $-1 $83 $83 $67 $84 forward $90 0 $-1 #
edge $100 162 $-1 $101 0 $101 6.283185307179586232 $67 $102 forward @7 unknown #
DXID-attrib $-1 -1 $-1 $-1 $69 @7 PS-Edge @3 116 #
vertex $-1 153 $-1 $69 0 $103 #
ellipse-curve $-1 -1 $-1 -310.9586227845531994 76.81486483993805336 0 -0.4067366430757974882 -0.9135454576426020878 0 2.155967280036533928 -0.9598984776588789236 0 1 I I #
DXID-attrib $-1 -1 $-1 $73 $60 @7 PS-Face @1 1 #
ATTRIB_CUSTOM-attrib $-1 -1 $104 $-1 $74 @22 generic_tag_attrib_def 3 3 -1 @23 generic_tag_attrib_def  1 3 @3 141 0 4 302 426 606 736 0 #
loop $105 -1 $-1 $106 $83 $74 #
cone-surface $-1 -1 $-1 -311.5910982645360718 75.39430165330377065 0 0.4067366430757974882 0.9135454576426021989 -0 -2.009800006813696083 0.8948206147667416843 0 1 I I 0 1 2.199999999999968647 forward I I I I #
DXID-attrib $-1 -1 $-1 $-1 $75 @7 PS-Loop @3 142 #
loop $107 -1 $-1 $-1 $108 $60 #
coedge $-1 -1 $-1 $94 $94 $81 $96 forward $75 0 $-1 #
DXID-attrib $-1 -1 $-1 $-1 $78 @7 PS-Loop @3 137 #
edge $109 164 $-1 $110 0 $110 6.283185307179586232 $81 $111 forward @7 unknown #
DXID-attrib $-1 -1 $-1 $-1 $82 @7 PS-Edge @3 117 #
vertex $-1 155 $-1 $82 0 $112 #
ellipse-curve $-1 -1 $-1 -310.9586227845531425 76.81486483993802494 0 -0.4067366430757974882 -0.9135454576426020878 0 2.283863644106518098 -1.016841607689499272 0 1 I I #
DXID-attrib $-1 -1 $-1 $-1 $84 @7 PS-Edge @3 186 #
vertex $-1 154 $-1 $84 0 $113 #
ellipse-curve $-1 -1 $-1 -305.9984694222438293 87.9555516958895538 0 0.4067366430757974882 0.9135454576426020878 0 -2.009800006813696083 0.8948206147667416843 0 1 I I #
point $-1 -1 $-1 -308.8026555045166219 75.85496636227915701 0 #
DXID-attrib $-1 -1 $-1 $89 $74 @7 PS-Face @3 249 #
DXID-attrib $-1 -1 $-1 $-1 $90 @7 PS-Loop @3 192 #
loop $114 -1 $-1 $-1 $115 $74 #
DXID-attrib $-1 -1 $-1 $-1 $93 @7 PS-Loop @3 168 #
coedge $-1 -1 $-1 $108 $108 $115 $116 forward $93 0 $-1 #
DXID-attrib $-1 -1 $-1 $-1 $96 @7 PS-Edge @3 121 #
vertex $-1 156 $-1 $96 0 $117 #
ellipse-curve $-1 -1 $-1 -311.3145173472444753 76.01551256450073879 0 -0.4067366430757974882 -0.9135454576426020878 0 2.283863644106518098 -1.016841607689499272 0 1 I I #
point $-1 -1 $-1 -308.6747591404466107 75.79802323224852501 0 #
point $-1 -1 $-1 -308.0082694290575205 88.85037231065629726 0 #
DXID-attrib $-1 -1 $-1 $-1 $106 @7 PS-Loop @3 193 #
coedge $-1 -1 $-1 $115 $115 $108 $116 reversed $106 0 $-1 #
edge $118 165 $-1 $119 0 $119 6.283185307179586232 $108 $120 forward @7 unknown #
point $-1 -1 $-1 -309.0306537031379435 74.99867095681123885 0 #
DXID-attrib $-1 -1 $-1 $-1 $116 @7 PS-Edge @3 182 #
vertex $-1 157 $-1 $116 0 $121 #
ellipse-curve $-1 -1 $-1 -311.3145173472445322 76.01551256450071037 0 0.4067366430757974327 0.9135454576426021989 0 -2.009800006813696083 0.8948206147667416843 0 1 I I #
point $-1 -1 $-1 -313.3243173540582234 76.91033317926745383 0 #
End-of-ASM-data 