22700 0 2 4           
16 Autodesk Neutron 20 ASM 227.1.1.65535 NT 24 Thu Aug 26 00:06:23 2021 
10 9.999999999999999547e-07 1.000000000000000036e-10 
asmheader $-1 -1 @13 227.1.1.65535 #
body $2 4 $-1 $3 $-1 $4 #
ATTRIB_CUSTOM-attrib $-1 -1 $5 $-1 $1 @20 Timestamp_attrib_def 1 1406915265000 #
lump $-1 -1 $-1 $-1 $6 $1 #
transform $-1 -1 1 0 0 0 1 0 0 0 1 0 0 0 1 no_rotate no_reflect no_shear #
ATTRIB_CUSTOM-attrib $-1 -1 $7 $2 $1 @22 generic_tag_attrib_def 3 3 -1 @23 generic_tag_attrib_def  4 3 @3 302 5 0 0 3 @3 426 5 0 0 3 @3 606 5 0 0 3 @3 736 5 0 0 #
shell $-1 -1 $-1 $-1 $-1 $8 $-1 $3 #
DXID-attrib $-1 -1 $-1 $5 $1 @7 PS-Body @4 1153 #
face $9 49 $-1 $10 $11 $6 $-1 $12 reversed single #
ATTRIB_CUSTOM-attrib $-1 -1 $13 $-1 $8 @22 generic_tag_attrib_def 3 3 -1 @23 generic_tag_attrib_def  1 3 @3 236 18686 4 302 426 606 736 0 #
face $14 182 $-1 $15 $16 $6 $-1 $17 forward single #
loop $18 -1 $-1 $19 $20 $8 #
plane-surface $-1 -1 $-1 -266.0179958980482979 53.03833502915536258 0.7749999999999999112 0 0 1 1 0 0 forward_v I I I I #
DXID-attrib $-1 -1 $-1 $9 $8 @7 PS-Face @4 7641 #
ATTRIB_CUSTOM-attrib $-1 -1 $21 $-1 $10 @22 generic_tag_attrib_def 3 3 -1 @23 generic_tag_attrib_def  1 3 @3 237 0 4 302 426 606 736 0 #
face $22 183 $-1 $23 $24 $6 $-1 $25 reversed single #
loop $26 -1 $-1 $27 $28 $10 #
cone-surface $-1 -1 $-1 -270.7261114304120611 41.80892471701489654 1.5 0 0 1 0.9649999999999969713 0 0 1 I I 0 1 0.9649999999999969713 forward I I I I #
DXID-attrib $-1 -1 $-1 $-1 $11 @7 PS-Loop @4 7643 #
loop $29 -1 $-1 $-1 $30 $8 #
coedge $-1 -1 $-1 $20 $20 $28 $31 reversed $11 0 $-1 #
DXID-attrib $-1 -1 $-1 $14 $10 @7 PS-Face @4 7652 #
ATTRIB_CUSTOM-attrib $-1 -1 $32 $-1 $15 @22 generic_tag_attrib_def 3 3 -1 @23 generic_tag_attrib_def  1 3 @3 253 0 4 302 426 606 736 0 #
face $33 184 $-1 $-1 $34 $6 $-1 $35 forward single #
loop $36 -1 $-1 $37 $38 $15 #
cone-surface $-1 -1 $-1 -270.7261114304120611 41.80892471701489654 2.54000000000000048 -0 -0 -1 -0.4000000000000205613 0 0 1 I I 0 1 0.4000000000000205613 forward I I I I #
DXID-attrib $-1 -1 $-1 $-1 $16 @7 PS-Loop @4 7655 #
loop $39 -1 $-1 $-1 $40 $10 #
coedge $-1 -1 $-1 $28 $28 $20 $31 forward $16 0 $-1 #
DXID-attrib $-1 -1 $-1 $-1 $19 @7 PS-Loop @4 8293 #
coedge $-1 -1 $-1 $30 $30 $41 $42 forward $19 0 $-1 #
edge $43 178 $-1 $44 -3.141592653589793116 $44 3.141592653589793116 $20 $45 forward @7 unknown #
DXID-attrib $-1 -1 $-1 $22 $15 @7 PS-Face @4 8307 #
ATTRIB_CUSTOM-attrib $-1 -1 $46 $-1 $23 @22 generic_tag_attrib_def 3 3 -1 @23 generic_tag_attrib_def  1 3 @3 248 0 4 302 426 606 736 0 #
loop $47 -1 $-1 $48 $49 $23 #
plane-surface $-1 -1 $-1 -270.7261114304120611 41.80892471701489654 2.299999999999999822 0 0 1 1 0 0 forward_v I I I I #
DXID-attrib $-1 -1 $-1 $-1 $24 @7 PS-Loop @4 8310 #
loop $50 -1 $-1 $-1 $41 $15 #
coedge $-1 -1 $-1 $38 $38 $51 $52 forward $24 0 $-1 #
DXID-attrib $-1 -1 $-1 $-1 $27 @7 PS-Loop @4 8154 #
coedge $-1 -1 $-1 $40 $40 $49 $53 reversed $27 0 $-1 #
coedge $-1 -1 $-1 $41 $41 $30 $42 reversed $37 0 $-1 #
edge $54 179 $-1 $55 -3.141592653589793116 $55 3.141592653589793116 $30 $56 forward @7 unknown #
DXID-attrib $-1 -1 $-1 $-1 $31 @7 PS-Edge @4 7581 #
vertex $-1 174 $-1 $31 0 $57 #
ellipse-curve $-1 -1 $-1 -270.7261114304120611 41.80892471701489654 0.7749999999999999112 0 0 1 0.9649999999999969713 0 0 1 I I #
DXID-attrib $-1 -1 $-1 $33 $23 @7 PS-Face @4 8156 #
DXID-attrib $-1 -1 $-1 $-1 $34 @7 PS-Loop @4 8158 #
loop $58 -1 $-1 $-1 $51 $23 #
coedge $-1 -1 $-1 $49 $49 $40 $53 forward $34 0 $-1 #
DXID-attrib $-1 -1 $-1 $-1 $37 @7 PS-Loop @4 8311 #
coedge $-1 -1 $-1 $51 $51 $38 $52 reversed $48 0 $-1 #
edge $59 181 $-1 $60 0 $60 6.283185307179586232 $51 $61 forward @7 unknown #
edge $62 180 $-1 $63 0 $63 6.283185307179586232 $49 $64 forward @7 unknown #
DXID-attrib $-1 -1 $-1 $-1 $42 @7 PS-Edge @4 8298 #
vertex $-1 175 $-1 $42 0 $65 #
ellipse-curve $-1 -1 $-1 -270.7261114304120611 41.80892471701489654 0.7749999999999999112 0 0 1 -0.4000000000000205613 0 0 1 I I #
point $-1 -1 $-1 -271.691111430412036 41.80892471701489654 0.7749999999999999112 #
DXID-attrib $-1 -1 $-1 $-1 $48 @7 PS-Loop @4 8284 #
DXID-attrib $-1 -1 $-1 $-1 $52 @7 PS-Edge @4 8303 #
vertex $-1 177 $-1 $52 0 $66 #
ellipse-curve $-1 -1 $-1 -270.7261114304120611 41.80892471701489654 2.299999999999999822 0 0 1 0.4000000000000205613 0 0 1 I I #
DXID-attrib $-1 -1 $-1 $-1 $53 @7 PS-Edge @4 8146 #
vertex $-1 176 $-1 $53 0 $67 #
ellipse-curve $-1 -1 $-1 -270.7261114304120611 41.80892471701489654 2.299999999999999822 0 0 1 0.964999999999980429 0 0 1 I I #
point $-1 -1 $-1 -270.3261114304120269 41.80892471701489654 0.7749999999999999112 #
point $-1 -1 $-1 -270.3261114304120269 41.80892471701489654 2.299999999999999822 #
point $-1 -1 $-1 -269.7611114304120861 41.80892471701489654 2.299999999999999822 #
End-of-ASM-data 