# WaveFront *.obj file
# Vertices: 132
# Triangles : 264

v -2.7169111143041204e+02 4.1808924717014897e+01 7.7499999999999991e-01
v -2.7167923067908634e+02 4.1959883975778716e+01 7.7499999999999991e-01
v -2.7164388096863689e+02 4.2107126116586720e+01 7.7499999999999991e-01
v -2.7158593272625382e+02 4.2247025549263554e+01 7.7499999999999991e-01
v -2.7150681282998386e+02 4.2376137485477130e+01 7.7499999999999991e-01
v -2.7140846947425706e+02 4.2491282760859910e+01 7.7499999999999991e-01
v -2.7129332419887430e+02 4.2589626116586722e+01 7.7499999999999991e-01
v -2.7116421226266073e+02 4.2668746012856666e+01 7.7499999999999991e-01
v -2.7102431282998390e+02 4.2726694255239714e+01 7.7499999999999991e-01
v -2.7087707068917587e+02 4.2762043965689202e+01 7.7499999999999991e-01
v -2.7072611143041206e+02 4.2773924717014893e+01 7.7499999999999991e-01
v -2.7057515217164826e+02 4.2762043965689202e+01 7.7499999999999991e-01
v -2.7042791003084022e+02 4.2726694255239714e+01 7.7499999999999991e-01
v -2.7028801059816340e+02 4.2668746012856666e+01 7.7499999999999991e-01
v -2.7015889866194982e+02 4.2589626116586722e+01 7.7499999999999991e-01
v -2.7004375338656706e+02 4.2491282760859910e+01 7.7499999999999991e-01
v -2.6994541003084026e+02 4.2376137485477130e+01 7.7499999999999991e-01
v -2.6986629013457031e+02 4.2247025549263554e+01 7.7499999999999991e-01
v -2.6980834189218723e+02 4.2107126116586720e+01 7.7499999999999991e-01
v -2.6977299218173778e+02 4.1959883975778716e+01 7.7499999999999991e-01
v -2.6976111143041209e+02 4.1808924717014897e+01 7.7499999999999991e-01
v -2.6977299218173778e+02 4.1657965458251077e+01 7.7499999999999991e-01
v -2.6980834189218723e+02 4.1510723317443073e+01 7.7499999999999991e-01
v -2.6986629013457031e+02 4.1370823884766239e+01 7.7499999999999991e-01
v -2.6994541003084026e+02 4.1241711948552663e+01 7.7499999999999991e-01
v -2.7004375338656706e+02 4.1126566673169883e+01 7.7499999999999991e-01
v -2.7015889866194982e+02 4.1028223317443071e+01 7.7499999999999991e-01
v -2.7028801059816340e+02 4.0949103421173128e+01 7.7499999999999991e-01
v -2.7042791003084022e+02 4.0891155178790079e+01 7.7499999999999991e-01
v -2.7057515217164826e+02 4.0855805468340591e+01 7.7499999999999991e-01
v -2.7072611143041206e+02 4.0843924717014900e+01 7.7499999999999991e-01
v -2.7087707068917587e+02 4.0855805468340591e+01 7.7499999999999991e-01
v -2.7102431282998390e+02 4.0891155178790079e+01 7.7499999999999991e-01
v -2.7116421226266073e+02 4.0949103421173128e+01 7.7499999999999991e-01
v -2.7129332419887430e+02 4.1028223317443071e+01 7.7499999999999991e-01
v -2.7140846947425706e+02 4.1126566673169883e+01 7.7499999999999991e-01
v -2.7150681282998386e+02 4.1241711948552663e+01 7.7499999999999991e-01
v -2.7158593272625382e+02 4.1370823884766239e+01 7.7499999999999991e-01
v -2.7164388096863689e+02 4.1510723317443073e+01 7.7499999999999991e-01
v -2.7167923067908634e+02 4.1657965458251077e+01 7.7499999999999991e-01
v -2.7032611143041203e+02 4.1808924717014897e+01 7.7499999999999991e-01
v -2.7033773470344164e+02 4.1904650982729926e+01 7.7499999999999991e-01
v -2.7037192902015073e+02 4.1994813985832415e+01 7.7499999999999991e-01
v -2.7042670713114359e+02 4.2074173780311227e+01 7.7499999999999991e-01
v -2.7049888553171957e+02 4.2138118263372377e+01 7.7499999999999991e-01
v -2.7058426947559502e+02 4.2182931214089081e+01 7.7499999999999991e-01
v -2.7067789675830994e+02 4.2206008266654138e+01 7.7499999999999991e-01
v -2.7077432610251418e+02 4.2206008266654138e+01 7.7499999999999991e-01
v -2.7086795338522910e+02 4.2182931214089081e+01 7.7499999999999991e-01
v -2.7095333732910456e+02 4.2138118263372377e+01 7.7499999999999991e-01
v -2.7102551572968054e+02 4.2074173780311227e+01 7.7499999999999991e-01
v -2.7108029384067339e+02 4.1994813985832415e+01 7.7499999999999991e-01
v -2.7111448815738248e+02 4.1904650982729926e+01 7.7499999999999991e-01
v -2.7112611143041210e+02 4.1808924717014897e+01 7.7499999999999991e-01
v -2.7111448815738248e+02 4.1713198451299867e+01 7.7499999999999991e-01
v -2.7108029384067339e+02 4.1623035448197378e+01 7.7499999999999991e-01
v -2.7102551572968054e+02 4.1543675653718566e+01 7.7499999999999991e-01
v -2.7095333732910456e+02 4.1479731170657416e+01 7.7499999999999991e-01
v -2.7086795338522910e+02 4.1434918219940712e+01 7.7499999999999991e-01
v -2.7077432610251418e+02 4.1411841167375655e+01 7.7499999999999991e-01
v -2.7067789675830994e+02 4.1411841167375655e+01 7.7499999999999991e-01
v -2.7058426947559502e+02 4.1434918219940712e+01 7.7499999999999991e-01
v -2.7049888553171957e+02 4.1479731170657416e+01 7.7499999999999991e-01
v -2.7042670713114359e+02 4.1543675653718566e+01 7.7499999999999991e-01
v -2.7037192902015079e+02 4.1623035448197378e+01 7.7499999999999991e-01
v -2.7033773470344164e+02 4.1713198451299867e+01 7.7499999999999991e-01
v -2.6976111143041209e+02 4.1808924717014897e+01 2.2999999999999998e+00
v -2.6977299218173778e+02 4.1657965458251077e+01 2.2999999999999998e+00
v -2.6980834189218723e+02 4.1510723317443080e+01 2.2999999999999998e+00
v -2.6986629013457031e+02 4.1370823884766246e+01 2.2999999999999998e+00
v -2.6994541003084026e+02 4.1241711948552670e+01 2.2999999999999998e+00
v -2.7004375338656706e+02 4.1126566673169890e+01 2.2999999999999998e+00
v -2.7015889866194982e+02 4.1028223317443086e+01 2.2999999999999998e+00
v -2.7028801059816340e+02 4.0949103421173142e+01 2.2999999999999998e+00
v -2.7042791003084022e+02 4.0891155178790093e+01 2.2999999999999998e+00
v -2.7057515217164826e+02 4.0855805468340606e+01 2.2999999999999998e+00
v -2.7072611143041206e+02 4.0843924717014914e+01 2.2999999999999998e+00
v -2.7087707068917587e+02 4.0855805468340606e+01 2.2999999999999998e+00
v -2.7102431282998390e+02 4.0891155178790093e+01 2.2999999999999998e+00
v -2.7116421226266073e+02 4.0949103421173142e+01 2.2999999999999998e+00
v -2.7129332419887430e+02 4.1028223317443086e+01 2.2999999999999998e+00
v -2.7140846947425706e+02 4.1126566673169890e+01 2.2999999999999998e+00
v -2.7150681282998386e+02 4.1241711948552670e+01 2.2999999999999998e+00
v -2.7158593272625382e+02 4.1370823884766246e+01 2.2999999999999998e+00
v -2.7164388096863689e+02 4.1510723317443080e+01 2.2999999999999998e+00
v -2.7167923067908634e+02 4.1657965458251077e+01 2.2999999999999998e+00
v -2.7169111143041204e+02 4.1808924717014897e+01 2.2999999999999998e+00
v -2.7167923067908634e+02 4.1959883975778716e+01 2.2999999999999998e+00
v -2.7164388096863689e+02 4.2107126116586713e+01 2.2999999999999998e+00
v -2.7158593272625382e+02 4.2247025549263547e+01 2.2999999999999998e+00
v -2.7150681282998386e+02 4.2376137485477123e+01 2.2999999999999998e+00
v -2.7140846947425706e+02 4.2491282760859903e+01 2.2999999999999998e+00
v -2.7129332419887430e+02 4.2589626116586707e+01 2.2999999999999998e+00
v -2.7116421226266073e+02 4.2668746012856651e+01 2.2999999999999998e+00
v -2.7102431282998390e+02 4.2726694255239700e+01 2.2999999999999998e+00
v -2.7087707068917587e+02 4.2762043965689188e+01 2.2999999999999998e+00
v -2.7072611143041206e+02 4.2773924717014879e+01 2.2999999999999998e+00
v -2.7057515217164826e+02 4.2762043965689188e+01 2.2999999999999998e+00
v -2.7042791003084022e+02 4.2726694255239700e+01 2.2999999999999998e+00
v -2.7028801059816340e+02 4.2668746012856651e+01 2.2999999999999998e+00
v -2.7015889866194982e+02 4.2589626116586707e+01 2.2999999999999998e+00
v -2.7004375338656706e+02 4.2491282760859903e+01 2.2999999999999998e+00
v -2.6994541003084026e+02 4.2376137485477123e+01 2.2999999999999998e+00
v -2.6986629013457031e+02 4.2247025549263547e+01 2.2999999999999998e+00
v -2.6980834189218723e+02 4.2107126116586713e+01 2.2999999999999998e+00
v -2.6977299218173778e+02 4.1959883975778716e+01 2.2999999999999998e+00
v -2.7032611143041203e+02 4.1808924717014897e+01 2.2999999999999998e+00
v -2.7033773470344164e+02 4.1904650982729926e+01 2.2999999999999998e+00
v -2.7037192902015073e+02 4.1994813985832415e+01 2.2999999999999998e+00
v -2.7042670713114359e+02 4.2074173780311227e+01 2.2999999999999998e+00
v -2.7049888553171957e+02 4.2138118263372377e+01 2.2999999999999998e+00
v -2.7058426947559502e+02 4.2182931214089081e+01 2.2999999999999998e+00
v -2.7067789675830994e+02 4.2206008266654138e+01 2.2999999999999998e+00
v -2.7077432610251418e+02 4.2206008266654138e+01 2.2999999999999998e+00
v -2.7086795338522910e+02 4.2182931214089081e+01 2.2999999999999998e+00
v -2.7095333732910456e+02 4.2138118263372377e+01 2.2999999999999998e+00
v -2.7102551572968054e+02 4.2074173780311227e+01 2.2999999999999998e+00
v -2.7108029384067339e+02 4.1994813985832415e+01 2.2999999999999998e+00
v -2.7111448815738248e+02 4.1904650982729926e+01 2.2999999999999998e+00
v -2.7112611143041210e+02 4.1808924717014897e+01 2.2999999999999998e+00
v -2.7111448815738248e+02 4.1713198451299867e+01 2.2999999999999998e+00
v -2.7108029384067339e+02 4.1623035448197378e+01 2.2999999999999998e+00
v -2.7102551572968054e+02 4.1543675653718566e+01 2.2999999999999998e+00
v -2.7095333732910456e+02 4.1479731170657416e+01 2.2999999999999998e+00
v -2.7086795338522910e+02 4.1434918219940712e+01 2.2999999999999998e+00
v -2.7077432610251418e+02 4.1411841167375655e+01 2.2999999999999998e+00
v -2.7067789675830994e+02 4.1411841167375655e+01 2.2999999999999998e+00
v -2.7058426947559502e+02 4.1434918219940712e+01 2.2999999999999998e+00
v -2.7049888553171957e+02 4.1479731170657416e+01 2.2999999999999998e+00
v -2.7042670713114359e+02 4.1543675653718566e+01 2.2999999999999998e+00
v -2.7037192902015079e+02 4.1623035448197378e+01 2.2999999999999998e+00
v -2.7033773470344164e+02 4.1713198451299867e+01 2.2999999999999998e+00

vn -0.0000000000000000e+00 -0.0000000000000000e+00 -1.0000000000000000e+00
vn -9.8768834059513766e-01 -1.5643446504023140e-01 0.0000000000000000e+00
vn -1.0000000000000000e+00 -1.2246467991473530e-16 0.0000000000000000e+00
vn -1.0000000000000000e+00 1.2246467991473530e-16 -0.0000000000000000e+00
vn -9.8768834059513766e-01 1.5643446504023140e-01 -0.0000000000000000e+00
vn -9.5105651629515686e-01 3.0901699437493740e-01 -0.0000000000000000e+00
vn -9.5105651629515464e-01 -3.0901699437494418e-01 0.0000000000000000e+00
vn -9.5105651629515686e-01 -3.0901699437493740e-01 0.0000000000000000e+00
vn -8.9100652418836557e-01 -4.5399049973955125e-01 0.0000000000000000e+00
vn -8.9100652418836845e-01 -4.5399049973954564e-01 0.0000000000000000e+00
vn -8.0901699437493879e-01 -5.8778525229248491e-01 0.0000000000000000e+00
vn -8.0901699437494246e-01 -5.8778525229247991e-01 0.0000000000000000e+00
vn -7.0710678118654025e-01 -7.0710678118655479e-01 0.0000000000000000e+00
vn -7.0710678118654369e-01 -7.0710678118655135e-01 0.0000000000000000e+00
vn -5.8778525229247547e-01 -8.0901699437494579e-01 0.0000000000000000e+00
vn -5.8778525229248280e-01 -8.0901699437494046e-01 0.0000000000000000e+00
vn -4.5399049973955113e-01 -8.9100652418836579e-01 0.0000000000000000e+00
vn -4.5399049973955696e-01 -8.9100652418836268e-01 0.0000000000000000e+00
vn -3.0901699437496172e-01 -9.5105651629514898e-01 0.0000000000000000e+00
vn -3.0901699437496599e-01 -9.5105651629514754e-01 0.0000000000000000e+00
vn -1.5643446504021366e-01 -9.8768834059514043e-01 0.0000000000000000e+00
vn -1.5643446504021588e-01 -9.8768834059513999e-01 0.0000000000000000e+00
vn 6.1232339957367648e-17 -1.0000000000000000e+00 -0.0000000000000000e+00
vn 1.5643446504021358e-01 -9.8768834059514043e-01 -0.0000000000000000e+00
vn 1.5643446504021599e-01 -9.8768834059513999e-01 -0.0000000000000000e+00
vn 3.0901699437496161e-01 -9.5105651629514898e-01 -0.0000000000000000e+00
vn 3.0901699437496605e-01 -9.5105651629514754e-01 -0.0000000000000000e+00
vn 4.5399049973955125e-01 -8.9100652418836568e-01 -0.0000000000000000e+00
vn 4.5399049973955713e-01 -8.9100652418836268e-01 -0.0000000000000000e+00
vn 5.8778525229247569e-01 -8.0901699437494545e-01 -0.0000000000000000e+00
vn 5.8778525229248280e-01 -8.0901699437494046e-01 -0.0000000000000000e+00
vn 7.0710678118654013e-01 -7.0710678118655490e-01 -0.0000000000000000e+00
vn 7.0710678118654391e-01 -7.0710678118655113e-01 -0.0000000000000000e+00
vn 8.0901699437493879e-01 -5.8778525229248491e-01 -0.0000000000000000e+00
vn 8.0901699437494234e-01 -5.8778525229248013e-01 -0.0000000000000000e+00
vn 8.9100652418836557e-01 -4.5399049973955136e-01 -0.0000000000000000e+00
vn 8.9100652418836845e-01 -4.5399049973954547e-01 -0.0000000000000000e+00
vn 9.5105651629515464e-01 -3.0901699437494401e-01 -0.0000000000000000e+00
vn 9.5105651629515686e-01 -3.0901699437493735e-01 -0.0000000000000000e+00
vn 9.8768834059513766e-01 -1.5643446504023142e-01 -0.0000000000000000e+00
vn 1.0000000000000000e+00 -0.0000000000000000e+00 -0.0000000000000000e+00
vn 9.8768834059513766e-01 1.5643446504023142e-01 -0.0000000000000000e+00
vn 9.5105651629515464e-01 3.0901699437494401e-01 -0.0000000000000000e+00
vn 9.5105651629515686e-01 3.0901699437493735e-01 -0.0000000000000000e+00
vn 8.9100652418836557e-01 4.5399049973955136e-01 -0.0000000000000000e+00
vn 8.9100652418836845e-01 4.5399049973954547e-01 -0.0000000000000000e+00
vn 8.0901699437493879e-01 5.8778525229248491e-01 -0.0000000000000000e+00
vn 8.0901699437494234e-01 5.8778525229248013e-01 -0.0000000000000000e+00
vn 7.0710678118654013e-01 7.0710678118655490e-01 -0.0000000000000000e+00
vn 7.0710678118654391e-01 7.0710678118655113e-01 -0.0000000000000000e+00
vn 5.8778525229247569e-01 8.0901699437494545e-01 -0.0000000000000000e+00
vn 5.8778525229248280e-01 8.0901699437494046e-01 -0.0000000000000000e+00
vn 4.5399049973955125e-01 8.9100652418836568e-01 -0.0000000000000000e+00
vn 4.5399049973955713e-01 8.9100652418836268e-01 -0.0000000000000000e+00
vn 3.0901699437496161e-01 9.5105651629514898e-01 -0.0000000000000000e+00
vn 3.0901699437496605e-01 9.5105651629514754e-01 -0.0000000000000000e+00
vn 1.5643446504021358e-01 9.8768834059514043e-01 -0.0000000000000000e+00
vn 1.5643446504021599e-01 9.8768834059513999e-01 -0.0000000000000000e+00
vn 6.1232339957367648e-17 1.0000000000000000e+00 -0.0000000000000000e+00
vn -1.5643446504021366e-01 9.8768834059514043e-01 -0.0000000000000000e+00
vn -1.5643446504021588e-01 9.8768834059513999e-01 -0.0000000000000000e+00
vn -3.0901699437496172e-01 9.5105651629514898e-01 -0.0000000000000000e+00
vn -3.0901699437496599e-01 9.5105651629514754e-01 -0.0000000000000000e+00
vn -4.5399049973955113e-01 8.9100652418836579e-01 -0.0000000000000000e+00
vn -4.5399049973955696e-01 8.9100652418836268e-01 -0.0000000000000000e+00
vn -5.8778525229247547e-01 8.0901699437494579e-01 -0.0000000000000000e+00
vn -5.8778525229248280e-01 8.0901699437494046e-01 -0.0000000000000000e+00
vn -7.0710678118654025e-01 7.0710678118655479e-01 -0.0000000000000000e+00
vn -7.0710678118654369e-01 7.0710678118655135e-01 -0.0000000000000000e+00
vn -8.0901699437493879e-01 5.8778525229248491e-01 -0.0000000000000000e+00
vn -8.0901699437494246e-01 5.8778525229247991e-01 -0.0000000000000000e+00
vn -8.9100652418836557e-01 4.5399049973955125e-01 -0.0000000000000000e+00
vn -8.9100652418836845e-01 4.5399049973954564e-01 -0.0000000000000000e+00
vn -9.5105651629515464e-01 3.0901699437494418e-01 -0.0000000000000000e+00
vn -9.7094181742604824e-01 -2.3931566428757275e-01 -0.0000000000000000e+00
vn -1.0000000000000000e+00 -1.2246467991473532e-16 -0.0000000000000000e+00
vn -1.0000000000000000e+00 1.2246467991473532e-16 -0.0000000000000000e+00
vn -9.7094181742604824e-01 2.3931566428757275e-01 -0.0000000000000000e+00
vn -8.8545602565319248e-01 4.6472317204380165e-01 -0.0000000000000000e+00
vn -7.4851074817112229e-01 6.6312265824077132e-01 -0.0000000000000000e+00
vn -5.6806474673119112e-01 8.2298386589363204e-01 -0.0000000000000000e+00
vn -3.5460488704257492e-01 9.3501624268539996e-01 -0.0000000000000000e+00
vn -1.2053668025529335e-01 9.9270887409805764e-01 -0.0000000000000000e+00
vn 1.2053668025529324e-01 9.9270887409805764e-01 -0.0000000000000000e+00
vn 3.5460488704257476e-01 9.3501624268539996e-01 -0.0000000000000000e+00
vn 5.6806474673119101e-01 8.2298386589363215e-01 -0.0000000000000000e+00
vn 7.4851074817112229e-01 6.6312265824077132e-01 -0.0000000000000000e+00
vn 8.8545602565322323e-01 4.6472317204374314e-01 -0.0000000000000000e+00
vn 9.7094181742604824e-01 2.3931566428757284e-01 -0.0000000000000000e+00
vn 9.7094181742604824e-01 -2.3931566428757284e-01 -0.0000000000000000e+00
vn 8.8545602565322323e-01 -4.6472317204374314e-01 -0.0000000000000000e+00
vn 7.4851074817112229e-01 -6.6312265824077132e-01 -0.0000000000000000e+00
vn 5.6806474673119101e-01 -8.2298386589363215e-01 -0.0000000000000000e+00
vn 3.5460488704257476e-01 -9.3501624268539996e-01 -0.0000000000000000e+00
vn 1.2053668025529324e-01 -9.9270887409805764e-01 -0.0000000000000000e+00
vn -1.2053668025529335e-01 -9.9270887409805764e-01 -0.0000000000000000e+00
vn -3.5460488704257492e-01 -9.3501624268539996e-01 -0.0000000000000000e+00
vn -5.6806474673119112e-01 -8.2298386589363204e-01 -0.0000000000000000e+00
vn -7.4851074817112229e-01 -6.6312265824077132e-01 -0.0000000000000000e+00
vn -8.8545602565322323e-01 -4.6472317204374297e-01 -0.0000000000000000e+00
vn 0.0000000000000000e+00 0.0000000000000000e+00 1.0000000000000000e+00

g face 0
f 40//1 1//1 54//1
f 54//1 1//1 2//1
f 54//1 2//1 53//1
f 53//1 2//1 3//1
f 53//1 3//1 52//1
f 52//1 3//1 4//1
f 52//1 4//1 5//1
f 52//1 5//1 51//1
f 51//1 5//1 6//1
f 51//1 6//1 50//1
f 50//1 6//1 7//1
f 50//1 7//1 8//1
f 50//1 8//1 49//1
f 49//1 8//1 9//1
f 49//1 9//1 48//1
f 48//1 9//1 10//1
f 48//1 10//1 11//1
f 48//1 11//1 47//1
f 47//1 11//1 12//1
f 47//1 12//1 13//1
f 47//1 13//1 46//1
f 46//1 13//1 14//1
f 46//1 14//1 45//1
f 45//1 14//1 15//1
f 45//1 15//1 16//1
f 45//1 16//1 44//1
f 44//1 16//1 17//1
f 44//1 17//1 43//1
f 43//1 17//1 18//1
f 43//1 18//1 19//1
f 43//1 19//1 42//1
f 42//1 19//1 20//1
f 42//1 20//1 41//1
f 41//1 20//1 21//1
f 41//1 21//1 22//1
f 41//1 22//1 66//1
f 66//1 22//1 23//1
f 66//1 23//1 65//1
f 65//1 23//1 24//1
f 65//1 24//1 25//1
f 65//1 25//1 64//1
f 64//1 25//1 26//1
f 64//1 26//1 63//1
f 63//1 26//1 27//1
f 63//1 27//1 28//1
f 63//1 28//1 62//1
f 62//1 28//1 29//1
f 62//1 29//1 61//1
f 61//1 29//1 30//1
f 61//1 30//1 31//1
f 61//1 31//1 60//1
f 60//1 31//1 32//1
f 60//1 32//1 33//1
f 60//1 33//1 59//1
f 59//1 33//1 34//1
f 59//1 34//1 58//1
f 58//1 34//1 35//1
f 58//1 35//1 36//1
f 58//1 36//1 57//1
f 57//1 36//1 37//1
f 57//1 37//1 56//1
f 56//1 37//1 38//1
f 56//1 38//1 39//1
f 56//1 39//1 55//1
f 55//1 39//1 40//1
f 55//1 40//1 54//1

g face 1
f 40//2 86//2 1//3
f 1//3 86//2 87//3
f 1//4 87//4 2//5
f 2//5 87//4 88//5
f 2//5 88//5 89//6
f 40//2 39//7 86//2
f 86//2 39//7 85//8
f 85//8 39//7 38//9
f 85//8 38//9 84//10
f 84//10 38//9 37//11
f 84//10 37//11 83//12
f 83//12 37//11 36//13
f 83//12 36//13 82//14
f 82//14 36//13 35//15
f 82//14 35//15 81//16
f 81//16 35//15 34//17
f 81//16 34//17 80//18
f 80//18 34//17 33//19
f 80//18 33//19 79//20
f 79//20 33//19 32//21
f 79//20 32//21 78//22
f 78//22 32//21 31//23
f 78//22 31//23 77//23
f 77//23 31//23 30//24
f 77//23 30//24 76//25
f 76//25 30//24 29//26
f 76//25 29//26 75//27
f 75//27 29//26 28//28
f 75//27 28//28 74//29
f 74//29 28//28 27//30
f 74//29 27//30 73//31
f 73//31 27//30 26//32
f 73//31 26//32 72//33
f 72//33 26//32 25//34
f 72//33 25//34 71//35
f 71//35 25//34 24//36
f 71//35 24//36 70//37
f 70//37 24//36 23//38
f 70//37 23//38 69//39
f 69//39 23//38 22//40
f 69//39 22//40 68//40
f 68//40 22//40 21//41
f 68//40 21//41 67//41
f 67//41 21//41 20//42
f 67//41 20//42 106//42
f 106//42 20//42 19//43
f 106//42 19//43 105//44
f 105//44 19//43 18//45
f 105//44 18//45 104//46
f 104//46 18//45 17//47
f 104//46 17//47 103//48
f 103//48 17//47 16//49
f 103//48 16//49 102//50
f 102//50 16//49 15//51
f 102//50 15//51 101//52
f 101//52 15//51 14//53
f 101//52 14//53 100//54
f 100//54 14//53 13//55
f 100//54 13//55 99//56
f 99//56 13//55 12//57
f 99//56 12//57 98//58
f 98//58 12//57 11//59
f 98//58 11//59 97//59
f 97//59 11//59 10//60
f 97//59 10//60 96//61
f 96//61 10//60 9//62
f 96//61 9//62 95//63
f 95//63 9//62 8//64
f 95//63 8//64 94//65
f 94//65 8//64 7//66
f 94//65 7//66 93//67
f 93//67 7//66 6//68
f 93//67 6//68 92//69
f 92//69 6//68 5//70
f 92//69 5//70 91//71
f 91//71 5//70 4//72
f 91//71 4//72 90//73
f 90//73 4//72 3//74
f 90//73 3//74 89//6
f 89//6 3//74 2//5

g face 2
f 108//75 42//75 107//76
f 107//76 42//75 41//76
f 107//77 41//77 132//78
f 132//78 41//77 66//78
f 132//78 66//78 131//79
f 131//79 66//78 65//79
f 131//79 65//79 130//80
f 130//80 65//79 64//80
f 130//80 64//80 129//81
f 129//81 64//80 63//81
f 129//81 63//81 128//82
f 128//82 63//81 62//82
f 128//82 62//82 127//83
f 127//83 62//82 61//83
f 127//83 61//83 126//84
f 126//84 61//83 60//84
f 126//84 60//84 125//85
f 125//85 60//84 59//85
f 125//85 59//85 124//86
f 124//86 59//85 58//86
f 124//86 58//86 123//87
f 123//87 58//86 57//87
f 123//87 57//87 122//88
f 122//88 57//87 56//88
f 122//88 56//88 121//89
f 121//89 56//88 55//89
f 121//89 55//89 120//41
f 120//41 55//89 54//41
f 120//41 54//41 119//90
f 119//90 54//41 53//90
f 119//90 53//90 118//91
f 118//91 53//90 52//91
f 118//91 52//91 117//92
f 117//92 52//91 51//92
f 117//92 51//92 116//93
f 116//93 51//92 50//93
f 116//93 50//93 115//94
f 115//94 50//93 49//94
f 115//94 49//94 114//95
f 114//95 49//94 48//95
f 114//95 48//95 113//96
f 113//96 48//95 47//96
f 113//96 47//96 112//97
f 112//97 47//96 46//97
f 112//97 46//97 111//98
f 111//98 46//97 45//98
f 111//98 45//98 110//99
f 110//99 45//98 44//99
f 110//99 44//99 109//100
f 109//100 44//99 43//100
f 109//100 43//100 108//75
f 108//75 43//100 42//75

g face 3
f 68//101 67//101 107//101
f 107//101 67//101 106//101
f 107//101 106//101 108//101
f 108//101 106//101 105//101
f 108//101 105//101 109//101
f 109//101 105//101 104//101
f 109//101 104//101 103//101
f 109//101 103//101 110//101
f 110//101 103//101 102//101
f 110//101 102//101 111//101
f 111//101 102//101 101//101
f 111//101 101//101 100//101
f 111//101 100//101 112//101
f 112//101 100//101 99//101
f 112//101 99//101 113//101
f 113//101 99//101 98//101
f 113//101 98//101 97//101
f 113//101 97//101 114//101
f 114//101 97//101 96//101
f 114//101 96//101 95//101
f 114//101 95//101 115//101
f 115//101 95//101 94//101
f 115//101 94//101 116//101
f 116//101 94//101 93//101
f 116//101 93//101 92//101
f 116//101 92//101 117//101
f 117//101 92//101 91//101
f 117//101 91//101 118//101
f 118//101 91//101 90//101
f 118//101 90//101 89//101
f 118//101 89//101 119//101
f 119//101 89//101 88//101
f 119//101 88//101 120//101
f 120//101 88//101 87//101
f 120//101 87//101 86//101
f 120//101 86//101 121//101
f 121//101 86//101 85//101
f 121//101 85//101 122//101
f 122//101 85//101 84//101
f 122//101 84//101 83//101
f 122//101 83//101 123//101
f 123//101 83//101 82//101
f 123//101 82//101 124//101
f 124//101 82//101 81//101
f 124//101 81//101 80//101
f 124//101 80//101 125//101
f 125//101 80//101 79//101
f 125//101 79//101 126//101
f 126//101 79//101 78//101
f 126//101 78//101 77//101
f 126//101 77//101 127//101
f 127//101 77//101 76//101
f 127//101 76//101 75//101
f 127//101 75//101 128//101
f 128//101 75//101 74//101
f 128//101 74//101 129//101
f 129//101 74//101 73//101
f 129//101 73//101 72//101
f 129//101 72//101 130//101
f 130//101 72//101 71//101
f 130//101 71//101 131//101
f 131//101 71//101 70//101
f 131//101 70//101 69//101
f 131//101 69//101 132//101
f 132//101 69//101 68//101
f 132//101 68//101 107//101

g halfedge 0 edge 0
l 1 2 3 4 5 6 7 8 9 10 11 12 13 14 15 16 17 18 19 20 21 22 23 24 25 26 27 28 29 30 31 32 33 34 35 36 37 38 39 40 1

g halfedge 1 edge 0
l 1 40 39 38 37 36 35 34 33 32 31 30 29 28 27 26 25 24 23 22 21 20 19 18 17 16 15 14 13 12 11 10 9 8 7 6 5 4 3 2 1

g halfedge 2 edge 1
l 41 42 43 44 45 46 47 48 49 50 51 52 53 54 55 56 57 58 59 60 61 62 63 64 65 66 41

g halfedge 3 edge 1
l 41 66 65 64 63 62 61 60 59 58 57 56 55 54 53 52 51 50 49 48 47 46 45 44 43 42 41

g halfedge 4 edge 2
l 67 106 105 104 103 102 101 100 99 98 97 96 95 94 93 92 91 90 89 88 87 86 85 84 83 82 81 80 79 78 77 76 75 74 73 72 71 70 69 68 67

g halfedge 5 edge 2
l 67 68 69 70 71 72 73 74 75 76 77 78 79 80 81 82 83 84 85 86 87 88 89 90 91 92 93 94 95 96 97 98 99 100 101 102 103 104 105 106 67

g halfedge 6 edge 3
l 107 132 131 130 129 128 127 126 125 124 123 122 121 120 119 118 117 116 115 114 113 112 111 110 109 108 107

g halfedge 7 edge 3
l 107 108 109 110 111 112 113 114 115 116 117 118 119 120 121 122 123 124 125 126 127 128 129 130 131 132 107

g vertex 0
p 1

g vertex 1
p 41

g vertex 2
p 67

g vertex 3
p 107

# End of file
