22700 0 2 4           
16 Autodesk Neutron 20 ASM 227.1.1.65535 NT 24 Thu Aug 26 00:06:25 2021 
10 9.999999999999999547e-07 1.000000000000000036e-10 
asmheader $-1 -1 @13 227.1.1.65535 #
body $2 5 $-1 $3 $-1 $4 #
ATTRIB_CUSTOM-attrib $-1 -1 $5 $-1 $1 @20 Timestamp_attrib_def 1 1406915265000 #
lump $-1 -1 $-1 $-1 $6 $1 #
transform $-1 -1 1 0 0 0 1 0 0 0 1 0 0 0 1 no_rotate no_reflect no_shear #
ATTRIB_CUSTOM-attrib $-1 -1 $-1 $2 $1 @22 generic_tag_attrib_def 3 3 -1 @23 generic_tag_attrib_def  1 3 @3 736 6 0 0 #
shell $-1 -1 $-1 $-1 $-1 $7 $-1 $3 #
face $8 -1 $-1 $-1 $9 $6 $-1 $10 forward double out #
ATTRIB_CUSTOM-attrib $-1 -1 $11 $-1 $7 @22 generic_tag_attrib_def 3 3 -1 @23 generic_tag_attrib_def  1 4 @4 3472 0 1 736 0 #
loop $12 -1 $-1 $13 $14 $7 #
cone-surface $-1 -1 $-1 -311.3145173472441343 76.01551256450066774 0 0.4067366430757974327 0.9135454576426021989 0 -2.155967280036534817 0.9598984776588790346 0 1 I I 0 1 2.35999999999999277 forward I I I I #
DXID-attrib $-1 -1 $-1 $8 $7 @7 PS-Face @3 643 #
DXID-attrib $-1 -1 $-1 $-1 $9 @7 PS-Loop @3 110 #
loop $-1 -1 $-1 $-1 $15 $7 #
coedge $-1 -1 $-1 $14 $14 $-1 $16 forward $9 0 $-1 #
coedge $-1 -1 $-1 $15 $15 $-1 $17 forward $13 0 $-1 #
edge $18 -1 $-1 $19 -6.283185307179586232 $19 -0 $14 $20 reversed @7 unknown #
edge $21 -1 $-1 $22 -6.283185307179586232 $22 -0 $15 $23 reversed @7 unknown #
ATTRIB_CUSTOM-attrib $-1 -1 $24 $-1 $16 @22 generic_tag_attrib_def 3 3 -1 @23 generic_tag_attrib_def  1 4 @4 3405 0 1 736 0 #
vertex $25 -1 $-1 $16 0 $26 #
ellipse-curve $-1 -1 $-1 -310.9586227845527446 76.81486483993799652 0 -0.4067366430757975992 -0.9135454576426021989 0 2.155967280036534373 -0.9598984776588791457 0 1 I I #
ATTRIB_CUSTOM-attrib $-1 -1 $27 $-1 $17 @22 generic_tag_attrib_def 3 3 -1 @23 generic_tag_attrib_def  1 4 @4 3404 0 1 736 0 #
vertex $28 -1 $-1 $17 0 $29 #
ellipse-curve $-1 -1 $-1 -306.3543639849347642 87.15619942045222501 0 0.4067366430757975992 0.9135454576426021989 0 -2.155967280036534373 0.9598984776588791457 0 1 I I #
DXID-attrib $-1 -1 $-1 $18 $16 @7 PS-Edge @3 116 #
ATTRIB_CUSTOM-attrib $-1 -1 $-1 $-1 $19 @22 generic_tag_attrib_def 3 3 -1 @23 generic_tag_attrib_def  1 4 @4 3473 0 0 0 #
point $-1 -1 $-1 -308.802655504516224 75.85496636227910017 0 #
DXID-attrib $-1 -1 $-1 $21 $17 @7 PS-Edge @2 58 #
ATTRIB_CUSTOM-attrib $-1 -1 $-1 $-1 $22 @22 generic_tag_attrib_def 3 3 -1 @23 generic_tag_attrib_def  1 4 @4 3474 0 0 0 #
point $-1 -1 $-1 -308.5103312649713416 88.11609789811112137 0 #
End-of-ASM-data 