22700 0 2 4           
16 Autodesk Neutron 20 ASM 227.1.1.65535 NT 24 Thu Aug 26 00:06:30 2021 
10 9.999999999999999547e-07 1.000000000000000036e-10 
asmheader $-1 -1 @13 227.1.1.65535 #
body $2 0 $-1 $3 $-1 $-1 #
ATTRIB_CUSTOM-attrib $-1 -1 $4 $-1 $1 @20 Timestamp_attrib_def 1 1406915266000 #
lump $-1 -1 $-1 $-1 $5 $1 #
ATTRIB_CUSTOM-attrib $-1 -1 $6 $2 $1 @22 generic_tag_attrib_def 3 3 -1 @23 generic_tag_attrib_def  4 3 @3 366 1 0 0 3 @3 486 1 0 0 3 @3 649 1 0 0 3 @3 782 1 0 0 #
shell $-1 -1 $-1 $-1 $-1 $7 $-1 $3 #
DXID-attrib $-1 -1 $-1 $4 $1 @18 ASM_BODY_FROM_STEP @4 2683 #
face $8 89 $-1 $9 $10 $5 $-1 $11 forward single #
ATTRIB_CUSTOM-attrib $-1 -1 $12 $-1 $7 @22 generic_tag_attrib_def 3 3 -1 @23 generic_tag_attrib_def  1 1 @1 0 0 4 366 486 649 782 0 #
face $13 90 $-1 $14 $15 $5 $-1 $16 reversed single #
loop $-1 -1 $-1 $17 $18 $7 #
plane-surface $-1 -1 $-1 5.514985367604589683 -0.009999999999999649794 -0.1089223252490939958 0 1 0 0 0 1 forward_v I I I I #
DXID-attrib $-1 -1 $-1 $8 $7 @18 ASM_FACE_FROM_STEP @5 14788 #
ATTRIB_CUSTOM-attrib $-1 -1 $19 $-1 $9 @22 generic_tag_attrib_def 3 3 -1 @23 generic_tag_attrib_def  1 1 @1 1 0 4 366 486 649 782 0 #
face $20 91 $-1 $21 $22 $5 $-1 $23 forward single #
loop $-1 -1 $-1 $24 $25 $9 #
plane-surface $-1 -1 $-1 5.514985367604589683 -0.0999999999999996031 -0.1089223252490939958 0 1 0 0 0 1 forward_v I I I I #
loop $-1 -1 $-1 $26 $27 $7 #
coedge $-1 -1 $-1 $28 $29 $30 $31 forward $10 0 $-1 #
DXID-attrib $-1 -1 $-1 $13 $9 @18 ASM_FACE_FROM_STEP @5 14789 #
ATTRIB_CUSTOM-attrib $-1 -1 $32 $-1 $14 @22 generic_tag_attrib_def 3 3 -1 @23 generic_tag_attrib_def  1 1 @1 2 0 4 366 486 649 782 0 #
face $33 92 $-1 $34 $35 $5 $-1 $36 forward single #
loop $-1 -1 $-1 $-1 $37 $14 #
cone-surface $-1 -1 $-1 5.514985367604589683 -0.009999999999999649794 -0.1089223252490939958 0 -1 0 0 0 -1.395212499999999967 1 I I 0 1 1.395212499999999967 forward I I I I #
loop $-1 -1 $-1 $38 $39 $9 #
coedge $-1 -1 $-1 $40 $41 $37 $42 reversed $15 0 $-1 #
loop $-1 -1 $-1 $-1 $43 $7 #
coedge $-1 -1 $-1 $27 $27 $44 $45 reversed $17 0 $-1 #
coedge $-1 -1 $-1 $46 $18 $47 $48 forward $10 0 $-1 #
coedge $-1 -1 $-1 $18 $49 $50 $51 forward $10 0 $-1 #
coedge $-1 -1 $-1 $52 $53 $18 $31 reversed $22 0 $-1 #
edge $54 2 $-1 $55 1.016061775784201426 $56 5.267123531395380809 $18 $57 forward @7 unknown #
DXID-attrib $-1 -1 $-1 $20 $14 @18 ASM_FACE_FROM_STEP @5 14790 #
ATTRIB_CUSTOM-attrib $-1 -1 $58 $-1 $21 @22 generic_tag_attrib_def 3 3 -1 @23 generic_tag_attrib_def  1 1 @1 3 0 4 366 486 649 782 0 #
face $59 93 $-1 $60 $61 $5 $-1 $62 reversed single #
loop $-1 -1 $-1 $-1 $63 $21 #
cone-surface $-1 -1 $-1 5.006643784051520107 -0.009999999999999649794 0.00755985947407076999 0 -1 0 0 0 -0.9174000000000009925 1 I I 0 1 0.9174000000000009925 forward I I I I #
coedge $-1 -1 $-1 $53 $52 $25 $42 forward $22 0 $-1 #
loop $-1 -1 $-1 $-1 $64 $9 #
coedge $-1 -1 $-1 $39 $39 $65 $66 forward $24 0 $-1 #
coedge $-1 -1 $-1 $67 $25 $68 $69 reversed $15 0 $-1 #
coedge $-1 -1 $-1 $25 $70 $63 $71 reversed $15 0 $-1 #
edge $72 55 $-1 $73 1.016061775784201426 $74 5.267123531395380809 $25 $75 forward @7 unknown #
coedge $-1 -1 $-1 $43 $43 $76 $77 reversed $26 0 $-1 #
coedge $-1 -1 $-1 $44 $44 $27 $45 forward $78 0 $-1 #
edge $79 53 $-1 $80 0 $80 6.283185307179586232 $27 $81 forward @7 unknown #
coedge $-1 -1 $-1 $82 $28 $83 $84 forward $10 0 $-1 #
coedge $-1 -1 $-1 $85 $86 $28 $48 reversed $35 0 $-1 #
edge $87 3 $-1 $56 -0.8310779686368341412 $88 -0.5081953195980490889 $28 $89 forward @7 unknown #
coedge $-1 -1 $-1 $29 $90 $91 $92 forward $10 0 $-1 #
coedge $-1 -1 $-1 $93 $94 $29 $51 reversed $95 0 $-1 #
edge $96 52 $-1 $97 -2.633397333991744027 $55 -2.310514684952959197 $29 $98 forward @7 unknown #
coedge $-1 -1 $-1 $37 $30 $94 $99 forward $22 0 $-1 #
coedge $-1 -1 $-1 $30 $37 $85 $100 reversed $22 0 $-1 #
DXID-attrib $-1 -1 $-1 $-1 $31 @18 ASM_EDGE_FROM_STEP @4 9065 #
vertex $-1 10 $-1 $31 0 $101 #
vertex $-1 11 $-1 $31 1 $102 #
ellipse-curve $-1 -1 $-1 5.514985367604589683 -0.009999999999999649794 -0.1089223252490939958 0 1 0 0 0 1.395212499999999967 1 F 1.016061775784201426 F 5.267123531395380809 #
DXID-attrib $-1 -1 $-1 $33 $21 @18 ASM_FACE_FROM_STEP @5 14791 #
ATTRIB_CUSTOM-attrib $-1 -1 $103 $-1 $34 @22 generic_tag_attrib_def 3 3 -1 @23 generic_tag_attrib_def  1 1 @1 4 0 4 366 486 649 782 0 #
face $104 94 $-1 $105 $106 $5 $-1 $107 forward single #
loop $-1 -1 $-1 $-1 $108 $34 #
cone-surface $-1 -1 $-1 4.511575491342729727 -0.009999999999999649794 0.8963850085075599772 0 -1 0 0 0 -0.09999999999999970024 1 I I 0 1 0.09999999999999970024 forward I I I I #
coedge $-1 -1 $-1 $86 $85 $41 $71 forward $35 0 $-1 #
coedge $-1 -1 $-1 $64 $64 $109 $110 forward $38 0 $-1 #
coedge $-1 -1 $-1 $65 $65 $39 $66 reversed $111 0 $-1 #
edge $112 71 $-1 $113 0 $113 6.283185307179586232 $39 $114 forward @7 unknown #
coedge $-1 -1 $-1 $115 $40 $116 $117 reversed $15 0 $-1 #
coedge $-1 -1 $-1 $94 $93 $40 $69 forward $95 0 $-1 #
edge $118 56 $-1 $119 -2.633397333991744027 $73 -2.310514684952959197 $40 $120 forward @7 unknown #
coedge $-1 -1 $-1 $41 $121 $108 $122 reversed $15 0 $-1 #
edge $123 70 $-1 $74 -0.8310779686368341412 $124 -0.5081953195980490889 $41 $125 forward @7 unknown #
DXID-attrib $-1 -1 $-1 $-1 $42 @18 ASM_EDGE_FROM_STEP @4 9083 #
vertex $-1 29 $-1 $42 0 $126 #
vertex $-1 28 $-1 $42 1 $127 #
ellipse-curve $-1 -1 $-1 5.514985367604589683 -0.0999999999999996031 -0.1089223252490939958 0 1 0 0 0 1.395212499999999967 1 F 1.016061775784201426 F 5.267123531395380809 #
coedge $-1 -1 $-1 $76 $76 $43 $77 forward $128 0 $-1 #
edge $129 54 $-1 $130 0 $130 6.283185307179586232 $43 $131 forward @7 unknown #
loop $-1 -1 $-1 $111 $44 $132 #
DXID-attrib $-1 -1 $-1 $-1 $45 @18 ASM_EDGE_FROM_STEP @4 9081 #
vertex $-1 26 $-1 $45 0 $133 #
ellipse-curve $-1 -1 $-1 6.264985367604589683 -0.009999999999999649794 0.891077674750907045 0 1 0 0 0 0.04587000000000750199 1 I I #
coedge $-1 -1 $-1 $134 $46 $135 $136 forward $10 0 $-1 #
coedge $-1 -1 $-1 $137 $138 $46 $84 reversed $61 0 $-1 #
edge $139 4 $-1 $88 -2.633397333991794653 $140 -1.518745046057544457 $46 $141 forward @7 unknown #
coedge $-1 -1 $-1 $63 $47 $53 $100 forward $35 0 $-1 #
coedge $-1 -1 $-1 $47 $63 $137 $142 reversed $35 0 $-1 #
DXID-attrib $-1 -1 $-1 $-1 $48 @18 ASM_EDGE_FROM_STEP @4 9066 #
vertex $-1 12 $-1 $48 1 $143 #
ellipse-curve $-1 -1 $-1 5.006643784051520107 -0.009999999999999649794 0.00755985947407076999 0 1 0 0 0 0.9174000000000009925 1 F -0.8310779686368341412 F -0.5081953195980490889 #
coedge $-1 -1 $-1 $49 $144 $145 $146 forward $10 0 $-1 #
coedge $-1 -1 $-1 $147 $148 $49 $92 reversed $149 0 $-1 #
edge $150 51 $-1 $151 -1.622847607532249326 $97 -0.5081953195979976856 $49 $152 forward @7 unknown #
coedge $-1 -1 $-1 $68 $50 $148 $153 forward $95 0 $-1 #
coedge $-1 -1 $-1 $50 $68 $52 $99 reversed $95 0 $-1 #
loop $-1 -1 $-1 $-1 $68 $154 #
DXID-attrib $-1 -1 $-1 $-1 $51 @18 ASM_EDGE_FROM_STEP @4 9080 #
vertex $-1 25 $-1 $92 1 $155 #
ellipse-curve $-1 -1 $-1 6.023326951157650377 -0.009999999999999649794 0.007559859474071290407 0 1 0 0 0 -0.9174000000000009925 1 F -2.633397333991744027 F -2.310514684952959197 #
edge $156 74 $-1 $55 0 $73 0.9999999999999995559 $52 $157 forward @7 unknown #
edge $158 73 $-1 $56 0 $74 0.9999999999999995559 $53 $159 forward @7 unknown #
point $-1 -1 $-1 6.700972201378929682 -0.009999999999999649794 0.6259607608742400187 #
point $-1 -1 $-1 4.328998533830239914 -0.009999999999999649794 0.6259607608742400187 #
DXID-attrib $-1 -1 $-1 $59 $34 @18 ASM_FACE_FROM_STEP @5 14792 #
ATTRIB_CUSTOM-attrib $-1 -1 $160 $-1 $60 @22 generic_tag_attrib_def 3 3 -1 @23 generic_tag_attrib_def  1 1 @1 5 0 4 366 486 649 782 0 #
face $161 95 $-1 $162 $163 $5 $-1 $164 forward single #
loop $-1 -1 $-1 $-1 $165 $60 #
cone-surface $-1 -1 $-1 4.711304618925399978 -0.009999999999999649794 0.9067905644784699515 0 -1 0 0 0 -0.1000000000000000056 1 I I 0 1 0.1000000000000000056 forward I I I I #
coedge $-1 -1 $-1 $138 $137 $70 $122 forward $61 0 $-1 #
coedge $-1 -1 $-1 $109 $109 $64 $110 reversed $166 0 $-1 #
edge $167 72 $-1 $168 0 $168 6.283185307179586232 $64 $169 forward @7 unknown #
loop $-1 -1 $-1 $-1 $65 $132 #
DXID-attrib $-1 -1 $-1 $-1 $66 @18 ASM_EDGE_FROM_STEP @4 9099 #
vertex $-1 44 $-1 $66 0 $170 #
ellipse-curve $-1 -1 $-1 6.264985367604589683 -0.0999999999999996031 0.891077674750907045 0 1 0 0 0 0.04587000000000750199 1 I I #
coedge $-1 -1 $-1 $171 $67 $172 $173 reversed $15 0 $-1 #
coedge $-1 -1 $-1 $148 $147 $67 $117 forward $149 0 $-1 #
edge $174 57 $-1 $175 -1.622847607532249326 $119 -0.5081953195979976856 $67 $176 forward @7 unknown #
DXID-attrib $-1 -1 $-1 $-1 $69 @18 ASM_EDGE_FROM_STEP @4 9084 #
vertex $-1 30 $-1 $69 0 $177 #
ellipse-curve $-1 -1 $-1 6.023326951157650377 -0.0999999999999996031 0.007559859474071290407 0 1 0 0 0 -0.9174000000000009925 1 F -2.633397333991744027 F -2.310514684952959197 #
coedge $-1 -1 $-1 $70 $178 $165 $179 reversed $15 0 $-1 #
edge $180 69 $-1 $124 -2.633397333991794653 $181 -1.518745046057544457 $70 $182 forward @7 unknown #
DXID-attrib $-1 -1 $-1 $-1 $71 @18 ASM_EDGE_FROM_STEP @4 9098 #
vertex $-1 43 $-1 $122 0 $183 #
ellipse-curve $-1 -1 $-1 5.006643784051520107 -0.0999999999999996031 0.00755985947407076999 0 1 0 0 0 0.9174000000000009925 1 F -0.8310779686368341412 F -0.5081953195980490889 #
point $-1 -1 $-1 6.700972201378929682 -0.0999999999999996031 0.6259607608742400187 #
point $-1 -1 $-1 4.328998533830239914 -0.0999999999999996031 0.6259607608742400187 #
loop $-1 -1 $-1 $166 $76 $184 #
DXID-attrib $-1 -1 $-1 $-1 $77 @18 ASM_EDGE_FROM_STEP @4 9082 #
vertex $-1 27 $-1 $77 0 $185 #
ellipse-curve $-1 -1 $-1 4.764985367604589683 -0.009999999999999649794 0.891077674750907045 0 1 0 0 0 0.04586999999999800265 1 I I #
face $186 108 $-1 $-1 $78 $5 $-1 $187 reversed single #
point $-1 -1 $-1 6.264985367604589683 -0.009999999999999649794 0.936947674750915005 #
coedge $-1 -1 $-1 $188 $82 $189 $190 forward $10 0 $-1 #
coedge $-1 -1 $-1 $191 $192 $82 $136 reversed $106 0 $-1 #
edge $193 5 $-1 $140 1.518745046057540016 $194 2.472211152992935812 $82 $195 forward @7 unknown #
coedge $-1 -1 $-1 $108 $83 $86 $142 forward $61 0 $-1 #
coedge $-1 -1 $-1 $83 $108 $191 $196 reversed $61 0 $-1 #
DXID-attrib $-1 -1 $-1 $-1 $84 @18 ASM_EDGE_FROM_STEP @4 9067 #
vertex $-1 13 $-1 $84 1 $197 #
ellipse-curve $-1 -1 $-1 4.511575491342729727 -0.009999999999999649794 0.8963850085075599772 0 -1 0 0 0 0.09999999999999970024 1 F -2.633397333991794653 F -1.518745046057544457 #
edge $198 75 $-1 $88 0 $124 0.9999999999999995559 $86 $199 forward @14 tangent_not_g2 #
point $-1 -1 $-1 4.560235634129120363 -0.009999999999999649794 0.8090225995205849729 #
coedge $-1 -1 $-1 $90 $200 $201 $202 forward $10 0 $-1 #
coedge $-1 -1 $-1 $203 $204 $90 $146 reversed $205 0 $-1 #
edge $206 50 $-1 $207 0.6693815005967700404 $151 1.622847607532253322 $90 $208 forward @7 unknown #
coedge $-1 -1 $-1 $116 $91 $204 $209 forward $149 0 $-1 #
coedge $-1 -1 $-1 $91 $116 $93 $153 reversed $149 0 $-1 #
loop $-1 -1 $-1 $-1 $116 $210 #
DXID-attrib $-1 -1 $-1 $-1 $92 @18 ASM_EDGE_FROM_STEP @4 9079 #
vertex $-1 24 $-1 $146 1 $211 #
ellipse-curve $-1 -1 $-1 6.51839524386643987 -0.009999999999999649794 0.8963850085075599772 0 -1 0 0 0 -0.0999999999999996031 1 F -1.622847607532249326 F -0.5081953195979976856 #
edge $212 88 $-1 $97 0 $119 0.9999999999999995559 $148 $213 forward @14 tangent_not_g2 #
face $214 106 $-1 $184 $95 $5 $-1 $215 forward single #
point $-1 -1 $-1 6.469735101080050121 -0.009999999999999649794 0.8090225995205849729 #
DXID-attrib $-1 -1 $-1 $-1 $99 @18 ASM_EDGE_FROM_STEP @4 9102 #
straight-curve $-1 -1 $-1 6.700972201378929682 -0.009999999999999649794 0.6259607608742400187 0 -0.08999999999999999667 0 F 0 F 0.9999999999999995559 #
DXID-attrib $-1 -1 $-1 $-1 $100 @18 ASM_EDGE_FROM_STEP @4 9101 #
straight-curve $-1 -1 $-1 4.328998533830239914 -0.009999999999999649794 0.6259607608742400187 0 -0.08999999999999999667 0 F 0 F 0.9999999999999995559 #
DXID-attrib $-1 -1 $-1 $104 $60 @18 ASM_FACE_FROM_STEP @5 14793 #
ATTRIB_CUSTOM-attrib $-1 -1 $216 $-1 $105 @22 generic_tag_attrib_def 3 3 -1 @23 generic_tag_attrib_def  1 1 @1 6 0 4 366 486 649 782 0 #
face $217 96 $-1 $218 $219 $5 $-1 $220 forward single #
loop $-1 -1 $-1 $-1 $221 $105 #
cone-surface $-1 -1 $-1 5.514985367604589683 -0.009999999999999649794 -0.1089223252490939958 0 -1 0 0 0 -1.395212499999999967 1 I I 0 1 1.395212499999999967 forward I I I I #
coedge $-1 -1 $-1 $192 $191 $121 $179 forward $106 0 $-1 #
loop $-1 -1 $-1 $-1 $109 $184 #
DXID-attrib $-1 -1 $-1 $-1 $110 @18 ASM_EDGE_FROM_STEP @4 9100 #
vertex $-1 45 $-1 $110 0 $222 #
ellipse-curve $-1 -1 $-1 4.764985367604589683 -0.0999999999999996031 0.891077674750907045 0 1 0 0 0 0.04586999999999800265 1 I I #
point $-1 -1 $-1 6.264985367604589683 -0.0999999999999996031 0.936947674750915005 #
coedge $-1 -1 $-1 $223 $115 $224 $225 reversed $15 0 $-1 #
coedge $-1 -1 $-1 $204 $203 $115 $173 forward $205 0 $-1 #
edge $226 58 $-1 $227 0.6693815005967700404 $175 1.622847607532253322 $115 $228 forward @7 unknown #
DXID-attrib $-1 -1 $-1 $-1 $117 @18 ASM_EDGE_FROM_STEP @4 9085 #
vertex $-1 31 $-1 $117 0 $229 #
ellipse-curve $-1 -1 $-1 6.51839524386643987 -0.0999999999999996031 0.8963850085075599772 0 -1 0 0 0 -0.0999999999999996031 1 F -1.622847607532249326 F -0.5081953195979976856 #
point $-1 -1 $-1 6.469735101080050121 -0.0999999999999996031 0.8090225995205849729 #
coedge $-1 -1 $-1 $121 $230 $221 $231 reversed $15 0 $-1 #
edge $232 68 $-1 $181 1.518745046057540016 $233 2.472211152992935812 $121 $234 forward @7 unknown #
DXID-attrib $-1 -1 $-1 $-1 $122 @18 ASM_EDGE_FROM_STEP @4 9097 #
vertex $-1 42 $-1 $179 0 $235 #
ellipse-curve $-1 -1 $-1 4.511575491342729727 -0.0999999999999996031 0.8963850085075599772 0 -1 0 0 0 0.09999999999999970024 1 F -2.633397333991794653 F -1.518745046057544457 #
point $-1 -1 $-1 4.560235634129120363 -0.0999999999999996031 0.8090225995205849729 #
face $236 107 $-1 $132 $128 $5 $-1 $237 reversed single #
point $-1 -1 $-1 4.764985367604589683 -0.009999999999999649794 0.936947674750905013 #
ATTRIB_CUSTOM-attrib $-1 -1 $238 $-1 $132 @22 generic_tag_attrib_def 3 3 -1 @23 generic_tag_attrib_def  1 2 @2 19 0 4 366 486 649 782 0 #
cone-surface $-1 -1 $-1 6.264985367604589683 -0.009999999999999649794 0.891077674750907045 0 -1 0 0 0 -0.04587000000000750199 1 I I 0 1 0.04587000000000750199 forward I I I I #
coedge $-1 -1 $-1 $239 $134 $240 $241 forward $10 0 $-1 #
coedge $-1 -1 $-1 $242 $243 $134 $190 reversed $163 0 $-1 #
edge $244 6 $-1 $194 -0.6693815005968438703 $245 -0.3754972602557298811 $134 $246 forward @7 unknown #
coedge $-1 -1 $-1 $165 $135 $138 $196 forward $106 0 $-1 #
coedge $-1 -1 $-1 $135 $165 $242 $247 reversed $106 0 $-1 #
DXID-attrib $-1 -1 $-1 $-1 $136 @18 ASM_EDGE_FROM_STEP @4 9068 #
vertex $-1 14 $-1 $136 1 $248 #
ellipse-curve $-1 -1 $-1 4.711304618925399978 -0.009999999999999649794 0.9067905644784699515 0 1 0 0 0 -0.1000000000000000056 1 F 1.518745046057540016 F 2.472211152992935812 #
edge $249 76 $-1 $140 0 $181 0.9999999999999995559 $138 $250 forward @14 tangent_not_g2 #
point $-1 -1 $-1 4.611440055134069738 -0.009999999999999649794 0.9015877864930149643 #
DXID-attrib $-1 -1 $-1 $-1 $142 @18 ASM_EDGE_FROM_STEP @4 9103 #
straight-curve $-1 -1 $-1 4.560235634129120363 -0.009999999999999649794 0.8090225995205849729 0 -0.08999999999999999667 0 F 0 F 0.9999999999999995559 #
coedge $-1 -1 $-1 $144 $251 $252 $253 forward $10 0 $-1 #
coedge $-1 -1 $-1 $254 $255 $144 $202 reversed $256 0 $-1 #
edge $257 49 $-1 $258 0.37549726025572433 $207 0.669381500596832324 $144 $259 forward @7 unknown #
coedge $-1 -1 $-1 $172 $145 $255 $260 forward $205 0 $-1 #
coedge $-1 -1 $-1 $145 $172 $147 $209 reversed $205 0 $-1 #
loop $-1 -1 $-1 $-1 $172 $261 #
DXID-attrib $-1 -1 $-1 $-1 $146 @18 ASM_EDGE_FROM_STEP @4 9078 #
vertex $-1 23 $-1 $202 1 $262 #
ellipse-curve $-1 -1 $-1 6.318666116283769618 -0.009999999999999649794 0.9067905644784699515 0 1 0 0 0 0.1000000000000000056 1 F 0.6693815005967700404 F 1.622847607532253322 #
edge $263 87 $-1 $151 0 $175 0.9999999999999995559 $204 $264 forward @14 tangent_not_g2 #
face $265 105 $-1 $154 $149 $5 $-1 $266 reversed single #
point $-1 -1 $-1 6.418530680075099859 -0.009999999999999649794 0.9015877864930149643 #
DXID-attrib $-1 -1 $-1 $-1 $153 @18 ASM_EDGE_FROM_STEP @4 9116 #
straight-curve $-1 -1 $-1 6.469735101080050121 -0.009999999999999649794 0.8090225995205849729 0 -0.08999999999999999667 0 F 0 F 0.9999999999999995559 #
ATTRIB_CUSTOM-attrib $-1 -1 $267 $-1 $154 @22 generic_tag_attrib_def 3 3 -1 @23 generic_tag_attrib_def  1 2 @2 17 0 4 366 486 649 782 0 #
cone-surface $-1 -1 $-1 6.023326951157650377 -0.009999999999999649794 0.007559859474071290407 0 -1 0 0 0 -0.9174000000000009925 1 I I 0 1 0.9174000000000009925 forward I I I I #
DXID-attrib $-1 -1 $-1 $161 $105 @18 ASM_FACE_FROM_STEP @5 14794 #
ATTRIB_CUSTOM-attrib $-1 -1 $268 $-1 $162 @22 generic_tag_attrib_def 3 3 -1 @23 generic_tag_attrib_def  1 1 @1 7 0 4 366 486 649 782 0 #
face $269 97 $-1 $270 $271 $5 $-1 $272 reversed single #
loop $-1 -1 $-1 $-1 $273 $162 #
cone-surface $-1 -1 $-1 5.039985367604580269 -0.009999999999999649794 1.096046728360269951 0 -1 0 0 0 -0.1000000000000000056 1 I I 0 1 0.1000000000000000056 forward I I I I #
coedge $-1 -1 $-1 $243 $242 $178 $231 forward $163 0 $-1 #
point $-1 -1 $-1 4.764985367604589683 -0.0999999999999996031 0.936947674750905013 #
coedge $-1 -1 $-1 $274 $171 $275 $276 reversed $15 0 $-1 #
coedge $-1 -1 $-1 $255 $254 $171 $225 forward $256 0 $-1 #
edge $277 59 $-1 $278 0.37549726025572433 $227 0.669381500596832324 $171 $279 forward @7 unknown #
DXID-attrib $-1 -1 $-1 $-1 $173 @18 ASM_EDGE_FROM_STEP @4 9086 #
vertex $-1 32 $-1 $173 0 $280 #
ellipse-curve $-1 -1 $-1 6.318666116283769618 -0.0999999999999996031 0.9067905644784699515 0 1 0 0 0 0.1000000000000000056 1 F 0.6693815005967700404 F 1.622847607532253322 #
point $-1 -1 $-1 6.418530680075099859 -0.0999999999999996031 0.9015877864930149643 #
coedge $-1 -1 $-1 $178 $281 $273 $282 reversed $15 0 $-1 #
edge $283 67 $-1 $233 -0.6693815005968438703 $284 -0.3754972602557298811 $178 $285 forward @7 unknown #
DXID-attrib $-1 -1 $-1 $-1 $179 @18 ASM_EDGE_FROM_STEP @4 9096 #
vertex $-1 41 $-1 $231 0 $286 #
ellipse-curve $-1 -1 $-1 4.711304618925399978 -0.0999999999999996031 0.9067905644784699515 0 1 0 0 0 -0.1000000000000000056 1 F 1.518745046057540016 F 2.472211152992935812 #
point $-1 -1 $-1 4.611440055134069738 -0.0999999999999996031 0.9015877864930149643 #
ATTRIB_CUSTOM-attrib $-1 -1 $287 $-1 $184 @22 generic_tag_attrib_def 3 3 -1 @23 generic_tag_attrib_def  1 2 @2 18 0 4 366 486 649 782 0 #
cone-surface $-1 -1 $-1 4.764985367604589683 -0.009999999999999649794 0.891077674750907045 0 -1 0 0 0 -0.04586999999999800265 1 I I 0 1 0.04586999999999800265 forward I I I I #
DXID-attrib $-1 -1 $-1 $186 $132 @18 ASM_FACE_FROM_STEP @5 14807 #
coedge $-1 -1 $-1 $288 $188 $289 $290 forward $10 0 $-1 #
coedge $-1 -1 $-1 $291 $292 $188 $241 reversed $219 0 $-1 #
edge $293 7 $-1 $245 2.766095393334092378 $294 4.712388980384689674 $188 $295 forward @7 unknown #
coedge $-1 -1 $-1 $221 $189 $192 $247 forward $163 0 $-1 #
coedge $-1 -1 $-1 $189 $221 $291 $296 reversed $163 0 $-1 #
DXID-attrib $-1 -1 $-1 $-1 $190 @18 ASM_EDGE_FROM_STEP @4 9069 #
vertex $-1 15 $-1 $190 1 $297 #
ellipse-curve $-1 -1 $-1 5.514985367604589683 -0.009999999999999649794 -0.1089223252490939958 0 1 0 0 0 1.395212499999999967 1 F -0.6693815005968438703 F -0.3754972602557298811 #
edge $298 77 $-1 $194 0 $233 0.9999999999999995559 $192 $299 forward @14 tangent_not_g2 #
point $-1 -1 $-1 4.649254511419550262 -0.009999999999999649794 0.9852111240181250507 #
DXID-attrib $-1 -1 $-1 $-1 $196 @18 ASM_EDGE_FROM_STEP @4 9104 #
straight-curve $-1 -1 $-1 4.611440055134069738 -0.009999999999999649794 0.9015877864930149643 0 -0.08999999999999999667 0 F 0 F 0.9999999999999995559 #
coedge $-1 -1 $-1 $200 $300 $301 $302 forward $10 0 $-1 #
coedge $-1 -1 $-1 $303 $304 $200 $253 reversed $305 0 $-1 #
edge $306 48 $-1 $307 1.570796326794896558 $258 3.517089913845598659 $200 $308 forward @7 unknown #
coedge $-1 -1 $-1 $224 $201 $304 $309 forward $256 0 $-1 #
coedge $-1 -1 $-1 $201 $224 $203 $260 reversed $256 0 $-1 #
loop $-1 -1 $-1 $-1 $224 $310 #
DXID-attrib $-1 -1 $-1 $-1 $202 @18 ASM_EDGE_FROM_STEP @4 9077 #
vertex $-1 22 $-1 $253 1 $311 #
ellipse-curve $-1 -1 $-1 5.514985367604589683 -0.009999999999999649794 -0.1089223252490939958 0 1 0 0 0 1.395212499999999967 1 F 0.37549726025572433 F 0.669381500596832324 #
edge $312 86 $-1 $207 0 $227 0.9999999999999995559 $255 $313 forward @14 tangent_not_g2 #
face $314 104 $-1 $210 $205 $5 $-1 $315 forward single #
point $-1 -1 $-1 6.380716223789609565 -0.009999999999999649794 0.9852111240181260499 #
DXID-attrib $-1 -1 $-1 $-1 $209 @18 ASM_EDGE_FROM_STEP @4 9115 #
straight-curve $-1 -1 $-1 6.418530680075099859 -0.009999999999999649794 0.9015877864930149643 0 -0.08999999999999999667 0 F 0 F 0.9999999999999995559 #
ATTRIB_CUSTOM-attrib $-1 -1 $316 $-1 $210 @22 generic_tag_attrib_def 3 3 -1 @23 generic_tag_attrib_def  1 2 @2 16 0 4 366 486 649 782 0 #
cone-surface $-1 -1 $-1 6.51839524386643987 -0.009999999999999649794 0.8963850085075599772 0 -1 0 0 0 -0.0999999999999996031 1 I I 0 1 0.0999999999999996031 forward I I I I #
DXID-attrib $-1 -1 $-1 $214 $154 @18 ASM_FACE_FROM_STEP @5 14805 #
DXID-attrib $-1 -1 $-1 $217 $162 @18 ASM_FACE_FROM_STEP @5 14795 #
ATTRIB_CUSTOM-attrib $-1 -1 $317 $-1 $218 @22 generic_tag_attrib_def 3 3 -1 @23 generic_tag_attrib_def  1 1 @1 8 0 4 366 486 649 782 0 #
face $318 98 $-1 $319 $320 $5 $-1 $321 forward single #
loop $-1 -1 $-1 $-1 $322 $218 #
plane-surface $-1 -1 $-1 5.139985367604579913 -0.009999999999999649794 1.096046728360269951 -1 0 0 0 0 1 forward_v I I I I #
coedge $-1 -1 $-1 $292 $291 $230 $282 forward $219 0 $-1 #
coedge $-1 -1 $-1 $323 $223 $324 $325 reversed $15 0 $-1 #
coedge $-1 -1 $-1 $304 $303 $223 $276 forward $305 0 $-1 #
edge $326 60 $-1 $327 1.570796326794896558 $278 3.517089913845598659 $223 $328 forward @7 unknown #
DXID-attrib $-1 -1 $-1 $-1 $225 @18 ASM_EDGE_FROM_STEP @4 9087 #
vertex $-1 33 $-1 $225 0 $329 #
ellipse-curve $-1 -1 $-1 5.514985367604589683 -0.0999999999999996031 -0.1089223252490939958 0 1 0 0 0 1.395212499999999967 1 F 0.37549726025572433 F 0.669381500596832324 #
point $-1 -1 $-1 6.380716223789609565 -0.0999999999999996031 0.9852111240181260499 #
coedge $-1 -1 $-1 $230 $330 $322 $331 reversed $15 0 $-1 #
edge $332 66 $-1 $284 2.766095393334092378 $333 4.712388980384689674 $230 $334 forward @7 unknown #
DXID-attrib $-1 -1 $-1 $-1 $231 @18 ASM_EDGE_FROM_STEP @4 9095 #
vertex $-1 40 $-1 $282 0 $335 #
ellipse-curve $-1 -1 $-1 5.514985367604589683 -0.0999999999999996031 -0.1089223252490939958 0 1 0 0 0 1.395212499999999967 1 F -0.6693815005968438703 F -0.3754972602557298811 #
point $-1 -1 $-1 4.649254511419550262 -0.0999999999999996031 0.9852111240181250507 #
DXID-attrib $-1 -1 $-1 $236 $184 @18 ASM_FACE_FROM_STEP @5 14806 #
coedge $-1 -1 $-1 $336 $239 $337 $338 forward $10 0 $-1 #
coedge $-1 -1 $-1 $339 $340 $239 $290 reversed $271 0 $-1 #
edge $341 8 $-1 $294 0 $342 0.999999999999995004 $239 $343 forward @7 unknown #
coedge $-1 -1 $-1 $273 $240 $243 $296 forward $219 0 $-1 #
coedge $-1 -1 $-1 $240 $273 $339 $344 reversed $219 0 $-1 #
DXID-attrib $-1 -1 $-1 $-1 $241 @18 ASM_EDGE_FROM_STEP @4 9070 #
vertex $-1 16 $-1 $241 1 $345 #
ellipse-curve $-1 -1 $-1 5.039985367604580269 -0.009999999999999649794 1.096046728360269951 0 1 0 0 0 -0.1000000000000000056 1 F 2.766095393334092378 F 4.712388980384689674 #
edge $346 78 $-1 $245 0 $284 0.9999999999999995559 $243 $347 forward @14 tangent_not_g2 #
point $-1 -1 $-1 5.003311848780450433 -0.009999999999999649794 1.189079265770879967 #
DXID-attrib $-1 -1 $-1 $-1 $247 @18 ASM_EDGE_FROM_STEP @4 9105 #
straight-curve $-1 -1 $-1 4.649254511419550262 -0.009999999999999649794 0.9852111240181250507 0 -0.08999999999999999667 0 F 0 F 0.9999999999999995559 #
coedge $-1 -1 $-1 $251 $336 $348 $349 forward $10 0 $-1 #
coedge $-1 -1 $-1 $350 $351 $251 $302 reversed $352 0 $-1 #
edge $353 47 $-1 $354 0 $307 0.9999999999999912292 $251 $355 forward @7 unknown #
coedge $-1 -1 $-1 $275 $252 $351 $356 forward $305 0 $-1 #
coedge $-1 -1 $-1 $252 $275 $254 $309 reversed $305 0 $-1 #
loop $-1 -1 $-1 $-1 $275 $357 #
DXID-attrib $-1 -1 $-1 $-1 $253 @18 ASM_EDGE_FROM_STEP @4 9076 #
vertex $-1 21 $-1 $302 1 $358 #
ellipse-curve $-1 -1 $-1 5.989985367604579558 -0.009999999999999649794 1.096046728360269951 0 1 0 0 0 -0.09999999999999989453 1 F 1.570796326794896558 F 3.517089913845598659 #
edge $359 85 $-1 $258 0 $278 0.9999999999999995559 $304 $360 forward @14 tangent_not_g2 #
face $361 103 $-1 $261 $256 $5 $-1 $362 forward single #
point $-1 -1 $-1 6.026658886428720052 -0.009999999999999649794 1.189079265770879967 #
DXID-attrib $-1 -1 $-1 $-1 $260 @18 ASM_EDGE_FROM_STEP @4 9114 #
straight-curve $-1 -1 $-1 6.380716223789609565 -0.009999999999999649794 0.9852111240181260499 0 -0.08999999999999999667 0 F 0 F 0.9999999999999995559 #
ATTRIB_CUSTOM-attrib $-1 -1 $363 $-1 $261 @22 generic_tag_attrib_def 3 3 -1 @23 generic_tag_attrib_def  1 2 @2 15 0 4 366 486 649 782 0 #
cone-surface $-1 -1 $-1 6.318666116283769618 -0.009999999999999649794 0.9067905644784699515 0 -1 0 0 0 -0.1000000000000000056 1 I I 0 1 0.1000000000000000056 forward I I I I #
DXID-attrib $-1 -1 $-1 $265 $210 @18 ASM_FACE_FROM_STEP @5 14804 #
DXID-attrib $-1 -1 $-1 $269 $218 @18 ASM_FACE_FROM_STEP @5 14796 #
ATTRIB_CUSTOM-attrib $-1 -1 $364 $-1 $270 @22 generic_tag_attrib_def 3 3 -1 @23 generic_tag_attrib_def  1 1 @1 9 0 4 366 486 649 782 0 #
face $365 99 $-1 $366 $367 $5 $-1 $368 reversed single #
loop $-1 -1 $-1 $-1 $369 $270 #
cone-surface $-1 -1 $-1 5.039985367604580269 -0.009999999999999649794 1.043796444659679912 0 -1 0 0 0 -0.1000000000000000056 1 I I 0 1 0.1000000000000000056 forward I I I I #
coedge $-1 -1 $-1 $340 $339 $281 $331 forward $271 0 $-1 #
coedge $-1 -1 $-1 $370 $274 $371 $372 reversed $15 0 $-1 #
coedge $-1 -1 $-1 $351 $350 $274 $325 forward $352 0 $-1 #
edge $373 61 $-1 $374 0 $327 0.9999999999999912292 $274 $375 forward @7 unknown #
DXID-attrib $-1 -1 $-1 $-1 $276 @18 ASM_EDGE_FROM_STEP @4 9088 #
vertex $-1 34 $-1 $276 0 $376 #
ellipse-curve $-1 -1 $-1 5.989985367604579558 -0.0999999999999996031 1.096046728360269951 0 1 0 0 0 -0.09999999999999989453 1 F 1.570796326794896558 F 3.517089913845598659 #
point $-1 -1 $-1 6.026658886428720052 -0.0999999999999996031 1.189079265770879967 #
coedge $-1 -1 $-1 $281 $370 $369 $377 reversed $15 0 $-1 #
edge $378 65 $-1 $333 0 $379 0.999999999999995004 $281 $380 forward @7 unknown #
DXID-attrib $-1 -1 $-1 $-1 $282 @18 ASM_EDGE_FROM_STEP @4 9094 #
vertex $-1 39 $-1 $331 0 $381 #
ellipse-curve $-1 -1 $-1 5.039985367604580269 -0.0999999999999996031 1.096046728360269951 0 1 0 0 0 -0.1000000000000000056 1 F 2.766095393334092378 F 4.712388980384689674 #
point $-1 -1 $-1 5.003311848780450433 -0.0999999999999996031 1.189079265770879967 #
coedge $-1 -1 $-1 $300 $288 $382 $383 forward $10 0 $-1 #
coedge $-1 -1 $-1 $384 $385 $288 $338 reversed $320 0 $-1 #
edge $386 9 $-1 $342 1.570796326794896558 $387 2.750725213161861138 $288 $388 forward @7 unknown #
coedge $-1 -1 $-1 $322 $289 $292 $344 forward $271 0 $-1 #
coedge $-1 -1 $-1 $289 $322 $384 $389 reversed $271 0 $-1 #
DXID-attrib $-1 -1 $-1 $-1 $290 @18 ASM_EDGE_FROM_STEP @4 9071 #
vertex $-1 17 $-1 $290 1 $390 #
straight-curve $-1 -1 $-1 5.139985367604579913 -0.009999999999999649794 1.096046728360269951 0 0 -0.05225028370059030258 F 0 F 0.999999999999995004 #
edge $391 79 $-1 $294 0 $333 0.9999999999999995559 $292 $392 forward @14 tangent_not_g2 #
point $-1 -1 $-1 5.139985367604579913 -0.009999999999999649794 1.096046728360269951 #
DXID-attrib $-1 -1 $-1 $-1 $296 @18 ASM_EDGE_FROM_STEP @4 9106 #
straight-curve $-1 -1 $-1 5.003311848780450433 -0.009999999999999649794 1.189079265770879967 0 -0.08999999999999999667 0 F 0 F 0.9999999999999995559 #
coedge $-1 -1 $-1 $393 $394 $300 $349 reversed $395 0 $-1 #
edge $396 46 $-1 $397 0.3908674404278366099 $354 1.570796326794896558 $300 $398 forward @7 unknown #
coedge $-1 -1 $-1 $324 $301 $394 $399 forward $352 0 $-1 #
coedge $-1 -1 $-1 $301 $324 $303 $356 reversed $352 0 $-1 #
loop $-1 -1 $-1 $-1 $324 $400 #
DXID-attrib $-1 -1 $-1 $-1 $302 @18 ASM_EDGE_FROM_STEP @4 9075 #
vertex $-1 20 $-1 $349 1 $401 #
straight-curve $-1 -1 $-1 5.889985367604579913 -0.009999999999999649794 1.043796444659679912 0 0 0.05225028370059049687 F 0 F 0.9999999999999912292 #
edge $402 84 $-1 $307 0 $327 0.9999999999999995559 $351 $403 forward @14 tangent_not_g2 #
face $404 102 $-1 $310 $305 $5 $-1 $405 forward single #
point $-1 -1 $-1 5.889985367604579913 -0.009999999999999649794 1.096046728360269951 #
DXID-attrib $-1 -1 $-1 $-1 $309 @18 ASM_EDGE_FROM_STEP @4 9113 #
straight-curve $-1 -1 $-1 6.026658886428720052 -0.009999999999999649794 1.189079265770879967 0 -0.08999999999999999667 0 F 0 F 0.9999999999999995559 #
ATTRIB_CUSTOM-attrib $-1 -1 $406 $-1 $310 @22 generic_tag_attrib_def 3 3 -1 @23 generic_tag_attrib_def  1 2 @2 14 0 4 366 486 649 782 0 #
cone-surface $-1 -1 $-1 5.514985367604589683 -0.009999999999999649794 -0.1089223252490939958 0 -1 0 0 0 -1.395212499999999967 1 I I 0 1 1.395212499999999967 forward I I I I #
DXID-attrib $-1 -1 $-1 $314 $261 @18 ASM_FACE_FROM_STEP @5 14803 #
DXID-attrib $-1 -1 $-1 $318 $270 @18 ASM_FACE_FROM_STEP @5 14797 #
ATTRIB_CUSTOM-attrib $-1 -1 $407 $-1 $319 @22 generic_tag_attrib_def 3 3 -1 @23 generic_tag_attrib_def  1 2 @2 10 0 4 366 486 649 782 0 #
face $408 100 $-1 $400 $395 $5 $-1 $409 forward single #
loop $-1 -1 $-1 $-1 $410 $319 #
cone-surface $-1 -1 $-1 5.514985367604589683 -0.009999999999999649794 -0.1089223252490939958 0 -1 0 0 0 -1.146749999999999936 1 I I 0 1 1.146749999999999936 forward I I I I #
coedge $-1 -1 $-1 $385 $384 $330 $377 forward $320 0 $-1 #
coedge $-1 -1 $-1 $330 $323 $410 $411 reversed $15 0 $-1 #
coedge $-1 -1 $-1 $394 $393 $323 $372 forward $395 0 $-1 #
edge $412 62 $-1 $413 0.3908674404278366099 $374 1.570796326794896558 $323 $414 forward @7 unknown #
DXID-attrib $-1 -1 $-1 $-1 $325 @18 ASM_EDGE_FROM_STEP @4 9089 #
vertex $-1 35 $-1 $325 0 $415 #
straight-curve $-1 -1 $-1 5.889985367604579913 -0.0999999999999996031 1.043796444659679912 0 0 0.05225028370059049687 F 0 F 0.9999999999999912292 #
point $-1 -1 $-1 5.889985367604579913 -0.0999999999999996031 1.096046728360269951 #
edge $416 64 $-1 $379 1.570796326794896558 $417 2.750725213161861138 $330 $418 forward @7 unknown #
DXID-attrib $-1 -1 $-1 $-1 $331 @18 ASM_EDGE_FROM_STEP @4 9093 #
vertex $-1 38 $-1 $377 0 $419 #
straight-curve $-1 -1 $-1 5.139985367604579913 -0.0999999999999996031 1.096046728360269951 0 0 -0.05225028370059030258 F 0 F 0.999999999999995004 #
point $-1 -1 $-1 5.139985367604579913 -0.0999999999999996031 1.096046728360269951 #
coedge $-1 -1 $-1 $420 $421 $336 $383 reversed $367 0 $-1 #
edge $422 1 $-1 $387 0.3908674404279307013 $397 5.892317866751662692 $336 $423 forward @7 unknown #
coedge $-1 -1 $-1 $369 $337 $340 $389 forward $320 0 $-1 #
coedge $-1 -1 $-1 $337 $369 $420 $424 reversed $320 0 $-1 #
DXID-attrib $-1 -1 $-1 $-1 $338 @18 ASM_EDGE_FROM_STEP @4 9072 #
vertex $-1 18 $-1 $338 1 $425 #
ellipse-curve $-1 -1 $-1 5.039985367604580269 -0.009999999999999649794 1.043796444659679912 0 1 0 0 0 0.1000000000000000056 1 F 1.570796326794896558 F 2.750725213161861138 #
edge $426 80 $-1 $342 0 $379 0.9999999999999995559 $340 $427 forward @14 tangent_not_g2 #
point $-1 -1 $-1 5.139985367604579913 -0.009999999999999649794 1.043796444659679912 #
DXID-attrib $-1 -1 $-1 $-1 $344 @18 ASM_EDGE_FROM_STEP @4 9107 #
straight-curve $-1 -1 $-1 5.139985367604579913 -0.009999999999999649794 1.096046728360269951 0 -0.08999999999999999667 0 F 0 F 0.9999999999999995559 #
coedge $-1 -1 $-1 $371 $348 $421 $428 forward $395 0 $-1 #
coedge $-1 -1 $-1 $348 $371 $350 $399 reversed $395 0 $-1 #
loop $-1 -1 $-1 $-1 $371 $366 #
DXID-attrib $-1 -1 $-1 $-1 $349 @18 ASM_EDGE_FROM_STEP @4 9074 #
vertex $-1 19 $-1 $383 1 $429 #
ellipse-curve $-1 -1 $-1 5.989985367604579558 -0.009999999999999649794 1.043796444659679912 0 1 0 0 0 -0.1000000000000000056 1 F 0.3908674404278366099 F 1.570796326794896558 #
edge $430 83 $-1 $354 0 $374 0.9999999999999995559 $394 $431 forward @14 tangent_not_g2 #
face $432 101 $-1 $357 $352 $5 $-1 $433 reversed single #
point $-1 -1 $-1 5.889985367604579913 -0.009999999999999649794 1.043796444659679912 #
DXID-attrib $-1 -1 $-1 $-1 $356 @18 ASM_EDGE_FROM_STEP @4 9112 #
straight-curve $-1 -1 $-1 5.889985367604579913 -0.009999999999999649794 1.096046728360269951 0 -0.08999999999999999667 0 F 0 F 0.9999999999999995559 #
ATTRIB_CUSTOM-attrib $-1 -1 $434 $-1 $357 @22 generic_tag_attrib_def 3 3 -1 @23 generic_tag_attrib_def  1 2 @2 13 0 4 366 486 649 782 0 #
cone-surface $-1 -1 $-1 5.989985367604579558 -0.009999999999999649794 1.096046728360269951 0 -1 0 0 0 -0.09999999999999989453 1 I I 0 1 0.09999999999999989453 forward I I I I #
DXID-attrib $-1 -1 $-1 $361 $310 @18 ASM_FACE_FROM_STEP @5 14802 #
DXID-attrib $-1 -1 $-1 $365 $319 @18 ASM_FACE_FROM_STEP @5 14798 #
ATTRIB_CUSTOM-attrib $-1 -1 $435 $-1 $366 @22 generic_tag_attrib_def 3 3 -1 @23 generic_tag_attrib_def  1 2 @2 11 0 4 366 486 649 782 0 #
cone-surface $-1 -1 $-1 5.989985367604579558 -0.009999999999999649794 1.043796444659679912 0 -1 0 0 0 -0.1000000000000000056 1 I I 0 1 0.1000000000000000056 forward I I I I #
coedge $-1 -1 $-1 $421 $420 $370 $411 forward $367 0 $-1 #
edge $436 63 $-1 $417 0.3908674404279307013 $413 5.892317866751662692 $370 $437 forward @7 unknown #
DXID-attrib $-1 -1 $-1 $-1 $372 @18 ASM_EDGE_FROM_STEP @4 9090 #
vertex $-1 36 $-1 $372 0 $438 #
ellipse-curve $-1 -1 $-1 5.989985367604579558 -0.0999999999999996031 1.043796444659679912 0 1 0 0 0 -0.1000000000000000056 1 F 0.3908674404278366099 F 1.570796326794896558 #
point $-1 -1 $-1 5.889985367604579913 -0.0999999999999996031 1.043796444659679912 #
DXID-attrib $-1 -1 $-1 $-1 $377 @18 ASM_EDGE_FROM_STEP @4 9092 #
vertex $-1 37 $-1 $411 0 $439 #
ellipse-curve $-1 -1 $-1 5.039985367604580269 -0.0999999999999996031 1.043796444659679912 0 1 0 0 0 0.1000000000000000056 1 F 1.570796326794896558 F 2.750725213161861138 #
point $-1 -1 $-1 5.139985367604579913 -0.0999999999999996031 1.043796444659679912 #
coedge $-1 -1 $-1 $410 $382 $385 $424 forward $367 0 $-1 #
coedge $-1 -1 $-1 $382 $410 $393 $428 reversed $367 0 $-1 #
DXID-attrib $-1 -1 $-1 $-1 $383 @18 ASM_EDGE_FROM_STEP @4 9073 #
ellipse-curve $-1 -1 $-1 5.514985367604589683 -0.009999999999999649794 -0.1089223252490939958 0 -1 0 0 0 1.146749999999999936 1 F 0.3908674404279307013 F 5.892317866751662692 #
edge $440 81 $-1 $387 0 $417 0.9999999999999995559 $385 $441 forward @14 tangent_not_g2 #
point $-1 -1 $-1 5.078084425154210102 -0.009999999999999649794 0.9513385525474870041 #
DXID-attrib $-1 -1 $-1 $-1 $389 @18 ASM_EDGE_FROM_STEP @4 9108 #
straight-curve $-1 -1 $-1 5.139985367604579913 -0.009999999999999649794 1.043796444659679912 0 -0.08999999999999999667 0 F 0 F 0.9999999999999995559 #
edge $442 82 $-1 $397 0 $413 0.9999999999999995559 $421 $443 forward @14 tangent_not_g2 #
point $-1 -1 $-1 5.951886310054960383 -0.009999999999999649794 0.9513385525474880033 #
DXID-attrib $-1 -1 $-1 $-1 $399 @18 ASM_EDGE_FROM_STEP @4 9111 #
straight-curve $-1 -1 $-1 5.889985367604579913 -0.009999999999999649794 1.043796444659679912 0 -0.08999999999999999667 0 F 0 F 0.9999999999999995559 #
ATTRIB_CUSTOM-attrib $-1 -1 $444 $-1 $400 @22 generic_tag_attrib_def 3 3 -1 @23 generic_tag_attrib_def  1 2 @2 12 0 4 366 486 649 782 0 #
plane-surface $-1 -1 $-1 5.889985367604579913 -0.009999999999999649794 1.096046728360269951 1 0 0 0 0 -1 forward_v I I I I #
DXID-attrib $-1 -1 $-1 $404 $357 @18 ASM_FACE_FROM_STEP @5 14801 #
DXID-attrib $-1 -1 $-1 $408 $366 @18 ASM_FACE_FROM_STEP @5 14799 #
DXID-attrib $-1 -1 $-1 $-1 $411 @18 ASM_EDGE_FROM_STEP @4 9091 #
ellipse-curve $-1 -1 $-1 5.514985367604589683 -0.0999999999999996031 -0.1089223252490939958 0 -1 0 0 0 1.146749999999999936 1 F 0.3908674404279307013 F 5.892317866751662692 #
point $-1 -1 $-1 5.951886310054960383 -0.0999999999999996031 0.9513385525474880033 #
point $-1 -1 $-1 5.078084425154210102 -0.0999999999999996031 0.9513385525474870041 #
DXID-attrib $-1 -1 $-1 $-1 $424 @18 ASM_EDGE_FROM_STEP @4 9109 #
straight-curve $-1 -1 $-1 5.078084425154210102 -0.009999999999999649794 0.9513385525474870041 0 -0.08999999999999999667 0 F 0 F 0.9999999999999995559 #
DXID-attrib $-1 -1 $-1 $-1 $428 @18 ASM_EDGE_FROM_STEP @4 9110 #
straight-curve $-1 -1 $-1 5.951886310054960383 -0.009999999999999649794 0.9513385525474880033 0 -0.08999999999999999667 0 F 0 F 0.9999999999999995559 #
DXID-attrib $-1 -1 $-1 $432 $400 @18 ASM_FACE_FROM_STEP @5 14800 #
End-of-ASM-data 