22700 0 2 4           
16 Autodesk Neutron 20 ASM 227.1.1.65535 NT 24 Thu Aug 26 00:06:32 2021 
10 9.999999999999999547e-07 1.000000000000000036e-10 
asmheader $-1 -1 @13 227.1.1.65535 #
body $2 0 $-1 $3 $-1 $-1 #
ATTRIB_CUSTOM-attrib $-1 -1 $4 $-1 $1 @20 Timestamp_attrib_def 1 1406915266000 #
lump $-1 -1 $-1 $-1 $5 $1 #
ATTRIB_CUSTOM-attrib $-1 -1 $6 $2 $1 @22 generic_tag_attrib_def 3 3 -1 @23 generic_tag_attrib_def  4 3 @3 370 1 0 0 3 @3 490 1 0 0 3 @3 652 1 0 0 3 @3 785 1 0 0 #
shell $-1 -1 $-1 $-1 $-1 $7 $-1 $3 #
DXID-attrib $-1 -1 $-1 $4 $1 @18 ASM_BODY_FROM_STEP @4 2684 #
face $8 55 $-1 $9 $10 $5 $-1 $11 forward single #
ATTRIB_CUSTOM-attrib $-1 -1 $12 $-1 $7 @22 generic_tag_attrib_def 3 3 -1 @23 generic_tag_attrib_def  1 1 @1 0 0 4 370 490 652 785 0 #
face $13 56 $-1 $14 $15 $5 $-1 $16 reversed single #
loop $-1 -1 $-1 $17 $18 $7 #
plane-surface $-1 -1 $-1 0 0 0 0 0 1 1 0 0 forward_v I I I I #
DXID-attrib $-1 -1 $-1 $8 $7 @18 ASM_FACE_FROM_STEP @5 14808 #
ATTRIB_CUSTOM-attrib $-1 -1 $19 $-1 $9 @22 generic_tag_attrib_def 3 3 -1 @23 generic_tag_attrib_def  1 1 @1 1 0 4 370 490 652 785 0 #
face $20 57 $-1 $21 $22 $5 $-1 $23 forward single #
loop $-1 -1 $-1 $24 $25 $9 #
plane-surface $-1 -1 $-1 0 0 -0.75 0 0 1 1 0 0 forward_v I I I I #
loop $-1 -1 $-1 $-1 $26 $7 #
coedge $-1 -1 $-1 $18 $18 $27 $28 forward $10 0 $-1 #
DXID-attrib $-1 -1 $-1 $13 $9 @18 ASM_FACE_FROM_STEP @5 14809 #
ATTRIB_CUSTOM-attrib $-1 -1 $29 $-1 $14 @22 generic_tag_attrib_def 3 3 -1 @23 generic_tag_attrib_def  1 1 @1 2 0 4 370 490 652 785 0 #
face $30 58 $-1 $31 $32 $5 $-1 $33 forward single #
loop $-1 -1 $-1 $34 $35 $14 #
cone-surface $-1 -1 $-1 0 0 -0.75 0 0 1 1.395000000000000018 0 0 1 I I 0 1 1.395000000000000018 forward I I I I #
loop $-1 -1 $-1 $-1 $36 $9 #
coedge $-1 -1 $-1 $25 $25 $35 $37 reversed $15 0 $-1 #
coedge $-1 -1 $-1 $26 $26 $38 $39 reversed $17 0 $-1 #
coedge $-1 -1 $-1 $27 $27 $18 $28 reversed $34 0 $-1 #
edge $40 1 $-1 $41 0 $41 6.283185307179586232 $18 $42 forward @7 unknown #
DXID-attrib $-1 -1 $-1 $20 $14 @18 ASM_FACE_FROM_STEP @5 14810 #
ATTRIB_CUSTOM-attrib $-1 -1 $43 $-1 $21 @22 generic_tag_attrib_def 3 3 -1 @23 generic_tag_attrib_def  1 1 @1 3 0 4 370 490 652 785 0 #
face $44 59 $-1 $45 $46 $5 $-1 $47 forward single #
loop $-1 -1 $-1 $48 $49 $21 #
plane-surface $-1 -1 $-1 0 0 -1.016999999999999904 0 0 -1 -1 0 0 forward_v I I I I #
loop $-1 -1 $-1 $-1 $27 $14 #
coedge $-1 -1 $-1 $35 $35 $25 $37 forward $22 0 $-1 #
coedge $-1 -1 $-1 $36 $36 $50 $51 reversed $24 0 $-1 #
edge $52 24 $-1 $53 0 $53 6.283185307179586232 $25 $54 forward @7 unknown #
coedge $-1 -1 $-1 $38 $38 $26 $39 forward $55 0 $-1 #
edge $56 23 $-1 $57 0 $57 6.283185307179586232 $26 $58 forward @7 unknown #
DXID-attrib $-1 -1 $-1 $-1 $28 @18 ASM_EDGE_FROM_STEP @4 9117 #
vertex $-1 2 $-1 $28 0 $59 #
ellipse-curve $-1 -1 $-1 0 0 0 0 0 1 1.395000000000000018 0 0 1 I I #
DXID-attrib $-1 -1 $-1 $30 $21 @18 ASM_FACE_FROM_STEP @5 14811 #
ATTRIB_CUSTOM-attrib $-1 -1 $60 $-1 $31 @22 generic_tag_attrib_def 3 3 -1 @23 generic_tag_attrib_def  1 1 @1 4 0 4 370 490 652 785 0 #
face $61 60 $-1 $62 $63 $5 $-1 $64 reversed single #
loop $-1 -1 $-1 $65 $66 $31 #
cone-surface $-1 -1 $-1 0 0 -1.016999999999999904 0 0 1 1.274999999999999911 0 0 1 I I 0 1 1.274999999999999911 forward I I I I #
loop $-1 -1 $-1 $-1 $67 $21 #
coedge $-1 -1 $-1 $49 $49 $66 $68 forward $32 0 $-1 #
coedge $-1 -1 $-1 $50 $50 $36 $51 forward $65 0 $-1 #
edge $69 25 $-1 $70 -6.283185307179586232 $70 -0 $36 $71 reversed @7 unknown #
DXID-attrib $-1 -1 $-1 $-1 $37 @18 ASM_EDGE_FROM_STEP @4 9119 #
vertex $-1 4 $-1 $37 0 $72 #
ellipse-curve $-1 -1 $-1 0 0 -0.75 0 0 1 1.395000000000000018 0 0 1 I I #
loop $-1 -1 $-1 $-1 $38 $73 #
DXID-attrib $-1 -1 $-1 $-1 $39 @18 ASM_EDGE_FROM_STEP @4 9118 #
vertex $-1 3 $-1 $39 0 $74 #
ellipse-curve $-1 -1 $-1 0 0 0 0 0 1 0.3499999999999999778 0 0 1 I I #
point $-1 -1 $-1 1.395000000000000018 0 0 #
DXID-attrib $-1 -1 $-1 $44 $31 @18 ASM_FACE_FROM_STEP @5 14812 #
ATTRIB_CUSTOM-attrib $-1 -1 $75 $-1 $45 @22 generic_tag_attrib_def 3 3 -1 @23 generic_tag_attrib_def  1 1 @1 5 0 4 370 490 652 785 0 #
face $76 61 $-1 $77 $78 $5 $-1 $79 forward single #
loop $-1 -1 $-1 $80 $81 $45 #
cone-surface $-1 -1 $-1 0 0 -1.016999999999999904 0 0 1 1.004999999999999893 0 0 1 I I 0 1 1.004999999999999893 forward I I I I #
loop $-1 -1 $-1 $-1 $50 $31 #
coedge $-1 -1 $-1 $66 $66 $49 $68 reversed $46 0 $-1 #
coedge $-1 -1 $-1 $67 $67 $81 $82 reversed $48 0 $-1 #
edge $83 26 $-1 $84 0 $84 6.283185307179586232 $49 $85 forward @7 unknown #
DXID-attrib $-1 -1 $-1 $-1 $51 @18 ASM_EDGE_FROM_STEP @4 9120 #
vertex $-1 5 $-1 $51 0 $86 #
ellipse-curve $-1 -1 $-1 0 0 -0.75 0 0 1 1.274999999999999911 0 0 1 I I #
point $-1 -1 $-1 1.395000000000000018 0 -0.75 #
face $87 70 $-1 $88 $89 $5 $-1 $90 reversed single #
point $-1 -1 $-1 0.3499999999999999778 0 0 #
DXID-attrib $-1 -1 $-1 $61 $45 @18 ASM_FACE_FROM_STEP @5 14813 #
ATTRIB_CUSTOM-attrib $-1 -1 $91 $-1 $62 @22 generic_tag_attrib_def 3 3 -1 @23 generic_tag_attrib_def  1 1 @1 6 0 4 370 490 652 785 0 #
face $92 62 $-1 $93 $94 $5 $-1 $95 reversed single #
loop $-1 -1 $-1 $96 $97 $62 #
cone-surface $-1 -1 $-1 0 0 -1.070000000000000062 0 0 1 0.5999999999999999778 0 0 1 I I 0 1 0.5999999999999999778 forward I I I I #
loop $-1 -1 $-1 $-1 $98 $45 #
coedge $-1 -1 $-1 $81 $81 $67 $82 forward $63 0 $-1 #
edge $99 27 $-1 $100 0 $100 6.283185307179586232 $67 $101 forward @7 unknown #
DXID-attrib $-1 -1 $-1 $-1 $68 @18 ASM_EDGE_FROM_STEP @4 9121 #
vertex $-1 6 $-1 $68 0 $102 #
ellipse-curve $-1 -1 $-1 0 0 -1.016999999999999904 0 0 -1 -1.274999999999999911 0 0 1 I I #
point $-1 -1 $-1 1.274999999999999911 0 -0.75 #
ATTRIB_CUSTOM-attrib $-1 -1 $103 $-1 $73 @22 generic_tag_attrib_def 3 3 -1 @23 generic_tag_attrib_def  1 2 @2 15 0 4 370 490 652 785 0 #
face $104 71 $-1 $105 $106 $5 $-1 $107 reversed single #
loop $-1 -1 $-1 $55 $108 $73 #
cone-surface $-1 -1 $-1 0 0 0 0 0 -1 -0.3499999999999999778 0 0 1 I I 0 1 0.3499999999999999778 forward I I I I #
DXID-attrib $-1 -1 $-1 $76 $62 @18 ASM_FACE_FROM_STEP @5 14814 #
ATTRIB_CUSTOM-attrib $-1 -1 $109 $-1 $77 @22 generic_tag_attrib_def 3 3 -1 @23 generic_tag_attrib_def  1 1 @1 7 0 4 370 490 652 785 0 #
face $110 63 $-1 $111 $112 $5 $-1 $113 reversed single #
loop $-1 -1 $-1 $114 $115 $77 #
plane-surface $-1 -1 $-1 0 0 -0.2700000000000000178 0 0 1 1 0 0 forward_v I I I I #
loop $-1 -1 $-1 $-1 $116 $62 #
coedge $-1 -1 $-1 $97 $97 $117 $118 reversed $78 0 $-1 #
coedge $-1 -1 $-1 $98 $98 $115 $119 forward $80 0 $-1 #
DXID-attrib $-1 -1 $-1 $-1 $82 @18 ASM_EDGE_FROM_STEP @4 9122 #
vertex $-1 7 $-1 $82 0 $120 #
ellipse-curve $-1 -1 $-1 0 0 -1.016999999999999904 0 0 -1 -1.004999999999999893 0 0 1 I I #
point $-1 -1 $-1 -1.274999999999999911 0 -1.016999999999999904 #
DXID-attrib $-1 -1 $-1 $87 $73 @18 ASM_FACE_FROM_STEP @5 14823 #
ATTRIB_CUSTOM-attrib $-1 -1 $121 $-1 $88 @22 generic_tag_attrib_def 3 3 -1 @23 generic_tag_attrib_def  1 2 @2 16 0 4 370 490 652 785 0 #
face $122 72 $-1 $123 $124 $5 $-1 $125 reversed single #
loop $-1 -1 $-1 $-1 $126 $88 #
cone-surface $-1 -1 $-1 0 0 -0.02500000000000000139 0 0 1 0.3499999999999999778 0 0 1 I I 0.707106781186548794 0.7071067811865463515 0.3499999999999999778 forward I I I I #
coedge $-1 -1 $-1 $127 $128 $126 $129 reversed $89 0 $-1 #
DXID-attrib $-1 -1 $-1 $92 $77 @18 ASM_FACE_FROM_STEP @5 14815 #
ATTRIB_CUSTOM-attrib $-1 -1 $130 $-1 $93 @22 generic_tag_attrib_def 3 3 -1 @23 generic_tag_attrib_def  1 1 @1 8 0 4 370 490 652 785 0 #
face $131 64 $-1 $132 $133 $5 $-1 $134 reversed single #
loop $-1 -1 $-1 $135 $136 $93 #
plane-surface $-1 -1 $-1 0 0 -0.75 0 0 1 1 0 0 forward_v I I I I #
loop $-1 -1 $-1 $-1 $117 $77 #
coedge $-1 -1 $-1 $115 $115 $98 $119 reversed $94 0 $-1 #
coedge $-1 -1 $-1 $116 $116 $136 $137 forward $96 0 $-1 #
coedge $-1 -1 $-1 $117 $117 $97 $118 forward $114 0 $-1 #
edge $138 29 $-1 $139 0 $139 6.283185307179586232 $97 $140 forward @7 unknown #
edge $141 28 $-1 $142 0 $142 6.283185307179586232 $98 $143 forward @7 unknown #
point $-1 -1 $-1 -1.004999999999999893 0 -1.016999999999999904 #
DXID-attrib $-1 -1 $-1 $104 $88 @18 ASM_FACE_FROM_STEP @5 14824 #
ATTRIB_CUSTOM-attrib $-1 -1 $144 $-1 $105 @22 generic_tag_attrib_def 3 3 -1 @23 generic_tag_attrib_def  1 2 @2 17 0 4 370 490 652 785 0 #
face $145 73 $-1 $146 $147 $5 $-1 $148 reversed single #
loop $-1 -1 $-1 $-1 $149 $105 #
cone-surface $-1 -1 $-1 0 0 -0.02500000000000000139 0 0 1 0.3499999999999999778 0 0 1 I I 0.707106781186548794 0.7071067811865463515 0.3499999999999999778 forward I I I I #
coedge $-1 -1 $-1 $150 $150 $108 $129 forward $106 0 $-1 #
coedge $-1 -1 $-1 $151 $108 $149 $152 reversed $89 0 $-1 #
coedge $-1 -1 $-1 $108 $153 $154 $155 reversed $89 0 $-1 #
edge $156 49 $-1 $157 0.5235987755982995928 $158 1.570796326794897002 $108 $159 forward @7 unknown #
DXID-attrib $-1 -1 $-1 $110 $93 @18 ASM_FACE_FROM_STEP @5 14816 #
ATTRIB_CUSTOM-attrib $-1 -1 $160 $-1 $111 @22 generic_tag_attrib_def 3 3 -1 @23 generic_tag_attrib_def  1 1 @1 9 0 4 370 490 652 785 0 #
face $161 65 $-1 $162 $163 $5 $-1 $164 reversed single #
loop $-1 -1 $-1 $-1 $165 $111 #
plane-surface $-1 -1 $-1 0.303108891324552987 0.1749999999999999889 -0.8000000000000000444 0.499999999999999889 0.8660254037844388186 0 -0 0 1 forward_v I I I I #
loop $-1 -1 $-1 $-1 $166 $93 #
coedge $-1 -1 $-1 $136 $136 $116 $137 reversed $112 0 $-1 #
edge $167 30 $-1 $168 0 $168 6.283185307179586232 $116 $169 forward @7 unknown #
DXID-attrib $-1 -1 $-1 $-1 $118 @18 ASM_EDGE_FROM_STEP @4 9124 #
vertex $-1 9 $-1 $118 0 $170 #
ellipse-curve $-1 -1 $-1 0 0 -0.2700000000000000178 0 0 1 0.5999999999999999778 0 0 1 I I #
DXID-attrib $-1 -1 $-1 $-1 $119 @18 ASM_EDGE_FROM_STEP @4 9123 #
vertex $-1 8 $-1 $119 0 $171 #
ellipse-curve $-1 -1 $-1 0 0 -0.2700000000000000178 0 0 1 1.004999999999999893 0 0 1 I I #
DXID-attrib $-1 -1 $-1 $122 $105 @18 ASM_FACE_FROM_STEP @5 14825 #
ATTRIB_CUSTOM-attrib $-1 -1 $172 $-1 $123 @22 generic_tag_attrib_def 3 3 -1 @23 generic_tag_attrib_def  1 2 @2 18 0 4 370 490 652 785 0 #
face $173 74 $-1 $174 $175 $5 $-1 $176 reversed single #
loop $-1 -1 $-1 $-1 $177 $123 #
cone-surface $-1 -1 $-1 0 0 -0.02500000000000000139 0 0 1 0.3499999999999999778 0 0 1 I I 0.707106781186548794 0.7071067811865463515 0.3499999999999999778 forward I I I I #
coedge $-1 -1 $-1 $178 $178 $127 $152 forward $124 0 $-1 #
coedge $-1 -1 $-1 $126 $126 $179 $180 reversed $106 0 $-1 #
coedge $-1 -1 $-1 $181 $127 $177 $182 reversed $89 0 $-1 #
edge $183 50 $-1 $184 -0.5235987755982995928 $157 0.5235987755982995928 $127 $185 forward @7 unknown #
coedge $-1 -1 $-1 $128 $181 $186 $187 reversed $89 0 $-1 #
coedge $-1 -1 $-1 $188 $188 $128 $155 forward $189 0 $-1 #
edge $190 54 $-1 $158 1.570796326794897002 $191 2.617993877991494855 $128 $192 forward @7 unknown #
DXID-attrib $-1 -1 $-1 $-1 $129 @18 ASM_EDGE_FROM_STEP @4 9144 #
vertex $-1 17 $-1 $193 1 $194 #
vertex $-1 18 $-1 $180 1 $195 #
ellipse-curve $-1 -1 $-1 0 0 -0.02500000000000000139 0 0 1 0.3499999999999999778 0 0 1 F 0.5235987755982995928 F 1.570796326794897002 #
DXID-attrib $-1 -1 $-1 $131 $111 @18 ASM_FACE_FROM_STEP @5 14817 #
ATTRIB_CUSTOM-attrib $-1 -1 $196 $-1 $132 @22 generic_tag_attrib_def 3 3 -1 @23 generic_tag_attrib_def  1 2 @2 10 0 4 370 490 652 785 0 #
face $197 66 $-1 $198 $199 $5 $-1 $200 reversed single #
loop $-1 -1 $-1 $-1 $201 $132 #
plane-surface $-1 -1 $-1 0.3031088913245539862 -0.1749999999999999889 -0.8000000000000000444 1 4.95635278850516031e-16 0 0 0 -1 forward_v I I I I #
coedge $-1 -1 $-1 $179 $202 $203 $193 forward $133 0 $-1 #
coedge $-1 -1 $-1 $204 $205 $206 $207 forward $135 0 $-1 #
DXID-attrib $-1 -1 $-1 $-1 $137 @18 ASM_EDGE_FROM_STEP @4 9125 #
vertex $-1 10 $-1 $137 0 $208 #
ellipse-curve $-1 -1 $-1 0 0 -0.75 0 0 1 0.5999999999999999778 0 0 1 I I #
point $-1 -1 $-1 0.5999999999999999778 0 -0.2700000000000000178 #
point $-1 -1 $-1 1.004999999999999893 0 -0.2700000000000000178 #
DXID-attrib $-1 -1 $-1 $145 $123 @18 ASM_FACE_FROM_STEP @5 14826 #
ATTRIB_CUSTOM-attrib $-1 -1 $209 $-1 $146 @22 generic_tag_attrib_def 3 3 -1 @23 generic_tag_attrib_def  1 2 @2 19 0 4 370 490 652 785 0 #
face $210 75 $-1 $211 $212 $5 $-1 $213 reversed single #
loop $-1 -1 $-1 $-1 $214 $146 #
cone-surface $-1 -1 $-1 0 0 -0.02500000000000000139 0 0 1 0.3499999999999999778 0 0 1 I I 0.707106781186548794 0.7071067811865463515 0.3499999999999999778 forward I I I I #
coedge $-1 -1 $-1 $215 $215 $151 $182 forward $147 0 $-1 #
coedge $-1 -1 $-1 $149 $149 $216 $217 reversed $124 0 $-1 #
coedge $-1 -1 $-1 $218 $165 $150 $180 forward $133 0 $-1 #
edge $219 38 $-1 $157 0.1429974064266960054 $158 0.5841944466847159845 $179 $220 forward @7 unknown #
coedge $-1 -1 $-1 $153 $151 $214 $221 reversed $89 0 $-1 #
edge $222 51 $-1 $223 -1.570796326794897224 $184 -0.5235987755982995928 $151 $224 forward @7 unknown #
DXID-attrib $-1 -1 $-1 $-1 $152 @18 ASM_EDGE_FROM_STEP @4 9145 #
vertex $-1 19 $-1 $225 1 $226 #
ellipse-curve $-1 -1 $-1 0 0 -0.02500000000000000139 0 0 1 0.3499999999999999778 0 0 1 F -0.5235987755982995928 F 0.5235987755982995928 #
coedge $-1 -1 $-1 $227 $227 $153 $187 forward $212 0 $-1 #
edge $228 53 $-1 $191 2.617993877991494855 $229 3.665191429188091377 $153 $230 forward @7 unknown #
coedge $-1 -1 $-1 $154 $154 $231 $232 reversed $189 0 $-1 #
loop $-1 -1 $-1 $-1 $154 $211 #
DXID-attrib $-1 -1 $-1 $-1 $155 @18 ASM_EDGE_FROM_STEP @4 9149 #
vertex $-1 22 $-1 $233 1 $234 #
ellipse-curve $-1 -1 $-1 0 0 -0.02500000000000000139 0 0 1 0.3499999999999999778 0 0 1 F 1.570796326794897002 F 2.617993877991494855 #
edge $235 37 $-1 $236 0 $157 1 $165 $237 forward @7 unknown #
point $-1 -1 $-1 0.303108891324552987 0.1749999999999999889 -0.02500000000000000139 #
point $-1 -1 $-1 -1.084202172485499997e-16 0.3499999999999999778 -0.02500000000000000139 #
DXID-attrib $-1 -1 $-1 $161 $132 @18 ASM_FACE_FROM_STEP @5 14818 #
ATTRIB_CUSTOM-attrib $-1 -1 $238 $-1 $162 @22 generic_tag_attrib_def 3 3 -1 @23 generic_tag_attrib_def  1 2 @2 11 0 4 370 490 652 785 0 #
face $239 67 $-1 $240 $241 $5 $-1 $242 reversed single #
loop $-1 -1 $-1 $-1 $243 $162 #
plane-surface $-1 -1 $-1 6.754203755751100397e-17 -0.3499999999999999778 -0.8000000000000000444 0.499999999999999889 -0.8660254037844388186 0 0 0 -1 forward_v I I I I #
coedge $-1 -1 $-1 $216 $206 $244 $225 forward $163 0 $-1 #
coedge $-1 -1 $-1 $165 $218 $204 $245 reversed $133 0 $-1 #
coedge $-1 -1 $-1 $206 $216 $165 $193 reversed $163 0 $-1 #
coedge $-1 -1 $-1 $246 $166 $202 $245 forward $135 0 $-1 #
coedge $-1 -1 $-1 $166 $247 $248 $249 forward $135 0 $-1 #
coedge $-1 -1 $-1 $201 $203 $166 $207 reversed $163 0 $-1 #
edge $250 31 $-1 $251 0 $236 1 $166 $252 forward @7 unknown #
point $-1 -1 $-1 0.5999999999999999778 0 -0.75 #
DXID-attrib $-1 -1 $-1 $173 $146 @18 ASM_FACE_FROM_STEP @5 14827 #
ATTRIB_CUSTOM-attrib $-1 -1 $253 $-1 $174 @22 generic_tag_attrib_def 3 3 -1 @23 generic_tag_attrib_def  1 2 @2 20 0 4 370 490 652 785 0 #
face $254 76 $-1 $-1 $189 $5 $-1 $255 reversed single #
loop $-1 -1 $-1 $-1 $186 $174 #
cone-surface $-1 -1 $-1 0 0 -0.02500000000000000139 0 0 1 0.3499999999999999778 0 0 1 I I 0.707106781186548794 0.7071067811865463515 0.3499999999999999778 forward I I I I #
coedge $-1 -1 $-1 $256 $256 $181 $221 forward $175 0 $-1 #
coedge $-1 -1 $-1 $177 $177 $257 $258 reversed $147 0 $-1 #
coedge $-1 -1 $-1 $203 $201 $178 $217 forward $163 0 $-1 #
edge $259 41 $-1 $184 0.1429974064266960054 $157 0.5841944466847159845 $216 $260 forward @7 unknown #
coedge $-1 -1 $-1 $202 $179 $261 $262 reversed $133 0 $-1 #
DXID-attrib $-1 -1 $-1 $-1 $180 @18 ASM_EDGE_FROM_STEP @4 9133 #
intcurve-curve $-1 -1 $-1 forward { exact_int_cur 22020 full nurbs 2 open 2 
	0.1429974064266960054 2 0.5841944466847159845 2 
	0.3031088913245589822 0.1749999999999969913 -0.02499999999999679909 1.153113824246349894 
	0.1515544456622769653 0.2624999999999999556 -0.1125000000000020151 1.331501153669830018 
	-5.933281906254259353e-15 0.3500000000000029199 -0.02499999999999669847 1.153113824246349894 
	0 
	
	null_surface 
	null_surface 
	nullbs 
	nullbs 
	I I 
	0 
	0 
	0 
	
	0 F 1 F 0 UNEXTENDED UNEXTENDED } F 0.1429974064266960054 F 0.5841944466847159845 #
edge $263 52 $-1 $229 -2.617993877991494855 $223 -1.570796326794897224 $181 $264 forward @7 unknown #
DXID-attrib $-1 -1 $-1 $-1 $182 @18 ASM_EDGE_FROM_STEP @4 9146 #
vertex $-1 20 $-1 $265 1 $266 #
ellipse-curve $-1 -1 $-1 0 0 -0.02500000000000000139 0 0 1 0.3499999999999999778 0 0 1 F -1.570796326794897224 F -0.5235987755982995928 #
edge $267 40 $-1 $251 0 $184 1 $201 $268 forward @7 unknown #
point $-1 -1 $-1 0.303108891324552987 -0.1749999999999999889 -0.02500000000000000139 #
coedge $-1 -1 $-1 $186 $186 $269 $270 reversed $212 0 $-1 #
DXID-attrib $-1 -1 $-1 $-1 $187 @18 ASM_EDGE_FROM_STEP @4 9148 #
vertex $-1 21 $-1 $271 1 $272 #
ellipse-curve $-1 -1 $-1 0 0 -0.02500000000000000139 0 0 1 0.3499999999999999778 0 0 1 F 2.617993877991494855 F 3.665191429188091377 #
coedge $-1 -1 $-1 $273 $261 $188 $232 forward $274 0 $-1 #
edge $275 48 $-1 $158 0.1429974064266960054 $191 0.5841944466847159845 $231 $276 forward @7 unknown #
edge $277 46 $-1 $278 0 $191 1.000000000000000222 $279 $280 forward @7 unknown #
point $-1 -1 $-1 -0.3031088913245539862 0.1749999999999999889 -0.02499999999999980016 #
DXID-attrib $-1 -1 $-1 $-1 $193 @18 ASM_EDGE_FROM_STEP @4 9132 #
vertex $-1 12 $-1 $207 1 $281 #
straight-curve $-1 -1 $-1 0.303108891324552987 0.1749999999999999889 -0.75 0 0 0.7249999999999999778 F 0 F 1 #
DXID-attrib $-1 -1 $-1 $197 $162 @18 ASM_FACE_FROM_STEP @5 14819 #
ATTRIB_CUSTOM-attrib $-1 -1 $282 $-1 $198 @22 generic_tag_attrib_def 3 3 -1 @23 generic_tag_attrib_def  1 2 @2 12 0 4 370 490 652 785 0 #
face $283 68 $-1 $284 $285 $5 $-1 $286 reversed single #
loop $-1 -1 $-1 $-1 $287 $198 #
plane-surface $-1 -1 $-1 -0.3031088913245539862 -0.1749999999999999889 -0.8000000000000000444 -0.499999999999999889 -0.8660254037844388186 0 0 -0 -1 forward_v I I I I #
coedge $-1 -1 $-1 $257 $248 $288 $265 forward $199 0 $-1 #
coedge $-1 -1 $-1 $248 $257 $201 $225 reversed $199 0 $-1 #
edge $289 32 $-1 $236 0 $290 0.9999999999999985567 $204 $291 forward @7 unknown #
coedge $-1 -1 $-1 $292 $204 $293 $294 forward $135 0 $-1 #
coedge $-1 -1 $-1 $205 $292 $295 $296 forward $135 0 $-1 #
coedge $-1 -1 $-1 $243 $244 $205 $249 reversed $199 0 $-1 #
edge $297 36 $-1 $298 6.160922558639087811e-18 $251 1.000000000000000888 $205 $299 forward @7 unknown #
DXID-attrib $-1 -1 $-1 $-1 $207 @18 ASM_EDGE_FROM_STEP @4 9126 #
vertex $-1 11 $-1 $207 0 $300 #
straight-curve $-1 -1 $-1 0.3031088913245539862 -0.1749999999999999889 -0.75 -2.220446049250309876e-16 0.3499999999999999778 0 F 0 F 1 #
DXID-attrib $-1 -1 $-1 $210 $174 @18 ASM_FACE_FROM_STEP @5 14828 #
ATTRIB_CUSTOM-attrib $-1 -1 $301 $-1 $211 @22 generic_tag_attrib_def 3 3 -1 @23 generic_tag_attrib_def  1 2 @2 21 0 4 370 490 652 785 0 #
cone-surface $-1 -1 $-1 0 0 -0.02500000000000000139 0 0 1 0.3499999999999999778 0 0 1 I I 0.707106781186548794 0.7071067811865463515 0.3499999999999999778 forward I I I I #
coedge $-1 -1 $-1 $214 $214 $302 $303 reversed $175 0 $-1 #
coedge $-1 -1 $-1 $244 $243 $215 $258 forward $199 0 $-1 #
edge $304 43 $-1 $223 0.1429974064266960054 $184 0.5841944466847149853 $257 $305 forward @7 unknown #
DXID-attrib $-1 -1 $-1 $-1 $217 @18 ASM_EDGE_FROM_STEP @4 9136 #
intcurve-curve $-1 -1 $-1 forward { exact_int_cur 22020 full nurbs 2 open 2 
	0.1429974064266960054 2 0.5841944466847159845 2 
	0.3031088913245539862 -0.1750000000000070111 -0.02499999999999660133 1.153113824246349894 
	0.3031088913245539862 -1.387778780781445676e-16 -0.1125000000000019873 1.331501153669830018 
	0.3031088913245539862 0.1750000000000059841 -0.0249999999999968997 1.153113824246349894 
	0 
	
	null_surface 
	null_surface 
	nullbs 
	nullbs 
	I I 
	0 
	0 
	0 
	
	0 F 1 F 0 UNEXTENDED UNEXTENDED } F 0.1429974064266960054 F 0.5841944466847159845 #
coedge $-1 -1 $-1 $231 $293 $218 $262 forward $274 0 $-1 #
edge $306 39 $-1 $290 0 $158 1 $218 $307 forward @7 unknown #
DXID-attrib $-1 -1 $-1 $-1 $221 @18 ASM_EDGE_FROM_STEP @4 9147 #
ellipse-curve $-1 -1 $-1 0 0 -0.02500000000000000139 0 0 1 0.3499999999999999778 0 0 1 F -2.617993877991494855 F -1.570796326794897224 #
edge $308 42 $-1 $298 0 $223 1 $243 $309 forward @7 unknown #
point $-1 -1 $-1 -1.734723475976810053e-16 -0.3499999999999999778 -0.02500000000000000139 #
DXID-attrib $-1 -1 $-1 $-1 $225 @18 ASM_EDGE_FROM_STEP @4 9135 #
straight-curve $-1 -1 $-1 0.3031088913245539862 -0.1749999999999999889 -0.75 0 0 0.7249999999999999778 F 0 F 1 #
coedge $-1 -1 $-1 $310 $279 $227 $270 forward $285 0 $-1 #
edge $311 47 $-1 $191 0.1429974064266960054 $229 0.5841944466847149853 $269 $312 reversed @7 unknown #
edge $313 44 $-1 $314 0 $229 1 $287 $315 forward @7 unknown #
point $-1 -1 $-1 -0.3031088913245539862 -0.1749999999999999889 -0.02500000000000000139 #
coedge $-1 -1 $-1 $293 $231 $279 $233 reversed $274 0 $-1 #
loop $-1 -1 $-1 $-1 $261 $284 #
DXID-attrib $-1 -1 $-1 $-1 $232 @18 ASM_EDGE_FROM_STEP @4 9143 #
intcurve-curve $-1 -1 $-1 forward { exact_int_cur 22020 full nurbs 2 open 2 
	0.1429974064266960054 2 0.5841944466847159845 2 
	5.536125105227100023e-15 0.3500000000000029199 -0.02499999999999679909 1.153113824246349894 
	-0.1515544456622769931 0.2625000000000000111 -0.1125000000000019873 1.331501153669830018 
	-0.3031088913245599814 0.1749999999999969913 -0.02499999999999649725 1.153113824246349894 
	0 
	
	null_surface 
	null_surface 
	nullbs 
	nullbs 
	I I 
	0 
	0 
	0 
	
	0 F 1 F 0 UNEXTENDED UNEXTENDED } F 0.1429974064266960054 F 0.5841944466847159845 #
DXID-attrib $-1 -1 $-1 $-1 $233 @18 ASM_EDGE_FROM_STEP @4 9141 #
vertex $-1 14 $-1 $294 1 $316 #
coedge $-1 -1 $-1 $269 $317 $273 $233 forward $285 0 $-1 #
straight-curve $-1 -1 $-1 -0.3031088913245539862 0.1749999999999999889 -0.75 0 0 0.7249999999999999778 F 0 F 1.000000000000000222 #
point $-1 -1 $-1 0.303108891324552987 0.1749999999999999889 -0.75 #
DXID-attrib $-1 -1 $-1 $239 $198 @18 ASM_FACE_FROM_STEP @5 14820 #
ATTRIB_CUSTOM-attrib $-1 -1 $318 $-1 $240 @22 generic_tag_attrib_def 3 3 -1 @23 generic_tag_attrib_def  1 2 @2 13 0 4 370 490 652 785 0 #
face $319 69 $-1 $73 $274 $5 $-1 $320 reversed single #
loop $-1 -1 $-1 $-1 $279 $240 #
plane-surface $-1 -1 $-1 -0.3031088913245539862 0.1749999999999999889 -0.8000000000000000444 -1 -2.478176394252580155e-16 0 0 0 1 forward_v I I I I #
coedge $-1 -1 $-1 $302 $295 $310 $271 forward $241 0 $-1 #
coedge $-1 -1 $-1 $295 $302 $243 $265 reversed $241 0 $-1 #
DXID-attrib $-1 -1 $-1 $-1 $245 @18 ASM_EDGE_FROM_STEP @4 9127 #
vertex $-1 13 $-1 $245 1 $321 #
straight-curve $-1 -1 $-1 0.303108891324552987 0.1749999999999999889 -0.75 -0.3031088913245536531 0.1749999999999999889 0 F 0 F 0.9999999999999985567 #
coedge $-1 -1 $-1 $247 $246 $317 $322 forward $135 0 $-1 #
coedge $-1 -1 $-1 $261 $273 $246 $294 reversed $274 0 $-1 #
edge $323 33 $-1 $290 -5.365409281204143447e-17 $278 1.000000000000000666 $246 $324 forward @7 unknown #
coedge $-1 -1 $-1 $287 $288 $247 $296 reversed $241 0 $-1 #
edge $325 35 $-1 $314 0 $298 1.00000000000000111 $247 $326 forward @7 unknown #
DXID-attrib $-1 -1 $-1 $-1 $249 @18 ASM_EDGE_FROM_STEP @4 9131 #
vertex $-1 16 $-1 $296 1 $327 #
straight-curve $-1 -1 $-1 6.505213034913030302e-17 -0.3499999999999999778 -0.75 0.3031088913245536531 0.1749999999999999889 0 F 6.160922558639087811e-18 F 1.000000000000000888 #
point $-1 -1 $-1 0.3031088913245539862 -0.1749999999999999889 -0.75 #
DXID-attrib $-1 -1 $-1 $254 $211 @18 ASM_FACE_FROM_STEP @5 14829 #
coedge $-1 -1 $-1 $288 $287 $256 $303 forward $241 0 $-1 #
edge $328 45 $-1 $229 0.1429974064266960054 $223 0.5841944466847159845 $302 $329 forward @7 unknown #
DXID-attrib $-1 -1 $-1 $-1 $258 @18 ASM_EDGE_FROM_STEP @4 9138 #
intcurve-curve $-1 -1 $-1 forward { exact_int_cur 22020 full nurbs 2 open 2 
	0.1429974064266960054 2 0.5841944466847149853 2 
	-5.626388014551449611e-15 -0.3500000000000039746 -0.02499999999999660133 1.153113824246349894 
	0.1515544456622769931 -0.2625000000000000111 -0.1125000000000020151 1.331501153669830018 
	0.3031088913245589822 -0.1749999999999969913 -0.02499999999999669847 1.153113824246349894 
	0 
	
	null_surface 
	null_surface 
	nullbs 
	nullbs 
	I I 
	0 
	0 
	0 
	
	0 F 1 F 0 UNEXTENDED UNEXTENDED } F 0.1429974064266960054 F 0.5841944466847149853 #
DXID-attrib $-1 -1 $-1 $-1 $262 @18 ASM_EDGE_FROM_STEP @4 9134 #
straight-curve $-1 -1 $-1 -6.505213034913030302e-17 0.3499999999999999778 -0.75 0 0 0.7249999999999999778 F 0 F 1 #
DXID-attrib $-1 -1 $-1 $-1 $265 @18 ASM_EDGE_FROM_STEP @4 9137 #
straight-curve $-1 -1 $-1 6.754203755751100397e-17 -0.3499999999999999778 -0.75 0 0 0.7249999999999999778 F 0 F 1 #
coedge $-1 -1 $-1 $317 $269 $287 $271 reversed $285 0 $-1 #
DXID-attrib $-1 -1 $-1 $-1 $270 @18 ASM_EDGE_FROM_STEP @4 9142 #
intcurve-curve $-1 -1 $-1 forward { exact_int_cur 22020 full nurbs 2 open 2 
	-0.5841944466847149853 2 -0.1429974064266960054 2 
	-0.3031088913245539862 -0.1750000000000059841 -0.02499999999999679909 1.153113824246349894 
	-0.3031088913245539862 5.551115123125782702e-17 -0.1125000000000020151 1.331501153669830018 
	-0.3031088913245539862 0.1750000000000059841 -0.02499999999999649725 1.153113824246349894 
	0 
	
	null_surface 
	null_surface 
	nullbs 
	nullbs 
	I I 
	0 
	0 
	0 
	
	0 F 1 F 0 UNEXTENDED UNEXTENDED } F -0.5841944466847149853 F -0.1429974064266960054 #
DXID-attrib $-1 -1 $-1 $-1 $271 @18 ASM_EDGE_FROM_STEP @4 9139 #
vertex $-1 15 $-1 $322 1 $330 #
straight-curve $-1 -1 $-1 -0.3031088913245539862 -0.1749999999999999889 -0.75 0 0 0.7249999999999999778 F 0 F 1 #
point $-1 -1 $-1 -0.3031088913245539862 0.1749999999999999889 -0.75 #
coedge $-1 -1 $-1 $279 $310 $292 $322 reversed $285 0 $-1 #
DXID-attrib $-1 -1 $-1 $283 $240 @18 ASM_FACE_FROM_STEP @5 14821 #
ATTRIB_CUSTOM-attrib $-1 -1 $331 $-1 $284 @22 generic_tag_attrib_def 3 3 -1 @23 generic_tag_attrib_def  1 2 @2 14 0 4 370 490 652 785 0 #
plane-surface $-1 -1 $-1 -6.505213034913030302e-17 0.3499999999999999778 -0.8000000000000000444 -0.499999999999999889 0.8660254037844388186 0 0 0 1 forward_v I I I I #
point $-1 -1 $-1 -6.505213034913030302e-17 0.3499999999999999778 -0.75 #
edge $332 34 $-1 $278 0 $314 1 $292 $333 forward @7 unknown #
DXID-attrib $-1 -1 $-1 $-1 $294 @18 ASM_EDGE_FROM_STEP @4 9128 #
straight-curve $-1 -1 $-1 -8.673617379884040402e-17 0.3499999999999999778 -0.75 -0.3031088913245536531 -0.1749999999999999889 0 F -5.365409281204143447e-17 F 1.000000000000000666 #
DXID-attrib $-1 -1 $-1 $-1 $296 @18 ASM_EDGE_FROM_STEP @4 9130 #
straight-curve $-1 -1 $-1 -0.3031088913245539862 -0.1749999999999999889 -0.75 0.3031088913245536531 -0.1749999999999999889 0 F 0 F 1.00000000000000111 #
point $-1 -1 $-1 6.754203755751100397e-17 -0.3499999999999999778 -0.75 #
DXID-attrib $-1 -1 $-1 $-1 $303 @18 ASM_EDGE_FROM_STEP @4 9140 #
intcurve-curve $-1 -1 $-1 forward { exact_int_cur 22020 full nurbs 2 open 2 
	0.1429974064266960054 2 0.5841944466847159845 2 
	-0.3031088913245589822 -0.1749999999999969913 -0.02499999999999649725 1.153113824246349894 
	-0.1515544456622769653 -0.2625000000000000666 -0.1125000000000019873 1.331501153669830018 
	5.506037468785639642e-15 -0.3500000000000039746 -0.02499999999999660133 1.153113824246349894 
	0 
	
	null_surface 
	null_surface 
	nullbs 
	nullbs 
	I I 
	0 
	0 
	0 
	
	0 F 1 F 0 UNEXTENDED UNEXTENDED } F 0.1429974064266960054 F 0.5841944466847159845 #
point $-1 -1 $-1 -0.3031088913245539862 -0.1749999999999999889 -0.75 #
DXID-attrib $-1 -1 $-1 $319 $284 @18 ASM_FACE_FROM_STEP @5 14822 #
DXID-attrib $-1 -1 $-1 $-1 $322 @18 ASM_EDGE_FROM_STEP @4 9129 #
straight-curve $-1 -1 $-1 -0.3031088913245539862 0.1749999999999999889 -0.75 1.110223024625154938e-16 -0.3499999999999999778 0 F 0 F 1 #
End-of-ASM-data 