22700 0 2 4           
16 Autodesk Neutron 20 ASM 227.1.1.65535 NT 24 Thu Aug 26 00:06:34 2021 
10 9.999999999999999547e-07 1.000000000000000036e-10 
asmheader $-1 -1 @13 227.1.1.65535 #
body $2 1 $-1 $3 $-1 $-1 #
ATTRIB_CUSTOM-attrib $-1 -1 $4 $-1 $1 @20 Timestamp_attrib_def 1 1406915265000 #
lump $-1 -1 $-1 $-1 $5 $1 #
ATTRIB_CUSTOM-attrib $-1 -1 $6 $2 $1 @22 generic_tag_attrib_def 3 3 -1 @23 generic_tag_attrib_def  4 3 @3 310 2 0 0 3 @3 430 2 0 0 3 @3 610 2 0 0 3 @3 743 2 0 0 #
shell $-1 -1 $-1 $-1 $-1 $7 $-1 $3 #
DXID-attrib $-1 -1 $-1 $4 $1 @18 ASM_BODY_FROM_STEP @4 2644 #
face $8 41 $-1 $9 $10 $5 $-1 $11 reversed single #
ATTRIB_CUSTOM-attrib $-1 -1 $12 $-1 $7 @22 generic_tag_attrib_def 3 3 -1 @23 generic_tag_attrib_def  1 1 @1 8 0 4 310 430 610 743 0 #
face $13 42 $-1 $14 $15 $5 $-1 $16 reversed single #
loop $-1 -1 $-1 $17 $18 $7 #
plane-surface $-1 -1 $-1 0 0.9000000000000000222 0.5 0 0 -1 -1 0 0 forward_v I I I I #
DXID-attrib $-1 -1 $-1 $8 $7 @18 ASM_FACE_FROM_STEP @5 14529 #
ATTRIB_CUSTOM-attrib $-1 -1 $19 $-1 $9 @22 generic_tag_attrib_def 3 3 -1 @23 generic_tag_attrib_def  1 1 @1 9 0 4 310 430 610 743 0 #
face $20 43 $-1 $21 $22 $5 $-1 $23 reversed single #
loop $-1 -1 $-1 $24 $25 $9 #
cone-surface $-1 -1 $-1 0 0 0.5000000000000009992 0 0 1 0.9000000000000000222 0 0 1 I I 0.7071067811865509034 0.707106781186544131 0.9000000000000000222 forward I I I I #
loop $-1 -1 $-1 $-1 $26 $7 #
coedge $-1 -1 $-1 $18 $18 $27 $28 forward $10 0 $-1 #
DXID-attrib $-1 -1 $-1 $13 $9 @18 ASM_FACE_FROM_STEP @5 14530 #
ATTRIB_CUSTOM-attrib $-1 -1 $29 $-1 $14 @22 generic_tag_attrib_def 3 3 -1 @23 generic_tag_attrib_def  1 2 @2 10 0 4 310 430 610 743 0 #
face $30 44 $-1 $31 $32 $5 $-1 $33 reversed single #
loop $-1 -1 $-1 $34 $35 $14 #
cone-surface $-1 -1 $-1 0 0 0.5 0 0 1 0.8499999999999999778 0 0 1 I I 0 1 0.8499999999999999778 forward I I I I #
loop $-1 -1 $-1 $-1 $36 $9 #
coedge $-1 -1 $-1 $25 $25 $37 $38 reversed $15 0 $-1 #
coedge $-1 -1 $-1 $26 $26 $36 $39 reversed $17 0 $-1 #
coedge $-1 -1 $-1 $27 $27 $18 $28 reversed $40 0 $-1 #
edge $41 14 $-1 $42 0 $42 6.283185307179586232 $18 $43 forward @7 unknown #
DXID-attrib $-1 -1 $-1 $20 $14 @18 ASM_FACE_FROM_STEP @5 14531 #
ATTRIB_CUSTOM-attrib $-1 -1 $44 $-1 $21 @22 generic_tag_attrib_def 3 3 -1 @23 generic_tag_attrib_def  1 2 @2 11 0 4 310 430 610 743 0 #
face $45 45 $-1 $46 $47 $5 $-1 $48 reversed single #
loop $-1 -1 $-1 $49 $50 $21 #
cone-surface $-1 -1 $-1 0 0 -0.4500000000000000111 0 0 -1 -0.8499999999999999778 0 0 1 I I 0.7071067811865430208 0.7071067811865520136 0.8499999999999999778 forward I I I I #
loop $-1 -1 $-1 $-1 $37 $14 #
coedge $-1 -1 $-1 $35 $35 $51 $52 reversed $22 0 $-1 #
coedge $-1 -1 $-1 $36 $36 $26 $39 forward $24 0 $-1 #
coedge $-1 -1 $-1 $37 $37 $25 $38 forward $34 0 $-1 #
edge $53 16 $-1 $54 0 $54 6.283185307179586232 $25 $55 forward @7 unknown #
edge $56 15 $-1 $57 0 $57 6.283185307179586232 $26 $58 forward @7 unknown #
loop $-1 -1 $-1 $59 $27 $60 #
DXID-attrib $-1 -1 $-1 $-1 $28 @18 ASM_EDGE_FROM_STEP @4 8641 #
vertex $-1 31 $-1 $28 0 $61 #
ellipse-curve $-1 -1 $-1 0 0 0.5 0 0 1 1.190109890109890101 0 0 1 I I #
DXID-attrib $-1 -1 $-1 $30 $21 @18 ASM_FACE_FROM_STEP @5 14532 #
ATTRIB_CUSTOM-attrib $-1 -1 $62 $-1 $31 @22 generic_tag_attrib_def 3 3 -1 @23 generic_tag_attrib_def  1 2 @2 12 0 4 310 430 610 743 0 #
face $63 46 $-1 $64 $65 $5 $-1 $66 forward single #
loop $-1 -1 $-1 $67 $68 $31 #
plane-surface $-1 -1 $-1 0 0.9000000000000000222 -0.5 0 0 1 1 0 0 forward_v I I I I #
loop $-1 -1 $-1 $-1 $51 $21 #
coedge $-1 -1 $-1 $50 $50 $69 $70 reversed $32 0 $-1 #
coedge $-1 -1 $-1 $51 $51 $35 $52 forward $49 0 $-1 #
edge $71 17 $-1 $72 0 $72 6.283185307179586232 $35 $73 forward @7 unknown #
DXID-attrib $-1 -1 $-1 $-1 $38 @18 ASM_EDGE_FROM_STEP @4 8643 #
vertex $-1 33 $-1 $38 0 $74 #
ellipse-curve $-1 -1 $-1 0 0 0.4500000000000010103 0 0 1 0.8499999999999999778 0 0 1 I I #
DXID-attrib $-1 -1 $-1 $-1 $39 @18 ASM_EDGE_FROM_STEP @4 8642 #
vertex $-1 32 $-1 $39 0 $75 #
ellipse-curve $-1 -1 $-1 0 0 0.5000000000000009992 0 0 1 0.9000000000000000222 0 0 1 I I #
loop $-1 -1 $-1 $-1 $76 $60 #
face $77 48 $-1 $-1 $40 $5 $-1 $78 forward single #
point $-1 -1 $-1 1.190109890109890101 0 0.5 #
DXID-attrib $-1 -1 $-1 $45 $31 @18 ASM_FACE_FROM_STEP @5 14533 #
ATTRIB_CUSTOM-attrib $-1 -1 $79 $-1 $46 @22 generic_tag_attrib_def 3 3 -1 @23 generic_tag_attrib_def  1 2 @2 13 0 4 310 430 610 743 0 #
face $80 47 $-1 $60 $81 $5 $-1 $82 reversed single #
loop $-1 -1 $-1 $83 $84 $46 #
cone-surface $-1 -1 $-1 0 0 0.5 0 0 1 1.190109890109890101 0 0 1 I I 0 1 1.190109890109890101 forward I I I I #
loop $-1 -1 $-1 $-1 $69 $31 #
coedge $-1 -1 $-1 $68 $68 $85 $86 reversed $47 0 $-1 #
coedge $-1 -1 $-1 $69 $69 $50 $70 forward $67 0 $-1 #
edge $87 18 $-1 $88 0 $88 6.283185307179586232 $50 $89 forward @7 unknown #
DXID-attrib $-1 -1 $-1 $-1 $52 @18 ASM_EDGE_FROM_STEP @4 8644 #
vertex $-1 34 $-1 $52 0 $90 #
ellipse-curve $-1 -1 $-1 0 0 -0.4500000000000000111 0 0 1 0.8499999999999999778 0 0 1 I I #
point $-1 -1 $-1 0.8499999999999999778 0 0.4500000000000010103 #
point $-1 -1 $-1 0.9000000000000000222 0 0.5000000000000009992 #
coedge $-1 -1 $-1 $76 $76 $91 $92 forward $59 0 $-1 #
ATTRIB_CUSTOM-attrib $-1 -1 $93 $-1 $60 @22 generic_tag_attrib_def 3 3 -1 @23 generic_tag_attrib_def  1 2 @2 15 0 4 310 430 610 743 0 #
cone-surface $-1 -1 $-1 0 0 0.5 0 0 1 1.190109890109890101 0 0 1 I I 0 1 1.190109890109890101 forward I I I I #
DXID-attrib $-1 -1 $-1 $63 $46 @18 ASM_FACE_FROM_STEP @5 14534 #
ATTRIB_CUSTOM-attrib $-1 -1 $94 $-1 $64 @22 generic_tag_attrib_def 3 3 -1 @23 generic_tag_attrib_def  1 2 @2 14 0 4 310 430 610 743 0 #
loop $-1 -1 $-1 $95 $91 $64 #
torus-surface $-1 -1 $-1 0 0 -6.0715321659188199e-16 0 0 1 1.300000000000000044 0.2479083546414740102 1 0 0 forward_v I I I I #
loop $-1 -1 $-1 $-1 $85 $46 #
coedge $-1 -1 $-1 $84 $84 $96 $97 reversed $65 0 $-1 #
coedge $-1 -1 $-1 $85 $85 $68 $86 forward $83 0 $-1 #
edge $98 13 $-1 $99 0 $99 6.283185307179586232 $68 $100 forward @7 unknown #
DXID-attrib $-1 -1 $-1 $-1 $70 @18 ASM_EDGE_FROM_STEP @4 8645 #
vertex $-1 35 $-1 $70 0 $101 #
ellipse-curve $-1 -1 $-1 0 0 -0.5000000000000009992 0 0 1 0.9000000000000000222 0 0 1 I I #
point $-1 -1 $-1 0.8499999999999999778 0 -0.4500000000000000111 #
coedge $-1 -1 $-1 $91 $91 $76 $92 reversed $81 0 $-1 #
edge $102 40 $-1 $103 0 $103 6.283185307179586232 $91 $104 forward @7 unknown #
DXID-attrib $-1 -1 $-1 $77 $60 @18 ASM_FACE_FROM_STEP @5 14536 #
DXID-attrib $-1 -1 $-1 $80 $64 @18 ASM_FACE_FROM_STEP @5 14535 #
loop $-1 -1 $-1 $-1 $96 $64 #
coedge $-1 -1 $-1 $96 $96 $84 $97 forward $95 0 $-1 #
edge $105 39 $-1 $106 0 $106 6.283185307179586232 $84 $107 forward @7 unknown #
DXID-attrib $-1 -1 $-1 $-1 $86 @18 ASM_EDGE_FROM_STEP @4 8646 #
vertex $-1 36 $-1 $86 0 $108 #
ellipse-curve $-1 -1 $-1 0 0 -0.5 0 0 1 1.190109890109890101 0 0 1 I I #
point $-1 -1 $-1 0.9000000000000000222 0 -0.5000000000000009992 #
DXID-attrib $-1 -1 $-1 $-1 $92 @18 ASM_EDGE_FROM_STEP @4 8648 #
vertex $-1 38 $-1 $92 0 $109 #
ellipse-curve $-1 -1 $-1 0 0 0.2222222222222219878 0 0 1 1.190109890109890101 0 0 1 I I #
DXID-attrib $-1 -1 $-1 $-1 $97 @18 ASM_EDGE_FROM_STEP @4 8647 #
vertex $-1 37 $-1 $97 0 $110 #
ellipse-curve $-1 -1 $-1 0 0 -0.2222222222222219878 0 0 1 1.190109890109890101 0 0 1 I I #
point $-1 -1 $-1 1.190109890109890101 0 -0.5 #
point $-1 -1 $-1 1.190109890109890101 0 0.2222222222222219878 #
point $-1 -1 $-1 1.190109890109890101 0 -0.2222222222222219878 #
End-of-ASM-data 