22700 0 2 4           
16 Autodesk Neutron 20 ASM 227.1.1.65535 NT 24 Thu Aug 26 00:06:44 2021 
10 9.999999999999999547e-07 1.000000000000000036e-10 
asmheader $-1 -1 @13 227.1.1.65535 #
body $2 12 $-1 $3 $-1 $-1 #
ATTRIB_CUSTOM-attrib $-1 -1 $4 $-1 $1 @20 Timestamp_attrib_def 1 1406915265000 #
lump $-1 -1 $-1 $-1 $5 $1 #
ATTRIB_CUSTOM-attrib $-1 -1 $6 $2 $1 @22 generic_tag_attrib_def 3 3 -1 @23 generic_tag_attrib_def  4 3 @3 310 13 0 0 3 @3 430 13 0 0 3 @3 610 13 0 0 3 @3 743 13 0 0 #
shell $-1 -1 $-1 $-1 $-1 $7 $-1 $3 #
DXID-attrib $-1 -1 $-1 $4 $1 @18 ASM_BODY_FROM_STEP @4 2655 #
face $8 83 $-1 $9 $10 $5 $-1 $11 reversed single #
ATTRIB_CUSTOM-attrib $-1 -1 $12 $-1 $7 @22 generic_tag_attrib_def 3 3 -1 @23 generic_tag_attrib_def  1 2 @2 34 0 4 310 430 610 743 0 #
face $13 84 $-1 $14 $15 $5 $-1 $16 forward single #
loop $-1 -1 $-1 $17 $18 $7 #
cone-surface $-1 -1 $-1 0 0 -0.5000000000000009992 0 0 -1 -1.409890109890109988 0 0 1 I I 0 1 1.409890109890109988 forward I I I I #
DXID-attrib $-1 -1 $-1 $8 $7 @18 ASM_FACE_FROM_STEP @5 14547 #
ATTRIB_CUSTOM-attrib $-1 -1 $19 $-1 $9 @22 generic_tag_attrib_def 3 3 -1 @23 generic_tag_attrib_def  1 2 @2 35 0 4 310 430 610 743 0 #
face $20 85 $-1 $21 $22 $5 $-1 $23 reversed single #
loop $-1 -1 $-1 $24 $25 $9 #
plane-surface $-1 -1 $-1 0 1.409890109890109988 0.4749999999999999778 0 0 1 1 0 0 forward_v I I I I #
loop $-1 -1 $-1 $-1 $26 $7 #
coedge $-1 -1 $-1 $18 $18 $25 $27 forward $10 0 $-1 #
DXID-attrib $-1 -1 $-1 $13 $9 @18 ASM_FACE_FROM_STEP @5 14548 #
ATTRIB_CUSTOM-attrib $-1 -1 $28 $-1 $14 @22 generic_tag_attrib_def 3 3 -1 @23 generic_tag_attrib_def  1 2 @2 36 0 4 310 430 610 743 0 #
face $29 86 $-1 $30 $31 $5 $-1 $32 forward single #
loop $-1 -1 $-1 $33 $34 $14 #
cone-surface $-1 -1 $-1 0 0 -0.5000000000000009992 0 0 -1 -1.190109890109890101 0 0 1 I I 0 1 1.190109890109890101 forward I I I I #
loop $-1 -1 $-1 $-1 $35 $9 #
coedge $-1 -1 $-1 $25 $25 $18 $27 reversed $15 0 $-1 #
coedge $-1 -1 $-1 $26 $26 $36 $37 reversed $17 0 $-1 #
edge $38 71 $-1 $39 0 $39 6.283185307179586232 $18 $40 forward @7 unknown #
DXID-attrib $-1 -1 $-1 $20 $14 @18 ASM_FACE_FROM_STEP @5 14549 #
ATTRIB_CUSTOM-attrib $-1 -1 $41 $-1 $21 @22 generic_tag_attrib_def 3 3 -1 @23 generic_tag_attrib_def  1 2 @2 37 0 4 310 430 610 743 0 #
face $42 87 $-1 $43 $44 $5 $-1 $45 reversed single #
loop $-1 -1 $-1 $46 $47 $21 #
plane-surface $-1 -1 $-1 0 1.306371938184559989 0.2479083546414740102 0 0 -1 -1 0 0 forward_v I I I I #
loop $-1 -1 $-1 $-1 $48 $14 #
coedge $-1 -1 $-1 $34 $34 $49 $50 forward $22 0 $-1 #
coedge $-1 -1 $-1 $35 $35 $48 $51 forward $24 0 $-1 #
coedge $-1 -1 $-1 $36 $36 $26 $37 forward $52 0 $-1 #
edge $53 72 $-1 $54 0 $54 6.283185307179586232 $26 $55 forward @7 unknown #
DXID-attrib $-1 -1 $-1 $-1 $27 @18 ASM_EDGE_FROM_STEP @4 8659 #
vertex $-1 59 $-1 $27 0 $56 #
ellipse-curve $-1 -1 $-1 0 0 0.4749999999999999778 0 0 -1 -1.409890109890109988 0 0 1 I I #
DXID-attrib $-1 -1 $-1 $29 $21 @18 ASM_FACE_FROM_STEP @5 14550 #
ATTRIB_CUSTOM-attrib $-1 -1 $57 $-1 $30 @22 generic_tag_attrib_def 3 3 -1 @23 generic_tag_attrib_def  1 2 @2 38 0 4 310 430 610 743 0 #
face $58 88 $-1 $59 $60 $5 $-1 $61 forward single #
loop $-1 -1 $-1 $62 $63 $30 #
torus-surface $-1 -1 $-1 0 0 -2.204291436880279952e-16 0 0 -1 1.299630447328909977 0.2479999999999999982 -1 0 0 forward_v I I I I #
loop $-1 -1 $-1 $-1 $49 $21 #
coedge $-1 -1 $-1 $47 $47 $64 $65 forward $31 0 $-1 #
coedge $-1 -1 $-1 $48 $48 $35 $51 reversed $33 0 $-1 #
coedge $-1 -1 $-1 $49 $49 $34 $50 reversed $46 0 $-1 #
edge $66 74 $-1 $67 0 $67 6.283185307179586232 $34 $68 forward @7 unknown #
edge $69 73 $-1 $70 0 $70 6.283185307179586232 $35 $71 forward @7 unknown #
loop $-1 -1 $-1 $-1 $36 $72 #
DXID-attrib $-1 -1 $-1 $-1 $37 @18 ASM_EDGE_FROM_STEP @4 8660 #
vertex $-1 60 $-1 $37 0 $73 #
ellipse-curve $-1 -1 $-1 0 0 0.5 0 0 -1 -1.409890109890109988 0 0 1 I I #
point $-1 -1 $-1 -1.409890109890109988 0 0.4749999999999999778 #
DXID-attrib $-1 -1 $-1 $42 $30 @18 ASM_FACE_FROM_STEP @5 14551 #
ATTRIB_CUSTOM-attrib $-1 -1 $74 $-1 $43 @22 generic_tag_attrib_def 3 3 -1 @23 generic_tag_attrib_def  1 2 @2 39 0 4 310 430 610 743 0 #
face $75 89 $-1 $76 $77 $5 $-1 $78 reversed single #
loop $-1 -1 $-1 $79 $80 $43 #
plane-surface $-1 -1 $-1 0 1.306371938184559989 -0.2479083546414750094 0 0 1 1 0 0 forward_v I I I I #
loop $-1 -1 $-1 $-1 $64 $30 #
coedge $-1 -1 $-1 $63 $63 $80 $81 forward $44 0 $-1 #
coedge $-1 -1 $-1 $64 $64 $47 $65 reversed $62 0 $-1 #
edge $82 75 $-1 $83 0 $83 6.283185307179586232 $47 $84 forward @7 unknown #
DXID-attrib $-1 -1 $-1 $-1 $50 @18 ASM_EDGE_FROM_STEP @4 8662 #
vertex $-1 62 $-1 $50 0 $85 #
ellipse-curve $-1 -1 $-1 0 0 0.2479083546414740102 0 0 -1 -1.190109890109890101 0 0 1 I I #
DXID-attrib $-1 -1 $-1 $-1 $51 @18 ASM_EDGE_FROM_STEP @4 8661 #
vertex $-1 61 $-1 $51 0 $86 #
ellipse-curve $-1 -1 $-1 0 0 0.4749999999999999778 0 0 -1 -1.190109890109890101 0 0 1 I I #
face $87 94 $-1 $-1 $88 $5 $-1 $89 forward single #
point $-1 -1 $-1 -1.409890109890109988 0 0.5 #
DXID-attrib $-1 -1 $-1 $58 $43 @18 ASM_FACE_FROM_STEP @5 14552 #
ATTRIB_CUSTOM-attrib $-1 -1 $90 $-1 $59 @22 generic_tag_attrib_def 3 3 -1 @23 generic_tag_attrib_def  1 2 @2 40 0 4 310 430 610 743 0 #
face $91 90 $-1 $92 $93 $5 $-1 $94 forward single #
loop $-1 -1 $-1 $95 $96 $59 #
cone-surface $-1 -1 $-1 0 0 -0.5000000000000009992 0 0 -1 -1.190109890109890101 0 0 1 I I 0 1 1.190109890109890101 forward I I I I #
loop $-1 -1 $-1 $-1 $97 $43 #
coedge $-1 -1 $-1 $80 $80 $63 $81 reversed $60 0 $-1 #
edge $98 76 $-1 $99 0 $99 6.283185307179586232 $63 $100 forward @7 unknown #
DXID-attrib $-1 -1 $-1 $-1 $65 @18 ASM_EDGE_FROM_STEP @4 8663 #
vertex $-1 63 $-1 $65 0 $101 #
ellipse-curve $-1 -1 $-1 0 0 0.2479083546414740102 0 0 -1 -1.306371938184559989 0 0 1 I I #
point $-1 -1 $-1 -1.190109890109890101 0 0.2479083546414740102 #
point $-1 -1 $-1 -1.190109890109890101 0 0.4749999999999999778 #
ATTRIB_CUSTOM-attrib $-1 -1 $102 $-1 $72 @22 generic_tag_attrib_def 3 3 -1 @23 generic_tag_attrib_def  1 2 @2 45 0 4 310 430 610 743 0 #
loop $-1 -1 $-1 $52 $103 $72 #
plane-surface $-1 -1 $-1 0 1.699999999999999956 0.5 0 0 1 1 0 0 forward_v I I I I #
DXID-attrib $-1 -1 $-1 $75 $59 @18 ASM_FACE_FROM_STEP @5 14553 #
ATTRIB_CUSTOM-attrib $-1 -1 $104 $-1 $76 @22 generic_tag_attrib_def 3 3 -1 @23 generic_tag_attrib_def  1 2 @2 41 0 4 310 430 610 743 0 #
face $105 91 $-1 $106 $107 $5 $-1 $108 reversed single #
loop $-1 -1 $-1 $109 $110 $76 #
plane-surface $-1 -1 $-1 0 1.409890109890109988 -0.475000000000000977 0 0 -1 -1 0 0 forward_v I I I I #
loop $-1 -1 $-1 $-1 $111 $59 #
coedge $-1 -1 $-1 $96 $96 $112 $113 forward $77 0 $-1 #
coedge $-1 -1 $-1 $97 $97 $111 $114 forward $79 0 $-1 #
DXID-attrib $-1 -1 $-1 $-1 $81 @18 ASM_EDGE_FROM_STEP @4 8664 #
vertex $-1 64 $-1 $81 0 $115 #
ellipse-curve $-1 -1 $-1 0 0 -0.2479083546414750094 0 0 -1 -1.306371938184559989 0 0 1 I I #
point $-1 -1 $-1 -1.306371938184559989 0 0.2479083546414740102 #
DXID-attrib $-1 -1 $-1 $87 $72 @18 ASM_FACE_FROM_STEP @5 14558 #
coedge $-1 -1 $-1 $103 $103 $116 $117 reversed $88 0 $-1 #
DXID-attrib $-1 -1 $-1 $91 $76 @18 ASM_FACE_FROM_STEP @5 14554 #
ATTRIB_CUSTOM-attrib $-1 -1 $118 $-1 $92 @22 generic_tag_attrib_def 3 3 -1 @23 generic_tag_attrib_def  1 2 @2 42 0 4 310 430 610 743 0 #
face $119 92 $-1 $120 $121 $5 $-1 $122 forward single #
loop $-1 -1 $-1 $123 $124 $92 #
cone-surface $-1 -1 $-1 0 0 -0.5000000000000009992 0 0 -1 -1.409890109890109988 0 0 1 I I 0 1 1.409890109890109988 forward I I I I #
loop $-1 -1 $-1 $-1 $112 $76 #
coedge $-1 -1 $-1 $110 $110 $125 $126 forward $93 0 $-1 #
coedge $-1 -1 $-1 $111 $111 $97 $114 reversed $95 0 $-1 #
coedge $-1 -1 $-1 $112 $112 $96 $113 reversed $109 0 $-1 #
edge $127 78 $-1 $128 0 $128 6.283185307179586232 $96 $129 forward @7 unknown #
edge $130 77 $-1 $131 0 $131 6.283185307179586232 $97 $132 forward @7 unknown #
point $-1 -1 $-1 -1.306371938184559989 0 -0.2479083546414750094 #
coedge $-1 -1 $-1 $116 $116 $103 $117 forward $133 0 $-1 #
edge $134 82 $-1 $135 0 $135 6.283185307179586232 $116 $136 forward @7 unknown #
DXID-attrib $-1 -1 $-1 $105 $92 @18 ASM_FACE_FROM_STEP @5 14555 #
ATTRIB_CUSTOM-attrib $-1 -1 $137 $-1 $106 @22 generic_tag_attrib_def 3 3 -1 @23 generic_tag_attrib_def  1 2 @2 43 0 4 310 430 610 743 0 #
face $138 93 $-1 $72 $133 $5 $-1 $139 forward single #
loop $-1 -1 $-1 $140 $141 $106 #
plane-surface $-1 -1 $-1 0 1.699999999999999956 -0.5000000000000009992 0 0 -1 -1 0 0 forward_v I I I I #
loop $-1 -1 $-1 $-1 $125 $92 #
coedge $-1 -1 $-1 $124 $124 $142 $143 forward $107 0 $-1 #
coedge $-1 -1 $-1 $125 $125 $110 $126 reversed $123 0 $-1 #
edge $144 79 $-1 $145 0 $145 6.283185307179586232 $110 $146 forward @7 unknown #
DXID-attrib $-1 -1 $-1 $-1 $113 @18 ASM_EDGE_FROM_STEP @4 8666 #
vertex $-1 66 $-1 $113 0 $147 #
ellipse-curve $-1 -1 $-1 0 0 -0.475000000000000977 0 0 -1 -1.190109890109890101 0 0 1 I I #
DXID-attrib $-1 -1 $-1 $-1 $114 @18 ASM_EDGE_FROM_STEP @4 8665 #
vertex $-1 65 $-1 $114 0 $148 #
ellipse-curve $-1 -1 $-1 0 0 -0.2479083546414750094 0 0 -1 -1.190109890109890101 0 0 1 I I #
loop $-1 -1 $-1 $149 $116 $120 #
DXID-attrib $-1 -1 $-1 $-1 $117 @18 ASM_EDGE_FROM_STEP @4 8670 #
vertex $-1 70 $-1 $117 0 $150 #
ellipse-curve $-1 -1 $-1 0 0 0.5 0 0 -1 -1.699999999999999956 0 0 1 I I #
DXID-attrib $-1 -1 $-1 $119 $106 @18 ASM_FACE_FROM_STEP @5 14556 #
ATTRIB_CUSTOM-attrib $-1 -1 $151 $-1 $120 @22 generic_tag_attrib_def 3 3 -1 @23 generic_tag_attrib_def  1 2 @2 44 0 4 310 430 610 743 0 #
cone-surface $-1 -1 $-1 0 0 -0.5000000000000009992 0 0 -1 -1.699999999999999956 0 0 1 I I 0 1 1.699999999999999956 forward I I I I #
loop $-1 -1 $-1 $-1 $142 $106 #
coedge $-1 -1 $-1 $141 $141 $152 $153 forward $121 0 $-1 #
coedge $-1 -1 $-1 $142 $142 $124 $143 reversed $140 0 $-1 #
edge $154 80 $-1 $155 0 $155 6.283185307179586232 $124 $156 forward @7 unknown #
DXID-attrib $-1 -1 $-1 $-1 $126 @18 ASM_EDGE_FROM_STEP @4 8667 #
vertex $-1 67 $-1 $126 0 $157 #
ellipse-curve $-1 -1 $-1 0 0 -0.475000000000000977 0 0 -1 -1.409890109890109988 0 0 1 I I #
point $-1 -1 $-1 -1.190109890109890101 0 -0.475000000000000977 #
point $-1 -1 $-1 -1.190109890109890101 0 -0.2479083546414750094 #
loop $-1 -1 $-1 $-1 $152 $120 #
point $-1 -1 $-1 -1.699999999999999956 0 0.5 #
DXID-attrib $-1 -1 $-1 $138 $120 @18 ASM_FACE_FROM_STEP @5 14557 #
coedge $-1 -1 $-1 $152 $152 $141 $153 reversed $149 0 $-1 #
edge $158 81 $-1 $159 0 $159 6.283185307179586232 $141 $160 forward @7 unknown #
DXID-attrib $-1 -1 $-1 $-1 $143 @18 ASM_EDGE_FROM_STEP @4 8668 #
vertex $-1 68 $-1 $143 0 $161 #
ellipse-curve $-1 -1 $-1 0 0 -0.5000000000000009992 0 0 -1 -1.409890109890109988 0 0 1 I I #
point $-1 -1 $-1 -1.409890109890109988 0 -0.475000000000000977 #
DXID-attrib $-1 -1 $-1 $-1 $153 @18 ASM_EDGE_FROM_STEP @4 8669 #
vertex $-1 69 $-1 $153 0 $162 #
ellipse-curve $-1 -1 $-1 0 0 -0.5000000000000009992 0 0 -1 -1.699999999999999956 0 0 1 I I #
point $-1 -1 $-1 -1.409890109890109988 0 -0.5000000000000009992 #
point $-1 -1 $-1 -1.699999999999999956 0 -0.5000000000000009992 #
End-of-ASM-data 