22700 0 2 4           
16 Autodesk Neutron 20 ASM 227.1.1.65535 NT 24 Thu Aug 26 00:06:50 2021 
10 9.999999999999999547e-07 1.000000000000000036e-10 
asmheader $-1 -1 @13 227.1.1.65535 #
body $2 0 $-1 $3 $-1 $4 #
ATTRIB_CUSTOM-attrib $-1 -1 $5 $-1 $1 @20 Timestamp_attrib_def 1 1406915266000 #
lump $-1 -1 $-1 $-1 $6 $1 #
transform $-1 -1 1 0 0 0 1 0 0 0 1 0 0 0 1 no_rotate no_reflect no_shear #
ATTRIB_CUSTOM-attrib $-1 -1 $-1 $2 $1 @22 generic_tag_attrib_def 3 3 -1 @23 generic_tag_attrib_def  3 3 @3 523 1 0 0 3 @3 680 1 0 0 3 @3 810 1 0 0 #
shell $-1 -1 $-1 $-1 $-1 $7 $-1 $3 #
face $8 24 $-1 $9 $10 $6 $-1 $11 forward single #
ATTRIB_CUSTOM-attrib $-1 -1 $-1 $-1 $7 @22 generic_tag_attrib_def 3 3 -1 @23 generic_tag_attrib_def  1 1 @1 1 0 3 550 680 810 0 #
face $12 25 $-1 $13 $14 $6 $-1 $15 forward single #
loop $-1 -1 $-1 $16 $17 $7 #
torus-surface $-1 -1 $-1 20.33699040264351865 -14.14107875045973017 -0.5557720680012041559 0.9972372355389862442 0.0742825420577432477 -6.384081386352811789e-16 1.687141385054052645 0.05000000000000000278 -6.401767963369665568e-16 0 -1 forward_v I I I I #
ATTRIB_CUSTOM-attrib $-1 -1 $18 $-1 $9 @22 generic_tag_attrib_def 3 3 -1 @23 generic_tag_attrib_def  1 4 @4 6226 0 3 523 680 810 0 #
face $19 26 $-1 $20 $21 $6 $-1 $22 reversed single #
loop $23 -1 $-1 $24 $25 $9 #
cone-surface $-1 -1 $-1 20.28712854086656847 -14.14479287756261705 -0.5557720680012040448 -0.9972372355389862442 -0.0742825420577432477 6.384081386352811789e-16 -1.117214242611742433e-15 -4.155215639263782147e-17 -1.750000000000000666 1 I I 0.2249510543438650312 0.9743700647852352459 1.750000000000000222 forward I I I I #
loop $-1 -1 $-1 $-1 $26 $7 #
coedge $-1 -1 $-1 $17 $17 $27 $28 forward $10 0 $-1 #
DXID-attrib $-1 -1 $-1 $12 $9 @7 PS-Face @2 15 #
ATTRIB_CUSTOM-attrib $-1 -1 $29 $-1 $13 @22 generic_tag_attrib_def 3 3 -1 @23 generic_tag_attrib_def  1 4 @4 6228 0 3 523 680 810 0 #
face $30 27 $-1 $31 $32 $6 $-1 $33 reversed single #
loop $34 -1 $-1 $35 $36 $13 #
plane-surface $-1 -1 $-1 20.28712854086656847 -14.14479287756261705 -0.5557720680012040448 0.9972372355389862442 0.0742825420577432477 -6.384081386352811789e-16 -6.384081386352812775e-16 -2.374408936722150045e-17 -1.000000000000000222 forward_v I I I I #
DXID-attrib $-1 -1 $-1 $-1 $14 @7 PS-Loop @2 20 #
loop $-1 -1 $-1 $-1 $37 $9 #
coedge $-1 -1 $-1 $25 $25 $38 $39 reversed $14 0 $-1 #
coedge $-1 -1 $-1 $26 $26 $37 $40 forward $16 0 $-1 #
coedge $-1 -1 $-1 $27 $27 $17 $28 reversed $35 0 $-1 #
edge $-1 19 $-1 $41 -3.141592653589793116 $41 3.141592653589793116 $27 $42 forward @7 tangent #
DXID-attrib $-1 -1 $-1 $19 $13 @7 PS-Face @1 1 #
ATTRIB_CUSTOM-attrib $-1 -1 $-1 $-1 $20 @22 generic_tag_attrib_def 3 3 -1 @23 generic_tag_attrib_def  1 4 @4 6225 0 3 523 680 810 0 #
face $43 28 $-1 $-1 $44 $6 $-1 $45 reversed single #
loop $-1 -1 $-1 $46 $38 $20 #
plane-surface $-1 -1 $-1 21.78298439417504184 -14.03336906447600008 -0.555772068001205044 -0.9972372355389864662 -0.07428254205774136032 1.202428299305071925e-15 6.790369989285833511e-16 7.071208188547730256e-15 1.000000000000000222 forward_v I I I I #
DXID-attrib $-1 -1 $-1 $-1 $21 @7 PS-Loop @1 6 #
loop $-1 -1 $-1 $-1 $27 $13 #
coedge $-1 -1 $-1 $36 $36 $47 $48 forward $21 0 $-1 #
coedge $-1 -1 $-1 $37 $37 $26 $40 reversed $24 0 $-1 #
coedge $-1 -1 $-1 $38 $38 $25 $39 forward $32 0 $-1 #
edge $49 21 $-1 $50 -3.141592653589792672 $50 3.14159265358979356 $38 $51 forward @7 unknown #
edge $-1 20 $-1 $52 -3.141592653589793116 $52 3.141592653589793116 $37 $53 forward @7 tangent #
vertex $-1 14 $-1 $28 0 $54 #
ellipse-curve $-1 -1 $-1 20.28712854086656847 -14.14479287756261705 -0.5557720680012041559 0.9972372355389862442 0.0742825420577432477 -6.384081386352811789e-16 1.049149198095483926e-15 4.150927582184046343e-16 1.687141385054052645 1 I I #
ATTRIB_CUSTOM-attrib $-1 -1 $55 $-1 $31 @22 generic_tag_attrib_def 3 3 -1 @23 generic_tag_attrib_def  1 4 @4 6227 0 3 523 680 810 0 #
loop $56 -1 $-1 $57 $47 $31 #
cone-surface $-1 -1 $-1 20.28712854086656847 -14.14479287756261705 -0.5557720680012040448 0.9972372355389862442 0.0742825420577432477 -6.384081386352811789e-16 -4.085812087265801537e-16 -1.519621719502126109e-17 -0.6400000000000001243 1 I I 0 1 0.6400000000000000133 forward I I I I #
loop $-1 -1 $-1 $-1 $58 $20 #
coedge $-1 -1 $-1 $47 $47 $36 $48 reversed $44 0 $-1 #
edge $59 22 $-1 $60 0 $60 6.283185307179586232 $47 $61 forward @7 unknown #
DXID-attrib $-1 -1 $-1 $-1 $39 @7 PS-Edge @2 28 #
vertex $-1 16 $-1 $39 0 $62 #
ellipse-curve $-1 -1 $-1 21.78298439417504184 -14.03336906447600008 -0.555772068001205044 0.9972372355389862442 0.07428254205774326158 -6.384081386352812775e-16 -8.961320443618950047e-16 -3.332952394943847984e-17 -1.403697713311655715 1 I I #
vertex $-1 15 $-1 $40 0 $63 #
ellipse-curve $-1 -1 $-1 20.34820688102179176 -14.14024325365196866 -0.5557720680012042669 -0.9972372355389864662 -0.07428254205774134644 0 0 0 1.735859888293314501 1 I I #
point $-1 -1 $-1 20.28712854086656847 -14.14479287756261705 -2.242913453055257023 #
DXID-attrib $-1 -1 $-1 $43 $31 @7 PS-Face @1 8 #
DXID-attrib $-1 -1 $-1 $-1 $44 @7 PS-Loop @2 13 #
loop $64 -1 $-1 $-1 $65 $31 #
coedge $-1 -1 $-1 $58 $58 $65 $66 forward $46 0 $-1 #
DXID-attrib $-1 -1 $-1 $-1 $48 @7 PS-Edge @2 22 #
vertex $-1 17 $-1 $48 0 $67 #
ellipse-curve $-1 -1 $-1 20.28712854086656847 -14.14479287756261705 -0.5557720680012040448 0.9972372355389862442 0.0742825420577432477 -6.384081386352811789e-16 -4.085812087265801537e-16 -1.519621719502126109e-17 -0.6400000000000001243 1 I I #
point $-1 -1 $-1 21.78298439417504184 -14.03336906447600185 0.8479256453104507818 #
point $-1 -1 $-1 20.34820688102179176 -14.14024325365196866 -2.291631956294518879 #
DXID-attrib $-1 -1 $-1 $-1 $57 @7 PS-Loop @2 14 #
coedge $-1 -1 $-1 $65 $65 $58 $66 reversed $57 0 $-1 #
edge $68 23 $-1 $69 -3.141592653589794448 $69 3.141592653589791784 $58 $70 forward @7 unknown #
point $-1 -1 $-1 20.28712854086656847 -14.14479287756261705 -1.195772068001204058 #
DXID-attrib $-1 -1 $-1 $-1 $66 @7 PS-Edge @2 26 #
vertex $-1 18 $-1 $66 0 $71 #
ellipse-curve $-1 -1 $-1 21.78298439417504184 -14.03336906447600008 -0.555772068001205044 -0.9972372355389862442 -0.07428254205774326158 6.384081386352812775e-16 -4.085812087265803016e-16 -1.519621719502126725e-17 -0.6400000000000002354 1 I I #
point $-1 -1 $-1 21.78298439417504184 -14.03336906447600185 0.08422793199879516357 #
End-of-ASM-data 