22700 0 2 4           
16 Autodesk Neutron 20 ASM 227.1.1.65535 NT 24 Thu Aug 26 00:06:50 2021 
10 9.999999999999999547e-07 1.000000000000000036e-10 
asmheader $-1 -1 @13 227.1.1.65535 #
body $2 0 $-1 $3 $-1 $-1 #
ATTRIB_CUSTOM-attrib $-1 -1 $4 $-1 $1 @20 Timestamp_attrib_def 1 1406915266000 #
lump $-1 -1 $-1 $-1 $5 $1 #
ATTRIB_CUSTOM-attrib $-1 -1 $-1 $2 $1 @22 generic_tag_attrib_def 3 3 -1 @23 generic_tag_attrib_def  3 3 @3 534 1 0 0 3 @3 691 1 0 0 3 @3 821 1 0 0 #
shell $-1 -1 $-1 $-1 $-1 $6 $-1 $3 #
face $7 7 $-1 $8 $9 $5 $-1 $10 reversed single #
ATTRIB_CUSTOM-attrib $-1 -1 $11 $-1 $6 @22 generic_tag_attrib_def 3 3 -1 @23 generic_tag_attrib_def  1 2 @2 21 0 3 534 691 821 0 #
face $12 8 $-1 $13 $14 $5 $-1 $15 forward single #
loop $16 -1 $-1 $-1 $17 $6 #
plane-surface $-1 -1 $-1 17.48693734243921583 -29.2004075423992191 0.6369999999998932072 -0.07428254205774345587 0.9972372355389863552 0 6.963670396567770073e-15 5.187122187928829685e-16 1.000000000000000222 forward_v I I I I #
DXID-attrib $-1 -1 $-1 $7 $6 @7 PS-Face @1 1 #
ATTRIB_CUSTOM-attrib $-1 -1 $-1 $-1 $8 @22 generic_tag_attrib_def 3 3 -1 @23 generic_tag_attrib_def  1 2 @2 22 0 3 534 691 821 0 #
face $18 9 $-1 $19 $20 $5 $-1 $21 forward single #
loop $-1 -1 $-1 $-1 $22 $8 #
plane-surface $-1 -1 $-1 15.88401971333483331 -23.16279583955624588 0.01199999999990120081 -0.07428254205774345587 0.9972372355389863552 0 0 -0 1 forward_v I I I I #
DXID-attrib $-1 -1 $-1 $-1 $9 @7 PS-Loop @1 6 #
coedge $-1 -1 $-1 $17 $17 $23 $24 reversed $9 0 $-1 #
ATTRIB_CUSTOM-attrib $-1 -1 $-1 $-1 $13 @22 generic_tag_attrib_def 3 3 -1 @23 generic_tag_attrib_def  1 2 @2 23 0 3 534 691 821 0 #
face $25 10 $-1 $-1 $26 $5 $-1 $27 forward single #
loop $-1 -1 $-1 $28 $29 $13 #
cone-surface $-1 -1 $-1 16.31411563184916957 -28.93679943332698201 0.01199999999990120081 0.07428254205774345587 -0.9972372355389863552 0 4.421930701820535093e-15 3.293822589334807412e-16 0.6350000000000001199 1 I I -0.2998265967403953569 0.9539937169012552287 0.6350000000000001199 forward I I I I #
coedge $-1 -1 $-1 $22 $22 $30 $31 forward $14 0 $-1 #
coedge $-1 -1 $-1 $23 $23 $17 $24 forward $28 0 $-1 #
edge $32 2 $-1 $33 -2.345848344318800513e-16 $33 6.283185307179586232 $17 $34 forward @7 unknown #
ATTRIB_CUSTOM-attrib $-1 -1 $35 $-1 $19 @22 generic_tag_attrib_def 3 3 -1 @23 generic_tag_attrib_def  1 2 @2 24 0 3 534 691 821 0 #
loop $36 -1 $-1 $37 $38 $19 #
cone-surface $-1 -1 $-1 15.76442482062186734 -21.55724389033848354 0.01199999999990120081 0.07428254205774345587 -0.9972372355389863552 0 -4.421930701820534304e-15 -3.293822589334806919e-16 -0.6350000000000001199 1 I I 0 1 0.6350000000000000089 forward I I I I #
loop $-1 -1 $-1 $-1 $23 $13 #
coedge $-1 -1 $-1 $29 $29 $38 $39 forward $20 0 $-1 #
coedge $-1 -1 $-1 $30 $30 $22 $31 reversed $37 0 $-1 #
edge $40 1 $-1 $41 1.386088584617400751e-15 $41 6.283185307179588008 $22 $42 forward @7 unknown #
DXID-attrib $-1 -1 $-1 $-1 $24 @7 PS-Edge @1 7 #
vertex $-1 3 $-1 $24 0 $43 #
ellipse-curve $-1 -1 $-1 16.34011452156937949 -29.28583246576562615 0.01199999999990120081 -0.07428254205774345587 0.9972372355389863552 0 3.65592695819807917e-15 2.723239148662635634e-16 0.5250000000000001332 1 I I #
DXID-attrib $-1 -1 $-1 $25 $19 @7 PS-Face @1 1 #
DXID-attrib $-1 -1 $-1 $-1 $26 @7 PS-Loop @1 6 #
loop $44 -1 $-1 $-1 $30 $19 #
coedge $-1 -1 $-1 $38 $38 $29 $39 reversed $26 0 $-1 #
edge $45 6 $-1 $46 1.403595169483822328e-15 $46 6.283185307179588008 $29 $47 forward @7 unknown #
DXID-attrib $-1 -1 $-1 $-1 $31 @7 PS-Edge @2 10 #
vertex $-1 4 $-1 $31 0 $48 #
ellipse-curve $-1 -1 $-1 15.88401971333483331 -23.16279583955624588 0.01199999999990120081 -0.07428254205774345587 0.9972372355389863552 0 4.421930701820534304e-15 3.293822589334806919e-16 0.6350000000000001199 1 I I #
point $-1 -1 $-1 16.34011452156938304 -29.28583246576562615 0.536999999999901334 #
DXID-attrib $-1 -1 $-1 $-1 $37 @7 PS-Loop @1 7 #
DXID-attrib $-1 -1 $-1 $-1 $39 @7 PS-Edge @1 8 #
vertex $-1 5 $-1 $39 0 $49 #
ellipse-curve $-1 -1 $-1 16.31411563184916957 -28.93679943332698201 0.01199999999990120081 0.07428254205774345587 -0.9972372355389863552 -0 4.421930701820534304e-15 3.293822589334806919e-16 0.6350000000000001199 1 I I #
point $-1 -1 $-1 15.88401971333483864 -23.16279583955624588 0.6469999999999012097 #
point $-1 -1 $-1 16.31411563184917313 -28.93679943332698201 0.6469999999999013207 #
End-of-ASM-data 