22700 0 2 4           
16 Autodesk Neutron 20 ASM 227.1.1.65535 NT 24 Thu Aug 26 00:06:52 2021 
10 9.999999999999999547e-07 1.000000000000000036e-10 
asmheader $-1 -1 @13 227.1.1.65535 #
body $2 0 $-1 $3 $-1 $4 #
ATTRIB_CUSTOM-attrib $-1 -1 $5 $-1 $1 @20 Timestamp_attrib_def 1 1406915266000 #
lump $-1 -1 $-1 $-1 $6 $1 #
transform $-1 -1 1 0 0 0 1 0 0 0 1 0 0 0 1 no_rotate no_reflect no_shear #
ATTRIB_CUSTOM-attrib $-1 -1 $-1 $2 $1 @22 generic_tag_attrib_def 3 3 -1 @23 generic_tag_attrib_def  3 3 @3 559 5 0 0 3 @3 698 1 0 0 3 @3 828 1 0 0 #
shell $-1 -1 $-1 $-1 $-1 $7 $-1 $3 #
face $8 9 $-1 $9 $10 $6 $-1 $11 forward single #
ATTRIB_CUSTOM-attrib $-1 -1 $-1 $-1 $7 @22 generic_tag_attrib_def 3 3 -1 @23 generic_tag_attrib_def  1 1 @1 4 0 3 559 698 828 0 #
face $12 10 $-1 $13 $14 $6 $-1 $15 forward single #
loop $-1 -1 $-1 $16 $17 $7 #
cone-surface $-1 -1 $-1 1.776356839400250465e-14 13.45073931378058418 0.625000000000124234 -7.59392548843606979e-15 7.105427357601000281e-15 -1 -0.4051276269377140915 -0.03017728271095854176 2.862086522119421713e-15 1 I I 0 -1 0.4062500000000009437 forward I I I I #
ATTRIB_CUSTOM-attrib $-1 -1 $-1 $-1 $9 @22 generic_tag_attrib_def 3 3 -1 @23 generic_tag_attrib_def  1 1 @1 3 0 3 559 698 828 0 #
face $18 11 $-1 $19 $20 $6 $-1 $21 forward single #
loop $-1 -1 $-1 $22 $23 $9 #
cone-surface $-1 -1 $-1 1.776356839400250465e-14 13.45073931378058418 0.625000000000124234 -7.59392548843606979e-15 7.105427357601000281e-15 -1 0.5990796125541298922 0.0446244433416459127 -4.232290198839765422e-15 1 I I 0 1 0.6007393137805766559 forward I I I I #
loop $-1 -1 $-1 $-1 $24 $7 #
coedge $-1 -1 $-1 $17 $17 $25 $26 reversed $10 0 $-1 #
ATTRIB_CUSTOM-attrib $-1 -1 $-1 $-1 $13 @22 generic_tag_attrib_def 3 3 -1 @23 generic_tag_attrib_def  1 1 @1 1 0 3 559 698 828 0 #
face $27 12 $-1 $-1 $28 $6 $-1 $29 reversed single #
loop $-1 -1 $-1 $30 $31 $13 #
plane-surface $-1 -1 $-1 1.776356839400250465e-14 13.45073931378058418 0.625000000000124234 7.604508954209992464e-15 -6.435861190038528955e-15 1 -0.9972372355389863552 -0.07428254205774394159 7.10542735760100107e-15 forward_v I I I I #
loop $-1 -1 $-1 $-1 $32 $9 #
coedge $-1 -1 $-1 $23 $23 $33 $34 reversed $14 0 $-1 #
coedge $35 -1 $-1 $24 $24 $31 $36 reversed $16 0 $-1 #
coedge $-1 -1 $-1 $25 $25 $17 $26 forward $28 0 $-1 #
edge $-1 1 $-1 $37 -3.141592653589793116 $37 3.141592653589793116 $17 $38 forward @7 unknown #
ATTRIB_CUSTOM-attrib $-1 -1 $-1 $-1 $19 @22 generic_tag_attrib_def 3 3 -1 @23 generic_tag_attrib_def  1 1 @1 2 0 3 559 698 828 0 #
loop $-1 -1 $-1 $39 $25 $19 #
plane-surface $-1 -1 $-1 8.271161533457416226e-15 13.45073931378059306 -0.6249999999998759881 7.604508954209992464e-15 -6.435861190038528955e-15 1 -0.9972372355389863552 -0.07428254205774394159 7.10542735760100107e-15 forward_v I I I I #
loop $-1 -1 $-1 $-1 $40 $13 #
coedge $41 -1 $-1 $31 $31 $24 $36 forward $20 0 $-1 #
coedge $42 -1 $-1 $32 $32 $40 $43 forward $22 0 $-1 #
coedge $-1 -1 $-1 $33 $33 $23 $34 forward $39 0 $-1 #
edge $-1 7 $-1 $44 -3.141592653589793116 $44 3.141592653589793116 $23 $45 forward @7 unknown #
ATTRIB_CUSTOM-attrib $-1 -1 $-1 $-1 $24 @17 sketch_attrib_def 1 1 3 @13 121 0 0 0 1 1 #
edge $-1 6 $-1 $46 -3.141592653589793116 $46 3.141592653589793116 $31 $47 forward @7 unknown #
vertex $-1 2 $-1 $26 2 $48 #
ellipse-curve $-1 -1 $-1 8.271161533457416226e-15 13.45073931378059306 -0.6249999999998759881 7.604508954209992464e-15 -6.435861190038528955e-15 1 -0.4051276269377140915 -0.03017728271095854176 2.886579864025412922e-15 1 I I #
loop $-1 -1 $-1 $-1 $33 $19 #
coedge $49 -1 $-1 $40 $40 $32 $43 reversed $30 0 $-1 #
ATTRIB_CUSTOM-attrib $-1 -1 $-1 $-1 $31 @17 sketch_attrib_def 1 1 3 @13 121 0 0 0 1 1 #
ATTRIB_CUSTOM-attrib $-1 -1 $-1 $-1 $32 @17 sketch_attrib_def 1 1 3 @13 120 0 1 0 1 1 #
edge $-1 8 $-1 $50 -3.141592653589793116 $50 3.141592653589793116 $40 $51 forward @7 unknown #
vertex $-1 4 $-1 $34 2 $52 #
ellipse-curve $-1 -1 $-1 8.271161533457416226e-15 13.45073931378059306 -0.6249999999998759881 -7.604508954209992464e-15 6.435861190038528955e-15 -1 0.5990796125541298922 0.0446244433416459127 -4.268509554922960332e-15 1 I I #
vertex $-1 3 $-1 $36 0 $53 #
ellipse-curve $-1 -1 $-1 1.776356839400250465e-14 13.45073931378058418 0.625000000000124234 -7.604508954209992464e-15 6.435861190038528955e-15 -1 -0.4051276269377140915 -0.03017728271095854176 2.886579864025412922e-15 1 I I #
point $-1 -1 $-1 0.4051276269377226957 13.48091659649155183 -0.6249999999998788747 #
ATTRIB_CUSTOM-attrib $-1 -1 $-1 $-1 $40 @17 sketch_attrib_def 1 1 3 @13 120 0 1 0 1 1 #
vertex $-1 5 $-1 $43 0 $54 #
ellipse-curve $-1 -1 $-1 1.776356839400250465e-14 13.45073931378058418 0.625000000000124234 -7.604508954209992464e-15 6.435861190038528955e-15 -1 0.5990796125541298922 0.0446244433416459127 -4.268509554922960332e-15 1 I I #
point $-1 -1 $-1 -0.5990796125541215655 13.40611487043894989 -0.6249999999998716582 #
point $-1 -1 $-1 0.4051276269377321881 13.48091659649154295 0.6250000000001213474 #
point $-1 -1 $-1 -0.5990796125541120176 13.40611487043894101 0.6250000000001285638 #
End-of-ASM-data 