22700 0 2 4           
16 Autodesk Neutron 20 ASM 227.1.1.65535 NT 24 Thu Aug 26 00:06:53 2021 
10 9.999999999999999547e-07 1.000000000000000036e-10 
asmheader $-1 -1 @13 227.1.1.65535 #
body $2 0 $-1 $3 $-1 $4 #
ATTRIB_CUSTOM-attrib $-1 -1 $5 $-1 $1 @20 Timestamp_attrib_def 1 1406915266000 #
lump $-1 -1 $-1 $-1 $6 $1 #
transform $-1 -1 1 0 0 0 1 0 0 0 1 0 0 0 1 no_rotate no_reflect no_shear #
ATTRIB_CUSTOM-attrib $-1 -1 $-1 $2 $1 @22 generic_tag_attrib_def 3 3 -1 @23 generic_tag_attrib_def  5 3 @3 554 5 0 0 3 @3 563 3 0 0 3 @3 566 5 0 0 3 @3 695 1 0 0 3 @3 825 1 0 0 #
shell $-1 -1 $-1 $-1 $-1 $7 $-1 $3 #
face $8 13 $-1 $9 $10 $6 $-1 $11 forward single #
ATTRIB_CUSTOM-attrib $-1 -1 $-1 $-1 $7 @22 generic_tag_attrib_def 3 3 -1 @23 generic_tag_attrib_def  1 3 @3 287 0 1 825 0 #
face $12 14 $-1 $13 $14 $6 $-1 $15 forward single #
loop $-1 -1 $-1 $16 $17 $7 #
cone-surface $-1 -1 $-1 0.040811696282919252 -8.039260686219385832 0.6236661268712347939 -0.06529871134796765009 -4.198030811863873168e-16 -0.9978657616615046466 -1.018424770175287673e-16 0.5999999999999934275 -2.450296909817240021e-16 1 I I 0 1 0.5999999999999934275 forward I I I I #
ATTRIB_CUSTOM-attrib $-1 -1 $-1 $-1 $9 @22 generic_tag_attrib_def 3 3 -1 @23 generic_tag_attrib_def  1 3 @3 288 0 1 825 0 #
face $18 15 $-1 $19 $20 $6 $-1 $21 forward single #
loop $-1 -1 $-1 $22 $23 $9 #
plane-surface $-1 -1 $-1 1.690446227442521376e-09 -8.039260686219369845 2.583279389706261142e-08 -0.06529871134796769172 -5.204170427930421283e-18 -0.9978657616615046466 -1.25726265031258274e-16 1 4.336808689942017736e-18 forward_v I I I I #
loop $-1 -1 $-1 $-1 $24 $7 #
coedge $-1 -1 $-1 $17 $17 $25 $26 reversed $10 0 $-1 #
ATTRIB_CUSTOM-attrib $-1 -1 $-1 $-1 $13 @22 generic_tag_attrib_def 3 3 -1 @23 generic_tag_attrib_def  2 1 @1 4 0 3 554 695 825 0 1 @1 4 0 3 566 695 825 0 #
face $27 16 $-1 $28 $29 $6 $-1 $30 reversed single #
loop $-1 -1 $-1 $31 $32 $13 #
cone-surface $-1 -1 $-1 0.04081169459247031839 -8.039260686219368068 0.6236661010384494386 -0.06529871134796765009 0 -0.9978657616615047576 4.766568589720862725e-17 -0.40625 -3.119164905931034583e-18 1 I I 0 -1 0.40625 forward I I I I #
loop $-1 -1 $-1 $-1 $25 $9 #
coedge $-1 -1 $-1 $23 $23 $32 $33 forward $14 0 $-1 #
coedge $-1 -1 $-1 $24 $24 $34 $35 reversed $16 0 $-1 #
coedge $-1 -1 $-1 $25 $25 $17 $26 forward $22 0 $-1 #
edge $-1 2 $-1 $36 -3.141592653589793116 $36 3.141592653589793116 $17 $37 forward @7 unknown #
ATTRIB_CUSTOM-attrib $-1 -1 $-1 $-1 $19 @22 generic_tag_attrib_def 3 3 -1 @23 generic_tag_attrib_def  1 1 @1 1 0 3 566 695 825 0 #
face $38 17 $-1 $39 $40 $6 $-1 $41 forward single #
loop $-1 -1 $-1 $42 $34 $19 #
plane-surface $-1 -1 $-1 0.04081169459247030451 -8.039260686219368068 0.6236661010384494386 0.06529871134796765009 -9.66116564759758289e-17 0.9978657616615046466 1.110223024625167141e-16 -1 -1.040834085586095227e-16 forward_v I I I I #
loop $-1 -1 $-1 $-1 $43 $13 #
coedge $-1 -1 $-1 $32 $32 $23 $33 reversed $20 0 $-1 #
edge $-1 4 $-1 $44 -3.141592653589793116 $44 3.141592653589793116 $32 $45 forward @7 unknown #
coedge $-1 -1 $-1 $34 $34 $24 $35 forward $29 0 $-1 #
edge $-1 3 $-1 $46 -3.141592653589793116 $46 3.141592653589793116 $34 $47 forward @7 unknown #
vertex $-1 6 $-1 $26 0 $48 #
ellipse-curve $-1 -1 $-1 1.690439566104373625e-09 -8.039260686219385832 2.583279436890739689e-08 -0.06529871134796769172 9.107298248878237246e-17 -0.9978657616615046466 -8.097073816423555268e-17 0.5999999999999934275 6.07153216591882483e-17 1 I I #
ATTRIB_CUSTOM-attrib $-1 -1 $-1 $-1 $28 @22 generic_tag_attrib_def 3 3 -1 @23 generic_tag_attrib_def  1 1 @1 3 0 3 566 695 825 0 #
face $49 18 $-1 $-1 $50 $6 $-1 $51 forward single #
loop $-1 -1 $-1 $52 $53 $28 #
cone-surface $-1 -1 $-1 0.04081169459247031839 -8.039260686219368068 0.6236661010384494386 0.06529871134796765009 0 0.9978657616615046466 9.386473530527225534e-17 -0.7999999999999989342 -6.142355507064204643e-18 1 I I 0 1 0.7999999999999989342 forward I I I I #
loop $-1 -1 $-1 $-1 $54 $19 #
coedge $-1 -1 $-1 $43 $43 $55 $56 reversed $31 0 $-1 #
vertex $-1 8 $-1 $33 0 $57 #
ellipse-curve $-1 -1 $-1 1.690446338464823839e-09 -8.039260686219369845 2.583279389706261142e-08 0.06529871134796769172 5.204170427930421283e-18 0.9978657616615046466 -5.541310716761314176e-17 0.4062499999999999445 1.734723475976807094e-18 1 I I #
vertex $-1 7 $-1 $35 0 $58 #
ellipse-curve $-1 -1 $-1 0.04081169459246385134 -8.039260686219385832 0.6236661010384498827 0.06529871134796765009 -9.66116564759758289e-17 0.9978657616615046466 -1.018424770175287673e-16 0.5999999999999934275 -2.450296909817240021e-16 1 I I #
point $-1 -1 $-1 1.690439455082071163e-09 -8.639260686219378371 2.583279432727403346e-08 #
ATTRIB_CUSTOM-attrib $-1 -1 $-1 $-1 $39 @22 generic_tag_attrib_def 3 3 -1 @23 generic_tag_attrib_def  1 1 @1 2 0 3 566 695 825 0 #
loop $-1 -1 $-1 $59 $55 $39 #
plane-surface $-1 -1 $-1 0.1093753415078363433 -8.039260686219368068 1.671425150783029334 0.06529871134796765009 -9.66116564759758289e-17 0.9978657616615046466 1.110223024625167141e-16 -1 -1.040834085586095227e-16 forward_v I I I I #
loop $-1 -1 $-1 $-1 $60 $28 #
coedge $-1 -1 $-1 $53 $53 $61 $62 reversed $40 0 $-1 #
coedge $63 -1 $-1 $54 $54 $60 $64 reversed $42 0 $-1 #
coedge $-1 -1 $-1 $55 $55 $43 $56 forward $50 0 $-1 #
edge $-1 1 $-1 $65 -3.141592653589793116 $65 3.141592653589793116 $43 $66 forward @7 unknown #
point $-1 -1 $-1 1.690446227442521376e-09 -8.445510686219368068 2.583279393869597484e-08 #
point $-1 -1 $-1 0.040811696282919252 -8.639260686219378371 0.6236661268712346828 #
loop $-1 -1 $-1 $-1 $61 $39 #
coedge $67 -1 $-1 $60 $60 $54 $64 forward $52 0 $-1 #
coedge $-1 -1 $-1 $61 $61 $53 $62 forward $59 0 $-1 #
edge $-1 12 $-1 $68 -3.141592653589793116 $68 3.141592653589793116 $53 $69 forward @7 unknown #
ATTRIB_CUSTOM-attrib $-1 -1 $-1 $-1 $54 @17 sketch_attrib_def 1 1 3 @13 102 0 0 0 1 1 #
edge $-1 5 $-1 $70 -3.141592653589793116 $70 3.141592653589793116 $60 $71 forward @7 unknown #
vertex $-1 9 $-1 $56 0 $72 #
ellipse-curve $-1 -1 $-1 0.1093753415078363572 -8.039260686219368068 1.671425150783029334 -0.06529871134796765009 9.661165647597573029e-17 -0.9978657616615046466 4.510281037539741586e-17 -0.40625 -4.228388472693507968e-17 1 I I #
ATTRIB_CUSTOM-attrib $-1 -1 $-1 $-1 $60 @17 sketch_attrib_def 1 1 3 @13 102 0 0 0 1 1 #
vertex $-1 11 $-1 $62 0 $73 #
ellipse-curve $-1 -1 $-1 0.1093753415078363572 -8.039260686219368068 1.671425150783029334 0.06529871134796765009 -9.66116564759758289e-17 0.9978657616615046466 8.88178419700132554e-17 -0.7999999999999989342 -8.326672684688750474e-17 1 I I #
vertex $-1 10 $-1 $64 0 $74 #
ellipse-curve $-1 -1 $-1 0.04081169459247031839 -8.039260686219368068 0.6236661010384494386 0.06529871134796765009 -9.66116564759758289e-17 0.9978657616615046466 8.88178419700132554e-17 -0.7999999999999989342 -8.326672684688750474e-17 1 I I #
point $-1 -1 $-1 0.1093753415078362601 -7.633010686219368068 1.671425150783029334 #
point $-1 -1 $-1 0.1093753415078361768 -7.239260686219369134 1.671425150783029334 #
point $-1 -1 $-1 0.04081169459247013104 -7.239260686219369134 0.6236661010384495496 #
End-of-ASM-data 