22700 0 2 4           
16 Autodesk Neutron 20 ASM 227.1.1.65535 NT 24 Thu Aug 26 00:06:56 2021 
10 9.999999999999999547e-07 1.000000000000000036e-10 
asmheader $-1 -1 @13 227.1.1.65535 #
body $2 57 $-1 $3 $-1 $-1 #
ATTRIB_CUSTOM-attrib $-1 -1 $4 $-1 $1 @20 Timestamp_attrib_def 1 1407265925000 #
lump $-1 -1 $-1 $-1 $5 $1 #
ATTRIB_CUSTOM-attrib $-1 -1 $-1 $2 $1 @22 generic_tag_attrib_def 3 3 -1 @23 generic_tag_attrib_def  1 3 @3 957 17 0 0 #
shell $-1 -1 $-1 $-1 $-1 $6 $-1 $3 #
face $7 511 $-1 $8 $9 $5 $-1 $10 reversed single #
ATTRIB_CUSTOM-attrib $-1 -1 $-1 $-1 $6 @22 generic_tag_attrib_def 3 3 -1 @23 generic_tag_attrib_def  1 1 @1 3 0 1 967 0 #
face $11 512 $-1 $12 $13 $5 $-1 $14 reversed single #
loop $-1 -1 $-1 $15 $16 $6 #
cone-surface $-1 -1 $-1 22.84819362427968414 -28.17199788582930253 0 0 0 -1 0.4000000000000000222 0 0 1 I I 0 1 0.4000000000000000222 forward I I I I #
ATTRIB_CUSTOM-attrib $-1 -1 $-1 $-1 $8 @22 generic_tag_attrib_def 3 3 -1 @23 generic_tag_attrib_def  1 1 @1 8 0 1 967 0 #
face $17 513 $-1 $18 $19 $5 $-1 $20 reversed single #
loop $-1 -1 $-1 $21 $22 $8 #
plane-surface $-1 -1 $-1 22.84819362427968414 -28.17199788582930253 1.8125 0 0 -1 1 0 0 forward_v I I I I #
loop $-1 -1 $-1 $-1 $23 $6 #
coedge $-1 -1 $-1 $16 $16 $24 $25 reversed $9 0 $-1 #
ATTRIB_CUSTOM-attrib $-1 -1 $-1 $-1 $12 @22 generic_tag_attrib_def 3 3 -1 @23 generic_tag_attrib_def  1 1 @1 7 0 1 967 0 #
face $26 514 $-1 $27 $28 $5 $-1 $10 reversed single #
loop $-1 -1 $-1 $29 $30 $12 #
cone-surface $-1 -1 $-1 22.84819362427968414 -28.17199788582930253 2.112499999999999822 0 0 -1 0.6500000000000000222 0 0 1 I I 0 1 0.6500000000000000222 forward I I I I #
loop $-1 -1 $-1 $-1 $24 $8 #
coedge $-1 -1 $-1 $22 $22 $31 $32 reversed $13 0 $-1 #
coedge $-1 -1 $-1 $23 $23 $33 $34 reversed $15 0 $-1 #
coedge $-1 -1 $-1 $24 $24 $16 $25 forward $21 0 $-1 #
edge $-1 447 $-1 $35 -3.141592653589793116 $35 3.141592653589793116 $16 $36 forward @7 unknown #
ATTRIB_CUSTOM-attrib $-1 -1 $-1 $-1 $18 @22 generic_tag_attrib_def 3 3 -1 @23 generic_tag_attrib_def  1 1 @1 3 0 1 967 0 #
face $37 515 $-1 $38 $39 $5 $-1 $40 reversed single #
loop $-1 -1 $-1 $41 $42 $18 #
loop $-1 -1 $-1 $-1 $31 $12 #
coedge $-1 -1 $-1 $30 $30 $43 $44 reversed $19 0 $-1 #
coedge $-1 -1 $-1 $31 $31 $22 $32 forward $29 0 $-1 #
edge $-1 449 $-1 $45 0 $45 6.283185307179586232 $22 $46 forward @7 unknown #
coedge $-1 -1 $-1 $33 $33 $23 $34 forward $47 0 $-1 #
edge $-1 448 $-1 $48 -3.141592653589793116 $48 3.141592653589793116 $33 $49 forward @7 unknown #
vertex $-1 400 $-1 $25 0 $50 #
ellipse-curve $-1 -1 $-1 22.84819362427968414 -28.17199788582930253 1.8125 0 0 -1 0.4000000000000000222 0 0 1 I I #
ATTRIB_CUSTOM-attrib $-1 -1 $-1 $-1 $27 @22 generic_tag_attrib_def 3 3 -1 @23 generic_tag_attrib_def  1 1 @1 3 0 1 966 0 #
face $51 516 $-1 $52 $53 $5 $-1 $40 reversed single #
loop $-1 -1 $-1 $54 $55 $27 #
cone-surface $-1 -1 $-1 15.85088637352361829 -31.82367028892186056 0 0 0 -1 0.4500000000000000111 0 0 1 I I 0 1 0.4500000000000000111 forward I I I I #
loop $-1 -1 $-1 $-1 $56 $18 #
coedge $-1 -1 $-1 $42 $42 $57 $58 reversed $28 0 $-1 #
coedge $-1 -1 $-1 $43 $43 $30 $44 forward $59 0 $-1 #
edge $-1 450 $-1 $60 0 $60 6.283185307179586232 $43 $61 forward @7 unknown #
vertex $-1 402 $-1 $32 0 $62 #
ellipse-curve $-1 -1 $-1 22.84819362427968414 -28.17199788582930253 1.8125 0 0 -1 0.6500000000000000222 0 0 1 I I #
loop $-1 -1 $-1 $63 $33 $64 #
vertex $-1 401 $-1 $34 0 $65 #
ellipse-curve $-1 -1 $-1 22.84819362427968414 -28.17199788582930253 1.637500000000002842 0 -0 1 0.4000000000000000222 0 0 1 I I #
point $-1 -1 $-1 22.44819362427968557 -28.17199788582930253 1.8125 #
ATTRIB_CUSTOM-attrib $-1 -1 $-1 $-1 $38 @22 generic_tag_attrib_def 3 3 -1 @23 generic_tag_attrib_def  1 1 @1 3 0 1 966 0 #
face $66 517 $-1 $67 $68 $5 $-1 $69 reversed single #
loop $-1 -1 $-1 $70 $71 $38 #
loop $-1 -1 $-1 $-1 $72 $27 #
coedge $-1 -1 $-1 $55 $55 $73 $74 reversed $39 0 $-1 #
coedge $-1 -1 $-1 $56 $56 $75 $76 reversed $41 0 $-1 #
coedge $-1 -1 $-1 $57 $57 $42 $58 forward $77 0 $-1 #
edge $-1 451 $-1 $78 -3.141592653589793116 $78 3.141592653589793116 $57 $79 forward @7 unknown #
loop $-1 -1 $-1 $80 $43 $81 #
vertex $-1 403 $-1 $44 0 $82 #
ellipse-curve $-1 -1 $-1 22.84819362427968414 -28.17199788582930253 2.412500000000000089 -0 -0 -1 0.6500000000000000222 0 0 1 I I #
point $-1 -1 $-1 23.49819362427968272 -28.17199788582930253 1.8125 #
loop $-1 -1 $-1 $83 $84 $64 #
face $85 524 $-1 $86 $47 $5 $-1 $87 reversed single #
point $-1 -1 $-1 22.44819362427968557 -28.17199788582930253 1.637500000000002842 #
ATTRIB_CUSTOM-attrib $-1 -1 $-1 $-1 $52 @22 generic_tag_attrib_def 3 3 -1 @23 generic_tag_attrib_def  1 3 @3 342 0 4 755 962 964 965 0 #
face $88 518 $-1 $89 $90 $5 $-1 $91 forward single #
loop $-1 -1 $-1 $92 $93 $52 #
cone-surface $-1 -1 $-1 9.618648236009802233 -29.31012947910717514 -2.387499988079079927 4.930380657631323784e-32 -1.232595164407830946e-32 -1 1.271591880953945042 0.270285198063099974 5.546678239835239257e-32 1 I I -0 1 1.300000000000000044 reversed I I I I #
loop $-1 -1 $-1 $-1 $94 $38 #
coedge $-1 -1 $-1 $71 $71 $95 $96 reversed $53 0 $-1 #
coedge $-1 -1 $-1 $72 $72 $84 $97 reversed $54 0 $-1 #
coedge $-1 -1 $-1 $73 $73 $55 $74 forward $80 0 $-1 #
edge $-1 453 $-1 $98 0 $98 6.283185307179586232 $73 $99 forward @7 unknown #
coedge $-1 -1 $-1 $75 $75 $56 $76 forward $100 0 $-1 #
edge $-1 452 $-1 $101 0 $101 6.283185307179586232 $75 $102 forward @7 unknown #
loop $-1 -1 $-1 $103 $57 $104 #
vertex $-1 404 $-1 $58 0 $105 #
ellipse-curve $-1 -1 $-1 22.84819362427968414 -28.17199788582930253 -1.637500000000002842 0 0 -1 0.4000000000000000222 0 0 1 I I #
loop $-1 -1 $-1 $106 $73 $81 #
face $107 537 $-1 $-1 $59 $5 $-1 $108 forward single #
point $-1 -1 $-1 23.49819362427968272 -28.17199788582930253 2.412500000000000089 #
loop $-1 -1 $-1 $-1 $109 $64 #
coedge $-1 -1 $-1 $84 $84 $72 $97 forward $63 0 $-1 #
ATTRIB_CUSTOM-attrib $-1 -1 $-1 $-1 $64 @22 generic_tag_attrib_def 3 3 -1 @23 generic_tag_attrib_def  1 1 @1 3 0 1 959 0 #
face $110 525 $-1 $111 $112 $5 $-1 $113 forward single #
plane-surface $-1 -1 $-1 13.35088637352361829 -33.5 1.637500000000002842 0 -0 1 1 -0 -0 forward_v I I I I #
ATTRIB_CUSTOM-attrib $-1 -1 $-1 $-1 $67 @22 generic_tag_attrib_def 3 3 -1 @23 generic_tag_attrib_def  1 3 @3 365 0 4 755 962 964 965 0 #
face $114 519 $-1 $115 $100 $5 $-1 $116 reversed single #
loop $-1 -1 $-1 $117 $118 $67 #
plane-surface $-1 -1 $-1 9.618648236009802233 -29.31012947910717514 -1.487500000000007594 2.400081494032507281e-17 5.892908687014342203e-17 -1 0.9781476007338035794 0.207911690817769168 3.572838563905370917e-17 reverse_v I I I I #
loop $-1 -1 $-1 $-1 $119 $52 #
coedge $-1 -1 $-1 $93 $93 $120 $121 forward $68 0 $-1 #
coedge $-1 -1 $-1 $94 $94 $122 $123 reversed $70 0 $-1 #
coedge $-1 -1 $-1 $95 $95 $71 $96 forward $103 0 $-1 #
edge $-1 455 $-1 $124 -3.141592653589793116 $124 3.141592653589793116 $95 $125 forward @7 unknown #
edge $-1 454 $-1 $126 -3.141592653589793116 $126 3.141592653589793116 $84 $127 forward @7 unknown #
vertex $-1 406 $-1 $74 0 $128 #
ellipse-curve $-1 -1 $-1 15.85088637352361829 -31.82367028892186056 2.412500000000000089 -0 -0 -1 0.4500000000000000111 0 0 1 I I #
loop $-1 -1 $-1 $129 $75 $89 #
vertex $-1 405 $-1 $76 0 $130 #
ellipse-curve $-1 -1 $-1 22.84819362427968414 -28.17199788582930253 -2.412500000000000089 0 0 1 0.3999999999999995781 0 0 1 I I #
loop $-1 -1 $-1 $131 $95 $104 #
face $132 521 $-1 $133 $77 $5 $-1 $134 reversed single #
point $-1 -1 $-1 22.44819362427968557 -28.17199788582930253 -1.637500000000002842 #
loop $-1 -1 $-1 $135 $136 $81 #
ATTRIB_CUSTOM-attrib $-1 -1 $-1 $-1 $81 @22 generic_tag_attrib_def 3 3 -1 @23 generic_tag_attrib_def  1 1 @1 2 0 1 957 0 #
plane-surface $-1 -1 $-1 15.90842093014473768 -29.99783408737557977 2.412500000000000089 0 0 1 1 0 0 forward_v I I I I #
coedge $-1 -1 $-1 $137 $138 $139 $140 reversed $83 0 $-1 #
ATTRIB_CUSTOM-attrib $-1 -1 $-1 $-1 $86 @22 generic_tag_attrib_def 3 3 -1 @23 generic_tag_attrib_def  2 2 @2 10 0 1 957 0 2 @2 10 0 1 958 0 #
face $141 526 $-1 $142 $143 $5 $-1 $113 forward single #
loop $-1 -1 $-1 $-1 $144 $86 #
plane-surface $-1 -1 $-1 22.33927205466928356 -27.19680619391161258 -5.204170427930421283e-17 -0.462655972373086366 0.8865379017433568931 0 -0.8865379017433568931 -0.462655972373086366 6.593528290463093337e-18 forward_v I I I I #
ATTRIB_CUSTOM-attrib $-1 -1 $-1 $-1 $89 @22 generic_tag_attrib_def 3 3 -1 @23 generic_tag_attrib_def  1 1 @1 1 0 1 957 0 #
face $145 356 $-1 $146 $147 $5 $-1 $148 reversed single #
plane-surface $-1 -1 $-1 15.90842093014473768 -29.99783408737557977 -2.412500000000000089 0 0 1 1 0 0 forward_v I I I I #
loop $-1 -1 $-1 $-1 $149 $67 #
coedge $-1 -1 $-1 $118 $118 $150 $151 forward $90 0 $-1 #
coedge $-1 -1 $-1 $119 $119 $149 $152 reversed $92 0 $-1 #
coedge $-1 -1 $-1 $120 $120 $93 $121 reversed $153 0 $-1 #
edge $-1 457 $-1 $154 -3.141592653589793116 $154 3.141592653589793116 $93 $155 forward @7 unknown #
coedge $-1 -1 $-1 $122 $122 $94 $123 forward $129 0 $-1 #
edge $-1 456 $-1 $156 0 $156 6.283185307179586232 $122 $157 forward @7 unknown #
vertex $-1 408 $-1 $96 0 $158 #
ellipse-curve $-1 -1 $-1 15.85088637352361829 -31.82367028892186056 -1.637500000000002842 0 0 -1 0.4500000000000000111 0 0 1 I I #
vertex $-1 407 $-1 $97 0 $159 #
ellipse-curve $-1 -1 $-1 15.85088637352361829 -31.82367028892186056 1.637500000000002842 0 -0 1 0.4500000000000000111 0 0 1 I I #
point $-1 -1 $-1 16.30088637352361758 -31.82367028892186056 2.412500000000000089 #
loop $-1 -1 $-1 $160 $122 $89 #
point $-1 -1 $-1 23.24819362427968272 -28.17199788582930253 -2.412500000000000089 #
loop $-1 -1 $-1 $-1 $161 $104 #
ATTRIB_CUSTOM-attrib $-1 -1 $-1 $-1 $104 @22 generic_tag_attrib_def 3 3 -1 @23 generic_tag_attrib_def  1 1 @1 5 0 1 959 0 #
face $162 522 $-1 $163 $164 $5 $-1 $165 forward single #
plane-surface $-1 -1 $-1 24.35088637352361829 -33.5 -1.637500000000002842 0 0 -1 -1 -0 -0 forward_v I I I I #
loop $-1 -1 $-1 $-1 $166 $81 #
coedge $-1 -1 $-1 $136 $136 $167 $168 forward $106 0 $-1 #
coedge $-1 -1 $-1 $169 $109 $170 $171 reversed $83 0 $-1 #
coedge $-1 -1 $-1 $109 $172 $173 $174 reversed $83 0 $-1 #
coedge $-1 -1 $-1 $175 $176 $109 $140 forward $164 0 $-1 #
edge $-1 481 $-1 $177 -4.101973524715120334 $178 -1.118763395642950798 $109 $179 forward @7 tangent #
ATTRIB_CUSTOM-attrib $-1 -1 $-1 $-1 $111 @22 generic_tag_attrib_def 3 3 -1 @23 generic_tag_attrib_def  2 2 @2 10 0 1 957 0 2 @2 10 0 1 958 0 #
face $180 527 $-1 $181 $182 $5 $-1 $183 forward single #
loop $-1 -1 $-1 $-1 $184 $111 #
coedge $-1 -1 $-1 $185 $186 $169 $187 forward $112 0 $-1 #
ATTRIB_CUSTOM-attrib $-1 -1 $-1 $-1 $115 @22 generic_tag_attrib_def 3 3 -1 @23 generic_tag_attrib_def  1 3 @3 376 0 4 755 962 964 965 0 #
face $188 346 $-1 $189 $190 $5 $-1 $191 reversed single #
loop $-1 -1 $-1 $192 $150 $115 #
cone-surface $-1 -1 $-1 9.618648236009802233 -29.31012947910717514 2.387499988079079927 -4.930380657631323784e-32 1.232595164407830946e-32 -1 0.4890738003669017897 0.103955845408884584 -1.848892746611746419e-32 1 I I 0 1 0.5 forward I I I I #
coedge $-1 -1 $-1 $149 $149 $119 $152 forward $117 0 $-1 #
coedge $-1 -1 $-1 $150 $150 $118 $151 reversed $147 0 $-1 #
edge $-1 459 $-1 $193 -3.141592653589793116 $193 3.141592653589793116 $118 $194 forward @7 unknown #
edge $-1 458 $-1 $195 -3.141592653589793116 $195 3.141592653589793116 $149 $196 forward @7 unknown #
loop $-1 -1 $-1 $-1 $120 $89 #
vertex $-1 410 $-1 $121 0 $197 #
ellipse-curve $-1 -1 $-1 9.618648236009802233 -29.31012947910717514 -2.412500000000000089 -0 -0 -1 1.271591880953945042 0.270285198063099974 5.546678239835239257e-32 1 I I #
vertex $-1 409 $-1 $123 0 $198 #
ellipse-curve $-1 -1 $-1 15.85088637352361829 -31.82367028892186056 -2.412500000000000089 0 0 1 0.4500000000000006217 0 0 1 I I #
point $-1 -1 $-1 15.400886373523619 -31.82367028892186056 -1.637500000000002842 #
point $-1 -1 $-1 15.400886373523619 -31.82367028892186056 1.637500000000002842 #
loop $-1 -1 $-1 $153 $199 $89 #
coedge $-1 -1 $-1 $200 $201 $202 $203 reversed $131 0 $-1 #
ATTRIB_CUSTOM-attrib $-1 -1 $-1 $-1 $133 @22 generic_tag_attrib_def 3 3 -1 @23 generic_tag_attrib_def  1 1 @1 1 0 1 961 0 #
face $204 523 $-1 $64 $205 $5 $-1 $206 reversed single #
loop $-1 -1 $-1 $-1 $175 $133 #
cone-surface $-1 -1 $-1 13.85088637352361829 -33.5 1.137500000000002842 0 1 -0 -0.3535533905932737309 0 0.3535533905932737309 1 I I 0 -1 0.4999999999999999445 forward I I I I #
coedge $-1 -1 $-1 $207 $208 $209 $210 forward $135 0 $-1 #
coedge $-1 342 $-1 $167 $167 $136 $168 reversed $190 0 $-1 #
edge $-1 340 $-1 $211 -3.141592653589793116 $211 3.141592653589793116 $136 $212 forward @7 unknown #
coedge $-1 -1 $-1 $213 $137 $144 $187 reversed $83 0 $-1 #
coedge $-1 -1 $-1 $214 $215 $137 $171 forward $216 0 $-1 #
edge $-1 484 $-1 $217 -0.9612250026215427567 $177 -0.1909968699834172778 $170 $218 forward @7 unknown #
coedge $-1 -1 $-1 $138 $219 $220 $221 reversed $83 0 $-1 #
coedge $-1 -1 $-1 $222 $223 $138 $174 forward $182 0 $-1 #
edge $-1 489 $-1 $178 2.545531235723847985 $224 4.306462863047276102 $173 $225 forward @7 unknown #
coedge $-1 -1 $-1 $226 $139 $223 $227 forward $164 0 $-1 #
coedge $-1 -1 $-1 $139 $226 $214 $228 forward $164 0 $-1 #
vertex $-1 433 $-1 $228 1 $229 #
vertex $-1 430 $-1 $174 0 $230 #
straight-curve $-1 -1 $-1 13.85088637352361829 -33.5 1.637500000000002842 -0 -1 -0 F -6.978003114170700627 F 0.2839451027109163306 #
ATTRIB_CUSTOM-attrib $-1 -1 $-1 $-1 $142 @22 generic_tag_attrib_def 3 3 -1 @23 generic_tag_attrib_def  2 1 @1 6 0 1 957 0 1 @1 6 0 1 958 0 #
face $231 528 $-1 $232 $233 $5 $-1 $234 forward single #
loop $-1 -1 $-1 $-1 $235 $142 #
plane-surface $-1 -1 $-1 9.124135137882033675 -30.98880657604389199 0 -0.2825789132158615935 -0.9592440553924442836 0 0.9592440553924442836 -0.2825789132158615935 0 forward_v I I I I #
coedge $-1 -1 $-1 $236 $237 $238 $239 forward $143 0 $-1 #
coedge $-1 -1 $-1 $240 $144 $215 $241 forward $112 0 $-1 #
coedge $-1 -1 $-1 $144 $240 $242 $243 reversed $112 0 $-1 #
edge $-1 485 $-1 $244 -5.442377420617374284 $217 -1.77278707554151338 $144 $245 forward @7 unknown #
ATTRIB_CUSTOM-attrib $-1 -1 $-1 $-1 $146 @22 generic_tag_attrib_def 3 3 -1 @23 generic_tag_attrib_def  1 3 @3 342 0 2 755 962 0 #
face $246 336 $-1 $247 $248 $5 $-1 $249 forward single #
loop $-1 -1 $-1 $250 $167 $146 #
cone-surface $-1 -1 $-1 9.618648236009802233 -29.31012947910717514 2.387499988079079927 -4.930380657631323784e-32 1.232595164407830946e-32 -1 1.271591880953945042 0.270285198063099974 -5.546678239835239257e-32 1 I I 0 1 1.300000000000000044 forward I I I I #
loop $-1 -1 $-1 $-1 $251 $115 #
vertex $-1 412 $-1 $151 0 $252 #
ellipse-curve $-1 -1 $-1 9.618648236009802233 -29.31012947910717514 -1.48750000000000715 -2.400081494032507281e-17 -5.892908687014342203e-17 1 0.4890738003669017897 0.103955845408884584 1.848892746611746419e-32 1 I I #
vertex $-1 411 $-1 $152 0 $253 #
ellipse-curve $-1 -1 $-1 9.618648236009802233 -29.31012947910717514 -1.487500000000007594 2.400081494032507281e-17 5.892908687014342203e-17 -1 1.271591880953945042 0.270285198063099974 4.644690133076983364e-17 1 I I #
point $-1 -1 $-1 8.347056355055856969 -29.58041467717027473 -2.412500000000000089 #
point $-1 -1 $-1 16.30088637352361758 -31.82367028892186056 -2.412500000000000089 #
coedge $-1 -1 $-1 $254 $255 $256 $257 forward $160 0 $-1 #
coedge $-1 -1 $-1 $258 $161 $235 $259 reversed $131 0 $-1 #
coedge $-1 -1 $-1 $161 $238 $260 $261 reversed $131 0 $-1 #
coedge $-1 -1 $-1 $262 $263 $161 $203 forward $264 0 $-1 #
edge $-1 469 $-1 $265 1.118763395642950798 $266 4.101973524715120334 $161 $267 forward @7 tangent #
ATTRIB_CUSTOM-attrib $-1 -1 $-1 $-1 $163 @22 generic_tag_attrib_def 3 3 -1 @23 generic_tag_attrib_def  1 1 @1 6 0 1 959 0 #
loop $-1 -1 $-1 $-1 $268 $163 #
plane-surface $-1 -1 $-1 13.35088637352361829 -33.5 -1.637500000000002842 -1 0 0 -0 -0 1 forward_v I I I I #
coedge $-1 -1 $-1 $269 $166 $270 $271 forward $135 0 $-1 #
coedge $-1 -1 $-1 $166 $272 $273 $274 forward $135 0 $-1 #
coedge $-1 -1 $-1 $275 $276 $166 $210 reversed $277 0 $-1 #
edge $-1 510 $-1 $278 1.090560081469582165 $279 4.425907446764146158 $209 $280 forward @7 unknown #
vertex $-1 338 $-1 $168 0 $281 #
ellipse-curve $-1 -1 $-1 9.618648236009802233 -29.31012947910717514 2.412500000000000089 -0 -0 -1 1.271591880953945042 0.270285198063099974 -5.546678239835239257e-32 1 I I #
coedge $-1 -1 $-1 $219 $169 $282 $283 reversed $83 0 $-1 #
coedge $-1 -1 $-1 $284 $170 $176 $228 reversed $216 0 $-1 #
coedge $-1 -1 $-1 $170 $285 $185 $241 reversed $216 0 $-1 #
loop $-1 -1 $-1 $-1 $260 $286 #
vertex $-1 434 $-1 $241 0 $287 #
ellipse-curve $-1 -1 $-1 15.84744932327643951 -22.68879877102010667 1.637500000000002842 -0 0 -1 -3.23392097740068607 -6.20820063399431632 0 1 I I #
coedge $-1 -1 $-1 $172 $213 $288 $289 reversed $83 0 $-1 #
coedge $-1 -1 $-1 $290 $291 $172 $221 forward $292 0 $-1 #
edge $-1 488 $-1 $224 -1.85727786041545273 $293 -1.089807569498675965 $220 $294 forward @7 unknown #
coedge $-1 -1 $-1 $270 $173 $291 $295 forward $182 0 $-1 #
coedge $-1 -1 $-1 $173 $296 $175 $227 reversed $182 0 $-1 #
vertex $-1 438 $-1 $295 0 $297 #
straight-curve $-1 -1 $-1 11.4091006678397342 -31.6619231542091768 1.637500000000002842 0.9592440553924442836 -0.2825789132158615935 -0 I I #
coedge $-1 -1 $-1 $176 $175 $298 $299 forward $164 0 $-1 #
edge $-1 478 $-1 $178 -1.570796326794896558 $300 1.11022302462515654e-16 $175 $301 forward @7 unknown #
edge $-1 480 $-1 $302 0 $177 0.774002096630017844 $176 $303 forward @7 unknown #
point $-1 -1 $-1 13.85088637352361829 -29.39802647528487967 1.637500000000002842 #
point $-1 -1 $-1 13.85088637352361829 -32.3812366043570492 1.637500000000002842 #
ATTRIB_CUSTOM-attrib $-1 -1 $-1 $-1 $181 @22 generic_tag_attrib_def 3 3 -1 @23 generic_tag_attrib_def  2 2 @2 15 0 1 957 0 2 @2 15 0 1 958 0 #
face $304 529 $-1 $305 $306 $5 $-1 $234 forward single #
loop $-1 -1 $-1 $-1 $282 $181 #
cone-surface $-1 -1 $-1 22.84819362427968414 -28.17199788582930253 -5.204170427930421283e-17 0 0 1 1.100000000000001421 0 0 1 I I 0 1 1.100000000000001421 forward I I I I #
coedge $-1 -1 $-1 $307 $308 $200 $259 forward $182 0 $-1 #
coedge $-1 -1 $-1 $309 $184 $310 $311 reversed $143 0 $-1 #
coedge $-1 -1 $-1 $184 $309 $312 $313 forward $143 0 $-1 #
coedge $-1 -1 $-1 $201 $314 $184 $239 reversed $131 0 $-1 #
edge $-1 476 $-1 $315 -3.103171384046948145 $316 0.5664189610289130927 $184 $317 forward @7 unknown #
coedge $-1 -1 $-1 $186 $185 $318 $319 reversed $112 0 $-1 #
edge $-1 490 $-1 $217 1.637500000000002842 $320 2.412500000000000089 $185 $321 forward @7 tangent #
coedge $-1 -1 $-1 $322 $282 $186 $243 forward $233 0 $-1 #
edge $-1 492 $-1 $244 1.637500000000002842 $323 2.412500000000000089 $186 $324 forward @7 tangent #
vertex $-1 435 $-1 $243 0 $325 #
straight-curve $-1 -1 $-1 17.51439819569973366 -29.71475461146867403 1.637500000000002842 -0.8865379017433568931 -0.462655972373086366 0 I I #
ATTRIB_CUSTOM-attrib $-1 -1 $-1 $-1 $189 @22 generic_tag_attrib_def 3 3 -1 @23 generic_tag_attrib_def  1 3 @3 365 0 2 755 962 0 #
face $326 520 $-1 $104 $264 $5 $-1 $327 forward single #
loop $-1 -1 $-1 $328 $329 $189 #
plane-surface $-1 -1 $-1 9.618648236009802233 -29.31012947910717514 1.487500000000007594 2.400081494032507281e-17 5.892908687014342203e-17 1 0.9781476007338035794 0.207911690817769168 -3.572838563905370917e-17 forward_v I I I I #
loop $-1 -1 $-1 $-1 $330 $146 #
coedge $-1 354 $-1 $251 $251 $329 $331 forward $192 0 $-1 #
point $-1 -1 $-1 9.129574435642901165 -29.41408532451605851 -1.48750000000000715 #
point $-1 -1 $-1 8.347056355055858745 -29.58041467717027473 -1.487500000000007594 #
coedge $-1 -1 $-1 $332 $199 $333 $334 forward $160 0 $-1 #
coedge $-1 -1 $-1 $199 $335 $336 $337 forward $160 0 $-1 #
coedge $-1 -1 $-1 $276 $275 $199 $257 reversed $277 0 $-1 #
edge $-1 460 $-1 $338 1.857277860415440296 $339 5.192625225710004067 $256 $340 forward @7 unknown #
coedge $-1 -1 $-1 $341 $200 $342 $343 reversed $131 0 $-1 #
edge $-1 472 $-1 $344 0.9693794416111659595 $265 2.730311068934593965 $235 $345 forward @7 unknown #
coedge $-1 -1 $-1 $312 $346 $201 $261 forward $216 0 $-1 #
edge $-1 477 $-1 $266 0.1909968699834172778 $315 0.9612250026215427567 $260 $347 forward @7 unknown #
coedge $-1 -1 $-1 $348 $202 $346 $349 forward $264 0 $-1 #
coedge $-1 -1 $-1 $202 $348 $307 $350 forward $264 0 $-1 #
loop $-1 -1 $-1 $-1 $263 $247 #
vertex $-1 422 $-1 $350 1 $351 #
vertex $-1 423 $-1 $261 0 $352 #
straight-curve $-1 -1 $-1 13.85088637352361829 -33.5 -1.637500000000002842 0 1 0 F -0.2839451027109163306 F 6.978003114170700627 #
coedge $-1 -1 $-1 $353 $354 $348 $355 reversed $205 0 $-1 #
coedge $-1 -1 $-1 $356 $207 $357 $358 forward $135 0 $-1 #
coedge $-1 -1 $-1 $359 $222 $207 $271 reversed $182 0 $-1 #
edge $-1 496 $-1 $279 0 $360 6.688511015561371842 $270 $361 forward @7 unknown #
coedge $-1 -1 $-1 $208 $318 $285 $362 forward $135 0 $-1 #
coedge $-1 -1 $-1 $363 $364 $208 $274 reversed $365 0 $-1 #
edge $-1 507 $-1 $366 -2.465255226257637045 $278 -0 $273 $367 forward @7 unknown #
coedge $-1 -1 $-1 $256 $209 $364 $368 reversed $277 0 $-1 #
coedge $-1 -1 $-1 $209 $256 $359 $369 forward $277 0 $-1 #
loop $-1 -1 $-1 $-1 $275 $370 #
vertex $-1 445 $-1 $210 2 $371 #
vertex $-1 442 $-1 $210 2 $372 #
ellipse-curve $-1 -1 $-1 9.618648236009789798 -29.31012947910711475 2.412500000000000089 0 0 1 1.75 0 0 1 I I #
point $-1 -1 $-1 8.347056355055856969 -29.58041467717027473 2.412500000000000089 #
coedge $-1 -1 $-1 $242 $373 $213 $283 forward $233 0 $-1 #
edge $-1 486 $-1 $374 -1.089807569498665751 $244 2.051785084091127587 $282 $375 forward @7 unknown #
coedge $-1 -1 $-1 $346 $214 $353 $376 forward $216 0 $-1 #
coedge $-1 -1 $-1 $215 $377 $272 $362 reversed $216 0 $-1 #
face $378 535 $-1 $370 $216 $5 $-1 $379 forward single #
point $-1 -1 $-1 19.08604112988804857 -28.89456408322357461 1.637500000000002842 #
coedge $-1 -1 $-1 $380 $381 $219 $289 forward $382 0 $-1 #
edge $-1 487 $-1 $293 1.49595435342756744 $374 9.388800487807191786 $288 $383 forward @7 unknown #
coedge $-1 -1 $-1 $357 $220 $381 $384 forward $292 0 $-1 #
coedge $-1 -1 $-1 $220 $357 $222 $295 reversed $292 0 $-1 #
loop $-1 -1 $-1 $-1 $220 $385 #
vertex $-1 437 $-1 $384 0 $386 #
ellipse-curve $-1 -1 $-1 15.85088637352361829 -31.82367028892186056 1.637500000000002842 0 -0 1 1.099999999999997868 0 0 1 I I #
edge $-1 495 $-1 $224 1.637500000000002842 $360 2.412500000000000089 $222 $387 forward @7 tangent #
coedge $-1 -1 $-1 $223 $307 $354 $388 forward $182 0 $-1 #
point $-1 -1 $-1 15.5400495689861593 -32.87883874985354282 1.637500000000002842 #
coedge $-1 -1 $-1 $354 $353 $226 $299 reversed $205 0 $-1 #
edge $-1 479 $-1 $300 1.266055897289078302 $302 4.271539659913713649 $298 $389 forward @7 tangent #
vertex $-1 431 $-1 $227 1 $390 #
ellipse-curve $-1 -1 $-1 13.85088637352361829 -32.3812366043570492 1.137500000000002842 -0.2825789132158615935 -0.9592440553924442836 0 -0.4999999999999999445 0.1472925016461287262 5.551115123125782702e-17 0.9592440553924441726 I I #
vertex $-1 432 $-1 $376 0 $391 #
intcurve-curve $-1 -1 $-1 forward { int_int_cur 22020 full nubs 3 open 7 
	-0.1882225214205317521 3 0 3 0.1882225214205309749 2 0.3764450428410619498 2 0.5752235697355398969 2 
	0.774002096630017844 2 0.9693611688287353534 3 
	13.38847833255758779 -29.24268782003541389 0.9472927350231915566 
	13.36343281913853787 -29.2332909275209829 1.008180245268938124 
	13.35088637352361829 -29.22846034008628635 1.074759159526492258 
	13.35088637352361829 -29.22846034008628635 1.137500000000002842 
	13.35088637352361829 -29.22846034008628635 1.200240840473513204 
	13.36343282403849209 -29.23329092967522413 1.266819752383046671 
	13.41352384107667994 -29.25208471039560365 1.388594777570578032 
	13.45103992719712593 -29.26597649088157738 1.4438136137477664 
	13.53859983545357615 -29.2972399318455814 1.533239280535465987 
	13.59542422927052741 -29.31697123867136412 1.572570350806681283 
	13.71980607068781843 -29.35793825631017739 1.624701266775981701 
	13.78737921163536129 -29.37912772090373892 1.637500000000002842 
	13.91330106397481359 -29.41660012697297688 1.637500000000002842 
	13.98036023791854809 -29.43550934353633153 1.625095789477834174 
	14.0424159003714486 -29.45207122909803843 1.599361927793846894 
	0.0002529472941875927461 
	
	cone 13.85088637352361829 -33.5 1.137500000000002842 0 1 -0 -0.3535533905932737309 0 0.3535533905932737309 1 I I 0 -1 0.4999999999999999445 forward I I I I 
	cone 15.84744932327643951 -22.68879877102010667 -5.476880682139406e-17 0 0 1 -3.23392097740068607 -6.20820063399431632 0 1 I I 0 -1 6.999999999999974243 forward I I I I 
	nullbs 
	nullbs 
	I I 
	0 
	0 
	0 
	
	0 } I I #
ATTRIB_CUSTOM-attrib $-1 -1 $-1 $-1 $232 @22 generic_tag_attrib_def 3 3 -1 @23 generic_tag_attrib_def  2 2 @2 15 0 1 957 0 2 @2 15 0 1 958 0 #
face $392 530 $-1 $393 $382 $5 $-1 $394 forward single #
loop $-1 -1 $-1 $-1 $395 $232 #
coedge $-1 -1 $-1 $296 $235 $263 $350 reversed $182 0 $-1 #
coedge $-1 -1 $-1 $235 $336 $396 $397 forward $182 0 $-1 #
coedge $-1 -1 $-1 $237 $236 $398 $399 reversed $143 0 $-1 #
coedge $-1 -1 $-1 $395 $400 $236 $311 forward $306 0 $-1 #
edge $-1 493 $-1 $401 -2.412500000000000089 $316 -1.637500000000002842 $236 $324 forward @7 tangent #
coedge $-1 -1 $-1 $402 $260 $237 $313 reversed $216 0 $-1 #
edge $-1 494 $-1 $403 -2.412500000000000089 $315 -1.637500000000002842 $237 $321 forward @7 tangent #
coedge $-1 -1 $-1 $238 $341 $395 $404 reversed $131 0 $-1 #
vertex $-1 429 $-1 $261 1 $405 #
vertex $-1 428 $-1 $404 0 $406 #
straight-curve $-1 -1 $-1 21.83712017745105882 -27.4588633090969978 -1.637500000000002842 0.8865379017433568931 0.462655972373086366 0 I I #
coedge $-1 -1 $-1 $272 $407 $240 $319 forward $135 0 $-1 #
edge $-1 491 $-1 $323 0 $320 3.669590345075861126 $240 $408 forward @7 unknown #
vertex $-1 439 $-1 $241 2 $409 #
straight-curve $-1 -1 $-1 19.08604112988804857 -28.89456408322357461 -2.784615652463631041e-17 0 0 1 I I #
coedge $-1 -1 $-1 $373 $242 $407 $410 reversed $233 0 $-1 #
vertex $-1 440 $-1 $243 2 $411 #
straight-curve $-1 -1 $-1 22.33927205466928356 -27.19680619391161258 -5.204170427930421283e-17 0 0 1 I I #
point $-1 -1 $-1 22.33927205466928356 -27.19680619391161258 1.637500000000002842 #
ATTRIB_CUSTOM-attrib $-1 -1 $-1 $-1 $247 @22 generic_tag_attrib_def 3 3 -1 @23 generic_tag_attrib_def  1 1 @1 2 0 1 961 0 #
cone-surface $-1 -1 $-1 13.85088637352361829 -33.5 -1.137500000000002842 0 1 0 -0.3535533905932737309 0 -0.3535533905932737309 1 I I 0 -1 0.4999999999999999445 forward I I I I #
loop $-1 -1 $-1 $-1 $412 $189 #
coedge $-1 332 $-1 $329 $329 $251 $331 reversed $248 0 $-1 #
coedge $-1 344 $-1 $330 $330 $412 $413 forward $250 0 $-1 #
edge $-1 328 $-1 $414 -3.141592653589793116 $414 3.141592653589793116 $329 $415 forward @7 unknown #
coedge $-1 -1 $-1 $398 $254 $402 $416 forward $160 0 $-1 #
coedge $-1 -1 $-1 $364 $363 $254 $334 reversed $365 0 $-1 #
edge $-1 461 $-1 $339 0 $417 2.465255226257637045 $333 $418 forward @7 unknown #
coedge $-1 -1 $-1 $255 $419 $420 $421 forward $160 0 $-1 #
coedge $-1 -1 $-1 $308 $359 $255 $337 reversed $182 0 $-1 #
edge $-1 467 $-1 $422 -6.688511015561371842 $338 -0 $336 $423 forward @7 unknown #
vertex $-1 413 $-1 $257 0 $424 #
vertex $-1 414 $-1 $257 1 $425 #
ellipse-curve $-1 -1 $-1 9.618648236009789798 -29.31012947910711475 -2.412500000000000089 -0 -0 -1 1.75 0 0 1 I I #
coedge $-1 -1 $-1 $314 $258 $426 $427 reversed $131 0 $-1 #
coedge $-1 -1 $-1 $396 $428 $258 $343 forward $429 0 $-1 #
edge $-1 473 $-1 $430 1.089807569498675965 $344 1.85727786041545273 $342 $431 forward @7 unknown #
vertex $-1 425 $-1 $259 0 $432 #
straight-curve $-1 -1 $-1 16.46992103577131772 -33.15276493895782295 -1.637500000000002842 -0.9592440553924442836 0.2825789132158615935 0 I I #
coedge $-1 -1 $-1 $260 $284 $262 $349 reversed $216 0 $-1 #
ellipse-curve $-1 -1 $-1 15.84744932327643951 -22.68879877102010667 -1.637500000000002842 -0 -0 1 -3.23392097740068607 -6.20820063399431632 0 1 I I #
coedge $-1 -1 $-1 $263 $262 $268 $355 forward $264 0 $-1 #
edge $-1 470 $-1 $266 -0.774002096630018066 $433 0 $262 $434 forward @7 unknown #
edge $-1 468 $-1 $435 -1.11022302462515654e-16 $265 1.570796326794896558 $263 $436 forward @7 unknown #
point $-1 -1 $-1 13.85088637352361829 -32.3812366043570492 -1.637500000000002842 #
point $-1 -1 $-1 13.85088637352361829 -29.39802647528487967 -1.637500000000002842 #
coedge $-1 -1 $-1 $298 $268 $284 $376 reversed $205 0 $-1 #
coedge $-1 -1 $-1 $268 $298 $296 $388 reversed $205 0 $-1 #
edge $-1 471 $-1 $433 -4.271539659913713649 $435 -1.266055897289078302 $268 $437 forward @7 tangent #
coedge $-1 -1 $-1 $407 $269 $438 $439 forward $135 0 $-1 #
coedge $-1 -1 $-1 $291 $290 $269 $358 reversed $292 0 $-1 #
edge $-1 505 $-1 $360 -1.85727786041545273 $440 -1.089807569498675965 $357 $441 forward @7 unknown #
coedge $-1 -1 $-1 $336 $270 $276 $369 reversed $182 0 $-1 #
vertex $-1 441 $-1 $295 2 $442 #
straight-curve $-1 -1 $-1 9.124135137882033675 -30.98880657604389199 2.412500000000000089 0.9592440553924441726 -0.282578913215861538 0 I I #
edge $-1 509 $-1 $320 -0.9612250026215427567 $366 -0 $285 $443 forward @7 unknown #
coedge $-1 -1 $-1 $333 $273 $377 $444 reversed $365 0 $-1 #
coedge $-1 -1 $-1 $273 $333 $275 $368 forward $365 0 $-1 #
loop $-1 -1 $-1 $-1 $364 $445 #
vertex $-1 446 $-1 $444 2 $446 #
straight-curve $-1 -1 $-1 10.42712848035996309 -27.75807932060853034 2.412500000000000089 -0.8868858048563348362 0.4619887110572409306 2.499934187907519588e-33 I I #
edge $-1 506 $-1 $339 -2.412500000000000089 $278 2.412500000000000089 $275 $447 forward @7 tangent #
edge $-1 497 $-1 $338 -2.412500000000000089 $279 2.412500000000000089 $276 $448 forward @7 tangent #
face $449 536 $-1 $81 $277 $5 $-1 $450 forward single #
point $-1 -1 $-1 10.42712848035996309 -27.75807932060853034 2.412500000000000089 #
point $-1 -1 $-1 9.124135137882033675 -30.98880657604389199 2.412500000000000089 #
coedge $-1 -1 $-1 $282 $322 $380 $451 reversed $233 0 $-1 #
vertex $-1 436 $-1 $451 0 $452 #
ellipse-curve $-1 -1 $-1 22.84819362427968414 -28.17199788582930253 1.637500000000002842 0 -0 1 1.100000000000001421 0 0 1 I I #
edge $-1 482 $-1 $302 -1.137500000000002842 $433 1.137500000000002842 $284 $453 forward @7 unknown #
coedge $-1 -1 $-1 $285 $402 $363 $444 forward $216 0 $-1 #
ATTRIB_CUSTOM-attrib $-1 -1 $-1 $-1 $286 @22 generic_tag_attrib_def 3 3 -1 @23 generic_tag_attrib_def  2 2 @2 11 0 1 957 0 2 @2 11 0 1 958 0 #
cone-surface $-1 -1 $-1 15.84744932327643951 -22.68879877102010667 -5.476880682139406e-17 0 0 1 -3.23392097740068607 -6.20820063399431632 0 1 I I 0 -1 6.999999999999974243 forward I I I I #
coedge $-1 -1 $-1 $438 $288 $373 $451 forward $382 0 $-1 #
coedge $-1 -1 $-1 $288 $438 $290 $384 reversed $382 0 $-1 #
loop $-1 -1 $-1 $-1 $288 $305 #
straight-curve $-1 -1 $-1 15.03358770954249302 -33.49097419685033827 1.637500000000002842 0.8865379017433568931 0.462655972373086477 0 I I #
edge $-1 503 $-1 $293 1.637500000000002842 $440 2.412500000000000089 $381 $454 forward @7 tangent #
face $455 532 $-1 $456 $292 $5 $-1 $457 forward single #
point $-1 -1 $-1 16.35980794313400821 -32.79886198083955406 1.637500000000002842 #
straight-curve $-1 -1 $-1 15.5400495689861593 -32.87883874985354282 0 0 0 1 I I #
edge $-1 483 $-1 $435 -0.3187500000000014211 $300 1.956250000000004263 $296 $458 forward @7 unknown #
straight-curve $-1 -1 $-1 13.35088637352361829 -33.5 1.137500000000002842 0 1 0 F -0.2839451027109163306 F 6.978003114170700627 #
point $-1 -1 $-1 13.35088637352361829 -32.2339441027109217 1.137500000000002842 #
point $-1 -1 $-1 13.35088637352361829 -29.22846034008628635 1.137500000000002842 #
ATTRIB_CUSTOM-attrib $-1 -1 $-1 $-1 $305 @22 generic_tag_attrib_def 3 3 -1 @23 generic_tag_attrib_def  2 1 @1 8 0 1 957 0 1 @1 8 0 1 958 0 #
face $459 531 $-1 $385 $460 $5 $-1 $394 forward single #
plane-surface $-1 -1 $-1 16.35980794313400821 -32.79886198083955406 0 0.462655972373086477 -0.8865379017433568931 0 0.8865379017433568931 0.462655972373086477 -6.593528290463080241e-18 forward_v I I I I #
coedge $-1 -1 $-1 $461 $310 $314 $404 forward $306 0 $-1 #
coedge $-1 -1 $-1 $420 $342 $308 $397 reversed $429 0 $-1 #
edge $-1 498 $-1 $422 -2.412500000000000089 $344 -1.637500000000002842 $308 $387 forward @7 tangent #
coedge $-1 -1 $-1 $462 $332 $309 $399 forward $160 0 $-1 #
edge $-1 463 $-1 $403 -3.669590345075861126 $401 -0 $309 $463 forward @7 unknown #
coedge $-1 -1 $-1 $310 $461 $462 $464 reversed $306 0 $-1 #
vertex $-1 417 $-1 $311 0 $465 #
coedge $-1 -1 $-1 $377 $312 $332 $416 reversed $216 0 $-1 #
vertex $-1 416 $-1 $313 0 $466 #
edge $-1 475 $-1 $316 -2.051785084091127587 $467 1.089807569498665751 $395 $468 forward @7 unknown #
point $-1 -1 $-1 19.08604112988804857 -28.89456408322357461 -1.637500000000002842 #
point $-1 -1 $-1 22.33927205466928356 -27.19680619391161258 -1.637500000000002842 #
coedge $-1 -1 $-1 $318 $356 $322 $410 forward $135 0 $-1 #
straight-curve $-1 -1 $-1 22.33927205466928356 -27.19680619391161258 2.412500000000000089 -0.8865379017433568931 -0.462655972373086366 6.593528290463093337e-18 I I #
point $-1 -1 $-1 19.08604112988804857 -28.89456408322357461 2.412500000000000089 #
edge $-1 499 $-1 $469 -1.089807569498665751 $323 2.051785084091127587 $322 $470 forward @7 unknown #
point $-1 -1 $-1 22.33927205466928356 -27.19680619391161258 2.412500000000000089 #
coedge $-1 334 $-1 $412 $412 $330 $413 reversed $328 0 $-1 #
edge $-1 330 $-1 $471 -3.141592653589793116 $471 3.141592653589793116 $330 $472 forward @7 unknown #
vertex $-1 324 $-1 $331 0 $473 #
ellipse-curve $-1 -1 $-1 9.618648236009802233 -29.31012947910717514 1.48750000000000715 2.400081494032507281e-17 5.892908687014342203e-17 1 0.4890738003669017897 0.103955845408884584 -1.848892746611746419e-32 1 I I #
edge $-1 462 $-1 $417 0 $403 0.9612250026215427567 $402 $474 forward @7 unknown #
vertex $-1 415 $-1 $444 0 $475 #
straight-curve $-1 -1 $-1 10.42712848035996309 -27.75807932060853034 -2.412500000000000089 0.8868858048563348362 -0.4619887110572409306 -2.499934187907519588e-33 I I #
coedge $-1 -1 $-1 $335 $462 $476 $477 forward $160 0 $-1 #
coedge $-1 -1 $-1 $428 $396 $335 $421 reversed $429 0 $-1 #
edge $-1 466 $-1 $478 1.089807569498677298 $422 1.85727786041545273 $420 $479 forward @7 unknown #
vertex $-1 420 $-1 $397 0 $480 #
straight-curve $-1 -1 $-1 9.124135137882033675 -30.98880657604389199 -2.412500000000000089 -0.9592440553924441726 0.282578913215861538 0 I I #
point $-1 -1 $-1 9.124135137882033675 -30.98880657604389199 -2.412500000000000089 #
point $-1 -1 $-1 10.42712848035996309 -27.75807932060853034 -2.412500000000000089 #
coedge $-1 -1 $-1 $481 $482 $341 $427 forward $460 0 $-1 #
edge $-1 474 $-1 $467 -4.512842028218731372 $430 3.38000410616089253 $426 $483 forward @7 unknown #
coedge $-1 -1 $-1 $342 $420 $481 $484 forward $429 0 $-1 #
loop $-1 -1 $-1 $-1 $342 $456 #
vertex $-1 426 $-1 $343 0 $485 #
ellipse-curve $-1 -1 $-1 15.85088637352361829 -31.82367028892186056 -1.637500000000002842 0 0 -1 1.099999999999997868 0 0 1 I I #
point $-1 -1 $-1 15.5400495689861593 -32.87883874985354282 -1.637500000000002842 #
vertex $-1 424 $-1 $349 1 $486 #
intcurve-curve $-1 -1 $-1 forward { int_int_cur 22020 full nubs 3 open 7 
	-0.9693611688287355754 3 -0.774002096630018066 2 -0.5752235697355398969 2 -0.3764450428410621718 2 -0.188222521420531308 2 
	0 3 0.1882225214205308361 3 
	14.0424159003714486 -29.45207122909803843 -1.599361927793847116 
	13.98036023843536668 -29.43550934362477989 -1.625095790781037941 
	13.91330106397481359 -29.41660012697297688 -1.637500000000002842 
	13.78737921163536129 -29.37912772090373892 -1.637500000000002842 
	13.71980607068781843 -29.35793825631017739 -1.624701266775982145 
	13.59542422927052563 -29.31697123867136412 -1.572570350806680617 
	13.53859983545357615 -29.2972399318455814 -1.533239280535465987 
	13.45103992719712593 -29.26597649088157738 -1.443813613747766622 
	13.41352384107667994 -29.2520847103956072 -1.388594777570579586 
	13.36343282403849209 -29.23329092967522769 -1.266819752383048892 
	13.35088637352361829 -29.22846034008628635 -1.200240840473513426 
	13.35088637352361829 -29.22846034008628635 -1.137500000000002842 
	13.35088637352361829 -29.22846034008628635 -1.074759159526492702 
	13.36343282403849209 -29.23329092967522413 -1.008180247616959235 
	13.38847833255758601 -29.24268782003541389 -0.947292735023193444 
	0.0002529472941924750711 
	
	cone 13.85088637352361829 -33.5 -1.137500000000002842 0 1 0 -0.3535533905932737309 0 -0.3535533905932737309 1 I I 0 -1 0.4999999999999999445 forward I I I I 
	cone 15.84744932327643951 -22.68879877102010667 -5.476880682139406e-17 0 0 1 -3.23392097740068607 -6.20820063399431632 0 1 I I 0 -1 6.999999999999974243 forward I I I I 
	nullbs 
	nullbs 
	I I 
	0 
	0 
	0 
	
	0 } I I #
vertex $-1 421 $-1 $388 0 $487 #
ellipse-curve $-1 -1 $-1 13.85088637352361829 -32.3812366043570492 -1.137500000000002842 -0.2825789132158615935 -0.9592440553924442836 0 -0.4999999999999999445 0.1472925016461287262 -5.551115123125782702e-17 0.9592440553924441726 I I #
straight-curve $-1 -1 $-1 13.35088637352361829 -33.5 -1.137500000000002842 -0 -1 -0 F -6.978003114170700627 F 0.2839451027109163306 #
coedge $-1 -1 $-1 $381 $380 $356 $439 reversed $382 0 $-1 #
edge $-1 502 $-1 $440 -7.892846134379623457 $469 -0 $438 $488 forward @7 unknown #
vertex $-1 444 $-1 $384 2 $489 #
ellipse-curve $-1 -1 $-1 15.85088637352361829 -31.82367028892186056 2.412500000000000089 0 0 1 1.099999999999997868 0 0 1 I I #
point $-1 -1 $-1 15.5400495689861593 -32.87883874985354282 2.412500000000000089 #
ellipse-curve $-1 -1 $-1 15.84744932327643951 -22.68879877102010667 2.412500000000000089 -4.299740705464467085e-18 -6.582226890808036924e-18 -1 -3.23392097740068607 -6.20820063399431632 5.476880682139405384e-17 1 I I #
edge $-1 508 $-1 $417 -2.412500000000000089 $366 2.412500000000000089 $377 $490 forward @7 tangent #
face $491 534 $-1 $286 $365 $5 $-1 $492 forward single #
point $-1 -1 $-1 12.61352834587575344 -28.89699940501442299 2.412500000000000089 #
straight-curve $-1 -1 $-1 10.42712848035996132 -27.75807932060852679 0 0 0 1 I I #
straight-curve $-1 -1 $-1 9.124135137882031898 -30.98880657604389199 0 0 0 1 I I #
ATTRIB_CUSTOM-attrib $-1 -1 $-1 $-1 $370 @22 generic_tag_attrib_def 3 3 -1 @23 generic_tag_attrib_def  2 1 @1 3 0 1 957 0 1 @1 3 0 1 958 0 #
cone-surface $-1 -1 $-1 9.618648236009789798 -29.31012947910711475 0 0 0 1 1.75 0 0 1 I I 0 1 1.75 forward I I I I #
edge $-1 500 $-1 $374 1.637500000000002842 $469 2.412500000000000089 $380 $493 forward @7 tangent #
point $-1 -1 $-1 23.35711519389008473 -29.14718957774699248 1.637500000000002842 #
straight-curve $-1 -1 $-1 13.35088637352361829 -29.22846034008628635 0 -0 -0 -1 I I #
straight-curve $-1 -1 $-1 16.35980794313400821 -32.79886198083955406 0 0 0 1 I I #
ATTRIB_CUSTOM-attrib $-1 -1 $-1 $-1 $385 @22 generic_tag_attrib_def 3 3 -1 @23 generic_tag_attrib_def  2 2 @2 13 0 1 957 0 2 @2 13 0 1 958 0 #
face $494 533 $-1 $445 $429 $5 $-1 $457 forward single #
cone-surface $-1 -1 $-1 15.85088637352361829 -31.82367028892186056 0 0 0 1 1.099999999999997868 0 0 1 I I 0 1 1.099999999999997868 forward I I I I #
straight-curve $-1 -1 $-1 13.35088637352361829 -32.2339441027109217 -0.8187500000000014211 0 0 1 I I #
ATTRIB_CUSTOM-attrib $-1 -1 $-1 $-1 $393 @22 generic_tag_attrib_def 3 3 -1 @23 generic_tag_attrib_def  2 1 @1 8 0 1 957 0 1 @1 8 0 1 958 0 #
loop $-1 -1 $-1 $-1 $426 $393 #
coedge $-1 -1 $-1 $400 $395 $482 $495 reversed $306 0 $-1 #
coedge $-1 -1 $-1 $419 $398 $400 $464 forward $160 0 $-1 #
straight-curve $-1 -1 $-1 22.33927205466928356 -27.19680619391161258 -2.412500000000000089 0.8865379017433568931 0.462655972373086366 -6.593528290463093337e-18 I I #
edge $-1 464 $-1 $401 -2.051785084091127587 $496 1.089807569498665751 $400 $497 forward @7 unknown #
point $-1 -1 $-1 22.33927205466928356 -27.19680619391161258 -2.412500000000000089 #
point $-1 -1 $-1 19.08604112988804857 -28.89456408322357461 -2.412500000000000089 #
vertex $-1 427 $-1 $427 0 $498 #
ellipse-curve $-1 -1 $-1 22.84819362427968414 -28.17199788582930253 -1.637500000000002842 0 0 -1 1.100000000000001421 0 0 1 I I #
vertex $-1 443 $-1 $451 2 $499 #
ellipse-curve $-1 -1 $-1 22.84819362427968414 -28.17199788582930253 2.412500000000000089 0 0 1 1.100000000000001421 0 0 1 I I #
vertex $-1 326 $-1 $413 0 $500 #
ellipse-curve $-1 -1 $-1 9.618648236009802233 -29.31012947910717514 1.487500000000007594 -2.400081494032507281e-17 -5.892908687014342203e-17 -1 1.271591880953945042 0.270285198063099974 -4.644690133076983364e-17 1 I I #
point $-1 -1 $-1 9.129574435642901165 -29.41408532451605851 1.48750000000000715 #
ellipse-curve $-1 -1 $-1 15.84744932327643951 -22.68879877102010667 -2.412500000000000089 4.299740705464467085e-18 6.582226890808036924e-18 1 -3.23392097740068607 -6.20820063399431632 5.476880682139405384e-17 1 I I #
point $-1 -1 $-1 12.61352834587575344 -28.89699940501442299 -2.412500000000000089 #
coedge $-1 -1 $-1 $482 $481 $419 $477 reversed $460 0 $-1 #
edge $-1 465 $-1 $496 0 $478 7.892846134379623457 $476 $501 forward @7 unknown #
vertex $-1 419 $-1 $484 0 $502 #
ellipse-curve $-1 -1 $-1 15.85088637352361829 -31.82367028892186056 -2.412500000000000089 -0 -0 -1 1.099999999999997868 0 0 1 I I #
point $-1 -1 $-1 15.5400495689861593 -32.87883874985354282 -2.412500000000000089 #
coedge $-1 -1 $-1 $476 $426 $428 $484 reversed $460 0 $-1 #
coedge $-1 -1 $-1 $426 $476 $461 $495 forward $460 0 $-1 #
straight-curve $-1 -1 $-1 19.3563096912938164 -31.23508289447866204 -1.637500000000002842 -0.8865379017433568931 -0.462655972373086477 -0 I I #
edge $-1 504 $-1 $478 -2.412500000000000089 $430 -1.637500000000002842 $481 $454 forward @7 tangent #
point $-1 -1 $-1 16.35980794313400821 -32.79886198083955406 -1.637500000000002842 #
point $-1 -1 $-1 13.35088637352361829 -29.22846034008628635 -1.137500000000002842 #
point $-1 -1 $-1 13.35088637352361829 -32.2339441027109217 -1.137500000000002842 #
straight-curve $-1 -1 $-1 23.35711519389008473 -29.14718957774699248 2.412500000000000089 0.8865379017433568931 0.462655972373086477 -6.593528290463080241e-18 I I #
point $-1 -1 $-1 16.35980794313400821 -32.79886198083955406 2.412500000000000089 #
straight-curve $-1 -1 $-1 12.61352834587575344 -28.89699940501442299 -6.16297582203915473e-33 0 0 1 I I #
ATTRIB_CUSTOM-attrib $-1 -1 $-1 $-1 $445 @22 generic_tag_attrib_def 3 3 -1 @23 generic_tag_attrib_def  2 2 @2 12 0 1 957 0 2 @2 12 0 1 958 0 #
plane-surface $-1 -1 $-1 12.61352834587575344 -28.89699940501442299 -6.16297582203915473e-33 0.4619887110572410416 0.8868858048563350582 -0 -0.8868858048563350582 0.4619887110572410416 2.499934187907520272e-33 forward_v I I I I #
straight-curve $-1 -1 $-1 23.35711519389008473 -29.14718957774699248 -5.204170427930421283e-17 0 0 1 I I #
ATTRIB_CUSTOM-attrib $-1 -1 $-1 $-1 $456 @22 generic_tag_attrib_def 3 3 -1 @23 generic_tag_attrib_def  2 2 @2 13 0 1 957 0 2 @2 13 0 1 958 0 #
edge $-1 501 $-1 $496 -2.412500000000000089 $467 -1.637500000000002842 $482 $493 forward @7 tangent #
vertex $-1 418 $-1 $495 0 $503 #
ellipse-curve $-1 -1 $-1 22.84819362427968414 -28.17199788582930253 -2.412500000000000089 -0 -0 -1 1.100000000000001421 0 0 1 I I #
point $-1 -1 $-1 23.35711519389008473 -29.14718957774699248 -1.637500000000002842 #
point $-1 -1 $-1 23.35711519389008473 -29.14718957774699248 2.412500000000000089 #
point $-1 -1 $-1 8.347056355055858745 -29.58041467717027473 1.487500000000007594 #
straight-curve $-1 -1 $-1 23.35711519389008473 -29.14718957774699248 -2.412500000000000089 -0.8865379017433568931 -0.462655972373086477 6.593528290463080241e-18 I I #
point $-1 -1 $-1 16.35980794313400821 -32.79886198083955406 -2.412500000000000089 #
point $-1 -1 $-1 23.35711519389008473 -29.14718957774699248 -2.412500000000000089 #
End-of-ASM-data 