22700 0 2 4           
16 Autodesk Neutron 20 ASM 227.1.1.65535 NT 24 Thu Aug 26 00:06:55 2021 
10 9.999999999999999547e-07 1.000000000000000036e-10 
asmheader $-1 -1 @13 227.1.1.65535 #
body $2 1 $-1 $3 $-1 $-1 #
ATTRIB_CUSTOM-attrib $-1 -1 $4 $-1 $1 @20 Timestamp_attrib_def 1 1406915266000 #
lump $-1 -1 $-1 $-1 $5 $1 #
ATTRIB_CUSTOM-attrib $-1 -1 $-1 $2 $1 @22 generic_tag_attrib_def 3 3 -1 @23 generic_tag_attrib_def  3 3 @3 531 2 0 0 3 @3 688 2 0 0 3 @3 818 2 0 0 #
shell $-1 -1 $-1 $-1 $-1 $6 $-1 $3 #
face $7 186 $-1 $8 $9 $5 $-1 $10 forward single #
ATTRIB_CUSTOM-attrib $-1 -1 $-1 $-1 $6 @22 generic_tag_attrib_def 3 3 -1 @23 generic_tag_attrib_def  1 3 @3 108 0 3 531 688 818 0 #
face $11 187 $-1 $12 $13 $5 $-1 $14 forward single #
loop $-1 -1 $-1 $-1 $15 $6 #
plane-surface $-1 -1 $-1 18.05131452164948413 -29.91144860983957088 0.01199999999988425256 0.9972372355389882426 0.07428254205771631091 3.610558932392996852e-14 3.620561691563348901e-14 0 -1 forward_v I I I I #
ATTRIB_CUSTOM-attrib $-1 -1 $16 $-1 $8 @22 generic_tag_attrib_def 3 3 -1 @23 generic_tag_attrib_def  1 3 @3 109 0 3 531 688 818 0 #
face $17 188 $-1 $18 $19 $5 $-1 $20 forward single #
loop $21 -1 $-1 $-1 $22 $8 #
plane-surface $-1 -1 $-1 18.45020941586511398 -29.8817355930164581 0.1811636288724437494 -0.03714127102888064441 0.4986186177694912347 -0.8660254037844393737 -0.06433056847968837699 0.8636327795765287307 0.500000000000000222 forward_v I I I I #
coedge $-1 -1 $-1 $23 $24 $25 $26 forward $9 0 $-1 #
DXID-attrib $-1 -1 $-1 $11 $8 @7 PS-Face @3 190 #
ATTRIB_CUSTOM-attrib $-1 -1 $27 $-1 $12 @22 generic_tag_attrib_def 3 3 -1 @23 generic_tag_attrib_def  1 3 @3 110 0 3 531 688 818 0 #
face $28 189 $-1 $29 $30 $5 $-1 $31 forward single #
loop $32 -1 $-1 $-1 $33 $12 #
plane-surface $-1 -1 $-1 18.46109180827651741 -30.02783084802291569 0.0965818144361640929 -0.07428254205774334484 0.9972372355389863552 6.118339830511088709e-32 6.963670396567776383e-15 5.187122187928826727e-16 1.000000000000001998 forward_v I I I I #
DXID-attrib $-1 -1 $-1 $-1 $13 @7 PS-Loop @3 195 #
coedge $-1 -1 $-1 $34 $35 $36 $37 reversed $13 0 $-1 #
coedge $-1 -1 $-1 $38 $15 $39 $40 forward $9 0 $-1 #
coedge $-1 -1 $-1 $15 $41 $42 $43 forward $9 0 $-1 #
coedge $-1 -1 $-1 $44 $45 $15 $26 reversed $46 0 $-1 #
edge $47 164 $-1 $48 0 $49 0.9999999999998475664 $15 $50 forward @7 unknown #
DXID-attrib $-1 -1 $-1 $17 $12 @7 PS-Face @3 184 #
ATTRIB_CUSTOM-attrib $-1 -1 $51 $-1 $18 @22 generic_tag_attrib_def 3 3 -1 @23 generic_tag_attrib_def  1 3 @3 111 0 3 531 688 818 0 #
face $52 190 $-1 $53 $54 $5 $-1 $55 forward single #
loop $56 -1 $-1 $-1 $57 $18 #
plane-surface $-1 -1 $-1 18.46109180827651386 -30.02783084802291569 -0.07258181443639688535 -0.03714127102886269349 0.4986186177694940658 0.8660254037844384856 0.06433056847969520486 -0.8636327795765280646 0.5000000000000021094 forward_v I I I I #
DXID-attrib $-1 -1 $-1 $-1 $19 @7 PS-Loop @3 189 #
coedge $-1 -1 $-1 $58 $59 $60 $61 reversed $19 0 $-1 #
coedge $-1 -1 $-1 $39 $22 $59 $62 forward $13 0 $-1 #
coedge $-1 -1 $-1 $22 $39 $45 $63 reversed $13 0 $-1 #
coedge $-1 -1 $-1 $64 $60 $22 $37 forward $65 0 $-1 #
edge $-1 170 $-1 $66 -0.1268727216544181247 $67 0.04229090721813205667 $22 $68 forward @7 unknown #
coedge $-1 -1 $-1 $69 $23 $70 $71 forward $9 0 $-1 #
coedge $-1 -1 $-1 $35 $34 $23 $40 reversed $13 0 $-1 #
edge $72 165 $-1 $49 0 $73 1.00000000000006195 $23 $74 forward @7 unknown #
coedge $-1 -1 $-1 $24 $69 $75 $76 forward $9 0 $-1 #
coedge $-1 -1 $-1 $77 $78 $24 $43 reversed $79 0 $-1 #
edge $80 169 $-1 $81 0 $48 0.9999999999999965583 $24 $82 forward @7 unknown #
coedge $-1 -1 $-1 $83 $25 $78 $84 reversed $46 0 $-1 #
coedge $-1 -1 $-1 $25 $83 $35 $63 forward $46 0 $-1 #
loop $85 -1 $-1 $-1 $83 $86 #
DXID-attrib $-1 -1 $-1 $-1 $26 @7 PS-Edge @3 836 #
vertex $-1 148 $-1 $26 0 $87 #
vertex $-1 149 $-1 $26 1 $88 #
straight-curve $-1 -1 $-1 18.04043212923803097 -29.76535335483312394 0.09658181443616775663 0.01088239241146017611 -0.1460952550064575084 0.08458181443627878215 F 0 F 0.9999999999998475664 #
DXID-attrib $-1 -1 $-1 $28 $18 @7 PS-Face @3 178 #
ATTRIB_CUSTOM-attrib $-1 -1 $89 $-1 $29 @22 generic_tag_attrib_def 3 3 -1 @23 generic_tag_attrib_def  1 3 @3 112 0 3 531 688 818 0 #
face $90 191 $-1 $86 $79 $5 $-1 $91 forward single #
loop $92 -1 $-1 $-1 $93 $29 #
plane-surface $-1 -1 $-1 18.45020941586505359 -29.8817355930164581 -0.1571636288726757646 0.03714127102888063053 -0.4986186177694909571 0.8660254037844395958 0.06433056847968850189 -0.8636327795765288418 -0.4999999999999999445 forward_v I I I I #
DXID-attrib $-1 -1 $-1 $-1 $30 @7 PS-Loop @3 183 #
coedge $-1 -1 $-1 $94 $95 $96 $97 reversed $30 0 $-1 #
coedge $-1 -1 $-1 $70 $33 $95 $98 forward $19 0 $-1 #
coedge $-1 -1 $-1 $33 $70 $34 $62 reversed $19 0 $-1 #
coedge $-1 -1 $-1 $36 $96 $33 $61 forward $65 0 $-1 #
edge $-1 173 $-1 $99 -0.1268727216544211778 $66 0.04229090721813976578 $33 $100 forward @7 unknown #
edge $101 171 $-1 $66 -8.857245919271381298e-15 $73 0.9999999999999565903 $59 $102 forward @7 unknown #
edge $103 172 $-1 $67 1.069467125394182276e-13 $49 1.000000000000097256 $35 $104 forward @7 unknown #
coedge $-1 -1 $-1 $105 $36 $83 $106 forward $65 0 $-1 #
loop $-1 -1 $-1 $-1 $36 $107 #
vertex $-1 155 $-1 $37 0 $108 #
vertex $-1 154 $-1 $37 1 $109 #
straight-curve $-1 -1 $-1 18.45293001396792931 -29.91825940676807249 0.1600181752633753618 -0.064330568479686559 0.8636327795765289528 0.4999999999999988898 F -0.1268727216544181247 F 0.04229090721813205667 #
coedge $-1 -1 $-1 $41 $38 $110 $111 forward $9 0 $-1 #
coedge $-1 -1 $-1 $59 $58 $38 $71 reversed $19 0 $-1 #
edge $112 166 $-1 $73 -0 $113 0.9999999999999958922 $38 $114 forward @7 unknown #
DXID-attrib $-1 -1 $-1 $-1 $40 @7 PS-Edge @3 832 #
vertex $-1 150 $-1 $40 1 $115 #
straight-curve $-1 -1 $-1 18.05131452164946637 -29.91144860983955311 0.18116362887244708 0.0108823924114583373 -0.1460952550064614497 -0.08458181443627978136 F 0 F 1.00000000000006195 #
coedge $-1 -1 $-1 $116 $117 $41 $76 reversed $54 0 $-1 #
edge $118 168 $-1 $119 0 $81 0.9999999999998341327 $41 $120 forward @7 unknown #
coedge $-1 -1 $-1 $121 $42 $117 $122 reversed $79 0 $-1 #
coedge $-1 -1 $-1 $42 $121 $44 $84 forward $79 0 $-1 #
loop $123 -1 $-1 $-1 $121 $53 #
DXID-attrib $-1 -1 $-1 $-1 $43 @7 PS-Edge @3 840 #
vertex $-1 153 $-1 $76 1 $124 #
straight-curve $-1 -1 $-1 18.04043212923803097 -29.76535335483312394 -0.07258181443639238895 1.842293198501180472e-15 1.372293543836576067e-16 0.1691636288725607284 F 0 F 0.9999999999999965583 #
coedge $-1 -1 $-1 $45 $44 $64 $106 reversed $46 0 $-1 #
edge $125 180 $-1 $126 0 $48 0.9999999999999673594 $78 $127 forward @7 unknown #
DXID-attrib $-1 -1 $-1 $-1 $46 @7 PS-Loop @3 201 #
face $128 192 $-1 $107 $46 $5 $-1 $129 forward single #
point $-1 -1 $-1 18.04043212923803097 -29.76535335483312394 0.09658181443616775663 #
point $-1 -1 $-1 18.05131452164946637 -29.91144860983955311 0.18116362887244708 #
DXID-attrib $-1 -1 $-1 $52 $29 @7 PS-Face @3 172 #
ATTRIB_CUSTOM-attrib $-1 -1 $130 $-1 $53 @22 generic_tag_attrib_def 3 3 -1 @23 generic_tag_attrib_def  1 3 @3 113 0 3 531 688 818 0 #
plane-surface $-1 -1 $-1 18.43932702345360397 -29.73564033801000051 -0.07258181443639655228 0.07428254205774334484 -0.9972372355389863552 -6.118339830511088709e-32 -6.963670396567776383e-15 -5.187122187928826727e-16 -1.000000000000001998 forward_v I I I I #
DXID-attrib $-1 -1 $-1 $-1 $54 @7 PS-Loop @3 177 #
coedge $-1 -1 $-1 $117 $116 $131 $132 reversed $54 0 $-1 #
coedge $-1 -1 $-1 $110 $57 $116 $133 forward $30 0 $-1 #
coedge $-1 -1 $-1 $57 $110 $58 $98 reversed $30 0 $-1 #
coedge $-1 -1 $-1 $60 $131 $57 $97 forward $65 0 $-1 #
edge $-1 175 $-1 $134 -0.1268727216544179581 $99 0.04229090721813819065 $57 $135 forward @7 unknown #
edge $136 174 $-1 $99 -8.857245919271386031e-15 $113 0.9999999999999480416 $95 $137 forward @7 unknown #
vertex $-1 156 $-1 $61 0 $138 #
straight-curve $-1 -1 $-1 18.46109180827652096 -30.02783084802291569 0.05429090721802432018 1.044550559485165432e-14 7.780683281893231709e-16 1.000000000000000222 F -0.1268727216544211778 F 0.04229090721813976578 #
DXID-attrib $-1 -1 $-1 $-1 $62 @7 PS-Edge @3 830 #
straight-curve $-1 -1 $-1 18.46109180827651741 -30.02783084802291569 0.0965818144361640929 -0.3988948942155946531 -0.0297130168230973768 4.12545270062469611e-15 F -8.857245919271381298e-15 F 0.9999999999999565903 #
DXID-attrib $-1 -1 $-1 $-1 $63 @7 PS-Edge @3 834 #
straight-curve $-1 -1 $-1 18.45020941586511398 -29.8817355930164581 0.1811636288724437494 -0.398894894215594209 -0.02971301682309735945 4.125452700624692955e-15 F 1.069467125394182276e-13 F 1.000000000000097256 #
coedge $-1 -1 $-1 $131 $64 $121 $139 forward $65 0 $-1 #
edge $-1 181 $-1 $67 -0.1268727216544242031 $126 0.04229090721813875964 $83 $140 forward @7 unknown #
face $141 193 $-1 $142 $143 $5 $-1 $144 forward single #
point $-1 -1 $-1 18.46109180827652096 -30.02783084802291569 0.0965818144361640929 #
point $-1 -1 $-1 18.4502094158650678 -29.8817355930164652 0.1811636288724437494 #
coedge $-1 -1 $-1 $95 $94 $69 $111 reversed $30 0 $-1 #
edge $145 167 $-1 $113 3.281506290757030986e-15 $119 1.000000000000074829 $69 $146 forward @7 unknown #
DXID-attrib $-1 -1 $-1 $-1 $71 @7 PS-Edge @3 828 #
vertex $-1 151 $-1 $71 1 $147 #
straight-curve $-1 -1 $-1 18.06219691406094796 -30.05754386484602492 0.09658181443616731254 -1.842293198501191516e-15 -1.372293543836583709e-16 -0.1691636288725621162 F -0 F 0.9999999999999958922 #
point $-1 -1 $-1 18.06219691406094796 -30.05754386484602492 0.09658181443616731254 #
coedge $-1 -1 $-1 $93 $75 $94 $133 reversed $54 0 $-1 #
coedge $-1 -1 $-1 $75 $93 $77 $122 forward $54 0 $-1 #
DXID-attrib $-1 -1 $-1 $-1 $76 @7 PS-Edge @3 818 #
vertex $-1 152 $-1 $111 1 $148 #
straight-curve $-1 -1 $-1 18.05131452164948769 -29.91144860983955311 -0.1571636288726719899 -0.01088239241145834077 0.1460952550064614497 0.08458181443627972584 F 0 F 0.9999999999998341327 #
coedge $-1 -1 $-1 $78 $77 $105 $139 reversed $79 0 $-1 #
edge $149 178 $-1 $150 8.857245919271386031e-15 $81 0.9999999999999678035 $117 $151 forward @7 unknown #
DXID-attrib $-1 -1 $-1 $-1 $79 @7 PS-Loop @3 207 #
point $-1 -1 $-1 18.04043212923803097 -29.76535335483312394 -0.07258181443639238895 #
DXID-attrib $-1 -1 $-1 $-1 $84 @7 PS-Edge @3 838 #
vertex $-1 159 $-1 $139 0 $152 #
straight-curve $-1 -1 $-1 18.43932702345360397 -29.73564033801000051 0.09658181443616442596 -0.3988948942155946531 -0.0297130168230973768 4.12545270062469611e-15 F 0 F 0.9999999999999673594 #
ATTRIB_CUSTOM-attrib $-1 -1 $153 $-1 $86 @22 generic_tag_attrib_def 3 3 -1 @23 generic_tag_attrib_def  1 3 @3 114 0 3 531 688 818 0 #
plane-surface $-1 -1 $-1 18.43932702345360397 -29.73564033801000051 0.09658181443616442596 0.03714127102886270043 -0.4986186177694941768 -0.8660254037844384856 -0.06433056847969520486 0.8636327795765280646 -0.5000000000000022204 forward_v I I I I #
DXID-attrib $-1 -1 $-1 $90 $53 @7 PS-Face @3 202 #
coedge $-1 -1 $-1 $96 $105 $93 $132 forward $65 0 $-1 #
edge $-1 177 $-1 $150 -0.1268727216544203173 $134 0.04229090721813596326 $93 $154 forward @7 unknown #
edge $155 176 $-1 $134 -8.857245919271386031e-15 $119 0.9999999999999461542 $94 $156 forward @7 unknown #
vertex $-1 157 $-1 $97 0 $157 #
straight-curve $-1 -1 $-1 18.45837121017365945 -29.99130703427130129 -0.09372726804546571699 0.06433056847969693959 -0.8636327795765275095 0.5000000000000005551 F -0.1268727216544179581 F 0.04229090721813819065 #
DXID-attrib $-1 -1 $-1 $-1 $98 @7 PS-Edge @3 826 #
straight-curve $-1 -1 $-1 18.46109180827651386 -30.02783084802291569 -0.07258181443639688535 -0.3988948942155944311 -0.0297130168230973768 4.18096385185595236e-15 F -8.857245919271386031e-15 F 0.9999999999999480416 #
point $-1 -1 $-1 18.46109180827651741 -30.02783084802291569 -0.07258181443639688535 #
edge $-1 179 $-1 $126 -0.1268727216544204006 $150 0.04229090721814054293 $121 $158 forward @7 unknown #
straight-curve $-1 -1 $-1 18.44204762155646904 -29.7721641517616149 0.1177272680452334797 -0.06433056847969693959 0.8636327795765275095 -0.5000000000000006661 F -0.1268727216544242031 F 0.04229090721813875964 #
ATTRIB_CUSTOM-attrib $-1 -1 $-1 $-1 $107 @22 generic_tag_attrib_def 3 3 -1 @23 generic_tag_attrib_def  1 3 @3 115 0 3 531 688 818 0 #
face $159 194 $-1 $160 $161 $5 $-1 $162 forward single #
loop $-1 -1 $-1 $65 $163 $107 #
plane-surface $-1 -1 $-1 18.45020941586506069 -29.8817355930164581 0.01199999999988443644 0.9972372355389863552 0.07428254205774335872 -1.047444401652940007e-14 -1.050346260974518926e-14 0 -1 forward_v I I I I #
DXID-attrib $-1 -1 $-1 $-1 $111 @7 PS-Edge @3 824 #
straight-curve $-1 -1 $-1 18.06219691406094796 -30.05754386484602492 -0.07258181443639299957 -0.01088239241146016049 0.1460952550064575084 -0.08458181443627836582 F 3.281506290757030986e-15 F 1.000000000000074829 #
point $-1 -1 $-1 18.06219691406094796 -30.05754386484602492 -0.07258181443639410979 #
point $-1 -1 $-1 18.05131452164948769 -29.91144860983955311 -0.1571636288726719899 #
DXID-attrib $-1 -1 $-1 $-1 $122 @7 PS-Edge @3 822 #
vertex $-1 158 $-1 $132 0 $164 #
straight-curve $-1 -1 $-1 18.43932702345360397 -29.73564033801000051 -0.07258181443639655228 -0.3988948942155944311 -0.0297130168230973768 4.18096385185595236e-15 F 8.857245919271386031e-15 F 0.9999999999999678035 #
point $-1 -1 $-1 18.43932702345360397 -29.73564033801000051 0.09658181443616442596 #
DXID-attrib $-1 -1 $-1 $128 $86 @7 PS-Face @3 196 #
straight-curve $-1 -1 $-1 18.44748881776219562 -29.84521177926484725 -0.1360181752636061558 0.06433056847968657288 -0.8636327795765292858 -0.4999999999999986677 F -0.1268727216544203173 F 0.04229090721813596326 #
DXID-attrib $-1 -1 $-1 $-1 $133 @7 PS-Edge @3 820 #
straight-curve $-1 -1 $-1 18.45020941586505359 -29.8817355930164581 -0.1571636288726757646 -0.3988948942155944311 -0.0297130168230973768 4.18096385185595236e-15 F -8.857245919271386031e-15 F 0.9999999999999461542 #
point $-1 -1 $-1 18.45020941586506069 -29.8817355930164581 -0.1571636288726757646 #
straight-curve $-1 -1 $-1 18.43932702345360397 -29.73564033801000051 -0.03029090721825600241 -1.044550559485165432e-14 -7.780683281893231709e-16 -1.000000000000000222 F -0.1268727216544204006 F 0.04229090721814054293 #
ATTRIB_CUSTOM-attrib $-1 -1 $-1 $-1 $142 @22 generic_tag_attrib_def 3 3 -1 @23 generic_tag_attrib_def  1 3 @3 116 0 3 531 688 818 0 #
face $165 195 $-1 $166 $167 $5 $-1 $168 forward single #
loop $-1 -1 $-1 $-1 $169 $142 #
plane-surface $-1 -1 $-1 17.50283404210303217 -29.95230400797131409 0.01199999999989409538 -0.9972372355389863552 -0.07428254205774340035 1.047444401652940007e-14 1.0503462609745194e-14 -3.944304526105059027e-31 1.000000000000000666 forward_v I I I I #
coedge $-1 -1 $-1 $163 $163 $170 $171 forward $143 0 $-1 #
point $-1 -1 $-1 18.43932702345360397 -29.73564033801000051 -0.07258181443639655228 #
ATTRIB_CUSTOM-attrib $-1 -1 $172 $-1 $160 @22 generic_tag_attrib_def 3 3 -1 @23 generic_tag_attrib_def  1 3 @3 117 0 3 531 688 818 0 #
face $173 196 $-1 $174 $175 $5 $-1 $176 forward single #
loop $177 -1 $-1 $178 $179 $160 #
cone-surface $-1 -1 $-1 18.05131452164949124 -29.91144860983956022 0.01199999999988787813 -0.9972372355389863552 -0.07428254205774334484 1.047444401652940322e-14 3.655926958198087058e-15 2.723239148662637606e-16 0.350000000000001199 1 I I 0 1 0.3500000000000006994 forward I I I I #
coedge $-1 -1 $-1 $169 $169 $180 $181 forward $161 0 $-1 #
coedge $-1 -1 $-1 $170 $170 $163 $171 reversed $175 0 $-1 #
edge $182 182 $-1 $183 8.444947304467768746e-16 $183 6.28318530717958712 $163 $184 forward @7 unknown #
DXID-attrib $-1 -1 $-1 $165 $160 @7 PS-Face @3 222 #
ATTRIB_CUSTOM-attrib $-1 -1 $185 $-1 $166 @22 generic_tag_attrib_def 3 3 -1 @23 generic_tag_attrib_def  1 3 @3 118 0 3 531 688 818 0 #
face $186 197 $-1 $-1 $187 $5 $-1 $188 reversed single #
loop $189 -1 $-1 $190 $170 $166 #
cone-surface $-1 -1 $-1 18.45020941586506069 -29.8817355930164581 0.01199999999988454746 -0.9972372355389863552 -0.07428254205774334484 1.047444401652940007e-14 6.528440996782299333e-15 4.862927051183279186e-16 0.6250000000000012212 1 I I 0 1 0.625000000000000222 forward I I I I #
DXID-attrib $-1 -1 $-1 $-1 $167 @7 PS-Loop @3 227 #
loop $191 -1 $-1 $-1 $180 $160 #
coedge $-1 -1 $-1 $179 $179 $192 $193 forward $167 0 $-1 #
coedge $-1 -1 $-1 $180 $180 $169 $181 reversed $178 0 $-1 #
edge $194 183 $-1 $195 -7.540131521846226039e-16 $195 6.283185307179585344 $169 $196 forward @7 unknown #
DXID-attrib $-1 -1 $-1 $-1 $171 @7 PS-Edge @3 538 #
vertex $-1 160 $-1 $171 0 $197 #
ellipse-curve $-1 -1 $-1 18.45020941586506069 -29.8817355930164581 0.01199999999988443644 0.9972372355389863552 0.07428254205774335872 -1.047444401652940007e-14 -6.528440996782297755e-15 -4.862927051183279186e-16 -0.6250000000000011102 1 I I #
DXID-attrib $-1 -1 $-1 $173 $166 @7 PS-Face @3 208 #
ATTRIB_CUSTOM-attrib $-1 -1 $198 $-1 $174 @22 generic_tag_attrib_def 3 3 -1 @23 generic_tag_attrib_def  1 3 @3 119 0 3 531 688 818 0 #
loop $199 -1 $-1 $200 $201 $174 #
plane-surface $-1 -1 $-1 18.05131452164949124 -29.91144860983956022 0.01199999999988787813 0.9972372355389863552 0.07428254205774334484 -1.047444401652940007e-14 -1.044550559485165432e-14 -7.780683281893229736e-16 -1.000000000000001998 forward_v I I I I #
DXID-attrib $-1 -1 $-1 $-1 $175 @7 PS-Loop @3 213 #
loop $202 -1 $-1 $-1 $203 $166 #
DXID-attrib $-1 -1 $-1 $-1 $178 @7 PS-Loop @3 228 #
coedge $-1 -1 $-1 $192 $192 $179 $193 reversed $200 0 $-1 #
edge $204 184 $-1 $205 -6.283185307179566692 $205 1.953992523340275511e-14 $179 $206 reversed @7 unknown #
DXID-attrib $-1 -1 $-1 $-1 $181 @7 PS-Edge @3 846 #
vertex $-1 161 $-1 $181 0 $207 #
ellipse-curve $-1 -1 $-1 17.50283404210303217 -29.95230400797131409 0.01199999999989409538 -0.9972372355389863552 -0.07428254205774340035 1.047444401652940007e-14 3.655926958198087058e-15 2.723239148662639578e-16 0.350000000000000977 1 I I #
point $-1 -1 $-1 18.45020941586505359 -29.8817355930164581 -0.6130000000001166738 #
DXID-attrib $-1 -1 $-1 $186 $174 @7 PS-Face @3 215 #
DXID-attrib $-1 -1 $-1 $-1 $187 @7 PS-Loop @3 221 #
loop $208 -1 $-1 $-1 $192 $174 #
coedge $-1 -1 $-1 $201 $201 $203 $209 reversed $187 0 $-1 #
DXID-attrib $-1 -1 $-1 $-1 $190 @7 PS-Loop @3 214 #
coedge $-1 -1 $-1 $203 $203 $201 $209 forward $190 0 $-1 #
DXID-attrib $-1 -1 $-1 $-1 $193 @7 PS-Edge @3 844 #
vertex $-1 162 $-1 $193 0 $210 #
ellipse-curve $-1 -1 $-1 18.05131452164949124 -29.91144860983956022 0.01199999999988787813 0.9972372355389863552 0.07428254205774334484 -1.047444401652940007e-14 -3.655926958198087058e-15 -2.723239148662637606e-16 -0.350000000000001199 1 I I #
point $-1 -1 $-1 17.50283404210303573 -29.95230400797131409 0.3619999999998954054 #
DXID-attrib $-1 -1 $-1 $-1 $200 @7 PS-Loop @3 220 #
edge $211 185 $-1 $212 -1.049278004622057615e-14 $212 6.283185307179575574 $203 $213 forward @7 unknown #
point $-1 -1 $-1 18.05131452164945927 -29.91144860983956022 -0.3380000000001127658 #
DXID-attrib $-1 -1 $-1 $-1 $209 @7 PS-Edge @3 842 #
vertex $-1 163 $-1 $209 0 $214 #
ellipse-curve $-1 -1 $-1 18.05131452164949124 -29.91144860983956022 0.01199999999988787813 0.9972372355389863552 0.07428254205774334484 -1.047444401652940007e-14 -6.528440996782299333e-15 -4.862927051183279186e-16 -0.6250000000000012212 1 I I #
point $-1 -1 $-1 18.05131452164945927 -29.91144860983956022 -0.6130000000001133431 #
End-of-ASM-data 