22700 0 2 4           
16 Autodesk Neutron 20 ASM 227.1.1.65535 NT 24 Wed Aug 25 05:49:24 2021 
10 9.999999999999999547e-07 1.000000000000000036e-10 
asmheader $-1 -1 @13 227.1.1.65535 #
body $2 -1 $-1 $3 $-1 $-1 #
ATTRIB_CUSTOM-attrib $-1 -1 $4 $-1 $1 @20 Timestamp_attrib_def 1 1629870555850851 #
lump $-1 -1 $-1 $-1 $5 $1 #
ATTRIB_CUSTOM-attrib $-1 -1 $6 $2 $1 @22 generic_tag_attrib_def 3 3 -1 @23 generic_tag_attrib_def  1 3 @3 305 1 0 0 #
shell $-1 -1 $-1 $-1 $-1 $7 $-1 $3 #
DXID-attrib $-1 -1 $-1 $4 $1 @18 ASM_BODY_FROM_STEP @2 66 #
face $8 38 $-1 $9 $10 $5 $-1 $11 forward single #
ATTRIB_CUSTOM-attrib $-1 -1 $12 $-1 $7 @22 generic_tag_attrib_def 3 3 -1 @23 generic_tag_attrib_def  1 1 @1 0 0 1 -305 0 #
face $13 39 $-1 $14 $15 $5 $-1 $16 forward single #
loop $-1 -1 $-1 $17 $18 $7 #
cone-surface $-1 -1 $-1 0.5999999999999998668 0 0 -1 -0 -0 0 0 0.0004999999999999796274 1 I I 0.707106781186549127 0.7071067811865459074 0.0004999999999999796274 forward I I I I #
DXID-attrib $-1 -1 $19 $8 $7 @18 ASM_FACE_FROM_STEP @3 206 #
ATTRIB_CUSTOM-attrib $-1 -1 $20 $-1 $9 @22 FDM_feature_attrib_def 2 2 @12 feature_data 3 1 2097152 5 1901 #
face $21 40 $-1 $22 $23 $5 $-1 $24 forward single #
loop $-1 -1 $-1 $25 $26 $9 #
cone-surface $-1 -1 $-1 -1.269999999999998241 0 0 -1 -0 -0 0 0 0.1523250000000000159 1 I I 0 1 0.1499999999999999667 forward I I I I #
loop $-1 -1 $-1 $-1 $27 $7 #
coedge $-1 -1 $-1 $18 $18 $28 $29 forward $10 0 $-1 #
DXID-attrib $-1 -1 $-1 $12 $7 @18 ASM_FACE_FROM_STEP @3 200 #
ATTRIB_CUSTOM-attrib $-1 -1 $30 $13 $9 @22 generic_tag_attrib_def 3 3 -1 @23 generic_tag_attrib_def  1 1 @1 1 0 1 -305 0 #
ATTRIB_CUSTOM-attrib $-1 -1 $31 $-1 $14 @22 generic_tag_attrib_def 3 3 -1 @23 generic_tag_attrib_def  1 1 @1 2 0 1 -305 0 #
face $32 41 $-1 $33 $34 $5 $-1 $35 forward single #
loop $-1 -1 $-1 $36 $37 $14 #
cone-surface $-1 -1 $-1 0 0 0 1 0 0 0 0 -0.1219500000000000028 1 I I 0.8660254037844401509 0.499999999999997391 0.1219500000000000028 forward I I I I #
loop $-1 -1 $-1 $-1 $38 $9 #
coedge $-1 -1 $-1 $26 $26 $27 $39 forward $15 0 $-1 #
coedge $-1 -1 $-1 $27 $27 $26 $39 reversed $17 0 $-1 #
coedge $-1 -1 $-1 $28 $28 $18 $29 reversed $40 0 $-1 #
edge $41 1 $-1 $42 0 $42 6.283185307179586232 $18 $43 forward @7 unknown #
DXID-attrib $-1 -1 $44 $20 $9 @18 ASM_FACE_FROM_STEP @3 205 #
DXID-attrib $-1 -1 $45 $21 $14 @18 ASM_FACE_FROM_STEP @3 204 #
ATTRIB_CUSTOM-attrib $-1 -1 $46 $-1 $22 @22 generic_tag_attrib_def 3 3 -1 @23 generic_tag_attrib_def  1 1 @1 3 0 1 -305 0 #
face $47 42 $-1 $48 $40 $5 $-1 $49 reversed single #
loop $-1 -1 $-1 $50 $51 $22 #
plane-surface $-1 -1 $-1 2.79602172330330084e-17 0 0 -1 0 -0 -0 0 0.1000000000000000056 forward_v I I I I #
loop $-1 -1 $-1 $-1 $52 $14 #
coedge $-1 -1 $-1 $37 $37 $51 $53 reversed $23 0 $-1 #
coedge $-1 -1 $-1 $38 $38 $52 $54 reversed $25 0 $-1 #
edge $55 2 $-1 $56 -3.141592653589793116 $56 3.141592653589793116 $27 $57 forward @7 unknown #
loop $-1 -1 $-1 $-1 $28 $33 #
DXID-attrib $-1 -1 $58 $-1 $29 @18 ASM_EDGE_FROM_STEP @4 1773 #
vertex $-1 3 $-1 $29 0 $59 #
ellipse-curve $-1 -1 $-1 0.5999999999999998668 0 0 -1 -0 -0 0 0 0.0004999999999999796274 1 I I #
DXID-attrib $-1 -1 $-1 $30 $9 @18 ASM_FACE_FROM_STEP @3 201 #
DXID-attrib $-1 -1 $-1 $31 $14 @18 ASM_FACE_FROM_STEP @3 202 #
DXID-attrib $-1 -1 $-1 $32 $22 @18 ASM_FACE_FROM_STEP @3 203 #
ATTRIB_CUSTOM-attrib $-1 -1 $60 $-1 $33 @22 generic_tag_attrib_def 3 3 -1 @23 generic_tag_attrib_def  1 1 @1 4 0 1 -305 0 #
face $61 43 $-1 $62 $63 $5 $-1 $64 forward single #
plane-surface $-1 -1 $-1 0.5999999999999998668 0 0 -1 0 -0 -0 0 0.1000000000000000056 forward_v I I I I #
loop $-1 -1 $-1 $-1 $65 $22 #
coedge $-1 -1 $-1 $51 $51 $37 $53 forward $34 0 $-1 #
coedge $-1 -1 $-1 $52 $52 $38 $54 forward $36 0 $-1 #
edge $66 19 $-1 $67 -3.141592653589793116 $67 3.141592653589793116 $37 $68 forward @7 unknown #
edge $69 0 $-1 $70 -3.141592653589793116 $70 3.141592653589793116 $38 $71 reversed @7 unknown #
DXID-attrib $-1 -1 $72 $-1 $39 @18 ASM_EDGE_FROM_STEP @4 1772 #
vertex $-1 4 $-1 $39 0 $73 #
ellipse-curve $-1 -1 $-1 0.4481750000000004341 0 0 -1 -0 -0 0 0 0.1523250000000000159 1 I I #
DXID-attrib $-1 -1 $-1 $41 $29 @18 ASM_EDGE_FROM_STEP @4 1755 #
point $-1 -1 $-1 0.5999999999999998668 0 0.0004999999999999796274 #
DXID-attrib $-1 -1 $-1 $47 $33 @18 ASM_FACE_FROM_STEP @3 207 #
ATTRIB_CUSTOM-attrib $-1 -1 $74 $-1 $48 @22 generic_tag_attrib_def 3 3 -1 @23 generic_tag_attrib_def  1 1 @1 5 0 1 -305 0 #
face $75 44 $-1 $76 $77 $5 $-1 $78 reversed single #
loop $-1 -1 $-1 $-1 $79 $48 #
plane-surface $-1 -1 $-1 0.21000000000000002 0.07500000000000033029 0.04330127018922166893 0 -0.4999999999999998335 -0.8660254037844388186 0 0.08660254037844389297 -0.0499999999999999889 forward_v I I I I #
coedge $-1 -1 $-1 $80 $81 $82 $83 reversed $50 0 $-1 #
DXID-attrib $-1 -1 $84 $-1 $53 @18 ASM_EDGE_FROM_STEP @4 1764 #
vertex $-1 6 $-1 $53 0 $85 #
ellipse-curve $-1 -1 $-1 0 0 0 -1 -0 -0 0 0 0.1219500000000000028 1 I I #
DXID-attrib $-1 -1 $86 $-1 $54 @18 ASM_EDGE_FROM_STEP @4 1771 #
vertex $-1 5 $-1 $54 0 $87 #
ellipse-curve $-1 -1 $-1 0.01753701442663468946 0 0 1 0 0 0 0 0.1523250000000000159 1 I I #
DXID-attrib $-1 -1 $-1 $55 $39 @18 ASM_EDGE_FROM_STEP @4 1756 #
point $-1 -1 $-1 0.4481750000000004341 -1.865443236801205987e-17 -0.1523250000000000159 #
DXID-attrib $-1 -1 $-1 $61 $48 @18 ASM_FACE_FROM_STEP @3 208 #
ATTRIB_CUSTOM-attrib $-1 -1 $88 $-1 $62 @22 generic_tag_attrib_def 3 3 -1 @23 generic_tag_attrib_def  1 1 @1 6 0 1 -305 0 #
face $89 45 $-1 $90 $91 $5 $-1 $92 forward single #
loop $-1 -1 $-1 $-1 $93 $62 #
plane-surface $-1 -1 $-1 0.21000000000000002 -0.07499999999999971967 0.04330127018922166893 0 -0.4999999999999998335 0.8660254037844388186 0 -0.08660254037844389297 -0.0499999999999999889 forward_v I I I I #
coedge $-1 -1 $-1 $94 $95 $80 $96 reversed $63 0 $-1 #
coedge $-1 -1 $-1 $97 $65 $79 $96 forward $50 0 $-1 #
coedge $-1 -1 $-1 $65 $98 $99 $100 reversed $50 0 $-1 #
coedge $-1 -1 $-1 $101 $102 $65 $83 forward $103 0 $-1 #
edge $104 20 $-1 $105 0 $106 0.0008660254037844389123 $65 $107 forward @7 unknown #
DXID-attrib $-1 -1 $-1 $66 $53 @18 ASM_EDGE_FROM_STEP @4 1762 #
point $-1 -1 $-1 0 0 -0.1219500000000000028 #
DXID-attrib $-1 -1 $-1 $69 $54 @18 ASM_EDGE_FROM_STEP @4 1759 #
point $-1 -1 $-1 0.01753701442663468946 1.865443236801205987e-17 -0.1523250000000000159 #
DXID-attrib $-1 -1 $-1 $75 $62 @18 ASM_FACE_FROM_STEP @3 209 #
ATTRIB_CUSTOM-attrib $-1 -1 $108 $-1 $76 @22 generic_tag_attrib_def 3 3 -1 @23 generic_tag_attrib_def  1 1 @1 7 0 1 -305 0 #
face $109 46 $-1 $110 $111 $5 $-1 $112 forward single #
loop $-1 -1 $-1 $-1 $113 $76 #
plane-surface $-1 -1 $-1 0.21000000000000002 -0.07499999999999971967 0.04330127018922166893 -0 1 0 0 -0 0.1000000000000000056 forward_v I I I I #
coedge $-1 -1 $-1 $114 $115 $97 $116 forward $77 0 $-1 #
coedge $-1 -1 $-1 $117 $79 $102 $118 reversed $63 0 $-1 #
coedge $-1 -1 $-1 $79 $117 $114 $119 forward $63 0 $-1 #
edge $120 21 $-1 $105 0 $121 0.0008660254037844389123 $80 $122 forward @7 unknown #
coedge $-1 -1 $-1 $123 $80 $93 $116 reversed $50 0 $-1 #
coedge $-1 -1 $-1 $81 $123 $124 $125 forward $50 0 $-1 #
coedge $-1 -1 $-1 $126 $127 $81 $100 forward $128 0 $-1 #
edge $129 25 $-1 $106 0 $130 0.0008660254037844389123 $81 $131 forward @7 unknown #
coedge $-1 -1 $-1 $132 $82 $127 $133 reversed $103 0 $-1 #
coedge $-1 -1 $-1 $82 $132 $94 $118 forward $103 0 $-1 #
loop $-1 -1 $-1 $-1 $82 $134 #
DXID-attrib $-1 -1 $-1 $-1 $83 @18 ASM_EDGE_FROM_STEP @4 1766 #
vertex $-1 8 $-1 $83 0 $135 #
vertex $-1 7 $-1 $83 1 $136 #
straight-curve $-1 -1 $-1 0 0.07500000000000033029 0.04330127018922166893 0 0 -100 F 0 F 0.0008660254037844389123 #
DXID-attrib $-1 -1 $-1 $89 $76 @18 ASM_FACE_FROM_STEP @3 210 #
ATTRIB_CUSTOM-attrib $-1 -1 $137 $-1 $90 @22 generic_tag_attrib_def 3 3 -1 @23 generic_tag_attrib_def  1 1 @1 8 0 1 -305 0 #
face $138 47 $-1 $134 $128 $5 $-1 $139 reversed single #
loop $-1 -1 $-1 $-1 $124 $90 #
plane-surface $-1 -1 $-1 0.21000000000000002 -0.07499999999999971967 -0.04330127018922223098 -0 0.5000000000000003331 0.8660254037844385966 0 -0.08660254037844386521 0.05000000000000003747 forward_v I I I I #
coedge $-1 -1 $-1 $140 $141 $123 $142 reversed $91 0 $-1 #
coedge $-1 -1 $-1 $143 $93 $95 $119 reversed $77 0 $-1 #
coedge $-1 -1 $-1 $93 $143 $140 $144 forward $77 0 $-1 #
edge $145 22 $-1 $146 0 $121 0.0008660254037844386955 $97 $147 forward @7 unknown #
coedge $-1 -1 $-1 $95 $94 $148 $149 forward $63 0 $-1 #
edge $150 26 $-1 $151 -0 $105 0.00209999999999999987 $94 $152 forward @7 unknown #
edge $153 28 $-1 $154 -0 $121 0.002100000000000000304 $95 $155 forward @7 unknown #
DXID-attrib $-1 -1 $-1 $-1 $96 @18 ASM_EDGE_FROM_STEP @4 1765 #
vertex $-1 9 $-1 $96 1 $156 #
straight-curve $-1 -1 $-1 0 0.07500000000000033029 0.04330127018922166893 0 -86.60254037844389075 49.99999999999998579 F 0 F 0.0008660254037844389123 #
coedge $-1 -1 $-1 $98 $97 $113 $142 forward $50 0 $-1 #
coedge $-1 -1 $-1 $157 $158 $98 $125 reversed $111 0 $-1 #
edge $159 24 $-1 $160 0 $130 0.0008660254037844386955 $98 $161 forward @7 unknown #
coedge $-1 -1 $-1 $162 $99 $158 $163 reversed $128 0 $-1 #
coedge $-1 -1 $-1 $99 $162 $101 $133 forward $128 0 $-1 #
loop $-1 -1 $-1 $-1 $99 $110 #
DXID-attrib $-1 -1 $-1 $-1 $100 @18 ASM_EDGE_FROM_STEP @4 1770 #
vertex $-1 12 $-1 $125 1 $164 #
straight-curve $-1 -1 $-1 0 0.07500000000000033029 -0.04330127018922223098 0 -86.60254037844386232 -50.00000000000002132 F 0 F 0.0008660254037844389123 #
coedge $-1 -1 $-1 $102 $101 $165 $166 reversed $103 0 $-1 #
edge $167 36 $-1 $168 -0 $106 0.002100000000000000304 $127 $169 forward @7 unknown #
face $170 48 $-1 $171 $103 $5 $-1 $172 reversed single #
point $-1 -1 $-1 2.79602172330330084e-17 0.07500000000000033029 0.04330127018922166893 #
point $-1 -1 $-1 0 0.07500000000000033029 -0.04330127018922223098 #
DXID-attrib $-1 -1 $-1 $109 $90 @18 ASM_FACE_FROM_STEP @3 211 #
ATTRIB_CUSTOM-attrib $-1 -1 $173 $-1 $110 @22 generic_tag_attrib_def 3 3 -1 @23 generic_tag_attrib_def  1 1 @1 9 0 1 -305 0 #
plane-surface $-1 -1 $-1 0.21000000000000002 0.07500000000000033029 -0.04330127018922223098 0 0.500000000000000111 -0.8660254037844385966 0 0.08660254037844386521 0.05000000000000001665 forward_v I I I I #
coedge $-1 -1 $-1 $174 $113 $115 $144 reversed $91 0 $-1 #
coedge $-1 -1 $-1 $113 $174 $157 $175 forward $91 0 $-1 #
edge $176 23 $-1 $146 0 $160 0.0008660254037844389123 $123 $177 forward @7 unknown #
coedge $-1 -1 $-1 $115 $114 $178 $179 reversed $77 0 $-1 #
edge $180 30 $-1 $181 -0 $146 0.002100000000000000304 $115 $182 forward @7 unknown #
DXID-attrib $-1 -1 $-1 $-1 $116 @18 ASM_EDGE_FROM_STEP @4 1767 #
vertex $-1 10 $-1 $116 0 $183 #
straight-curve $-1 -1 $-1 0 -0.07499999999999971967 0.04330127018922166893 0 86.60254037844389075 49.99999999999998579 F 0 F 0.0008660254037844386955 #
coedge $-1 -1 $-1 $165 $178 $117 $149 reversed $184 0 $-1 #
edge $185 27 $-1 $151 0 $154 0.0008660254037844389123 $117 $186 forward @7 unknown #
DXID-attrib $-1 -1 $-1 $-1 $118 @18 ASM_EDGE_FROM_STEP @4 1774 #
vertex $-1 13 $-1 $118 0 $187 #
straight-curve $-1 -1 $-1 0.21000000000000002 0.07500000000000033029 0.04330127018922166893 -100 -0 -0 F -0 F 0.00209999999999999987 #
DXID-attrib $-1 -1 $-1 $-1 $119 @18 ASM_EDGE_FROM_STEP @4 1776 #
vertex $-1 14 $-1 $149 1 $188 #
straight-curve $-1 -1 $-1 0.21000000000000002 2.981555974335137194e-16 0.08660254037844360153 -100 -0 -0 F -0 F 0.002100000000000000304 #
point $-1 -1 $-1 0 2.981555974335137194e-16 0.08660254037844360153 #
coedge $-1 -1 $-1 $189 $124 $141 $175 reversed $111 0 $-1 #
coedge $-1 -1 $-1 $124 $189 $126 $163 forward $111 0 $-1 #
DXID-attrib $-1 -1 $-1 $-1 $125 @18 ASM_EDGE_FROM_STEP @4 1769 #
vertex $-1 11 $-1 $142 1 $190 #
straight-curve $-1 -1 $-1 0 -0.07499999999999971967 -0.04330127018922223098 0 86.60254037844387653 -50.00000000000003553 F 0 F 0.0008660254037844386955 #
coedge $-1 -1 $-1 $127 $126 $191 $192 reversed $128 0 $-1 #
edge $193 34 $-1 $194 -0 $130 0.002100000000000000304 $158 $195 forward @7 unknown #
point $-1 -1 $-1 0 2.897874615354775055e-16 -0.08660254037844419828 #
coedge $-1 -1 $-1 $191 $148 $132 $166 forward $184 0 $-1 #
edge $196 37 $-1 $151 0 $168 0.0008660254037844389123 $132 $197 forward @7 unknown #
DXID-attrib $-1 -1 $-1 $-1 $133 @18 ASM_EDGE_FROM_STEP @4 1784 #
vertex $-1 18 $-1 $192 0 $198 #
straight-curve $-1 -1 $-1 0.21000000000000002 0.07500000000000033029 -0.04330127018922223098 -100 -0 -0 F -0 F 0.002100000000000000304 #
ATTRIB_CUSTOM-attrib $-1 -1 $199 $-1 $134 @22 generic_tag_attrib_def 3 3 -1 @23 generic_tag_attrib_def  1 2 @2 10 0 1 -305 0 #
face $200 49 $-1 $-1 $184 $5 $-1 $201 reversed single #
plane-surface $-1 -1 $-1 0.21000000000000002 0.07500000000000033029 0.04330127018922166893 -0 1 0 0 -0 0.1000000000000000056 forward_v I I I I #
DXID-attrib $-1 -1 $-1 $138 $110 @18 ASM_FACE_FROM_STEP @3 212 #
coedge $-1 -1 $-1 $141 $140 $202 $203 forward $91 0 $-1 #
edge $204 32 $-1 $205 -0 $160 0.002100000000000000304 $141 $206 forward @7 unknown #
DXID-attrib $-1 -1 $-1 $-1 $142 @18 ASM_EDGE_FROM_STEP @4 1768 #
straight-curve $-1 -1 $-1 0 -0.07499999999999971967 0.04330127018922166893 0 0 -100 F 0 F 0.0008660254037844389123 #
coedge $-1 -1 $-1 $148 $202 $143 $179 forward $184 0 $-1 #
edge $207 29 $-1 $181 0 $154 0.0008660254037844386955 $143 $208 forward @7 unknown #
DXID-attrib $-1 -1 $-1 $-1 $144 @18 ASM_EDGE_FROM_STEP @4 1778 #
vertex $-1 15 $-1 $179 0 $209 #
straight-curve $-1 -1 $-1 0.21000000000000002 -0.07499999999999971967 0.04330127018922166893 -100 -0 -0 F -0 F 0.002100000000000000304 #
point $-1 -1 $-1 0 -0.07499999999999971967 0.04330127018922166893 #
loop $-1 -1 $-1 $-1 $148 $171 #
DXID-attrib $-1 -1 $-1 $-1 $149 @18 ASM_EDGE_FROM_STEP @4 1775 #
straight-curve $-1 -1 $-1 0.21000000000000002 0.07500000000000033029 0.04330127018922166893 0 -86.60254037844389075 49.99999999999998579 F 0 F 0.0008660254037844389123 #
point $-1 -1 $-1 0.21000000000000002 0.07500000000000033029 0.04330127018922166893 #
point $-1 -1 $-1 0.21000000000000002 2.981555974335137194e-16 0.08660254037844360153 #
coedge $-1 -1 $-1 $158 $157 $210 $211 forward $111 0 $-1 #
point $-1 -1 $-1 0 -0.07499999999999971967 -0.04330127018922223098 #
coedge $-1 -1 $-1 $210 $165 $162 $192 forward $184 0 $-1 #
edge $212 35 $-1 $168 0 $194 0.0008660254037844389123 $162 $213 forward @7 unknown #
DXID-attrib $-1 -1 $-1 $-1 $163 @18 ASM_EDGE_FROM_STEP @4 1782 #
vertex $-1 17 $-1 $211 1 $214 #
straight-curve $-1 -1 $-1 0.21000000000000002 2.897874615354775055e-16 -0.08660254037844419828 -100 -0 -0 F -0 F 0.002100000000000000304 #
DXID-attrib $-1 -1 $-1 $-1 $166 @18 ASM_EDGE_FROM_STEP @4 1785 #
straight-curve $-1 -1 $-1 0.21000000000000002 0.07500000000000033029 0.04330127018922166893 0 0 -100 F 0 F 0.0008660254037844389123 #
point $-1 -1 $-1 0.21000000000000002 0.07500000000000033029 -0.04330127018922223098 #
DXID-attrib $-1 -1 $-1 $170 $134 @18 ASM_FACE_FROM_STEP @3 213 #
ATTRIB_CUSTOM-attrib $-1 -1 $215 $-1 $171 @22 generic_tag_attrib_def 3 3 -1 @23 generic_tag_attrib_def  1 2 @2 11 0 1 -305 0 #
plane-surface $-1 -1 $-1 0.21000000000000002 -0.07499999999999971967 0.1299038105676655064 1 0 0 0 0 -0.1000000000000000056 forward_v I I I I #
coedge $-1 -1 $-1 $178 $210 $174 $203 reversed $184 0 $-1 #
edge $216 31 $-1 $181 0 $205 0.0008660254037844389123 $174 $217 forward @7 unknown #
DXID-attrib $-1 -1 $-1 $-1 $175 @18 ASM_EDGE_FROM_STEP @4 1780 #
vertex $-1 16 $-1 $203 1 $218 #
straight-curve $-1 -1 $-1 0.21000000000000002 -0.07499999999999971967 -0.04330127018922223098 -100 -0 -0 F -0 F 0.002100000000000000304 #
DXID-attrib $-1 -1 $-1 $-1 $179 @18 ASM_EDGE_FROM_STEP @4 1777 #
straight-curve $-1 -1 $-1 0.21000000000000002 -0.07499999999999971967 0.04330127018922166893 0 86.60254037844389075 49.99999999999998579 F 0 F 0.0008660254037844386955 #
point $-1 -1 $-1 0.21000000000000002 -0.07499999999999971967 0.04330127018922166893 #
coedge $-1 -1 $-1 $202 $191 $189 $211 reversed $184 0 $-1 #
edge $219 33 $-1 $205 0 $194 0.0008660254037844386955 $189 $220 forward @7 unknown #
DXID-attrib $-1 -1 $-1 $-1 $192 @18 ASM_EDGE_FROM_STEP @4 1783 #
straight-curve $-1 -1 $-1 0.21000000000000002 0.07500000000000033029 -0.04330127018922223098 0 -86.60254037844386232 -50.00000000000002132 F 0 F 0.0008660254037844389123 #
point $-1 -1 $-1 0.21000000000000002 2.897874615354775055e-16 -0.08660254037844419828 #
DXID-attrib $-1 -1 $-1 $200 $171 @18 ASM_FACE_FROM_STEP @3 214 #
DXID-attrib $-1 -1 $-1 $-1 $203 @18 ASM_EDGE_FROM_STEP @4 1779 #
straight-curve $-1 -1 $-1 0.21000000000000002 -0.07499999999999971967 0.04330127018922166893 0 0 -100 F 0 F 0.0008660254037844389123 #
point $-1 -1 $-1 0.21000000000000002 -0.07499999999999971967 -0.04330127018922223098 #
DXID-attrib $-1 -1 $-1 $-1 $211 @18 ASM_EDGE_FROM_STEP @4 1781 #
straight-curve $-1 -1 $-1 0.21000000000000002 -0.07499999999999971967 -0.04330127018922223098 0 86.60254037844387653 -50.00000000000003553 F 0 F 0.0008660254037844386955 #
End-of-ASM-data 